<svg xmlns="http://www.w3.org/2000/svg" width="25.332" height="25.333" viewBox="0 0 25.332 25.333"><path fill="#E92D41" d="M25.332 12.666c0 6.996-5.672 12.667-12.666 12.667C5.67 25.333 0 19.663 0 12.666 0 5.67 5.67 0 12.666 0c6.994 0 12.666 5.67 12.666 12.666"/><path fill="#FFF" d="M17.34 7.913l-8.16 8.163-2.097-3.64c-.182-.316-.584-.424-.898-.244-.316.183-.425.585-.24.9l2.52 4.384c.03.05.062.093.103.132.002.002.002.004.002.006h.002c.055.056.123.097.195.13l.05.02c.07.024.142.043.218.043.075 0 .15-.02.22-.044.02-.006.036-.015.056-.022.02-.007.038-.012.056-.02.026-.017.04-.04.065-.06.023-.016.052-.026.072-.045l8.772-8.77c.256-.258.256-.676 0-.932-.26-.257-.676-.257-.934 0"/></svg>