<svg xmlns="http://www.w3.org/2000/svg" width="93.64" height="93.218" viewBox="0 0 93.64 93.218"><path fill="#5C59CC" d="M91.64 46.608c0 24.64-20.068 44.61-44.818 44.61C22.07 91.218 2 71.248 2 46.608S22.07 2 46.82 2s44.82 19.97 44.82 44.608"/><path fill="#FFF" d="M91.64 46.608h-2c0 11.77-4.78 22.41-12.54 30.13-7.75 7.71-18.448 12.48-30.278 12.48s-22.528-4.772-30.284-12.48c-7.75-7.72-12.535-18.36-12.535-30.13 0-11.768 4.785-22.407 12.535-30.125C24.293 8.767 34.99 4 46.82 4 58.65 4 69.35 8.766 77.1 16.48 84.86 24.2 89.64 34.84 89.64 46.607h4C93.64 20.857 72.67 0 46.82 0S.003 20.856 0 46.608c.004 25.75 20.97 46.61 46.82 46.61s46.818-20.86 46.818-46.61h-2"/><path fill="#E8E8E8" d="M93.64 46.608h-4c0 11.77-4.78 22.41-12.54 30.13-7.56 7.52-17.93 12.25-29.43 12.47v4c25.46-.45 45.97-21.14 45.97-46.6M47.67.006v4c11.5.225 21.87 4.946 29.43 12.476C84.86 24.2 89.64 34.84 89.64 46.607h4C93.64 21.143 73.13.46 47.67.007"/><path fill="#FFF" d="M61.28 50.387c1.51-.78 2.9-1.578 4.14-2.4 4.48-2.948 6.47-5.736 5.76-8.056-.46-1.517-1.98-2.552-4.49-3.075-.67-.14-1.4-.24-2.19-.305-.62-1.52-2.3-2.343-3.91-1.856-.99.3-1.728 1.047-2.06 1.952-.98.09-1.99.212-3.03.366.43-7.992-.75-14.598-4.33-15.343-3.49-.724-7.098 4.54-9.848 11.734-3.2-1.84-6.15-3.107-8.524-3.597-2.52-.525-4.322-.18-5.35 1.025-1.042 1.223-1.08 3.1-.143 5.534-.996 1.343-.803 3.246.488 4.348.682.583 1.54.83 2.364.754.664.95 1.396 1.922 2.2 2.905-6.436 3.316-10.893 7.186-9.896 10.445.462 1.51 1.976 2.55 4.498 3.07 2.414.5 5.69.51 9.443.07-.182 7.19 1.08 12.9 4.39 13.59 1.9.39 3.83-.98 5.64-3.47.16.06.33.12.5.15 1.74.36 3.44-.75 3.79-2.48.27-1.26-.25-2.49-1.2-3.21.33-.74.65-1.51.972-2.31 3.897 2.45 7.528 4.12 10.35 4.71 2.52.52 4.32.18 5.35-1.03 2.21-2.59-.332-7.91-4.912-13.52M58.43 38.57l.03.126c.52 1.692 2.32 2.646 4.01 2.13 1.13-.347 1.932-1.263 2.182-2.34.59.06 1.14.14 1.64.245 1.74.362 2.82.983 3.06 1.758.32 1.053-.82 3.154-4.99 5.9-1.29.848-2.76 1.69-4.36 2.498-1.57-1.8-3.32-3.6-5.17-5.33.22-1.545.4-3.088.53-4.593 1.058-.164 2.088-.297 3.068-.393m-9.78 14.787c-1.102.34-2.19.65-3.27.93-.87-.69-1.75-1.41-2.63-2.148-1.24-1.072-2.43-2.142-3.56-3.232.188-1.16.4-2.35.66-3.578.17-.815.35-1.612.528-2.39 1.452-.538 2.99-1.062 4.612-1.56 1.1-.333 2.188-.642 3.27-.926.878.69 1.75 1.41 2.628 2.153.65.56 1.28 1.12 1.892 1.67-.19 1.162-.41 2.36-.67 3.6-.34 1.67-.722 3.242-1.12 4.73-.77.26-1.55.51-2.34.75m1.69 1.48c-.26.86-.53 1.7-.81 2.49-.73-.5-1.48-1.02-2.222-1.58.632-.17 1.263-.358 1.9-.55.382-.12.76-.24 1.132-.36m-7.31.03c-1.59.36-3.142.66-4.63.89.09-1.42.23-2.94.45-4.54.85.8 1.74 1.592 2.66 2.38.5.43 1.01.85 1.52 1.27m-5.51-7.61c-.73-.75-1.438-1.51-2.1-2.257.88-.41 1.82-.817 2.8-1.22-.08.388-.17.775-.25 1.158-.16.77-.31 1.55-.45 2.32m3.44-6.563c.42-1.586.88-3.072 1.35-4.46 1.32.834 2.66 1.755 4.02 2.755-.63.18-1.26.362-1.9.556-1.17.357-2.32.74-3.47 1.15m9.65-.818c.95-.216 1.89-.41 2.81-.582-.08.87-.18 1.776-.3 2.708-.33-.29-.66-.573-.99-.854-.5-.433-1.01-.855-1.52-1.272m3.85 5.97c1.39 1.33 2.65 2.64 3.76 3.9-1.58.73-3.28 1.43-5.06 2.09.31-1.18.58-2.37.83-3.56.17-.81.32-1.62.47-2.43m-3.68-22.302c1.858.387 3.29 5.52 2.79 13.78-1.58.282-3.21.63-4.88 1.042-1.93-1.476-3.85-2.81-5.722-3.973 2.792-7.337 6-11.224 7.812-10.85m-18.813 17.16c.123-.103.242-.22.35-.346 1.148-1.347.992-3.373-.355-4.522-.87-.74-2.015-.935-3.03-.622-.546-1.617-.445-2.647-.023-3.14.52-.614 1.766-.755 3.5-.394 2.27.472 5.122 1.718 8.243 3.543-.71 2.01-1.343 4.13-1.892 6.288-1.598.623-3.148 1.29-4.634 1.99-.79-.948-1.512-1.883-2.16-2.797m-4.62 15.302c-1.73-.36-2.815-.98-3.05-1.75-.522-1.7 2.78-5.07 9.333-8.39 1.08 1.24 2.26 2.48 3.52 3.73-.33 2.18-.55 4.35-.67 6.43-3.657.45-6.83.46-9.134-.02m20.363 5.89c-1.54-.07-2.94.99-3.26 2.54-.19.88.01 1.74.47 2.43-1.46 2.02-2.79 3-3.73 2.8-1.73-.36-3.07-4.78-2.88-11.96 2.12-.32 4.352-.76 6.64-1.33 1.31 1 2.622 1.94 3.9 2.8-.37.97-.75 1.87-1.14 2.72m17.02.77c-.52.61-1.76.75-3.5.39-2.7-.56-6.238-2.22-10.06-4.65.49-1.39.96-2.83 1.38-4.31 2.47-.87 4.82-1.83 6.97-2.85 4.68 5.66 6.37 10.07 5.21 11.42"/><path fill="#FFF" d="M61.28 50.387l.1.21c1.52-.78 2.92-1.59 4.17-2.408 3.9-2.585 5.99-5.043 6.01-7.317 0-.345-.05-.684-.148-1.013-.25-.813-.79-1.498-1.57-2.033-.792-.54-1.83-.934-3.112-1.202-.67-.14-1.42-.24-2.21-.307l-.02.232.22-.087c-.54-1.314-1.808-2.145-3.188-2.145-.33 0-.67.048-1.01.15-1.062.325-1.85 1.127-2.21 2.097l.22.082-.022-.237c-.99.094-2 .214-3.05.37l.04.23.23.014c.06-1.046.092-2.074.092-3.064 0-3.3-.33-6.23-1.052-8.44-.368-1.104-.83-2.03-1.42-2.732-.58-.7-1.3-1.175-2.13-1.348-.23-.048-.47-.072-.7-.072-1.77.007-3.46 1.336-5.05 3.464-1.59 2.133-3.08 5.1-4.37 8.487l.222.083.108-.205c-3.21-1.847-6.17-3.122-8.586-3.62-.774-.163-1.49-.245-2.136-.245-1.495 0-2.668.44-3.44 1.346-.584.683-.87 1.566-.87 2.59 0 .937.233 2 .69 3.18l.217-.085-.187-.138c-.455.61-.68 1.335-.68 2.052 0 .968.407 1.933 1.202 2.61.65.555 1.443.827 2.23.827.1 0 .206-.006.307-.015l-.02-.235-.193.135c.666.953 1.405 1.93 2.21 2.92l.184-.15-.108-.208c-2.925 1.503-5.45 3.123-7.253 4.774-1.8 1.64-2.903 3.31-2.91 4.938 0 .34.05.68.152 1.01.245.81.78 1.49 1.564 2.03s1.824.93 3.104 1.2c1.28.272 2.793.39 4.48.39 1.542 0 3.24-.1 5.04-.31l-.028-.24h-.24c-.01.44-.01.87-.01 1.3 0 3.302.317 6.23 1.05 8.44.357 1.1.83 2.03 1.41 2.73.59.7 1.3 1.17 2.14 1.35.23.05.458.07.69.07 1.818-.01 3.55-1.41 5.18-3.63l-.19-.14-.09.22c.17.06.35.12.538.16h.01c.23.05.46.07.7.07 1.59 0 3.03-1.11 3.36-2.74.05-.23.07-.47.07-.7 0-1.09-.52-2.1-1.358-2.74l-.142.19.21.1c.342-.74.66-1.52.97-2.32l-.208-.09-.13.2c3.92 2.45 7.568 4.14 10.43 4.74h.05v-.23l-.042.23c.772.16 1.48.24 2.13.24 1.49 0 2.67-.44 3.44-1.34.6-.7.872-1.59.872-2.58-.013-2.97-2.34-7.022-5.782-11.25l-.178.15.1.212-.1-.21-.18.15c3.42 4.18 5.68 8.22 5.67 10.95 0 .91-.24 1.67-.75 2.27-.67.78-1.68 1.18-3.09 1.18-.61 0-1.292-.07-2.042-.23l-.02-.01h-.03v.24l.05-.23c-2.778-.58-6.397-2.24-10.278-4.67l-.24-.148-.1.26c-.312.79-.632 1.56-.96 2.29l-.08.18.148.11c.73.55 1.18 1.42 1.18 2.36 0 .198-.02.398-.067.608-.29 1.4-1.52 2.37-2.9 2.37-.2 0-.41-.02-.61-.06-.158-.04-.318-.09-.47-.15l-.17-.07-.1.15c-1.59 2.19-3.25 3.45-4.8 3.44-.2 0-.4-.02-.6-.06-.72-.15-1.34-.55-1.872-1.19-1.608-1.91-2.358-5.97-2.35-10.87 0-.42 0-.85.01-1.29l.01-.27-.27.03c-1.78.21-3.456.318-4.98.318-1.664 0-3.144-.13-4.383-.39-1.242-.26-2.222-.64-2.937-1.13-.716-.49-1.168-1.08-1.384-1.78-.088-.29-.13-.57-.13-.87-.007-1.41.995-3 2.755-4.6 1.758-1.6 4.25-3.2 7.153-4.696l.256-.133-.182-.225c-.8-.978-1.532-1.947-2.194-2.89l-.076-.11-.135.01-.263.018c-.678 0-1.364-.235-1.924-.713-.688-.587-1.04-1.418-1.04-2.257 0-.622.193-1.245.587-1.774l.078-.104-.046-.12c-.44-1.143-.658-2.153-.658-3.01.002-.943.256-1.697.76-2.29.664-.776 1.67-1.175 3.082-1.18.61 0 1.29.08 2.04.235 2.342.483 5.262 1.735 8.452 3.57l.23.136.1-.255c1.29-3.362 2.77-6.297 4.32-8.376 1.538-2.086 3.16-3.282 4.67-3.275.198 0 .4.02.6.06.72.152 1.34.556 1.87 1.193 1.61 1.91 2.36 5.97 2.36 10.87 0 .982-.03 2-.09 3.04l-.01.285.28-.04c1.04-.155 2.05-.277 3.018-.368l.15-.014.05-.137c.31-.838.992-1.53 1.912-1.81.29-.088.58-.13.87-.13 1.187 0 2.29.718 2.75 1.853l.06.13.138.014c.78.065 1.5.162 2.16.3 1.24.258 2.21.64 2.933 1.127.72.493 1.17 1.08 1.39 1.787.08.284.13.575.13.875.01 1.96-1.93 4.38-5.8 6.925-1.23.81-2.62 1.61-4.12 2.38l-.26.132.19.228.18-.15M58.43 38.57l-.22.055.03.127V38.765c.46 1.48 1.818 2.436 3.29 2.436.34 0 .67-.05 1.01-.153 1.21-.37 2.07-1.357 2.34-2.51l-.23-.053-.02.235c.58.06 1.12.137 1.62.24.85.175 1.53.416 2.02.698.48.278.76.592.85.897.032.088.042.183.042.294.01.477-.282 1.21-1.062 2.122-.77.91-2.01 2-3.858 3.224-1.29.84-2.75 1.68-4.34 2.48l.098.21.18-.157c-1.58-1.8-3.34-3.61-5.188-5.343l-.16.172.228.032c.23-1.552.4-3.097.53-4.608l-.228-.02.04.233c1.05-.164 2.068-.298 3.06-.39l-.032-.237-.22.055.22-.055-.02-.232c-.99.095-2.02.23-3.09.395l-.182.03-.01.182c-.13 1.5-.308 3.037-.53 4.58l-.018.12.09.084c1.84 1.722 3.59 3.517 5.16 5.307l.12.14.16-.08c1.607-.81 3.08-1.658 4.38-2.51 1.88-1.24 3.147-2.354 3.968-3.31.81-.96 1.17-1.767 1.17-2.424 0-.153-.02-.298-.058-.432-.142-.467-.53-.85-1.07-1.166-.55-.315-1.282-.565-2.16-.75-.51-.108-1.07-.188-1.67-.25l-.202-.02-.05.2c-.228 1-.97 1.847-2.018 2.168-.29.087-.58.13-.87.13-1.272 0-2.45-.826-2.84-2.105l-.232.068.23-.054-.028-.124-.05-.2-.2.02.02.234m-9.78 14.787l-.07-.22c-1.09.33-2.18.64-3.26.92l.06.23.15-.18c-.88-.69-1.75-1.41-2.62-2.15-1.25-1.06-2.43-2.14-3.56-3.22l-.16.17.23.04c.19-1.15.4-2.34.66-3.57.17-.813.35-1.61.53-2.385l-.232-.054.09.22c1.442-.536 2.972-1.06 4.59-1.554 1.093-.334 2.183-.642 3.263-.924l-.06-.227-.14.183c.87.688 1.74 1.407 2.62 2.15.647.558 1.278 1.11 1.888 1.662l.15-.173-.23-.038c-.188 1.16-.41 2.36-.67 3.6-.34 1.66-.718 3.23-1.12 4.71l.232.06-.08-.218c-.76.26-1.54.508-2.33.75l.07.217.068.23c.79-.25 1.57-.49 2.34-.76l.12-.04.03-.12c.4-1.49.79-3.07 1.13-4.74.26-1.24.482-2.447.67-3.614l.022-.125-.09-.085c-.61-.554-1.24-1.11-1.9-1.674-.88-.747-1.76-1.47-2.64-2.16l-.092-.073-.108.03c-1.08.285-2.18.594-3.28.93-1.63.497-3.17 1.024-4.62 1.564l-.11.044-.028.12c-.192.78-.37 1.58-.54 2.4-.25 1.234-.47 2.423-.662 3.584l-.02.12.08.09c1.142 1.09 2.33 2.17 3.58 3.24.88.74 1.76 1.46 2.642 2.148l.09.08.11-.03c1.078-.28 2.18-.6 3.277-.93l-.07-.23m1.69 1.482l-.22-.07c-.26.87-.53 1.69-.81 2.48l.22.08.14-.2c-.74-.49-1.48-1.02-2.22-1.56l-.142.18.062.23c.63-.182 1.27-.36 1.91-.562.38-.11.76-.24 1.14-.35l-.08-.228-.22-.07.22.07-.07-.22c-.368.12-.75.24-1.13.36-.63.188-1.27.37-1.898.55l-.46.13.39.28c.75.55 1.49 1.08 2.23 1.58l.26.17.1-.28c.27-.8.538-1.63.81-2.5l.13-.43-.43.14.068.22m-7.31.03l-.052-.23c-1.59.36-3.13.66-4.618.89l.04.23.23.02c.09-1.42.24-2.93.45-4.53l-.23-.03-.16.172c.85.8 1.75 1.6 2.67 2.38.5.44 1.01.86 1.52 1.278l.15-.18-.052-.23.052.23.15-.19c-.51-.41-1.01-.83-1.52-1.26-.91-.78-1.8-1.57-2.65-2.37l-.34-.31-.06.45c-.21 1.608-.352 3.13-.44 4.56l-.02.29.29-.05c1.488-.23 3.05-.53 4.64-.89l.468-.11-.37-.31-.148.19m-5.51-7.61l.17-.16c-.73-.75-1.43-1.507-2.1-2.252l-.17.154.1.212c.882-.404 1.812-.813 2.79-1.216l-.09-.217-.22-.053c-.09.39-.18.777-.26 1.167l.23.044-.23-.048c-.16.777-.31 1.548-.45 2.327l.23.04.17-.16-.17.16.24.04c.13-.77.28-1.54.44-2.31v-.004c.08-.38.16-.764.25-1.153l.1-.437-.41.17c-1 .405-1.93.814-2.818 1.226l-.292.13.21.234c.67.753 1.38 1.513 2.12 2.273l.32.32.08-.45-.24-.04m3.44-6.562l.22.06c.43-1.582.88-3.062 1.35-4.442l-.22-.078-.12.2c1.31.827 2.65 1.747 4 2.746l.142-.19-.062-.224c-.63.18-1.27.36-1.91.557-1.17.357-2.33.742-3.48 1.152l.08.22.22.06-.22-.06.07.22c1.15-.406 2.31-.79 3.47-1.144.63-.194 1.26-.375 1.9-.553l.46-.13-.392-.283c-1.358-1.005-2.71-1.93-4.028-2.766l-.25-.16-.1.282c-.47 1.393-.93 2.882-1.36 4.474l-.12.43.42-.15-.07-.22m9.65-.816l.05.23c.95-.217 1.89-.412 2.8-.584l-.04-.23-.23-.02c-.08.867-.19 1.77-.31 2.7l.24.03.15-.177c-.33-.29-.65-.576-.99-.856v.002c-.5-.435-1.01-.858-1.52-1.275l-.15.18.05.23-.05-.23-.15.185c.51.416 1.01.835 1.52 1.266v.003c.33.278.65.56.98.85l.33.293.06-.44c.12-.933.23-1.84.312-2.716l.02-.31-.302.058c-.93.172-1.87.37-2.82.588l-.47.104.37.305.15-.184m3.85 5.97l-.16.16c1.39 1.34 2.64 2.64 3.75 3.89l.17-.15-.09-.21c-1.58.73-3.28 1.43-5.05 2.08l.08.22.23.06c.31-1.18.58-2.38.83-3.58.17-.8.32-1.62.47-2.43l-.23-.04-.16.16.16-.16-.23-.052c-.148.812-.3 1.63-.47 2.432-.25 1.188-.52 2.38-.82 3.55l-.118.438.42-.158c1.79-.66 3.49-1.36 5.08-2.102l.29-.13-.21-.24c-1.12-1.26-2.382-2.57-3.78-3.91l-.313-.307-.08.425.23.053m-3.68-22.302l-.05.23c.318.063.658.317.98.8.99 1.444 1.73 4.8 1.73 9.555 0 1-.03 2.063-.1 3.182l.23.014-.04-.23c-1.59.28-3.232.632-4.893 1.044l.052.228.14-.186c-1.93-1.483-3.862-2.82-5.73-3.985l-.132.198.222.084c1.33-3.493 2.75-6.198 4.06-8.016.65-.91 1.28-1.594 1.84-2.048.57-.454 1.062-.664 1.44-.66l.2.02.05-.23.05-.23c-.1-.02-.2-.03-.3-.03-.54.003-1.12.278-1.73.767-1.82 1.47-4.04 4.977-6.05 10.26l-.07.18.17.102c1.86 1.156 3.78 2.486 5.7 3.96l.09.067.11-.026c1.66-.41 3.29-.76 4.86-1.04l.18-.03.02-.186c.06-1.127.102-2.197.102-3.208-.01-3.2-.33-5.782-.862-7.622-.26-.92-.58-1.656-.95-2.196-.357-.538-.79-.894-1.268-.996l-.052.228m-18.813 17.16l.153.177c.13-.112.257-.235.377-.377l-.182-.147.18.15c.552-.647.826-1.445.826-2.233 0-.97-.41-1.94-1.206-2.617-.65-.55-1.442-.82-2.23-.82-.344 0-.687.052-1.02.154l.066.223.226-.075c-.26-.76-.365-1.378-.365-1.856 0-.516.126-.86.295-1.057.258-.31.813-.51 1.637-.507.472 0 1.02.063 1.638.19 2.23.46 5.07 1.696 8.172 3.514l.12-.2-.22-.08c-.712 2.015-1.34 4.145-1.89 6.308l.22.06-.08-.22c-1.61.625-3.17 1.296-4.654 1.995l.1.214.18-.15c-.784-.944-1.505-1.875-2.147-2.784l-.193.136.153.177-.153-.177-.19.136c.65.918 1.38 1.86 2.17 2.81l.114.14.165-.078c1.476-.694 3.025-1.36 4.625-1.982l.11-.044.03-.117c.55-2.15 1.18-4.266 1.88-6.267l.06-.182-.16-.097c-3.13-1.833-6.01-3.088-8.315-3.57-.644-.133-1.22-.2-1.733-.2-.888.002-1.584.2-1.994.67-.268.314-.405.773-.405 1.36 0 .548.12 1.21.388 2.006l.074.215.216-.065c.288-.086.586-.132.885-.132.683 0 1.365.23 1.924.71.687.586 1.04 1.42 1.04 2.26 0 .682-.23 1.368-.713 1.926l-.002.003v.002c-.095.112-.205.22-.322.32l-.16.14.124.172.19-.136m-4.62 15.302l.046-.22c-.848-.18-1.53-.42-2.018-.7-.488-.28-.765-.6-.857-.9-.028-.1-.043-.2-.043-.31-.014-.75.756-1.97 2.324-3.34 1.564-1.37 3.896-2.92 6.936-4.46l-.106-.21-.177.15c1.086 1.25 2.267 2.5 3.526 3.74l.172-.16-.23-.04c-.33 2.19-.56 4.37-.67 6.46l.23.01-.03-.23c-1.813.22-3.5.342-5.02.342-1.537 0-2.9-.12-4.04-.352l-.046.22-.047.23c1.177.25 2.57.37 4.132.37 1.543 0 3.248-.12 5.078-.34l.19-.03.01-.19c.12-2.08.35-4.24.67-6.42l.02-.12-.09-.08c-1.262-1.24-2.432-2.48-3.506-3.71l-.12-.14-.163.08c-3.062 1.56-5.425 3.12-7.03 4.53-1.598 1.42-2.47 2.66-2.484 3.69 0 .16.022.3.065.44.143.47.525.86 1.07 1.17.55.32 1.275.57 2.158.75l.048-.23m20.363 5.89l.01-.24h-.14c-1.602 0-3.03 1.11-3.36 2.73-.05.24-.08.48-.08.71 0 .688.22 1.35.58 1.9l.2-.13-.19-.132c-.658.91-1.29 1.6-1.85 2.06-.57.45-1.07.67-1.45.66l-.2-.02c-.31-.06-.648-.32-.98-.8-.99-1.44-1.73-4.8-1.72-9.55 0-.45 0-.9.02-1.37l-.24-.01.04.23c2.12-.32 4.36-.77 6.65-1.34l-.05-.222-.14.182c1.31 1.01 2.62 1.95 3.91 2.81l.13-.19-.21-.09c-.38.97-.76 1.87-1.14 2.71l.21.1.01-.24-.01.24.22.09c.38-.848.77-1.75 1.142-2.728l.067-.17-.16-.11c-1.28-.86-2.578-1.79-3.89-2.79l-.09-.07-.11.03c-2.28.568-4.51 1.01-6.61 1.33l-.198.03v.188c-.01.48-.02.94-.02 1.39 0 3.2.317 5.78.85 7.62.27.92.58 1.65.95 2.19s.79.9 1.277 1c.09.02.19.03.29.03.55 0 1.13-.28 1.74-.77.61-.49 1.26-1.22 1.94-2.15l.09-.13-.09-.14c-.32-.48-.5-1.05-.5-1.64 0-.2.02-.41.06-.61.29-1.4 1.53-2.36 2.91-2.36h.12l.16.012.07-.15-.22-.09m17.02.77l-.17-.15c-.26.3-.818.51-1.64.5-.47 0-1.02-.06-1.64-.19-2.66-.55-6.18-2.2-9.98-4.62l-.13.2.22.08c.5-1.39.96-2.84 1.39-4.32l-.23-.07.08.22c2.48-.87 4.83-1.83 6.99-2.85l-.1-.22-.18.16c1.86 2.24 3.24 4.29 4.16 6.01.91 1.73 1.35 3.14 1.35 4.07 0 .47-.108.81-.29 1.03l.17.15.182.15c.28-.33.41-.79.41-1.33-.013-1.07-.48-2.522-1.41-4.29-.933-1.76-2.34-3.83-4.21-6.09l-.12-.142-.16.07c-2.14 1.02-4.48 1.97-6.952 2.84l-.108.04-.03.12c-.42 1.47-.89 2.91-1.38 4.29l-.062.18.15.1c3.84 2.44 7.39 4.11 10.14 4.68.652.13 1.232.2 1.74.2.89 0 1.58-.2 1.992-.67l-.183-.15"/><path fill="#4B4BAA" d="M46.82 89.217v-20.77c.02 0 .04.01.06.01h.01c.23.05.46.07.7.07 1.59 0 3.03-1.11 3.36-2.74.05-.23.07-.47.07-.7 0-1.03-.462-1.98-1.212-2.62.272-.61.532-1.238.79-1.89 3.83 2.37 7.393 4 10.19 4.59h.02c.772.16 1.47.24 2.12.24h.01c1.49 0 2.66-.44 3.432-1.34.6-.7.87-1.59.87-2.58-.012-2.92-2.262-6.88-5.602-11.02 1.42-.75 2.73-1.51 3.91-2.28 3.9-2.583 5.99-5.04 6.01-7.315 0-.345-.05-.684-.147-1.013-.25-.814-.79-1.5-1.57-2.035-.79-.538-1.83-.933-3.11-1.2-.63-.133-1.33-.23-2.068-.296-.562-1.237-1.802-2.013-3.132-2.013-.33 0-.67.048-1.01.15-1.01.31-1.778 1.05-2.16 1.958-.84.082-1.72.187-2.618.315.05-.95.08-1.878.08-2.78 0-3.3-.33-6.23-1.052-8.438-.37-1.105-.83-2.032-1.42-2.733-.58-.7-1.3-1.177-2.13-1.35-.23-.047-.47-.07-.7-.07-1.27.004-2.51.698-3.7 1.88V4c.29 0 .57.002.852.008 1.16.023 2.31.093 3.45.205h.018c.08.01.15.017.23.025l.042.004.21.023.06.006c.07.01.128.016.2.024l.07.008.18.022.088.012c.05.005.112.013.16.02.042.003.07.01.112.014l.147.02c.04.005.08.012.12.016l.13.02c.05.005.09.012.14.018l.12.018c.05.008.102.015.14.022.042.005.08.012.11.017.06.01.11.016.16.026l.102.015c.058.01.108.02.17.028l.09.015c.06.01.12.02.17.03l.09.014c.06.01.12.02.18.033.028.003.05.007.08.012.06.012.12.024.19.034l.07.013.2.036c.01.004.028.008.05.01l.21.042.05.01.22.044.03.006.24.05c.01 0 .01.002.018.003l.24.053c.01 0 .01.002.02.003.08.02.17.037.25.056h.012c6.31 1.41 12.1 4.208 17.02 8.056.07.052.128.105.2.157v.003c.068.052.13.104.2.156 0 0 0 .004.01.005.058.05.12.102.188.154 0 .003 0 .005.01.007.06.052.122.105.19.156 0 .002 0 .005.01.007.06.05.12.103.182.154.01.005.01.007.01.01.07.052.128.103.19.156 0 .002.01.007.01.01.06.05.12.103.178.154.012.003.012.007.022.01.058.052.118.103.18.155 0 .004.01.01.01.013l.18.158c.01.003.01.005.01.01.06.05.12.104.18.156.01.004.01.008.02.01.06.054.11.105.17.158.01.004.01.01.02.015.062.05.11.102.17.154.01.005.01.012.02.016.06.053.122.107.18.16 0 .004 0 .008.01.012.062.053.112.107.17.16.013.005.013.01.022.013.05.053.108.107.17.16 0 .005.01.01.01.015.06.053.12.106.17.16.01.005.01.01.02.017.06.053.108.106.17.16.01.006.01.01.02.015.05.055.11.108.16.163.01.005.01.01.02.016.06.054.11.108.17.163 0 .005.01.01.01.016.06.058.12.12.18.18 7.76 7.717 12.54 18.356 12.54 30.124 0 11.77-4.78 22.41-12.54 30.13l-.18.18s-.01.01-.02.01c-.05.06-.1.11-.16.16-.012.01-.02.02-.03.03l-.15.15c-.01.01-.02.01-.02.02-.062.05-.11.1-.17.16-.01.01-.02.01-.03.02-.05.05-.1.1-.16.15 0 .01-.01.02-.02.02l-.16.16c-.01.01-.02.01-.03.02-.05.05-.11.1-.16.15l-.02.02c-.062.05-.11.1-.17.15l-.02.02c-.06.05-.11.1-.17.15-.01.01-.01.02-.02.02-.062.05-.11.1-.17.15-.013.01-.022.02-.022.02-.058.05-.12.1-.17.15-.01.01-.02.01-.02.02-.06.05-.118.102-.18.15 0 .01-.01.01-.02.02-.06.05-.11.1-.17.15-.01 0-.01.01-.02.01l-.18.15c0 .01-.01.01-.01.02l-.19.15s0 .01-.01.01l-.18.15c-.012.01-.012.01-.02.01l-.18.15-.012.01-.188.16c-.01 0-.01 0-.01.01-.07.05-.132.1-.2.15-.072.05-.13.1-.2.16-5.06 3.95-11.032 6.8-17.542 8.17h-.01c-.08.02-.17.03-.25.05-.01 0-.01 0-.02.01-.08.01-.16.03-.24.04-.01 0-.02.01-.03.01-.07.01-.15.03-.23.04-.01.01-.02.01-.028.01-.08.01-.15.03-.23.04-.01 0-.02.01-.042.01-.068.012-.138.03-.21.04-.018 0-.04 0-.06.01-.07.01-.128.022-.198.03-.02.01-.04.01-.062.01-.07.01-.13.03-.198.04-.022 0-.052.012-.07.012-.062.01-.122.02-.19.028-.02 0-.05.01-.08.01l-.17.03c-.04 0-.07.01-.1.01l-.162.03c-.04 0-.068.01-.11.01-.048.01-.1.02-.148.02-.04.01-.08.02-.12.02-.04.01-.09.01-.14.022-.04.01-.08.01-.12.02-.05 0-.09.01-.13.01-.05.01-.1.02-.14.02-.04.01-.08.01-.12.02-.052 0-.1.012-.15.012-.04.01-.07.01-.1.02-.06 0-.12.01-.17.02h-.08l-.2.03h-.05c-.07.01-.142.02-.222.02 0 0-.01.01-.02.01-1.128.11-2.288.18-3.448.2-.283.005-.563.005-.852.005"/><path fill="#E8E8E8" d="M46.82 93.218v-4c.29 0 .57 0 .85-.01v4c-.28.01-.56.01-.85.01m4.3-4.21c.01 0 .02-.01.02-.01s-.01.01-.02.01m.24-.03h.05-.05m.25-.03h.08-.08m.25-.02c.03-.01.06-.01.1-.02-.03.01-.07.01-.1.02m.25-.03c.04-.01.08-.01.12-.022-.04.012-.08.012-.12.02m.26-.04c.04 0 .08-.01.13-.01-.05.002-.09.01-.13.01m.25-.028c.05-.01.1-.01.14-.02-.04.01-.09.01-.14.02m.26-.04c.05 0 .102-.01.15-.02-.05.01-.1.02-.15.02m.26-.03l.16-.03-.16.03m.26-.04l.17-.03-.17.03m.25-.04c.07-.01.13-.02.19-.03-.06.01-.12.02-.19.03m.26-.04c.07-.01.13-.03.2-.04-.07.01-.13.03-.2.04m.26-.05l.2-.03-.2.03m.26-.04c.07-.01.14-.03.21-.04-.07.01-.14.03-.21.04m.25-.05c.08-.01.15-.03.23-.04-.08.01-.15.03-.23.04m.26-.05c.08-.01.16-.03.23-.04-.07.01-.15.03-.23.04m.26-.05c.08-.01.16-.03.24-.04-.08.01-.16.03-.24.04m.26-.05c.08-.02.17-.03.25-.05-.08.02-.16.03-.25.05m.26-.05c6.51-1.37 12.48-4.22 17.54-8.17-5.06 3.95-11.03 6.8-17.54 8.17m17.54-8.17c.07-.06.13-.11.2-.16-.07.05-.13.1-.2.16m.2-.16c.07-.05.13-.1.2-.15-.07.05-.13.1-.2.15m.21-.16l.19-.16-.19.16m.2-.17l.18-.15-.18.15m.2-.16l.18-.15-.18.15m.19-.16c.06-.05.13-.1.19-.15-.06.05-.13.1-.19.15m.2-.17c.06-.05.12-.102.18-.15l-.18.15m.2-.16c.06-.05.11-.1.17-.15-.06.05-.11.1-.17.15m.19-.17l.18-.15-.18.15m.2-.17c.05-.05.11-.102.17-.15-.06.05-.12.1-.17.15m.19-.17c.06-.05.11-.1.17-.15-.06.05-.11.1-.17.15m.19-.17c.06-.05.11-.1.17-.15-.06.05-.11.1-.17.15m.19-.17c.06-.05.11-.1.17-.15-.06.05-.11.1-.17.15m.19-.17c.05-.05.11-.1.16-.15-.05.05-.11.1-.16.15m.19-.17l.16-.16-.16.16m.18-.18c.06-.05.11-.1.16-.15-.05.05-.1.1-.16.15m.19-.17c.06-.06.11-.11.17-.16-.06.05-.11.11-.17.16m.19-.18l.15-.15-.15.15m.18-.18c.06-.05.11-.1.16-.16-.05.06-.11.11-.16.16m.18-.17l.18-.18c7.76-7.72 12.54-18.36 12.54-30.13 0 11.77-4.78 22.41-12.54 30.13l-.18.18m.18-60.436l-.18-.18.18.18m-.19-.195c-.06-.055-.11-.11-.17-.163.05.054.11.108.17.163m-.19-.18c-.05-.053-.11-.107-.16-.16.05.053.11.107.16.16m-.18-.176c-.06-.054-.11-.106-.17-.16.06.053.11.106.17.16m-.19-.177c-.05-.054-.11-.107-.17-.16.06.053.12.107.17.16m-.18-.175c-.06-.052-.12-.106-.17-.16.05.054.11.107.17.16m-.19-.172c-.06-.053-.11-.107-.17-.16.06.052.11.107.17.16m-.18-.173l-.18-.16c.06.055.12.107.18.16m-.2-.175c-.06-.052-.11-.104-.17-.154.06.05.11.1.17.154m-.19-.17c-.06-.05-.11-.103-.17-.156.06.053.11.104.17.157m-.19-.17l-.18-.157.18.157m-.19-.166l-.18-.158c.06.052.12.104.18.158m-.19-.17c-.06-.053-.12-.104-.18-.155.06.05.12.1.18.153m-.2-.165l-.18-.155.18.155m-.19-.165c-.06-.053-.12-.103-.19-.155.07.052.13.102.19.155m-.2-.165l-.18-.154c.06.05.12.102.18.154m-.19-.16c-.07-.053-.13-.105-.19-.156.06.05.12.103.19.155m-.2-.163c-.07-.052-.13-.103-.19-.155.06.05.12.103.19.154m-.2-.16c-.07-.05-.13-.103-.2-.155.07.05.13.103.2.155m-.2-.16c-.07-.05-.13-.104-.2-.156.07.05.13.103.2.156m-.2-.158C68.34 9.24 62.55 6.44 56.24 5.033c6.31 1.408 12.1 4.207 17.02 8.055M56.23 5.032c-.08-.02-.17-.037-.25-.056.082.02.17.037.25.056m-.27-.06c-.08-.016-.16-.034-.24-.052l.24.053m-.26-.056l-.24-.05.24.05m-.27-.056l-.22-.043.22.044m-.27-.052c-.07-.014-.14-.028-.21-.04.07.012.14.025.21.04m-.26-.053l-.2-.037c.06.012.13.026.2.037m-.27-.05c-.068-.01-.13-.022-.19-.034.06.013.122.025.19.036m-.27-.047l-.18-.034.18.033m-.27-.05l-.17-.028c.06.01.12.02.17.03m-.26-.045l-.17-.027c.06.01.11.02.17.027m-.27-.042c-.05-.01-.1-.016-.16-.025.06.01.11.016.16.025m-.27-.042l-.14-.022c.05.01.1.017.14.023m-.26-.04c-.05-.006-.09-.012-.14-.02.05.008.09.015.14.02m-.27-.037c-.04-.004-.08-.01-.12-.016l.12.016m-.27-.036c-.04-.005-.07-.01-.11-.014.04.003.07.01.11.014m-.27-.034l-.09-.012.09.012m-.27-.034l-.07-.008c.02.002.04.006.07.008m-.27-.03l-.06-.007.06.006m-.27-.028l-.04-.004.04.004m-.27-.03h-.02.02m-3.47-.205c-.28-.006-.56-.01-.85-.01V0c.29 0 .57 0 .85.006v4"/><path fill="#4B4BAA" d="M62.93 63.02h-.01c-.47 0-1.02-.062-1.64-.19-2.62-.542-6.08-2.15-9.83-4.522.46-1.3.9-2.65 1.29-4.03 2.38-.84 4.64-1.76 6.71-2.73 1.81 2.19 3.15 4.182 4.05 5.87.91 1.73 1.35 3.14 1.35 4.07 0 .47-.11.81-.29 1.03-.26.3-.81.5-1.63.5m-16.11-1.28v-3.69c.59.42 1.17.83 1.75 1.22-.33.84-.67 1.64-1.012 2.39-.25 0-.497.03-.738.08m2.59-4.78c-.52-.36-1.05-.73-1.58-1.11.48-.14.97-.28 1.45-.43.24-.07.47-.14.71-.22-.19.61-.38 1.19-.58 1.76m-2.59-3.3v-3.01c.87-.07 1.73-.48 2.34-1.2.56-.65.83-1.45.83-2.23 0-.97-.41-1.943-1.2-2.62l-.16.18.16-.18c-.58-.494-1.27-.762-1.97-.815v-2.697c.46-.13.93-.256 1.39-.377.84.666 1.69 1.36 2.53 2.075.62.53 1.21 1.055 1.79 1.577-.18 1.12-.4 2.275-.65 3.476-.33 1.61-.7 3.14-1.09 4.59-.73.25-1.46.48-2.21.71l.07.22-.07-.22c-.59.18-1.17.35-1.76.52m6.68-2.19c.26-1.05.5-2.1.72-3.15.14-.66.27-1.33.39-2 1.18 1.14 2.26 2.26 3.23 3.35-1.37.62-2.82 1.22-4.34 1.8m6.56-2.87c-1.52-1.73-3.21-3.462-4.98-5.128.21-1.447.37-2.89.5-4.3.92-.142 1.81-.258 2.68-.345.47 1.446 1.82 2.377 3.27 2.377.34 0 .67-.05 1.01-.152 1.14-.348 1.972-1.242 2.292-2.306.5.055.978.127 1.42.22.85.174 1.528.415 2.02.696.48.28.76.593.85.897.03.088.04.185.04.296.01.476-.28 1.21-1.06 2.12-.77.91-2.01 2-3.86 3.225-1.252.81-2.65 1.62-4.183 2.4m-7.12-7.06c-.22-.192-.44-.38-.66-.566-.38-.327-.77-.65-1.15-.968.68-.15 1.36-.292 2.03-.42-.06.633-.14 1.286-.22 1.953m-4.2-3.424c-.64-.49-1.28-.965-1.92-1.423v-9.606c.14-.216.29-.423.43-.62.65-.91 1.28-1.595 1.84-2.048.56-.45 1.06-.66 1.43-.66h.01l.2.02.05-.23-.05.23c.32.063.66.317.98.8.99 1.444 1.73 4.8 1.73 9.555 0 .945-.03 1.946-.09 2.998-1.5.27-3.04.6-4.61.985"/><path fill="#E8E8E8" d="M47.59 68.068c-.2 0-.41-.02-.61-.06-.05-.02-.11-.03-.158-.04v-5.74c.25-.07.5-.1.76-.1h.118l.16.01.07-.15c.378-.85.77-1.75 1.14-2.73l.068-.172-.16-.107c-.71-.48-1.43-.98-2.157-1.5v-1.792l.35.25c.75.55 1.49 1.08 2.23 1.58l.26.17.1-.28c.27-.8.54-1.63.812-2.5l.13-.43-.432.14c-.37.12-.75.24-1.13.36-.63.19-1.27.37-1.898.55l-.42.12v-1.51c.63-.17 1.26-.36 1.897-.55v-.01c.79-.24 1.57-.48 2.34-.75l.12-.04.03-.12c.4-1.49.79-3.07 1.13-4.74.26-1.24.48-2.447.67-3.614l.02-.125-.09-.086c-.608-.553-1.24-1.11-1.9-1.673-.878-.746-1.76-1.468-2.64-2.16l-.09-.07-.11.03c-.46.118-.92.243-1.38.373v-1.505l.04-.01-.04-.025V37.27c.58.414 1.148.842 1.73 1.284l.09.068.11-.026c1.66-.41 3.29-.76 4.86-1.04l.18-.032.02-.184c.06-1.128.102-2.197.102-3.208-.01-3.202-.33-5.783-.862-7.622-.26-.92-.58-1.657-.95-2.196-.357-.538-.79-.894-1.268-.996l-.05.23.05-.23c-.1-.02-.2-.03-.3-.03-.54.002-1.12.275-1.732.766-.62.502-1.29 1.24-1.978 2.206v-2.333c1.237-1.342 2.5-2.09 3.688-2.09h.01c.2 0 .4.02.6.062.72.15 1.34.553 1.872 1.19C54.6 25 55.35 29.06 55.35 33.96c0 .983-.028 2-.09 3.04l-.01.286.28-.04c1.04-.155 2.05-.277 3.02-.368l.15-.014.05-.138c.31-.837.99-1.528 1.91-1.808.29-.088.58-.13.87-.13 1.188 0 2.29.718 2.75 1.853l.06.13.14.013c.78.065 1.5.163 2.16.3 1.24.258 2.21.64 2.932 1.128.72.493 1.17 1.082 1.39 1.787.08.284.13.575.13.875.01 1.96-1.93 4.38-5.8 6.925-1.232.81-2.62 1.61-4.12 2.38l-.26.13.188.23.18-.15.1.21-.1-.21-.18.15c3.42 4.18 5.68 8.22 5.67 10.95 0 .91-.24 1.67-.75 2.27-.67.78-1.68 1.18-3.09 1.18-.608 0-1.29-.07-2.04-.228l-.02-.012h-.01c-2.77-.58-6.38-2.24-10.25-4.66l-.24-.15-.1.262c-.31.79-.632 1.56-.96 2.29l-.08.18.15.11c.73.55 1.178 1.42 1.178 2.357 0 .2-.02.402-.067.61-.29 1.4-1.52 2.37-2.9 2.37m11.99-17.1l-.16.07c-2.14 1.02-4.48 1.97-6.95 2.84l-.11.04-.028.12c-.42 1.47-.892 2.91-1.38 4.29l-.063.18.15.1c3.84 2.44 7.39 4.11 10.14 4.68.65.132 1.23.202 1.74.202.89 0 1.58-.202 1.99-.67.28-.33.41-.792.41-1.33-.012-1.07-.48-2.522-1.41-4.292-.932-1.76-2.34-3.83-4.21-6.09l-.12-.14m-5.35-5.17c-.148.81-.3 1.63-.47 2.43-.25 1.19-.52 2.38-.82 3.55l-.118.44.42-.16c1.79-.66 3.49-1.36 5.08-2.1l.29-.13-.21-.24c-1.12-1.26-2.382-2.57-3.78-3.91l-.313-.307-.08.427m4.18-7.458c-.99.094-2.02.228-3.09.394l-.182.03-.01.18c-.128 1.502-.308 3.04-.53 4.58l-.018.12.09.085c1.84 1.722 3.59 3.518 5.16 5.308l.12.14.16-.08c1.607-.81 3.078-1.66 4.38-2.51 1.88-1.24 3.147-2.354 3.97-3.312.81-.96 1.17-1.765 1.17-2.422 0-.153-.02-.297-.06-.432-.142-.468-.53-.852-1.07-1.167-.55-.316-1.282-.565-2.16-.75-.51-.108-1.07-.188-1.67-.25l-.202-.02-.048.2c-.23 1-.97 1.848-2.02 2.17-.29.087-.58.13-.87.13-1.262 0-2.44-.82-2.842-2.09l-.028-.125-.05-.2-.2.02m-7.8 1.538l-.15.184c.51.414 1.01.835 1.52 1.266v.002c.33.277.65.56.98.85l.33.292.06-.438c.12-.935.23-1.84.312-2.72l.02-.307-.3.057c-.93.172-1.87.37-2.822.587l-.47.106.37.305.15-.182.05.23-.05-.23"/><path fill="#E8E8E8" d="M47.59 68.527c-.24 0-.47-.02-.7-.07h-.01c-.02 0-.04-.01-.06-.01v-.48c.05.012.11.02.16.04.2.04.408.06.61.06 1.378 0 2.61-.97 2.9-2.37.05-.21.067-.41.067-.608 0-.94-.45-1.812-1.18-2.36l-.148-.11.08-.18c.327-.73.648-1.5.958-2.29l.1-.26.24.148c3.87 2.42 7.48 4.08 10.25 4.66h.01l.02.01c.75.16 1.432.23 2.04.23 1.412 0 2.42-.4 3.09-1.18.51-.6.75-1.36.75-2.27.01-2.73-2.25-6.772-5.67-10.95l.18-.15.102.21-.1-.21-.18.15-.19-.23.26-.13c1.5-.772 2.89-1.57 4.12-2.382 3.87-2.545 5.81-4.965 5.8-6.925 0-.298-.05-.59-.13-.874-.22-.705-.67-1.293-1.39-1.786-.72-.49-1.69-.87-2.932-1.127-.66-.138-1.38-.235-2.16-.3l-.138-.012-.062-.132c-.46-1.135-1.56-1.853-2.75-1.853-.288 0-.58.042-.868.13-.92.28-1.603.97-1.91 1.81l-.05.137-.15.014c-.97.09-1.98.213-3.02.368l-.28.04.01-.286c.06-1.04.09-2.057.09-3.04 0-4.9-.75-8.96-2.358-10.87-.53-.636-1.15-1.04-1.87-1.19-.2-.043-.402-.062-.602-.062h-.01c-1.19 0-2.45.747-3.69 2.09v-.676c1.19-1.183 2.432-1.877 3.7-1.882.23 0 .472.024.7.072.83.173 1.55.648 2.13 1.348.59.7 1.05 1.628 1.42 2.733.722 2.21 1.05 5.14 1.05 8.438 0 .903-.03 1.832-.078 2.78.897-.127 1.778-.232 2.618-.313.382-.907 1.15-1.647 2.16-1.958.34-.102.68-.15 1.01-.15 1.33 0 2.57.776 3.132 2.012.74.066 1.438.162 2.067.293 1.28.268 2.32.663 3.11 1.202.78.535 1.32 1.22 1.57 2.033.1.33.148.668.148 1.013-.02 2.275-2.108 4.733-6.01 7.316-1.18.77-2.49 1.53-3.91 2.28 3.34 4.14 5.59 8.1 5.603 11.02 0 .99-.27 1.88-.87 2.58-.77.9-1.94 1.34-3.43 1.34h-.01c-.65 0-1.35-.08-2.122-.24h-.018c-2.8-.59-6.36-2.22-10.19-4.59-.26.65-.52 1.28-.79 1.89.75.64 1.21 1.592 1.21 2.62 0 .23-.02.472-.07.7-.33 1.632-1.77 2.74-3.36 2.74M62.92 63.487c-.51 0-1.09-.068-1.74-.2-2.75-.57-6.3-2.24-10.14-4.68l-.15-.1.06-.18c.49-1.38.962-2.82 1.382-4.29l.028-.12.11-.04c2.47-.87 4.81-1.818 6.95-2.84l.16-.07.12.14c1.87 2.262 3.278 4.33 4.21 6.09.93 1.77 1.398 3.222 1.41 4.29 0 .54-.13 1-.41 1.33-.41.47-1.1.67-1.99.67M51.45 58.31c3.75 2.37 7.21 3.98 9.83 4.52.62.13 1.17.19 1.64.19h.01c.82 0 1.37-.2 1.63-.5.182-.22.29-.56.29-1.03 0-.93-.438-2.34-1.35-4.07-.9-1.688-2.24-3.68-4.05-5.87-2.07.97-4.33 1.89-6.71 2.73-.39 1.38-.83 2.73-1.29 4.03m-4.63 3.92v-.49c.24-.05.488-.08.738-.08.342-.75.683-1.55 1.012-2.39-.58-.39-1.16-.8-1.75-1.22v-.57c.73.52 1.45 1.02 2.158 1.5l.16.11-.068.17c-.37.98-.762 1.88-1.14 2.73l-.07.15-.16-.01h-.12c-.26 0-.51.03-.76.1m.89-.33l.01-.24-.01.24m1.95-4.21l-.26-.17c-.74-.5-1.48-1.03-2.23-1.58l-.35-.25v-.04l.42-.12c.63-.18 1.27-.36 1.898-.55.38-.12.762-.24 1.13-.36l.432-.14-.13.43c-.27.87-.54 1.7-.81 2.5l-.1.28m-1.83-1.84c.53.38 1.06.75 1.58 1.11.2-.57.39-1.15.58-1.76-.24.08-.47.15-.71.22-.48.15-.97.29-1.45.43m-1.01-1.71v-.48c.59-.17 1.17-.34 1.76-.52l.07.22-.07-.22c.75-.23 1.48-.46 2.21-.71.39-1.45.76-2.98 1.09-4.59.25-1.2.47-2.354.65-3.476-.58-.52-1.17-1.046-1.79-1.576-.84-.717-1.69-1.41-2.53-2.077-.46.12-.93.247-1.39.376v-.484c.46-.13.92-.254 1.38-.374l.108-.03.092.072c.88.69 1.76 1.414 2.64 2.16.66.563 1.29 1.12 1.9 1.674l.09.084-.02.126c-.19 1.167-.41 2.374-.67 3.614-.34 1.67-.73 3.25-1.13 4.74l-.03.12-.122.04c-.77.27-1.55.51-2.34.75v.01c-.637.19-1.268.38-1.898.55m6-1.92l.12-.44c.3-1.17.57-2.36.82-3.55.17-.8.32-1.62.468-2.43l.08-.427.312.308c1.4 1.34 2.66 2.65 3.78 3.91l.21.24-.29.13c-1.59.74-3.29 1.44-5.08 2.102l-.42.157m1.79-5.9c-.12.67-.25 1.34-.392 2-.218 1.05-.46 2.1-.718 3.15 1.52-.58 2.968-1.18 4.34-1.8-.97-1.09-2.05-2.21-3.23-3.35m5.34 2.86l-.12-.14c-1.57-1.79-3.32-3.585-5.16-5.308l-.09-.085.02-.122c.22-1.542.4-3.08.53-4.58l.01-.182.18-.028c1.07-.166 2.102-.3 3.092-.395l.198-.02.052.2.028.125c.4 1.27 1.58 2.09 2.84 2.09.29 0 .58-.043.87-.13 1.05-.322 1.79-1.17 2.022-2.17l.048-.2.202.022c.6.062 1.16.142 1.67.25.878.183 1.61.433 2.16.75.54.316.93.7 1.07 1.167.038.135.06.28.06.433 0 .657-.36 1.464-1.17 2.423-.822.957-2.09 2.07-3.97 3.312-1.302.85-2.772 1.7-4.382 2.51l-.16.08m-4.87-5.708c1.77 1.665 3.46 3.398 4.98 5.127 1.53-.78 2.932-1.59 4.182-2.4 1.85-1.225 3.09-2.314 3.858-3.224.78-.91 1.07-1.645 1.062-2.12 0-.112-.01-.208-.04-.295-.092-.305-.37-.62-.852-.897-.49-.28-1.17-.522-2.02-.697-.44-.09-.92-.164-1.42-.22-.32 1.066-1.15 1.96-2.29 2.307-.34.102-.67.153-1.01.153-1.45 0-2.802-.93-3.27-2.377-.872.085-1.76.203-2.68.344-.13 1.412-.29 2.852-.5 4.3m-1.79-.997l-.33-.293c-.33-.29-.65-.572-.98-.85v-.002c-.51-.43-1.01-.85-1.52-1.266l.15-.184.05.23-.05-.23-.15.184-.37-.305.47-.104c.95-.218 1.89-.416 2.82-.588l.3-.057-.02.31c-.08.875-.19 1.782-.31 2.716l-.06.44m-1.01-1.502c.22.185.438.374.66.564.08-.666.16-1.32.22-1.953-.67.13-1.352.27-2.03.42.38.318.77.64 1.15.97m-5.46-1.875v-.036l.04.025-.04.01m1.82-.475l-.09-.068c-.58-.442-1.15-.87-1.73-1.285v-.58c.64.458 1.28.932 1.922 1.423 1.567-.385 3.108-.716 4.608-.985.062-1.052.09-2.052.09-2.997 0-4.753-.74-8.11-1.73-9.554-.32-.483-.66-.737-.978-.8l.05-.23.05-.23c.48.104.91.46 1.27.997.37.54.69 1.276.95 2.196.53 1.84.85 4.42.86 7.62 0 1.012-.04 2.082-.1 3.21l-.02.184-.182.03c-1.57.282-3.198.63-4.858 1.04l-.113.028m-1.82-11.54v-.824c.69-.965 1.36-1.703 1.98-2.206.61-.49 1.19-.763 1.728-.766.1 0 .2.01.302.03l-.052.23-.05.228-.2-.02h-.01c-.37 0-.87.21-1.43.66-.56.455-1.19 1.14-1.84 2.05-.14.196-.288.404-.428.62"/><path fill="#FFF" d="M43.596 47.204c0 1.835 1.48 3.324 3.313 3.34v-6.68c-1.834.016-3.314 1.504-3.314 3.34z"/><path fill="#E8E8E8" d="M46.94 43.86c-.012 0-.022.003-.032.003v6.682l.03.002c1.848 0 3.345-1.496 3.345-3.343s-1.497-3.344-3.344-3.344z"/></svg>