<svg xmlns="http://www.w3.org/2000/svg" width="93.641" height="93.219" viewBox="0 0 93.641 93.219"><path fill="#5C59CC" d="M91.64 46.608c0 24.64-20.068 44.61-44.818 44.61C22.07 91.218 2 71.248 2 46.608S22.07 2 46.82 2s44.82 19.97 44.82 44.608"/><path fill="#FFF" d="M61.28 50.387c1.51-.78 2.9-1.578 4.14-2.4 4.48-2.948 6.47-5.736 5.76-8.056-.46-1.518-1.978-2.553-4.488-3.075-.67-.14-1.4-.24-2.19-.306-.62-1.52-2.3-2.344-3.91-1.856-.99.3-1.73 1.047-2.06 1.952-.98.09-1.99.212-3.03.366.43-7.992-.75-14.6-4.33-15.344-3.49-.723-7.1 4.54-9.85 11.735-3.2-1.84-6.15-3.107-8.523-3.597-2.522-.525-4.322-.182-5.35 1.024-1.043 1.224-1.08 3.102-.144 5.534-.996 1.343-.804 3.246.487 4.348.683.583 1.54.83 2.364.755.664.948 1.396 1.922 2.2 2.904-6.437 3.317-10.894 7.188-9.896 10.446.462 1.51 1.977 2.55 4.498 3.07 2.414.5 5.69.51 9.443.07-.183 7.19 1.08 12.898 4.39 13.588 1.9.393 3.83-.98 5.64-3.47.16.063.33.12.5.15 1.74.36 3.44-.75 3.79-2.48.27-1.26-.25-2.49-1.2-3.21.33-.74.65-1.51.973-2.31 3.897 2.45 7.528 4.12 10.35 4.71 2.52.52 4.32.18 5.35-1.03 2.208-2.587-.333-7.906-4.913-13.517M58.43 38.57l.028.126c.52 1.692 2.32 2.646 4.01 2.13 1.132-.347 1.934-1.263 2.184-2.34.59.06 1.14.14 1.64.245 1.74.36 2.82.982 3.06 1.758.32 1.053-.82 3.154-4.99 5.9-1.288.848-2.76 1.688-4.36 2.498-1.568-1.8-3.318-3.602-5.168-5.33.218-1.545.4-3.088.53-4.594 1.056-.163 2.086-.296 3.066-.392m-9.78 14.787c-1.103.34-2.19.65-3.27.93-.87-.688-1.75-1.41-2.63-2.147-1.24-1.07-2.43-2.142-3.56-3.23.188-1.16.398-2.35.66-3.58.17-.813.35-1.61.527-2.39 1.452-.537 2.99-1.062 4.612-1.56 1.098-.333 2.187-.642 3.268-.926.88.69 1.75 1.41 2.63 2.153.65.56 1.28 1.12 1.892 1.67-.19 1.162-.41 2.36-.67 3.6-.34 1.67-.722 3.242-1.12 4.73-.77.26-1.55.51-2.34.75m1.69 1.48c-.26.86-.53 1.7-.81 2.49-.73-.5-1.48-1.02-2.222-1.58.632-.17 1.263-.357 1.9-.55.382-.12.76-.24 1.132-.36m-7.31.03c-1.59.36-3.142.66-4.63.89.09-1.42.23-2.938.45-4.54.85.802 1.738 1.593 2.658 2.382.502.427 1.012.847 1.522 1.268m-5.51-7.61c-.73-.75-1.438-1.51-2.1-2.258.878-.41 1.82-.816 2.8-1.22-.08.388-.172.775-.25 1.158-.16.77-.31 1.55-.45 2.32m3.44-6.563c.42-1.586.88-3.072 1.35-4.46 1.32.834 2.66 1.755 4.02 2.755-.63.18-1.26.362-1.9.556-1.17.357-2.32.74-3.47 1.15m9.65-.818c.95-.216 1.89-.408 2.81-.582-.08.87-.18 1.776-.3 2.708-.33-.29-.66-.572-.99-.854-.5-.433-1.01-.855-1.52-1.272m3.85 5.97c1.39 1.33 2.65 2.64 3.76 3.898-1.58.73-3.278 1.432-5.06 2.09.31-1.18.58-2.37.83-3.56.17-.81.32-1.62.47-2.428m-3.68-22.302c1.858.388 3.29 5.52 2.79 13.78-1.58.282-3.21.63-4.88 1.042-1.932-1.476-3.852-2.81-5.723-3.973 2.793-7.337 6.002-11.224 7.813-10.85m-18.813 17.16c.123-.103.242-.22.35-.346 1.148-1.347.993-3.373-.354-4.522-.87-.738-2.015-.935-3.03-.622-.545-1.616-.444-2.646-.022-3.14.523-.614 1.768-.755 3.5-.394 2.273.472 5.124 1.718 8.245 3.543-.71 2.01-1.343 4.13-1.892 6.288-1.6.623-3.15 1.29-4.636 1.99-.79-.948-1.513-1.883-2.16-2.797m-4.62 15.302c-1.732-.358-2.816-.98-3.053-1.75-.52-1.698 2.782-5.068 9.334-8.39 1.08 1.24 2.26 2.48 3.522 3.73-.33 2.18-.552 4.35-.67 6.43-3.657.45-6.83.46-9.134-.02m20.363 5.89c-1.54-.07-2.94.99-3.26 2.54-.19.88.01 1.74.47 2.43-1.46 2.02-2.79 3-3.73 2.8-1.73-.358-3.07-4.778-2.88-11.96 2.12-.318 4.352-.76 6.64-1.33 1.312 1 2.622 1.94 3.9 2.8-.37.97-.75 1.87-1.14 2.72m17.02.77c-.522.61-1.76.75-3.5.392-2.7-.562-6.238-2.222-10.06-4.65.49-1.39.958-2.83 1.378-4.31 2.472-.87 4.82-1.83 6.972-2.853 4.68 5.66 6.37 10.07 5.21 11.42"/><path fill="#FFF" d="M61.28 50.387l.1.21c1.52-.78 2.92-1.59 4.17-2.408 3.9-2.585 5.99-5.043 6.01-7.317 0-.345-.05-.684-.147-1.013-.25-.813-.79-1.498-1.57-2.033-.792-.54-1.83-.934-3.11-1.202-.67-.14-1.42-.24-2.21-.307l-.02.23.22-.086c-.54-1.313-1.81-2.145-3.19-2.145-.33 0-.67.048-1.01.15-1.062.324-1.85 1.127-2.21 2.097l.22.082-.023-.236c-.99.094-2 .214-3.05.37l.04.23.23.014c.06-1.046.092-2.074.092-3.064 0-3.3-.33-6.23-1.052-8.438-.368-1.105-.83-2.032-1.42-2.733-.58-.7-1.302-1.176-2.13-1.35-.23-.047-.47-.07-.7-.07-1.77.006-3.46 1.335-5.05 3.463-1.592 2.133-3.08 5.1-4.37 8.487l.222.084.108-.205c-3.21-1.848-6.17-3.123-8.586-3.62-.774-.164-1.49-.246-2.137-.246-1.495 0-2.668.44-3.44 1.347-.583.685-.87 1.567-.87 2.593 0 .936.233 2 .69 3.178l.218-.083-.188-.138c-.455.608-.68 1.334-.68 2.05 0 .97.407 1.935 1.202 2.613.647.554 1.44.825 2.228.825.102 0 .207-.006.31-.015l-.022-.235-.192.136c.666.953 1.405 1.93 2.21 2.92l.185-.15-.11-.208C29.327 45.67 26.8 47.29 25 48.94c-1.8 1.64-2.902 3.31-2.91 4.938 0 .34.05.682.152 1.01.246.812.78 1.49 1.565 2.03.784.54 1.823.932 3.104 1.2 1.28.272 2.792.39 4.478.39 1.543 0 3.24-.1 5.04-.31l-.028-.24h-.24c-.01.438-.01.87-.01 1.3 0 3.3.316 6.228 1.05 8.438.357 1.1.83 2.03 1.41 2.73.59.7 1.3 1.17 2.14 1.35.23.05.458.07.69.07 1.817-.01 3.55-1.41 5.18-3.632l-.19-.14-.09.22c.17.062.35.12.538.16h.01c.23.05.462.07.7.07 1.592 0 3.03-1.11 3.36-2.74.05-.23.07-.47.07-.7 0-1.09-.52-2.1-1.358-2.738l-.142.188.21.103c.342-.74.66-1.52.97-2.32l-.208-.09-.13.2c3.92 2.447 7.568 4.14 10.43 4.737h.05v-.23l-.042.23c.772.16 1.48.24 2.132.24 1.49 0 2.67-.44 3.44-1.34.598-.7.87-1.59.87-2.58-.013-2.97-2.34-7.02-5.782-11.25l-.178.153.1.21-.1-.21-.18.15c3.42 4.18 5.68 8.22 5.67 10.95 0 .91-.24 1.67-.75 2.27-.67.78-1.682 1.182-3.09 1.182-.61 0-1.292-.07-2.042-.23l-.02-.012h-.03v.24l.05-.23c-2.778-.58-6.397-2.24-10.278-4.67l-.24-.147-.1.26c-.313.79-.632 1.56-.96 2.29l-.08.18.147.11c.73.55 1.18 1.42 1.18 2.36 0 .198-.02.398-.066.608-.29 1.4-1.52 2.37-2.9 2.37-.2 0-.41-.02-.608-.06-.16-.042-.32-.092-.472-.15l-.17-.07-.1.15c-1.59 2.19-3.25 3.45-4.8 3.44-.2 0-.4-.02-.602-.06-.72-.15-1.34-.55-1.87-1.19-1.608-1.91-2.358-5.97-2.35-10.87 0-.42 0-.85.01-1.29l.01-.27-.27.03c-1.78.21-3.457.317-4.98.317-1.664 0-3.145-.13-4.384-.39-1.24-.26-2.222-.64-2.937-1.13-.716-.49-1.168-1.08-1.384-1.78-.088-.29-.13-.568-.13-.87-.008-1.41.994-3 2.755-4.6 1.76-1.6 4.252-3.2 7.153-4.696l.258-.134-.182-.225c-.8-.978-1.532-1.946-2.193-2.89l-.076-.11-.136.012-.26.018c-.678 0-1.364-.234-1.924-.713-.688-.587-1.04-1.418-1.04-2.257 0-.622.193-1.245.587-1.774l.078-.104-.046-.12c-.44-1.143-.658-2.153-.658-3.01.002-.943.256-1.697.76-2.29.664-.776 1.67-1.175 3.082-1.18.61 0 1.29.078 2.04.234 2.342.483 5.262 1.735 8.452 3.57l.23.136.1-.255c1.29-3.362 2.77-6.297 4.32-8.376 1.538-2.085 3.158-3.28 4.67-3.274.197 0 .398.02.6.062.72.15 1.34.555 1.87 1.19 1.61 1.91 2.36 5.97 2.36 10.872 0 .98-.03 2-.092 3.038l-.01.286.28-.04c1.04-.155 2.05-.276 3.02-.368l.15-.014.05-.137c.31-.838.99-1.53 1.91-1.81.29-.09.58-.13.87-.13 1.188 0 2.29.717 2.75 1.853l.06.132.14.013c.78.065 1.5.162 2.16.3 1.24.258 2.21.64 2.933 1.127.72.492 1.17 1.08 1.39 1.786.08.284.13.575.13.875.01 1.96-1.93 4.38-5.8 6.926-1.23.812-2.62 1.61-4.12 2.382l-.26.13.19.23.18-.15M58.43 38.57l-.222.055.032.127v.014c.46 1.48 1.817 2.436 3.29 2.436.34 0 .67-.05 1.01-.153 1.21-.368 2.07-1.355 2.338-2.51l-.228-.052-.022.235c.58.06 1.12.137 1.62.24.852.175 1.53.415 2.022.697.48.278.76.592.85.897.032.088.042.183.042.294.01.477-.282 1.21-1.062 2.122-.77.91-2.01 2-3.858 3.224-1.29.84-2.75 1.68-4.34 2.48l.098.21.18-.157c-1.58-1.8-3.34-3.61-5.187-5.343l-.16.172.23.03c.23-1.55.398-3.096.53-4.606l-.23-.02.04.232c1.05-.164 2.068-.298 3.06-.39l-.033-.236-.222.055.222-.055-.02-.232c-.99.096-2.02.23-3.09.396l-.183.03-.01.182c-.13 1.5-.31 3.037-.53 4.58l-.02.12.09.084c1.84 1.723 3.59 3.518 5.16 5.308l.12.142.16-.08c1.607-.812 3.08-1.66 4.38-2.51 1.88-1.24 3.148-2.355 3.97-3.313.81-.96 1.17-1.766 1.17-2.423 0-.153-.02-.298-.06-.433-.14-.467-.53-.85-1.07-1.166-.55-.314-1.28-.564-2.16-.75-.51-.107-1.07-.188-1.67-.25l-.2-.02-.05.2c-.23 1-.97 1.847-2.02 2.168-.29.087-.58.13-.87.13-1.27 0-2.45-.826-2.84-2.105l-.23.068.23-.054-.03-.124-.05-.2-.2.02.023.234m-9.78 14.787l-.07-.22c-1.09.328-2.18.64-3.26.92l.06.23.15-.18c-.88-.69-1.75-1.41-2.62-2.15-1.25-1.06-2.43-2.14-3.56-3.22l-.16.17.23.04c.19-1.15.4-2.34.66-3.57.17-.812.35-1.608.53-2.385l-.232-.054.09.22c1.442-.536 2.973-1.06 4.59-1.554 1.094-.334 2.184-.643 3.264-.924l-.063-.228-.14.184c.87.688 1.74 1.406 2.62 2.148.647.56 1.278 1.112 1.888 1.663l.15-.173-.23-.038c-.188 1.16-.41 2.36-.67 3.6-.34 1.66-.718 3.23-1.12 4.71l.232.062-.08-.22c-.76.26-1.54.51-2.33.75l.07.22.067.228c.79-.25 1.57-.49 2.34-.76l.122-.04.027-.12c.4-1.49.79-3.07 1.13-4.74.262-1.238.482-2.446.67-3.613l.022-.125-.09-.085c-.61-.555-1.24-1.11-1.9-1.674-.88-.747-1.76-1.47-2.64-2.16l-.093-.073-.107.03c-1.08.285-2.18.594-3.28.93-1.63.497-3.17 1.024-4.62 1.564l-.108.044-.03.12c-.19.78-.37 1.578-.54 2.4-.25 1.233-.47 2.422-.66 3.583l-.02.12.08.09c1.14 1.09 2.33 2.17 3.58 3.24.88.74 1.76 1.46 2.64 2.147l.09.08.11-.028c1.08-.28 2.18-.602 3.278-.93l-.07-.23m1.69 1.482l-.22-.07c-.26.87-.53 1.69-.81 2.48l.22.08.14-.2c-.74-.487-1.48-1.02-2.22-1.56l-.142.18.062.23c.63-.182 1.27-.36 1.91-.562.38-.108.76-.238 1.14-.35l-.08-.228-.22-.07.22.07-.07-.22c-.367.12-.75.24-1.13.36-.63.188-1.27.37-1.897.55l-.46.13.39.28c.75.55 1.49 1.08 2.23 1.58l.26.17.1-.28c.27-.8.538-1.63.812-2.5l.13-.43-.432.14.067.22m-7.31.03l-.052-.23c-1.59.36-3.13.658-4.618.89l.04.23.23.02c.09-1.42.24-2.93.45-4.53l-.23-.03-.158.173c.85.8 1.75 1.6 2.67 2.38.5.44 1.01.86 1.52 1.278l.148-.18-.052-.23.052.23.15-.19c-.512-.41-1.012-.83-1.52-1.26-.912-.78-1.802-1.57-2.652-2.37l-.34-.31-.06.45c-.21 1.607-.352 3.13-.44 4.56l-.02.29.29-.05c1.49-.23 3.05-.53 4.64-.89l.47-.11-.37-.31-.148.19m-5.51-7.61l.17-.16c-.73-.75-1.43-1.507-2.1-2.25l-.17.152.1.212c.883-.403 1.813-.813 2.79-1.216l-.09-.217-.22-.053c-.09.39-.18.776-.26 1.167l.23.044-.23-.048c-.16.776-.31 1.548-.45 2.326l.23.04.17-.157-.17.157.24.04c.13-.77.28-1.54.44-2.31v-.004c.08-.38.16-.764.25-1.153l.098-.437-.41.17c-1 .405-1.93.813-2.816 1.226l-.292.13.21.234c.67.753 1.38 1.513 2.12 2.273l.32.32.078-.452-.238-.038m3.44-6.562l.22.06c.432-1.582.88-3.062 1.352-4.44l-.222-.08-.118.2c1.31.828 2.648 1.748 4 2.747l.14-.19-.06-.225c-.632.18-1.272.36-1.91.557-1.17.357-2.33.742-3.48 1.152l.077.22.22.058-.22-.06.07.22c1.15-.404 2.31-.79 3.47-1.143.63-.194 1.26-.375 1.9-.554l.46-.13-.393-.282c-1.357-1.006-2.71-1.932-4.027-2.767l-.25-.16-.1.283c-.47 1.394-.93 2.882-1.36 4.474l-.118.43.42-.148-.073-.22m9.65-.818l.05.23c.95-.217 1.89-.412 2.8-.584l-.04-.23-.23-.02c-.08.867-.19 1.77-.312 2.7l.24.028.15-.176c-.33-.29-.65-.576-.99-.855v.002c-.5-.436-1.01-.858-1.52-1.275l-.148.18.05.23-.05-.23-.15.186c.51.416 1.01.835 1.52 1.266v.002c.332.277.65.56.98.85l.33.293.06-.44c.12-.933.23-1.84.313-2.716l.02-.31-.302.057c-.928.172-1.867.37-2.818.588l-.47.104.37.305.148-.187m3.85 5.97l-.16.158c1.392 1.342 2.642 2.642 3.75 3.89l.17-.15-.09-.21c-1.58.73-3.28 1.43-5.05 2.082l.08.22.23.06c.312-1.18.58-2.38.83-3.58.17-.798.32-1.62.472-2.43l-.233-.04-.16.158.16-.158-.23-.053c-.147.813-.3 1.632-.47 2.433-.25 1.188-.52 2.38-.818 3.55l-.12.437.42-.157c1.79-.66 3.49-1.36 5.08-2.103l.29-.13-.21-.24c-1.12-1.26-2.38-2.568-3.78-3.91l-.312-.307-.08.426.23.054m-3.68-22.302l-.05.23c.317.062.658.317.98.8.99 1.444 1.73 4.8 1.73 9.555 0 1-.03 2.064-.102 3.183l.23.014-.04-.23c-1.59.28-3.23.633-4.892 1.045l.052.228.14-.186c-1.93-1.483-3.86-2.82-5.73-3.985l-.13.197.222.084c1.33-3.49 2.75-6.196 4.06-8.015.65-.908 1.28-1.594 1.84-2.048.57-.454 1.063-.664 1.44-.66l.2.02.05-.23.05-.23c-.1-.02-.2-.03-.3-.03-.54.002-1.12.277-1.73.767-1.818 1.47-4.04 4.977-6.05 10.26l-.07.18.17.103c1.86 1.155 3.78 2.485 5.7 3.96l.09.066.11-.025c1.66-.41 3.29-.76 4.86-1.04l.18-.03.02-.187c.06-1.126.102-2.195.102-3.207-.01-3.2-.33-5.78-.862-7.62-.26-.922-.58-1.657-.948-2.197-.358-.538-.79-.895-1.27-.996l-.052.226m-18.813 17.16l.153.177c.13-.11.257-.234.377-.377l-.182-.146.18.15c.552-.646.826-1.444.826-2.232 0-.97-.41-1.94-1.206-2.617-.65-.55-1.442-.82-2.23-.82-.344 0-.687.054-1.02.155l.067.223.227-.074c-.26-.762-.365-1.378-.365-1.856 0-.516.125-.86.294-1.057.258-.308.813-.507 1.638-.505.472 0 1.02.063 1.638.19 2.23.46 5.07 1.695 8.172 3.514l.12-.202-.22-.08c-.712 2.016-1.342 4.146-1.892 6.31l.22.06-.08-.22c-1.607.624-3.17 1.295-4.652 1.994l.1.214.18-.15c-.783-.943-1.504-1.874-2.146-2.783l-.197.133.153.177-.153-.177-.19.136c.65.92 1.38 1.86 2.17 2.812l.115.14.164-.08c1.476-.692 3.024-1.36 4.625-1.98l.11-.044.03-.117c.55-2.15 1.18-4.267 1.88-6.268l.06-.183-.16-.098c-3.13-1.833-6.01-3.088-8.314-3.57-.644-.133-1.22-.2-1.732-.2-.89.002-1.584.2-1.994.67-.27.314-.405.773-.405 1.36 0 .548.12 1.21.388 2.006l.073.216.214-.066c.288-.086.586-.132.885-.132.684 0 1.365.23 1.925.71.688.586 1.04 1.42 1.04 2.26 0 .682-.23 1.368-.712 1.926l-.003.003v.002c-.095.112-.204.22-.32.32l-.16.14.123.172.19-.136m-4.622 15.302l.047-.22c-.85-.18-1.53-.42-2.02-.7-.486-.278-.764-.6-.855-.898-.028-.102-.043-.2-.043-.313-.015-.75.756-1.97 2.323-3.34 1.565-1.37 3.897-2.92 6.938-4.46l-.106-.21-.177.15c1.086 1.25 2.268 2.5 3.526 3.74l.172-.16-.23-.038c-.33 2.187-.56 4.368-.67 6.458l.23.01-.03-.23c-1.813.222-3.5.343-5.02.343-1.537 0-2.9-.12-4.04-.352l-.046.22-.048.23c1.18.25 2.57.37 4.134.37 1.543 0 3.248-.12 5.077-.34l.19-.03.008-.19c.122-2.08.35-4.238.67-6.42l.022-.12-.09-.08c-1.264-1.238-2.434-2.48-3.507-3.71l-.12-.14-.163.08c-3.063 1.56-5.426 3.12-7.03 4.53-1.6 1.42-2.47 2.66-2.485 3.69 0 .16.022.3.065.44.142.47.524.86 1.07 1.17.55.32 1.273.57 2.156.75l.05-.23m20.363 5.89l.01-.24h-.14c-1.602 0-3.03 1.11-3.36 2.73-.05.238-.08.48-.08.71 0 .687.222 1.35.58 1.898l.2-.13-.188-.13c-.66.91-1.29 1.6-1.853 2.06-.57.45-1.068.67-1.45.66l-.198-.02c-.312-.063-.65-.32-.98-.8-.99-1.44-1.73-4.802-1.72-9.552 0-.45 0-.898.02-1.37l-.24-.01.04.23c2.12-.32 4.36-.77 6.65-1.34l-.05-.223-.14.184c1.31 1.01 2.62 1.948 3.908 2.81l.13-.19-.21-.09c-.38.972-.76 1.87-1.14 2.71l.21.103.01-.24-.01.24.22.09c.38-.85.772-1.75 1.143-2.73l.067-.17-.16-.107c-1.278-.86-2.577-1.79-3.89-2.79l-.09-.072-.11.03c-2.278.567-4.51 1.01-6.608 1.33l-.2.028v.19c-.01.48-.02.938-.02 1.39 0 3.2.317 5.78.85 7.62.27.92.58 1.65.95 2.19s.79.897 1.278 1c.092.02.19.03.29.03.552 0 1.132-.28 1.74-.77.61-.49 1.26-1.22 1.94-2.15l.09-.13-.09-.14c-.32-.48-.5-1.05-.5-1.64 0-.2.02-.41.06-.61.29-1.4 1.53-2.36 2.91-2.36h.12l.16.012.07-.15-.22-.09m17.02.77l-.17-.15c-.262.3-.818.51-1.64.5-.47 0-1.02-.06-1.64-.188-2.66-.55-6.182-2.2-9.982-4.62l-.13.2.22.08c.5-1.39.962-2.84 1.393-4.32l-.23-.07.08.22c2.48-.87 4.83-1.83 6.99-2.85l-.1-.22-.18.16c1.86 2.24 3.24 4.29 4.16 6.01.91 1.73 1.35 3.14 1.35 4.07 0 .47-.108.81-.29 1.03l.17.147.182.15c.28-.33.41-.79.41-1.33-.013-1.07-.48-2.52-1.41-4.29-.933-1.76-2.34-3.83-4.21-6.09l-.12-.142-.16.07c-2.14 1.02-4.48 1.97-6.95 2.84l-.11.04-.028.12c-.42 1.47-.89 2.91-1.38 4.29l-.063.18.15.102c3.84 2.438 7.392 4.108 10.142 4.68.65.13 1.23.2 1.74.2.89 0 1.58-.2 1.99-.67l-.183-.15"/><path fill="#4B4BAA" d="M46.82 89.217v-20.77c.02 0 .04.01.06.01h.01c.23.05.46.07.7.07 1.59 0 3.03-1.11 3.36-2.74.05-.23.07-.47.07-.7 0-1.028-.462-1.978-1.212-2.62.27-.608.53-1.237.79-1.89 3.83 2.37 7.393 4 10.19 4.59h.02c.77.16 1.47.24 2.12.24h.01c1.49 0 2.66-.44 3.432-1.34.6-.7.87-1.59.87-2.58-.012-2.92-2.262-6.88-5.602-11.02 1.42-.75 2.73-1.51 3.91-2.28 3.9-2.582 5.99-5.04 6.01-7.314 0-.345-.05-.684-.147-1.013-.25-.813-.79-1.498-1.57-2.034-.79-.538-1.83-.933-3.11-1.2-.63-.133-1.328-.23-2.067-.296-.562-1.235-1.802-2.012-3.132-2.012-.328 0-.67.048-1.01.15-1.01.31-1.777 1.05-2.16 1.957-.84.082-1.72.188-2.617.315.05-.95.08-1.878.08-2.78 0-3.3-.33-6.23-1.052-8.438-.368-1.105-.83-2.032-1.42-2.733-.58-.7-1.3-1.177-2.13-1.35-.23-.047-.47-.07-.7-.07-1.27.004-2.51.698-3.698 1.88V4c.29 0 .568.002.85.008 1.16.023 2.312.094 3.45.205h.02c.08.01.15.018.23.025l.04.004.21.023.06.006c.07.01.13.016.2.023l.07.01.18.02.09.012c.05.005.11.014.16.02.04.004.07.01.11.015l.148.02c.04.006.08.013.12.017l.13.02c.05.006.092.013.14.02.042.005.08.01.122.017.05.01.1.016.14.022.04.005.08.012.11.017.06.008.11.016.158.025l.103.015c.06.01.108.02.17.027l.09.015c.06.01.12.02.17.03l.09.014c.062.01.12.02.18.032.03.003.052.007.08.012.062.013.12.024.19.034l.07.014c.06.012.13.024.2.036.01.005.028.01.05.012l.21.04c.02.004.028.007.05.01.068.015.148.03.22.045l.03.006.24.05c.01 0 .01.003.02.004.077.014.157.032.237.05l.02.002c.08.02.17.037.25.056h.012c6.31 1.41 12.1 4.208 17.02 8.056.07.053.13.105.2.157v.003c.068.052.13.104.2.156 0 0 0 .004.01.005.06.05.12.103.188.154 0 .003 0 .005.01.007.062.052.122.105.19.156 0 .002 0 .005.01.007.06.05.12.103.182.154.01.005.01.007.01.01.07.052.13.103.19.156 0 .002.01.007.01.01l.18.153c.01.004.01.008.02.012.06.05.118.102.18.153 0 .006.01.012.01.015.062.052.12.104.18.158.01.003.01.005.01.01.062.05.122.103.18.156.01.004.01.008.022.01.06.054.108.105.17.158.01.004.01.01.02.015.062.05.11.102.17.154.01.005.01.012.02.016.062.053.122.107.182.16 0 .004 0 .008.01.012.06.053.11.107.17.16.012.005.012.01.02.013.05.054.108.107.17.16 0 .005.01.01.01.016.062.053.12.105.17.16.01.004.01.01.02.017.062.054.11.106.17.162.012.005.012.01.02.014.052.055.112.108.16.163.01.004.01.01.022.015.06.055.108.108.17.163 0 .005.01.01.01.017.06.058.12.118.18.18 7.76 7.717 12.54 18.355 12.54 30.124s-4.78 22.41-12.54 30.128l-.18.18s-.01.012-.02.012c-.052.06-.102.108-.16.16-.013.01-.02.02-.03.028-.05.05-.102.1-.15.15-.01.01-.02.01-.02.02-.063.05-.11.102-.17.16-.012.01-.022.01-.03.02-.05.053-.1.102-.16.15 0 .01-.01.02-.02.02-.052.05-.11.11-.16.16-.01.01-.02.01-.03.02-.05.05-.11.1-.16.148-.01.013-.01.013-.02.02-.063.05-.11.102-.17.15l-.022.022c-.06.05-.108.1-.17.15-.01.01-.01.02-.02.02-.062.05-.11.1-.17.15-.013.01-.02.02-.02.02-.06.05-.12.1-.17.15-.01.01-.02.01-.02.02-.062.05-.12.102-.18.15 0 .01-.01.01-.02.02-.063.05-.112.1-.17.15-.012 0-.012.01-.022.01l-.18.15c0 .01-.01.01-.01.02l-.19.15s0 .01-.01.01l-.18.15c-.012.01-.012.01-.02.01l-.182.15-.01.01c-.07.06-.132.108-.19.16-.01 0-.01 0-.01.01-.07.05-.13.1-.2.147-.07.053-.13.102-.2.16-5.06 3.95-11.03 6.802-17.54 8.17h-.012c-.08.02-.17.03-.25.052-.01 0-.01 0-.02.01-.08.01-.16.03-.24.04-.01 0-.02.01-.03.01-.07.01-.15.03-.23.04-.01.01-.02.01-.027.01-.08.01-.15.03-.23.04-.01 0-.02.012-.04.012-.07.01-.14.027-.21.037-.02 0-.04 0-.06.012-.07.01-.13.02-.2.028-.02.01-.04.01-.062.01-.068.01-.128.03-.197.04-.02 0-.052.012-.07.012-.062.01-.12.02-.19.03-.02 0-.05.01-.08.01-.06.01-.11.02-.17.028-.04 0-.068.012-.1.012l-.16.03c-.04 0-.07.01-.11.01-.05.01-.1.02-.15.02-.038.01-.078.02-.118.02-.04.01-.09.01-.14.02-.04.012-.08.012-.12.022-.05 0-.09.01-.13.01-.05.01-.102.02-.14.02-.042.012-.08.012-.122.02-.05 0-.1.012-.15.012-.038.01-.07.01-.1.02-.06 0-.118.01-.17.02h-.08c-.06.012-.13.022-.198.032h-.052c-.07.01-.14.02-.22.02 0 0-.01.01-.02.01-1.13.11-2.29.18-3.45.2h-.853"/><path fill="#4B4BAA" d="M62.93 63.02h-.01c-.472 0-1.02-.063-1.642-.19-2.618-.542-6.08-2.15-9.83-4.522.462-1.3.9-2.65 1.29-4.03 2.38-.84 4.64-1.76 6.71-2.73 1.813 2.19 3.15 4.183 4.052 5.87.91 1.73 1.35 3.142 1.35 4.07 0 .47-.11.81-.29 1.03-.26.3-.81.5-1.63.5m-16.11-1.28v-3.69c.59.42 1.17.83 1.75 1.222-.33.84-.67 1.64-1.012 2.39-.25-.002-.497.028-.738.077m2.59-4.78c-.52-.358-1.05-.728-1.58-1.108.48-.142.97-.28 1.45-.432.24-.07.47-.14.71-.22-.19.61-.38 1.19-.58 1.76m-2.59-3.3v-3.01c.87-.07 1.73-.48 2.34-1.2.56-.65.83-1.45.83-2.23 0-.97-.41-1.942-1.2-2.618l-.16.18.16-.18c-.58-.495-1.27-.764-1.97-.816v-2.697c.46-.13.93-.256 1.39-.377.84.667 1.69 1.36 2.53 2.076.62.53 1.21 1.055 1.79 1.577-.18 1.12-.4 2.275-.65 3.476-.33 1.608-.7 3.14-1.09 4.59-.73.25-1.46.48-2.21.71l.07.22-.07-.22c-.59.177-1.17.347-1.76.518m6.68-2.19c.262-1.05.5-2.1.72-3.15.14-.658.272-1.33.39-2 1.182 1.142 2.262 2.262 3.23 3.352-1.37.617-2.82 1.218-4.34 1.797m6.56-2.87c-1.52-1.73-3.21-3.46-4.98-5.127.21-1.447.368-2.89.5-4.302.92-.14 1.81-.257 2.68-.344.47 1.446 1.82 2.377 3.27 2.377.34 0 .67-.05 1.01-.15 1.142-.35 1.973-1.242 2.292-2.307.5.055.98.127 1.42.22.85.175 1.528.415 2.02.696.48.278.76.592.85.896.03.088.042.185.042.296.01.476-.28 1.21-1.062 2.12-.77.91-2.01 2-3.86 3.225-1.252.81-2.65 1.62-4.183 2.4m-7.12-7.06c-.22-.19-.44-.38-.66-.564-.38-.327-.77-.65-1.15-.97.68-.15 1.36-.29 2.03-.42-.06.634-.14 1.287-.22 1.954m-4.2-3.424c-.64-.49-1.28-.965-1.92-1.423v-9.606c.14-.216.29-.423.43-.62.65-.908 1.28-1.595 1.84-2.048.562-.45 1.062-.66 1.43-.66h.01l.202.02.05-.23-.05.23c.318.063.658.318.98.8.988 1.445 1.728 4.802 1.728 9.556 0 .944-.028 1.945-.09 2.997-1.5.267-3.04.6-4.61.983"/><path fill="#E8E8E8" d="M47.59 68.068c-.2 0-.41-.02-.608-.062-.05-.02-.11-.028-.16-.04v-5.738c.25-.07.5-.102.76-.102h.118l.16.01.07-.148c.378-.85.77-1.75 1.14-2.73l.068-.172-.16-.106c-.71-.48-1.43-.98-2.157-1.5v-1.79l.35.25c.75.55 1.49 1.08 2.23 1.58l.26.17.1-.28c.27-.8.54-1.63.813-2.5l.13-.43-.432.14c-.368.12-.75.24-1.13.36-.63.188-1.27.37-1.897.55l-.42.12v-1.51c.63-.17 1.26-.36 1.897-.552v-.01c.79-.24 1.57-.48 2.34-.75l.12-.04.03-.12c.4-1.49.79-3.07 1.13-4.74.26-1.24.48-2.446.67-3.613l.02-.125-.09-.085c-.608-.553-1.24-1.11-1.9-1.673-.878-.747-1.76-1.47-2.64-2.16l-.09-.072-.11.03c-.46.12-.92.244-1.38.374V39.1l.04-.012-.04-.024V37.27c.58.415 1.147.843 1.73 1.285l.09.067.11-.025c1.66-.41 3.29-.76 4.86-1.04l.18-.032.02-.185c.06-1.128.102-2.196.102-3.208-.01-3.2-.33-5.782-.862-7.62-.26-.922-.58-1.658-.948-2.197-.358-.538-.79-.895-1.27-.996l-.05.228.05-.23c-.1-.02-.2-.03-.3-.03-.54.003-1.12.276-1.732.768-.618.502-1.288 1.24-1.978 2.206V23.93c1.237-1.344 2.5-2.09 3.688-2.09h.01c.2 0 .4.02.602.06.72.15 1.34.555 1.87 1.192C54.6 25 55.35 29.06 55.35 33.958c0 .983-.028 2-.09 3.04l-.01.286.28-.04c1.04-.155 2.05-.277 3.018-.368l.15-.014.052-.138c.31-.837.99-1.528 1.91-1.81.29-.087.58-.13.87-.13 1.187 0 2.29.72 2.75 1.854l.06.132.14.012c.78.065 1.5.163 2.16.3 1.24.258 2.21.64 2.932 1.128.72.492 1.17 1.08 1.39 1.786.08.284.13.575.13.875.01 1.96-1.93 4.38-5.8 6.926-1.23.81-2.62 1.61-4.12 2.38l-.26.13.188.23.18-.148.1.21-.1-.21-.18.15c3.42 4.18 5.68 8.22 5.67 10.95 0 .91-.24 1.67-.75 2.27-.67.78-1.68 1.18-3.09 1.18-.608 0-1.29-.07-2.04-.228l-.02-.01h-.01c-2.772-.58-6.38-2.24-10.25-4.66l-.24-.15-.102.262c-.31.79-.63 1.56-.96 2.29l-.08.18.15.11c.73.55 1.18 1.42 1.18 2.356 0 .2-.02.402-.068.61-.29 1.4-1.52 2.37-2.9 2.37m11.99-17.1l-.16.07c-2.14 1.02-4.48 1.97-6.95 2.84l-.108.04-.03.12c-.42 1.47-.89 2.91-1.38 4.29l-.062.18.15.1c3.84 2.44 7.39 4.11 10.14 4.68.65.132 1.23.202 1.74.202.89 0 1.58-.2 1.99-.67.28-.33.41-.79.41-1.33-.012-1.07-.48-2.52-1.41-4.29-.932-1.76-2.34-3.83-4.21-6.09l-.12-.14m-5.35-5.173c-.148.812-.3 1.632-.47 2.433-.25 1.188-.52 2.38-.82 3.55l-.118.44.42-.16c1.79-.66 3.49-1.36 5.08-2.102l.29-.13-.21-.24c-1.12-1.26-2.382-2.568-3.78-3.91l-.313-.307-.08.427m4.18-7.458c-.99.095-2.02.228-3.09.395l-.182.03-.01.18c-.13 1.502-.31 3.04-.53 4.58l-.02.12.09.085c1.84 1.723 3.59 3.52 5.16 5.31l.12.14.16-.08c1.607-.81 3.08-1.66 4.38-2.51 1.88-1.24 3.148-2.354 3.97-3.313.81-.96 1.17-1.765 1.17-2.422 0-.153-.02-.297-.06-.433-.14-.468-.53-.852-1.07-1.167-.55-.315-1.28-.564-2.16-.75-.51-.107-1.07-.188-1.67-.25l-.2-.02-.05.2c-.23 1-.97 1.848-2.02 2.17-.29.087-.58.13-.87.13-1.26 0-2.44-.82-2.84-2.09l-.028-.125-.05-.2-.2.02m-7.8 1.538l-.15.185c.51.414 1.01.835 1.52 1.266.332.278.65.56.98.85l.33.294.06-.438c.12-.935.23-1.84.313-2.72l.02-.308-.3.058c-.93.172-1.87.37-2.82.587l-.47.104.37.306.147-.185.05.23-.05-.23"/><path fill="#E8E8E8" d="M47.59 68.527c-.24 0-.47-.02-.7-.07h-.01c-.02 0-.04-.01-.06-.01v-.48c.05.013.11.02.16.04.2.04.408.062.61.062 1.377 0 2.608-.97 2.9-2.37.048-.21.066-.41.066-.61 0-.938-.45-1.81-1.18-2.358l-.148-.11.08-.18c.328-.73.648-1.5.96-2.29l.1-.26.24.147c3.87 2.42 7.48 4.08 10.25 4.66h.01l.02.01c.75.16 1.432.23 2.04.23 1.41 0 2.42-.4 3.09-1.182.51-.6.75-1.36.75-2.27.01-2.73-2.25-6.772-5.67-10.95l.18-.15.102.21-.1-.21-.18.15-.19-.23.26-.13c1.5-.772 2.89-1.57 4.12-2.383 3.87-2.545 5.81-4.965 5.8-6.925 0-.3-.05-.59-.13-.875-.22-.705-.67-1.293-1.39-1.786-.72-.49-1.69-.87-2.932-1.128-.66-.138-1.38-.234-2.16-.3l-.14-.012-.06-.133c-.46-1.136-1.563-1.854-2.75-1.854-.29 0-.58.042-.87.13-.92.28-1.602.972-1.91 1.81l-.05.138-.15.015c-.968.09-1.978.213-3.02.368l-.278.04.01-.286c.06-1.04.09-2.057.09-3.04 0-4.9-.75-8.96-2.358-10.87-.53-.636-1.15-1.04-1.87-1.19-.2-.042-.4-.062-.602-.062h-.01c-1.188 0-2.45.747-3.688 2.09v-.675c1.188-1.183 2.43-1.877 3.7-1.882.23 0 .47.024.698.072.83.173 1.55.647 2.13 1.348.59.7 1.052 1.628 1.42 2.733.723 2.21 1.052 5.14 1.052 8.438 0 .903-.03 1.832-.08 2.78.898-.127 1.78-.232 2.62-.313.38-.906 1.148-1.646 2.16-1.958.34-.102.68-.15 1.01-.15 1.33 0 2.57.777 3.13 2.013.74.067 1.44.163 2.068.294 1.28.27 2.32.663 3.11 1.202.78.535 1.32 1.22 1.57 2.033.1.328.148.667.148 1.012-.02 2.274-2.108 4.732-6.01 7.315-1.18.77-2.49 1.528-3.91 2.278 3.34 4.142 5.59 8.102 5.603 11.02 0 .992-.27 1.882-.87 2.58-.77.9-1.94 1.34-3.43 1.34h-.01c-.65 0-1.35-.078-2.122-.238h-.018c-2.8-.59-6.36-2.22-10.19-4.59-.26.65-.52 1.28-.79 1.89.75.64 1.21 1.592 1.21 2.62 0 .23-.02.472-.068.7-.332 1.63-1.772 2.74-3.36 2.74M62.918 63.487c-.51 0-1.09-.07-1.74-.2-2.75-.57-6.3-2.24-10.14-4.68l-.15-.1.062-.18c.49-1.382.96-2.82 1.38-4.292l.03-.12.108-.04c2.47-.87 4.81-1.817 6.95-2.84l.16-.07.12.142c1.87 2.26 3.278 4.33 4.21 6.09.93 1.77 1.398 3.22 1.41 4.29 0 .54-.13 1-.41 1.33-.41.47-1.1.67-1.99.67m-11.47-5.18c3.75 2.37 7.21 3.98 9.83 4.522.62.128 1.17.188 1.64.188h.01c.82 0 1.37-.2 1.63-.5.183-.222.29-.562.29-1.03 0-.93-.437-2.34-1.35-4.07-.9-1.687-2.24-3.68-4.05-5.87-2.07.972-4.33 1.892-6.71 2.73-.39 1.38-.83 2.73-1.29 4.03m-4.63 3.92v-.49c.24-.05.488-.08.738-.08.342-.75.683-1.55 1.012-2.39-.58-.392-1.16-.802-1.75-1.222v-.567c.73.52 1.45 1.02 2.158 1.5l.16.107-.068.17c-.37.98-.762 1.882-1.14 2.73l-.07.15-.16-.01h-.12c-.26 0-.51.03-.76.102m.89-.333l.01-.24-.01.24m1.95-4.21l-.26-.17c-.74-.5-1.48-1.03-2.23-1.58l-.35-.25v-.038l.42-.122c.63-.18 1.27-.36 1.898-.55.38-.12.762-.24 1.13-.36l.432-.14-.13.43c-.27.87-.54 1.7-.812 2.5l-.097.28m-1.83-1.84c.53.38 1.06.75 1.58 1.108.2-.57.39-1.147.58-1.76-.24.08-.47.15-.71.22-.48.15-.97.292-1.45.432m-1.01-1.71v-.48c.59-.17 1.17-.34 1.76-.52l.07.22-.07-.22c.75-.23 1.48-.46 2.21-.71.39-1.45.76-2.98 1.09-4.59.25-1.2.47-2.355.65-3.477-.58-.52-1.17-1.045-1.79-1.575-.84-.717-1.69-1.41-2.53-2.077-.46.12-.93.248-1.39.377v-.483c.46-.13.92-.254 1.38-.374l.108-.03.092.072c.88.69 1.76 1.414 2.64 2.16.66.563 1.29 1.12 1.9 1.674l.09.084-.022.126c-.188 1.167-.41 2.374-.67 3.614-.34 1.67-.73 3.25-1.13 4.74l-.03.118-.12.04c-.77.272-1.55.51-2.34.75v.01c-.637.19-1.268.38-1.898.55m6-1.92l.12-.437c.3-1.17.568-2.36.818-3.55.17-.8.32-1.62.47-2.433l.08-.426.312.31c1.4 1.34 2.66 2.65 3.78 3.91l.21.24-.29.128c-1.59.74-3.29 1.44-5.08 2.103l-.42.157m1.79-5.9c-.12.67-.25 1.34-.393 2-.217 1.05-.458 2.1-.717 3.15 1.52-.578 2.968-1.18 4.34-1.8-.97-1.09-2.05-2.21-3.23-3.35m5.34 2.86l-.12-.14c-1.57-1.79-3.32-3.586-5.16-5.31l-.09-.083.02-.122c.222-1.542.4-3.08.53-4.58l.01-.182.182-.03c1.068-.165 2.1-.3 3.09-.395l.2-.02.05.2.03.125c.4 1.27 1.58 2.09 2.84 2.09.29 0 .58-.043.87-.13 1.05-.322 1.79-1.17 2.02-2.17l.05-.2.2.022c.6.063 1.16.143 1.67.25.88.184 1.61.434 2.16.75.54.316.93.7 1.07 1.167.04.134.06.278.06.432 0 .657-.36 1.464-1.17 2.423-.82.957-2.09 2.07-3.97 3.312-1.3.85-2.77 1.7-4.38 2.51l-.162.08m-4.87-5.707c1.77 1.665 3.46 3.397 4.98 5.127 1.53-.78 2.933-1.59 4.183-2.4 1.85-1.225 3.09-2.314 3.858-3.224.78-.91 1.07-1.646 1.063-2.12 0-.112-.01-.208-.04-.295-.092-.306-.37-.62-.852-.897-.49-.28-1.17-.52-2.02-.697-.44-.09-.92-.164-1.42-.22-.32 1.066-1.15 1.96-2.29 2.307-.34.103-.67.153-1.01.153-1.45 0-2.802-.93-3.272-2.377-.87.085-1.76.203-2.68.344-.128 1.412-.288 2.852-.497 4.3m-1.79-.997l-.33-.293c-.33-.29-.648-.572-.98-.85v-.003c-.51-.43-1.01-.85-1.52-1.266l.15-.184.05.23-.05-.23-.15.185-.37-.305.47-.104c.95-.217 1.892-.415 2.82-.587l.3-.058-.02.31c-.08.876-.19 1.783-.31 2.717l-.06.44m-1.01-1.5c.22.185.437.374.66.563.08-.666.16-1.32.22-1.953-.67.13-1.352.27-2.03.42.38.32.77.642 1.15.97m-5.46-1.874v-.036l.04.024-.04.012m1.82-.476l-.09-.067c-.58-.442-1.15-.87-1.73-1.285v-.58c.64.458 1.28.932 1.92 1.423 1.568-.385 3.11-.716 4.61-.985.06-1.052.09-2.052.09-2.997 0-4.753-.74-8.11-1.73-9.554-.32-.482-.66-.737-.98-.8l.05-.23.052-.23c.48.104.91.46 1.27.997.37.54.69 1.275.95 2.195.53 1.84.85 4.422.86 7.622 0 1.012-.04 2.08-.1 3.208l-.022.186-.18.03c-1.57.28-3.2.63-4.86 1.04l-.11.028m-1.82-11.54v-.824c.688-.965 1.36-1.702 1.98-2.205.61-.49 1.19-.764 1.728-.767.1 0 .2.01.302.03l-.052.23-.05.228-.2-.02h-.01c-.37 0-.87.21-1.43.66-.562.454-1.19 1.14-1.84 2.048-.14.198-.288.406-.428.62"/><path fill="#FFF" d="M43.596 47.204c0 1.835 1.48 3.324 3.313 3.34v-6.68c-1.834.016-3.314 1.504-3.314 3.34z"/><path fill="#E8E8E8" d="M46.94 43.86c-.012 0-.022.003-.032.003v6.682l.03.002c1.848 0 3.345-1.495 3.345-3.343 0-1.847-1.497-3.344-3.344-3.344z"/></svg>