<svg xmlns="http://www.w3.org/2000/svg" width="93.641" height="93.219" viewBox="0 0 93.641 93.219"><path fill="#66ADF0" d="M91.644 46.62c0 24.63-20.068 44.602-44.826 44.602C22.066 91.222 2 71.25 2 46.62 2 21.97 22.066 2 46.817 2c24.758 0 44.827 19.97 44.827 44.62"/><path fill="#FFF" d="M76.316 73.09L58.74 55.51l17.576-1.12"/><path fill="#FFF" d="M76.316 55.28c0 4.34-3.517 7.858-7.853 7.858H25.176c-4.336 0-7.854-3.52-7.854-7.86V31.12c0-4.34 3.518-7.85 7.854-7.85h43.29c4.335 0 7.852 3.51 7.852 7.85l-.002 24.16"/><path fill="#66ADF0" d="M39.115 50.17c-.257 1.58-1.293 2.552-3.04 2.552-1.583 0-2.133-1.322-2.23-2.392-.677.75-2.065 2.43-4.04 2.46-1.844 0-3.848-.94-3.848-3.69 0-4.067 6.594-3.68 7.76-3.75 0 0 .1-1.06.1-2.317 0-1.722-.71-3.012-2.748-3.012-1.36 0-2.04.74-2.2 1.392.876 0 .906.96.906 1.4 0 1.26-1.16 1.57-1.686 1.57-.807 0-1.55-.87-1.55-1.78 0-1 .84-1.78 1.486-2.26 1.164-.88 2.556-.9 3.332-.9 2.472 0 5.074 1.61 5.074 4.55 0 1.98-.133 3.92-.133 5.6 0 .94.065 2.1.974 2.1.84 0 1.097-.608 1.355-1.81l.485.288zm-5.398-4.37c-2.977.33-5.045.2-5.045 2.95 0 1.95 1.132 2.62 2.396 2.62 1.332 0 2.23-1.07 2.648-1.85V45.8zM48.75 52.82c-1.745 0-3.07-1.23-4.074-2.33-.71.78-.905 1.49-1.39 2.23-.185.04-.347.04-.48.04-.27 0-.426-.04-.426-.04.052-2.54.084-6.32.084-10.08 0-3.27-.026-6.53-.084-8.96 0-.45-1.26-.61-2.296-.68v-.39c2.238-.12 4.057-.53 4.95-.93l-.137 10.47c.908-1.232 2.01-2.682 4.173-2.682 2.978 0 5.563 1.87 5.563 6.56.002 4.302-3.103 6.792-5.882 6.792m-.39-12.38c-1.904 0-3.104 2.48-3.104 2.48l-.224 2.92.094 3.938s.78 1.88 2.94 1.88c2.104 0 3.593-2.398 3.593-5.728 0-2.23-.553-5.49-3.3-5.49M68.63 43.05c0 1.82-1.226 2.49-1.872 2.49-.582 0-1.777-.09-1.777-1.71 0-.93.663-1.64 1.327-1.64.55 0 .773.148 1.064.42-.225-.91-.84-2.662-3.718-2.662-2.035 0-3.587 2.812-3.587 6.53 0 2.65 1.586 5.43 3.88 5.43 2.844 0 3.49-2.16 3.846-3.128l.874.607c-.42 1.04-1.938 3.592-5.012 3.592-3.845 0-6.435-2.333-6.435-7.112 0-4.82 4.074-6.47 6.5-6.47 2.234 0 4.914 1.492 4.914 3.65"/><path fill="#5A9CD1" d="M47.67 89.21V63.14h18.7l9.946 9.95V31.12c0-4.34-3.516-7.85-7.852-7.85H47.67V4.01h.002c10.058.2 19.253 3.84 26.464 9.79h.002c.063.052.127.11.19.16.064.052.128.11.19.16h.003c.064.062.126.11.188.16.002 0 .004 0 .007.01.06.05.122.1.185.15 0 .01.003.01.005.01.062.05.123.11.184.16h.007c.062.06.12.11.18.16.003.01.005.01.007.01.063.05.12.11.185.16.062.06.12.11.184.17 0 0 .005 0 .007.01.064.05.12.102.18.16 0 0 .01 0 .01.01.06.05.114.1.175.16.004 0 .01.01.015.01.06.052.112.11.168.16.004 0 .008.01.016.01.055.05.11.11.168.16.004 0 .01.01.014.01.056.06.11.11.166.16.01.01.02.02.033.03.05.05.1.1.146.15.01.01.022.01.03.02.05.05.1.102.15.15.06.06.118.12.18.18 7.75 7.72 12.538 18.36 12.538 30.13 0 11.76-4.787 22.4-12.54 30.12-.117.12-.234.23-.353.35h-.005c-.055.05-.104.102-.158.15l-.023.03c-.056.05-.113.1-.17.16-.003 0-.007 0-.01.01-.058.05-.114.1-.17.16-.007 0-.01.01-.015.01-.056.05-.113.11-.17.16-.006 0-.01.012-.013.012-.06.05-.118.107-.174.158-.004 0-.01.01-.012.01-.057.05-.11.1-.168.148-.006.012-.014.012-.02.02-.056.052-.115.104-.173.163-.004 0-.006 0-.012.01-.057.05-.113.1-.172.15-.005 0-.01.01-.016.01l-.17.15c-.006.01-.015.02-.02.02-.058.05-.11.102-.167.15-.008 0-.016.01-.02.02-.06.04-.113.09-.17.14-.007.01-.017.01-.023.02-.054.052-.107.09-.166.142-.008.01-.017.02-.023.02-.057.052-.112.1-.168.142-.01.01-.018.02-.026.02-.053.052-.106.1-.16.142l-.034.03c-.055.038-.107.09-.164.13-.008.01-.02.02-.027.027-.057.04-.11.092-.164.133-.01.01-.02.02-.033.02-.052.05-.107.09-.164.14-.01 0-.02.012-.03.02-.056.05-.108.09-.163.13-.012.01-.023.02-.037.03-.055.04-.107.08-.16.13-.014.01-.026.02-.037.02-.055.05-.106.09-.16.128-.014.012-.028.02-.04.03l-.162.12c-.013.012-.025.022-.04.032-.05.04-.103.078-.157.12-.015.01-.03.02-.045.038-.054.04-.105.08-.16.108-.014.01-.025.02-.04.03l-.16.12c-.015.01-.03.03-.046.04-.053.03-.104.07-.156.108-.018.012-.033.02-.05.04-.052.03-.105.07-.15.11-.022.012-.04.022-.06.04-.05.03-.102.07-.15.1-.02.022-.036.03-.053.042-.053.04-.102.07-.15.108-.022.01-.043.03-.064.04-.05.03-.096.07-.145.102-.023.02-.046.028-.068.05l-.14.09c-.022.02-.047.028-.073.05-.045.03-.092.062-.138.09-.028.02-.052.04-.075.05l-.138.09c-.028.02-.058.04-.084.062-.043.03-.084.05-.127.08l-.097.06c-.037.03-.076.05-.115.08l-.102.06c-.04.03-.075.052-.113.08-.037.02-.076.04-.113.07l-.1.062-.15.09c-.02.02-.042.03-.063.05-4.668 2.89-9.937 4.92-15.58 5.86h-.016c-.08.01-.162.02-.242.04H53.6c-.077.01-.152.03-.228.04h-.052c-.07.01-.14.02-.21.04h-.057c-.07.01-.137.02-.203.027-.022.01-.045.01-.067.01-.063.013-.13.022-.192.03-.023 0-.05 0-.074.012-.06.01-.12.01-.18.02-.03.01-.063.01-.096.01-.054.01-.106.02-.162.02-.035.01-.07.01-.104.02-.05 0-.1.012-.147.012-.043.01-.086.01-.13.02-.038 0-.077.01-.116.01-.052.01-.102.01-.15.02-.032 0-.064 0-.095.01-.062 0-.123.01-.184.022h-.058c-.07.01-.142.02-.21.02-.012 0-.023 0-.033.008-1.048.09-2.11.15-3.18.17"/><path fill="#D8D8D8" d="M76.316 73.09l-9.944-9.95h2.093c4.336 0 7.853-3.52 7.853-7.857l-.002 17.807"/><path fill="#D8D8D8" d="M68.465 63.14H47.672V52.66c.338.1.7.16 1.08.16 2.777 0 5.883-2.49 5.883-6.79 0-4.69-2.586-6.56-5.563-6.56-.524 0-.987.078-1.4.228V23.27h20.795c4.337 0 7.853 3.51 7.853 7.85v24.16c-.004 4.34-3.52 7.86-7.855 7.86M63.72 39.4c-2.427 0-6.5 1.65-6.5 6.47 0 4.78 2.587 7.11 6.433 7.11 3.072 0 4.593-2.55 5.013-3.59l-.873-.608c-.355.97-1.002 3.13-3.847 3.13-2.295 0-3.88-2.782-3.88-5.43 0-3.72 1.553-6.532 3.587-6.532 2.88 0 3.492 1.75 3.72 2.66-.29-.27-.517-.42-1.066-.42-.664 0-1.326.712-1.326 1.642 0 1.62 1.198 1.71 1.78 1.71.645 0 1.872-.67 1.872-2.49 0-2.16-2.68-3.652-4.913-3.652M48.067 51.66c-.14 0-.27-.01-.397-.03V40.55c.218-.068.448-.11.69-.11 2.747 0 3.3 3.26 3.3 5.492 0 3.328-1.487 5.728-3.592 5.728"/><path fill="#8CB0D1" d="M48.75 52.82c-.38 0-.738-.062-1.08-.16v-1.03c.128.022.262.03.398.03 2.104 0 3.592-2.4 3.592-5.73 0-2.23-.553-5.49-3.3-5.49-.243 0-.473.04-.69.11v-.85c.412-.15.876-.23 1.4-.23 2.98 0 5.564 1.87 5.564 6.563.002 4.297-3.105 6.787-5.884 6.787M63.652 52.98c-3.846 0-6.435-2.332-6.435-7.11 0-4.82 4.075-6.47 6.5-6.47 2.233 0 4.913 1.49 4.913 3.648 0 1.82-1.228 2.49-1.874 2.49-.582 0-1.778-.09-1.778-1.71 0-.93.662-1.64 1.326-1.64.55 0 .775.15 1.066.42-.228-.91-.84-2.66-3.72-2.66-2.034 0-3.588 2.81-3.588 6.53 0 2.65 1.586 5.43 3.88 5.43 2.846 0 3.49-2.16 3.848-3.13l.873.608c-.418 1.044-1.938 3.594-5.01 3.594"/></svg>