<svg xmlns="http://www.w3.org/2000/svg" width="93.641" height="93.219" viewBox="0 0 93.641 93.219"><path fill="#A8A3F0" d="M91.644 46.62c0 24.63-20.067 44.602-44.826 44.602C22.068 91.222 2 71.25 2 46.622 2 21.97 22.067 2 46.817 2c24.76 0 44.827 19.97 44.827 44.62"/><path fill="#FFF" d="M22.075 65.1H75.33v3.12H22.076zM55.465 22.04v41.05c0 .33.927.59 2.07.59h9.66c1.138 0 2.07-.26 2.07-.59V22.04c0-.33-.934-.59-2.07-.59h-9.66c-1.144 0-2.07.26-2.07.59m1.32 35.49l.15-.24h10.333l.15.24v1.14l-.15.24H56.935l-.148-.24v-1.14m0-25.06l.147-.237h10.334l.15.238v1.14l-.15.25H56.935l-.148-.25v-1.14m0-5.01l.147-.238h10.334l.15.238v1.14l-.15.24H56.935l-.148-.24v-1.14M39.938 22.04v41.05c0 .33.926.59 2.066.59h9.664c1.14 0 2.07-.26 2.07-.59V22.04c0-.33-.932-.59-2.07-.59h-9.664c-1.14 0-2.066.26-2.066.59m1.32 35.49l.148-.24H51.74l.15.24v1.14l-.15.24H41.407l-.15-.24v-1.14m0-25.06l.15-.237H51.74l.15.238v1.14l-.15.25H41.407l-.15-.25v-1.14m0-5.01l.15-.238H51.74l.15.238v1.14l-.15.24H41.407l-.15-.24v-1.14M23.428 22.04v41.05c0 .33.925.59 2.068.59h9.662c1.14 0 2.068-.26 2.068-.59V22.04c0-.33-.93-.59-2.068-.59h-9.662c-1.143 0-2.068.26-2.068.59m1.32 35.49l.15-.24H35.23l.15.24v1.14l-.15.24H24.898l-.148-.24v-1.14zm0-25.06l.15-.237H35.23l.15.238v1.14l-.15.25H24.898l-.148-.25v-1.14zm0-5.01l.15-.238H35.23l.15.238v1.14l-.15.24H24.898l-.148-.24v-1.14z"/><path fill="#FFF" d="M74.462 67.78v-.77H19.184c-.125 0-.246.09-.334.23-.087.14-.137.34-.137.54v3.238c0 .2.05.4.137.54.088.142.21.222.334.222H74.46c.124 0 .245-.08.333-.22.086-.143.136-.34.136-.542V67.78c0-.2-.05-.4-.137-.54-.088-.142-.21-.23-.332-.23v.77h-.47v2.48H19.65v-1.722h54.81v-.757h-.47.472"/><path fill="#8585C1" d="M47.513 89.22V71.78H74.46c.124 0 .245-.08.334-.22.085-.142.136-.34.136-.54v-2.8h.4V65.1H47.513v-1.42h4.155c1.14 0 2.07-.26 2.07-.59V22.04c0-.33-.932-.59-2.07-.59h-4.155V4.01h.16c5.114.1 10.007 1.09 14.524 2.817.006.01.014.01.02.01.068.03.138.05.208.08.012.01.024.01.036.02.064.02.128.05.192.07.018.01.033.01.05.02.063.03.124.05.186.07l.055.03c.06.02.117.038.178.07l.065.028.164.06c.023.012.05.022.075.04.053.02.104.04.155.062.027.01.057.02.082.04.05.02.103.04.15.06.03.01.06.03.088.04.05.022.096.04.144.06.032.012.063.03.098.04l.133.062c.035.02.07.03.105.05l.127.062c.034.01.07.028.108.05.04.01.082.03.123.05.037.02.074.04.11.05.04.02.08.04.12.062.038.02.078.04.117.05l.11.06c.043.022.086.04.127.06.033.012.066.03.1.042.047.028.093.05.138.07.03.02.063.03.096.05.047.02.094.04.14.068.028.01.06.02.086.04.05.02.102.05.153.07.023.02.05.03.072.04.055.03.108.06.162.08.02.01.042.02.064.04.058.02.113.05.17.08l.056.03c.063.03.12.06.182.1.016 0 .03.01.045.02.063.03.125.07.188.102.014.01.025.01.04.02.066.04.134.07.2.11.008 0 .016.01.022.01l.213.12h.012c1.66.91 3.256 1.93 4.77 3.05h.005l.203.15h.002l.203.15c.002 0 .002.01.004.01.066.05.134.1.198.15h.006c.065.048.133.1.198.147 0 .01.005.01.007.01l.19.15c.005 0 .01.01.014.01l.188.15c.004 0 .01 0 .014.01.062.05.123.1.187.15.006 0 .01 0 .016.01l.182.15c.006 0 .012.01.018.01l.186.15c.003 0 .007.01.013.01.06.05.12.1.183.15.005.01.012.01.015.01.063.05.122.11.184.16.004 0 .008 0 .014.01.062.05.12.1.18.15.007.01.01.01.02.01.06.06.116.107.176.158.007 0 .012.01.018.01.06.05.12.1.178.16.006 0 .01 0 .016.012.058.05.115.1.176.15.005.01.01.01.02.02l.17.15c.007.01.015.01.02.02l.17.15c.006.01.014.01.02.02.06.05.115.1.172.16.008 0 .014.01.02.01.056.05.114.11.17.16.007.01.013.01.017.01.058.06.112.11.17.16.007.01.013.01.018.02.057.05.113.11.168.16.006 0 .014.01.02.01.06.06.115.12.176.17.003 0 .006.01.01.01.058.062.116.11.175.17.002 0 .004.012.008.012.06.05.11.108.168.16.006.01.013.01.018.02l.182.18c7.75 7.71 12.537 18.36 12.54 30.13-.02 11.754-4.808 22.393-12.558 30.113-.105.11-.215.21-.322.32-.012.01-.023.02-.035.028-.05.052-.1.1-.147.142-.012.01-.02.028-.033.04-.057.05-.11.1-.17.16-.002 0-.006 0-.01.01-.058.05-.115.11-.172.16-.004 0-.007.01-.01.01-.058.05-.115.11-.173.16-.004 0-.008.01-.012.01-.06.06-.12.11-.18.17h-.004c-.06.05-.12.11-.18.16 0 0-.003.01-.007.01-.122.11-.245.22-.37.33-.063.06-.125.11-.188.17-.064.05-.126.11-.19.16-2.65 2.29-5.58 4.26-8.74 5.86h-.01c-.07.04-.14.07-.21.108-.008 0-.014 0-.02.01-.067.03-.133.062-.2.1-.01 0-.02.013-.03.013-.065.03-.132.07-.194.102-.014 0-.024.01-.035.01l-.188.09-.045.03c-.062.02-.12.05-.182.08-.02.01-.035.02-.052.02l-.174.09c-.02.01-.04.01-.063.02-.06.03-.114.062-.17.08l-.064.03c-.055.028-.11.05-.166.07-.024.02-.05.028-.074.04-.053.02-.104.04-.155.068l-.076.03c-.053.02-.104.05-.155.07-.028.01-.06.02-.087.04l-.15.06-.082.03c-.05.028-.1.05-.15.07-.03.01-.06.02-.09.038l-.145.06c-.03.012-.063.022-.094.042-.045.01-.094.03-.143.05-.033.02-.067.03-.104.04l-.133.06c-.035.012-.07.03-.105.04-.043.02-.09.04-.135.052-.037.02-.072.03-.11.05-.042.01-.083.028-.126.04-.04.02-.078.03-.117.05-.04.02-.082.028-.123.05-.04.01-.08.03-.123.04-.04.02-.077.03-.117.05-.04.01-.083.03-.125.04-.04.02-.078.03-.117.05-.042.01-.087.03-.13.04-.037.02-.074.03-.11.04-.05.02-.1.04-.147.052-.03.02-.063.03-.095.04-.055.02-.107.038-.164.05l-.08.03c-.06.02-.112.038-.17.06l-.075.03-.203.06c-.016.01-.028.01-.04.02-.748.24-1.503.472-2.27.68h-.01l-.24.063c-.01 0-.02.01-.03.01-.073.02-.15.04-.223.062-.016 0-.03.007-.043.007-.07.02-.142.03-.214.05-.014.01-.027.01-.043.01l-.21.063c-.02 0-.034 0-.052.01-.065.012-.135.03-.204.05-.02 0-.037.01-.057.01-.067.022-.135.03-.2.053-.02 0-.04.01-.062.01-.066.02-.13.03-.196.04-.02.01-.04.01-.063.02-.064.01-.13.03-.194.04-.022.01-.047.01-.068.02-.063.01-.123.02-.186.04-.027 0-.055.01-.082.01-.06.01-.115.03-.174.04-.03 0-.063.01-.092.02-.057.012-.11.022-.168.03-.03.01-.062.01-.09.02l-.17.03c-.03.012-.062.012-.095.02-.054.01-.107.02-.162.028-.033.012-.066.012-.1.022-.054.012-.105.02-.157.03-.036 0-.072.01-.106.02-.052.01-.102.01-.153.022-.034.01-.07.02-.108.02-.05.012-.1.02-.147.03-.04 0-.08.01-.12.02-.044 0-.09.01-.137.02-.04.01-.085.01-.125.022-.045.01-.09.01-.134.02-.047.01-.092.01-.137.02-.04.01-.082.01-.123.022-.047 0-.094.01-.14.02-.042 0-.08.01-.12.022-.05 0-.1.01-.15.02-.034 0-.07.01-.104.01-.054.01-.107.02-.162.02-.03.01-.063.01-.094.01-.058.013-.117.022-.175.032-.028 0-.055 0-.08.01-.063 0-.123.01-.186.02-.025 0-.05 0-.073.01-.067.01-.133.01-.2.02-.015 0-.03 0-.044.014-.075 0-.15.01-.225.02h-.024c-1.224.13-2.46.21-3.712.23-.052-.025-.107-.015-.16-.015m10.022-67.77c-1.145 0-2.07.262-2.07.592V63.09c0 .33.927.59 2.07.59h9.66c1.14 0 2.07-.26 2.07-.59V22.042c0-.33-.933-.59-2.07-.59h-9.66"/><path fill="#ADABD1" d="M73.99 70.26H47.514v-1.722h26.48l-.002 1.722zm-6.72-11.35H56.934l-.148-.24v-1.14l.148-.24H67.27l.148.24v1.14l-.15.24m-15.527 0h-4.228v-1.62h4.23l.15.24v1.14l-.15.24m15.527-25.05H56.934l-.148-.248v-1.14l.148-.24H67.27l.148.24v1.14l-.15.248m-15.527 0h-4.228v-1.63h4.23l.15.24v1.142l-.15.248m15.527-5.02H56.934l-.148-.24v-1.14l.148-.238H67.27l.148.238v1.14l-.15.24m-15.527 0h-4.228v-1.618h4.23l.15.238v1.14l-.15.24"/><path fill="#D8D8D8" d="M75.33 68.22h-.4v-.438c0-.2-.05-.4-.136-.54-.088-.142-.21-.23-.332-.23v.77-.772H47.514V65.1H75.33v3.12M67.194 63.68h-9.66c-1.145 0-2.07-.26-2.07-.59V22.04c0-.33.927-.59 2.07-.59h9.66c1.14 0 2.07.26 2.07.59V63.09c0 .33-.93.59-2.07.59m-10.26-6.39l-.146.24v1.14l.147.24H67.27l.147-.24v-1.14l-.148-.24H56.934m0-25.06l-.147.24v1.14l.147.25H67.27l.147-.25v-1.14l-.148-.24H56.934m0-5.01l-.147.24v1.14l.147.24H67.27l.147-.24v-1.14l-.148-.24H56.934M51.67 63.68h-4.156v-4.77h4.23l.15-.24v-1.14l-.15-.24h-4.23V33.86h4.23l.15-.248v-1.14l-.15-.24h-4.23V28.84h4.23l.15-.24v-1.14l-.15-.238h-4.23v-5.77h4.155c1.14 0 2.068.258 2.068.588v41.05c0 .33-.93.59-2.07.59"/><path fill="#D8D8D8" d="M74.462 71.78h-26.95v-1.52h26.48v-1.722h-26.48V67.01h26.95v.77-.77c.122 0 .243.09.33.23.087.14.137.34.137.54v3.238c0 .2-.05.4-.137.54-.087.143-.208.223-.33.223"/></svg>