<svg xmlns="http://www.w3.org/2000/svg" width="93.64" height="93.218" viewBox="0 0 93.64 93.218"><path fill="#857A91" d="M91.64 46.62c0 24.63-20.068 44.6-44.818 44.6C22.07 91.22 2 71.25 2 46.62 2 21.97 22.07 2 46.82 2s44.82 19.97 44.82 44.62"/><path fill="#FFF" d="M91.64 46.62h-2c0 11.76-4.78 22.4-12.54 30.12-7.75 7.71-18.448 12.48-30.278 12.48s-22.528-4.77-30.284-12.48C8.788 69.02 4.002 58.38 4.002 46.62c0-11.77 4.785-22.42 12.535-30.13C24.293 8.77 34.99 4 46.82 4S69.35 8.77 77.1 16.49c7.76 7.72 12.54 18.36 12.54 30.13h4C93.64 20.86 72.67 0 46.82 0S.003 20.86 0 46.62c.004 25.74 20.97 46.6 46.82 46.6S93.64 72.36 93.64 46.62h-2"/><path fill="#DEDEDE" d="M93.64 46.62h-4c0 11.76-4.78 22.4-12.54 30.12-7.56 7.53-17.93 12.25-29.43 12.47v4c25.46-.45 45.97-21.13 45.97-46.59M47.67.01v4c11.5.23 21.87 4.95 29.43 12.48 7.76 7.72 12.54 18.36 12.54 30.13h4C93.64 21.15 73.13.47 47.67.01"/><path fill="#FFF" d="M64.67 58.98c2.64 0 5.37 2.07 6.1 4.61l1.03 3.66c.72 2.54-.86 4.62-3.49 4.6l-42.94-.03c-2.633 0-4.23-2.08-3.545-4.62l.98-3.59c.684-2.56 3.408-4.63 6.042-4.63H64.67M68.86 21.37H24.79c-1.112 0-2.01.9-2.01 2.01v30.69c0 1.12.897 2.02 2.01 2.02h44.07c1.108 0 2.01-.9 2.01-2.02V23.38c0-1.11-.9-2.01-2.01-2.01m-2.01 30.69H26.8V25.39h40.05v26.67z"/><path fill="#6D6577" d="M46.82 89.22V71.84l21.488.01h.032c2.61 0 4.18-2.068 3.46-4.6l-1.03-3.66c-.73-2.54-3.462-4.61-6.1-4.61H46.82v-2.89h22.04c1.108 0 2.01-.9 2.01-2.018V23.38c0-1.11-.9-2.01-2.01-2.01H46.82V4c.29 0 .568.01.85.01 7.98.16 15.42 2.48 21.75 6.4.01.01.02.02.04.03.04.03.09.05.14.08.02.02.05.04.07.05.04.03.08.05.12.08.03.02.07.04.1.06.04.02.07.05.11.07.03.02.07.04.1.068.04.02.07.04.1.06.042.032.08.052.12.08.03.022.06.042.092.062.04.03.08.05.118.08.03.02.062.04.09.05.042.03.09.06.132.09.02.02.05.03.07.052.05.03.09.06.14.088.018.02.05.04.068.05.052.04.09.07.142.1.02.022.048.03.07.04l.14.11c.02.01.04.03.06.04.05.03.1.072.15.102.02.02.04.03.06.05.048.027.1.068.148.098.02.02.04.03.06.04.052.04.1.08.15.11.02.02.04.028.06.04.05.04.092.08.14.11.02.02.042.03.06.04.052.04.102.08.152.11.02.02.04.028.048.038.06.04.112.082.16.12.01.01.032.02.05.04.05.04.1.07.152.11.02.02.028.03.05.04l.148.12c.02.01.04.02.052.04.05.04.1.07.147.11.02.02.04.028.05.04.062.04.11.08.16.12.01.02.03.03.04.04.05.04.11.08.16.12.01.01.03.03.04.038.05.04.11.082.16.12l.04.04.16.13c.01.01.02.022.04.03.05.04.1.09.148.13.022.01.03.02.04.03l.16.13c.01.01.03.02.04.032.05.05.102.088.16.14l.032.03c.058.05.108.09.16.14.01.01.028.02.038.028.052.04.1.09.16.14.01.01.02.01.03.022.05.05.11.1.16.14l.03.03c.05.05.11.09.16.14l.03.028c.06.05.11.102.16.14.01.01.02.022.03.03.06.05.107.1.158.15.01.01.02.01.03.02.05.05.11.1.16.15l.03.03c.05.05.11.1.16.15.01.01.02.01.03.02.05.05.1.1.16.15.01.01.01.02.02.03.06.05.108.1.17.16 0 0 .01.01.02.01.05.06.11.11.16.16l.02.02c.06.05.11.11.17.16 0 .01.01.01.01.02l.18.18c7.76 7.72 12.54 18.36 12.54 30.13 0 11.76-4.78 22.4-12.54 30.12-.108.11-.22.222-.34.33 0 .01-.01.01-.01.02-.06.052-.11.1-.16.16-.01 0-.02.01-.02.01-.06.062-.12.122-.182.18-.058.052-.12.112-.18.17H76.2c-.062.062-.12.112-.18.173-5.19 4.82-11.59 8.37-18.69 10.15h-.01l-.23.06c-.01 0-.02 0-.03.01-.068.01-.14.032-.21.052-.02 0-.03 0-.05.01-.06.01-.13.03-.2.04-.02.01-.03.01-.05.02-.07.01-.13.03-.2.04-.02.01-.04.01-.06.02-.06.01-.12.02-.18.04-.03 0-.05.01-.08.01-.062.02-.12.03-.18.04-.02.01-.05.01-.07.02-.062.01-.13.02-.19.04-.02 0-.04.01-.07.01-.06.01-.12.03-.188.04-.02 0-.04.01-.062.01-.07.02-.13.03-.188.04-.022 0-.052.01-.08.01-.062.02-.12.03-.18.04-.022 0-.052.01-.07.01-.062.01-.12.03-.18.04-.03 0-.062.01-.08.01-.062.01-.12.02-.19.03-.022.01-.05.01-.072.02l-.18.03c-.03 0-.058.01-.08.01l-.19.03c-.02 0-.037.01-.068.01-.06.01-.12.02-.19.03-.02.01-.04.01-.07.01l-.19.03c-.018.01-.04.01-.06.01-.07.01-.14.02-.198.03-.02 0-.05.01-.07.01-.06.01-.13.02-.202.03-.02 0-.028 0-.05.01-.07.01-.14.02-.21.02-.02.01-.03.01-.048.01-.07.012-.15.02-.22.03h-.03l-.23.03h-.03c-1.4.17-2.81.27-4.24.29-.285.01-.565.01-.854.01"/><path fill="#D8D8D8" d="M46.82 93.22v-4c.29 0 .57 0 .85-.01v4c-.28.01-.56.01-.85.01m12.81-1.76l.01-.01-.01.01m.14-.04c0-.01.01-.01.01-.01s-.01 0-.01.01m.13-.04c.01-.01.02-.01.03-.01-.01 0-.02 0-.03.01m.14-.04c.01-.01.02-.01.04-.01-.01 0-.03 0-.04.01m.13-.04c.02-.01.03-.01.05-.02-.02.01-.03.01-.05.02m.14-.04c.02-.01.03-.01.05-.02-.01.01-.03.01-.05.02m.13-.04c.02-.01.05-.02.07-.02-.02 0-.05.01-.07.02m.14-.04c.02-.01.05-.02.07-.03-.02.01-.05.02-.07.03m.13-.04c.03-.01.06-.02.09-.028l-.09.03m.13-.052c.04-.01.07-.02.1-.03-.03.01-.06.02-.1.03m.13-.04l.11-.03-.11.03m.14-.04c.04-.01.07-.02.1-.03-.03.01-.06.02-.1.03m.13-.04c.04-.01.07-.03.11-.04-.04.02-.07.03-.11.04m.14-.05l.12-.03-.12.03m.13-.04c.04-.01.08-.03.12-.04-.04.01-.08.03-.12.04m.13-.04c16.97-5.64 29.63-20.69 31.7-38.93-2.07 18.25-14.72 33.29-31.7 38.93m-9.73-1.92h.03-.03m.26-.03h.03-.03m.25-.03c.02 0 .03 0 .05-.01-.02.01-.03.01-.05.01m.26-.03c.02-.01.03-.01.05-.01-.02 0-.03 0-.05.01m.25-.04c.02 0 .052-.01.07-.01-.02 0-.05.01-.07.01m.27-.04c.02 0 .04 0 .06-.01-.02.01-.04.01-.06.01m.25-.04c.03 0 .05 0 .07-.01-.02.01-.04.01-.07.01m.26-.04c.03 0 .05-.01.07-.01-.02 0-.04.01-.07.01m.26-.04c.02 0 .05-.01.08-.01-.03 0-.06.01-.08.01m.26-.04c.02-.01.05-.01.068-.02-.02.01-.048.01-.07.02m.262-.05c.02 0 .05-.01.08-.01-.03 0-.06.01-.08.01m.26-.05c.02 0 .05-.01.07-.01-.02 0-.05.01-.07.01m.25-.05c.03 0 .06-.01.08-.01-.02 0-.05.01-.08.01m.27-.05c.02 0 .042-.01.06-.01-.018 0-.04.01-.06.01m.25-.05c.03 0 .05-.01.07-.01-.02 0-.04.01-.07.01m.26-.05c.02-.01.05-.01.07-.02-.02.01-.05.01-.07.02m.25-.06c.03 0 .05-.012.08-.012-.03 0-.048.012-.08.012m.26-.05c.02-.01.04-.01.06-.02-.02.01-.04.01-.06.02m.26-.06c.02-.01.03-.01.05-.02-.02.01-.03.01-.05.02m.25-.06c.02-.01.03-.01.05-.01-.02 0-.03 0-.05.01m.26-.06c.01-.01.02-.01.03-.01-.01 0-.02 0-.03.01m.26-.07h.01-.01M76.2 77.61h.01-.01m.37-.35s.01-.01.02-.01c-.01 0-.02.01-.02.01m.18-.17c0-.01.01-.01.01-.02 0 .01-.01.01-.01.02m16.59-25.18c.02-.19.05-.38.062-.58-.012.2-.042.39-.062.58m.07-.59c0-.04.01-.09.01-.13-.01.04-.01.09-.01.13m.01-.14c0-.05.01-.088.01-.14 0 .052-.01.09-.01.14m.01-.15c.01-.04.01-.09.02-.14-.01.05-.01.1-.02.14m.02-.14c0-.038.01-.09.01-.14 0 .05-.01.102-.01.14m.01-.15c0-.04.01-.09.01-.13 0 .04-.01.09-.01.13m.01-.15c.01-.04.01-.09.01-.13 0 .04 0 .09-.01.13m.02-.14c0-.05 0-.09.01-.14-.01.05-.01.09-.01.14m.01-.15c0-.05 0-.09.01-.13-.01.04-.01.09-.01.13m.01-.15c0-.05.01-.08.01-.13 0 .04-.01.09-.01.13m.01-.15c0-.04.01-.08.01-.12 0 .04-.01.08-.01.12m.01-.15c0-.04.01-.078.01-.12 0 .04-.01.08-.01.12m.01-.15c0-.04.01-.08.01-.12 0 .04-.01.08-.01.12m.01-.15c0-.04.01-.07.01-.108 0 .038-.01.068-.01.11m.01-.142c0-.04 0-.08.01-.12-.01.04-.01.08-.01.12m.01-.16v-.11.11m.01-.15V49v.1m0-.15c.01-.03.01-.07.01-.1 0 .03 0 .07-.01.1m.01-.16c0-.03 0-.06.01-.09-.01.03-.01.06-.01.09m.01-.15v-.09.09m0-.14c.01-.03.01-.06.01-.09 0 .03 0 .06-.01.09m.01-.15v-.09.09m.01-.15v-.09.09m0-.15v-.09.09m0-.14c.01-.03.01-.06.01-.1 0 .042 0 .07-.01.1m.01-.18v-.06.06m0-.15v-.07.07m0-.12c.01-.04.01-.07.01-.1 0 .03 0 .07-.01.1m.01-.14v-.1.1m0-.19v-.06.06m0-.15v-.06.06m0-.12v-.24.24m0-.39v-.03.03m0-.15v-.12.12m0-.15v-.09.09m0-.15v-.07.07m0-.15v-.07.07m-.01-.15v-.09.09m0-.15v-.08.08m0-.15v-.06.06m-.01-.15v-.05.05m0-.15v-.07.07m-.01-.15v-.07.07m0-.14v-.08.08m-.01-.16v-.06.06m0-.14c-.01-.03-.01-.05-.01-.08 0 .03 0 .05.01.08m-.01-.15v-.08.08m-.01-.15v-.08.08m-.01-.15v-.09.09m0-.14c-.01-.03-.01-.07-.01-.1 0 .03 0 .07.01.1m-.01-.15c0-.03-.01-.06-.01-.1 0 .04.01.07.01.1m-.01-.14c0-.04-.01-.07-.01-.1 0 .03.01.06.01.1m-.01-.16c0-.03-.01-.05-.01-.08 0 .03.01.06.01.08m-.01-.14c0-.03-.01-.06-.01-.09 0 .03.01.06.01.09m-.01-.15c0-.03-.01-.05-.01-.08 0 .02.01.05.01.08m-.01-.15c-.01-.03-.01-.06-.01-.08 0 .02 0 .05.01.08m-.01-.15c-.01-.02-.01-.05-.01-.08 0 .03 0 .06.01.08m-.02-.14v-.08.08m-.01-.15v-.07.07m-.01-.15c0-.02-.01-.05-.01-.08 0 .03.01.06.01.08m-.01-.15c-.01-.02-.01-.05-.01-.07 0 .02 0 .05.01.07m-.02-.14c0-.03 0-.062-.01-.08.01.02.01.05.01.08m-.01-.14c0-.03-.01-.06-.01-.09 0 .03.01.06.01.09m-.02-.15c0-.03 0-.06-.01-.09.01.03.01.06.01.09m-.01-.14c0-.03-.01-.06-.01-.09 0 .03.01.06.01.09m-.02-.15c0-.03 0-.06-.01-.09.01.03.01.06.01.09m-.01-.15c-.01-.03-.01-.05-.01-.08 0 .02 0 .06.01.08m-.02-.14c0-.03-.01-.06-.01-.09 0 .03.01.06.01.09m-.02-.15c0-.03 0-.06-.01-.09.01.03.01.06.01.09m-.01-.14c-.01-.03-.01-.06-.01-.09 0 .03 0 .06.01.09m-.02-.15c0-.03-.01-.06-.01-.09 0 .03.01.06.01.09m-.02-.14c0-.03-.01-.06-.01-.1 0 .04.01.07.01.1m-.02-.15c0-.03-.01-.05-.01-.08 0 .03.01.06.01.08m-.02-.14c0-.03-.012-.06-.012-.09 0 .03.01.06.01.09m-.02-.14c0-.04 0-.06-.01-.1.01.03.01.07.01.1m-.018-.15c0-.03-.01-.06-.01-.09 0 .03.01.06.01.09m-.02-.14c0-.03-.01-.06-.01-.1 0 .04.01.07.01.1m-.02-.14c0-.04-.01-.07-.01-.1 0 .03.01.06.01.1m-.02-.15c0-.03-.01-.06-.01-.09 0 .03.01.06.01.09m-.02-.14c0-.04-.01-.07-.02-.1.01.03.01.06.02.1m-.02-.14c-.01-.04-.01-.07-.02-.1.01.03.01.06.02.1m-.02-.15c-.01-.03-.02-.07-.02-.1 0 .03.01.07.02.1m-.03-.14c0-.03-.01-.07-.01-.1 0 .03.01.07.01.1m-.02-.14c-.01-.04-.01-.07-.02-.11.01.04.01.07.02.11m-.02-.14c-.01-.04-.02-.07-.02-.11 0 .04.01.07.02.11m-.03-.15c0-.03-.01-.07-.02-.1.01.03.02.07.02.1m-.02-.14c-.01-.03-.02-.07-.02-.1.01.03.01.07.02.1m-.03-.14c0-.04-.01-.08-.02-.11.01.03.02.07.02.11m-.02-.13c-.01-.04-.02-.08-.02-.12 0 .04.01.08.02.12m-.03-.15c-.01-.04-.01-.08-.02-.12.01.04.01.08.02.12m-.02-.14l-.03-.12.03.12m-.03-.14c-.01-.04-.02-.08-.03-.13.01.05.02.09.03.13m-.03-.13c0-.04-.01-.09-.02-.13.01.04.02.09.02.13m-.02-.15c-.01-.04-.02-.08-.03-.13.01.05.02.09.03.13m-.03-.13l-.03-.14.03.14m-.03-.15l-.06-.27.06.27m-.06-.27C89.58 22.39 79.6 10.27 66.26 4.2c13.34 6.07 23.32 18.19 26.39 32.84M77.1 16.49l-.18-.18.18.18m-.19-.2c-.06-.05-.11-.108-.17-.16.05.05.11.11.17.16m-.19-.18c-.05-.05-.11-.1-.16-.16l.16.16m-.18-.17c-.06-.06-.11-.11-.17-.16.06.05.11.1.17.16m-.19-.19c-.06-.05-.11-.1-.16-.15.05.05.1.1.16.15m-.19-.17c-.05-.05-.11-.1-.16-.148.05.048.11.1.16.15m-.19-.182c-.05-.05-.11-.1-.16-.15.06.05.11.1.16.15m-.19-.17c-.05-.05-.1-.1-.16-.15.06.05.11.1.16.15m-.19-.18c-.05-.04-.1-.09-.16-.14.06.05.11.1.16.14m-.19-.17c-.05-.05-.11-.09-.16-.14.06.05.11.09.16.14m-.19-.17c-.05-.04-.11-.09-.16-.14.05.05.11.1.16.14m-.19-.16c-.06-.05-.11-.1-.16-.14.05.04.11.09.16.14m-.2-.17c-.05-.05-.1-.09-.16-.14.06.05.11.09.16.14m-.19-.17c-.06-.05-.11-.09-.16-.14.05.05.1.09.16.14m-.2-.17l-.16-.13.16.13m-.2-.16c-.05-.04-.102-.09-.15-.13.05.04.1.09.15.13m-.19-.16l-.16-.13c.05.04.11.08.16.13m-.2-.17c-.05-.04-.11-.08-.16-.12.05.04.11.08.16.12m-.2-.16c-.05-.04-.11-.08-.16-.12.06.04.11.08.16.12m-.2-.16c-.05-.04-.1-.08-.16-.12.06.04.11.08.16.12m-.21-.16c-.05-.04-.102-.07-.15-.11.05.04.1.07.15.11m-.2-.15l-.15-.12.15.12m-.2-.16c-.05-.04-.1-.07-.15-.11.05.04.1.07.15.11m-.2-.15c-.05-.04-.1-.08-.16-.12.06.04.11.08.16.12m-.21-.16c-.05-.03-.1-.07-.15-.11.05.04.1.08.15.11m-.21-.15c-.05-.03-.09-.07-.14-.11.05.04.1.08.14.11m-.2-.15c-.05-.03-.1-.07-.15-.11.05.04.1.08.15.11M71.8 12c-.05-.03-.1-.07-.148-.1.047.03.098.07.147.1m-.21-.15c-.05-.03-.1-.07-.15-.1.05.03.1.07.15.1m-.21-.14l-.14-.11.14.11m-.21-.15c-.05-.03-.09-.06-.14-.1.05.03.1.07.14.1m-.21-.15c-.05-.03-.09-.06-.14-.09.05.03.09.06.14.09m-.21-.14c-.04-.03-.09-.06-.13-.09.04.03.08.06.13.09m-.22-.14c-.04-.03-.08-.05-.12-.08.04.03.08.05.12.08m-.21-.14c-.04-.03-.08-.05-.12-.08.04.03.08.05.12.08m-.22-.14c-.03-.03-.07-.05-.1-.07.03.02.07.04.1.07m-.21-.14c-.03-.02-.07-.04-.1-.06.03.02.07.04.1.06m-.22-.14c-.02-.01-.05-.03-.07-.05.02.02.05.04.07.05m-.21-.13c-.02-.01-.03-.02-.04-.03.01.01.02.02.04.03m-3.23-6.25c-.03-.02-.07-.03-.1-.05.03.02.07.03.1.05m-.12-.06c-.04-.01-.07-.03-.1-.04.03.01.06.03.1.04m-.14-.06c-.03-.01-.06-.03-.09-.04.03.01.06.03.09.04m-.12-.06c-.04-.01-.07-.02-.1-.04.03.02.06.03.1.04m-18.18 0c-.28 0-.56-.01-.85-.01V0c.29 0 .57.01.85.01v4m18.05-.05c-.03-.02-.068-.03-.1-.04.03.01.06.02.1.04m-.13-.06c-.03-.01-.06-.02-.09-.04.03.02.06.03.09.04m-.14-.06c-.02-.01-.04-.02-.07-.03.03.01.05.02.07.03m-.13-.05l-.06-.03.06.03m-.13-.06l-.062-.03c.023.01.042.02.062.03m-.13-.06c-.02-.01-.04-.01-.07-.02.03.01.05.01.07.02m-.13-.05c-.02-.01-.04-.02-.07-.03.02.01.05.02.07.03m-.13-.06c-.02 0-.04-.01-.06-.02.02.01.04.02.06.02m-.14-.05c-.02-.01-.03-.02-.05-.02.02 0 .03.01.05.02m-.13-.06c-.02 0-.03-.01-.04-.01.01 0 .03.01.04.01m-.14-.05c-.01-.01-.02-.01-.03-.01.01 0 .02 0 .03.01m-.13-.05c-.01-.01-.02-.01-.03-.02.01.01.02.01.03.02m-.13-.06c-.01 0-.02-.01-.04-.01.02 0 .03.01.04.01M64 3.24c-.01 0-.02-.01-.03-.01.01 0 .02.01.03.01m-.14-.05c-.01 0-.02-.01-.02-.01s.01.01.02.01m-.13-.05c-.01-.01-.022-.01-.03-.01.01 0 .02 0 .03.01m-.14-.05c0-.01-.01-.01-.02-.01.01 0 .02 0 .02.01m-.13-.06h-.02.02m-.14-.05h-.01.01m-.13-.05h-.01.01m-.14-.05"/><path fill="#C8C8C8" d="M47.67 93.21v-4c1.43-.02 2.84-.12 4.24-.29h.03l.23-.03h.028l.22-.03c.022 0 .03 0 .05-.01.07 0 .14-.01.212-.02.02-.01.028-.01.05-.01l.2-.03c.02 0 .05-.01.07-.01l.198-.03c.02 0 .04 0 .062-.01l.188-.03c.03 0 .05 0 .07-.01.07-.01.13-.02.19-.03.03 0 .05-.01.07-.01l.19-.03c.02 0 .05-.01.08-.01l.18-.03c.02-.01.05-.01.07-.02l.19-.03c.02 0 .048-.01.08-.01.058-.01.12-.03.18-.04.02 0 .05-.01.07-.01.058-.01.12-.02.18-.04.028 0 .06-.01.08-.01.06-.01.118-.02.19-.04.018 0 .04-.01.06-.01.07-.012.128-.03.19-.04.028 0 .05-.01.07-.01.06-.02.128-.03.187-.042.02-.008.05-.008.07-.02.06-.01.12-.02.18-.037.032 0 .05-.01.08-.01.06-.02.122-.032.18-.042.02-.01.04-.01.062-.02.07-.01.13-.03.2-.04.02-.01.03-.01.05-.02.07-.01.14-.03.2-.04.02-.01.03-.01.05-.01.07-.02.14-.04.21-.05.01-.01.02-.01.03-.01.08-.02.15-.042.23-.062h.01c7.1-1.78 13.5-5.33 18.69-10.148.06-.06.118-.11.178-.172h.01c.062-.06.12-.12.18-.17l.182-.18s.01-.01.02-.01c.05-.06.1-.11.16-.16 0-.01.01-.01.01-.02.12-.11.23-.22.34-.33 7.76-7.72 12.54-18.36 12.54-30.12 0-11.77-4.78-22.41-12.54-30.13l-.18-.18c0-.01-.01-.01-.01-.02-.06-.05-.12-.11-.17-.16l-.02-.02c-.05-.052-.11-.112-.16-.16-.01 0-.022-.01-.022-.01-.06-.062-.108-.112-.17-.16-.01-.012-.01-.02-.02-.032-.06-.05-.11-.1-.16-.148-.01-.01-.02-.01-.03-.02-.05-.05-.11-.1-.16-.15l-.03-.03c-.05-.05-.1-.1-.16-.15-.01-.01-.02-.01-.03-.02-.05-.05-.098-.1-.16-.15-.01-.008-.018-.02-.027-.03-.052-.038-.1-.09-.16-.14l-.03-.03c-.05-.05-.1-.09-.16-.14-.01-.008-.02-.02-.03-.03-.05-.04-.11-.09-.16-.138-.01-.012-.02-.012-.03-.02-.05-.052-.11-.1-.16-.142-.01-.01-.03-.02-.04-.03-.05-.05-.1-.09-.16-.14-.01-.008-.02-.02-.03-.03-.06-.05-.108-.09-.16-.138-.01-.012-.028-.02-.038-.03-.052-.042-.1-.08-.16-.132-.01-.01-.02-.02-.04-.03-.05-.04-.102-.09-.15-.13-.02-.01-.03-.02-.04-.03-.05-.05-.11-.09-.16-.13l-.04-.04c-.05-.038-.11-.08-.16-.12l-.04-.04c-.05-.038-.1-.08-.16-.12-.01-.008-.03-.02-.04-.037-.05-.042-.1-.083-.16-.122-.01-.012-.03-.02-.05-.04-.05-.037-.1-.068-.15-.108-.01-.02-.03-.03-.05-.04l-.15-.12c-.02-.01-.03-.02-.05-.04-.05-.04-.1-.07-.15-.11-.02-.02-.04-.03-.05-.04-.05-.038-.1-.08-.16-.12-.01-.008-.03-.02-.05-.04-.05-.03-.1-.07-.15-.11-.02-.01-.04-.018-.06-.04l-.14-.108c-.02-.01-.04-.02-.06-.04-.052-.03-.1-.07-.15-.11-.02-.01-.04-.022-.06-.042-.05-.03-.1-.07-.15-.1-.02-.02-.04-.03-.06-.05-.05-.028-.1-.07-.15-.1-.02-.01-.04-.03-.06-.04l-.14-.11c-.02-.01-.05-.02-.07-.04-.04-.03-.09-.07-.14-.1-.02-.01-.05-.03-.07-.05-.05-.03-.09-.06-.14-.09-.02-.02-.05-.03-.07-.05-.05-.03-.09-.06-.13-.09-.03-.01-.06-.03-.09-.05-.04-.03-.08-.052-.12-.08-.03-.02-.06-.04-.09-.062-.04-.03-.08-.05-.12-.08-.03-.02-.06-.04-.1-.06-.03-.026-.07-.048-.1-.067-.04-.02-.07-.05-.11-.07-.03-.02-.07-.04-.1-.06-.04-.03-.08-.05-.12-.078-.02-.012-.05-.03-.07-.052-.05-.03-.1-.05-.14-.08-.02-.01-.03-.02-.04-.03-6.33-3.92-13.77-6.24-21.75-6.4v-4c5.4.1 10.57 1.1 15.38 2.87.04.02.09.03.13.05h.01c.04.02.08.03.12.052h.01c.04.018.08.03.12.05h.02c.03.02.07.028.11.048.01 0 .02 0 .02.01.04.01.08.022.11.04.01 0 .02 0 .03.01.03.01.07.022.11.042 0 0 .01.01.02.01.04.01.07.03.11.04.01 0 .02.01.03.01.028.01.06.03.09.04.02 0 .028.01.038.01.03.02.07.03.1.04.012.01.022.01.032.02.028.01.07.02.1.04.01 0 .02 0 .03.01.03.01.068.02.1.04.01 0 .02.01.04.01.03.02.05.032.08.04.02 0 .03.01.05.02.03.01.06.02.08.03s.04.02.06.02c.02.012.04.02.06.03.03.01.05.02.07.03l.06.03c.03.01.05.01.07.02.02.01.05.02.07.03l.06.03c.02.01.04.02.07.03l.06.03c.022 0 .04.01.06.02.03.01.052.02.07.03.02.008.04.02.05.02.03.02.06.028.09.038.01.01.02.01.03.02.03.01.07.022.1.04.01 0 .02.01.03.01.03.02.06.03.1.04.01.01.02.01.03.02.03.01.06.03.09.042.02.008.03.008.04.018.03.01.06.03.1.04 0 0 .01.01.02.01.03.02.07.03.1.05.012 0 .022.01.032.01 13.34 6.07 23.32 18.19 26.39 32.84l.06.27v.013c.01.05.02.088.03.14.01.05.02.09.03.13v.02c.01.04.02.09.02.13.01.05.02.09.03.13v.02l.03.12v.02c.01.042.01.08.02.12 0 .01 0 .02.01.03 0 .04.01.08.02.12v.02c.01.03.02.07.02.11 0 .01.01.02.01.04 0 .028.01.07.02.1v.04c.01.03.02.07.02.1 0 .02.01.03.01.04 0 .04.012.07.022.11v.03c.01.04.01.07.02.108 0 .013 0 .032.01.042 0 .03.01.07.01.1.01.01.01.03.01.04 0 .03.01.07.02.1v.05c.01.03.01.06.02.1v.04c.012.03.02.062.02.103 0 .008.01.03.01.05 0 .028.01.06.01.09 0 .02.012.03.012.05 0 .03.01.06.01.1.01.01.01.03.01.04 0 .04.01.07.01.1.012.01.012.03.012.05 0 .03.01.06.01.09.01.02.01.04.01.05.01.042.01.06.01.1.01.01.01.032.01.05 0 .03.01.06.01.09.01.022.01.04.01.06 0 .03.01.052.01.083 0 .02.012.04.012.05 0 .04.01.07.01.1 0 .02.01.028.01.05 0 .03.01.06.01.09 0 .02 0 .04.01.06 0 .03 0 .062.01.09v.05c.01.03.01.06.01.09.01.02.01.04.01.06 0 .03.01.06.01.09 0 .022.012.04.012.062 0 .03 0 .05.01.08v.05c.01.03.01.06.01.09 0 .022.01.04.01.06 0 .032.01.062.01.092v.05c.01.03.01.06.01.09.01.02.01.04.01.06 0 .03.01.06.01.09v.06c.012.022.012.05.012.08 0 .022.01.05.01.07s0 .05.01.07v.07c0 .03.01.06.01.08 0 .03 0 .05.01.08v.07c0 .02.01.05.01.07v.08c.01.02.01.04.01.06 0 .03 0 .06.01.08v.07c0 .02 0 .05.012.08v.07c0 .028.01.05.01.08v.06c0 .03.01.06.01.09v.06c0 .03.01.05.01.08v.06c0 .03.01.06.01.1v.04c0 .04.01.07.01.1v.05c0 .03 0 .07.01.102v.14c.01.03.01.05.01.07v.08c0 .03 0 .05.01.07V44.453c0 .028 0 .048.012.08v.14c0 .03 0 .05.01.078V44.972c0 .03.01.06.01.08V45.272c0 .03 0 .06.01.09v.362c0 .028 0 .05.01.08V47.363c0 .03 0 .06-.01.1V47.815c0 .04 0 .07-.01.1V48.207c-.01.02-.01.04-.01.06v.15c0 .03 0 .06-.01.09v.202c-.01.03-.01.06-.01.09v.058c0 .03 0 .07-.01.102v.14c0 .02 0 .03-.01.04v.15c-.012.04-.012.08-.012.12v.03c0 .042-.01.07-.01.11v.03c0 .04-.01.08-.01.12v.03c0 .038-.01.08-.01.118v.03c0 .04-.01.08-.01.12v.02c0 .053-.01.082-.01.13v.02c-.026.043-.026.082-.026.133v.01c-.01.052-.01.09-.01.142 0 0 0 .01-.01.01 0 .04 0 .09-.01.13v.02c0 .04-.012.09-.012.13v.01c0 .05-.01.1-.01.14-.01.05-.01.1-.02.14v.01c0 .05-.01.09-.01.142v.01c0 .04-.01.09-.01.13 0 .01 0 .01-.01.01-.01.2-.04.39-.06.58-2.07 18.24-14.73 33.29-31.7 38.93h-.012c-.038.01-.08.028-.118.04-.01 0-.01 0-.01.01l-.122.03c-.01.01-.02.01-.028.01-.04.01-.07.028-.11.04-.01 0-.02 0-.03.01-.03.01-.06.02-.1.03-.01 0-.02.01-.03.01l-.11.03c-.01.01-.02.01-.03.01-.03.01-.06.02-.1.03-.01.01-.03.01-.04.02l-.09.03c-.02 0-.04.01-.06.01-.02.01-.05.02-.07.03-.03 0-.05.01-.07.02-.02 0-.05.008-.07.02-.02.012-.05.012-.08.02-.02.01-.03.01-.05.02-.03.01-.06.02-.09.02-.02.01-.03.01-.05.02l-.09.03c-.02 0-.03 0-.04.01-.04.012-.08.02-.11.03-.01 0-.02 0-.03.01l-.12.03s-.01 0-.01.01l-.13.03-.01.01C55.82 92.53 51.81 93.14 47.67 93.208"/><path fill="#6D6577" d="M46.82 25.39h20.03v26.67H46.82z"/><path fill="#D8D8D8" d="M68.34 71.85h-.03l-21.49-.01V58.98h17.85c2.64 0 5.37 2.07 6.1 4.61l1.03 3.66c.72 2.53-.85 4.6-3.46 4.6M68.86 56.09H46.82v-4.03h20.03V25.39H46.82v-4.02h22.04c1.108 0 2.01.9 2.01 2.01v30.692c0 1.117-.9 2.018-2.01 2.018"/></svg>