<svg xmlns="http://www.w3.org/2000/svg" width="93.641" height="93.219" viewBox="0 0 93.641 93.219"><path fill="#F2C40D" d="M91.206 46.608c0 24.64-20.066 44.608-44.826 44.608-24.752 0-44.817-19.97-44.817-44.608C1.563 21.968 21.628 2 46.38 2c24.76 0 44.826 19.97 44.826 44.608"/><path fill="#FFF" d="M64.5 21.374H30.848c-4.656 0-8.414 3.758-8.414 8.414v33.65c0 4.66 3.758 8.42 8.414 8.42H64.5c4.652 0 8.412-3.76 8.412-8.42v-33.65c0-4.657-3.76-8.414-8.41-8.414M46.61 69.047H30.847c-3.084 0-5.61-2.52-5.61-5.608V47.35H46.61v21.697m0-24.222H25.235V29.788c0-3.084 2.527-5.606 5.61-5.606H46.61v20.643m23.498 18.613c0 3.09-2.523 5.608-5.607 5.608H49.27V47.348h20.84l-.002 16.09m0-18.613h-20.84V24.18H64.5c3.084 0 5.607 2.522 5.607 5.606v15.04"/><path fill="#FFF" d="M29.995 63.947c.11.11.336.22.506.22.17 0 .337-.05.505-.22l5.104-5.11 5.103 5.11c.113.11.338.22.507.22s.337-.05.505-.22c.28-.28.28-.73 0-1.01l-5.104-5.11 5.105-5.1c.28-.28.28-.73 0-1.012-.28-.278-.73-.278-1.012 0l-5.104 5.1-5.105-5.1c-.28-.278-.73-.278-1.01 0-.28.28-.28.73 0 1.013l5.104 5.1-5.105 5.11c-.28.28-.28.73 0 1.01"/><path fill="#FFF" d="M29.995 63.947l-.312.31c.107.11.226.182.357.24.134.06.277.11.46.11.266.01.583-.11.815-.35l4.79-4.792 4.792 4.79c.108.11.227.182.36.24.134.06.275.11.457.11.267.01.585-.11.818-.35.226-.222.34-.522.34-.82 0-.29-.114-.59-.34-.812l-4.79-4.8 4.79-4.79c.226-.22.34-.52.34-.81 0-.3-.114-.602-.34-.82-.225-.228-.52-.34-.818-.34-.295 0-.594.11-.817.34l-4.79 4.79-4.792-4.79c-.225-.228-.52-.34-.816-.34-.298 0-.595.11-.817.34-.227.22-.343.522-.342.82 0 .29.116.59.34.81l4.792 4.79-4.79 4.8c-.226.222-.342.52-.34.812-.002.3.114.6.34.82l.313-.308.313-.31-.08-.2.08-.19 5.418-5.42-5.418-5.41-.08-.187.08-.2.192-.08.19.08 5.417 5.42 5.418-5.42.19-.08.19.08.083.2-.082.188-5.416 5.41 5.416 5.42.082.19-.082.198c-.103.092-.12.08-.19.092h-.002l-.19-.103v.01l-5.417-5.42-5.418 5.42c-.104.093-.122.08-.19.093h-.002l-.19-.103v.01l-.313.312zM29.784 34.465c0 .395.338.73.73.73h4.936v4.88c0 .392.336.728.73.728.39 0 .728-.337.728-.73V35.14h4.767c.393 0 .73-.337.73-.73s-.34-.728-.73-.728H36.74v-4.824c0-.393-.338-.73-.73-.73-.394 0-.728.34-.728.73v4.937h-4.824c-.393 0-.674.28-.674.672"/><path fill="#FFF" d="M29.784 34.465h-.44c.008.648.522 1.163 1.17 1.174h4.493v4.436c.01.648.525 1.162 1.174 1.172.647-.01 1.163-.52 1.172-1.172v-4.493h4.324c.647-.01 1.163-.522 1.173-1.17-.01-.648-.525-1.165-1.174-1.175h-4.492v-4.38c-.01-.647-.523-1.163-1.17-1.17-.65.007-1.166.52-1.175 1.17v4.493h-4.382c-.3 0-.592.112-.797.318-.206.205-.32.496-.317.797h.884c.002-.092.027-.137.06-.17.032-.03.08-.06.17-.06h5.268v-5.38l.088-.197.2-.088.197.088.088.198v5.267h5.378l.198.09.09.197-.09.198-.198.087h-5.21v5.38l-.088.198-.197.088-.2-.087-.087-.2v-5.32h-5.378l-.198-.09-.088-.198h-.446zM64.5 33.737H53.28c-.39 0-.726.336-.726.73 0 .393.336.728.726.728H64.5c.394 0 .73-.337.73-.73 0-.39-.337-.728-.73-.728"/><path fill="#FFF" d="M64.5 33.737v-.443H53.28c-.646.01-1.162.524-1.172 1.172.01.648.524 1.162 1.172 1.175H64.5c.647-.01 1.163-.526 1.17-1.174-.007-.646-.52-1.162-1.17-1.172v.886l.198.088.088.196-.088.2-.197.087H53.28l-.197-.087-.088-.2.088-.195.197-.088H64.5v-.443M53.28 55.758H64.5c.393 0 .73-.34.73-.73s-.338-.73-.73-.73H53.28c-.39 0-.727.342-.727.73s.337.73.727.73"/><path fill="#FFF" d="M53.28 55.758v.44H64.5c.647-.01 1.16-.52 1.17-1.17-.006-.65-.52-1.16-1.17-1.17H53.28c-.646.01-1.162.52-1.172 1.17.01.65.524 1.16 1.172 1.17v-.88l-.197-.088-.088-.2.088-.2.197-.09H64.5l.198.09.088.2-.088.2-.197.088H53.28v.44M53.28 61.367H64.5c.393 0 .73-.34.73-.73 0-.39-.338-.728-.73-.728H53.28c-.39 0-.727.337-.727.728 0 .39.337.73.727.73"/><path fill="#FFF" d="M53.28 61.367v.44H64.5c.647-.012 1.164-.52 1.17-1.17-.006-.65-.52-1.16-1.17-1.172H53.28c-.646.013-1.162.52-1.172 1.17.01.65.524 1.16 1.172 1.173v-.88l-.197-.09-.088-.2.088-.2.197-.09H64.5l.198.09.088.2-.088.2-.197.09H53.28v.44"/><path fill="#DFBF3F" d="M47.67 89.207v-17.35H64.5c4.653 0 8.413-3.76 8.413-8.42v-33.65c0-4.656-3.76-8.414-8.412-8.414H47.67V4.007h.003c1.074.022 2.14.08 3.193.182h.012l.218.02.06.005c.062.01.122.015.187.02l.082.008c.06.006.112.01.168.02.035.004.068.01.103.012.053.007.104.012.154.017l.116.015.132.016.144.018.108.017c.053.005.106.013.16.02.032.004.064.008.097.014.06.01.116.018.175.023l.08.012c.063.01.127.02.19.026.02.005.044.01.065.01l.207.032.05.007c.072.01.146.022.22.034.015 0 .025.003.038.007.078.01.154.025.23.038l.03.003c.08.016.16.03.24.043l.016.002c8.1 1.39 15.414 5.04 21.275 10.277.002 0 .002.002.005.004.062.053.122.11.184.164l.008.006.185.168c.002.004.005.004.007.006.06.056.12.11.18.168.003 0 .005.002.007.005l.177.165c.005.003.01.007.014.012l.174.163.012.014c.06.055.118.11.176.166.005.004.007.008.012.01.058.056.115.113.176.17 0 .002.003.004.007.008l.168.165.017.016.183.182c7.75 7.717 12.537 18.355 12.54 30.125C89.646 58.38 84.86 69.02 77.11 76.74l-.183.18c-.007 0-.014.012-.02.012-.053.06-.108.108-.164.16-.007.01-.012.02-.02.02-.057.06-.11.11-.164.16-.006.01-.01.01-.015.01-.06.06-.114.11-.172.17-.008 0-.015.01-.02.02l-.167.15c-.007.01-.01.01-.018.02-.057.052-.11.1-.17.16-.008 0-.014.01-.02.02-.058.052-.114.103-.17.15-.006.013-.01.013-.015.013-.06.06-.116.108-.177.158-.005.012-.01.012-.012.02-.06.05-.12.103-.18.16-.004 0-.008 0-.012.012-.06.05-.12.1-.182.158-.002 0-.005 0-.01.012l-.376.33h-.005c-5.828 5.02-13.026 8.5-20.97 9.81h-.005c-.084.02-.168.03-.252.04-.007.01-.013.01-.02.01l-.235.03c-.014.012-.026.012-.04.012-.072.008-.144.018-.218.03-.018 0-.034.01-.05.01l-.208.028c-.022 0-.04.012-.063.012-.066.008-.133.02-.198.03h-.07c-.063.01-.12.02-.184.027-.03 0-.062.01-.092.01-.054.01-.11.01-.164.02-.035 0-.07.01-.104.01-.05.013-.1.013-.147.022-.042.01-.085.01-.128.01-.04.01-.078.01-.117.02-.052 0-.103.01-.153.01-.03.013-.062.013-.093.013-.062.007-.122.02-.185.02-.02.01-.038.01-.057.01-.07.01-.144.01-.214.02h-.027c-1.05.1-2.11.16-3.182.18"/><path fill="#E8E8E8" d="M47.67 89.207h.003v4h-.002v-4zm3.183-.18h.028-.027m.242-.02c.02 0 .036 0 .058-.01-.02.01-.04.01-.058.01m.24-.028c.03 0 .062 0 .093-.014-.032.013-.062.013-.093.013m.246-.023c.04-.01.08-.01.12-.02-.04.01-.08.01-.12.02m.247-.03c.05-.01.098-.01.146-.02-.048.01-.097.01-.146.02m.252-.03c.054-.01.11-.01.163-.02-.054.01-.11.01-.164.02m.255-.03l.183-.03-.183.03m.254-.03c.065-.01.13-.02.196-.027-.064.008-.13.018-.197.028m.26-.04l.208-.03-.21.03m.26-.042c.072-.01.144-.02.218-.026-.073.006-.147.016-.22.026m.26-.04c.08-.01.154-.02.234-.027-.08.007-.157.017-.234.027m.254-.04c.084-.012.168-.02.252-.04-.084.02-.168.03-.252.04m.256-.04c7.944-1.31 15.142-4.79 20.97-9.81-5.83 5.02-13.026 8.5-20.97 9.81m20.973-9.81l.376-.33-.377.33m.386-.34c.06-.06.12-.11.18-.16-.06.05-.118.1-.18.16m.193-.17c.06-.062.117-.11.178-.16-.062.05-.12.1-.18.16m.19-.18c.062-.05.118-.1.178-.158-.058.057-.12.108-.177.157m.188-.17c.06-.05.114-.1.17-.147l-.17.147m.19-.17c.06-.06.115-.108.17-.16-.055.05-.112.1-.17.16m.187-.18c.057-.05.11-.1.166-.15l-.165.15m.186-.17c.06-.06.116-.11.174-.17-.058.06-.115.11-.173.17m.186-.18c.056-.05.108-.1.164-.16-.055.06-.11.11-.164.16m.185-.18c.056-.05.11-.1.165-.158-.054.056-.11.107-.164.156m.183-.168l.184-.182c7.75-7.72 12.536-18.36 12.538-30.128-.002 11.77-4.788 22.41-12.538 30.128l-.184.182m.182-60.435c-.063-.062-.12-.122-.184-.182l.185.183m-.197-.195c-.058-.055-.112-.11-.168-.164.056.053.113.11.168.164m-.176-.173c-.06-.056-.117-.112-.177-.17l.177.17m-.186-.178c-.057-.057-.116-.113-.176-.167.06.054.118.11.176.167m-.187-.18c-.062-.056-.118-.108-.176-.165.058.056.116.11.175.164m-.187-.173c-.058-.056-.118-.108-.178-.166.06.056.12.11.178.166m-.183-.17l-.183-.17.183.17m-.188-.174l-.185-.17.185.17m-.19-.173c-.064-.057-.123-.113-.187-.168.064.056.125.108.186.167m-.187-.17C69.56 9.657 62.245 6.007 54.146 4.62c8.1 1.388 15.414 5.038 21.277 10.277m-21.29-10.28l-.243-.04.242.04m-.27-.045l-.232-.036c.076.01.154.024.23.036m-.27-.043l-.22-.036.22.035m-.267-.043l-.207-.03.207.03m-.273-.04l-.19-.028c.063.01.126.018.19.026m-.27-.038c-.06-.007-.118-.014-.178-.024.06.01.118.017.177.024m-.27-.037l-.162-.018c.052.005.106.012.16.02m-.27-.035c-.047-.006-.095-.01-.144-.018.05.006.097.01.145.017m-.276-.034l-.116-.015c.036.007.077.01.116.015m-.27-.03c-.035-.003-.068-.008-.104-.013.036.005.07.01.103.013m-.27-.03c-.026-.004-.056-.006-.082-.008l.083.007m-.27-.028c-.02 0-.038 0-.06-.005.02 0 .04.002.06.004m-.276-.025c-.004-.002-.008-.002-.01-.002h.01m-3.204-.18h-.002V.005h.003v4z"/><path fill="#DFBF3F" d="M64.5 69.047H49.27v-21.7h20.84v16.09c-.002 3.09-2.525 5.61-5.61 5.61m-11.22-7.68v.44H64.5c.647-.012 1.164-.52 1.17-1.17-.006-.65-.52-1.16-1.17-1.172H53.28c-.646.013-1.162.52-1.172 1.173.01.647.524 1.157 1.172 1.17v-.44m0-5.61v.44H64.5c.647-.01 1.16-.52 1.17-1.17-.006-.65-.52-1.16-1.17-1.17H53.28c-.646.01-1.162.52-1.172 1.17.01.65.524 1.16 1.172 1.17v-.44m16.828-10.933h-20.84V24.18H64.5c3.084 0 5.607 2.52 5.607 5.606v15.04M53.28 33.292c-.646.01-1.162.523-1.172 1.172.01.648.524 1.162 1.172 1.175H64.5c.647-.01 1.164-.526 1.17-1.175-.006-.647-.52-1.162-1.17-1.172v.443-.443H53.28"/><path fill="#E8E8E8" d="M64.5 71.857H47.67V21.374H64.5c4.653 0 8.413 3.758 8.413 8.414v33.65c0 4.66-3.76 8.42-8.413 8.42m-15.23-24.51v21.698H64.5c3.084 0 5.608-2.52 5.608-5.608v-16.09h-20.84m0-23.168v20.645h20.84V29.788c0-3.086-2.523-5.606-5.607-5.606l-15.23-.002"/><path fill="#E8E8E8" d="M64.5 34.752H53.28l-.197-.087-.088-.2.088-.197.197-.088H64.5v-.443.443l.198.088.088.197-.088.2"/><path fill="#E8E8E8" d="M64.5 35.64H53.28c-.646-.014-1.162-.525-1.172-1.176.01-.646.524-1.16 1.172-1.172H64.5v.887H53.28l-.197.086-.088.196.088.2.197.087H64.5l.198-.09.088-.198-.088-.196-.197-.087v-.888c.647.01 1.163.524 1.17 1.172-.007.65-.523 1.165-1.17 1.175M53.28 55.758v-.442l-.197-.087-.088-.203.088-.2.197-.09H64.5l.198.09.088.2-.088.202-.197.086H53.28"/><path fill="#E8E8E8" d="M64.5 56.197H53.28v-.88H64.5l.198-.087.088-.2-.088-.2-.197-.092H53.28l-.197.092-.088.2.088.2.197.088v.88c-.646-.01-1.162-.52-1.172-1.17.01-.65.524-1.16 1.172-1.17H64.5c.647.01 1.163.52 1.17 1.17-.01.65-.523 1.16-1.17 1.17M53.28 61.367v-.44l-.197-.09-.088-.2.088-.2.197-.09H64.5l.198.09.088.2-.088.2-.197.09H53.28"/><path fill="#E8E8E8" d="M64.5 61.807H53.28v-.877H64.5l.198-.09.088-.2-.088-.2-.197-.09H53.28l-.197.09-.088.2.088.2.197.09v.878c-.646-.012-1.162-.522-1.172-1.17.01-.65.524-1.16 1.172-1.172H64.5c.647.013 1.163.52 1.17 1.17-.007.65-.523 1.16-1.17 1.17"/></svg>