<svg xmlns="http://www.w3.org/2000/svg" width="93.64" height="93.218" viewBox="0 0 93.64 93.218"><path fill="#A3F073" d="M91.644 46.62c0 24.63-20.068 44.6-44.826 44.6C22.066 91.22 2 71.25 2 46.62 2 21.97 22.066 2 46.817 2c24.758 0 44.827 19.97 44.827 44.62"/><path fill="#FFF" d="M91.644 46.62H89.64c0 11.76-4.785 22.4-12.537 30.12-7.755 7.71-18.45 12.48-30.285 12.48-11.832 0-22.524-4.77-30.28-12.48C8.79 69.02 4 58.38 4 46.62c0-11.77 4.788-22.418 12.538-30.13C24.293 8.77 34.985 4 46.818 4 58.65 4 69.347 8.77 77.1 16.49c7.75 7.72 12.538 18.36 12.538 30.13h4.001C93.64 20.86 72.673 0 46.818 0 20.97 0 .002 20.86 0 46.62c.002 25.74 20.97 46.6 46.817 46.6 25.854 0 46.82-20.86 46.823-46.6h-1.996"/><path fill="#DEDEDE" d="M93.642 46.62h-4c0 11.76-4.787 22.4-12.54 30.12-7.568 7.53-17.936 12.25-29.43 12.47v4c25.46-.45 45.968-21.13 45.97-46.59M47.672.01v4c11.494.23 21.86 4.95 29.43 12.48 7.75 7.72 12.54 18.36 12.54 30.13h4c0-25.47-20.51-46.15-45.97-46.61"/><path fill="#FFF" d="M4.3 47.89h14.606c.715 0 1.316-.588 1.4-1.37l1.61-14.86c.183-.688.75-1.17 1.43-1.188.642 0 1.212.46 1.413 1.12l3.784 30.03.04.21c.513 2.05 2.222 3.48 4.228 3.48 1.968-.042 3.66-1.542 4.12-3.65l.03-.17 3.23-29.83c.183-.69.753-1.17 1.433-1.19.642 0 1.21.46 1.412 1.12l3.78 30.03.04.21c.518 2.05 2.227 3.48 4.23 3.48 1.968-.042 3.66-1.542 4.117-3.65l.03-.17 3.234-29.83c.18-.69.75-1.17 1.433-1.19.642 0 1.212.46 1.414 1.12l3.783 30.04.035.2c.518 2.05 2.228 3.48 4.228 3.48 1.97-.042 3.665-1.542 4.122-3.65l.03-.17 1.473-13.6H88.34c.78 0 1.413-.69 1.413-1.55 0-.87-.633-1.56-1.414-1.56H73.734c-.717 0-1.315.59-1.403 1.37l-1.61 14.858c-.18.69-.748 1.17-1.43 1.18-.64 0-1.212-.45-1.413-1.11l-3.783-30.028-.037-.212c-.52-2.05-2.228-3.48-4.235-3.48-1.966.04-3.658 1.54-4.115 3.65l-.028.17-3.238 29.83c-.182.69-.75 1.17-1.43 1.18-.64 0-1.21-.45-1.41-1.12L45.82 31.053l-.037-.21c-.517-2.05-2.226-3.48-4.234-3.48-1.968.04-3.658 1.54-4.117 3.64l-.03.18L34.17 61.01c-.18.69-.75 1.17-1.432 1.18-.64 0-1.21-.45-1.41-1.11l-3.785-30.038-.037-.2c-.518-2.05-2.227-3.48-4.233-3.48-1.968.04-3.66 1.54-4.118 3.64l-.03.18-1.47 13.59H4.298c-.777 0-1.413.7-1.413 1.56 0 .86.634 1.56 1.412 1.56"/><path fill="#7BB257" d="M47.513 89.22v-25.9c.8 1.22 2.108 1.99 3.578 1.99 1.968-.04 3.66-1.54 4.117-3.65l.03-.17 3.234-29.83c.18-.688.75-1.17 1.434-1.188.642 0 1.21.46 1.412 1.12L65.1 61.63l.035.2c.517 2.05 2.228 3.48 4.228 3.48 1.97-.042 3.664-1.542 4.12-3.65l.033-.17 1.472-13.6h13.354c.58 0 1.078-.38 1.297-.93C89.547 58.59 84.78 69.1 77.102 76.74c-5.07 5.04-11.4 8.83-18.48 10.84-.022.01-.042.02-.063.02-.053.02-.104.03-.157.04l-.097.03c-.043.01-.088.03-.133.038-.04.012-.08.02-.12.03-.042.01-.087.02-.13.042-.04.008-.082.02-.12.03-.044.01-.085.02-.128.028s-.086.02-.13.03l-.118.03c-.045.02-.093.03-.136.04l-.11.03-.146.03-.106.03c-.05.008-.1.02-.15.03-.032.01-.067.02-.103.028l-.15.03-.105.03-.153.03c-.034.01-.067.02-.1.02-.054.02-.105.03-.158.04-.036.01-.07.01-.105.02-.05.01-.1.02-.152.028-.036.012-.07.02-.108.03-.05.01-.1.02-.146.032-.04 0-.08.008-.12.018-.047.012-.094.02-.14.03-.038.01-.077.01-.114.02l-.147.03c-.04.01-.078.01-.117.02l-.142.03c-.038.01-.077.01-.116.02-.047.012-.094.02-.142.03-.04 0-.08.01-.122.02-.048.01-.093.01-.138.02-.04.01-.082.02-.123.02l-.14.032c-.042 0-.085.01-.128.02-.043 0-.084.01-.13.02-.042 0-.09.01-.134.02-.04.01-.082.01-.123.02-.048.01-.097.01-.146.02-.038.01-.077.01-.114.02-.05 0-.1.01-.147.022-.038 0-.078.008-.115.008-.05.012-.103.02-.154.03-.03 0-.064.01-.1.01-.055.01-.11.02-.167.02-.03.01-.06.01-.09.01l-.177.032c-.027 0-.052 0-.078.01-.063 0-.125.01-.187.02-.02 0-.048 0-.07.01-.066.01-.136.01-.2.02-.018 0-.03 0-.044.01-.076 0-.15.012-.226.02h-.024c-1.224.13-2.46.21-3.71.23-.057 0-.112.013-.163.013M69.29 62.19c-.64 0-1.21-.45-1.41-1.11l-3.783-30.03-.037-.21c-.52-2.05-2.228-3.48-4.235-3.48-1.967.04-3.658 1.54-4.115 3.65l-.028.17-3.24 29.83c-.18.69-.75 1.17-1.428 1.18-.64 0-1.21-.45-1.41-1.12l-2.092-16.588V4.012h.16c10.056.198 19.252 3.838 26.463 9.79h.002c.063.048.127.108.19.158h.002c.062.05.126.11.19.16.065.06.125.11.188.16.003 0 .005 0 .007.01l.183.15c.002.01.004.01.006.01.062.05.123.11.185.16h.005c.062.06.12.11.18.16.003.01.005.01.007.01.062.05.12.11.185.16.062.06.123.11.183.17h.008c.062.06.117.11.178.17.003 0 .01 0 .01.01.06.05.115.1.175.16.004 0 .01.01.016.01.058.05.112.1.168.16.004 0 .008.01.015.01.054.05.11.11.167.16.004 0 .01.01.013.01.057.06.112.11.166.16l.034.03c.05.05.1.1.147.15.01.01.02.01.03.02l.15.15.178.18c7.546 7.51 12.285 17.8 12.53 29.2-.225-.54-.717-.91-1.29-.91h-14.61c-.717 0-1.314.59-1.403 1.37l-1.61 14.86c-.18.69-.748 1.17-1.43 1.18"/><path fill="#D8D8D8" d="M47.513 93.22v-4c.053 0 .106-.01.16-.01v4c-.054 0-.108.01-.16.01m12.118-1.76c.005-.01.008-.01.014-.01-.006 0-.01 0-.013.01m.14-.04c.005-.01.01-.01.014-.01-.006 0-.01 0-.015.01m.135-.04c.007-.01.015-.01.022-.01-.01 0-.015 0-.022.01m.134-.04c.013-.01.023-.01.036-.01-.01 0-.025 0-.037.01m.13-.04c.02-.01.033-.01.052-.02-.02.01-.034.01-.052.02m.142-.04c.017-.01.032-.01.05-.02-.018.01-.034.01-.05.02m.13-.04c.02-.01.043-.02.063-.02-.02 0-.04.01-.063.02m.136-.04l.075-.03-.075.03m.127-.04l.092-.028-.092.03m.137-.052l.1-.03-.1.03m.132-.04l.103-.03-.103.03m.138-.04l.1-.03-.1.03m.132-.04c.034-.01.07-.03.104-.04-.035.02-.07.03-.104.04m.137-.05l.116-.03-.115.03m.126-.04c.043-.01.086-.03.127-.04-.043.01-.084.03-.127.04m.136-.04c16.974-5.64 29.627-20.69 31.7-38.93-2.073 18.25-14.727 33.29-31.7 38.93m-10.26-1.86h.026-.025m.25-.02c.015-.01.027-.01.043-.01-.014 0-.03 0-.043.01m.244-.03c.024-.01.05-.01.072-.01-.026 0-.05 0-.073.01m.258-.03c.027-.01.052-.01.078-.01-.026 0-.053 0-.078.01m.257-.04c.028 0 .06 0 .09-.01-.03.01-.06.01-.09.01m.255-.03c.035 0 .067-.01.1-.01-.032 0-.066.01-.1.01m.256-.04c.037 0 .076-.01.113-.01-.037 0-.076.01-.113.01m.26-.03c.038-.01.077-.01.115-.02-.038.01-.075.01-.114.02m.258-.04c.04-.01.084-.01.123-.02-.04.01-.082.01-.123.02m.26-.04c.044-.01.085-.02.128-.02-.043 0-.086.01-.13.02m.258-.04l.138-.03-.138.03m.26-.05c.046-.01.09-.01.138-.02-.047.01-.092.01-.137.02m.26-.04l.14-.03-.14.03m.257-.05l.144-.03-.143.03m.26-.05l.146-.03-.147.03m.26-.05l.14-.03-.14.03m.26-.05l.146-.03-.146.03m.254-.06l.153-.03-.153.03m.256-.05c.054-.01.106-.02.158-.04-.052.02-.104.03-.158.04m.26-.06l.152-.03-.153.03m.257-.06l.15-.03-.15.03m.256-.06l.147-.028-.147.03m.255-.062l.147-.03-.147.03m.258-.06c.044-.01.09-.02.136-.04-.045.02-.09.03-.135.04m.255-.07l.13-.03-.13.03m.256-.06c.04-.01.08-.02.122-.028-.04.01-.08.017-.12.03m.25-.072l.12-.03-.12.03m.254-.07l.098-.03-.098.03m.254-.07c.02 0 .04-.01.062-.02-.02.01-.042.02-.062.02m34.782-35.69c.023-.19.043-.38.063-.58-.02.2-.04.39-.063.58m.064-.59l.012-.13-.012.13m.014-.14l.013-.14c-.005.052-.01.09-.013.14m.015-.15l.013-.14c-.006.05-.01.1-.013.14m.012-.14l.012-.14-.013.14m.014-.15l.014-.13-.013.13m.014-.15l.012-.13c-.005.04-.008.09-.012.13m.01-.14c.006-.05.008-.09.012-.14l-.01.14m.012-.15c.002-.05.006-.09.01-.13-.004.04-.008.09-.01.13m.012-.15l.01-.13-.01.13m.01-.15l.01-.12c-.004.04-.008.08-.01.12m.01-.15c.003-.04.005-.078.01-.12-.005.04-.007.08-.01.12m.01-.15c.003-.04.005-.08.01-.12-.005.04-.007.08-.01.12m.01-.15l.008-.108-.007.11m.01-.142l.006-.12-.006.12m.007-.16l.007-.11-.007.11m.01-.15c0-.03.003-.068.005-.1l-.006.1m.008-.15c.002-.03.004-.07.004-.1 0 .03-.002.07-.004.1m.008-.16c0-.03.002-.06.005-.09-.003.03-.005.06-.005.09m.007-.15c0-.028 0-.06.003-.09l-.004.09m.004-.14l.004-.09-.004.09m.006-.15l.003-.09-.003.09m.005-.15c0-.03.002-.06.004-.09-.003.03-.005.06-.005.09m.004-.15c0-.028 0-.06.003-.09l-.004.09m.003-.14l.004-.1-.004.1m.006-.18v-.06.06m0-.15c.003-.02.003-.04.003-.07 0 .032 0 .05-.002.07m.005-.12v-.1.1m.003-.14v-.1.1m.002-.19v-.06.06m.002-.15v-.06.06m0-.118v-.24.24m0-.39v-.03.03m0-.15c0-.04 0-.08-.002-.12.002.04.002.08.002.12m-.002-.152v-.09.09m0-.15c-.002-.02-.002-.05-.002-.068 0 .02 0 .04.002.07m-.005-.15V45.8v.072m-.002-.15c0-.03 0-.062-.002-.09.003.03.003.06.003.09m-.002-.15v-.08.08m-.003-.152l-.002-.06.002.06m-.004-.15l-.002-.05c0 .01.003.03.003.05m-.004-.148c-.003-.02-.003-.04-.005-.07l.004.07m-.007-.15c0-.02 0-.052-.003-.07.002.018.003.05.003.07m-.005-.14l-.004-.08.004.08m-.005-.162l-.004-.06c0 .02 0 .04.003.06m-.006-.138c-.003-.03-.003-.05-.005-.08l.005.08m-.01-.15c0-.03 0-.052-.003-.082.002.03.004.05.004.08m-.006-.15c-.002-.028-.004-.05-.004-.08 0 .03.002.052.004.08m-.008-.15l-.005-.09c0 .03.002.06.004.09m-.01-.14c0-.03-.003-.068-.005-.1l.005.1m-.007-.148l-.007-.1.008.1m-.01-.14l-.007-.1c.005.03.005.058.01.1m-.01-.16l-.007-.08.006.08m-.012-.14l-.006-.092.006.09m-.01-.148c0-.03-.003-.05-.005-.08l.006.08m-.014-.15l-.006-.08.006.08m-.01-.15l-.008-.08.008.08m-.013-.142l-.006-.08.006.08m-.01-.148l-.008-.07.007.07m-.013-.15c-.005-.022-.007-.052-.01-.08.003.03.005.06.01.08m-.016-.15l-.006-.07.006.07m-.01-.142c-.006-.03-.008-.06-.01-.08.002.02.004.05.01.08m-.016-.138c-.004-.03-.006-.06-.008-.09.002.03.004.058.008.09m-.015-.15l-.01-.09.01.09m-.015-.14l-.01-.09.01.09m-.015-.152c-.004-.03-.008-.06-.01-.09.002.032.006.06.01.09m-.017-.15c-.002-.03-.006-.05-.01-.08.005.02.008.06.01.08m-.016-.14l-.01-.09.01.09m-.016-.15c-.005-.028-.007-.06-.01-.09.003.03.005.062.01.09m-.016-.14c-.005-.03-.01-.06-.013-.09l.013.09m-.02-.148l-.01-.09.01.09m-.017-.14l-.012-.1.013.1m-.018-.15l-.012-.08.012.08m-.02-.142l-.01-.09.01.09m-.02-.138l-.01-.1.01.1m-.018-.15c-.006-.03-.01-.062-.014-.09.005.03.008.06.014.09m-.02-.142c-.006-.03-.01-.06-.014-.1.004.04.008.07.014.1m-.02-.14l-.015-.1.013.1m-.022-.15c-.003-.03-.01-.06-.013-.09l.014.09m-.02-.14c-.006-.038-.01-.07-.017-.1.008.03.01.062.017.1m-.022-.14l-.016-.1.016.1m-.023-.148c-.006-.03-.01-.07-.017-.102.008.03.014.07.017.102m-.022-.142l-.017-.1c.005.03.01.07.017.1M93.02 39c-.005-.04-.012-.07-.018-.11.006.04.013.07.017.11m-.024-.138c-.006-.04-.013-.07-.02-.11.007.04.014.07.02.11m-.024-.15l-.02-.1.02.1m-.025-.14l-.02-.1c.008.028.013.07.02.1m-.025-.142c-.006-.04-.014-.08-.02-.11.006.03.014.07.02.11m-.023-.13c-.01-.04-.018-.08-.025-.12l.024.12m-.03-.15l-.02-.118c.006.04.015.08.02.12m-.023-.142c-.01-.04-.017-.08-.024-.12l.024.12m-.028-.138c-.01-.04-.018-.08-.025-.13.008.05.017.09.024.13m-.027-.13l-.024-.132c.006.04.015.092.023.13m-.028-.15c-.01-.04-.017-.08-.026-.13.008.05.016.09.025.13m-.027-.13l-.027-.14c.012.052.02.09.028.14m-.03-.15l-.055-.27c.02.09.037.18.056.27m-.06-.268c-3.072-14.65-13.05-26.77-26.388-32.84 13.34 6.07 23.316 18.19 26.39 32.84M77.1 16.492l-.178-.18c.06.06.12.118.18.18m-.33-.33c-.01-.01-.02-.01-.03-.02.01.01.02.01.03.02m-.177-.17l-.033-.03c.01.01.02.02.033.03m-.2-.192c-.004 0-.01-.01-.015-.01.006.002.012.01.015.01m-.182-.17c-.006 0-.01-.01-.014-.01.005.002.01.01.015.01m-.182-.17c-.005 0-.01-.01-.015-.01.004.002.01.01.015.01m-.19-.168c0-.01-.007-.01-.01-.01.005 0 .007 0 .01.01m-.187-.182h-.007.006m-.375-.328s-.002 0-.004-.01c.002.01.004.01.005.01m-.186-.17h-.006.006m-.19-.16s-.003 0-.005-.01c0 .01.003.01.005.01m-.19-.16c-.002-.01-.004-.01-.006-.01 0 0 .003 0 .005.01m-.193-.17h-.002.002m-.192-.16h-.002.002m-.192-.162h-.003.003M66.23 4.19c-.034-.02-.068-.03-.103-.05.035.02.07.03.104.05m-.124-.06c-.034-.01-.067-.03-.1-.04.033.01.068.032.1.04m-.132-.06c-.03-.01-.063-.028-.095-.038.03.01.062.03.094.04m-.127-.062c-.03-.01-.063-.02-.095-.04.03.02.063.03.095.04m-18.175 0h-.16v-4h.16v4zm18.043-.05c-.03-.02-.062-.03-.092-.04.03.01.062.02.092.04m-.13-.06c-.025-.01-.055-.02-.083-.04.026.02.058.03.084.04m-.133-.06l-.072-.03.073.03m-.132-.048l-.062-.03.063.03m-.133-.06l-.06-.03.06.03m-.127-.062c-.022-.01-.043-.01-.065-.02.022.01.042.01.065.02m-.13-.048l-.066-.03.067.03m-.133-.06c-.02 0-.037-.01-.057-.02.018.01.038.02.057.02m-.135-.052c-.017-.01-.035-.02-.052-.02.017 0 .036.01.052.02m-.13-.058c-.018 0-.03-.01-.047-.01.015 0 .03.01.046.01m-.134-.05c-.015-.01-.026-.01-.037-.01.01 0 .02 0 .036.01m-.133-.052c-.013-.01-.024-.01-.035-.02.01.01.022.01.035.02m-.132-.058c-.01 0-.023-.01-.038-.01.014 0 .027.01.04.01m-.138-.05c-.01 0-.017-.01-.027-.01.01 0 .018.01.027.01m-.134-.05c-.008 0-.017-.012-.024-.012.008 0 .017.01.024.01m-.132-.05c-.01-.01-.017-.01-.024-.01.007 0 .015 0 .024.01m-.134-.05c-.006-.01-.016-.01-.022-.01.006 0 .016 0 .022.01m-.14-.058h-.01.01m-.132-.05h-.01.01m-.135-.052h-.006.007m-.136-.05h-.003.004"/><path fill="#C8C8C8" d="M47.673 93.21v-4c1.25-.02 2.487-.1 3.71-.23h.025c.075-.01.15-.02.226-.02.014-.01.028-.01.043-.01.065-.01.135-.01.2-.02.024-.01.048-.01.072-.01.06-.01.122-.02.186-.02.024-.01.05-.01.077-.01l.18-.032c.03 0 .06 0 .09-.01.055 0 .11-.01.165-.02.033 0 .068-.01.1-.01l.155-.03c.038 0 .077-.01.114-.01.05-.01.1-.02.147-.02.04-.01.076-.01.113-.02.05-.01.098-.01.146-.02.04-.012.08-.012.122-.02.046-.012.093-.02.136-.02.044-.01.087-.02.13-.02.043-.01.086-.02.13-.02l.137-.032c.04 0 .082-.01.123-.02.045-.01.09-.01.137-.02.04-.01.082-.02.123-.02.048-.012.095-.02.142-.03.04-.01.078-.01.117-.02l.14-.03c.04-.012.08-.012.117-.02l.147-.03c.037-.01.076-.01.113-.02l.14-.03c.04-.01.08-.02.12-.02l.146-.03.108-.03.153-.03c.034-.01.07-.01.104-.02.053-.008.104-.02.157-.04.033 0 .067-.01.1-.02l.154-.03.104-.03.15-.03c.036-.01.07-.02.104-.028l.15-.03.105-.03.148-.03.11-.03c.045-.01.09-.02.136-.04l.118-.03.13-.03.127-.028.12-.03c.043-.02.088-.03.13-.04.04-.008.08-.02.12-.03.045-.01.09-.03.133-.04l.097-.03c.053-.01.104-.02.157-.038.02 0 .04-.012.062-.02 7.08-2.01 13.41-5.8 18.48-10.84C84.78 69.1 89.548 58.59 89.64 46.96c.076-.19.117-.4.117-.62 0-.23-.046-.45-.125-.65-.244-11.4-4.982-21.69-12.53-29.2l-.177-.18c-.052-.05-.1-.1-.15-.15-.01-.01-.02-.01-.03-.02-.05-.05-.1-.1-.147-.15-.013-.01-.022-.02-.033-.03-.055-.05-.11-.1-.166-.158-.005 0-.01-.01-.015-.01-.056-.05-.113-.11-.168-.16-.007 0-.01-.01-.015-.01-.056-.06-.11-.11-.168-.16-.006 0-.01-.01-.015-.01-.06-.06-.117-.11-.175-.16-.004-.01-.007-.01-.01-.01-.06-.06-.117-.11-.18-.17h-.006c-.063-.06-.123-.11-.185-.17-.063-.05-.123-.11-.185-.16-.002 0-.004 0-.005-.012-.06-.05-.12-.1-.182-.16h-.007c-.06-.05-.122-.11-.184-.16-.002 0-.003 0-.005-.01l-.184-.15c-.003-.008-.005-.008-.007-.008-.062-.05-.123-.1-.187-.16h-.003c-.063-.05-.127-.11-.19-.16h-.002c-.063-.05-.127-.11-.19-.16h-.002C66.925 7.85 57.73 4.21 47.673 4.012v-4c5.396.1 10.57 1.1 15.375 2.87h.004c.043.02.086.028.13.048h.005c.04.02.084.03.125.052h.01c.042.02.08.03.122.05h.012c.04.02.078.03.115.05.01 0 .02 0 .025.01.037.01.07.02.108.04.008 0 .017 0 .024.01.035.01.074.02.108.04.01 0 .017.01.023.01.038.01.073.03.108.04.01 0 .017.01.026.01.033.01.065.03.1.04.013 0 .025.01.038.01.03.02.062.03.096.04.01.01.022.01.035.02.03.01.064.02.097.04.01 0 .023 0 .037.01.03.01.06.02.09.04.017 0 .03.01.046.01.024.022.053.032.078.04.018 0 .036.01.053.022l.08.03c.02.01.036.02.057.02l.065.03.067.03c.018.01.042.02.062.03.022.01.043.01.065.02l.067.03.06.03.072.03.062.028c.02 0 .04.01.062.02.024.012.047.02.07.03.018.01.032.02.05.02.027.022.058.03.084.04.013.01.023.01.037.02.03.01.063.022.094.04.012 0 .024.012.036.012.03.02.063.03.095.04.012.01.02.01.032.02.03.01.064.03.095.04.01.01.022.01.033.02.032.01.065.03.1.04.007 0 .013.01.02.01.036.02.07.03.105.05.01 0 .02.012.03.012 13.34 6.068 23.316 18.19 26.39 32.84.022.09.04.18.058.27 0 .01.002.01.002.01.01.05.02.09.027.14.01.05.02.09.026.13l.004.02.024.13h.003c.01.05.017.09.023.13l.004.022.024.12c0 .01.002.02.004.02l.02.12c.003.01.005.02.005.03.01.04.017.08.024.12l.002.02c.006.03.014.07.02.11l.006.04c.006.03.012.07.02.1 0 .01.003.03.005.04l.02.1c.002.022.004.03.006.04.006.04.013.07.02.11 0 .01.003.02.005.03.008.04.014.07.018.11.004.01.006.03.008.04.005.03.01.07.017.1l.007.04c.006.03.01.07.016.1l.007.05c.006.03.01.06.016.1l.006.04c.006.03.01.062.016.102.003.01.005.03.007.05.003.03.01.06.014.09.002.02.004.03.008.05l.013.1.008.04c.004.04.008.07.015.1l.006.05.013.09c.002.02.006.04.008.05.004.043.008.06.012.1l.01.05.01.09.008.062.012.08.007.05.012.1.007.05.012.09.006.06c.006.03.01.063.014.092l.006.05c.004.03.005.06.01.09l.007.06.01.09.007.06c.004.03.008.05.01.08l.007.06.01.09.007.062.01.09.005.05.01.09c0 .02.003.04.007.06 0 .03.003.06.007.092l.007.06.008.08.006.07.005.07.008.07c.003.028.005.06.01.078 0 .03.003.05.006.08l.006.07.006.07.006.08c.002.02.005.04.005.06 0 .03.005.06.007.08 0 .02.002.05.004.07l.008.08.006.07.006.08.004.06.005.09c0 .02.003.04.005.06l.006.08.003.06c.002.03.004.06.01.1v.04l.007.1c.002.022.002.032.002.05l.006.102.003.05.007.09c0 .03.002.05.004.07 0 .03.003.05.005.082l.002.068c.002.03.004.05.004.08.004.02.004.05.006.07l.004.08.002.08.004.06.002.08.004.08.002.07.003.07c.002.028.002.06.002.08 0 .028 0 .048.003.068 0 .03 0 .06.002.1l.002.05.002.09v.06c0 .022 0 .052.003.07 0 .03 0 .05.003.082v.06c.002.03.002.06.002.09l.002.08v.07c.002.03.002.05.002.08 0 .02 0 .05.002.068v.182c.002.04.002.08.002.12V46.998l-.002.09v.06c0 .03 0 .06-.002.09v.1c0 .01 0 .03-.002.04v.1c-.002.02-.002.03-.002.05 0 .03 0 .05-.002.07v.09c-.003.02-.003.04-.003.063-.002.02-.002.05-.002.08 0 .04 0 .07-.003.1v.05l-.004.09v.06c-.002.03-.004.06-.004.09 0 .02-.003.04-.003.062 0 .03-.002.06-.003.088l-.002.06-.004.09-.002.052-.004.09-.002.06c-.002.032-.004.062-.004.09-.002.02-.002.04-.005.06 0 .03 0 .07-.003.102l-.002.05-.006.1c0 .02-.003.03-.003.04l-.007.11c0 .02 0 .03-.002.04l-.018.096-.002.03-.006.11c-.002.01-.002.03-.002.03-.005.04-.007.08-.01.12v.03c-.005.038-.007.08-.01.118 0 .012 0 .02-.003.03 0 .04-.005.08-.007.12 0 .012-.002.02-.002.02-.002.053-.006.082-.008.13-.002 0-.002.01-.002.02-.005.042-.01.08-.01.132-.003 0-.003.01-.003.01l-.01.14v.01l-.013.13v.02l-.013.13c0 .01-.003.01-.003.01l-.012.14-.013.142c0 .01 0 .01-.002.01l-.013.14-.002.01-.012.132-.002.008c-.018.2-.038.39-.06.58-2.075 18.24-14.73 33.29-31.702 38.93h-.008c-.04.01-.084.03-.127.04-.005 0-.007 0-.01.01l-.115.03c-.01.01-.023.01-.033.01-.035.01-.07.03-.104.04-.008 0-.02 0-.03.01l-.102.03c-.01 0-.025.01-.035.01-.035.012-.07.02-.103.03-.013.01-.02.01-.03.01l-.1.03c-.018.01-.03.01-.046.02l-.093.03c-.016 0-.03.01-.052.01l-.074.03c-.024 0-.047.01-.07.02-.022 0-.045.01-.065.02-.027.013-.056.013-.083.02-.016.01-.032.01-.05.02-.03.01-.06.022-.09.022-.018.008-.032.008-.05.02l-.095.03c-.013 0-.022 0-.037.01-.037.01-.073.02-.11.028-.01 0-.017 0-.024.012l-.12.03c-.006 0-.01 0-.015.01-.04.01-.084.02-.125.028-.006 0-.008 0-.012.01-3.81 1.07-7.816 1.68-11.955 1.747"/><path fill="#D8D8D8" d="M69.363 65.31c-2 0-3.71-1.43-4.23-3.48l-.033-.2-3.784-30.04c-.2-.66-.77-1.12-1.412-1.12-.684.02-1.254.5-1.434 1.19l-3.234 29.83-.028.17c-.457 2.11-2.15 3.61-4.117 3.65-1.468 0-2.78-.77-3.578-1.99V44.48l2.092 16.59c.2.67.772 1.12 1.41 1.12.68-.01 1.248-.49 1.43-1.18l3.236-29.83.03-.17c.457-2.11 2.147-3.61 4.115-3.65 2.008 0 3.717 1.43 4.233 3.48l.037.21 3.785 30.03c.2.66.77 1.11 1.412 1.11.68-.01 1.25-.49 1.43-1.18l1.61-14.86c.09-.78.686-1.37 1.402-1.37h14.608c.574 0 1.066.37 1.29.91.08.2.124.42.124.65 0 .22-.04.43-.118.62-.218.55-.716.93-1.296.93H74.988l-1.473 13.6-.03.17c-.458 2.11-2.152 3.61-4.122 3.65"/></svg>