<svg xmlns="http://www.w3.org/2000/svg" width="93.64" height="93.218" viewBox="0 0 93.64 93.218"><path fill="#F06342" d="M91.644 46.62c0 24.63-20.067 44.6-44.826 44.6C22.068 91.22 2 71.25 2 46.62 2 21.97 22.067 2 46.817 2c24.76 0 44.827 19.97 44.827 44.62"/><path fill="#FFF" d="M91.644 46.62h-2c-.002 11.76-4.79 22.4-12.54 30.12-7.755 7.71-18.448 12.48-30.286 12.48-11.832 0-22.524-4.77-30.278-12.48C8.79 69.02 4.002 58.38 4 46.62c.002-11.77 4.79-22.42 12.54-30.13C24.292 8.77 34.984 4 46.816 4c11.838 0 22.53 4.77 30.287 12.49 7.75 7.72 12.537 18.36 12.54 30.13h3.998C93.642 20.86 72.674 0 46.817 0 20.97 0 .002 20.86 0 46.62c.002 25.74 20.97 46.6 46.817 46.6 25.856 0 46.824-20.86 46.824-46.6h-1.996"/><path fill="#FFF" d="M39.896 41.57l-.146.15v3.16l.146.15h21.826l.152-.15v-3.16l-.152-.15H39.896m-6.47-20.54h31.157c2.658 0 4.814 2.15 4.814 4.81V71c0 .66-.54 1.2-1.203 1.2H34.48c-.665 0-1.206-.54-1.206-1.2V21.18l.152-.15m6.47 28.07l-.146.15v3.16l.146.15h21.826l.152-.15v-3.16l-.152-.15H39.896m0 7.52l-.146.15v3.16l.146.16h21.826l.152-.16v-3.16l-.152-.15H39.896m-.075-24.53l-.148.15v4.21l.15.15h13.85l.147-.15v-4.21l-.148-.15h-13.85"/><path fill="#FFF" d="M38.694 21.03v13.24H25.45c-.664 0-1.204-.54-1.204-1.2v-7.23c0-2.66 2.183-4.81 4.815-4.81h9.634zm-8.88 2.25c-1.83 0-3.313 1.49-3.313 3.32v5.108c0 .172.137.3.303.3h6.322V26.6c0-1.83-1.483-3.32-3.312-3.32"/><path fill="#DEDEDE" d="M93.643 46.62h-3.998c-.002 11.76-4.79 22.4-12.54 30.12-7.568 7.53-17.936 12.25-29.432 12.47v4c25.46-.45 45.97-21.13 45.97-46.59M47.673.01v4c11.496.23 21.863 4.95 29.433 12.48 7.75 7.72 12.537 18.36 12.54 30.13h3.997c0-25.47-20.51-46.15-45.97-46.61"/><path fill="#D3543C" d="M47.513 89.22V72.2h20.683c.664 0 1.203-.54 1.203-1.2V25.84c0-2.66-2.157-4.81-4.817-4.81h-17.07V4.01h.16c5.114.1 10.006 1.09 14.526 2.82.004.01.012.01.018.01.068.03.137.05.207.08.012.01.025.01.037.02.063.02.127.05.192.07.017.01.032.01.05.02.06.03.122.05.184.07l.056.03c.058.02.116.04.176.07l.065.03.164.06c.024.01.05.03.075.04l.155.06c.03.01.056.02.083.04l.15.06c.03.01.06.03.09.04l.14.06c.034.02.066.03.1.04l.133.06c.034.02.07.03.104.05l.127.06c.035.01.072.03.11.05.04.01.082.03.123.05.037.02.074.04.11.05l.12.06c.038.02.077.04.116.05l.112.06.126.06c.034.01.066.03.1.04.045.03.092.05.137.07.032.02.064.03.097.05.046.02.093.04.14.07.028.01.058.02.085.04.05.02.103.05.153.07.024.02.05.03.074.04.053.03.107.06.16.08.02.01.044.02.066.04.057.03.113.05.17.08.02.01.037.022.055.03.063.032.122.07.183.1.016 0 .03.01.045.02.063.03.125.07.188.102.015.01.025.01.04.02.066.04.135.07.202.11.006 0 .015.01.02.01l.214.12h.012c1.66.91 3.254 1.93 4.772 3.05h.003l.203.15h.002l.203.15c.002 0 .002.01.004.01l.198.15h.007l.196.15c.002.01.006.01.008.01l.194.15c.004 0 .008.01.012.01l.19.15c.002 0 .007 0 .01.01l.19.15c.004 0 .01 0 .015.01.063.05.122.1.183.15.007 0 .013.01.018.01l.185.15c.004 0 .008.01.015.01l.182.15c.005.01.01.01.015.01.062.06.12.11.184.16.005 0 .01 0 .015.01.062.05.12.1.18.15.007.01.01.01.018.02l.176.15c.005 0 .01.01.017.01.06.05.12.1.18.16.003 0 .008 0 .014.01l.175.15c.006.01.013.01.02.02.057.05.113.1.17.148.007.01.014.01.02.02.06.05.114.102.17.15.008.012.016.012.02.02.06.05.117.102.173.16.006 0 .012.01.018.01.058.05.115.11.173.16.005.01.01.01.014.01.057.06.114.112.17.16.006.01.012.01.018.02.057.05.113.11.168.16.007 0 .014.01.02.022.057.05.116.11.174.16.004.01.006.01.01.01.06.06.117.11.177.17.003 0 .005.01.01.01.055.048.11.11.167.16.004.01.01.01.015.02l.182.18c7.75 7.72 12.537 18.36 12.54 30.13-.003 11.76-4.79 22.398-12.54 30.12l-.182.18c-.006 0-.013.01-.018.02-.055.05-.11.1-.164.16-.007 0-.014.01-.02.02-.056.05-.11.1-.165.16-.004 0-.008 0-.012.01-.058.05-.115.11-.173.16-.006.01-.014.01-.02.02-.056.05-.11.11-.167.16-.006 0-.01.01-.016.01-.056.06-.113.11-.17.16-.007.01-.013.01-.022.02-.055.05-.11.1-.17.16-.004 0-.008 0-.012.01-.06.05-.117.1-.177.16-.004 0-.008.01-.012.01-.06.05-.12.11-.18.16-.003 0-.007.01-.01.01-.06.05-.122.11-.182.16-.002 0-.007.01-.01.01l-.378.33h-.004c-5.828 5.02-13.024 8.51-20.97 9.82h-.003c-.084.01-.168.02-.252.04h-.02c-.08.01-.155.03-.234.04h-.04c-.073.01-.145.03-.218.04h-.05c-.07.012-.14.02-.21.03-.02.01-.04.01-.062.01l-.197.03c-.024 0-.048 0-.072.01-.06.01-.12.01-.18.02-.032.01-.063.01-.093.01-.054.012-.11.022-.164.022-.035.01-.07.01-.105.02-.05 0-.098.01-.146.01-.043.01-.085.01-.128.02-.04 0-.08.01-.118.01-.05.01-.104.01-.154.022-.03 0-.06 0-.092.01-.06 0-.12.01-.183.02H51.1c-.072.01-.144.02-.214.02-.01 0-.02 0-.03.01-1.048.09-2.11.15-3.18.17-.057-.006-.11.005-.163.005"/><path fill="#D8D8D8" d="M47.513 93.22v-4c.054 0 .106-.01.16-.01v4c-.054.01-.107.01-.16.01m16.203-3.13h.006-.006m.13-.05h.014-.015m.12-.04c.014-.01.022-.01.03-.01-.01 0-.016 0-.03.01m.14-.06c.007 0 .016 0 .023-.01-.01.01-.017.01-.024.01m.128-.05c.01 0 .02-.01.028-.01-.01.01-.018.01-.028.01m.13-.05c.01 0 .022-.01.032-.01-.01 0-.02.01-.03.01m.128-.05c.01-.01.022-.01.033-.02-.01.01-.022.01-.033.02m.14-.06c.008 0 .017-.01.023-.01-.007 0-.015.01-.023.01m.12-.05c.015 0 .028-.01.04-.02-.012.01-.025.02-.04.02m.126-.05c.02-.01.03-.01.05-.02-.017.01-.033.01-.05.02m.117-.05l.067-.03-.067.03m.137-.06c.02-.01.037-.01.058-.02-.02.01-.038.01-.058.02m.13-.05l.06-.03-.06.03m.13-.06c.02-.01.037-.02.06-.02-.023.01-.04.01-.06.02m.133-.06c.02 0 .032-.01.05-.02-.017.01-.03.02-.05.02m.144-.06c.01 0 .023-.01.035-.01-.012 0-.024.01-.036.01m.113-.05c.02-.01.037-.02.058-.02-.02 0-.038.01-.057.02m.117-.05l.073-.03-.073.03m.11-.05c.032-.01.064-.03.096-.04-.033.01-.062.03-.095.04m.13-.06c.03-.01.06-.03.09-.04-.03.01-.06.03-.09.04m-15.286-.04c.008-.01.018-.01.028-.01-.01 0-.02 0-.028.01m15.42-.02c.03-.01.06-.03.087-.04-.027.01-.056.03-.085.04m-15.18-.01h.058-.058m.24-.02c.03-.01.062-.01.092-.01-.03 0-.062 0-.092.01m15.067-.03c.028-.01.058-.02.086-.04-.028.02-.057.03-.086.04m-14.82 0c.038 0 .077-.01.116-.01-.04 0-.078.01-.117.01m.247-.03c.05 0 .098-.01.146-.01-.048 0-.097.01-.146.01m14.7-.03c.03-.01.06-.02.09-.04-.03.02-.06.03-.09.04m-14.448 0c.054 0 .11-.01.163-.02-.054.01-.11.02-.164.02m.255-.03c.062-.01.12-.01.182-.02-.06.01-.12.01-.182.02m14.31-.02c.033-.02.068-.03.102-.05-.033.02-.068.03-.1.05m-14.058-.01l.196-.03-.197.03m.26-.04l.208-.03-.21.03m13.91 0c13.09-6.14 22.86-18.14 25.897-32.61C89.617 70.66 79.847 82.66 66.76 88.8m-13.653-.03c.073-.01.146-.03.22-.04-.074.01-.148.03-.22.04m.258-.04c.08-.01.156-.03.235-.04-.08.01-.157.03-.235.04m.255-.04c.084-.02.168-.03.252-.04-.084.01-.168.02-.252.04m.256-.04c7.944-1.31 15.14-4.8 20.97-9.82-5.83 5.02-13.026 8.51-20.97 9.82m20.973-9.82l.376-.33-.377.33m.386-.34c.06-.05.12-.11.18-.16-.06.05-.118.11-.18.16m.193-.17c.06-.05.118-.11.178-.16-.062.05-.12.11-.18.16m.19-.17c.06-.06.118-.11.178-.16-.058.05-.12.11-.177.16m.188-.17c.058-.06.115-.11.17-.16-.055.05-.113.1-.17.16m.19-.18c.058-.05.115-.1.17-.16-.055.06-.112.11-.17.16m.188-.17c.055-.05.11-.11.165-.16-.054.05-.11.11-.164.16m.185-.18c.06-.05.116-.11.174-.16-.058.05-.115.11-.173.16m.186-.17c.056-.06.11-.11.164-.16-.055.05-.11.1-.164.16m.184-.18c.056-.06.11-.11.165-.16-.054.05-.11.1-.165.16m.183-.18c.062-.06.12-.12.183-.18 7.75-7.72 12.536-18.36 12.54-30.12-.004 11.76-4.79 22.4-12.54 30.12l-.183.18m15.73-20.73c.02-.09.038-.18.055-.27l-.054.27m.058-.29c.01-.04.02-.08.026-.12-.008.04-.016.08-.026.12m.028-.13l.024-.12-.024.12m.03-.15l.024-.13-.024.13m.026-.13c.008-.05.017-.09.024-.13-.007.04-.016.08-.024.13m.028-.15c.007-.04.015-.08.022-.13-.007.05-.013.09-.022.13m.027-.14c.008-.04.016-.08.022-.12-.007.04-.015.08-.02.12m.026-.15c.006-.04.014-.08.022-.12-.008.04-.016.08-.022.12m.024-.14c.007-.03.015-.07.02-.11-.005.04-.013.08-.02.11m.027-.14l.02-.12-.02.12m.023-.14c.007-.04.015-.08.02-.12-.005.04-.013.08-.02.12m.026-.14c.005-.04.012-.09.02-.13-.01.05-.016.09-.02.13m.02-.15c.01-.03.015-.07.022-.11-.007.04-.013.08-.02.11m.025-.14l.017-.12-.017.12m.023-.14l.02-.12-.02.12m.022-.15c.006-.04.013-.07.017-.11-.005.04-.012.07-.018.11m.023-.14l.017-.11-.017.11m.022-.15c.005-.04.01-.07.017-.11-.006.04-.012.07-.017.11m.02-.14c.008-.04.014-.07.018-.11-.005.04-.01.07-.017.11m.02-.15c.007-.03.013-.07.017-.1-.004.03-.01.07-.016.1m.02-.14c.006-.03.012-.07.016-.1l-.015.1m.02-.15c.005-.03.01-.07.016-.1-.006.03-.01.07-.015.1m.02-.14c.006-.03.01-.07.015-.1l-.015.1m.02-.15c.004-.03.01-.06.013-.1-.004.04-.01.07-.013.1m.02-.14c.003-.03.007-.07.012-.1l-.013.1m.017-.15c.004-.03.01-.06.013-.1-.004.04-.008.07-.013.1m.02-.14l.01-.1-.01.1m.017-.15l.01-.1-.01.1m.015-.14l.01-.1c-.003.03-.005.07-.01.1m.017-.15c.004-.03.01-.06.013-.1l-.013.1m.016-.14l.01-.1-.01.1m.015-.15l.012-.1-.012.1m.017-.14l.01-.1c-.005.03-.007.06-.01.1m.014-.15c.002-.03.005-.07.01-.1-.005.03-.008.07-.01.1m.013-.15l.01-.09-.01.09m.016-.15c0-.03.003-.06.006-.09l-.007.09m.01-.14l.01-.09-.01.09m.016-.16l.006-.08-.006.08m.013-.14c0-.028.003-.06.005-.09l-.006.09m.01-.15c0-.02.004-.062.006-.08l-.007.08m.01-.14l.007-.09-.006.09m.013-.16l.007-.07-.007.07m.01-.14l.006-.08c-.003.02-.005.05-.007.08m.01-.16l.006-.07-.006.07m.01-.14c.002-.03.004-.05.004-.08 0 .03-.002.05-.004.08m.01-.15c0-.02.002-.05.004-.07-.002.02-.004.04-.004.07m.01-.14c0-.03.003-.06.003-.08l-.004.08m.007-.15c0-.03.003-.05.004-.08 0 .03-.003.05-.004.08m.008-.15c0-.03.003-.05.005-.08l-.005.08m.01-.16v-.06.06m.005-.15l.004-.06-.004.06m.008-.16c0-.02.004-.03.004-.05 0 .02-.003.04-.003.05m.007-.14l.002-.06-.003.06m.004-.14c.003-.03.003-.05.004-.07 0 .02 0 .04-.003.07m.006-.15l.003-.068-.004.068m.006-.16v-.05.05m.004-.14l.002-.07-.002.07m.004-.14c0-.02 0-.05.002-.08-.002.03-.002.06-.002.08m.002-.14c.002-.02.002-.06.002-.09 0 .03 0 .07-.002.09m.004-.17v-.06.06m.002-.14c0-.03 0-.05.002-.07-.002.02-.002.04-.002.07m.002-.14v-.09.09m.002-.12v-.11.11m0-.24v-.02.02m0-.32v-.03.03m0-.15v-.12.12m-.002-.15v-.09.09m0-.15c-.002-.02-.002-.05-.002-.07 0 .02 0 .04.002.07m-.004-.15v-.07.07m-.002-.15c0-.03 0-.06-.002-.09.002.03.002.06.002.09m-.002-.15c-.002-.02-.002-.05-.002-.08 0 .03 0 .05.002.08m-.004-.15l-.002-.06.002.06m-.005-.15v-.05.05m-.004-.15l-.004-.07c0 .03.002.05.003.07m-.006-.15c0-.02 0-.04-.003-.06.003.02.003.04.004.06m-.005-.15c-.003-.02-.003-.04-.003-.06l.002.06m-.006-.15c0-.01-.003-.03-.003-.05 0 .02.004.04.004.05m-.007-.14l-.004-.07.004.07m-.008-.15l-.003-.06.002.06m-.007-.15l-.005-.07.005.07m-.01-.15L93.57 44c0 .03.003.06.004.08m-.008-.14c0-.03-.002-.06-.004-.08.002.02.004.05.004.08m-.008-.15c-.002-.03-.004-.05-.004-.08 0 .03.002.05.004.08m-.01-.15c0-.028-.002-.05-.004-.08.002.03.004.05.004.08m-.01-.15c0-.02-.003-.05-.004-.07 0 .02.003.05.005.07m-.01-.15l-.007-.07.006.07m-.01-.14l-.007-.08.007.08m-.013-.15l-.006-.09.007.09m-.01-.14l-.008-.09c0 .03.004.06.006.09m-.012-.15l-.006-.08.006.08m-.012-.15l-.006-.08.006.08m-.012-.14l-.01-.09.01.09m-.014-.15l-.007-.09c0 .03.003.06.006.09m-.013-.15l-.01-.09.01.09m-.014-.14c-.005-.03-.008-.06-.01-.1.002.04.005.07.01.1m-.016-.15l-.01-.1.01.1m-.014-.14l-.012-.1.012.1m-.017-.15l-.01-.1.01.1m-.014-.14l-.014-.102.013.1m-.02-.148l-.01-.1.01.1m-.015-.14c-.004-.04-.007-.07-.013-.1l.013.1m-.017-.15l-.012-.1.012.1m-.018-.14l-.013-.1.013.1m-.02-.15l-.012-.1.013.1m-.017-.14l-.013-.1.013.1m-.02-.15c-.003-.03-.008-.07-.014-.1.006.03.01.07.014.1m-.018-.14c-.006-.03-.01-.07-.016-.1.005.03.01.07.016.1m-.02-.14c-.005-.04-.01-.07-.018-.11.008.04.013.07.017.11m-.02-.14c-.004-.04-.01-.08-.016-.11l.015.11m-.02-.15c-.005-.04-.01-.07-.018-.11.008.04.013.08.017.11m-.02-.14c-.006-.04-.012-.07-.017-.11.005.04.01.07.017.11m-.023-.15l-.016-.11c.007.04.01.08.017.11m-.02-.14l-.018-.11c.006.04.013.08.02.11m-.024-.14l-.02-.12c.008.04.015.08.02.12m-.022-.14c-.008-.04-.014-.08-.02-.12.006.04.012.08.02.12m-.025-.14l-.02-.13c.01.05.015.09.02.13M93 38.87l-.02-.13c.006.05.013.09.02.13m-.024-.14c-.006-.05-.014-.09-.02-.13.006.04.014.08.02.13m-.024-.14c-.007-.05-.015-.09-.02-.13l.02.13m-.025-.15c-.008-.04-.016-.092-.022-.13.006.04.014.09.022.13m-.025-.14c-.01-.04-.017-.08-.024-.13.008.05.016.09.024.13m-.027-.14l-.024-.13.023.13m-.024-.13c-.01-.05-.02-.1-.026-.14l.025.14m-.03-.15l-.05-.27.05.27m-.053-.28c-.02-.1-.036-.19-.055-.28l.055.28m-.055-.28C88.438 16.29 69.952.41 47.672.01v4h-.16v-4c22.35.32 40.913 16.23 45.2 37.31M77.105 16.49c-.062-.06-.12-.12-.183-.18l.183.18m-.198-.2c-.057-.05-.11-.11-.168-.16.056.05.114.11.167.16m-.175-.17c-.06-.06-.118-.11-.177-.17.06.06.118.11.177.17m-.186-.18c-.058-.05-.117-.11-.175-.16.06.05.118.11.176.16m-.192-.18c-.056-.05-.113-.11-.168-.16.055.05.112.11.168.16m-.187-.18c-.056-.05-.113-.1-.17-.16.057.06.114.11.17.16m-.185-.17c-.058-.05-.116-.11-.172-.16.057.05.115.11.172.16m-.19-.17c-.056-.06-.113-.11-.172-.16.06.05.116.1.172.16m-.19-.18l-.17-.15.17.15m-.194-.17c-.055-.05-.112-.1-.17-.15.058.05.116.1.17.15m-.188-.17c-.06-.05-.116-.1-.174-.15l.174.15m-.19-.16c-.06-.06-.118-.11-.177-.16.06.05.12.1.177.16m-.195-.17l-.177-.15c.06.05.12.1.177.15m-.193-.17c-.06-.05-.118-.1-.18-.15l.18.15m-.195-.16c-.062-.05-.12-.1-.183-.16.062.06.122.11.183.16m-.196-.17l-.182-.15c.06.05.12.1.183.15m-.196-.16l-.184-.15.184.15m-.2-.16c-.062-.05-.12-.1-.183-.15l.184.15m-.2-.16l-.187-.15.188.15m-.2-.16c-.06-.05-.125-.1-.188-.15l.19.15m-.202-.16c-.063-.05-.13-.1-.192-.15l.192.15m-.2-.16l-.197-.15.196.15m-.203-.15c-.064-.05-.132-.1-.197-.15.065.05.13.1.198.15m-.202-.16l-.203-.15.203.15m-.205-.15l-.205-.15.205.15m-.207-.15c-1.52-1.12-3.112-2.14-4.772-3.05 1.66.91 3.254 1.93 4.772 3.05m-4.784-3.05l-.214-.12.214.12m-.234-.13c-.067-.04-.135-.07-.203-.11.068.04.135.07.203.11m-.242-.13c-.063-.03-.125-.07-.188-.1.063.03.125.07.188.1m-.233-.12c-.06-.03-.12-.07-.18-.1.06.03.12.07.18.1m-.236-.13c-.058-.03-.112-.05-.17-.08.058.02.113.05.17.08m-.236-.12c-.053-.02-.107-.05-.16-.08.053.03.108.06.16.08m-.235-.12c-.05-.02-.103-.05-.153-.07.05.02.102.05.153.07m-.237-.11c-.047-.03-.095-.05-.142-.07.047.02.095.04.142.07m-.235-.12c-.046-.02-.093-.04-.138-.07.045.03.092.05.138.07m-.238-.11l-.127-.06.127.06m-.238-.12c-.04-.01-.078-.03-.117-.05.04.02.078.04.117.05m-.236-.11c-.035-.01-.072-.03-.11-.05.037.02.074.04.11.05m-.235-.1c-.036-.02-.073-.04-.108-.05.037.01.072.03.108.05m-.235-.11c-.035-.02-.07-.03-.104-.05.035.02.07.03.104.05m-.238-.11c-.032-.01-.064-.02-.098-.04.032.01.067.03.098.04m-.24-.1c-.03-.01-.06-.03-.088-.04.03.01.058.03.088.04m-.24-.1c-.026-.02-.053-.03-.082-.04.03.01.056.02.083.04m-.238-.1c-.025-.01-.05-.03-.076-.04.024.01.05.03.075.04m-.24-.1l-.065-.03.066.03m-.243-.1l-.056-.03.056.03m-.24-.1c-.015-.01-.032-.01-.05-.02.016.01.035.01.05.02m-.24-.09c-.014-.01-.025-.01-.038-.02.013.01.024.01.037.02m-.244-.1c-.006 0-.014 0-.02-.01.006.01.014.01.02.01"/><path fill="#D18B7A" d="M61.723 60.09h-14.21v-3.47h14.21l.15.15v3.16l-.15.16zm0-7.53h-14.21V49.1h14.21l.15.15v3.16l-.15.15m0-7.53h-14.21v-3.46h14.21l.15.15v3.16l-.15.15M53.67 36.6h-6.157v-4.51h6.158l.15.15v4.21l-.15.15"/><path fill="#D8D8D8" d="M68.194 72.2h-20.68V60.09H61.72l.152-.16v-3.16l-.152-.15h-14.21v-4.06h14.21l.152-.15v-3.16l-.152-.15h-14.21v-4.067h14.21l.152-.15v-3.16l-.152-.15h-14.21V36.6h6.16l.147-.15v-4.21l-.148-.15h-6.16V21.03h17.07c2.66 0 4.815 2.15 4.815 4.81V71c0 .66-.54 1.2-1.203 1.2"/><path fill="#C8C8C8" d="M47.673 93.21v-4c1.07-.02 2.13-.08 3.18-.17.01-.01.02-.01.03-.01.07 0 .14-.01.212-.02h.057c.063-.01.124-.02.184-.02.03-.01.062-.01.092-.01.052-.01.103-.01.154-.02.04 0 .078-.01.117-.01.042-.01.085-.01.128-.02.05 0 .098-.01.147-.01.034-.01.07-.01.104-.02.054 0 .11-.012.163-.022.03 0 .06 0 .092-.01.062-.01.12-.01.183-.02.024-.01.047-.01.07-.01l.198-.03c.022 0 .04 0 .063-.01.068-.012.137-.02.208-.03h.05c.07-.01.145-.03.218-.04h.04c.077-.01.155-.03.235-.04h.02c.084-.02.168-.03.252-.04h.004c7.943-1.31 15.142-4.8 20.97-9.82h.004l.377-.33c.004 0 .008-.01.01-.01.062-.05.12-.11.18-.16.005 0 .01-.01.013-.01.06-.05.117-.11.18-.16.002 0 .006-.01.012-.01.057-.052.117-.11.176-.16.004-.01.008-.01.013-.01.058-.06.115-.11.17-.16.008-.01.014-.01.022-.02.058-.05.113-.1.17-.16.006 0 .01-.01.017-.01.053-.05.11-.11.165-.16.006-.012.013-.012.02-.022.058-.05.114-.11.173-.16.004-.008.008-.008.013-.008.055-.06.11-.11.164-.162.01-.01.015-.02.02-.02.057-.06.112-.11.165-.16.005-.01.012-.02.018-.02.062-.06.12-.12.183-.18 7.75-7.72 12.538-18.36 12.54-30.12-.002-11.77-4.79-22.41-12.54-30.13l-.182-.18c-.004-.01-.01-.01-.016-.02-.054-.05-.11-.11-.168-.16-.004 0-.005-.01-.007-.01-.06-.06-.118-.11-.176-.17-.004 0-.006 0-.01-.01-.06-.05-.117-.11-.174-.16-.007-.01-.013-.02-.02-.02-.055-.05-.11-.11-.167-.16-.008-.01-.014-.01-.02-.02-.057-.05-.113-.1-.17-.16-.005 0-.01 0-.015-.01-.058-.05-.115-.11-.172-.16-.007 0-.013-.01-.02-.01-.056-.06-.112-.11-.17-.16-.007-.01-.014-.01-.02-.02l-.17-.15c-.01-.01-.015-.01-.023-.02-.055-.05-.112-.1-.17-.15-.006-.01-.012-.01-.02-.02l-.173-.15c-.006-.01-.01-.01-.016-.01-.057-.06-.116-.11-.176-.16-.006 0-.013-.01-.02-.01l-.176-.15c-.007-.01-.01-.01-.016-.02-.062-.05-.12-.1-.18-.148-.007-.01-.01-.01-.016-.01-.062-.05-.12-.1-.182-.16-.005 0-.01 0-.015-.01-.063-.05-.124-.1-.184-.15-.006 0-.01-.01-.015-.01-.06-.05-.12-.1-.183-.15-.006 0-.01-.01-.017-.01-.062-.05-.12-.1-.183-.15-.006-.01-.01-.01-.017-.01-.062-.05-.123-.1-.187-.15-.004-.01-.008-.01-.012-.01-.06-.05-.124-.1-.187-.15-.005 0-.01-.01-.013-.01l-.192-.15c-.002 0-.006 0-.01-.01l-.195-.15h-.006l-.2-.15s0-.01-.003-.01l-.204-.15-.206-.15h-.003c-1.517-1.12-3.11-2.14-4.77-3.05h-.012l-.214-.12c-.006 0-.014-.01-.02-.01-.068-.042-.136-.07-.203-.11-.01-.008-.02-.008-.033-.018-.063-.03-.125-.07-.188-.1-.016-.01-.03-.02-.046-.02-.06-.03-.12-.07-.18-.1l-.057-.03c-.057-.03-.112-.06-.17-.08-.022-.02-.045-.03-.065-.04-.054-.02-.108-.05-.162-.08-.024-.01-.05-.02-.074-.04-.05-.02-.102-.05-.153-.07-.026-.02-.057-.03-.084-.04-.048-.03-.095-.05-.143-.07-.032-.02-.063-.03-.094-.05-.045-.02-.093-.04-.138-.07-.032-.01-.065-.03-.1-.04l-.127-.06-.11-.06c-.04-.01-.08-.03-.118-.05l-.118-.06c-.037-.01-.075-.03-.112-.05-.04-.02-.083-.04-.124-.05-.037-.02-.072-.04-.11-.05l-.126-.06c-.035-.02-.07-.03-.104-.05l-.133-.06c-.032-.01-.066-.03-.1-.04l-.142-.06c-.028-.01-.057-.03-.086-.04l-.15-.06c-.028-.02-.055-.03-.083-.04l-.155-.06c-.025-.01-.05-.03-.075-.04-.056-.02-.11-.04-.164-.058-.023-.012-.043-.023-.066-.032-.06-.03-.12-.05-.177-.07l-.056-.03c-.062-.02-.122-.04-.184-.07-.015-.01-.034-.01-.05-.02-.064-.02-.128-.05-.19-.07-.014-.01-.025-.01-.038-.02-.07-.03-.14-.05-.207-.08-.006 0-.014 0-.02-.01-4.52-1.73-9.41-2.72-14.525-2.82v-4c22.278.4 40.765 16.28 45.04 37.31l.055.278.002.01.052.272s0 .01.002.01c.008.04.018.09.026.142l.024.13.002.01c.008.05.017.09.024.13v.01c.01.038.017.09.024.13 0 .01.002.01.004.02.007.04.015.08.02.13.002 0 .002 0 .003.01.01.04.017.08.023.132.002 0 .002.01.004.01.006.04.013.09.02.128l.003.01c.008.05.015.09.02.13.003 0 .005.01.005.022l.02.12c0 .01.003.02.005.02l.02.118c0 .01 0 .02.003.03.007.04.013.08.02.11 0 .01 0 .02.003.03.007.04.01.08.016.11l.007.04c.004.04.01.07.016.11l.004.03c.007.038.013.07.017.108l.005.04c.006.03.012.07.016.11.002.01.004.02.004.03.007.04.013.07.016.11.003.01.005.02.006.04.006.03.01.07.016.1l.004.04c.007.03.01.07.015.1 0 .02.003.03.005.05.005.03.01.07.013.1l.006.04c.004.03.01.07.013.102l.005.05.014.1.006.04c.004.04.008.07.013.1.002.02.004.03.004.05.005.03.008.06.012.1l.004.04.012.1c.002.022.004.03.007.05l.012.1c0 .01 0 .032.003.042l.012.1.004.05c.004.03.008.07.013.1 0 .02 0 .03.003.042l.01.1.005.05.01.1.004.05.01.09.007.062c0 .028.003.058.006.09l.005.06.01.09.006.06.007.08.006.07c0 .02.003.05.005.08 0 .02.003.04.005.06l.008.09c.002.02.002.04.004.05l.006.09.006.07.007.08c.003.02.003.04.005.07.002.02.003.05.006.07l.006.08c0 .02.004.05.006.07 0 .028.002.048.004.068.002.03.004.05.004.08l.006.07c0 .03.003.05.005.08.003.02.003.04.005.07.002.02.004.05.004.08l.002.06.005.08.005.08c0 .02.002.05.004.07 0 .03.002.06.004.09l.002.06c.002.03.004.05.004.08.002.02.002.05.005.07 0 .03.003.06.005.09l.002.05c0 .03.002.062.004.09 0 .02 0 .04.003.06v.09c.003.02.004.04.005.06 0 .03 0 .063.002.08 0 .03.002.05.004.07l.002.102.002.05.002.09.002.06s0 .05.002.07c0 .03 0 .06.002.08v.06c.002.03.002.06.002.09l.002.08v.07c.002.03.002.05.002.08 0 .02 0 .05.003.07v.15c0 .01 0 .02.002.03V47.038c-.002.008-.002.02-.002.028v.16c-.003.02-.003.04-.003.07 0 .02 0 .05-.002.08v.06l-.002.08c0 .03 0 .07-.002.09v.06c-.002.03-.002.062-.002.08-.002.03-.002.05-.002.07l-.002.07-.002.09-.002.05-.002.09-.004.07c0 .03 0 .06-.002.08 0 .02-.002.04-.004.07v.08l-.003.06c0 .03 0 .062-.003.09l-.002.05c-.002.03-.004.07-.004.1l-.004.06c0 .03-.002.062-.004.09l-.002.062c-.002.03-.004.05-.004.08-.002.03-.004.05-.004.08l-.005.07c0 .03-.003.05-.005.08 0 .02 0 .04-.003.07 0 .02-.003.05-.005.08l-.004.068c0 .02-.004.05-.004.07l-.006.07c0 .03-.002.05-.004.08-.002.02-.004.05-.004.07l-.006.07-.005.08-.005.08-.004.068c0 .02-.003.05-.006.07l-.006.07-.006.09-.004.06-.008.08-.005.06-.006.09-.007.06-.007.082-.006.07-.01.09-.004.05-.007.09-.007.06c-.005.03-.007.06-.01.09l-.005.05-.01.1-.005.052-.01.1-.004.04-.014.1c0 .02-.002.03-.004.05l-.012.1c-.002.01-.003.03-.003.042l-.012.1-.007.05-.012.1c0 .02-.003.03-.004.04l-.01.1-.007.05c-.005.03-.01.07-.013.1l-.006.04c-.004.04-.01.07-.014.1 0 .02-.003.03-.005.05l-.013.1c-.002.022-.004.03-.006.042-.004.04-.008.07-.013.1-.002.02-.005.03-.006.05-.005.03-.01.07-.016.1l-.004.04c-.006.03-.01.07-.015.1l-.007.05-.013.1c-.003.012-.005.02-.007.04l-.016.102c0 .01-.003.03-.005.04-.004.04-.01.07-.017.11-.002.01-.004.02-.004.03l-.017.108-.008.04-.016.11-.006.03c-.004.04-.01.07-.017.11-.003.01-.003.02-.004.03l-.02.12-.006.02-.018.12c0 .01-.003.02-.005.03-.005.04-.012.08-.02.11l-.002.02c-.008.04-.015.09-.02.13-.003 0-.003.01-.005.02-.007.04-.015.08-.02.12-.004.01-.005.01-.006.02l-.02.12-.007.03c-.006.04-.014.08-.02.11l-.002.02c-.008.04-.017.08-.022.12l-.006.03c-.007.04-.015.08-.02.12-.003 0-.003.01-.005.01-.01.05-.017.09-.023.13l-.005.02c-.007.04-.016.08-.023.13h-.002c-.008.042-.018.09-.024.13l-.004.03c-.01.03-.017.082-.025.12-.002 0-.002 0-.003.012l-.026.12c0 .01 0 .02-.003.02-.017.09-.035.18-.055.27C89.618 70.66 79.85 82.66 66.76 88.8h-.013c-.033.02-.068.03-.1.05-.01 0-.02.01-.03.01-.03.02-.06.03-.09.04-.015.01-.026.02-.04.02-.027.02-.056.03-.086.04-.013.01-.024.01-.04.02-.027.01-.057.03-.085.04-.015.012-.03.012-.045.02-.03.01-.06.03-.09.04-.01.01-.024.01-.035.02-.032.01-.063.03-.095.04-.012 0-.025.012-.036.022l-.074.03-.06.03c-.02 0-.037.01-.058.02-.024.01-.053.02-.077.04-.013 0-.024.01-.037.01-.03.01-.062.03-.093.04-.018.01-.032.02-.05.02-.025.01-.052.03-.076.04-.022 0-.038.01-.06.02-.02.01-.05.02-.072.03-.02.01-.037.02-.06.03l-.07.03c-.02.01-.04.01-.058.02-.022.012-.047.02-.07.03l-.066.03c-.02.01-.046.02-.068.03-.018.01-.03.01-.05.02l-.085.03c-.012.01-.023.02-.038.02-.03.01-.063.03-.098.04-.007 0-.015.012-.023.012-.033.02-.068.028-.105.038-.01.012-.022.012-.033.02-.032.01-.065.02-.098.04-.01 0-.02.01-.032.01-.033.01-.066.03-.102.04-.01 0-.02.01-.028.01-.035.022-.07.03-.104.04-.008.01-.018.01-.024.01-.037.02-.07.03-.106.052-.012 0-.02 0-.03.01-.035.01-.072.03-.107.04h-.014c-.04.02-.082.04-.122.05h-.007c-.176.07-.355.142-.53.21-4.844 1.786-10.067 2.815-15.514 2.905"/></svg>