<svg xmlns="http://www.w3.org/2000/svg" width="32" height="40" viewBox="0 0 32 40"><g fill="#E37A09"><circle cx="17.548" cy="10.492" r="2.733"/><path d="M30.82 20.55l-5.082.266-3.91-3.86 5.167 1.27 4.328-3.873c.41-.368.447-1 .078-1.412-.367-.41-1-.445-1.41-.077l-3.542 3.17-4.735-1.165 5.88-3.92L25.94 3.43c-.12-.54-.654-.876-1.192-.762-.54.118-.88.652-.762 1.19l1.36 6.184-5.75 3.834h-4.067l-5.752-3.834 1.36-6.183c.12-.54-.222-1.074-.762-1.192-.538-.115-1.072.222-1.19.76L7.53 10.95l5.88 3.918-4.735 1.165-3.54-3.17c-.412-.367-1.044-.333-1.413.08-.368.41-.333 1.043.078 1.41l4.328 3.874 5.167-1.27-3.91 3.86-5.082-.267c-.542-.033-1.022.396-1.05.946-.03.552.394 1.022.945 1.052l5.964.312 4.9-4.84v20.856c0 .553.45 1 1 1s1-.447 1-1v-12h1v12c0 .553.45 1 1 1s1-.447 1-1V18.02l4.9 4.836 5.963-.312c.55-.03.975-.5.946-1.052-.028-.55-.502-.972-1.05-.943zM3.74 8.875h.322v-4h-.006c0-.04-.087-.076-.087-.115 0-.907.092-1.675-.908-1.976V2.76c0-1.168-.284-2.115-.75-2.115s-.797.947-.797 2.115c0 .402.07.773.148 1.094-.077.275-.112.58-.112.906 0 .04.018.076.02.115h-.508v3.63c-.405.435-.667 1.074-.667 1.8 0 1.306.836 2.365 1.867 2.365s1.867-1.06 1.867-2.366c0-.54-.15-1.03-.39-1.43z"/></g></svg>