<svg xmlns="http://www.w3.org/2000/svg" width="32" height="38" viewBox="0 0 32 38"><g fill="#E37A09"><circle cx="17.5" cy="8.5" r="2.7"/><path d="M30.8 18.5l-5.1.3-3.9-3.9 5.2 1.3 4.3-3.9c.4-.4.4-1 .1-1.4-.4-.4-1-.4-1.4-.1L26.4 14l-4.7-1.2 5.9-3.9-1.7-7.5c-.1-.5-.7-.9-1.2-.8-.5.1-.9.7-.8 1.2L25.3 8l-5.8 3.8h-4.1L9.7 8l1.4-6.2c.1-.5-.2-1.1-.8-1.2-.5-.1-1.1.3-1.2.8L7.5 8.9l5.9 3.9L8.6 14l-3.5-3.2c-.4-.4-1-.3-1.4.1-.4.4-.3 1 .1 1.4l4.3 3.9 5.2-1.3-3.9 3.9-5.1-.3c-.5 0-1 .4-1.1.9 0 .6.4 1 .9 1.1l6 .3L15 16v20.9c0 .6.4 1 1 1s1-.4 1-1v-12h1v12c0 .6.4 1 1 1s1-.4 1-1V16l4.9 4.8 6-.3c.6 0 1-.5.9-1.1 0-.5-.5-.9-1-.9z"/><path d="M4.9 8.9c.7-1 .1-2 .5-4.4.1-.6.2-1.1.4-1.4-.4.1-.9.3-1.1.6-.3.4-.2.8-.3.8-.1 0-.2-1.2.2-2.6.2-.6.4-1 .6-1.3-.2.1-.8.5-1.3 1.2-.4.7-.4 1.4-.4 1.6 0 0-.2-.4-.7-.5-.6-.2-1.1.2-1.1.3.1 0 .5.1.8.5.3.6-.1 1.4-.3 1.4-.2 0-.2-.9-.4-.9s-.4.7-.4 1.4c0 .8.4 1.3.6 1.6-.4-.1-.8-.2-1.1-.6-.6-.8 0-2-.1-2S-.1 5.8.2 7.3c.2 1.1 1.2 2.5 2.5 2.6.8 0 1.7-.4 2.2-1zM2.7 2.1c-.1 0-.6-.6-.5-1.2.1-.5.5-.8.6-.9-.1.2-.2.6-.2 1 0 .7.2 1.1.1 1.1zM18.7 7.6h-2.4c-.7 0-1.2-.6-1.2-1.2 0-.7.6-1.2 1.2-1.2h2.4c.7 0 1.2.6 1.2 1.2 0 .7-.5 1.2-1.2 1.2z"/><path d="M18.4 5.8h-1.7c-.5 0-.9-.4-.9-.9s.4-.9.9-.9H18.4c.5 0 .9.4.9.9-.1.5-.5.9-.9.9z"/><path d="M16.2 5.1V2.8c0-.7.6-1.2 1.2-1.2.7 0 1.2.6 1.2 1.2v2.4c0 .7-.6 1.2-1.2 1.2s-1.2-.6-1.2-1.3z"/></g></svg>