<svg xmlns="http://www.w3.org/2000/svg" width="93.641" height="93.219" viewBox="0 0 93.641 93.219"><path fill="#7ACC78" d="M91.644 46.608c0 24.64-20.068 44.608-44.826 44.608C22.066 91.22 2 71.246 2 46.608S22.066 2 46.817 2c24.758 0 44.827 19.97 44.827 44.608"/><path fill="#FFF" d="M77.213 21.375h-18.88c-6.176 0-9.195 1.452-10.665 2.962-1.462-1.51-4.483-2.962-10.66-2.962H18.125c-.9 0-1.623.737-1.623 1.64V67.71c0 .91.724 1.64 1.623 1.64h18.883c3.985 0 7.968 1.7 8.005 1.91h.025c.81.61.813.602 1.623.602h2.16c.824 0 .865.01 1.6-.76.134-.23 4.248-1.752 7.91-1.752H77.214c.9 0 1.627-.738 1.627-1.64V23.015c0-.903-.724-1.64-1.627-1.64M45.22 27.313v40.924s-3.463-1.91-8.138-1.91H19.79V24.403h17.293c9.048 0 8.138 2.91 8.138 2.91m8.866 9.21h14.406v1.974H54.086v-1.973zM68.493 54.29H54.087v-1.97h14.406v1.97zm0-3.95H54.087v-1.97h14.406v1.97zm0-3.94H54.087V44.42h14.406v1.977zm0-3.954H54.087V40.47h14.406v1.974z"/><path fill="#FFF" d="M25.127 44.42h14.406v1.98H25.127zM31.43 36.524h8.104V38.5H31.43zM25.127 40.472h14.406v1.975H25.127zM25.127 48.368h14.406v1.97H25.127zM25.127 52.317h14.406v1.97H25.127z"/><path fill="#70B76C" d="M46.816 89.22h-.014V71.86h2.094c.75 0 .813-.01 1.523-.76.132-.23 4.247-1.75 7.91-1.75H77.21c.902 0 1.628-.74 1.628-1.643v-44.69c0-.9-.724-1.64-1.627-1.64H58.33c-6.175 0-9.194 1.452-10.663 2.96-.245-.25-.53-.5-.865-.74V4h.014c.285 0 .57 0 .854.007 1.073.022 2.136.082 3.188.18.007.003.013.003.02.003l.21.02.064.006c.06.01.12.016.182.02.03.005.06.007.09.01.053.007.11.01.162.02l.106.012.147.018.12.015c.043.006.084.01.127.017l.15.018.102.015.165.02c.033 0 .062.005.094.01.06.01.118.018.178.024l.077.01.192.03.063.007.21.032.046.008c.073.01.147.022.224.034.01 0 .024.004.036.006.078.01.156.025.234.038.008 0 .016.002.02.004.083.014.167.027.247.042h.013c8.1 1.39 15.414 5.038 21.277 10.277 0 .002 0 .003.003.005.062.054.123.108.185.165l.01.006.18.166c.002.002.007.004.01.008l.182.166.008.006c.057.056.114.11.174.164.004.004.01.008.013.014.06.055.116.11.176.166.004.003.008.006.01.01l.18.17c0 .002.004.004.006.006l.17.166c.006.003.01.01.017.013.055.056.11.11.168.165.005.004.01.01.015.017.06.06.12.116.182.18 7.75 7.717 12.54 18.354 12.54 30.125 0 11.77-4.788 22.41-12.54 30.13l-.182.18c-.006 0-.012.012-.018.012-.056.058-.11.107-.164.156-.01.013-.02.02-.026.03-.052.052-.106.102-.16.15-.003.01-.006.01-.007.01-.06.06-.117.11-.176.17-.006 0-.015.01-.02.022-.058.05-.11.1-.17.15-.005.01-.01.01-.015.02-.06.05-.114.108-.17.16-.01 0-.018.01-.022.02-.055.05-.11.1-.168.15-.006.012-.012.012-.018.02l-.172.15c-.004.01-.01.01-.015.02-.06.05-.12.1-.178.16-.005 0-.008 0-.012.01-.062.05-.12.103-.183.16h-.008c-.127.12-.252.23-.38.34-5.892 5.07-13.185 8.58-21.23 9.853-.007.01-.01.01-.017.01l-.237.03c-.013.012-.024.012-.035.012l-.226.027c-.016.01-.03.01-.046.01l-.214.03c-.02 0-.038.01-.056.01-.07.01-.135.02-.203.028h-.065c-.063.013-.125.02-.188.03-.03 0-.06.01-.086.01-.06.012-.113.012-.17.022-.032 0-.066.01-.1.01-.052.01-.102.01-.15.02-.042.01-.083.01-.124.01-.04.01-.082.01-.123.02-.052 0-.103.012-.15.012-.03.012-.063.012-.096.012-.062.008-.12.018-.18.018-.022.01-.042.01-.064.01-.067.013-.138.013-.207.022h-.034c-1.048.1-2.104.16-3.175.18-.28-.005-.565-.005-.85-.005"/><path fill="#8BC48A" d="M68.493 54.288H54.087v-1.97h14.406v1.97zm0-3.95H54.087v-1.97h14.406v1.97zm0-3.94H54.087V44.42h14.406v1.977zm0-3.954H54.087V40.47h14.406v1.974zm0-3.947H54.087v-1.973h14.406v1.973z"/><path fill="#E8E8E8" d="M48.896 71.858h-2.093V23.596c.336.24.62.49.864.74 1.47-1.51 4.49-2.962 10.665-2.962h18.88c.904 0 1.628.737 1.628 1.64v44.693c0 .9-.726 1.64-1.627 1.64H58.333c-3.664 0-7.778 1.52-7.912 1.752-.71.75-.774.758-1.524.758m5.19-17.57h14.406v-1.97H54.086v1.97zm0-3.95h14.406v-1.97H54.086v1.97zm0-3.94h14.406V44.42H54.086v1.977zm0-3.954h14.406V40.47H54.086v1.974zm0-3.947h14.406v-1.973H54.086v1.973z"/></svg>