<?xml version="1.0" encoding="utf-8"?>
<!-- Generator: Adobe Illustrator 16.0.0, SVG Export Plug-In . SVG Version: 6.00 Build 0)  -->
<!DOCTYPE svg PUBLIC "-//W3C//DTD SVG 1.1//EN" "http://www.w3.org/Graphics/SVG/1.1/DTD/svg11.dtd">
<svg version="1.1" id="Layer_1" xmlns="http://www.w3.org/2000/svg" xmlns:xlink="http://www.w3.org/1999/xlink" x="0px" y="0px"
	 width="112.762px" height="112.25px" viewBox="0 0 112.762 112.25" enable-background="new 0 0 112.762 112.25"
	 xml:space="preserve">
<g>
	<path fill="#FF293D" d="M109.394,55.077c0,29.457-23.879,53.334-53.334,53.334c-29.454,0-53.334-23.877-53.334-53.334
		c0-29.455,23.88-53.333,53.334-53.333C85.515,1.744,109.394,25.622,109.394,55.077"/>
	<path fill="#FFFFFF" d="M111.022,56.129h-1.739c-0.002,14.541-5.916,27.68-15.492,37.221c-9.58,9.529-22.797,15.42-37.414,15.42
		c-14.616,0-27.833-5.891-37.409-15.42c-9.574-9.541-15.49-22.68-15.49-37.221c0-14.539,5.916-27.69,15.49-37.23
		c9.576-9.53,22.793-15.42,37.409-15.42c14.617,0,27.834,5.89,37.414,15.42c9.576,9.54,15.49,22.691,15.492,37.23H111.022h1.74
		C112.759,25.119,87.511,0,56.377,0C25.246,0,0.002,25.119,0,56.129c0.002,30.99,25.246,56.121,56.377,56.121
		c31.134,0,56.38-25.131,56.386-56.121H111.022z"/>
	<polygon fill="#F2C40D" points="57.009,16.14 68.282,38.979 93.488,42.641 75.249,60.42 79.555,85.524 57.009,73.672 
		34.464,85.524 38.771,60.42 20.532,42.641 45.738,38.979 	"/>
	<polygon fill="none" stroke="#FFFFFF" stroke-miterlimit="10" points="57.009,16.14 68.282,38.979 93.488,42.641 75.249,60.42 
		79.555,85.524 57.009,73.672 34.464,85.524 38.771,60.42 20.532,42.641 45.738,38.979 	"/>
	<g opacity="0.2">
		<g>
			<defs>
				<rect id="SVGID_1_" x="54.395" y="1.746" width="54.996" height="106.661"/>
			</defs>
			<clipPath id="SVGID_2_">
				<use xlink:href="#SVGID_1_"  overflow="visible"/>
			</clipPath>
			<path clip-path="url(#SVGID_2_)" fill="#6E797A" d="M56.06,1.744c-0.559,0-1.11,0.024-1.666,0.042V108.37
				c0.556,0.016,1.107,0.041,1.666,0.041c29.455,0,53.334-23.877,53.334-53.334C109.394,25.622,85.515,1.744,56.06,1.744"/>
		</g>
	</g>
</g>
</svg>
