<?xml version="1.0" encoding="utf-8"?>
<!-- Generator: Adobe Illustrator 16.0.0, SVG Export Plug-In . SVG Version: 6.00 Build 0)  -->
<!DOCTYPE svg PUBLIC "-//W3C//DTD SVG 1.1//EN" "http://www.w3.org/Graphics/SVG/1.1/DTD/svg11.dtd">
<svg version="1.1" id="Layer_1" xmlns="http://www.w3.org/2000/svg" xmlns:xlink="http://www.w3.org/1999/xlink" x="0px" y="0px"
	 width="93.641px" height="93.219px" viewBox="0 0 93.641 93.219" enable-background="new 0 0 93.641 93.219" xml:space="preserve">
<g>
	<path fill="#A475EF" d="M91.639,46.62c0,24.63-20.067,44.602-44.817,44.602C22.069,91.221,2,71.25,2,46.62
		C2,21.97,22.069,2,46.821,2C71.571,2,91.639,21.97,91.639,46.62"/>
	<path fill="#FFFFFF" d="M50.949,46.61c6.222-3.88,19.371-13.48,19.371-25.17c0-1.15-0.94-2.08-2.092-2.08
		c-1.147,0-2.078,0.93-2.078,2.08c0,6.37-5.391,12.3-9.92,16.159c-3.801,3.251-7.66,5.621-9.41,6.631
		c-1.75-1.01-5.601-3.38-9.409-6.631c-4.522-3.859-9.919-9.789-9.919-16.159c0-1.15-0.932-2.08-2.081-2.08s-2.082,0.93-2.082,2.08
		c0,11.689,13.142,21.29,19.36,25.17C36.47,50.5,23.326,60.1,23.326,71.791c0,1.148,0.933,2.08,2.085,2.08
		c1.149,0,2.081-0.932,2.081-2.08c0-6.371,5.395-12.311,9.919-16.17c3.799-3.24,7.659-5.61,9.409-6.621
		c1.75,1.011,5.609,3.381,9.41,6.621c4.529,3.859,9.92,9.799,9.92,16.17c0,1.148,0.931,2.08,2.078,2.08
		c1.15,0,2.092-0.932,2.092-2.08C70.32,60.1,57.171,50.5,50.949,46.61"/>
	<path fill="#FFFFFF" d="M52.219,39.25L41.53,39.33c2.979,2.101,5.291,3.32,5.291,3.32S49.19,41.4,52.219,39.25"/>
	<path fill="#FFFFFF" d="M57.52,34.97H36.129c1,0.939,2.032,1.811,3.041,2.601h15.313C55.481,36.781,56.51,35.91,57.52,34.97"/>
	<path fill="#FFFFFF" d="M61.479,30.6H32.165c0.677,0.911,1.418,1.779,2.195,2.609h24.92C60.059,32.38,60.799,31.511,61.479,30.6"/>
	<path fill="#FFFFFF" d="M64.02,26.241H29.624c0.371,0.9,0.826,1.76,1.346,2.61h31.7C63.2,28,63.651,27.141,64.02,26.241"/>
	<path fill="#FFFFFF" d="M64.629,24.49c0.24-0.86,0.393-1.729,0.441-2.61h-36.5c0.055,0.881,0.207,1.75,0.444,2.61H64.629"/>
	<path fill="#FFFFFF" d="M41.42,54.141l10.689-0.08c-2.97-2.101-5.289-3.32-5.289-3.32S44.449,51.99,41.42,54.141"/>
	<path fill="#FFFFFF" d="M36.129,58.43h21.393c-1.01-0.939-2.039-1.812-3.039-2.609H39.17C38.16,56.619,37.129,57.49,36.129,58.43"
		/>
	<path fill="#FFFFFF" d="M32.164,62.789h29.314c-0.68-0.908-1.419-1.778-2.199-2.6H34.361C33.582,61.01,32.843,61.881,32.164,62.789
		"/>
	<path fill="#FFFFFF" d="M29.623,67.15H64.02c-0.369-0.892-0.82-1.76-1.35-2.601h-31.7C30.449,65.391,29.994,66.26,29.623,67.15"/>
	<path fill="#FFFFFF" d="M29.012,68.91c-0.233,0.851-0.388,1.721-0.44,2.601h36.5c-0.051-0.88-0.202-1.75-0.442-2.601H29.012"/>
	<path fill="#8D6AD3" d="M46.82,89.221V71.51h18.25c-0.051-0.88-0.2-1.75-0.44-2.601H46.82v-1.76h17.2
		c-0.369-0.892-0.819-1.76-1.35-2.601H46.82v-1.76h14.658c-0.68-0.91-1.42-1.78-2.199-2.602H46.82v-1.76h10.7
		c-1.011-0.939-2.039-1.81-3.039-2.609h-7.66V54.1l5.289-0.039c-2.971-2.101-5.289-3.32-5.289-3.32V49
		c1.75,1.012,5.609,3.381,9.41,6.621c4.528,3.859,9.92,9.799,9.92,16.17c0,1.148,0.931,2.08,2.078,2.08
		c1.15,0,2.092-0.932,2.092-2.08C70.32,60.1,57.171,50.5,50.95,46.61c6.221-3.88,19.37-13.48,19.37-25.17
		c0-1.15-0.94-2.08-2.092-2.08c-1.147,0-2.078,0.93-2.078,2.08c0,6.37-5.392,12.3-9.92,16.159c-3.801,3.251-7.66,5.621-9.41,6.631
		v-0.01v-1.57c0,0,2.369-1.25,5.397-3.4l-5.397,0.04v-1.719h7.66c1-0.79,2.028-1.661,3.039-2.601H46.82V33.21h12.459
		c0.779-0.83,1.521-1.699,2.199-2.609H46.82v-1.75h15.851C63.2,28,63.65,27.14,64.02,26.24h-17.2v-1.75h17.81
		c0.24-0.86,0.391-1.729,0.44-2.61H46.82V4c0.289,0,0.568,0.011,0.851,0.011c7.979,0.159,15.42,2.479,21.75,6.398
		c0.01,0.01,0.02,0.021,0.039,0.03c0.041,0.03,0.09,0.06,0.141,0.08c0.021,0.02,0.051,0.04,0.07,0.051
		c0.039,0.028,0.08,0.049,0.119,0.079c0.03,0.02,0.069,0.04,0.1,0.06c0.041,0.021,0.07,0.05,0.111,0.071
		c0.028,0.019,0.069,0.04,0.1,0.069c0.039,0.02,0.07,0.04,0.101,0.06c0.041,0.03,0.079,0.05,0.12,0.08
		c0.029,0.021,0.06,0.041,0.091,0.06c0.039,0.03,0.08,0.051,0.118,0.08c0.029,0.021,0.062,0.04,0.091,0.061
		c0.041,0.02,0.09,0.05,0.131,0.08c0.02,0.02,0.049,0.029,0.069,0.051c0.05,0.028,0.091,0.059,0.14,0.099
		c0.02,0.012,0.051,0.03,0.069,0.04c0.052,0.04,0.091,0.071,0.142,0.101c0.02,0.02,0.049,0.029,0.07,0.04
		c0.049,0.04,0.09,0.069,0.139,0.109c0.021,0.011,0.041,0.03,0.061,0.04c0.052,0.031,0.101,0.071,0.15,0.101
		c0.02,0.02,0.039,0.029,0.061,0.05c0.05,0.029,0.101,0.07,0.148,0.1c0.021,0.021,0.041,0.031,0.061,0.04
		c0.052,0.04,0.101,0.08,0.15,0.11c0.02,0.02,0.039,0.031,0.061,0.04c0.05,0.04,0.091,0.08,0.14,0.109
		c0.02,0.021,0.041,0.03,0.061,0.04c0.051,0.04,0.101,0.08,0.15,0.11c0.02,0.021,0.039,0.03,0.049,0.04
		c0.061,0.041,0.111,0.081,0.16,0.12c0.01,0.01,0.031,0.02,0.051,0.04c0.049,0.04,0.1,0.07,0.15,0.109
		c0.02,0.021,0.028,0.03,0.049,0.04c0.051,0.04,0.1,0.08,0.149,0.12c0.021,0.012,0.041,0.021,0.052,0.04
		c0.049,0.04,0.1,0.08,0.147,0.111c0.021,0.019,0.041,0.029,0.051,0.039c0.063,0.04,0.109,0.08,0.16,0.12
		c0.011,0.02,0.029,0.029,0.039,0.04c0.051,0.04,0.111,0.08,0.16,0.119c0.012,0.011,0.031,0.03,0.041,0.04
		c0.049,0.041,0.109,0.08,0.16,0.12c0.01,0.021,0.029,0.03,0.039,0.04c0.051,0.04,0.1,0.08,0.16,0.131
		c0.011,0.01,0.02,0.02,0.041,0.029c0.049,0.04,0.1,0.09,0.147,0.13c0.021,0.011,0.031,0.021,0.041,0.03
		c0.062,0.05,0.109,0.09,0.16,0.14c0.01,0.011,0.029,0.021,0.039,0.03c0.051,0.04,0.102,0.08,0.16,0.13
		c0.01,0.011,0.021,0.021,0.031,0.03c0.059,0.05,0.108,0.09,0.159,0.14c0.011,0.011,0.029,0.021,0.039,0.03
		c0.052,0.041,0.101,0.09,0.16,0.14c0.01,0.011,0.021,0.011,0.029,0.021c0.051,0.049,0.111,0.099,0.16,0.139
		c0.01,0.011,0.02,0.021,0.031,0.03c0.049,0.05,0.108,0.1,0.159,0.14c0.011,0.01,0.021,0.021,0.029,0.03
		c0.062,0.05,0.109,0.102,0.16,0.14c0.01,0.011,0.02,0.021,0.029,0.03c0.061,0.05,0.108,0.102,0.159,0.15
		c0.011,0.01,0.021,0.02,0.029,0.02c0.051,0.05,0.111,0.101,0.159,0.15c0.011,0.01,0.022,0.02,0.032,0.029
		c0.049,0.051,0.108,0.102,0.16,0.15c0.01,0.01,0.02,0.01,0.028,0.021c0.052,0.05,0.101,0.1,0.16,0.149
		c0.01,0.01,0.01,0.021,0.021,0.031c0.061,0.049,0.108,0.099,0.17,0.159c0,0,0.01,0.01,0.02,0.01c0.051,0.06,0.111,0.11,0.159,0.16
		c0.011,0.01,0.011,0.01,0.022,0.02c0.059,0.05,0.108,0.11,0.17,0.16c0,0.01,0.01,0.01,0.01,0.021c0.059,0.06,0.119,0.119,0.18,0.18
		c7.76,7.72,12.539,18.36,12.539,30.13c0,11.76-4.779,22.399-12.539,30.12c-0.061,0.061-0.121,0.119-0.18,0.18
		c0,0.011-0.01,0.011-0.021,0.021c-0.051,0.051-0.102,0.102-0.159,0.16c-0.013,0.01-0.022,0.021-0.031,0.021
		c-0.049,0.049-0.101,0.109-0.15,0.16c-0.01,0-0.02,0.01-0.02,0.01c-0.062,0.06-0.109,0.109-0.17,0.16
		c-0.011,0.01-0.021,0.021-0.029,0.029c-0.051,0.051-0.1,0.1-0.16,0.149l-0.02,0.021c-0.052,0.051-0.111,0.1-0.16,0.149
		c-0.01,0.011-0.021,0.021-0.031,0.029c-0.049,0.041-0.109,0.101-0.16,0.142c-0.01,0.01-0.01,0.02-0.02,0.02
		c-0.062,0.051-0.109,0.109-0.17,0.16c-0.011,0-0.021,0.01-0.021,0.02c-0.061,0.052-0.108,0.101-0.17,0.15
		c-0.01,0-0.01,0.01-0.02,0.02c-0.062,0.052-0.111,0.101-0.17,0.15c-0.013,0-0.022,0.01-0.022,0.02
		c-0.058,0.052-0.118,0.101-0.169,0.15c-0.01,0-0.021,0.01-0.021,0.01c-0.062,0.052-0.118,0.101-0.18,0.15
		c0,0.01-0.01,0.02-0.02,0.02c-0.062,0.052-0.112,0.101-0.17,0.15C74.65,79,74.65,79,74.639,79c-0.059,0.062-0.119,0.109-0.18,0.16
		l-0.01,0.01c-0.062,0.052-0.13,0.101-0.19,0.15c0,0.01,0,0.01-0.009,0.01c-0.062,0.051-0.121,0.101-0.181,0.16
		c-0.012,0-0.012,0-0.021,0.01c-0.059,0.052-0.119,0.101-0.18,0.15c-0.011,0-0.011,0-0.011,0.01
		c-0.069,0.051-0.131,0.101-0.188,0.15c-0.01,0-0.01,0.01-0.01,0.01c-0.07,0.051-0.132,0.1-0.201,0.15v0.01
		c-0.07,0.051-0.129,0.1-0.2,0.149v0.009c-5.06,3.95-11.03,6.791-17.541,8.162H55.71c-0.08,0.02-0.17,0.038-0.25,0.049
		c-0.01,0.01-0.01,0.01-0.021,0.01c-0.08,0.012-0.16,0.029-0.239,0.051h-0.029c-0.07,0.021-0.15,0.029-0.23,0.051h-0.028
		c-0.08,0.021-0.15,0.029-0.23,0.039c-0.01,0.011-0.02,0.011-0.041,0.011c-0.068,0.021-0.139,0.03-0.209,0.041
		c-0.02,0-0.041,0.01-0.061,0.01c-0.07,0.01-0.129,0.028-0.199,0.039c-0.021,0-0.041,0-0.062,0.01
		c-0.069,0.012-0.129,0.021-0.198,0.031c-0.021,0-0.052,0.01-0.07,0.01c-0.062,0.01-0.121,0.02-0.189,0.029
		c-0.021,0.01-0.051,0.01-0.08,0.021c-0.061,0-0.11,0.01-0.17,0.021c-0.041,0.01-0.069,0.01-0.102,0.02
		c-0.049,0.01-0.109,0.01-0.16,0.021c-0.039,0.01-0.068,0.01-0.109,0.021c-0.049,0-0.1,0.01-0.149,0.021
		c-0.039,0-0.079,0.01-0.119,0.01c-0.041,0.01-0.09,0.02-0.141,0.02c-0.039,0.011-0.08,0.021-0.119,0.021
		c-0.051,0.01-0.09,0.01-0.131,0.021c-0.05,0-0.101,0.011-0.14,0.021c-0.041,0-0.08,0-0.121,0.01c-0.051,0.01-0.1,0.01-0.149,0.02
		c-0.039,0-0.07,0.011-0.101,0.011c-0.061,0.01-0.118,0.01-0.17,0.021c-0.028,0-0.051,0.01-0.08,0.01
		c-0.061,0.011-0.129,0.011-0.198,0.021h-0.052c-0.069,0.01-0.141,0.02-0.221,0.029H51.12c-1.129,0.11-2.289,0.18-3.449,0.2
		C47.389,89.221,47.109,89.221,46.82,89.221"/>
	<path fill="#D8D8D8" d="M68.229,73.869c-1.147,0-2.077-0.93-2.077-2.078c0-6.371-5.393-12.311-9.921-16.172
		c-3.801-3.238-7.659-5.607-9.409-6.619v-4.778v0.01c1.75-1.01,5.608-3.38,9.409-6.631c4.528-3.858,9.921-9.789,9.921-16.159
		c0-1.15,0.93-2.08,2.077-2.08c1.149,0,2.093,0.93,2.093,2.08c0,11.689-13.151,21.29-19.371,25.17
		c6.219,3.889,19.37,13.489,19.37,25.18C70.321,72.939,69.379,73.869,68.229,73.869"/>
	<path fill="#D8D8D8" d="M46.82,42.65v-3.36l5.397-0.04C49.189,41.4,46.82,42.65,46.82,42.65"/>
	<path fill="#D8D8D8" d="M54.481,37.571h-7.66V34.97H57.52C56.51,35.91,55.481,36.781,54.481,37.571"/>
	<path fill="#D8D8D8" d="M59.279,33.21H46.82V30.6h14.658C60.8,31.511,60.059,32.38,59.279,33.21"/>
	<path fill="#D8D8D8" d="M62.67,28.851H46.82v-2.61h17.2C63.65,27.141,63.199,28,62.67,28.851"/>
	<path fill="#D8D8D8" d="M64.629,24.49H46.82v-2.61h18.25C65.021,22.761,64.869,23.63,64.629,24.49"/>
	<path fill="#D8D8D8" d="M46.82,54.1v-3.36c0,0,2.318,1.221,5.289,3.32L46.82,54.1"/>
	<path fill="#D8D8D8" d="M57.52,58.43H46.821v-2.61h7.66C55.481,56.619,56.51,57.49,57.52,58.43"/>
	<path fill="#D8D8D8" d="M61.479,62.789H46.821v-2.6H59.28C60.059,61.01,60.799,61.881,61.479,62.789"/>
	<path fill="#D8D8D8" d="M64.02,67.15H46.821V64.55H62.67C63.2,65.391,63.651,66.26,64.02,67.15"/>
	<path fill="#D8D8D8" d="M65.07,71.51H46.82V68.91h17.81C64.87,69.76,65.02,70.631,65.07,71.51"/>
</g>
</svg>
