<?xml version="1.0" encoding="utf-8"?>
<!-- Generator: Adobe Illustrator 16.0.0, SVG Export Plug-In . SVG Version: 6.00 Build 0)  -->
<!DOCTYPE svg PUBLIC "-//W3C//DTD SVG 1.1//EN" "http://www.w3.org/Graphics/SVG/1.1/DTD/svg11.dtd">
<svg version="1.1" id="Layer_1" xmlns="http://www.w3.org/2000/svg" xmlns:xlink="http://www.w3.org/1999/xlink" x="0px" y="0px"
	 width="25.332px" height="25.333px" viewBox="0 0 25.332 25.333" enable-background="new 0 0 25.332 25.333" xml:space="preserve">
<g>
	<path fill="#E92D41" d="M25.332,12.666c0,6.996-5.672,12.667-12.666,12.667C5.671,25.333,0,19.662,0,12.666
		C0,5.671,5.671,0,12.666,0C19.66,0,25.332,5.671,25.332,12.666"/>
	<path fill="#FFFFFF" d="M17.34,7.913l-8.161,8.163l-2.096-3.641c-0.182-0.315-0.584-0.423-0.898-0.243
		c-0.316,0.183-0.425,0.585-0.241,0.899l2.52,4.385c0.03,0.05,0.063,0.093,0.104,0.132c0.002,0.002,0.002,0.004,0.002,0.006
		l0.002,0.001c0.055,0.055,0.123,0.096,0.195,0.128c0.016,0.007,0.031,0.014,0.051,0.02c0.069,0.025,0.141,0.044,0.217,0.044
		c0.075,0,0.149-0.019,0.219-0.044c0.021-0.006,0.037-0.015,0.057-0.022c0.018-0.008,0.037-0.013,0.055-0.022
		c0.026-0.016,0.041-0.04,0.065-0.058c0.022-0.017,0.051-0.027,0.071-0.046l8.772-8.771c0.256-0.257,0.256-0.675,0-0.931
		C18.015,7.656,17.598,7.656,17.34,7.913"/>
</g>
</svg>
