<?xml version="1.0" encoding="utf-8"?>
<!-- Generator: Adobe Illustrator 16.0.0, SVG Export Plug-In . SVG Version: 6.00 Build 0)  -->
<!DOCTYPE svg PUBLIC "-//W3C//DTD SVG 1.1//EN" "http://www.w3.org/Graphics/SVG/1.1/DTD/svg11.dtd">
<svg version="1.1" id="Layer_1" xmlns="http://www.w3.org/2000/svg" xmlns:xlink="http://www.w3.org/1999/xlink" x="0px" y="0px"
	 width="93.641px" height="93.219px" viewBox="0 0 93.641 93.219" enable-background="new 0 0 93.641 93.219" xml:space="preserve">
<g>
	<path fill="#66ADF0" d="M91.644,46.62c0,24.63-20.068,44.602-44.826,44.602C22.066,91.221,2,71.25,2,46.62
		C2,21.97,22.066,2,46.817,2C71.575,2,91.644,21.97,91.644,46.62"/>
	<polygon fill="#FFFFFF" points="76.316,73.09 58.741,55.51 76.316,54.389 	"/>
	<path fill="#FFFFFF" d="M76.316,55.279c0,4.34-3.517,7.859-7.853,7.859H25.176c-4.336,0-7.854-3.521-7.854-7.859V31.12
		c0-4.339,3.518-7.85,7.854-7.85h43.289c4.336,0,7.853,3.511,7.853,7.85L76.316,55.279"/>
	<path fill="#66ADF0" d="M39.115,50.17c-0.257,1.58-1.293,2.552-3.039,2.552c-1.584,0-2.134-1.322-2.231-2.392
		c-0.677,0.75-2.065,2.431-4.041,2.459c-1.843,0-3.847-0.94-3.847-3.688c0-4.068,6.594-3.68,7.76-3.75c0,0,0.1-1.062,0.1-2.318
		c0-1.722-0.711-3.012-2.748-3.012c-1.36,0-2.039,0.74-2.2,1.391c0.877,0,0.907,0.959,0.907,1.399c0,1.262-1.161,1.571-1.686,1.571
		c-0.807,0-1.551-0.87-1.551-1.78c0-1,0.84-1.78,1.487-2.261c1.164-0.88,2.556-0.899,3.332-0.899c2.472,0,5.074,1.61,5.074,4.551
		c0,1.979-0.133,3.919-0.133,5.599c0,0.941,0.066,2.101,0.975,2.101c0.839,0,1.097-0.609,1.355-1.81L39.115,50.17z M33.717,45.799
		C30.74,46.131,28.672,46,28.672,48.75c0,1.949,1.132,2.619,2.396,2.619c1.332,0,2.229-1.07,2.648-1.85V45.799z"/>
	<path fill="#66ADF0" d="M48.751,52.82c-1.746,0-3.072-1.23-4.075-2.33c-0.711,0.779-0.905,1.49-1.39,2.229
		c-0.185,0.041-0.347,0.041-0.479,0.041c-0.27,0-0.427-0.041-0.427-0.041c0.052-2.539,0.084-6.318,0.084-10.08
		c0-3.27-0.026-6.529-0.084-8.96c0-0.449-1.261-0.609-2.296-0.68v-0.39c2.238-0.12,4.057-0.53,4.949-0.93l-0.136,10.47
		c0.908-1.231,2.011-2.681,4.173-2.681c2.978,0,5.563,1.869,5.563,6.56C54.635,50.33,51.53,52.82,48.751,52.82 M48.36,40.439
		c-1.904,0-3.104,2.48-3.104,2.48l-0.224,2.92l0.094,3.939c0,0,0.779,1.881,2.941,1.881c2.103,0,3.592-2.399,3.592-5.729
		C51.661,43.7,51.107,40.439,48.36,40.439"/>
	<path fill="#66ADF0" d="M68.631,43.049c0,1.82-1.227,2.49-1.873,2.49c-0.582,0-1.777-0.09-1.777-1.709
		c0-0.93,0.662-1.641,1.326-1.641c0.551,0,0.773,0.149,1.064,0.42c-0.226-0.91-0.84-2.661-3.719-2.661
		c-2.035,0-3.587,2.812-3.587,6.53c0,2.651,1.586,5.431,3.88,5.431c2.844,0,3.491-2.16,3.846-3.129l0.873,0.607
		c-0.42,1.041-1.938,3.592-5.012,3.592c-3.845,0-6.435-2.332-6.435-7.111c0-4.82,4.074-6.47,6.5-6.47
		C65.951,39.399,68.631,40.89,68.631,43.049"/>
	<path fill="#5A9CD1" d="M47.67,89.209V63.139h18.701l9.945,9.95V55.281V31.12c0-4.339-3.516-7.85-7.852-7.85H47.67V4.01h0.002
		C57.73,4.209,66.925,7.85,74.136,13.8h0.002c0.063,0.052,0.127,0.11,0.189,0.16h0.002c0.063,0.052,0.127,0.111,0.19,0.16h0.002
		c0.063,0.062,0.125,0.11,0.187,0.161c0.002,0,0.004,0,0.007,0.009c0.061,0.05,0.122,0.101,0.185,0.15
		c0.001,0.01,0.003,0.01,0.005,0.01c0.062,0.05,0.123,0.11,0.184,0.16h0.008c0.062,0.06,0.12,0.11,0.181,0.16
		c0.002,0.011,0.004,0.011,0.006,0.011c0.063,0.049,0.121,0.109,0.185,0.159c0.063,0.06,0.122,0.109,0.185,0.17
		c0.001,0,0.005,0,0.007,0.01c0.063,0.05,0.118,0.102,0.178,0.161c0.002,0,0.01,0,0.012,0.009c0.058,0.05,0.113,0.101,0.174,0.16
		c0.004,0,0.009,0.01,0.015,0.01c0.059,0.052,0.112,0.111,0.168,0.16c0.004,0,0.008,0.01,0.016,0.01
		c0.055,0.051,0.111,0.11,0.168,0.16c0.004,0,0.01,0.01,0.014,0.01c0.056,0.061,0.111,0.11,0.166,0.16
		c0.011,0.011,0.021,0.021,0.033,0.03c0.049,0.05,0.099,0.1,0.146,0.15c0.01,0.01,0.021,0.01,0.03,0.021
		c0.05,0.049,0.099,0.101,0.15,0.149c0.058,0.06,0.117,0.12,0.178,0.18c7.75,7.72,12.539,18.361,12.539,30.13
		c0,11.759-4.787,22.4-12.539,30.121c-0.118,0.119-0.235,0.229-0.354,0.35H76.75c-0.055,0.05-0.104,0.101-0.158,0.15
		c-0.008,0.01-0.016,0.021-0.023,0.029c-0.055,0.051-0.112,0.1-0.17,0.16c-0.002,0-0.006,0-0.01,0.01
		c-0.057,0.051-0.113,0.1-0.168,0.16c-0.008,0-0.012,0.01-0.016,0.01c-0.056,0.051-0.113,0.111-0.17,0.16
		c-0.006,0-0.009,0.012-0.013,0.012c-0.061,0.049-0.118,0.107-0.174,0.158c-0.004,0-0.01,0.01-0.012,0.01
		c-0.057,0.051-0.111,0.1-0.168,0.148c-0.006,0.012-0.014,0.012-0.019,0.021c-0.057,0.051-0.116,0.103-0.174,0.162
		c-0.004,0-0.006,0-0.012,0.008c-0.057,0.051-0.113,0.101-0.172,0.15c-0.006,0-0.012,0.01-0.017,0.01
		c-0.057,0.051-0.114,0.1-0.17,0.15c-0.006,0.01-0.015,0.02-0.021,0.02c-0.057,0.051-0.109,0.103-0.166,0.15
		c-0.008,0-0.016,0.012-0.021,0.02c-0.059,0.041-0.112,0.09-0.168,0.142c-0.008,0.01-0.018,0.01-0.024,0.02
		c-0.054,0.051-0.107,0.09-0.166,0.141c-0.008,0.011-0.017,0.021-0.023,0.021c-0.057,0.051-0.112,0.1-0.168,0.141
		c-0.01,0.011-0.018,0.021-0.026,0.021c-0.054,0.051-0.107,0.1-0.162,0.141c-0.011,0.01-0.021,0.021-0.033,0.029
		c-0.055,0.039-0.107,0.092-0.164,0.131c-0.008,0.01-0.019,0.021-0.027,0.027c-0.057,0.041-0.11,0.092-0.164,0.133
		c-0.011,0.01-0.022,0.02-0.034,0.02c-0.052,0.05-0.107,0.091-0.164,0.14c-0.009,0-0.021,0.012-0.031,0.021
		c-0.055,0.049-0.107,0.09-0.162,0.129c-0.012,0.011-0.023,0.021-0.037,0.031c-0.055,0.039-0.107,0.08-0.16,0.129
		c-0.014,0.01-0.026,0.021-0.037,0.021c-0.055,0.049-0.106,0.088-0.16,0.127c-0.014,0.012-0.028,0.021-0.041,0.03
		c-0.053,0.041-0.106,0.08-0.161,0.121c-0.013,0.011-0.025,0.021-0.039,0.031c-0.052,0.039-0.104,0.078-0.158,0.119
		c-0.015,0.01-0.029,0.02-0.045,0.039c-0.054,0.041-0.105,0.08-0.16,0.108c-0.014,0.011-0.025,0.021-0.041,0.031
		c-0.053,0.039-0.105,0.08-0.158,0.119c-0.016,0.01-0.031,0.029-0.047,0.041c-0.053,0.029-0.104,0.068-0.156,0.107
		c-0.018,0.012-0.033,0.021-0.051,0.041c-0.051,0.03-0.104,0.069-0.15,0.11c-0.021,0.011-0.039,0.021-0.059,0.039
		c-0.051,0.031-0.102,0.07-0.15,0.101c-0.02,0.021-0.036,0.03-0.053,0.041c-0.053,0.039-0.102,0.069-0.151,0.108
		c-0.021,0.01-0.042,0.031-0.063,0.041c-0.049,0.029-0.096,0.07-0.145,0.101c-0.023,0.02-0.046,0.028-0.068,0.049
		c-0.047,0.031-0.092,0.061-0.139,0.092c-0.023,0.02-0.048,0.027-0.074,0.049c-0.045,0.031-0.092,0.062-0.138,0.09
		c-0.027,0.021-0.051,0.04-0.074,0.051c-0.047,0.028-0.094,0.061-0.138,0.09c-0.028,0.02-0.058,0.039-0.084,0.061
		c-0.043,0.029-0.084,0.049-0.127,0.08c-0.032,0.021-0.063,0.041-0.097,0.059c-0.036,0.031-0.075,0.052-0.114,0.08l-0.102,0.062
		c-0.039,0.029-0.075,0.051-0.113,0.08c-0.037,0.02-0.076,0.039-0.113,0.069c-0.032,0.021-0.065,0.039-0.099,0.062
		c-0.05,0.029-0.101,0.059-0.15,0.09c-0.021,0.021-0.043,0.029-0.064,0.049c-4.668,2.892-9.937,4.92-15.579,5.861h-0.017
		c-0.08,0.01-0.162,0.02-0.242,0.039h-0.027c-0.076,0.01-0.151,0.031-0.227,0.041H53.32c-0.07,0.01-0.14,0.02-0.211,0.039h-0.056
		c-0.069,0.012-0.137,0.02-0.203,0.028c-0.022,0.011-0.045,0.011-0.067,0.011c-0.063,0.012-0.129,0.021-0.192,0.03
		c-0.024,0-0.052,0-0.075,0.011c-0.061,0.01-0.119,0.01-0.18,0.02c-0.029,0.01-0.063,0.01-0.096,0.01
		c-0.054,0.011-0.106,0.021-0.162,0.021c-0.035,0.01-0.069,0.01-0.104,0.02c-0.05,0-0.1,0.011-0.147,0.011
		c-0.043,0.01-0.086,0.01-0.129,0.02c-0.039,0-0.078,0.01-0.117,0.01c-0.053,0.011-0.103,0.011-0.152,0.021
		c-0.031,0-0.063,0-0.094,0.01c-0.062,0-0.123,0.01-0.184,0.021h-0.059c-0.069,0.01-0.142,0.021-0.211,0.021
		c-0.011,0-0.022,0-0.032,0.008c-1.047,0.09-2.108,0.15-3.178,0.17H47.67"/>
	<path fill="#D8D8D8" d="M76.316,73.09l-9.944-9.95h2.093c4.336,0,7.853-3.521,7.853-7.857L76.316,73.09"/>
	<path fill="#D8D8D8" d="M68.465,63.141h-2.093H47.671V52.66c0.339,0.101,0.701,0.16,1.08,0.16c2.778,0,5.884-2.49,5.884-6.789
		c0-4.692-2.586-6.562-5.563-6.562c-0.524,0-0.987,0.079-1.399,0.229V23.27h20.794c4.337,0,7.853,3.511,7.853,7.85v24.161
		C76.316,59.619,72.801,63.141,68.465,63.141 M63.719,39.4c-2.426,0-6.5,1.649-6.5,6.47c0,4.781,2.588,7.111,6.434,7.111
		c3.072,0,4.593-2.551,5.013-3.592l-0.873-0.607c-0.355,0.969-1.002,3.129-3.847,3.129c-2.295,0-3.881-2.781-3.881-5.429
		c0-3.721,1.554-6.532,3.588-6.532c2.879,0,3.492,1.75,3.72,2.661c-0.291-0.271-0.517-0.42-1.066-0.42
		c-0.664,0-1.326,0.711-1.326,1.641c0,1.619,1.197,1.709,1.778,1.709c0.646,0,1.873-0.67,1.873-2.489
		C68.631,40.891,65.952,39.4,63.719,39.4 M48.068,51.66c-0.139,0-0.271-0.01-0.397-0.031V40.55c0.217-0.068,0.447-0.109,0.688-0.109
		c2.748,0,3.302,3.26,3.302,5.491C51.661,49.26,50.173,51.66,48.068,51.66"/>
	<path fill="#8CB0D1" d="M48.75,52.82c-0.379,0-0.738-0.062-1.079-0.16v-1.029c0.127,0.021,0.261,0.029,0.397,0.029
		c2.104,0,3.592-2.399,3.592-5.729c0-2.23-0.553-5.49-3.301-5.49c-0.242,0-0.472,0.039-0.688,0.108V39.7
		c0.411-0.15,0.875-0.229,1.399-0.229c2.979,0,5.564,1.869,5.564,6.562C54.636,50.33,51.529,52.82,48.75,52.82"/>
	<path fill="#8CB0D1" d="M63.652,52.98c-3.846,0-6.435-2.332-6.435-7.111c0-4.82,4.075-6.47,6.5-6.47
		c2.233,0,4.913,1.491,4.913,3.649c0,1.82-1.228,2.49-1.874,2.49c-0.582,0-1.778-0.09-1.778-1.709c0-0.93,0.662-1.641,1.326-1.641
		c0.551,0,0.775,0.149,1.066,0.42c-0.228-0.91-0.841-2.66-3.72-2.66c-2.034,0-3.588,2.811-3.588,6.531
		c0,2.649,1.586,5.429,3.881,5.429c2.845,0,3.49-2.16,3.847-3.131l0.873,0.609C68.245,50.43,66.725,52.98,63.652,52.98"/>
</g>
</svg>
