<?xml version="1.0" encoding="utf-8"?>
<!-- Generator: Adobe Illustrator 16.0.0, SVG Export Plug-In . SVG Version: 6.00 Build 0)  -->
<!DOCTYPE svg PUBLIC "-//W3C//DTD SVG 1.1//EN" "http://www.w3.org/Graphics/SVG/1.1/DTD/svg11.dtd">
<svg version="1.1" id="Layer_1" xmlns="http://www.w3.org/2000/svg" xmlns:xlink="http://www.w3.org/1999/xlink" x="0px" y="0px"
	 width="93.64px" height="93.218px" viewBox="0 0 93.64 93.218" enable-background="new 0 0 93.64 93.218" xml:space="preserve">
<g>
	<path fill="#66ADF0" d="M91.644,46.62c0,24.63-20.068,44.601-44.826,44.601C22.066,91.221,2,71.25,2,46.62
		C2,21.97,22.066,2,46.817,2C71.575,2,91.644,21.97,91.644,46.62"/>
	<path fill="#FFFFFF" d="M91.644,46.62h-2.003c0,11.759-4.786,22.4-12.538,30.121c-7.755,7.709-18.451,12.48-30.285,12.48
		c-11.832,0-22.524-4.771-30.279-12.48C8.788,69.02,4,58.379,4,46.62C4,34.85,8.788,24.2,16.538,16.49
		C24.293,8.77,34.985,4,46.817,4c11.834,0,22.53,4.77,30.285,12.49c7.75,7.72,12.538,18.36,12.538,30.13H91.644h1.997
		C93.641,20.86,72.672,0,46.817,0C20.969,0,0.002,20.86,0,46.62c0.002,25.74,20.969,46.601,46.817,46.601
		c25.854,0,46.821-20.861,46.823-46.601H91.644"/>
	<path fill="#DEDEDE" d="M93.642,46.62h-1.998h-2.002c0,11.761-4.787,22.4-12.539,30.121c-7.569,7.529-17.937,12.25-29.43,12.469v4
		C73.132,92.76,93.64,72.08,93.642,46.62 M47.673,0.01v4c11.493,0.23,21.86,4.95,29.43,12.48c7.75,7.72,12.539,18.361,12.539,30.13
		h2.002h1.998C93.642,21.15,73.132,0.459,47.673,0.01"/>
	<polygon fill="#FFFFFF" points="76.316,73.09 58.741,55.51 76.316,54.389 	"/>
	<path fill="#FFFFFF" d="M76.316,55.279c0,4.34-3.516,7.859-7.852,7.859H25.176c-4.336,0-7.854-3.52-7.854-7.859V31.12
		c0-4.339,3.518-7.85,7.854-7.85h43.289c4.336,0,7.852,3.511,7.852,7.85V55.279"/>
	<path fill="#66ADF0" d="M39.115,50.17c-0.257,1.58-1.293,2.551-3.039,2.551c-1.584,0-2.134-1.322-2.232-2.391
		c-0.676,0.75-2.065,2.43-4.041,2.459c-1.842,0-3.846-0.941-3.846-3.689c0-4.068,6.594-3.679,7.76-3.75c0,0,0.099-1.061,0.099-2.318
		c0-1.722-0.711-3.012-2.748-3.012c-1.36,0-2.039,0.74-2.2,1.391c0.877,0,0.907,0.959,0.907,1.399c0,1.262-1.161,1.572-1.685,1.572
		c-0.807,0-1.551-0.871-1.551-1.781c0-1,0.84-1.78,1.487-2.26c1.164-0.88,2.556-0.9,3.332-0.9c2.472,0,5.074,1.61,5.074,4.551
		c0,1.979-0.132,3.919-0.132,5.599c0,0.941,0.066,2.1,0.974,2.1c0.839,0,1.097-0.609,1.356-1.809L39.115,50.17z M33.717,45.799
		C30.74,46.131,28.672,46,28.672,48.75c0,1.949,1.131,2.619,2.396,2.619c1.332,0,2.229-1.07,2.649-1.85V45.799z"/>
	<path fill="#66ADF0" d="M48.751,52.82c-1.746,0-3.073-1.23-4.075-2.33c-0.711,0.779-0.906,1.49-1.39,2.229
		c-0.185,0.041-0.347,0.041-0.479,0.041c-0.269,0-0.426-0.041-0.426-0.041c0.051-2.539,0.084-6.318,0.084-10.08
		c0-3.269-0.027-6.529-0.084-8.96c0-0.449-1.261-0.609-2.296-0.679v-0.39c2.238-0.12,4.056-0.53,4.949-0.93l-0.136,10.47
		c0.908-1.231,2.011-2.681,4.173-2.681c2.978,0,5.563,1.87,5.563,6.56C54.635,50.33,51.53,52.82,48.751,52.82 M48.36,40.439
		c-1.904,0-3.103,2.481-3.103,2.481l-0.224,2.92l0.094,3.939c0,0,0.779,1.881,2.941,1.881c2.103,0,3.592-2.4,3.592-5.73
		C51.661,43.7,51.107,40.439,48.36,40.439"/>
	<path fill="#66ADF0" d="M68.631,43.049c0,1.82-1.227,2.49-1.873,2.49c-0.582,0-1.778-0.09-1.778-1.709
		c0-0.93,0.662-1.641,1.326-1.641c0.551,0,0.774,0.15,1.065,0.42c-0.226-0.91-0.84-2.661-3.719-2.661
		c-2.035,0-3.587,2.811-3.587,6.53c0,2.652,1.586,5.431,3.88,5.431c2.844,0,3.491-2.16,3.846-3.129l0.873,0.607
		c-0.42,1.041-1.938,3.592-5.012,3.592c-3.845,0-6.434-2.332-6.434-7.111c0-4.82,4.074-6.47,6.5-6.47
		C65.951,39.399,68.631,40.89,68.631,43.049"/>
	<path fill="#5A9CD1" d="M47.67,89.209v-26.07h18.701l9.945,9.951V55.281V31.12c0-4.339-3.515-7.85-7.851-7.85H47.67V4.01h0.002
		c10.058,0.199,19.253,3.84,26.464,9.79h0.002c0.063,0.051,0.127,0.11,0.19,0.16h0.002c0.063,0.051,0.127,0.111,0.19,0.16h0.002
		c0.063,0.061,0.125,0.11,0.187,0.161c0.002,0,0.004,0,0.007,0.009c0.06,0.05,0.122,0.1,0.184,0.15
		c0.001,0.01,0.003,0.01,0.005,0.01c0.062,0.05,0.123,0.11,0.184,0.16h0.007c0.062,0.06,0.121,0.11,0.181,0.16
		c0.002,0.011,0.004,0.011,0.006,0.011c0.062,0.049,0.121,0.109,0.185,0.159c0.062,0.06,0.122,0.11,0.184,0.17
		c0.001,0,0.005,0,0.007,0.01c0.062,0.05,0.118,0.101,0.178,0.161c0.002,0,0.009,0,0.011,0.009c0.058,0.05,0.114,0.1,0.174,0.16
		c0.004,0,0.009,0.01,0.015,0.01c0.058,0.051,0.112,0.111,0.168,0.16c0.004,0,0.008,0.01,0.015,0.01
		c0.055,0.05,0.112,0.11,0.168,0.16c0.004,0,0.01,0.01,0.014,0.01c0.056,0.06,0.111,0.11,0.166,0.16
		c0.011,0.01,0.022,0.021,0.033,0.03c0.049,0.05,0.099,0.1,0.147,0.15c0.01,0.01,0.021,0.01,0.03,0.021
		c0.05,0.049,0.099,0.1,0.15,0.149c0.058,0.06,0.118,0.12,0.178,0.18c7.75,7.72,12.539,18.361,12.539,30.13
		c0,11.759-4.787,22.4-12.539,30.121c-0.118,0.119-0.235,0.229-0.354,0.35h-0.002c-0.055,0.049-0.104,0.1-0.158,0.15
		c-0.008,0.01-0.016,0.02-0.024,0.029c-0.055,0.051-0.112,0.1-0.17,0.16c-0.002,0-0.006,0-0.01,0.01
		c-0.056,0.051-0.113,0.1-0.168,0.16c-0.007,0-0.011,0.01-0.015,0.01c-0.056,0.051-0.113,0.111-0.17,0.16
		c-0.006,0-0.009,0.012-0.013,0.012c-0.06,0.049-0.118,0.107-0.174,0.158c-0.004,0-0.009,0.01-0.011,0.01
		c-0.057,0.051-0.112,0.1-0.168,0.148c-0.006,0.012-0.014,0.012-0.019,0.021c-0.057,0.051-0.116,0.102-0.174,0.162
		c-0.004,0-0.006,0-0.011,0.008c-0.057,0.051-0.114,0.1-0.172,0.15c-0.006,0-0.012,0.01-0.017,0.01
		c-0.057,0.051-0.114,0.1-0.17,0.15c-0.006,0.01-0.014,0.02-0.021,0.02c-0.057,0.051-0.11,0.102-0.166,0.15
		c-0.008,0-0.016,0.012-0.022,0.02c-0.058,0.041-0.112,0.09-0.168,0.141c-0.008,0.01-0.017,0.01-0.024,0.02
		c-0.054,0.051-0.108,0.09-0.166,0.141c-0.008,0.01-0.017,0.02-0.024,0.02c-0.056,0.051-0.112,0.1-0.168,0.141
		c-0.009,0.01-0.017,0.02-0.026,0.02c-0.054,0.051-0.107,0.1-0.162,0.141c-0.011,0.01-0.021,0.02-0.033,0.029
		c-0.055,0.039-0.108,0.092-0.164,0.131c-0.008,0.01-0.019,0.02-0.028,0.027c-0.056,0.041-0.11,0.092-0.164,0.133
		c-0.01,0.01-0.022,0.02-0.034,0.02c-0.052,0.049-0.107,0.09-0.164,0.139c-0.009,0-0.021,0.012-0.031,0.021
		c-0.055,0.049-0.108,0.09-0.162,0.129c-0.012,0.01-0.024,0.02-0.037,0.031c-0.055,0.039-0.108,0.08-0.161,0.129
		c-0.013,0.01-0.026,0.021-0.037,0.021c-0.054,0.049-0.106,0.088-0.16,0.127c-0.014,0.012-0.028,0.021-0.041,0.031
		c-0.053,0.041-0.106,0.08-0.161,0.121c-0.013,0.01-0.025,0.02-0.039,0.031c-0.052,0.039-0.104,0.078-0.158,0.119
		c-0.015,0.01-0.03,0.02-0.045,0.039c-0.054,0.041-0.106,0.08-0.16,0.109c-0.014,0.01-0.026,0.021-0.041,0.031
		c-0.053,0.039-0.106,0.08-0.159,0.119c-0.015,0.01-0.031,0.029-0.046,0.041c-0.053,0.029-0.104,0.068-0.157,0.107
		c-0.017,0.012-0.033,0.021-0.05,0.041c-0.051,0.031-0.104,0.07-0.151,0.111c-0.021,0.01-0.039,0.02-0.058,0.039
		c-0.051,0.031-0.102,0.07-0.151,0.1c-0.019,0.021-0.036,0.031-0.053,0.041c-0.052,0.039-0.101,0.07-0.151,0.109
		c-0.021,0.01-0.042,0.031-0.063,0.041c-0.049,0.029-0.096,0.07-0.145,0.1c-0.023,0.02-0.046,0.029-0.068,0.049
		c-0.047,0.031-0.092,0.061-0.139,0.092c-0.023,0.02-0.048,0.027-0.074,0.049c-0.045,0.031-0.092,0.061-0.138,0.09
		C70.709,81.98,70.685,82,70.662,82.01c-0.047,0.029-0.094,0.061-0.138,0.09c-0.028,0.02-0.057,0.039-0.084,0.061
		c-0.043,0.029-0.084,0.049-0.127,0.08c-0.032,0.02-0.063,0.041-0.096,0.059c-0.037,0.031-0.076,0.051-0.115,0.08l-0.101,0.061
		c-0.039,0.029-0.075,0.051-0.114,0.08c-0.037,0.02-0.076,0.039-0.113,0.07c-0.032,0.02-0.065,0.039-0.098,0.061
		c-0.05,0.029-0.101,0.059-0.151,0.09c-0.021,0.02-0.043,0.029-0.064,0.049c-4.668,2.891-9.937,4.92-15.579,5.861h-0.017
		c-0.08,0.01-0.162,0.02-0.242,0.039h-0.028c-0.076,0.01-0.151,0.031-0.226,0.041H53.32c-0.07,0.01-0.14,0.02-0.211,0.039h-0.056
		c-0.069,0.012-0.136,0.02-0.203,0.029c-0.022,0.01-0.045,0.01-0.067,0.01c-0.063,0.012-0.129,0.021-0.192,0.031
		c-0.025,0-0.052,0-0.076,0.01c-0.06,0.01-0.119,0.01-0.179,0.02c-0.03,0.01-0.063,0.01-0.096,0.01
		c-0.054,0.01-0.106,0.021-0.162,0.021c-0.035,0.01-0.069,0.01-0.104,0.02c-0.049,0-0.099,0.01-0.147,0.01
		c-0.043,0.01-0.086,0.01-0.129,0.02c-0.039,0-0.078,0.01-0.117,0.01c-0.053,0.01-0.103,0.01-0.153,0.021
		c-0.031,0-0.062,0-0.093,0.01c-0.062,0-0.123,0.01-0.184,0.02h-0.058c-0.07,0.01-0.142,0.021-0.211,0.021
		c-0.011,0-0.023,0-0.033,0.008c-1.047,0.09-2.108,0.15-3.177,0.17H47.67"/>
	<path fill="#D8D8D8" d="M47.67,89.209h0.002v4H47.67V89.209z M50.849,89.039c0.01-0.008,0.022-0.008,0.032-0.008
		C50.869,89.031,50.86,89.031,50.849,89.039 M51.092,89.01h0.06H51.092 M51.334,88.99c0.032-0.01,0.062-0.01,0.092-0.01
		C51.396,88.98,51.364,88.98,51.334,88.99 M51.58,88.959c0.039,0,0.078-0.01,0.118-0.01C51.658,88.949,51.619,88.959,51.58,88.959
		 M51.826,88.93c0.049,0,0.098-0.01,0.147-0.01C51.922,88.92,51.875,88.93,51.826,88.93 M52.078,88.898
		c0.055,0,0.108-0.01,0.163-0.018C52.187,88.889,52.133,88.898,52.078,88.898 M52.336,88.869c0.06-0.01,0.119-0.01,0.178-0.02
		C52.455,88.859,52.396,88.859,52.336,88.869 M52.59,88.84c0.065-0.01,0.129-0.02,0.193-0.031
		C52.719,88.82,52.655,88.83,52.59,88.84 M52.851,88.799c0.067-0.01,0.135-0.018,0.202-0.029
		C52.985,88.781,52.916,88.789,52.851,88.799 M53.11,88.77c0.069-0.02,0.14-0.029,0.211-0.039C53.25,88.74,53.18,88.75,53.11,88.77
		 M53.369,88.73c0.075-0.01,0.149-0.031,0.225-0.041C53.519,88.699,53.444,88.721,53.369,88.73 M53.623,88.689
		c0.08-0.02,0.162-0.029,0.243-0.039C53.785,88.66,53.703,88.67,53.623,88.689 M53.881,88.65c5.644-0.941,10.912-2.971,15.58-5.861
		C64.793,85.68,59.524,87.709,53.881,88.65 M69.526,82.74c0.05-0.031,0.101-0.061,0.149-0.09
		C69.627,82.68,69.576,82.709,69.526,82.74 M69.774,82.59c0.037-0.031,0.076-0.051,0.112-0.07
		C69.851,82.539,69.812,82.559,69.774,82.59 M70.002,82.439l0.101-0.059L70.002,82.439 M70.217,82.299
		c0.033-0.018,0.065-0.039,0.097-0.059C70.282,82.26,70.25,82.281,70.217,82.299 M70.44,82.16c0.026-0.021,0.056-0.041,0.084-0.061
		C70.496,82.119,70.469,82.139,70.44,82.16 M70.662,82.01c0.022-0.01,0.047-0.029,0.069-0.051C70.709,81.98,70.687,82,70.662,82.01
		 M70.869,81.869c0.026-0.021,0.051-0.029,0.075-0.049C70.92,81.84,70.896,81.848,70.869,81.869 M71.082,81.729
		c0.022-0.02,0.045-0.029,0.069-0.049C71.127,81.699,71.104,81.709,71.082,81.729 M71.295,81.58c0.021-0.01,0.041-0.031,0.063-0.041
		C71.336,81.549,71.315,81.57,71.295,81.58 M71.508,81.43c0.019-0.01,0.035-0.02,0.054-0.041
		C71.545,81.41,71.526,81.42,71.508,81.43 M71.713,81.289c0.019-0.02,0.037-0.029,0.058-0.039
		C71.75,81.26,71.733,81.27,71.713,81.289 M71.922,81.139c0.017-0.02,0.033-0.029,0.049-0.041
		C71.955,81.109,71.938,81.119,71.922,81.139 M72.129,80.99c0.015-0.012,0.031-0.031,0.045-0.041
		C72.16,80.959,72.144,80.969,72.129,80.99 M72.334,80.83c0.015-0.01,0.028-0.021,0.041-0.031
		C72.362,80.809,72.349,80.82,72.334,80.83 M72.535,80.689c0.014-0.02,0.03-0.029,0.045-0.041
		C72.565,80.66,72.549,80.67,72.535,80.689 M72.739,80.531c0.013-0.012,0.024-0.021,0.039-0.031
		C72.764,80.51,72.752,80.52,72.739,80.531 M72.938,80.381c0.013-0.012,0.026-0.021,0.041-0.033
		C72.965,80.359,72.953,80.369,72.938,80.381 M73.139,80.221c0.013,0,0.025-0.012,0.037-0.021
		C73.164,80.209,73.151,80.221,73.139,80.221 M73.338,80.07c0.013-0.012,0.026-0.021,0.037-0.031
		C73.364,80.049,73.351,80.059,73.338,80.07 M73.537,79.91c0.01-0.012,0.022-0.021,0.032-0.021
		C73.56,79.889,73.547,79.898,73.537,79.91 M73.733,79.75c0.011,0,0.022-0.01,0.033-0.02C73.754,79.74,73.744,79.75,73.733,79.75
		 M73.93,79.598c0.011-0.008,0.021-0.018,0.029-0.027C73.95,79.58,73.94,79.59,73.93,79.598 M74.123,79.439
		c0.012-0.01,0.022-0.02,0.034-0.029C74.146,79.42,74.135,79.43,74.123,79.439 M74.319,79.27c0.009,0,0.017-0.01,0.024-0.02
		C74.336,79.26,74.328,79.27,74.319,79.27 M74.512,79.109c0.009,0,0.019-0.01,0.025-0.02C74.528,79.1,74.521,79.109,74.512,79.109
		 M74.703,78.949c0.008-0.01,0.016-0.01,0.024-0.02C74.719,78.939,74.711,78.939,74.703,78.949 M74.896,78.789
		c0.008-0.008,0.015-0.02,0.022-0.02C74.91,78.77,74.903,78.781,74.896,78.789 M75.084,78.619c0.006,0,0.015-0.01,0.021-0.02
		C75.099,78.609,75.09,78.619,75.084,78.619 M75.274,78.449c0.006,0,0.011-0.01,0.017-0.01
		C75.285,78.439,75.28,78.449,75.274,78.449 M75.463,78.289c0.004-0.008,0.006-0.008,0.011-0.008
		C75.469,78.281,75.467,78.281,75.463,78.289 M75.647,78.119c0.006-0.01,0.013-0.01,0.019-0.021
		C75.66,78.109,75.653,78.119,75.647,78.119 M75.834,77.949c0.002,0,0.006-0.01,0.01-0.01C75.84,77.939,75.836,77.949,75.834,77.949
		 M76.019,77.781c0.004,0,0.008-0.012,0.014-0.012C76.026,77.77,76.022,77.781,76.019,77.781 M76.201,77.609
		c0.004,0,0.008-0.01,0.014-0.01C76.209,77.6,76.205,77.609,76.201,77.609 M76.383,77.439c0.004-0.01,0.009-0.01,0.011-0.01
		C76.389,77.43,76.387,77.43,76.383,77.439 M76.563,77.27c0.01-0.01,0.017-0.02,0.024-0.029C76.58,77.25,76.573,77.26,76.563,77.27
		 M76.746,77.09h0.002H76.746 M92.651,37.04C88.269,16.149,69.849,0.41,47.672,0.01v4H47.67v-4h0.002
		C69.849,0.41,88.269,16.149,92.651,37.04 M77.103,16.49c-0.06-0.06-0.119-0.12-0.179-0.18C76.983,16.37,77.043,16.43,77.103,16.49
		 M76.774,16.16c-0.011-0.011-0.021-0.011-0.03-0.021C76.754,16.149,76.764,16.149,76.774,16.16 M76.596,15.99
		c-0.01-0.009-0.021-0.02-0.032-0.03C76.575,15.97,76.584,15.981,76.596,15.99 M76.397,15.799c-0.004,0-0.011-0.01-0.015-0.01
		C76.387,15.79,76.394,15.799,76.397,15.799 M76.215,15.63c-0.006,0-0.01-0.011-0.014-0.011C76.205,15.62,76.209,15.63,76.215,15.63
		 M76.033,15.459c-0.005,0-0.011-0.01-0.015-0.01C76.022,15.45,76.028,15.459,76.033,15.459 M75.844,15.29
		c-0.002-0.009-0.008-0.009-0.01-0.009C75.838,15.281,75.84,15.281,75.844,15.29 M75.657,15.12
		c-0.002-0.009-0.006-0.009-0.008-0.009C75.651,15.11,75.655,15.11,75.657,15.12 M75.465,14.94L75.465,14.94 M75.282,14.781
		c-0.002,0-0.004,0-0.006-0.011C75.278,14.781,75.28,14.781,75.282,14.781 M75.094,14.61h-0.006H75.094 M74.905,14.45
		c-0.002,0-0.004,0-0.006-0.01C74.901,14.45,74.903,14.45,74.905,14.45 M74.715,14.29c-0.002-0.009-0.004-0.009-0.006-0.009
		C74.711,14.281,74.713,14.281,74.715,14.29 M74.522,14.12h-0.002H74.522 M74.33,13.959h-0.002H74.33 M74.137,13.799h-0.002H74.137"
		/>
	<path fill="#C8C8C8" d="M47.673,93.209L47.673,93.209v-4c1.067-0.02,2.129-0.08,3.176-0.17c0.012-0.008,0.021-0.008,0.033-0.008
		c0.069,0,0.141-0.012,0.211-0.021h0.059c0.06-0.01,0.121-0.02,0.183-0.02c0.029-0.01,0.062-0.01,0.093-0.01
		c0.051-0.012,0.101-0.012,0.153-0.021c0.039,0,0.078-0.01,0.117-0.01c0.043-0.01,0.086-0.01,0.129-0.02
		c0.049,0,0.097-0.01,0.147-0.01c0.035-0.01,0.069-0.01,0.104-0.02c0.056,0,0.108-0.012,0.162-0.021c0.032,0,0.065,0,0.096-0.01
		c0.06-0.01,0.119-0.01,0.179-0.02c0.024-0.01,0.051-0.01,0.076-0.01c0.063-0.01,0.129-0.02,0.192-0.031c0.022,0,0.045,0,0.067-0.01
		c0.065-0.01,0.134-0.018,0.203-0.029h0.056c0.071-0.02,0.141-0.029,0.211-0.039h0.049c0.074-0.01,0.149-0.031,0.226-0.041h0.028
		c0.08-0.02,0.162-0.029,0.242-0.039h0.017c5.643-0.941,10.911-2.971,15.579-5.861c0.022-0.02,0.043-0.029,0.065-0.049
		c0.05-0.031,0.101-0.061,0.15-0.09c0.032-0.021,0.065-0.041,0.098-0.061c0.037-0.031,0.076-0.051,0.113-0.07
		c0.039-0.029,0.075-0.051,0.114-0.08l0.101-0.061c0.039-0.029,0.078-0.049,0.115-0.08c0.032-0.018,0.063-0.039,0.096-0.059
		c0.043-0.031,0.084-0.051,0.127-0.08c0.029-0.021,0.056-0.041,0.084-0.061c0.044-0.029,0.091-0.061,0.138-0.09
		c0.024-0.01,0.047-0.029,0.069-0.051c0.046-0.029,0.093-0.059,0.138-0.09c0.026-0.021,0.051-0.029,0.074-0.049
		c0.047-0.031,0.092-0.061,0.139-0.092c0.022-0.02,0.045-0.029,0.069-0.049c0.048-0.029,0.095-0.07,0.144-0.1
		c0.021-0.01,0.041-0.031,0.063-0.041c0.05-0.039,0.099-0.07,0.15-0.109c0.018-0.01,0.036-0.02,0.053-0.041
		c0.05-0.029,0.101-0.068,0.151-0.1c0.021-0.02,0.037-0.029,0.058-0.039c0.048-0.041,0.101-0.08,0.152-0.111
		c0.016-0.02,0.032-0.029,0.049-0.041c0.053-0.039,0.104-0.078,0.157-0.107c0.015-0.021,0.031-0.031,0.046-0.041
		c0.053-0.039,0.106-0.08,0.159-0.119c0.015-0.01,0.027-0.021,0.041-0.031c0.054-0.029,0.106-0.068,0.16-0.109
		c0.015-0.02,0.03-0.029,0.045-0.039c0.054-0.041,0.106-0.08,0.158-0.119c0.014-0.012,0.026-0.021,0.039-0.031
		c0.055-0.041,0.108-0.08,0.161-0.121c0.015-0.01,0.027-0.02,0.041-0.031c0.054-0.039,0.106-0.078,0.16-0.127
		c0.012,0,0.024-0.012,0.037-0.021c0.053-0.049,0.106-0.09,0.161-0.129c0.013-0.012,0.025-0.021,0.037-0.031
		c0.054-0.039,0.108-0.08,0.162-0.129c0.011-0.01,0.022-0.021,0.031-0.021c0.057-0.049,0.112-0.09,0.165-0.139
		c0.011,0,0.021-0.01,0.033-0.02c0.054-0.041,0.108-0.092,0.164-0.133c0.01-0.008,0.019-0.018,0.028-0.027
		c0.056-0.039,0.109-0.092,0.164-0.131c0.013-0.01,0.022-0.02,0.033-0.029c0.055-0.041,0.108-0.09,0.162-0.141
		c0.01,0,0.018-0.01,0.026-0.02c0.057-0.041,0.112-0.09,0.168-0.141c0.008,0,0.015-0.01,0.024-0.02
		c0.058-0.051,0.112-0.09,0.166-0.141c0.008-0.01,0.017-0.01,0.024-0.02c0.056-0.051,0.11-0.1,0.168-0.141
		c0.007-0.008,0.015-0.02,0.022-0.02c0.056-0.049,0.109-0.1,0.166-0.15c0.007,0,0.015-0.01,0.021-0.02
		c0.056-0.051,0.113-0.1,0.17-0.15c0.005,0,0.011-0.01,0.017-0.01c0.058-0.051,0.115-0.1,0.172-0.15
		c0.005-0.008,0.007-0.008,0.011-0.008c0.058-0.061,0.117-0.111,0.174-0.162c0.005,0,0.013-0.01,0.019-0.021
		c0.056-0.049,0.111-0.098,0.168-0.148c0.002,0,0.007-0.01,0.011-0.01c0.057-0.051,0.114-0.109,0.174-0.158
		c0.004,0,0.008-0.012,0.013-0.012c0.057-0.049,0.114-0.109,0.17-0.16c0.004,0,0.008-0.01,0.015-0.01
		c0.055-0.061,0.112-0.109,0.168-0.16c0.004-0.01,0.006-0.01,0.01-0.01c0.058-0.061,0.115-0.109,0.17-0.16
		c0.009-0.01,0.017-0.02,0.024-0.029c0.054-0.051,0.104-0.102,0.158-0.15h0.002c0.119-0.121,0.236-0.23,0.354-0.35
		c7.752-7.721,12.539-18.361,12.539-30.121c0-11.769-4.789-22.41-12.539-30.13c-0.06-0.06-0.119-0.12-0.178-0.18
		c-0.052-0.049-0.101-0.1-0.15-0.149c-0.01-0.01-0.021-0.01-0.03-0.021c-0.049-0.05-0.099-0.1-0.147-0.15
		c-0.013-0.009-0.022-0.02-0.033-0.03c-0.055-0.05-0.11-0.1-0.166-0.16c-0.004,0-0.01-0.01-0.014-0.01
		c-0.056-0.049-0.113-0.109-0.168-0.16c-0.007,0-0.011-0.01-0.015-0.01c-0.056-0.049-0.11-0.109-0.168-0.16
		c-0.006,0-0.011-0.01-0.015-0.01c-0.06-0.06-0.116-0.11-0.174-0.16c-0.004-0.009-0.007-0.009-0.011-0.009
		c-0.06-0.061-0.116-0.111-0.178-0.161c-0.002-0.01-0.005-0.01-0.007-0.01c-0.062-0.06-0.122-0.11-0.184-0.17
		c-0.063-0.05-0.123-0.11-0.185-0.159c-0.002,0-0.004,0-0.005-0.011c-0.061-0.049-0.12-0.1-0.182-0.16h-0.007
		c-0.061-0.05-0.122-0.11-0.184-0.16c-0.002,0-0.003,0-0.005-0.01c-0.062-0.05-0.123-0.1-0.184-0.15
		c-0.003-0.009-0.005-0.009-0.007-0.009c-0.062-0.051-0.123-0.101-0.187-0.161h-0.002c-0.063-0.049-0.127-0.109-0.19-0.16h-0.002
		c-0.063-0.05-0.127-0.109-0.19-0.16h-0.002c-7.211-5.949-16.406-9.59-26.463-9.79v-4C69.849,0.41,88.269,16.15,92.651,37.04
		c0.65,3.09,0.99,6.291,0.99,9.58C93.64,72.08,73.132,92.76,47.673,93.209"/>
	<path fill="#D8D8D8" d="M76.316,73.09l-9.944-9.951h2.093c4.336,0,7.852-3.52,7.852-7.857V73.09"/>
	<path fill="#D8D8D8" d="M68.465,63.141h-2.093H47.671V52.66c0.339,0.1,0.701,0.16,1.08,0.16c2.778,0,5.884-2.49,5.884-6.789
		c0-4.692-2.586-6.562-5.564-6.562c-0.524,0-0.987,0.08-1.399,0.23V23.27h20.794c4.336,0,7.852,3.511,7.852,7.85v24.161
		C76.316,59.619,72.801,63.141,68.465,63.141 M63.719,39.4c-2.425,0-6.5,1.65-6.5,6.47c0,4.781,2.588,7.111,6.434,7.111
		c3.072,0,4.593-2.551,5.013-3.592l-0.873-0.607c-0.356,0.969-1.002,3.129-3.847,3.129c-2.295,0-3.881-2.781-3.881-5.429
		c0-3.721,1.554-6.532,3.588-6.532c2.879,0,3.492,1.75,3.72,2.661c-0.291-0.27-0.517-0.42-1.067-0.42
		c-0.664,0-1.326,0.711-1.326,1.641c0,1.619,1.197,1.709,1.779,1.709c0.646,0,1.873-0.67,1.873-2.49
		C68.631,40.891,65.952,39.4,63.719,39.4 M48.068,51.66c-0.139,0-0.271-0.01-0.397-0.031V40.55c0.216-0.069,0.447-0.11,0.688-0.11
		c2.748,0,3.302,3.26,3.302,5.491C51.661,49.26,50.173,51.66,48.068,51.66"/>
	<path fill="#8CB0D1" d="M48.75,52.82c-0.379,0-0.739-0.061-1.079-0.16v-1.029c0.127,0.02,0.26,0.029,0.397,0.029
		c2.104,0,3.592-2.4,3.592-5.73c0-2.23-0.553-5.49-3.301-5.49c-0.242,0-0.472,0.039-0.688,0.109V39.7
		c0.411-0.15,0.875-0.23,1.399-0.23c2.979,0,5.565,1.87,5.565,6.562C54.636,50.33,51.529,52.82,48.75,52.82"/>
	<path fill="#8CB0D1" d="M63.652,52.98c-3.846,0-6.434-2.332-6.434-7.111c0-4.82,4.075-6.47,6.5-6.47
		c2.233,0,4.913,1.491,4.913,3.65c0,1.82-1.228,2.49-1.874,2.49c-0.582,0-1.779-0.09-1.779-1.709c0-0.93,0.662-1.641,1.326-1.641
		c0.551,0,0.776,0.15,1.067,0.42c-0.228-0.91-0.841-2.66-3.72-2.66c-2.034,0-3.588,2.81-3.588,6.531c0,2.65,1.586,5.429,3.881,5.429
		c2.845,0,3.49-2.16,3.847-3.131l0.873,0.609C68.245,50.43,66.725,52.98,63.652,52.98"/>
</g>
</svg>
