<?xml version="1.0" encoding="utf-8"?>
<!-- Generator: Adobe Illustrator 16.0.0, SVG Export Plug-In . SVG Version: 6.00 Build 0)  -->
<!DOCTYPE svg PUBLIC "-//W3C//DTD SVG 1.1//EN" "http://www.w3.org/Graphics/SVG/1.1/DTD/svg11.dtd">
<svg version="1.1" id="Layer_1" xmlns="http://www.w3.org/2000/svg" xmlns:xlink="http://www.w3.org/1999/xlink" x="0px" y="0px"
	 width="93.641px" height="93.219px" viewBox="0 0 93.641 93.219" enable-background="new 0 0 93.641 93.219" xml:space="preserve">
<g>
	<path fill="#A8A3F0" d="M91.644,46.621c0,24.629-20.067,44.601-44.826,44.601C22.067,91.221,2,71.25,2,46.621
		C2,21.971,22.067,2,46.817,2C71.576,2,91.644,21.971,91.644,46.621"/>
	<rect x="22.075" y="65.1" fill="#FFFFFF" width="53.256" height="3.121"/>
	<path fill="#FFFFFF" d="M55.465,22.041V63.09c0,0.33,0.927,0.591,2.069,0.591h9.66c1.139,0,2.071-0.261,2.071-0.591V22.041
		c0-0.33-0.934-0.59-2.071-0.59h-9.66C56.391,21.451,55.465,21.71,55.465,22.041 M56.786,57.531l0.148-0.242h10.334l0.149,0.242
		v1.139l-0.149,0.24H56.935l-0.148-0.24L56.786,57.531 M56.786,32.471l0.148-0.238h10.334l0.149,0.238v1.14l-0.149,0.25H56.935
		l-0.148-0.25L56.786,32.471 M56.786,27.46l0.148-0.238h10.334l0.149,0.238V28.6l-0.149,0.239H56.935L56.787,28.6L56.786,27.46"/>
	<path fill="#FFFFFF" d="M39.938,22.041V63.09c0,0.33,0.926,0.591,2.066,0.591h9.664c1.14,0,2.069-0.261,2.069-0.591V22.041
		c0-0.33-0.931-0.59-2.069-0.59h-9.664C40.863,21.451,39.938,21.71,39.938,22.041 M41.257,57.531l0.149-0.242h10.335l0.15,0.242
		v1.139l-0.15,0.24H41.406l-0.149-0.24V57.531 M41.257,32.471l0.149-0.238h10.335l0.15,0.238v1.14l-0.15,0.25H41.406l-0.149-0.25
		V32.471 M41.257,27.46l0.149-0.238h10.335l0.15,0.238V28.6l-0.15,0.239H41.406L41.257,28.6V27.46"/>
	<path fill="#FFFFFF" d="M23.428,22.041V63.09c0,0.33,0.925,0.591,2.068,0.591h9.662c1.139,0,2.068-0.261,2.068-0.591V22.041
		c0-0.33-0.931-0.59-2.068-0.59h-9.662C24.353,21.451,23.428,21.71,23.428,22.041 M24.749,57.531l0.148-0.242h10.334l0.149,0.242
		v1.139l-0.149,0.24H24.897l-0.148-0.24V57.531z M24.749,32.471l0.148-0.238h10.334l0.149,0.238v1.14l-0.149,0.25H24.897
		l-0.148-0.25V32.471z M24.749,27.46l0.148-0.238h10.334l0.149,0.238V28.6l-0.149,0.239H24.897L24.749,28.6V27.46z"/>
	<path fill="#FFFFFF" d="M74.462,67.781V67.01H19.184c-0.125,0-0.246,0.09-0.334,0.229c-0.087,0.141-0.137,0.34-0.137,0.541v3.238
		c0,0.201,0.05,0.399,0.137,0.541c0.088,0.141,0.209,0.221,0.334,0.221h55.277c0.123,0,0.244-0.08,0.332-0.221
		c0.086-0.142,0.136-0.34,0.136-0.541v-3.238c0-0.201-0.05-0.4-0.136-0.541c-0.088-0.141-0.209-0.229-0.332-0.229V67.781h-0.471
		v2.479h-54.34v-1.722h54.811V67.781h-0.471H74.462"/>
	<path fill="#8585C1" d="M47.513,89.221v-17.44h26.948c0.123,0,0.244-0.08,0.333-0.221c0.085-0.142,0.136-0.34,0.136-0.541V68.22
		h0.4V65.1H47.513v-1.42h4.155c1.14,0,2.07-0.261,2.07-0.591V22.042c0-0.33-0.932-0.591-2.07-0.591h-4.155V4.011h0.159
		c5.115,0.1,10.008,1.09,14.525,2.818c0.006,0.01,0.014,0.01,0.02,0.01c0.068,0.031,0.138,0.051,0.208,0.08
		c0.012,0.011,0.024,0.011,0.036,0.021c0.063,0.021,0.127,0.05,0.191,0.07c0.018,0.01,0.033,0.01,0.051,0.021
		c0.062,0.029,0.123,0.049,0.185,0.068c0.018,0.011,0.037,0.021,0.055,0.03c0.06,0.021,0.117,0.039,0.178,0.07
		c0.021,0.01,0.043,0.021,0.064,0.029c0.055,0.02,0.109,0.04,0.164,0.061c0.024,0.011,0.051,0.021,0.076,0.039
		c0.053,0.021,0.104,0.041,0.155,0.062c0.027,0.01,0.057,0.02,0.082,0.039c0.051,0.021,0.103,0.041,0.15,0.061
		c0.029,0.01,0.061,0.03,0.088,0.041c0.049,0.021,0.096,0.04,0.144,0.059c0.032,0.012,0.063,0.031,0.098,0.041
		c0.045,0.021,0.088,0.039,0.133,0.061c0.035,0.021,0.071,0.03,0.105,0.05c0.042,0.021,0.084,0.041,0.127,0.062
		c0.034,0.01,0.071,0.028,0.108,0.049c0.041,0.011,0.082,0.03,0.123,0.051c0.037,0.02,0.074,0.04,0.111,0.05
		c0.039,0.021,0.079,0.04,0.12,0.062c0.037,0.021,0.077,0.04,0.116,0.05c0.038,0.02,0.073,0.04,0.11,0.061
		c0.043,0.021,0.086,0.039,0.127,0.06c0.033,0.011,0.066,0.03,0.101,0.041c0.046,0.028,0.092,0.05,0.137,0.069
		c0.031,0.021,0.063,0.03,0.096,0.05c0.047,0.021,0.094,0.041,0.141,0.069c0.027,0.01,0.058,0.021,0.085,0.04
		c0.051,0.021,0.102,0.05,0.153,0.07c0.023,0.021,0.049,0.03,0.072,0.04c0.055,0.029,0.108,0.061,0.162,0.08
		c0.021,0.01,0.043,0.02,0.065,0.04c0.058,0.021,0.113,0.05,0.17,0.08c0.019,0.01,0.038,0.021,0.056,0.029
		c0.063,0.03,0.121,0.061,0.182,0.101c0.016,0,0.029,0.01,0.045,0.02c0.063,0.03,0.125,0.07,0.188,0.102
		c0.014,0.01,0.025,0.01,0.039,0.021c0.067,0.04,0.135,0.069,0.202,0.108c0.007,0,0.015,0.011,0.021,0.011
		c0.07,0.04,0.143,0.08,0.213,0.12h0.012c1.66,0.91,3.256,1.931,4.771,3.051h0.004c0.068,0.05,0.137,0.099,0.203,0.149h0.002
		c0.068,0.05,0.137,0.101,0.203,0.149c0.002,0,0.002,0.011,0.004,0.011c0.067,0.049,0.135,0.1,0.199,0.149h0.006
		c0.065,0.049,0.133,0.101,0.198,0.148c0.001,0.011,0.005,0.011,0.007,0.011c0.064,0.05,0.129,0.101,0.192,0.149
		c0.004,0,0.009,0.01,0.013,0.01c0.063,0.051,0.127,0.102,0.188,0.149c0.004,0,0.009,0,0.014,0.012
		c0.062,0.05,0.123,0.1,0.187,0.148c0.006,0,0.01,0,0.016,0.01c0.062,0.052,0.121,0.102,0.183,0.151
		c0.006,0,0.012,0.009,0.018,0.009c0.062,0.051,0.123,0.101,0.186,0.15c0.003,0,0.007,0.01,0.013,0.01
		c0.062,0.051,0.121,0.101,0.184,0.15c0.005,0.01,0.012,0.01,0.015,0.01c0.063,0.05,0.122,0.11,0.184,0.16
		c0.004,0,0.008,0,0.014,0.011c0.062,0.05,0.119,0.099,0.181,0.149c0.006,0.01,0.01,0.01,0.018,0.01
		c0.06,0.061,0.117,0.108,0.177,0.159c0.007,0,0.012,0.011,0.018,0.011c0.061,0.05,0.119,0.1,0.178,0.16c0.006,0,0.01,0,0.016,0.011
		c0.058,0.05,0.115,0.099,0.176,0.149c0.005,0.01,0.011,0.01,0.019,0.02c0.059,0.051,0.113,0.101,0.17,0.15
		c0.008,0.01,0.016,0.01,0.021,0.02c0.057,0.051,0.113,0.102,0.17,0.15c0.006,0.011,0.014,0.011,0.02,0.02
		c0.061,0.051,0.115,0.101,0.172,0.16c0.008,0,0.014,0.01,0.019,0.01c0.057,0.052,0.115,0.11,0.172,0.16
		c0.006,0.01,0.012,0.01,0.016,0.01c0.059,0.062,0.113,0.111,0.17,0.16c0.008,0.011,0.014,0.011,0.019,0.021
		c0.057,0.05,0.113,0.109,0.168,0.16c0.006,0,0.014,0.01,0.02,0.01c0.059,0.06,0.115,0.119,0.176,0.17
		c0.003,0,0.006,0.01,0.009,0.01c0.059,0.062,0.117,0.11,0.176,0.171c0.002,0,0.004,0.011,0.008,0.011
		c0.059,0.05,0.111,0.108,0.168,0.159c0.006,0.011,0.013,0.011,0.018,0.021c0.06,0.061,0.121,0.119,0.181,0.18
		c7.75,7.711,12.537,18.359,12.539,30.131C89.642,58.381,84.854,69.02,77.104,76.74c-0.105,0.109-0.215,0.209-0.322,0.32
		c-0.012,0.01-0.023,0.02-0.035,0.028c-0.049,0.052-0.1,0.101-0.147,0.142c-0.012,0.01-0.021,0.028-0.033,0.039
		c-0.057,0.051-0.111,0.102-0.17,0.16c-0.002,0-0.006,0-0.009,0.01c-0.059,0.051-0.116,0.11-0.173,0.16
		c-0.004,0-0.007,0.01-0.011,0.01c-0.057,0.051-0.114,0.111-0.172,0.16c-0.004,0-0.008,0.012-0.012,0.012
		c-0.06,0.059-0.119,0.109-0.18,0.168h-0.004c-0.06,0.051-0.119,0.111-0.179,0.16c-0.002,0-0.004,0.012-0.008,0.012
		c-0.121,0.109-0.244,0.219-0.369,0.328H75.28c-0.063,0.062-0.125,0.111-0.188,0.172h-0.001c-0.063,0.049-0.125,0.109-0.188,0.16
		h-0.002c-2.648,2.289-5.58,4.26-8.738,5.859h-0.012c-0.068,0.039-0.139,0.069-0.209,0.108c-0.008,0-0.014,0-0.021,0.011
		c-0.066,0.03-0.132,0.061-0.199,0.1c-0.01,0-0.021,0.012-0.031,0.012c-0.064,0.029-0.131,0.068-0.193,0.101
		c-0.014,0-0.024,0.01-0.035,0.01c-0.063,0.029-0.126,0.061-0.188,0.09c-0.016,0.01-0.029,0.02-0.045,0.029
		c-0.062,0.021-0.121,0.051-0.182,0.08c-0.019,0.01-0.035,0.021-0.052,0.021c-0.059,0.029-0.116,0.06-0.174,0.09
		c-0.021,0.011-0.041,0.011-0.063,0.021c-0.058,0.028-0.113,0.061-0.17,0.08c-0.021,0.01-0.042,0.02-0.063,0.028
		c-0.055,0.029-0.111,0.052-0.166,0.07c-0.024,0.021-0.049,0.029-0.074,0.041c-0.053,0.021-0.104,0.039-0.155,0.068
		c-0.025,0.01-0.054,0.021-0.077,0.03c-0.053,0.021-0.104,0.05-0.155,0.07c-0.027,0.01-0.058,0.021-0.086,0.039
		c-0.049,0.021-0.1,0.041-0.15,0.061c-0.025,0.011-0.055,0.021-0.082,0.029c-0.051,0.029-0.102,0.051-0.15,0.07
		c-0.032,0.01-0.061,0.02-0.09,0.039c-0.049,0.021-0.098,0.041-0.146,0.061c-0.031,0.011-0.063,0.021-0.094,0.041
		c-0.046,0.01-0.095,0.029-0.144,0.049c-0.033,0.021-0.067,0.031-0.104,0.041c-0.045,0.021-0.088,0.039-0.133,0.06
		c-0.035,0.012-0.07,0.031-0.105,0.041c-0.043,0.02-0.09,0.039-0.135,0.051c-0.037,0.021-0.072,0.029-0.109,0.049
		c-0.043,0.01-0.084,0.029-0.127,0.041c-0.039,0.019-0.078,0.029-0.117,0.049c-0.041,0.021-0.082,0.029-0.123,0.052
		c-0.041,0.01-0.081,0.028-0.123,0.039c-0.04,0.021-0.078,0.03-0.118,0.051c-0.041,0.01-0.083,0.028-0.125,0.039
		c-0.039,0.021-0.078,0.03-0.117,0.051c-0.043,0.01-0.088,0.029-0.131,0.039c-0.037,0.021-0.074,0.031-0.111,0.041
		c-0.049,0.02-0.098,0.039-0.146,0.051c-0.031,0.021-0.063,0.029-0.095,0.039c-0.055,0.02-0.107,0.039-0.164,0.051
		c-0.026,0.01-0.055,0.021-0.08,0.029c-0.059,0.02-0.112,0.039-0.17,0.061c-0.024,0.011-0.051,0.021-0.075,0.029
		c-0.068,0.021-0.136,0.041-0.202,0.062c-0.016,0.01-0.028,0.01-0.041,0.02c-0.747,0.24-1.502,0.471-2.268,0.68h-0.012l-0.24,0.062
		c-0.01,0-0.02,0.01-0.029,0.01c-0.073,0.021-0.149,0.039-0.223,0.062c-0.016,0-0.029,0.008-0.043,0.008
		c-0.07,0.021-0.143,0.03-0.215,0.051c-0.014,0.01-0.027,0.01-0.043,0.01c-0.07,0.021-0.142,0.041-0.211,0.062
		c-0.018,0-0.033,0-0.051,0.01c-0.066,0.012-0.136,0.031-0.205,0.051c-0.019,0-0.037,0.01-0.057,0.01
		c-0.066,0.021-0.134,0.029-0.198,0.052c-0.021,0-0.041,0.01-0.063,0.01c-0.066,0.02-0.131,0.029-0.196,0.039
		c-0.021,0.01-0.041,0.01-0.063,0.021c-0.063,0.011-0.129,0.029-0.193,0.039c-0.022,0.01-0.047,0.01-0.068,0.021
		c-0.063,0.01-0.123,0.021-0.186,0.041c-0.027,0-0.055,0.01-0.082,0.01c-0.059,0.01-0.115,0.029-0.174,0.039
		c-0.031,0-0.063,0.01-0.092,0.021c-0.057,0.011-0.111,0.021-0.168,0.029c-0.029,0.01-0.062,0.01-0.09,0.021
		c-0.058,0.01-0.113,0.02-0.17,0.028c-0.031,0.013-0.062,0.013-0.095,0.021c-0.055,0.01-0.108,0.02-0.163,0.028
		c-0.033,0.011-0.066,0.011-0.101,0.021c-0.053,0.012-0.104,0.021-0.156,0.031c-0.037,0-0.073,0.01-0.107,0.02
		c-0.052,0.01-0.102,0.01-0.153,0.021c-0.035,0.01-0.072,0.02-0.109,0.02c-0.049,0.012-0.1,0.021-0.147,0.029
		c-0.039,0-0.08,0.012-0.119,0.021c-0.045,0-0.092,0.011-0.138,0.021c-0.041,0.01-0.085,0.01-0.125,0.021
		c-0.045,0.011-0.09,0.011-0.134,0.021c-0.046,0.01-0.091,0.01-0.136,0.02c-0.041,0.01-0.082,0.01-0.123,0.021
		c-0.047,0-0.094,0.01-0.141,0.021c-0.041,0-0.08,0.01-0.119,0.021c-0.051,0-0.1,0.01-0.149,0.02c-0.035,0-0.07,0.01-0.105,0.01
		c-0.054,0.011-0.107,0.021-0.162,0.021c-0.029,0.01-0.063,0.01-0.094,0.01c-0.058,0.012-0.117,0.021-0.175,0.031
		c-0.028,0-0.055,0-0.081,0.01c-0.062,0-0.122,0.01-0.185,0.021c-0.024,0-0.049,0-0.072,0.01c-0.067,0.01-0.133,0.01-0.199,0.02
		c-0.016,0-0.03,0-0.045,0.013c-0.075,0-0.149,0.01-0.225,0.02h-0.024c-1.224,0.129-2.46,0.209-3.712,0.23
		C47.62,89.211,47.565,89.221,47.513,89.221 M57.534,21.451c-1.145,0-2.069,0.261-2.069,0.591V63.09c0,0.33,0.926,0.591,2.069,0.591
		h9.66c1.139,0,2.07-0.261,2.07-0.591V22.042c0-0.33-0.933-0.591-2.07-0.591H57.534"/>
	<path fill="#ADABD1" d="M73.991,70.26H47.513v-1.722h26.479L73.991,70.26L73.991,70.26z M67.269,58.91H56.935l-0.148-0.24v-1.139
		l0.148-0.242h10.334l0.149,0.242v1.139L67.269,58.91 M51.741,58.91h-4.229v-1.621h4.229l0.15,0.242v1.139L51.741,58.91
		 M67.269,33.86H56.935l-0.148-0.248v-1.141l0.148-0.24h10.334l0.149,0.24v1.141L67.269,33.86 M51.741,33.86h-4.229v-1.629h4.229
		l0.15,0.24v1.141L51.741,33.86 M67.269,28.84H56.935L56.787,28.6V27.46l0.148-0.238h10.334l0.149,0.238V28.6L67.269,28.84
		 M51.741,28.84h-4.229v-1.618h4.229l0.15,0.238V28.6L51.741,28.84"/>
	<path fill="#D8D8D8" d="M75.331,68.221h-0.4v-0.439c0-0.201-0.051-0.4-0.137-0.541c-0.088-0.141-0.209-0.229-0.332-0.229v0.771
		V67.01H47.514V65.1h27.816V68.221"/>
	<path fill="#D8D8D8" d="M67.194,63.68h-9.66c-1.145,0-2.07-0.261-2.07-0.591V22.042c0-0.33,0.927-0.59,2.07-0.59h9.66
		c1.139,0,2.07,0.26,2.07,0.59V63.09C69.265,63.42,68.333,63.68,67.194,63.68 M56.935,57.291l-0.147,0.24v1.139l0.147,0.24h10.334
		l0.148-0.24v-1.139l-0.148-0.24H56.935 M56.935,32.231l-0.147,0.24v1.14l0.147,0.25h10.334l0.148-0.25v-1.14l-0.148-0.24H56.935
		 M56.935,27.221l-0.147,0.239v1.141l0.147,0.238h10.334l0.148-0.238v-1.141l-0.148-0.239H56.935"/>
	<path fill="#D8D8D8" d="M51.669,63.68h-4.155V58.91h4.229l0.151-0.24v-1.139l-0.151-0.242h-4.229V33.86h4.229l0.151-0.248v-1.141
		l-0.151-0.24h-4.229V28.84h4.229l0.151-0.239V27.46l-0.151-0.238h-4.229v-5.771h4.155c1.141,0,2.069,0.259,2.069,0.589v41.05
		C53.738,63.42,52.809,63.68,51.669,63.68"/>
	<path fill="#D8D8D8" d="M74.462,71.781H47.513V70.26h26.479v-1.722H47.513V67.01h26.948v0.771V67.01
		c0.123,0,0.244,0.09,0.332,0.229c0.086,0.141,0.136,0.34,0.136,0.541v0.439v2.799c0,0.201-0.05,0.399-0.136,0.541
		C74.706,71.701,74.585,71.781,74.462,71.781"/>
</g>
</svg>
