<?xml version="1.0" encoding="utf-8"?>
<!-- Generator: Adobe Illustrator 16.0.0, SVG Export Plug-In . SVG Version: 6.00 Build 0)  -->
<!DOCTYPE svg PUBLIC "-//W3C//DTD SVG 1.1//EN" "http://www.w3.org/Graphics/SVG/1.1/DTD/svg11.dtd">
<svg version="1.1" id="Layer_1" xmlns="http://www.w3.org/2000/svg" xmlns:xlink="http://www.w3.org/1999/xlink" x="0px" y="0px"
	 width="93.641px" height="93.219px" viewBox="0 0 93.641 93.219" enable-background="new 0 0 93.641 93.219" xml:space="preserve">
<g>
	<path fill="#857A91" d="M91.639,46.621c0,24.629-20.067,44.601-44.817,44.601C22.069,91.221,2,71.25,2,46.621
		C2,21.97,22.069,2,46.821,2C71.571,2,91.639,21.97,91.639,46.621"/>
	<path fill="#FFFFFF" d="M91.639,46.621h-2c0,11.76-4.778,22.399-12.538,30.12c-7.75,7.709-18.449,12.48-30.279,12.48
		s-22.528-4.771-30.284-12.48C8.787,69.02,4.002,58.381,4.002,46.621c0-11.771,4.785-22.42,12.535-30.131
		C24.293,8.771,34.991,4,46.821,4s22.53,4.771,30.28,12.49c7.76,7.721,12.538,18.359,12.538,30.131H91.639h2
		C93.639,20.861,72.67,0,46.821,0C20.969,0,0.002,20.861,0,46.621c0.004,25.739,20.97,46.601,46.821,46.601
		c25.849,0,46.817-20.861,46.817-46.601H91.639"/>
	<path fill="#FFFFFF" d="M64.67,58.98c2.641,0,5.369,2.069,6.102,4.608l1.028,3.66c0.722,2.541-0.858,4.621-3.489,4.601L25.37,71.82
		c-2.633,0-4.229-2.08-3.545-4.619l0.979-3.59c0.685-2.562,3.408-4.631,6.043-4.631H64.67"/>
	<path fill="#FFFFFF" d="M68.86,21.371H24.789c-1.11,0-2.009,0.898-2.009,2.01v30.69c0,1.119,0.897,2.02,2.009,2.02H68.86
		c1.107,0,2.009-0.899,2.009-2.02V23.38C70.869,22.269,69.969,21.371,68.86,21.371 M66.851,52.061H26.799V25.39h40.053V52.061z"/>
	<path fill="#6D6577" d="M46.82,89.221V71.84l21.488,0.011h0.031c2.609,0,4.18-2.068,3.459-4.601l-1.029-3.66
		c-0.729-2.538-3.461-4.608-6.1-4.608H46.82V56.09h22.039c1.108,0,2.011-0.899,2.011-2.018V23.38c0-1.108-0.9-2.01-2.011-2.01H46.82
		V4c0.289,0,0.568,0.012,0.851,0.012c7.979,0.158,15.42,2.479,21.75,6.397c0.01,0.011,0.02,0.021,0.039,0.031
		c0.041,0.029,0.09,0.049,0.141,0.08c0.021,0.02,0.051,0.039,0.07,0.051c0.039,0.029,0.08,0.049,0.119,0.078
		c0.03,0.021,0.069,0.041,0.1,0.061c0.041,0.021,0.07,0.052,0.111,0.07c0.028,0.02,0.069,0.041,0.1,0.068
		c0.039,0.021,0.07,0.041,0.101,0.061c0.041,0.031,0.079,0.051,0.12,0.08c0.029,0.021,0.06,0.041,0.091,0.061
		c0.039,0.03,0.08,0.052,0.118,0.08c0.029,0.021,0.062,0.04,0.091,0.05c0.041,0.03,0.09,0.062,0.131,0.092
		c0.02,0.02,0.049,0.028,0.069,0.051c0.05,0.029,0.091,0.059,0.14,0.088c0.02,0.021,0.051,0.041,0.069,0.051
		c0.052,0.04,0.091,0.07,0.142,0.101c0.02,0.021,0.049,0.029,0.07,0.039c0.049,0.041,0.09,0.07,0.139,0.11
		c0.021,0.011,0.041,0.03,0.061,0.04c0.052,0.03,0.101,0.071,0.15,0.102c0.02,0.02,0.039,0.028,0.061,0.049
		C71.7,11.929,71.751,11.97,71.8,12c0.021,0.021,0.041,0.03,0.061,0.04c0.052,0.04,0.101,0.08,0.15,0.109
		c0.02,0.021,0.039,0.029,0.061,0.041c0.05,0.039,0.091,0.08,0.14,0.108c0.02,0.021,0.041,0.03,0.061,0.04
		c0.051,0.04,0.101,0.08,0.15,0.11c0.02,0.021,0.039,0.029,0.049,0.039c0.061,0.041,0.111,0.082,0.16,0.121
		c0.01,0.01,0.031,0.02,0.051,0.039c0.049,0.041,0.1,0.07,0.15,0.11c0.02,0.021,0.028,0.029,0.049,0.039
		c0.051,0.04,0.1,0.08,0.149,0.12c0.021,0.01,0.041,0.021,0.052,0.04c0.049,0.04,0.1,0.07,0.147,0.111
		c0.021,0.019,0.041,0.027,0.051,0.039c0.062,0.039,0.109,0.08,0.16,0.119c0.011,0.021,0.029,0.03,0.039,0.041
		c0.051,0.039,0.111,0.08,0.16,0.119c0.012,0.01,0.031,0.029,0.041,0.039c0.049,0.04,0.109,0.081,0.16,0.12
		c0.01,0.011,0.029,0.03,0.039,0.04c0.051,0.04,0.1,0.08,0.16,0.13c0.01,0.011,0.02,0.021,0.041,0.03
		c0.049,0.04,0.1,0.09,0.147,0.13c0.021,0.011,0.031,0.021,0.041,0.029c0.062,0.051,0.109,0.091,0.16,0.131
		c0.01,0.01,0.029,0.021,0.039,0.031c0.051,0.049,0.102,0.088,0.16,0.139c0.01,0.01,0.021,0.021,0.031,0.03
		c0.059,0.05,0.108,0.09,0.159,0.14c0.011,0.011,0.029,0.021,0.039,0.029c0.052,0.041,0.101,0.091,0.16,0.141
		c0.01,0.011,0.021,0.011,0.029,0.021c0.051,0.049,0.111,0.099,0.16,0.139c0.01,0.01,0.02,0.021,0.031,0.03
		c0.049,0.05,0.108,0.09,0.159,0.14c0.011,0.011,0.021,0.021,0.029,0.029c0.062,0.051,0.109,0.102,0.16,0.141
		c0.01,0.011,0.02,0.021,0.029,0.03c0.061,0.05,0.108,0.1,0.159,0.149c0.011,0.011,0.021,0.011,0.029,0.021
		c0.051,0.05,0.111,0.1,0.159,0.149c0.011,0.01,0.022,0.021,0.032,0.031c0.049,0.049,0.108,0.1,0.16,0.148
		c0.01,0.01,0.02,0.01,0.028,0.021c0.052,0.049,0.101,0.1,0.16,0.148c0.01,0.011,0.01,0.021,0.021,0.03
		c0.061,0.05,0.108,0.1,0.17,0.16c0,0,0.01,0.01,0.02,0.01c0.051,0.061,0.111,0.109,0.159,0.16c0.011,0.01,0.011,0.01,0.022,0.02
		c0.059,0.052,0.108,0.11,0.17,0.16c0,0.01,0.01,0.01,0.01,0.021c0.059,0.061,0.119,0.118,0.18,0.18
		c7.76,7.721,12.539,18.359,12.539,30.131c0,11.76-4.779,22.399-12.539,30.12c-0.108,0.109-0.221,0.221-0.341,0.33
		c0,0.01-0.009,0.01-0.009,0.02c-0.062,0.052-0.111,0.101-0.16,0.16c-0.01,0-0.021,0.01-0.021,0.01
		c-0.062,0.062-0.12,0.121-0.182,0.181c-0.059,0.051-0.119,0.11-0.18,0.17H76.2c-0.062,0.061-0.119,0.111-0.181,0.172
		C70.831,82.6,64.43,86.15,57.331,87.93H57.32c-0.079,0.021-0.149,0.041-0.229,0.061c-0.01,0-0.021,0-0.031,0.01
		c-0.067,0.011-0.139,0.031-0.209,0.052c-0.02,0-0.029,0-0.051,0.01c-0.059,0.01-0.129,0.028-0.199,0.039
		c-0.02,0.01-0.029,0.01-0.051,0.021c-0.07,0.01-0.129,0.029-0.199,0.039c-0.02,0.01-0.041,0.01-0.061,0.021
		c-0.06,0.01-0.119,0.021-0.181,0.041c-0.028,0-0.049,0.01-0.08,0.01c-0.062,0.02-0.118,0.029-0.18,0.039
		c-0.02,0.012-0.051,0.012-0.07,0.021c-0.062,0.011-0.129,0.021-0.188,0.039c-0.021,0-0.041,0.01-0.07,0.01
		c-0.061,0.011-0.119,0.031-0.188,0.041c-0.021,0-0.041,0.011-0.062,0.011c-0.069,0.02-0.131,0.028-0.188,0.039
		c-0.021,0-0.052,0.01-0.08,0.01c-0.062,0.021-0.121,0.031-0.181,0.041c-0.021,0-0.051,0.01-0.069,0.01
		c-0.062,0.01-0.121,0.029-0.181,0.041c-0.03,0-0.062,0.01-0.079,0.01c-0.062,0.011-0.121,0.021-0.191,0.029
		c-0.021,0.01-0.049,0.01-0.07,0.021c-0.059,0.01-0.119,0.02-0.18,0.03c-0.029,0-0.059,0.01-0.08,0.01
		c-0.059,0.009-0.129,0.021-0.189,0.029c-0.02,0-0.038,0.01-0.069,0.01c-0.06,0.011-0.119,0.021-0.189,0.031
		c-0.02,0.01-0.041,0.01-0.069,0.01c-0.062,0.011-0.13,0.021-0.189,0.029c-0.02,0.01-0.041,0.01-0.061,0.01
		c-0.07,0.011-0.14,0.021-0.199,0.031c-0.021,0-0.051,0.01-0.07,0.01c-0.061,0.011-0.13,0.021-0.201,0.029
		c-0.02,0-0.028,0-0.049,0.01c-0.07,0.011-0.141,0.021-0.211,0.021c-0.02,0.01-0.029,0.01-0.049,0.01
		c-0.07,0.012-0.15,0.021-0.221,0.031h-0.029c-0.079,0.01-0.16,0.02-0.23,0.028h-0.028c-1.4,0.171-2.812,0.271-4.24,0.291
		C47.389,89.221,47.109,89.221,46.82,89.221"/>
	<rect x="46.821" y="25.39" fill="#6D6577" width="20.029" height="26.67"/>
	<path fill="#D8D8D8" d="M68.34,71.85H68.31L46.82,71.84V58.98h17.85c2.641,0,5.369,2.069,6.102,4.608l1.027,3.66
		C72.521,69.781,70.949,71.85,68.34,71.85"/>
	<path fill="#D8D8D8" d="M68.86,56.09H46.821v-4.028H66.85V25.39H46.821V21.37H68.86c1.107,0,2.01,0.899,2.01,2.01v30.692
		C70.87,55.189,69.969,56.09,68.86,56.09"/>
</g>
</svg>
