<?xml version="1.0" encoding="utf-8"?>
<!-- Generator: Adobe Illustrator 16.0.0, SVG Export Plug-In . SVG Version: 6.00 Build 0)  -->
<!DOCTYPE svg PUBLIC "-//W3C//DTD SVG 1.1//EN" "http://www.w3.org/Graphics/SVG/1.1/DTD/svg11.dtd">
<svg version="1.1" id="Layer_1" xmlns="http://www.w3.org/2000/svg" xmlns:xlink="http://www.w3.org/1999/xlink" x="0px" y="0px"
	 width="93.641px" height="93.219px" viewBox="0 0 93.641 93.219" enable-background="new 0 0 93.641 93.219" xml:space="preserve">
<g>
	<path fill="#F2C40D" d="M91.206,46.608c0,24.64-20.066,44.608-44.826,44.608c-24.752,0-44.817-19.969-44.817-44.608
		C1.562,21.969,21.628,2,46.38,2C71.139,2,91.206,21.969,91.206,46.608"/>
	<path fill="#FFFFFF" d="M64.501,21.374H30.847c-4.656,0-8.414,3.758-8.414,8.414v33.65c0,4.66,3.758,8.42,8.414,8.42h33.653
		c4.652,0,8.412-3.76,8.412-8.42v-33.65C72.913,25.131,69.153,21.374,64.501,21.374 M46.61,69.047H30.847
		c-3.084,0-5.611-2.52-5.611-5.608v-16.09H46.61V69.047 M46.61,44.825H25.235V29.788c0-3.084,2.527-5.606,5.611-5.606H46.61V44.825
		 M70.108,63.438c0,3.09-2.523,5.608-5.607,5.608H49.269V47.348h20.84L70.108,63.438 M70.108,44.825h-20.84V24.18H64.5
		c3.084,0,5.607,2.522,5.607,5.606L70.108,44.825"/>
	<path fill="#FFFFFF" d="M29.995,63.947c0.111,0.109,0.336,0.221,0.506,0.221c0.168,0,0.336-0.051,0.504-0.221l5.104-5.109
		l5.104,5.109c0.113,0.109,0.338,0.221,0.507,0.221s0.337-0.051,0.505-0.221c0.279-0.279,0.279-0.73,0-1.01l-5.104-5.109l5.104-5.1
		c0.279-0.281,0.279-0.73,0-1.013c-0.28-0.278-0.729-0.278-1.012,0l-5.104,5.101l-5.104-5.101c-0.279-0.278-0.729-0.278-1.01,0
		c-0.28,0.281-0.28,0.73,0,1.013l5.104,5.1l-5.104,5.109C29.715,63.217,29.715,63.668,29.995,63.947"/>
	<path fill="#FFFFFF" d="M29.995,63.947l-0.312,0.311c0.107,0.109,0.226,0.181,0.357,0.24c0.134,0.06,0.277,0.109,0.459,0.109
		c0.267,0.01,0.584-0.109,0.816-0.351l4.791-4.791l4.791,4.791c0.108,0.109,0.227,0.181,0.359,0.24
		c0.135,0.06,0.276,0.109,0.458,0.109c0.267,0.01,0.585-0.109,0.818-0.351l0,0c0.226-0.221,0.34-0.521,0.34-0.819
		c0-0.289-0.114-0.59-0.34-0.812l-4.791-4.799l4.791-4.791c0.226-0.221,0.34-0.52,0.34-0.809c0-0.302-0.114-0.603-0.34-0.82
		c-0.225-0.229-0.521-0.342-0.818-0.342c-0.295,0-0.594,0.11-0.817,0.342l-4.791,4.789l-4.791-4.789
		c-0.225-0.229-0.521-0.342-0.816-0.342c-0.297,0-0.594,0.11-0.816,0.342c-0.227,0.219-0.343,0.521-0.342,0.82
		c-0.001,0.289,0.115,0.588,0.34,0.809l4.791,4.791l-4.789,4.799c-0.227,0.222-0.343,0.521-0.342,0.812
		c-0.001,0.299,0.115,0.6,0.34,0.819h0.002L29.995,63.947l0.313-0.311l-0.08-0.199l0.08-0.189l5.418-5.42l-5.418-5.41l-0.08-0.188
		l0.08-0.201l0.192-0.08l0.189,0.08l5.418,5.42l5.418-5.42l0.19-0.08l0.191,0.08l0.082,0.201l-0.082,0.188l-5.416,5.41l5.416,5.42
		l0.082,0.189l-0.082,0.199c-0.103,0.092-0.121,0.079-0.191,0.092h-0.001l-0.191-0.103l0.002,0.011l-5.418-5.421l-5.418,5.421
		c-0.103,0.092-0.121,0.079-0.189,0.092h-0.002l-0.19-0.103v0.011L29.995,63.947z"/>
	<path fill="#FFFFFF" d="M29.784,34.465c0,0.395,0.338,0.73,0.729,0.73h4.937v4.879c0,0.393,0.336,0.729,0.729,0.729
		c0.392,0,0.729-0.337,0.729-0.729v-4.936h4.767c0.393,0,0.729-0.337,0.729-0.729s-0.338-0.729-0.729-0.729H36.74v-4.824
		c0-0.393-0.338-0.729-0.729-0.729c-0.395,0-0.729,0.338-0.729,0.729v4.937h-4.824C30.065,33.793,29.784,34.073,29.784,34.465"/>
	<path fill="#FFFFFF" d="M29.784,34.465h-0.441c0.009,0.648,0.523,1.163,1.172,1.174h4.492v4.437
		c0.009,0.648,0.525,1.162,1.174,1.172c0.646-0.01,1.162-0.521,1.171-1.172v-4.493h4.324c0.647-0.009,1.163-0.522,1.173-1.171
		c-0.01-0.647-0.524-1.164-1.173-1.174h-4.492v-4.38c-0.009-0.647-0.523-1.163-1.171-1.171c-0.649,0.008-1.165,0.522-1.174,1.171
		v4.493h-4.381c-0.301,0-0.592,0.111-0.797,0.317c-0.207,0.205-0.32,0.496-0.318,0.797H29.784h0.443
		c0.002-0.092,0.027-0.137,0.061-0.17c0.031-0.03,0.078-0.059,0.17-0.059h5.267v-5.38l0.088-0.198l0.2-0.088l0.197,0.088
		l0.088,0.198v5.267h5.378l0.198,0.089l0.089,0.198l-0.089,0.198l-0.198,0.087h-5.21v5.379l-0.088,0.199l-0.197,0.088l-0.2-0.088
		l-0.088-0.199v-5.322h-5.378l-0.198-0.088l-0.088-0.199H29.784z"/>
	<path fill="#FFFFFF" d="M64.501,33.737H53.28c-0.39,0-0.726,0.336-0.726,0.729c0,0.394,0.336,0.729,0.726,0.729h11.221
		c0.393,0,0.729-0.337,0.729-0.729C65.23,34.074,64.893,33.737,64.501,33.737"/>
	<path fill="#FFFFFF" d="M64.501,33.737v-0.443H53.28c-0.646,0.01-1.162,0.524-1.172,1.172c0.01,0.648,0.524,1.162,1.172,1.175
		h11.221c0.646-0.011,1.162-0.527,1.17-1.175c-0.008-0.646-0.522-1.162-1.17-1.172V33.737v0.443l0.197,0.088l0.088,0.196
		l-0.088,0.199l-0.197,0.088H53.28l-0.197-0.088l-0.088-0.199l0.088-0.196l0.197-0.088h11.221V33.737"/>
	<path fill="#FFFFFF" d="M53.28,55.758h11.221c0.392,0,0.729-0.34,0.729-0.729s-0.338-0.73-0.729-0.73H53.28
		c-0.391,0-0.727,0.341-0.727,0.73S52.89,55.758,53.28,55.758"/>
	<path fill="#FFFFFF" d="M53.28,55.758v0.439h11.221c0.646-0.01,1.16-0.52,1.17-1.17c-0.007-0.65-0.522-1.16-1.17-1.17H53.28
		c-0.646,0.01-1.162,0.52-1.172,1.17c0.01,0.65,0.524,1.16,1.172,1.17V55.758v-0.44l-0.197-0.088l-0.088-0.201l0.088-0.199
		l0.197-0.09h11.221l0.197,0.09l0.088,0.199l-0.088,0.201l-0.197,0.088H53.28V55.758"/>
	<path fill="#FFFFFF" d="M53.28,61.367h11.221c0.392,0,0.729-0.34,0.729-0.729c0-0.391-0.338-0.729-0.729-0.729H53.28
		c-0.391,0-0.727,0.338-0.727,0.729C52.553,61.028,52.89,61.367,53.28,61.367"/>
	<path fill="#FFFFFF" d="M53.28,61.367v0.441h11.221c0.646-0.013,1.163-0.521,1.17-1.172c-0.007-0.648-0.522-1.158-1.17-1.171H53.28
		c-0.646,0.013-1.162,0.521-1.172,1.171c0.01,0.649,0.524,1.159,1.172,1.172V61.367v-0.438l-0.197-0.091l-0.088-0.2l0.088-0.199
		l0.197-0.09h11.221l0.197,0.09l0.088,0.199l-0.088,0.2l-0.197,0.091H53.28V61.367"/>
	<path fill="#DFBF3F" d="M47.671,89.207v-17.35h16.83c4.652,0,8.412-3.76,8.412-8.42v-33.65c0-4.656-3.76-8.414-8.412-8.414h-16.83
		V4.007h0.002c1.074,0.022,2.141,0.081,3.193,0.182c0.003,0,0.008,0,0.012,0c0.072,0.007,0.145,0.014,0.218,0.021
		c0.02,0.002,0.038,0.003,0.059,0.005c0.063,0.009,0.123,0.015,0.188,0.021c0.026,0.002,0.057,0.004,0.082,0.007
		c0.059,0.006,0.112,0.011,0.168,0.02c0.035,0.004,0.068,0.009,0.103,0.012c0.053,0.007,0.104,0.012,0.154,0.017
		c0.039,0.005,0.077,0.009,0.116,0.015c0.043,0.006,0.089,0.011,0.132,0.016c0.05,0.007,0.097,0.012,0.144,0.018
		c0.036,0.004,0.074,0.011,0.108,0.016c0.053,0.005,0.106,0.013,0.161,0.019c0.031,0.005,0.063,0.009,0.096,0.015
		c0.06,0.009,0.116,0.017,0.175,0.022c0.028,0.004,0.055,0.008,0.08,0.012c0.063,0.01,0.127,0.019,0.19,0.026
		c0.021,0.004,0.044,0.008,0.065,0.01c0.07,0.01,0.138,0.021,0.207,0.031c0.017,0.002,0.033,0.005,0.05,0.007
		c0.072,0.011,0.146,0.023,0.219,0.035c0.016,0.001,0.026,0.003,0.039,0.007c0.078,0.01,0.154,0.024,0.23,0.037
		c0.01,0,0.02,0.003,0.03,0.003c0.079,0.015,0.161,0.028,0.24,0.042c0.005,0,0.012,0.002,0.016,0.002
		c8.099,1.39,15.414,5.039,21.275,10.277c0.002,0,0.002,0.002,0.005,0.004c0.062,0.053,0.122,0.11,0.184,0.164
		c0.002,0.002,0.005,0.004,0.008,0.006c0.063,0.057,0.123,0.113,0.185,0.168c0.002,0.004,0.005,0.004,0.007,0.006
		c0.06,0.056,0.12,0.111,0.181,0.168c0.002,0.001,0.004,0.002,0.006,0.005c0.06,0.057,0.119,0.11,0.178,0.165
		c0.005,0.003,0.01,0.007,0.014,0.012c0.057,0.055,0.114,0.107,0.173,0.163c0.004,0.005,0.008,0.01,0.012,0.014
		c0.06,0.055,0.118,0.109,0.176,0.166c0.005,0.004,0.007,0.008,0.012,0.01c0.058,0.056,0.115,0.113,0.176,0.17
		c0.001,0.002,0.003,0.004,0.007,0.008c0.057,0.055,0.112,0.109,0.168,0.164c0.006,0.005,0.012,0.01,0.017,0.016
		c0.061,0.06,0.12,0.119,0.183,0.181c7.75,7.717,12.537,18.355,12.539,30.125C89.647,58.38,84.86,69.021,77.11,76.739l-0.183,0.182
		c-0.007,0-0.014,0.011-0.02,0.011c-0.053,0.059-0.108,0.108-0.164,0.159c-0.007,0.011-0.012,0.021-0.021,0.021
		c-0.056,0.061-0.109,0.109-0.163,0.16c-0.005,0.01-0.01,0.01-0.014,0.01c-0.059,0.061-0.114,0.109-0.172,0.17
		c-0.008,0-0.015,0.01-0.021,0.021c-0.057,0.051-0.111,0.1-0.166,0.149c-0.007,0.01-0.011,0.01-0.018,0.021
		c-0.057,0.051-0.111,0.1-0.17,0.159c-0.008,0-0.014,0.011-0.021,0.021c-0.057,0.051-0.113,0.102-0.17,0.15
		c-0.005,0.012-0.01,0.012-0.014,0.012c-0.061,0.059-0.116,0.108-0.177,0.158c-0.005,0.012-0.009,0.012-0.012,0.02
		c-0.061,0.051-0.12,0.103-0.179,0.16c-0.005,0-0.009,0-0.013,0.012c-0.06,0.049-0.121,0.101-0.182,0.158
		c-0.002,0-0.005,0-0.009,0.012c-0.125,0.109-0.252,0.22-0.377,0.33h-0.005c-5.827,5.021-13.025,8.5-20.97,9.81h-0.004
		c-0.084,0.02-0.168,0.03-0.252,0.041c-0.007,0.01-0.013,0.01-0.019,0.01c-0.08,0.01-0.157,0.02-0.236,0.029
		c-0.014,0.012-0.026,0.012-0.039,0.012c-0.073,0.008-0.145,0.018-0.219,0.029c-0.018,0-0.034,0.01-0.049,0.01
		c-0.071,0.01-0.143,0.02-0.209,0.029c-0.022,0-0.041,0.012-0.063,0.012c-0.065,0.008-0.132,0.02-0.197,0.029h-0.07
		c-0.063,0.01-0.121,0.02-0.184,0.028c-0.03,0-0.062,0.01-0.092,0.01c-0.054,0.011-0.109,0.011-0.164,0.021
		c-0.035,0-0.07,0.01-0.104,0.01c-0.051,0.012-0.1,0.012-0.147,0.021c-0.043,0.01-0.086,0.01-0.129,0.01
		c-0.039,0.01-0.078,0.01-0.117,0.02c-0.052,0-0.103,0.011-0.153,0.011c-0.03,0.012-0.062,0.012-0.093,0.012
		c-0.061,0.008-0.121,0.02-0.184,0.02c-0.021,0.011-0.038,0.011-0.057,0.011c-0.071,0.01-0.144,0.01-0.214,0.02h-0.027
		c-1.05,0.101-2.111,0.16-3.182,0.18h-0.001"/>
	<path fill="#E8E8E8" d="M47.671,89.207h0.002v4h-0.002V89.207z M50.853,89.027h0.028H50.853 M51.095,89.006
		c0.02,0,0.036,0,0.058-0.008C51.134,89.006,51.114,89.006,51.095,89.006 M51.335,88.979c0.031,0,0.062,0,0.093-0.013
		C51.396,88.979,51.366,88.979,51.335,88.979 M51.581,88.957c0.039-0.01,0.078-0.01,0.118-0.02
		C51.659,88.947,51.62,88.947,51.581,88.957 M51.827,88.928c0.049-0.011,0.098-0.011,0.146-0.021
		C51.925,88.918,51.876,88.918,51.827,88.928 M52.079,88.898c0.055-0.012,0.11-0.012,0.164-0.021
		C52.189,88.887,52.134,88.887,52.079,88.898 M52.335,88.867c0.062-0.01,0.121-0.02,0.183-0.029
		C52.456,88.848,52.396,88.857,52.335,88.867 M52.589,88.838c0.066-0.01,0.132-0.02,0.197-0.028
		C52.722,88.818,52.655,88.828,52.589,88.838 M52.849,88.797c0.067-0.01,0.14-0.02,0.209-0.028
		C52.988,88.777,52.918,88.787,52.849,88.797 M53.107,88.756c0.073-0.01,0.145-0.02,0.219-0.026
		C53.253,88.736,53.179,88.746,53.107,88.756 M53.366,88.717c0.079-0.01,0.154-0.02,0.234-0.028
		C53.521,88.697,53.443,88.707,53.366,88.717 M53.62,88.678c0.084-0.013,0.168-0.021,0.252-0.041
		C53.788,88.656,53.704,88.666,53.62,88.678 M53.876,88.637c7.944-1.31,15.142-4.789,20.97-9.81
		C69.017,83.848,61.82,87.328,53.876,88.637 M74.849,78.828c0.125-0.111,0.252-0.221,0.377-0.33
		C75.101,78.607,74.974,78.717,74.849,78.828 M75.236,78.486c0.06-0.059,0.121-0.109,0.181-0.158
		C75.357,78.377,75.298,78.428,75.236,78.486 M75.429,78.318c0.06-0.063,0.118-0.111,0.179-0.162
		C75.546,78.207,75.489,78.256,75.429,78.318 M75.619,78.137c0.061-0.05,0.117-0.101,0.177-0.158
		C75.738,78.037,75.677,78.088,75.619,78.137 M75.808,77.967c0.059-0.049,0.114-0.1,0.17-0.147
		C75.923,77.867,75.866,77.918,75.808,77.967 M75.998,77.797c0.059-0.061,0.115-0.108,0.171-0.159
		C76.113,77.688,76.056,77.736,75.998,77.797 M76.185,77.617c0.057-0.049,0.11-0.1,0.166-0.15
		C76.296,77.518,76.24,77.568,76.185,77.617 M76.371,77.447c0.059-0.061,0.115-0.109,0.173-0.17
		C76.486,77.338,76.429,77.387,76.371,77.447 M76.556,77.268c0.056-0.052,0.108-0.101,0.164-0.16
		C76.665,77.168,76.611,77.217,76.556,77.268 M76.741,77.086c0.055-0.049,0.109-0.1,0.164-0.157
		C76.851,76.986,76.796,77.037,76.741,77.086 M76.923,76.918l0.184-0.182c7.75-7.719,12.536-18.359,12.538-30.128
		c-0.002,11.769-4.788,22.41-12.538,30.128L76.923,76.918 M77.105,16.483c-0.063-0.062-0.121-0.122-0.184-0.182
		C76.984,16.362,77.044,16.422,77.105,16.483 M76.908,16.288c-0.058-0.055-0.112-0.11-0.168-0.164
		C76.796,16.177,76.853,16.233,76.908,16.288 M76.732,16.115c-0.061-0.056-0.117-0.112-0.177-0.17
		C76.615,16.002,76.673,16.059,76.732,16.115 M76.546,15.937c-0.057-0.057-0.116-0.113-0.176-0.167
		C76.429,15.824,76.488,15.881,76.546,15.937 M76.359,15.756c-0.061-0.055-0.117-0.107-0.175-0.164
		C76.242,15.648,76.3,15.702,76.359,15.756 M76.173,15.583c-0.058-0.056-0.118-0.108-0.178-0.166
		C76.054,15.473,76.115,15.527,76.173,15.583 M75.99,15.412c-0.062-0.056-0.122-0.112-0.183-0.168
		C75.868,15.299,75.929,15.356,75.99,15.412 M75.802,15.239c-0.062-0.055-0.121-0.11-0.185-0.168
		C75.679,15.128,75.741,15.184,75.802,15.239 M75.611,15.067c-0.063-0.057-0.122-0.113-0.186-0.168
		C75.489,14.956,75.55,15.008,75.611,15.067 M75.423,14.897C69.56,9.658,62.245,6.008,54.146,4.62
		C62.245,6.008,69.56,9.658,75.423,14.897 M54.132,4.618C54.052,4.604,53.97,4.59,53.89,4.576C53.97,4.59,54.05,4.604,54.132,4.618
		 M53.861,4.572c-0.077-0.012-0.154-0.025-0.231-0.036C53.706,4.547,53.784,4.56,53.861,4.572 M53.591,4.529
		c-0.073-0.011-0.146-0.023-0.22-0.035C53.445,4.506,53.517,4.518,53.591,4.529 M53.323,4.487c-0.07-0.009-0.139-0.021-0.207-0.031
		C53.185,4.466,53.255,4.478,53.323,4.487 M53.05,4.446c-0.063-0.008-0.127-0.017-0.189-0.027
		C52.923,4.429,52.986,4.438,53.05,4.446 M52.779,4.408c-0.06-0.007-0.117-0.014-0.177-0.024C52.662,4.394,52.72,4.401,52.779,4.408
		 M52.509,4.371c-0.055-0.007-0.107-0.014-0.161-0.019C52.4,4.357,52.454,4.364,52.509,4.371 M52.239,4.337
		c-0.048-0.006-0.096-0.011-0.145-0.018C52.144,4.326,52.191,4.331,52.239,4.337 M51.964,4.303
		c-0.039-0.006-0.077-0.009-0.116-0.015C51.884,4.295,51.925,4.298,51.964,4.303 M51.693,4.273C51.659,4.27,51.626,4.265,51.59,4.26
		C51.626,4.265,51.659,4.27,51.693,4.273 M51.423,4.242c-0.026-0.003-0.056-0.005-0.082-0.007
		C51.367,4.237,51.396,4.239,51.423,4.242 M51.154,4.214c-0.021-0.001-0.039-0.001-0.06-0.005
		C51.114,4.211,51.134,4.212,51.154,4.214 M50.877,4.189c-0.004-0.001-0.008-0.001-0.011-0.001
		C50.869,4.188,50.873,4.188,50.877,4.189 M47.673,4.007h-0.002V0.006h0.002V4.007z"/>
	<path fill="#DFBF3F" d="M64.501,69.047H49.269V47.348h20.84v16.089C70.108,66.527,67.585,69.047,64.501,69.047 M53.28,61.367
		L53.28,61.367v0.441h11.221c0.646-0.013,1.163-0.521,1.17-1.17c-0.007-0.652-0.522-1.16-1.17-1.173H53.28
		c-0.646,0.013-1.162,0.521-1.172,1.173c0.01,0.647,0.524,1.157,1.172,1.17V61.367 M53.28,55.758L53.28,55.758v0.439h11.221
		c0.646-0.01,1.16-0.52,1.17-1.17c-0.007-0.65-0.522-1.16-1.17-1.17H53.28c-0.646,0.01-1.162,0.52-1.172,1.17
		c0.01,0.65,0.524,1.16,1.172,1.17V55.758 M70.108,44.825h-20.84V24.18H64.5c3.084,0,5.607,2.521,5.607,5.606L70.108,44.825
		 M53.28,33.293c-0.646,0.01-1.162,0.523-1.172,1.172c0.01,0.648,0.524,1.162,1.172,1.175h11.221
		c0.646-0.011,1.163-0.526,1.17-1.175c-0.007-0.647-0.522-1.162-1.17-1.172v0.443v-0.443H53.28"/>
	<path fill="#E8E8E8" d="M64.5,71.857H47.67V21.374H64.5c4.653,0,8.413,3.758,8.413,8.414v33.65
		C72.913,68.098,69.153,71.857,64.5,71.857 M49.269,47.348v21.698H64.5c3.084,0,5.608-2.52,5.608-5.608v-16.09H49.269 M49.269,24.18
		v20.645h20.84V29.788c0-3.086-2.524-5.606-5.608-5.606L49.269,24.18"/>
	<polygon fill="#E8E8E8" points="64.501,34.752 53.28,34.752 53.083,34.665 52.995,34.465 53.083,34.268 53.28,34.18 64.501,34.18 
		64.501,33.737 64.501,34.18 64.698,34.268 64.786,34.465 64.698,34.665 	"/>
	<path fill="#E8E8E8" d="M64.501,35.639H53.28c-0.646-0.013-1.162-0.524-1.172-1.175c0.01-0.646,0.524-1.161,1.172-1.172h11.221
		v0.443v0.444H53.28l-0.197,0.087l-0.088,0.196l0.088,0.199l0.197,0.088h11.221l0.197-0.088l0.088-0.199l-0.088-0.196l-0.197-0.087
		v-0.444v-0.443c0.646,0.011,1.162,0.524,1.17,1.172C65.663,35.113,65.147,35.629,64.501,35.639"/>
	<polygon fill="#E8E8E8" points="53.28,55.758 53.28,55.758 53.28,55.316 53.083,55.229 52.995,55.027 53.083,54.828 53.28,54.738 
		64.501,54.738 64.698,54.828 64.786,55.027 64.698,55.229 64.501,55.316 53.28,55.316 	"/>
	<path fill="#E8E8E8" d="M64.501,56.197H53.28v-0.439v-0.44h11.221l0.197-0.088l0.088-0.201l-0.088-0.199l-0.197-0.092H53.28
		l-0.197,0.092l-0.088,0.199l0.088,0.201l0.197,0.088v0.44v0.439c-0.646-0.01-1.162-0.52-1.172-1.17
		c0.01-0.65,0.524-1.16,1.172-1.17h11.221c0.646,0.01,1.162,0.52,1.17,1.17C65.661,55.678,65.147,56.188,64.501,56.197"/>
	<polygon fill="#E8E8E8" points="53.28,61.367 53.28,61.367 53.28,60.928 53.083,60.838 52.995,60.637 53.083,60.438 53.28,60.348 
		64.501,60.348 64.698,60.438 64.786,60.637 64.698,60.838 64.501,60.928 53.28,60.928 	"/>
	<path fill="#E8E8E8" d="M64.501,61.807H53.28v-0.439v-0.438h11.221l0.197-0.091l0.088-0.2l-0.088-0.199l-0.197-0.09H53.28
		l-0.197,0.09l-0.088,0.199l0.088,0.2l0.197,0.091v0.438v0.439c-0.646-0.011-1.162-0.521-1.172-1.17
		c0.01-0.648,0.524-1.158,1.172-1.171h11.221c0.646,0.013,1.162,0.521,1.17,1.171C65.663,61.287,65.147,61.797,64.501,61.807"/>
</g>
</svg>
