<?xml version="1.0" encoding="utf-8"?>
<!-- Generator: Adobe Illustrator 16.0.0, SVG Export Plug-In . SVG Version: 6.00 Build 0)  -->
<!DOCTYPE svg PUBLIC "-//W3C//DTD SVG 1.1//EN" "http://www.w3.org/Graphics/SVG/1.1/DTD/svg11.dtd">
<svg version="1.1" id="Layer_1" xmlns="http://www.w3.org/2000/svg" xmlns:xlink="http://www.w3.org/1999/xlink" x="0px" y="0px"
	 width="93.641px" height="93.219px" viewBox="0 0 93.641 93.219" enable-background="new 0 0 93.641 93.219" xml:space="preserve">
<g>
	<path fill="#A3F073" d="M91.644,46.621c0,24.629-20.068,44.601-44.826,44.601C22.066,91.221,2,71.25,2,46.621
		C2,21.971,22.066,2,46.817,2C71.575,2,91.644,21.971,91.644,46.621"/>
	<path fill="#FFFFFF" d="M4.299,47.891h14.607c0.715,0,1.316-0.589,1.4-1.37l1.61-14.86c0.183-0.688,0.75-1.17,1.431-1.188
		c0.641,0,1.211,0.459,1.411,1.118l3.785,30.031l0.039,0.209c0.515,2.051,2.224,3.48,4.229,3.48c1.968-0.041,3.66-1.541,4.119-3.65
		l0.029-0.17l3.232-29.83c0.182-0.688,0.752-1.17,1.432-1.188c0.643,0,1.211,0.459,1.412,1.118l3.78,30.031l0.039,0.209
		c0.519,2.051,2.228,3.48,4.23,3.48c1.969-0.041,3.66-1.541,4.117-3.65l0.03-0.17l3.233-29.83c0.181-0.688,0.75-1.17,1.434-1.188
		c0.641,0,1.211,0.459,1.413,1.118l3.783,30.041l0.034,0.199c0.519,2.051,2.229,3.48,4.229,3.48c1.969-0.041,3.665-1.541,4.122-3.65
		l0.031-0.17l1.472-13.6h13.354c0.781,0,1.414-0.689,1.414-1.551c0-0.868-0.633-1.559-1.414-1.559H73.735
		c-0.717,0-1.315,0.59-1.403,1.369L70.722,61.01c-0.182,0.69-0.748,1.17-1.432,1.18c-0.64,0-1.211-0.449-1.412-1.109l-3.781-30.028
		L64.06,30.84c-0.52-2.049-2.229-3.479-4.235-3.479c-1.966,0.04-3.658,1.54-4.115,3.65l-0.027,0.17L52.444,61.01
		c-0.182,0.69-0.75,1.17-1.43,1.18c-0.641,0-1.209-0.449-1.41-1.119l-3.785-30.019l-0.036-0.212
		c-0.517-2.049-2.226-3.479-4.234-3.479c-1.967,0.04-3.656,1.54-4.115,3.64l-0.029,0.182L34.17,61.01
		c-0.18,0.69-0.75,1.17-1.432,1.18c-0.641,0-1.209-0.449-1.41-1.109l-3.785-30.039l-0.037-0.201
		c-0.518-2.049-2.227-3.479-4.232-3.479c-1.968,0.04-3.659,1.54-4.118,3.64l-0.029,0.182l-1.472,13.59H4.299
		c-0.775,0-1.411,0.7-1.411,1.56C2.887,47.191,3.521,47.891,4.299,47.891"/>
	<path fill="#7BB257" d="M47.513,89.221v-25.9c0.799,1.219,2.107,1.99,3.577,1.99c1.968-0.041,3.659-1.541,4.116-3.65l0.029-0.17
		l3.235-29.83c0.179-0.688,0.75-1.17,1.433-1.188c0.642,0,1.211,0.459,1.412,1.118L65.1,61.632l0.034,0.199
		c0.518,2.051,2.229,3.48,4.229,3.48c1.969-0.041,3.664-1.541,4.121-3.65l0.032-0.17l1.472-13.6h13.354
		c0.58,0,1.078-0.379,1.298-0.931C89.548,58.59,84.779,69.1,77.103,76.74c-5.071,5.041-11.399,8.83-18.481,10.84
		c-0.021,0.01-0.041,0.021-0.062,0.021c-0.054,0.018-0.104,0.028-0.157,0.039c-0.031,0.01-0.063,0.02-0.097,0.028
		c-0.043,0.011-0.089,0.031-0.134,0.039c-0.039,0.013-0.08,0.021-0.118,0.031c-0.043,0.01-0.089,0.02-0.132,0.041
		c-0.041,0.008-0.082,0.02-0.121,0.029c-0.043,0.01-0.084,0.02-0.127,0.028c-0.043,0.01-0.086,0.021-0.129,0.029
		c-0.039,0.012-0.08,0.021-0.119,0.031c-0.045,0.02-0.093,0.029-0.136,0.039c-0.038,0.01-0.073,0.02-0.109,0.031
		c-0.05,0.01-0.1,0.02-0.147,0.028c-0.035,0.01-0.069,0.021-0.105,0.031c-0.05,0.008-0.1,0.02-0.149,0.029
		c-0.033,0.01-0.068,0.02-0.104,0.028c-0.05,0.011-0.101,0.021-0.15,0.029c-0.035,0.012-0.068,0.021-0.104,0.031
		c-0.051,0.01-0.104,0.02-0.152,0.028c-0.034,0.011-0.067,0.021-0.102,0.021c-0.053,0.02-0.104,0.029-0.157,0.039
		c-0.034,0.01-0.069,0.01-0.104,0.02c-0.05,0.011-0.101,0.021-0.152,0.029c-0.036,0.012-0.07,0.021-0.107,0.031
		c-0.049,0.01-0.1,0.02-0.146,0.031c-0.039,0-0.08,0.008-0.118,0.018c-0.048,0.012-0.095,0.021-0.142,0.031
		c-0.037,0.01-0.076,0.01-0.113,0.02c-0.049,0.01-0.1,0.021-0.146,0.029c-0.038,0.01-0.077,0.01-0.116,0.021
		c-0.047,0.011-0.093,0.021-0.142,0.029c-0.039,0.01-0.078,0.01-0.117,0.021c-0.047,0.012-0.095,0.02-0.143,0.03
		c-0.041,0-0.081,0.011-0.122,0.021c-0.048,0.01-0.093,0.01-0.138,0.02c-0.041,0.011-0.082,0.021-0.123,0.021
		c-0.045,0.01-0.094,0.021-0.139,0.031c-0.042,0-0.085,0.01-0.128,0.02c-0.043,0-0.084,0.01-0.129,0.02
		c-0.043,0-0.091,0.011-0.136,0.021c-0.039,0.008-0.082,0.008-0.123,0.02c-0.048,0.011-0.097,0.011-0.146,0.021
		c-0.037,0.01-0.076,0.01-0.113,0.02c-0.049,0-0.1,0.011-0.146,0.021c-0.037,0-0.077,0.008-0.114,0.008
		c-0.05,0.012-0.104,0.021-0.154,0.031c-0.031,0-0.064,0.01-0.102,0.01c-0.054,0.01-0.109,0.021-0.166,0.021
		c-0.029,0.01-0.061,0.01-0.089,0.01c-0.061,0.01-0.12,0.021-0.179,0.031c-0.026,0-0.052,0-0.077,0.01
		c-0.063,0-0.125,0.01-0.188,0.02c-0.021,0-0.049,0-0.071,0.011c-0.065,0.01-0.136,0.01-0.2,0.02c-0.018,0-0.03,0-0.043,0.01
		c-0.076,0-0.151,0.013-0.227,0.021h-0.023c-1.225,0.129-2.462,0.209-3.712,0.229C47.619,89.209,47.564,89.221,47.513,89.221
		 M69.291,62.189c-0.641,0-1.211-0.449-1.411-1.109l-3.782-30.028L64.06,30.84c-0.52-2.05-2.229-3.479-4.235-3.479
		c-1.967,0.04-3.658,1.54-4.115,3.65l-0.027,0.17L52.443,61.01c-0.181,0.69-0.75,1.17-1.429,1.18c-0.641,0-1.209-0.449-1.41-1.119
		l-2.092-16.589V4.011h0.159c10.057,0.198,19.252,3.839,26.464,9.79h0.002c0.063,0.049,0.127,0.108,0.189,0.158h0.002
		c0.063,0.052,0.127,0.111,0.19,0.16h0.001c0.064,0.062,0.125,0.11,0.188,0.161c0.003,0,0.005,0,0.007,0.009
		c0.061,0.05,0.123,0.102,0.184,0.149c0.002,0.011,0.004,0.011,0.006,0.011c0.062,0.05,0.123,0.11,0.185,0.16h0.007
		c0.062,0.06,0.12,0.11,0.181,0.159c0.002,0.012,0.004,0.012,0.006,0.012c0.063,0.049,0.121,0.109,0.185,0.158
		C75.529,15,75.59,15.05,75.65,15.11h0.008c0.063,0.06,0.117,0.11,0.178,0.171c0.003,0,0.01,0,0.012,0.009
		c0.058,0.05,0.113,0.102,0.174,0.16c0.003,0,0.009,0.01,0.015,0.01c0.059,0.052,0.112,0.102,0.168,0.16
		c0.004,0,0.008,0.011,0.016,0.011c0.055,0.051,0.111,0.109,0.168,0.159c0.004,0,0.01,0.012,0.013,0.012
		c0.057,0.06,0.112,0.108,0.166,0.158c0.012,0.012,0.023,0.021,0.034,0.03c0.049,0.05,0.099,0.1,0.146,0.15
		c0.011,0.01,0.021,0.01,0.029,0.02c0.051,0.05,0.1,0.102,0.151,0.15c0.058,0.06,0.117,0.119,0.178,0.18
		C84.651,24,89.39,34.29,89.634,45.689c-0.224-0.539-0.716-0.908-1.288-0.908H73.734c-0.716,0-1.313,0.589-1.402,1.369
		l-1.609,14.858C70.541,61.701,69.974,62.18,69.291,62.189"/>
	<path fill="#D8D8D8" d="M69.363,65.311c-2,0-3.711-1.431-4.229-3.48l-0.033-0.2L61.316,31.59c-0.201-0.659-0.771-1.118-1.412-1.118
		c-0.684,0.02-1.254,0.5-1.434,1.188l-3.234,29.83l-0.028,0.17c-0.457,2.109-2.15,3.609-4.117,3.65c-1.469,0-2.779-0.771-3.578-1.99
		V44.481l2.092,16.589c0.201,0.67,0.771,1.119,1.41,1.119c0.68-0.01,1.248-0.488,1.43-1.181L55.68,31.18l0.029-0.17
		c0.457-2.11,2.147-3.61,4.115-3.65c2.008,0,3.717,1.431,4.233,3.479l0.037,0.211l3.784,30.03c0.201,0.66,0.771,1.109,1.412,1.109
		c0.682-0.01,1.25-0.488,1.43-1.18l1.611-14.859c0.088-0.78,0.686-1.369,1.401-1.369h14.607c0.574,0,1.066,0.369,1.289,0.909
		c0.08,0.2,0.125,0.42,0.125,0.648c0,0.222-0.041,0.432-0.117,0.621c-0.219,0.551-0.717,0.93-1.297,0.93H74.988l-1.473,13.6
		l-0.031,0.17C73.027,63.77,71.333,65.27,69.363,65.311"/>
</g>
</svg>
