<?xml version="1.0" encoding="utf-8"?>
<!-- Generator: Adobe Illustrator 16.0.0, SVG Export Plug-In . SVG Version: 6.00 Build 0)  -->
<!DOCTYPE svg PUBLIC "-//W3C//DTD SVG 1.1//EN" "http://www.w3.org/Graphics/SVG/1.1/DTD/svg11.dtd">
<svg version="1.1" id="Layer_1" xmlns="http://www.w3.org/2000/svg" xmlns:xlink="http://www.w3.org/1999/xlink" x="0px" y="0px"
	 width="93.641px" height="93.219px" viewBox="0 0 93.641 93.219" enable-background="new 0 0 93.641 93.219" xml:space="preserve">
<g>
	<path fill="#F06342" d="M91.644,46.619c0,24.631-20.067,44.603-44.826,44.603C22.067,91.221,2,71.25,2,46.619
		C2,21.97,22.067,2,46.817,2C71.576,2,91.644,21.97,91.644,46.619"/>
	<path fill="#FFFFFF" d="M39.896,41.57l-0.146,0.15v3.158l0.146,0.15h21.826l0.151-0.15V41.72l-0.151-0.15H39.896 M33.426,21.03
		h31.157c2.658,0,4.814,2.149,4.814,4.81V71c0,0.66-0.539,1.2-1.203,1.2H34.479c-0.664,0-1.205-0.54-1.205-1.2V21.181L33.426,21.03
		 M39.896,49.1L39.75,49.25v3.16l0.146,0.15h21.826l0.151-0.15v-3.16L61.722,49.1H39.896 M39.896,56.62l-0.146,0.149v3.16
		l0.146,0.159h21.826l0.151-0.159v-3.16l-0.151-0.149H39.896 M39.821,32.09l-0.149,0.15v4.21l0.149,0.149h13.851l0.147-0.149v-4.21
		l-0.147-0.15H39.821"/>
	<path fill="#FFFFFF" d="M38.694,21.03v13.24H25.449c-0.663,0-1.203-0.54-1.203-1.199v-7.23c0-2.659,2.184-4.81,4.815-4.81
		L38.694,21.03L38.694,21.03z M29.813,23.28c-1.828,0-3.313,1.489-3.313,3.32v5.107c0,0.172,0.137,0.301,0.303,0.301h6.321V26.6
		C33.126,24.77,31.642,23.28,29.813,23.28"/>
	<path fill="#D3543C" d="M47.513,89.221V72.2h20.683c0.664,0,1.203-0.54,1.203-1.2V25.84c0-2.659-2.156-4.809-4.816-4.809H47.513
		V4.01h0.159c5.114,0.1,10.007,1.09,14.526,2.819c0.005,0.01,0.013,0.01,0.019,0.01c0.068,0.03,0.138,0.051,0.207,0.08
		c0.013,0.012,0.025,0.012,0.037,0.021c0.063,0.02,0.127,0.05,0.192,0.07c0.017,0.01,0.032,0.01,0.049,0.021
		C62.765,7.06,62.826,7.08,62.888,7.1c0.019,0.01,0.036,0.02,0.056,0.029C63.002,7.15,63.06,7.17,63.12,7.2
		c0.021,0.01,0.043,0.021,0.065,0.03c0.056,0.02,0.108,0.04,0.164,0.06c0.024,0.01,0.052,0.031,0.075,0.04
		c0.054,0.021,0.105,0.04,0.155,0.06c0.029,0.011,0.057,0.021,0.083,0.04c0.051,0.021,0.103,0.041,0.151,0.061
		c0.027,0.01,0.059,0.03,0.088,0.041c0.048,0.019,0.095,0.04,0.142,0.059c0.033,0.021,0.065,0.03,0.099,0.04
		c0.045,0.021,0.088,0.04,0.134,0.061c0.034,0.02,0.069,0.03,0.104,0.05c0.043,0.021,0.084,0.041,0.127,0.06
		c0.035,0.011,0.072,0.03,0.109,0.051c0.041,0.01,0.083,0.029,0.124,0.05c0.037,0.02,0.074,0.04,0.11,0.05
		c0.039,0.021,0.078,0.04,0.119,0.061c0.038,0.021,0.077,0.039,0.116,0.05c0.038,0.02,0.074,0.04,0.112,0.06
		c0.043,0.02,0.085,0.04,0.126,0.06c0.034,0.011,0.066,0.03,0.1,0.041c0.046,0.029,0.093,0.05,0.138,0.069
		c0.03,0.021,0.063,0.031,0.096,0.05c0.046,0.021,0.093,0.04,0.141,0.07c0.027,0.01,0.058,0.021,0.084,0.041
		c0.052,0.021,0.104,0.05,0.153,0.07c0.024,0.02,0.049,0.03,0.074,0.04c0.054,0.029,0.107,0.06,0.161,0.08
		c0.021,0.01,0.044,0.02,0.065,0.039c0.058,0.03,0.113,0.051,0.17,0.081c0.02,0.01,0.037,0.021,0.056,0.029
		c0.062,0.031,0.121,0.07,0.182,0.1c0.016,0,0.03,0.011,0.045,0.021c0.063,0.03,0.125,0.07,0.188,0.102
		c0.015,0.01,0.024,0.01,0.039,0.021c0.066,0.04,0.136,0.068,0.202,0.109c0.007,0,0.016,0.01,0.021,0.01
		c0.07,0.04,0.143,0.08,0.213,0.12h0.012c1.66,0.909,3.254,1.93,4.772,3.051h0.003c0.068,0.049,0.136,0.099,0.204,0.149h0.002
		c0.067,0.05,0.135,0.101,0.203,0.149c0.002,0,0.002,0.01,0.004,0.01c0.064,0.05,0.133,0.101,0.198,0.151h0.007
		c0.064,0.049,0.132,0.099,0.196,0.15c0.002,0.009,0.006,0.009,0.008,0.009c0.063,0.05,0.13,0.1,0.192,0.149
		c0.004,0,0.009,0.011,0.013,0.011c0.063,0.05,0.127,0.1,0.188,0.149c0.003,0,0.008,0,0.012,0.011c0.063,0.05,0.125,0.1,0.188,0.148
		c0.005,0,0.01,0,0.016,0.01c0.063,0.051,0.121,0.101,0.183,0.151c0.007,0,0.013,0.009,0.018,0.009
		c0.062,0.05,0.122,0.102,0.185,0.15c0.004,0,0.008,0.01,0.015,0.01c0.06,0.05,0.121,0.1,0.182,0.15
		c0.005,0.01,0.012,0.01,0.016,0.01c0.062,0.06,0.121,0.11,0.184,0.16c0.004,0,0.008,0,0.014,0.011
		c0.063,0.049,0.119,0.099,0.181,0.149c0.007,0.01,0.011,0.01,0.018,0.02c0.06,0.05,0.118,0.1,0.176,0.15
		c0.007,0,0.013,0.01,0.019,0.01c0.06,0.05,0.119,0.1,0.179,0.16c0.004,0,0.009,0,0.015,0.011c0.058,0.049,0.115,0.099,0.175,0.149
		c0.006,0.01,0.013,0.01,0.021,0.02c0.057,0.05,0.112,0.1,0.169,0.149c0.007,0.011,0.015,0.011,0.021,0.021
		c0.058,0.05,0.112,0.102,0.17,0.15c0.007,0.011,0.015,0.011,0.02,0.02c0.06,0.05,0.116,0.102,0.172,0.16
		c0.007,0,0.013,0.01,0.019,0.01c0.058,0.051,0.115,0.11,0.173,0.16c0.006,0.01,0.01,0.01,0.015,0.01
		c0.058,0.061,0.114,0.111,0.17,0.16c0.007,0.01,0.013,0.01,0.019,0.021c0.057,0.05,0.113,0.109,0.168,0.16
		c0.007,0,0.014,0.01,0.019,0.021c0.059,0.049,0.117,0.109,0.176,0.159c0.004,0.01,0.006,0.01,0.01,0.01
		c0.06,0.061,0.117,0.11,0.177,0.17c0.002,0,0.004,0.01,0.008,0.01c0.057,0.05,0.11,0.11,0.168,0.16
		c0.004,0.011,0.011,0.011,0.016,0.021c0.062,0.06,0.121,0.119,0.182,0.18c7.75,7.72,12.537,18.36,12.539,30.13
		c-0.002,11.76-4.789,22.399-12.539,30.12c-0.061,0.06-0.12,0.119-0.182,0.18c-0.007,0-0.014,0.011-0.019,0.021
		c-0.055,0.051-0.108,0.101-0.164,0.16c-0.007,0-0.014,0.01-0.021,0.021c-0.056,0.05-0.108,0.102-0.164,0.161
		c-0.004,0-0.008,0-0.012,0.009c-0.059,0.05-0.115,0.11-0.174,0.16c-0.006,0.01-0.014,0.01-0.021,0.021
		c-0.055,0.05-0.109,0.109-0.166,0.159c-0.006,0-0.01,0.012-0.016,0.012c-0.057,0.06-0.113,0.108-0.172,0.159
		c-0.006,0.011-0.012,0.011-0.021,0.021c-0.055,0.05-0.111,0.1-0.17,0.16c-0.004,0-0.008,0-0.012,0.01
		c-0.061,0.05-0.117,0.101-0.178,0.16c-0.004,0-0.008,0.01-0.012,0.01c-0.06,0.05-0.119,0.109-0.179,0.16
		c-0.004,0-0.008,0.01-0.013,0.01c-0.06,0.051-0.12,0.109-0.181,0.16c-0.002,0-0.007,0.01-0.011,0.01
		c-0.125,0.109-0.252,0.222-0.377,0.33H74.85c-5.828,5.021-13.024,8.511-20.97,9.82h-0.004c-0.084,0.01-0.168,0.02-0.252,0.039
		h-0.02c-0.08,0.011-0.155,0.031-0.234,0.041h-0.04c-0.074,0.01-0.146,0.029-0.219,0.039h-0.05c-0.069,0.012-0.142,0.021-0.209,0.03
		c-0.021,0.011-0.041,0.011-0.063,0.011c-0.065,0.01-0.131,0.02-0.197,0.029c-0.023,0-0.048,0-0.071,0.01
		c-0.062,0.01-0.121,0.01-0.183,0.021c-0.03,0.011-0.062,0.011-0.092,0.011c-0.054,0.011-0.108,0.021-0.164,0.021
		c-0.035,0.01-0.069,0.01-0.104,0.021c-0.049,0-0.099,0.01-0.146,0.01c-0.043,0.01-0.085,0.01-0.128,0.021
		c-0.04,0-0.079,0.01-0.118,0.01c-0.051,0.011-0.104,0.011-0.153,0.021c-0.031,0-0.061,0-0.093,0.01c-0.06,0-0.12,0.01-0.183,0.021
		h-0.058c-0.071,0.01-0.144,0.021-0.213,0.021c-0.012,0-0.021,0-0.029,0.009c-1.049,0.091-2.11,0.149-3.18,0.171
		C47.619,89.21,47.566,89.221,47.513,89.221"/>
	<path fill="#D18B7A" d="M61.723,60.09h-14.21v-3.471h14.21l0.15,0.15v3.16L61.723,60.09z M61.723,52.561h-14.21V49.1h14.21
		l0.15,0.149v3.16L61.723,52.561 M61.723,45.031h-14.21V41.57h14.21l0.15,0.15v3.158L61.723,45.031 M53.671,36.6h-6.157V32.09h6.157
		l0.148,0.15v4.209L53.671,36.6"/>
	<path fill="#D8D8D8" d="M68.194,72.2H47.513V60.09h14.209l0.151-0.16V56.77l-0.151-0.149H47.513v-4.06h14.209l0.151-0.15v-3.16
		l-0.151-0.149H47.513v-4.068h14.209l0.151-0.151v-3.158l-0.151-0.15H47.513V36.6h6.158l0.147-0.15v-4.21l-0.147-0.15h-6.158V21.031
		h17.069c2.658,0,4.814,2.148,4.814,4.809V71C69.397,71.66,68.858,72.2,68.194,72.2"/>
</g>
</svg>
