<?xml version="1.0" encoding="utf-8"?>
<!-- Generator: Adobe Illustrator 16.0.0, SVG Export Plug-In . SVG Version: 6.00 Build 0)  -->
<!DOCTYPE svg PUBLIC "-//W3C//DTD SVG 1.1//EN" "http://www.w3.org/Graphics/SVG/1.1/DTD/svg11.dtd">
<svg version="1.1" id="Layer_1" xmlns="http://www.w3.org/2000/svg" xmlns:xlink="http://www.w3.org/1999/xlink" x="0px" y="0px"
	 width="93.64px" height="93.218px" viewBox="0 0 93.64 93.218" enable-background="new 0 0 93.64 93.218" xml:space="preserve">
<g>
	<path fill="#F06342" d="M91.644,46.619c0,24.631-20.067,44.602-44.826,44.602C22.067,91.221,2,71.25,2,46.619
		C2,21.97,22.067,2,46.817,2C71.576,2,91.644,21.97,91.644,46.619"/>
	<path fill="#FFFFFF" d="M91.644,46.619h-2c-0.002,11.761-4.789,22.4-12.539,30.121c-7.756,7.709-18.449,12.48-30.287,12.48
		c-11.832,0-22.524-4.771-30.278-12.48C8.789,69.02,4.002,58.38,4,46.619C4.002,34.85,8.789,24.2,16.539,16.49
		C24.293,8.77,34.985,4,46.817,4c11.838,0,22.531,4.77,30.287,12.49c7.75,7.72,12.537,18.36,12.539,30.129H91.644h1.998
		C93.642,20.86,72.674,0,46.817,0C20.97,0,0.002,20.86,0,46.619c0.002,25.74,20.97,46.602,46.817,46.602
		c25.856,0,46.824-20.861,46.824-46.602H91.644"/>
	<path fill="#FFFFFF" d="M39.896,41.57l-0.146,0.15v3.159l0.146,0.15h21.826l0.152-0.15v-3.159l-0.152-0.15H39.896 M33.426,21.03
		h31.157c2.658,0,4.814,2.149,4.814,4.81V71c0,0.66-0.539,1.2-1.203,1.2H34.479c-0.664,0-1.205-0.54-1.205-1.2V21.181L33.426,21.03
		 M39.896,49.1l-0.146,0.15v3.16l0.146,0.15h21.826l0.152-0.15v-3.16l-0.152-0.15H39.896 M39.896,56.62l-0.146,0.149v3.16
		l0.146,0.16h21.826l0.152-0.16v-3.16l-0.152-0.149H39.896 M39.821,32.09l-0.149,0.15v4.21l0.149,0.149h13.851l0.147-0.149v-4.21
		l-0.147-0.15H39.821"/>
	<path fill="#FFFFFF" d="M38.694,21.03V34.27H25.449c-0.663,0-1.203-0.54-1.203-1.199v-7.23c0-2.66,2.183-4.81,4.815-4.81H38.694z
		 M29.813,23.28c-1.828,0-3.312,1.489-3.312,3.32v5.108c0,0.172,0.136,0.301,0.302,0.301h6.322v-5.409
		C33.126,24.77,31.642,23.28,29.813,23.28"/>
	<path fill="#DEDEDE" d="M93.643,46.619h-1.998h-2c-0.002,11.762-4.789,22.4-12.539,30.121c-7.569,7.529-17.937,12.25-29.433,12.469
		v4C73.134,92.76,93.643,72.08,93.643,46.619 M47.673,0.01v4c11.496,0.23,21.863,4.95,29.433,12.48
		c7.75,7.719,12.537,18.361,12.539,30.129h2h1.998C93.643,21.15,73.134,0.47,47.673,0.01"/>
	<path fill="#D3543C" d="M47.513,89.221V72.2h20.683c0.664,0,1.203-0.54,1.203-1.2V25.84c0-2.66-2.156-4.809-4.816-4.809H47.513
		V4.01h0.16c5.114,0.1,10.006,1.09,14.526,2.82c0.005,0.01,0.013,0.01,0.019,0.01c0.068,0.03,0.137,0.05,0.207,0.08
		c0.012,0.011,0.025,0.011,0.037,0.02c0.063,0.02,0.127,0.05,0.192,0.07c0.017,0.01,0.032,0.01,0.049,0.021
		C62.765,7.06,62.826,7.08,62.888,7.1c0.019,0.01,0.037,0.02,0.056,0.03c0.058,0.02,0.116,0.04,0.176,0.07
		c0.021,0.01,0.043,0.02,0.065,0.03c0.056,0.02,0.109,0.04,0.164,0.06c0.025,0.01,0.052,0.031,0.076,0.04
		c0.053,0.02,0.105,0.04,0.155,0.059c0.029,0.011,0.056,0.021,0.083,0.04c0.051,0.021,0.102,0.041,0.151,0.061
		c0.028,0.01,0.059,0.03,0.088,0.041c0.048,0.019,0.095,0.04,0.142,0.059c0.033,0.02,0.065,0.03,0.098,0.04
		c0.045,0.02,0.088,0.04,0.134,0.06c0.034,0.02,0.069,0.03,0.104,0.05c0.043,0.02,0.084,0.041,0.127,0.06
		c0.035,0.01,0.072,0.03,0.109,0.05c0.041,0.01,0.083,0.03,0.124,0.05c0.037,0.02,0.074,0.04,0.11,0.05
		c0.039,0.02,0.078,0.04,0.119,0.06c0.039,0.021,0.078,0.04,0.117,0.05c0.038,0.02,0.074,0.04,0.112,0.06
		c0.043,0.019,0.085,0.04,0.126,0.059c0.034,0.011,0.066,0.031,0.1,0.041c0.045,0.03,0.092,0.05,0.137,0.07
		c0.031,0.02,0.063,0.031,0.096,0.05c0.046,0.02,0.093,0.04,0.141,0.07c0.027,0.01,0.057,0.021,0.084,0.041
		c0.051,0.02,0.103,0.05,0.153,0.07c0.024,0.02,0.049,0.03,0.074,0.04c0.054,0.03,0.108,0.06,0.161,0.08
		c0.021,0.01,0.044,0.02,0.066,0.039c0.057,0.031,0.113,0.051,0.17,0.081c0.019,0.01,0.037,0.021,0.055,0.03
		c0.062,0.031,0.121,0.07,0.182,0.099c0.016,0,0.03,0.011,0.045,0.021c0.063,0.03,0.125,0.07,0.188,0.101
		c0.015,0.01,0.025,0.01,0.039,0.021c0.067,0.04,0.136,0.068,0.203,0.109c0.006,0,0.015,0.01,0.021,0.01
		c0.07,0.04,0.143,0.08,0.213,0.12h0.012c1.66,0.909,3.254,1.93,4.772,3.051h0.003c0.068,0.049,0.136,0.099,0.204,0.149h0.002
		c0.067,0.05,0.135,0.101,0.203,0.15c0.002,0,0.002,0.01,0.004,0.01c0.065,0.049,0.133,0.1,0.198,0.151h0.007
		c0.065,0.049,0.132,0.099,0.196,0.15c0.002,0.009,0.006,0.009,0.008,0.009c0.064,0.05,0.13,0.1,0.193,0.15
		c0.004,0,0.008,0.01,0.012,0.01c0.063,0.05,0.127,0.1,0.189,0.15c0.003,0,0.008,0,0.012,0.01c0.063,0.05,0.125,0.1,0.188,0.149
		c0.005,0,0.01,0,0.016,0.01c0.062,0.05,0.121,0.1,0.182,0.151c0.007,0,0.013,0.009,0.018,0.009c0.061,0.05,0.122,0.101,0.184,0.15
		c0.004,0,0.008,0.01,0.015,0.01c0.06,0.05,0.121,0.1,0.182,0.15c0.005,0.01,0.011,0.01,0.015,0.01
		c0.062,0.06,0.121,0.11,0.184,0.16c0.004,0,0.008,0,0.014,0.011c0.062,0.049,0.119,0.099,0.18,0.149
		c0.007,0.01,0.011,0.01,0.018,0.02c0.059,0.05,0.118,0.1,0.176,0.15c0.006,0,0.012,0.01,0.018,0.01c0.06,0.05,0.119,0.1,0.179,0.16
		c0.004,0,0.009,0,0.015,0.011c0.057,0.049,0.115,0.099,0.174,0.149c0.006,0.01,0.013,0.01,0.021,0.02
		c0.056,0.05,0.112,0.1,0.169,0.149c0.007,0.011,0.014,0.011,0.021,0.021c0.058,0.05,0.113,0.101,0.17,0.15
		c0.007,0.011,0.015,0.011,0.02,0.02c0.059,0.05,0.116,0.101,0.172,0.16c0.006,0,0.012,0.01,0.018,0.01
		c0.058,0.05,0.115,0.11,0.173,0.16c0.006,0.01,0.01,0.01,0.015,0.01c0.057,0.06,0.114,0.111,0.17,0.16
		c0.006,0.01,0.012,0.01,0.018,0.02c0.057,0.05,0.113,0.11,0.168,0.16c0.007,0,0.014,0.01,0.019,0.021
		c0.058,0.049,0.117,0.109,0.175,0.159c0.004,0.01,0.006,0.01,0.01,0.01c0.06,0.06,0.117,0.11,0.177,0.17
		c0.002,0,0.004,0.01,0.008,0.01c0.056,0.049,0.11,0.11,0.168,0.16c0.004,0.01,0.01,0.01,0.015,0.02
		c0.062,0.06,0.121,0.119,0.182,0.18c7.75,7.72,12.537,18.36,12.539,30.13c-0.002,11.76-4.789,22.399-12.539,30.12
		c-0.061,0.06-0.12,0.119-0.182,0.18c-0.006,0-0.013,0.01-0.018,0.02c-0.055,0.051-0.109,0.101-0.164,0.16
		c-0.007,0-0.014,0.01-0.021,0.021c-0.055,0.05-0.108,0.101-0.164,0.161c-0.004,0-0.008,0-0.012,0.009
		c-0.058,0.05-0.115,0.11-0.173,0.16c-0.006,0.01-0.014,0.01-0.021,0.02c-0.055,0.05-0.109,0.11-0.166,0.16
		c-0.006,0-0.01,0.011-0.016,0.011c-0.056,0.06-0.113,0.109-0.171,0.159c-0.006,0.011-0.012,0.011-0.021,0.021
		c-0.055,0.05-0.111,0.1-0.17,0.16c-0.004,0-0.008,0-0.012,0.01c-0.06,0.05-0.117,0.1-0.177,0.16c-0.004,0-0.008,0.01-0.012,0.01
		c-0.06,0.05-0.119,0.109-0.179,0.16c-0.004,0-0.008,0.01-0.012,0.01c-0.06,0.05-0.121,0.109-0.181,0.16
		c-0.002,0-0.007,0.01-0.011,0.01c-0.125,0.109-0.252,0.221-0.377,0.33h-0.004c-5.828,5.02-13.024,8.51-20.969,9.82h-0.004
		c-0.084,0.01-0.168,0.02-0.252,0.039h-0.02c-0.08,0.011-0.155,0.031-0.234,0.041h-0.04c-0.074,0.01-0.146,0.029-0.219,0.039h-0.05
		c-0.069,0.012-0.141,0.021-0.209,0.03c-0.021,0.011-0.041,0.011-0.063,0.011c-0.066,0.01-0.131,0.02-0.197,0.029
		c-0.024,0-0.048,0-0.072,0.01c-0.061,0.01-0.121,0.01-0.182,0.021c-0.031,0.01-0.062,0.01-0.092,0.01
		c-0.054,0.011-0.109,0.021-0.164,0.021c-0.035,0.01-0.07,0.01-0.105,0.02c-0.049,0-0.098,0.01-0.146,0.01
		c-0.043,0.01-0.085,0.01-0.128,0.021c-0.04,0-0.079,0.01-0.118,0.01c-0.051,0.01-0.104,0.01-0.154,0.021
		c-0.031,0-0.06,0-0.092,0.01c-0.06,0-0.121,0.01-0.183,0.02h-0.058c-0.071,0.01-0.143,0.021-0.213,0.021
		c-0.011,0-0.021,0-0.029,0.009c-1.049,0.09-2.11,0.149-3.18,0.17C47.619,89.21,47.566,89.221,47.513,89.221"/>
	<path fill="#D8D8D8" d="M47.513,93.221v-4c0.054,0,0.106-0.012,0.16-0.012v4C47.619,93.221,47.566,93.221,47.513,93.221
		 M63.186,90.3L63.186,90.3 M63.716,90.09h0.006H63.716 M63.845,90.039h0.015H63.845 M63.966,90c0.013-0.01,0.021-0.01,0.03-0.01
		C63.986,89.99,63.979,89.99,63.966,90 M64.104,89.94c0.008,0,0.017,0,0.024-0.011C64.119,89.94,64.111,89.94,64.104,89.94
		 M64.232,89.89c0.009,0,0.019-0.009,0.028-0.009C64.251,89.89,64.242,89.89,64.232,89.89 M64.363,89.84
		c0.01,0,0.021-0.01,0.031-0.01C64.384,89.83,64.373,89.84,64.363,89.84 M64.492,89.789c0.011-0.008,0.022-0.008,0.033-0.02
		C64.515,89.781,64.503,89.781,64.492,89.789 M64.632,89.73c0.008,0,0.017-0.01,0.023-0.01C64.648,89.721,64.64,89.73,64.632,89.73
		 M64.753,89.68c0.014,0,0.027-0.01,0.039-0.02C64.78,89.67,64.767,89.68,64.753,89.68 M64.878,89.631
		c0.019-0.012,0.031-0.012,0.049-0.02C64.911,89.619,64.895,89.619,64.878,89.631 M64.995,89.58c0.024-0.01,0.043-0.021,0.067-0.03
		C65.039,89.56,65.017,89.57,64.995,89.58 M65.132,89.52c0.019-0.01,0.037-0.01,0.058-0.02C65.169,89.51,65.152,89.51,65.132,89.52
		 M65.261,89.47c0.021-0.011,0.039-0.021,0.06-0.03C65.302,89.449,65.281,89.459,65.261,89.47 M65.392,89.41
		c0.021-0.01,0.037-0.021,0.059-0.021C65.429,89.4,65.412,89.4,65.392,89.41 M65.525,89.349c0.019,0,0.032-0.009,0.051-0.019
		C65.558,89.34,65.544,89.349,65.525,89.349 M65.669,89.289c0.012,0,0.024-0.008,0.036-0.008
		C65.693,89.281,65.681,89.289,65.669,89.289 M65.783,89.24c0.021-0.011,0.037-0.02,0.058-0.02
		C65.821,89.221,65.802,89.229,65.783,89.24 M65.9,89.19c0.024-0.011,0.049-0.021,0.073-0.03C65.95,89.17,65.923,89.18,65.9,89.19
		 M66.011,89.14c0.031-0.009,0.063-0.03,0.095-0.04C66.073,89.109,66.044,89.131,66.011,89.14 M66.14,89.08
		c0.031-0.01,0.06-0.03,0.091-0.041C66.2,89.05,66.171,89.07,66.14,89.08 M50.854,89.039c0.008-0.008,0.018-0.008,0.028-0.008
		C50.871,89.031,50.863,89.031,50.854,89.039 M66.275,89.02c0.028-0.01,0.058-0.029,0.086-0.039
		C66.333,88.99,66.304,89.01,66.275,89.02 M51.095,89.01h0.058H51.095 M51.335,88.99c0.031-0.01,0.062-0.01,0.092-0.01
		C51.396,88.98,51.365,88.98,51.335,88.99 M66.402,88.959c0.028-0.01,0.058-0.02,0.086-0.039
		C66.46,88.939,66.431,88.949,66.402,88.959 M51.581,88.959c0.039,0,0.078-0.01,0.117-0.01
		C51.659,88.949,51.62,88.959,51.581,88.959 M51.827,88.93c0.049,0,0.098-0.01,0.146-0.01C51.925,88.92,51.876,88.93,51.827,88.93
		 M66.527,88.899c0.03-0.01,0.06-0.019,0.09-0.038C66.587,88.881,66.558,88.89,66.527,88.899 M52.079,88.899
		c0.055,0,0.11-0.01,0.164-0.019C52.189,88.89,52.134,88.899,52.079,88.899 M52.335,88.869c0.062-0.008,0.121-0.008,0.182-0.019
		C52.456,88.861,52.396,88.861,52.335,88.869 M66.646,88.851c0.032-0.021,0.067-0.03,0.101-0.051
		C66.714,88.82,66.679,88.83,66.646,88.851 M52.589,88.84c0.065-0.01,0.131-0.02,0.197-0.03C52.722,88.82,52.654,88.83,52.589,88.84
		 M52.849,88.8c0.068-0.011,0.14-0.019,0.209-0.03C52.988,88.781,52.919,88.789,52.849,88.8 M66.759,88.8
		c13.09-6.14,22.859-18.14,25.896-32.609C89.617,70.66,79.847,82.66,66.759,88.8 M53.107,88.77c0.073-0.01,0.146-0.029,0.219-0.039
		C53.253,88.74,53.179,88.76,53.107,88.77 M53.365,88.73c0.08-0.01,0.156-0.03,0.235-0.041C53.521,88.7,53.443,88.721,53.365,88.73
		 M53.62,88.689c0.084-0.02,0.168-0.029,0.252-0.039C53.788,88.66,53.704,88.67,53.62,88.689 M53.876,88.65
		c7.944-1.311,15.141-4.801,20.969-9.82C69.017,83.85,61.82,87.34,53.876,88.65 M74.849,78.83c0.125-0.109,0.252-0.221,0.377-0.33
		C75.101,78.609,74.974,78.721,74.849,78.83 M75.236,78.49c0.06-0.051,0.121-0.109,0.181-0.16
		C75.357,78.381,75.298,78.439,75.236,78.49 M75.429,78.32c0.06-0.051,0.119-0.111,0.179-0.16
		C75.546,78.209,75.488,78.27,75.429,78.32 M75.619,78.15c0.06-0.061,0.117-0.111,0.177-0.16
		C75.738,78.039,75.677,78.099,75.619,78.15 M75.808,77.979c0.058-0.06,0.115-0.11,0.171-0.159
		C75.923,77.869,75.865,77.92,75.808,77.979 M75.998,77.8c0.058-0.05,0.115-0.1,0.171-0.16C76.113,77.7,76.056,77.75,75.998,77.8
		 M76.186,77.631c0.055-0.051,0.11-0.111,0.165-0.161C76.296,77.52,76.239,77.58,76.186,77.631 M76.371,77.449
		c0.058-0.049,0.115-0.109,0.173-0.16C76.486,77.34,76.429,77.4,76.371,77.449 M76.556,77.281c0.056-0.061,0.109-0.111,0.164-0.162
		C76.665,77.17,76.611,77.221,76.556,77.281 M76.74,77.1c0.056-0.061,0.11-0.109,0.165-0.16C76.851,76.99,76.796,77.039,76.74,77.1
		 M76.923,76.92c0.062-0.059,0.121-0.12,0.183-0.18c7.75-7.721,12.536-18.359,12.539-30.121c-0.003,11.762-4.789,22.4-12.539,30.121
		C77.044,76.8,76.984,76.861,76.923,76.92 M92.654,56.19c0.019-0.091,0.037-0.181,0.054-0.271
		C92.691,56.01,92.673,56.1,92.654,56.19 M92.712,55.899c0.01-0.038,0.019-0.079,0.026-0.118
		C92.73,55.82,92.722,55.861,92.712,55.899 M92.74,55.77c0.008-0.039,0.017-0.09,0.024-0.119
		C92.757,55.689,92.748,55.73,92.74,55.77 M92.77,55.619c0.008-0.039,0.017-0.088,0.024-0.129
		C92.786,55.531,92.777,55.58,92.77,55.619 M92.796,55.49c0.008-0.05,0.017-0.09,0.024-0.131C92.813,55.4,92.804,55.44,92.796,55.49
		 M92.824,55.34c0.007-0.04,0.015-0.08,0.022-0.131C92.839,55.26,92.833,55.3,92.824,55.34 M92.851,55.2
		c0.007-0.04,0.015-0.081,0.021-0.12C92.865,55.119,92.857,55.16,92.851,55.2 M92.878,55.05c0.006-0.04,0.014-0.08,0.022-0.12
		C92.892,54.97,92.884,55.01,92.878,55.05 M92.902,54.91c0.007-0.029,0.015-0.07,0.021-0.11
		C92.917,54.84,92.909,54.881,92.902,54.91 M92.929,54.77c0.007-0.04,0.015-0.079,0.021-0.119
		C92.943,54.69,92.936,54.729,92.929,54.77 M92.953,54.631c0.007-0.041,0.015-0.081,0.021-0.121
		C92.968,54.55,92.96,54.59,92.953,54.631 M92.979,54.49c0.006-0.041,0.013-0.091,0.02-0.129
		C92.991,54.41,92.984,54.449,92.979,54.49 M93.001,54.34c0.008-0.03,0.014-0.07,0.021-0.109
		C93.015,54.27,93.009,54.31,93.001,54.34 M93.027,54.2l0.017-0.12L93.027,54.2 M93.05,54.06c0.006-0.04,0.013-0.08,0.019-0.119
		C93.063,53.979,93.056,54.02,93.05,54.06 M93.072,53.91c0.006-0.041,0.013-0.07,0.017-0.11
		C93.085,53.84,93.078,53.869,93.072,53.91 M93.095,53.77c0.006-0.039,0.011-0.069,0.017-0.109
		C93.105,53.7,93.101,53.73,93.095,53.77 M93.117,53.619c0.005-0.039,0.011-0.069,0.017-0.109
		C93.128,53.55,93.122,53.58,93.117,53.619 M93.138,53.48c0.007-0.041,0.013-0.07,0.017-0.111
		C93.15,53.41,93.145,53.439,93.138,53.48 M93.159,53.33c0.006-0.03,0.012-0.07,0.016-0.101C93.171,53.26,93.165,53.3,93.159,53.33
		 M93.181,53.19c0.005-0.03,0.011-0.071,0.015-0.101C93.191,53.119,93.186,53.16,93.181,53.19 M93.201,53.039
		c0.004-0.029,0.009-0.069,0.015-0.1C93.21,52.97,93.205,53.01,93.201,53.039 M93.22,52.899c0.006-0.03,0.011-0.069,0.015-0.1
		C93.23,52.83,93.224,52.869,93.22,52.899 M93.24,52.75c0.004-0.029,0.009-0.061,0.013-0.1C93.249,52.689,93.244,52.721,93.24,52.75
		 M93.259,52.611c0.004-0.031,0.008-0.072,0.013-0.102C93.267,52.55,93.263,52.58,93.259,52.611 M93.277,52.459
		c0.004-0.029,0.009-0.059,0.013-0.1C93.286,52.4,93.282,52.43,93.277,52.459 M93.296,52.32c0.004-0.031,0.008-0.07,0.012-0.1
		C93.304,52.25,93.3,52.289,93.296,52.32 M93.314,52.17c0.004-0.03,0.007-0.059,0.011-0.1C93.321,52.111,93.318,52.14,93.314,52.17
		 M93.329,52.031c0.004-0.031,0.008-0.072,0.012-0.102C93.337,51.959,93.335,52,93.329,52.031 M93.347,51.881
		c0.004-0.032,0.009-0.061,0.013-0.1C93.355,51.82,93.351,51.849,93.347,51.881 M93.363,51.74c0.003-0.031,0.007-0.07,0.01-0.101
		C93.37,51.67,93.366,51.709,93.363,51.74 M93.378,51.59c0.004-0.03,0.008-0.059,0.012-0.1C93.386,51.531,93.382,51.56,93.378,51.59
		 M93.395,51.449c0.004-0.029,0.006-0.068,0.01-0.099C93.4,51.381,93.398,51.41,93.395,51.449 M93.409,51.3
		c0.003-0.03,0.006-0.069,0.01-0.1C93.415,51.23,93.412,51.27,93.409,51.3 M93.423,51.15c0.004-0.031,0.006-0.061,0.01-0.091
		C93.429,51.09,93.427,51.119,93.423,51.15 M93.439,51c0.002-0.03,0.004-0.06,0.007-0.09C93.443,50.94,93.441,50.97,93.439,51
		 M93.451,50.859c0.003-0.029,0.005-0.06,0.009-0.09C93.456,50.8,93.454,50.83,93.451,50.859 M93.466,50.7
		c0.002-0.021,0.004-0.051,0.006-0.081C93.47,50.649,93.468,50.68,93.466,50.7 M93.479,50.56c0.002-0.028,0.004-0.06,0.006-0.09
		C93.482,50.5,93.48,50.531,93.479,50.56 M93.489,50.41c0.002-0.021,0.005-0.062,0.007-0.08
		C93.494,50.349,93.491,50.381,93.489,50.41 M93.501,50.27c0.002-0.029,0.004-0.061,0.006-0.09
		C93.505,50.209,93.503,50.24,93.501,50.27 M93.513,50.109c0.002-0.02,0.004-0.05,0.007-0.07
		C93.517,50.06,93.515,50.09,93.513,50.109 M93.523,49.97c0.002-0.03,0.004-0.06,0.006-0.08
		C93.527,49.91,93.525,49.939,93.523,49.97 M93.534,49.81c0.001-0.021,0.003-0.04,0.005-0.069
		C93.537,49.77,93.535,49.789,93.534,49.81 M93.544,49.67c0.002-0.03,0.004-0.051,0.004-0.08
		C93.548,49.619,93.546,49.64,93.544,49.67 M93.554,49.52c0-0.02,0.002-0.05,0.004-0.07C93.556,49.47,93.554,49.49,93.554,49.52
		 M93.563,49.381c0.002-0.031,0.004-0.061,0.004-0.081C93.566,49.32,93.564,49.35,93.563,49.381 M93.57,49.23
		c0.001-0.03,0.003-0.051,0.004-0.081C93.573,49.18,93.571,49.2,93.57,49.23 M93.578,49.08c0.001-0.03,0.003-0.049,0.005-0.08
		C93.581,49.031,93.58,49.05,93.578,49.08 M93.587,48.92l0.002-0.059L93.587,48.92 M93.593,48.77c0.002-0.02,0.002-0.04,0.004-0.061
		C93.595,48.729,93.595,48.75,93.593,48.77 M93.601,48.609c0-0.02,0.003-0.029,0.003-0.05C93.604,48.58,93.601,48.6,93.601,48.609
		 M93.607,48.47c0-0.021,0.002-0.04,0.002-0.06C93.609,48.43,93.607,48.449,93.607,48.47 M93.611,48.33
		c0.002-0.03,0.002-0.049,0.003-0.07C93.613,48.281,93.613,48.3,93.611,48.33 M93.616,48.18c0.001-0.02,0.002-0.049,0.003-0.068
		C93.618,48.131,93.617,48.16,93.616,48.18 M93.622,48.02c0-0.02,0.001-0.04,0.001-0.05C93.623,47.979,93.622,48,93.622,48.02
		 M93.626,47.881c0-0.021,0.002-0.041,0.002-0.071C93.628,47.83,93.626,47.859,93.626,47.881 M93.63,47.74
		c0-0.02,0-0.051,0.002-0.08C93.63,47.689,93.63,47.721,93.63,47.74 M93.632,47.601c0.002-0.021,0.002-0.062,0.002-0.091
		C93.634,47.539,93.634,47.58,93.632,47.601 M93.636,47.43v-0.061V47.43 M93.638,47.289c0-0.029,0-0.049,0.002-0.068
		C93.638,47.24,93.638,47.26,93.638,47.289 M93.64,47.15V47.06V47.15 M93.642,47.031V46.92V47.031 M93.642,46.789v-0.02V46.789
		 M93.642,46.619L93.642,46.619 M93.642,46.47V46.44V46.47 M93.642,46.32V46.2V46.32 M93.64,46.17v-0.09V46.17 M93.64,46.02
		c-0.002-0.02-0.002-0.05-0.002-0.07C93.638,45.97,93.638,45.99,93.64,46.02 M93.636,45.869V45.8V45.869 M93.634,45.721
		c0-0.03,0-0.061-0.002-0.09C93.634,45.66,93.634,45.69,93.634,45.721 M93.632,45.57c-0.002-0.021-0.002-0.051-0.002-0.08
		C93.63,45.52,93.63,45.539,93.632,45.57 M93.628,45.42c0-0.021-0.002-0.039-0.002-0.059C93.626,45.381,93.628,45.399,93.628,45.42
		 M93.623,45.27c0-0.02-0.001-0.039-0.001-0.049C93.622,45.23,93.623,45.25,93.623,45.27 M93.619,45.119
		c-0.001-0.021-0.002-0.039-0.003-0.069C93.617,45.08,93.618,45.099,93.619,45.119 M93.614,44.97
		c-0.001-0.021-0.001-0.04-0.003-0.06C93.613,44.93,93.613,44.949,93.614,44.97 M93.609,44.82c-0.002-0.021-0.002-0.039-0.002-0.061
		C93.607,44.781,93.609,44.8,93.609,44.82 M93.604,44.67c0-0.01-0.003-0.03-0.003-0.051C93.601,44.64,93.604,44.66,93.604,44.67
		 M93.597,44.531c-0.002-0.021-0.002-0.051-0.004-0.072C93.595,44.48,93.595,44.51,93.597,44.531 M93.589,44.381
		c0-0.02-0.002-0.041-0.002-0.061C93.587,44.34,93.589,44.361,93.589,44.381 M93.583,44.229c-0.002-0.021-0.004-0.05-0.005-0.069
		C93.58,44.18,93.581,44.209,93.583,44.229 M93.574,44.08c-0.001-0.021-0.003-0.049-0.004-0.08
		C93.571,44.031,93.573,44.06,93.574,44.08 M93.566,43.939c0-0.029-0.002-0.059-0.004-0.078
		C93.564,43.881,93.566,43.91,93.566,43.939 M93.558,43.789c-0.002-0.029-0.004-0.049-0.004-0.08
		C93.554,43.74,93.556,43.76,93.558,43.789 M93.548,43.64c0-0.028-0.002-0.05-0.004-0.08C93.546,43.59,93.548,43.611,93.548,43.64
		 M93.539,43.49c-0.002-0.021-0.004-0.05-0.005-0.07C93.535,43.44,93.537,43.47,93.539,43.49 M93.529,43.34
		c-0.002-0.02-0.004-0.051-0.006-0.07C93.525,43.289,93.527,43.32,93.529,43.34 M93.52,43.2c-0.003-0.03-0.005-0.051-0.007-0.081
		C93.515,43.149,93.517,43.17,93.52,43.2 M93.507,43.05c-0.002-0.03-0.004-0.06-0.006-0.091C93.503,42.99,93.505,43.02,93.507,43.05
		 M93.496,42.91c-0.002-0.029-0.005-0.062-0.007-0.09C93.491,42.849,93.494,42.881,93.496,42.91 M93.484,42.76
		c-0.002-0.03-0.004-0.06-0.006-0.08C93.48,42.7,93.482,42.729,93.484,42.76 M93.472,42.609c-0.002-0.029-0.004-0.05-0.006-0.078
		C93.468,42.56,93.47,42.58,93.472,42.609 M93.46,42.47c-0.004-0.03-0.006-0.06-0.009-0.089C93.454,42.41,93.456,42.439,93.46,42.47
		 M93.446,42.32c-0.003-0.031-0.005-0.061-0.007-0.09C93.441,42.26,93.443,42.289,93.446,42.32 M93.433,42.17
		c-0.004-0.03-0.006-0.059-0.01-0.09C93.427,42.111,93.429,42.14,93.433,42.17 M93.419,42.031c-0.004-0.031-0.007-0.062-0.01-0.102
		C93.412,41.97,93.415,42,93.419,42.031 M93.404,41.881c-0.004-0.031-0.006-0.061-0.01-0.1C93.398,41.82,93.4,41.85,93.404,41.881
		 M93.39,41.74c-0.004-0.031-0.008-0.07-0.012-0.101C93.382,41.67,93.386,41.709,93.39,41.74 M93.373,41.59
		c-0.003-0.03-0.007-0.059-0.01-0.1C93.366,41.52,93.37,41.56,93.373,41.59 M93.359,41.449c-0.004-0.029-0.009-0.068-0.013-0.101
		C93.351,41.381,93.355,41.42,93.359,41.449 M93.341,41.3c-0.004-0.03-0.008-0.07-0.012-0.1C93.333,41.24,93.337,41.27,93.341,41.3
		 M93.325,41.16c-0.004-0.041-0.007-0.07-0.013-0.101C93.316,41.09,93.321,41.131,93.325,41.16 M93.308,41.01
		c-0.004-0.029-0.008-0.061-0.012-0.1C93.3,40.949,93.304,40.98,93.308,41.01 M93.29,40.869c-0.004-0.029-0.009-0.069-0.013-0.1
		C93.281,40.8,93.286,40.84,93.29,40.869 M93.271,40.721c-0.005-0.031-0.009-0.07-0.013-0.102
		C93.263,40.66,93.267,40.689,93.271,40.721 M93.253,40.58c-0.004-0.03-0.009-0.07-0.013-0.101
		C93.244,40.51,93.249,40.55,93.253,40.58 M93.234,40.43c-0.004-0.029-0.009-0.07-0.015-0.1C93.226,40.359,93.23,40.4,93.234,40.43
		 M93.216,40.289c-0.006-0.029-0.011-0.068-0.016-0.1C93.205,40.221,93.21,40.26,93.216,40.289 M93.195,40.149
		c-0.004-0.038-0.01-0.069-0.017-0.11C93.186,40.08,93.191,40.111,93.195,40.149 M93.175,40.01c-0.004-0.04-0.01-0.08-0.016-0.109
		C93.165,39.93,93.171,39.97,93.175,40.01 M93.154,39.861c-0.004-0.041-0.01-0.072-0.017-0.111
		C93.145,39.789,93.15,39.83,93.154,39.861 M93.134,39.721c-0.006-0.041-0.012-0.07-0.017-0.111
		C93.122,39.65,93.128,39.68,93.134,39.721 M93.111,39.57c-0.006-0.031-0.011-0.07-0.017-0.111
		C93.101,39.5,93.105,39.539,93.111,39.57 M93.091,39.43c-0.006-0.03-0.013-0.068-0.019-0.109
		C93.078,39.361,93.085,39.399,93.091,39.43 M93.068,39.289c-0.006-0.039-0.013-0.08-0.019-0.119
		C93.056,39.209,93.063,39.25,93.068,39.289 M93.046,39.15c-0.008-0.039-0.014-0.08-0.021-0.119
		C93.032,39.07,93.038,39.111,93.046,39.15 M93.021,39.01c-0.007-0.04-0.013-0.08-0.021-0.129
		C93.009,38.93,93.015,38.97,93.021,39.01 M92.998,38.869c-0.007-0.039-0.014-0.088-0.02-0.129
		C92.984,38.789,92.991,38.83,92.998,38.869 M92.974,38.73c-0.006-0.051-0.014-0.091-0.021-0.13
		C92.96,38.64,92.968,38.68,92.974,38.73 M92.95,38.59c-0.007-0.051-0.015-0.09-0.021-0.131C92.936,38.5,92.943,38.539,92.95,38.59
		 M92.925,38.439c-0.008-0.039-0.016-0.091-0.022-0.13C92.909,38.349,92.917,38.4,92.925,38.439 M92.9,38.3
		c-0.009-0.04-0.017-0.079-0.024-0.13C92.884,38.221,92.892,38.26,92.9,38.3 M92.873,38.16c-0.008-0.041-0.016-0.09-0.024-0.129
		C92.857,38.07,92.865,38.109,92.873,38.16 M92.849,38.031c-0.008-0.051-0.018-0.102-0.025-0.142
		C92.831,37.93,92.841,37.98,92.849,38.031 M92.821,37.881c-0.018-0.092-0.035-0.181-0.052-0.27
		C92.786,37.7,92.804,37.789,92.821,37.881 M92.767,37.599c-0.019-0.099-0.036-0.188-0.055-0.278
		C92.73,37.41,92.748,37.5,92.767,37.599 M92.712,37.32C88.438,16.29,69.951,0.41,47.673,0.01v4h-0.16v-4
		C69.863,0.33,88.425,16.24,92.712,37.32 M77.105,16.49c-0.062-0.06-0.121-0.12-0.183-0.18C76.984,16.37,77.044,16.43,77.105,16.49
		 M76.907,16.29c-0.057-0.049-0.111-0.109-0.168-0.159C76.796,16.18,76.854,16.24,76.907,16.29 M76.732,16.12
		c-0.06-0.06-0.118-0.109-0.177-0.17C76.614,16.01,76.673,16.06,76.732,16.12 M76.546,15.939c-0.058-0.05-0.117-0.11-0.175-0.159
		C76.429,15.83,76.488,15.89,76.546,15.939 M76.354,15.76c-0.056-0.051-0.113-0.11-0.168-0.161
		C76.241,15.65,76.298,15.709,76.354,15.76 M76.167,15.58c-0.056-0.049-0.113-0.099-0.17-0.159
		C76.054,15.481,76.111,15.531,76.167,15.58 M75.982,15.41c-0.058-0.049-0.116-0.11-0.172-0.16
		C75.867,15.3,75.925,15.361,75.982,15.41 M75.792,15.24c-0.056-0.06-0.113-0.11-0.172-0.161
		C75.679,15.13,75.736,15.18,75.792,15.24 M75.601,15.06c-0.057-0.049-0.112-0.1-0.17-0.15C75.488,14.959,75.544,15.01,75.601,15.06
		 M75.408,14.89c-0.055-0.05-0.112-0.1-0.169-0.149C75.296,14.79,75.354,14.839,75.408,14.89 M75.22,14.72
		c-0.059-0.05-0.116-0.101-0.174-0.149C75.104,14.62,75.161,14.67,75.22,14.72 M75.03,14.56c-0.059-0.06-0.118-0.11-0.177-0.159
		C74.912,14.45,74.972,14.5,75.03,14.56 M74.835,14.39c-0.058-0.05-0.117-0.1-0.177-0.149C74.718,14.29,74.777,14.339,74.835,14.39
		 M74.642,14.22c-0.061-0.05-0.118-0.101-0.18-0.149C74.521,14.12,74.581,14.17,74.642,14.22 M74.447,14.06
		c-0.062-0.049-0.121-0.1-0.183-0.16C74.326,13.959,74.386,14.01,74.447,14.06 M74.251,13.89c-0.062-0.05-0.123-0.1-0.183-0.149
		C74.128,13.79,74.189,13.839,74.251,13.89 M74.054,13.73c-0.062-0.05-0.123-0.1-0.184-0.151
		C73.931,13.63,73.992,13.68,74.054,13.73 M73.854,13.571c-0.062-0.051-0.121-0.101-0.183-0.15
		C73.732,13.47,73.792,13.52,73.854,13.571 M73.655,13.41c-0.063-0.05-0.125-0.1-0.188-0.149
		C73.531,13.31,73.593,13.36,73.655,13.41 M73.456,13.25c-0.062-0.049-0.126-0.1-0.189-0.149C73.33,13.149,73.395,13.2,73.456,13.25
		 M73.255,13.09c-0.063-0.05-0.129-0.1-0.192-0.15C73.128,12.99,73.191,13.04,73.255,13.09 M73.054,12.93
		c-0.065-0.049-0.131-0.1-0.196-0.149C72.923,12.83,72.988,12.88,73.054,12.93 M72.851,12.781c-0.065-0.051-0.133-0.101-0.198-0.15
		C72.718,12.68,72.784,12.729,72.851,12.781 M72.648,12.62c-0.068-0.049-0.136-0.1-0.203-0.15
		C72.513,12.52,72.58,12.571,72.648,12.62 M72.443,12.47c-0.067-0.049-0.136-0.1-0.205-0.149
		C72.306,12.37,72.376,12.42,72.443,12.47 M72.236,12.321c-1.519-1.121-3.112-2.141-4.772-3.051
		C69.124,10.18,70.718,11.2,72.236,12.321 M67.452,9.27c-0.07-0.039-0.142-0.08-0.214-0.119C67.311,9.189,67.382,9.23,67.452,9.27
		 M67.218,9.14c-0.067-0.041-0.135-0.069-0.203-0.109C67.083,9.071,67.15,9.099,67.218,9.14 M66.976,9.01
		c-0.063-0.031-0.125-0.07-0.188-0.101C66.851,8.94,66.913,8.979,66.976,9.01 M66.743,8.89c-0.061-0.03-0.12-0.069-0.181-0.1
		C66.623,8.821,66.683,8.86,66.743,8.89 M66.507,8.76c-0.058-0.03-0.112-0.051-0.17-0.08C66.395,8.7,66.45,8.73,66.507,8.76
		 M66.271,8.64c-0.054-0.02-0.108-0.05-0.162-0.08C66.163,8.59,66.218,8.62,66.271,8.64 M66.035,8.52
		c-0.051-0.02-0.103-0.05-0.153-0.07C65.933,8.47,65.984,8.5,66.035,8.52 M65.798,8.41c-0.047-0.029-0.095-0.049-0.142-0.07
		C65.703,8.361,65.751,8.38,65.798,8.41 M65.563,8.29c-0.046-0.02-0.093-0.04-0.138-0.069C65.47,8.25,65.517,8.27,65.563,8.29
		 M65.325,8.18c-0.042-0.02-0.084-0.041-0.127-0.061C65.241,8.14,65.283,8.16,65.325,8.18 M65.087,8.06
		c-0.039-0.01-0.078-0.029-0.117-0.049C65.009,8.031,65.048,8.05,65.087,8.06 M64.851,7.95c-0.036-0.01-0.073-0.029-0.111-0.05
		C64.777,7.92,64.814,7.939,64.851,7.95 M64.615,7.851C64.579,7.83,64.542,7.81,64.507,7.8C64.544,7.81,64.579,7.83,64.615,7.851
		 M64.38,7.74c-0.035-0.02-0.069-0.031-0.104-0.051C64.311,7.709,64.345,7.72,64.38,7.74 M64.142,7.63
		c-0.032-0.011-0.064-0.02-0.098-0.041C64.076,7.599,64.111,7.62,64.142,7.63 M63.902,7.531C63.873,7.52,63.843,7.5,63.814,7.49
		C63.843,7.5,63.872,7.52,63.902,7.531 M63.663,7.43C63.636,7.41,63.609,7.4,63.58,7.39C63.609,7.4,63.636,7.41,63.663,7.43
		 M63.425,7.33C63.4,7.321,63.374,7.3,63.349,7.29C63.374,7.3,63.4,7.321,63.425,7.33 M63.186,7.23
		c-0.023-0.01-0.046-0.021-0.066-0.03C63.142,7.209,63.162,7.22,63.186,7.23 M62.943,7.13c-0.019-0.011-0.038-0.02-0.056-0.03
		C62.906,7.111,62.925,7.12,62.943,7.13 M62.703,7.031C62.688,7.02,62.671,7.02,62.654,7.01C62.669,7.02,62.688,7.02,62.703,7.031
		 M62.462,6.939c-0.013-0.01-0.024-0.01-0.037-0.019C62.438,6.93,62.449,6.93,62.462,6.939 M62.218,6.839
		c-0.006,0-0.014,0-0.02-0.01C62.204,6.839,62.212,6.839,62.218,6.839"/>
	<path fill="#D18B7A" d="M61.723,60.09h-14.21v-3.471h14.21l0.151,0.15v3.16L61.723,60.09z M61.723,52.561h-14.21V49.1h14.21
		l0.151,0.15v3.16L61.723,52.561 M61.723,45.031h-14.21V41.57h14.21l0.151,0.15v3.159L61.723,45.031 M53.671,36.6h-6.158v-4.51
		h6.158l0.148,0.15v4.209L53.671,36.6"/>
	<path fill="#D8D8D8" d="M68.194,72.2H47.513V60.09h14.209l0.152-0.161V56.77l-0.152-0.149H47.513v-4.06h14.209l0.152-0.15v-3.16
		l-0.152-0.15H47.513v-4.068h14.209l0.152-0.151v-3.159l-0.152-0.15H47.513V36.6h6.159l0.147-0.15V32.24l-0.147-0.15h-6.159V21.031
		h17.07c2.658,0,4.814,2.148,4.814,4.809V71C69.397,71.66,68.858,72.2,68.194,72.2"/>
	<path fill="#C8C8C8" d="M47.673,93.209L47.673,93.209v-4c1.069-0.02,2.131-0.079,3.181-0.17c0.009-0.008,0.019-0.008,0.028-0.008
		c0.07,0,0.142-0.012,0.213-0.021h0.057c0.063-0.01,0.124-0.02,0.184-0.02c0.03-0.01,0.062-0.01,0.092-0.01
		c0.052-0.011,0.103-0.011,0.154-0.021c0.039,0,0.078-0.01,0.117-0.01c0.043-0.01,0.086-0.01,0.129-0.02
		c0.049,0,0.098-0.01,0.147-0.01c0.034-0.01,0.069-0.01,0.104-0.02c0.055,0,0.11-0.011,0.164-0.021c0.03,0,0.061,0,0.092-0.011
		c0.062-0.01,0.121-0.01,0.183-0.019c0.024-0.011,0.047-0.011,0.071-0.011c0.065-0.01,0.134-0.02,0.197-0.03
		c0.022,0,0.041,0,0.063-0.01c0.069-0.011,0.138-0.019,0.209-0.03h0.049c0.071-0.01,0.146-0.029,0.219-0.038h0.039
		c0.078-0.011,0.156-0.031,0.236-0.042h0.019c0.084-0.02,0.168-0.029,0.252-0.039h0.004c7.943-1.311,15.142-4.801,20.969-9.82h0.005
		c0.125-0.109,0.252-0.221,0.377-0.33c0.004,0,0.008-0.01,0.009-0.01c0.063-0.051,0.122-0.11,0.182-0.16
		c0.004,0,0.008-0.01,0.012-0.01c0.06-0.051,0.117-0.111,0.179-0.16c0.003,0,0.007-0.01,0.013-0.01
		c0.057-0.052,0.117-0.111,0.176-0.16c0.004-0.011,0.008-0.011,0.013-0.011c0.057-0.06,0.114-0.11,0.17-0.159
		c0.007-0.011,0.013-0.011,0.021-0.021c0.058-0.05,0.113-0.1,0.17-0.16c0.006,0,0.01-0.01,0.017-0.01
		c0.054-0.05,0.11-0.11,0.166-0.16c0.006-0.011,0.013-0.011,0.021-0.021c0.057-0.049,0.113-0.109,0.172-0.16
		c0.004-0.008,0.008-0.008,0.013-0.008c0.054-0.061,0.108-0.111,0.163-0.162c0.009-0.01,0.015-0.02,0.021-0.02
		c0.056-0.061,0.111-0.109,0.164-0.16c0.006-0.01,0.013-0.02,0.019-0.02c0.062-0.061,0.121-0.12,0.183-0.18
		c7.75-7.721,12.537-18.36,12.539-30.121c-0.002-11.769-4.789-22.41-12.539-30.129c-0.062-0.06-0.121-0.12-0.183-0.18
		c-0.004-0.01-0.01-0.01-0.016-0.02c-0.054-0.049-0.111-0.109-0.168-0.16c-0.004,0-0.005-0.01-0.007-0.01
		c-0.06-0.06-0.118-0.109-0.176-0.17c-0.005,0-0.007,0-0.011-0.01c-0.059-0.05-0.117-0.11-0.174-0.159
		c-0.007-0.011-0.013-0.021-0.019-0.021c-0.056-0.051-0.112-0.11-0.168-0.161c-0.007-0.01-0.013-0.01-0.019-0.02
		c-0.057-0.049-0.113-0.099-0.17-0.16c-0.005,0-0.01,0-0.015-0.01c-0.058-0.05-0.115-0.11-0.172-0.16
		c-0.007,0-0.013-0.009-0.019-0.009c-0.057-0.06-0.113-0.11-0.172-0.161c-0.006-0.009-0.013-0.009-0.019-0.02
		c-0.058-0.049-0.114-0.1-0.17-0.15c-0.009-0.01-0.015-0.01-0.023-0.02c-0.055-0.05-0.112-0.1-0.169-0.149
		c-0.007-0.009-0.013-0.009-0.02-0.02c-0.059-0.05-0.116-0.101-0.174-0.149c-0.006-0.011-0.011-0.011-0.016-0.011
		c-0.058-0.06-0.117-0.11-0.177-0.16c-0.006,0-0.013-0.01-0.019-0.01c-0.059-0.05-0.117-0.1-0.177-0.149
		c-0.007-0.011-0.01-0.011-0.016-0.02c-0.062-0.05-0.121-0.101-0.181-0.149c-0.006-0.011-0.01-0.011-0.015-0.011
		c-0.062-0.049-0.121-0.1-0.182-0.16c-0.005,0-0.011,0-0.015-0.01c-0.062-0.05-0.123-0.1-0.183-0.149
		c-0.006,0-0.01-0.009-0.015-0.009c-0.062-0.051-0.122-0.102-0.184-0.152c-0.006,0-0.011-0.009-0.017-0.009
		c-0.062-0.051-0.121-0.101-0.183-0.151c-0.006-0.01-0.011-0.01-0.017-0.01c-0.062-0.05-0.123-0.1-0.187-0.149
		c-0.004-0.011-0.008-0.011-0.012-0.011c-0.062-0.049-0.125-0.1-0.188-0.149c-0.005,0-0.009-0.011-0.013-0.011
		c-0.063-0.05-0.127-0.1-0.192-0.15c-0.002,0-0.006,0-0.009-0.01c-0.065-0.05-0.131-0.1-0.196-0.149h-0.006
		c-0.067-0.051-0.134-0.101-0.2-0.151c-0.001,0-0.001-0.01-0.003-0.01c-0.067-0.049-0.136-0.1-0.204-0.15h-0.001
		c-0.067-0.05-0.137-0.1-0.205-0.149h-0.003c-1.518-1.121-3.111-2.141-4.771-3.051h-0.012c-0.07-0.038-0.142-0.08-0.214-0.12
		c-0.006,0-0.014-0.01-0.021-0.01c-0.067-0.041-0.135-0.069-0.202-0.109C67.001,9.02,66.989,9.02,66.977,9.01
		c-0.063-0.031-0.125-0.07-0.188-0.101c-0.015-0.01-0.029-0.02-0.045-0.02c-0.06-0.03-0.119-0.069-0.181-0.1
		c-0.019-0.009-0.037-0.02-0.056-0.029c-0.057-0.029-0.112-0.06-0.17-0.08c-0.022-0.02-0.045-0.03-0.065-0.041
		c-0.054-0.02-0.108-0.05-0.162-0.08c-0.024-0.01-0.049-0.02-0.074-0.04c-0.051-0.02-0.102-0.05-0.153-0.07
		c-0.026-0.02-0.057-0.03-0.084-0.04c-0.047-0.03-0.094-0.05-0.142-0.07c-0.032-0.019-0.063-0.03-0.094-0.05
		c-0.045-0.02-0.093-0.04-0.138-0.069c-0.032-0.011-0.065-0.03-0.1-0.04c-0.042-0.02-0.084-0.041-0.127-0.061
		c-0.037-0.02-0.072-0.04-0.111-0.06c-0.039-0.01-0.078-0.029-0.117-0.049C64.929,7.99,64.891,7.97,64.852,7.95
		c-0.037-0.01-0.075-0.03-0.112-0.05c-0.041-0.02-0.083-0.04-0.124-0.049C64.579,7.83,64.544,7.81,64.507,7.8
		c-0.043-0.019-0.084-0.04-0.127-0.06c-0.035-0.02-0.069-0.031-0.104-0.05c-0.045-0.02-0.088-0.04-0.133-0.06
		c-0.032-0.01-0.066-0.031-0.099-0.04c-0.047-0.019-0.095-0.04-0.143-0.059C63.872,7.52,63.843,7.5,63.814,7.49
		c-0.049-0.02-0.101-0.04-0.151-0.06c-0.027-0.02-0.054-0.03-0.082-0.04c-0.052-0.02-0.103-0.04-0.156-0.06
		C63.4,7.321,63.374,7.3,63.35,7.29c-0.056-0.02-0.11-0.04-0.164-0.058C63.163,7.22,63.143,7.209,63.12,7.2
		c-0.06-0.03-0.119-0.05-0.177-0.07c-0.019-0.01-0.037-0.02-0.056-0.029c-0.062-0.021-0.122-0.041-0.184-0.07
		C62.688,7.02,62.669,7.02,62.653,7.01c-0.064-0.021-0.128-0.051-0.191-0.07c-0.013-0.01-0.024-0.01-0.037-0.02
		c-0.069-0.03-0.139-0.05-0.207-0.08c-0.006,0-0.014,0-0.02-0.01c-4.52-1.73-9.41-2.72-14.525-2.819v-4
		C69.951,0.41,88.438,16.29,92.712,37.32c0.019,0.09,0.037,0.18,0.056,0.278l0.002,0.011c0.017,0.091,0.034,0.18,0.052,0.271
		c0,0,0.001,0.01,0.002,0.01c0.008,0.04,0.018,0.091,0.026,0.142c0.008,0.039,0.016,0.088,0.024,0.129l0.002,0.01
		c0.008,0.051,0.017,0.09,0.024,0.13c0,0.01,0.001,0.01,0.001,0.01c0.008,0.039,0.016,0.091,0.023,0.13
		c0,0.01,0.002,0.01,0.004,0.02c0.007,0.041,0.015,0.08,0.021,0.131c0.001,0,0.001,0,0.002,0.011
		c0.008,0.039,0.016,0.079,0.022,0.131c0.002,0,0.002,0.009,0.004,0.009c0.006,0.041,0.013,0.09,0.021,0.129l0.002,0.011
		c0.008,0.05,0.015,0.09,0.021,0.13c0.002,0,0.004,0.01,0.004,0.021c0.007,0.039,0.013,0.078,0.021,0.119
		c0,0.01,0.002,0.02,0.004,0.02c0.007,0.039,0.013,0.08,0.019,0.119c0.001,0.011,0.001,0.021,0.004,0.031
		c0.007,0.039,0.013,0.08,0.019,0.109c0,0.01,0.002,0.02,0.004,0.029c0.007,0.041,0.011,0.08,0.016,0.111
		c0.003,0.02,0.005,0.029,0.007,0.039c0.005,0.041,0.011,0.07,0.017,0.111c0.002,0.009,0.002,0.02,0.004,0.029
		c0.007,0.039,0.013,0.07,0.017,0.109c0.002,0.01,0.003,0.03,0.005,0.041c0.006,0.029,0.012,0.069,0.016,0.109
		c0.002,0.01,0.004,0.021,0.004,0.029c0.007,0.041,0.013,0.07,0.016,0.111c0.003,0.01,0.005,0.02,0.006,0.039
		c0.006,0.031,0.01,0.07,0.016,0.1c0.002,0.021,0.002,0.031,0.004,0.041c0.007,0.029,0.011,0.07,0.015,0.1
		c0.001,0.02,0.004,0.029,0.006,0.05c0.005,0.03,0.009,0.07,0.013,0.101c0.002,0.01,0.004,0.029,0.006,0.039
		c0.004,0.031,0.009,0.07,0.013,0.102c0.002,0.02,0.004,0.029,0.005,0.049c0.005,0.03,0.01,0.07,0.014,0.1
		c0.002,0.011,0.004,0.031,0.006,0.041c0.004,0.039,0.008,0.07,0.013,0.1c0.002,0.021,0.004,0.029,0.004,0.05
		c0.006,0.03,0.009,0.06,0.013,0.101c0.001,0.01,0.004,0.029,0.004,0.04c0.004,0.029,0.008,0.069,0.012,0.1
		c0.002,0.021,0.004,0.03,0.007,0.049c0.004,0.031,0.008,0.071,0.012,0.101c0,0.01,0.001,0.031,0.003,0.041
		c0.004,0.041,0.008,0.069,0.012,0.1c0.002,0.02,0.004,0.04,0.004,0.05c0.004,0.03,0.008,0.069,0.013,0.101
		c0.002,0.02,0.002,0.029,0.004,0.041c0.004,0.039,0.006,0.068,0.01,0.099c0.002,0.021,0.003,0.04,0.005,0.05
		c0.004,0.04,0.006,0.07,0.01,0.102c0.002,0.019,0.002,0.028,0.004,0.049c0.004,0.029,0.006,0.06,0.011,0.09
		c0.002,0.02,0.004,0.039,0.006,0.062c0.002,0.028,0.004,0.058,0.007,0.089c0.002,0.02,0.003,0.039,0.005,0.06
		c0.003,0.03,0.005,0.06,0.009,0.09c0.002,0.021,0.004,0.04,0.006,0.062c0.002,0.028,0.004,0.049,0.007,0.078
		c0.002,0.021,0.004,0.041,0.006,0.07c0.002,0.021,0.004,0.05,0.006,0.08c0.001,0.021,0.003,0.04,0.005,0.061
		c0.002,0.028,0.006,0.06,0.008,0.09c0.002,0.02,0.002,0.039,0.004,0.049c0.002,0.031,0.004,0.061,0.006,0.091
		c0.002,0.021,0.004,0.051,0.006,0.069c0.003,0.031,0.005,0.051,0.007,0.081c0.002,0.021,0.002,0.04,0.004,0.069
		c0.002,0.02,0.003,0.051,0.006,0.07c0.001,0.029,0.003,0.05,0.005,0.08c0.001,0.02,0.004,0.05,0.006,0.07
		c0,0.029,0.002,0.049,0.004,0.069c0.002,0.03,0.004,0.05,0.004,0.08c0.002,0.021,0.004,0.05,0.006,0.069
		c0,0.031,0.003,0.051,0.005,0.08c0.002,0.021,0.002,0.041,0.004,0.07c0.002,0.021,0.004,0.051,0.004,0.08
		c0.002,0.02,0.003,0.041,0.003,0.061c0.002,0.031,0.004,0.06,0.005,0.08c0.002,0.029,0.003,0.05,0.005,0.08
		c0,0.02,0.002,0.049,0.004,0.069c0,0.03,0.002,0.06,0.004,0.091c0,0.02,0.002,0.039,0.002,0.06c0.002,0.03,0.004,0.05,0.004,0.079
		c0.002,0.021,0.002,0.051,0.005,0.072c0,0.028,0.002,0.059,0.004,0.088c0,0.021,0.002,0.041,0.002,0.051
		c0,0.03,0.002,0.062,0.004,0.09c0,0.021,0,0.04,0.002,0.061c0,0.029,0.001,0.06,0.001,0.09c0.002,0.02,0.003,0.039,0.004,0.06
		c0.001,0.03,0.001,0.062,0.002,0.08c0.001,0.03,0.002,0.049,0.004,0.069c0,0.031,0.002,0.061,0.002,0.102
		c0,0.011,0.002,0.029,0.002,0.049c0,0.03,0.002,0.061,0.002,0.09c0,0.021,0.002,0.041,0.002,0.061s0,0.05,0.002,0.07
		c0,0.029,0,0.06,0.002,0.08c0,0.02,0,0.039,0,0.06c0.002,0.03,0.002,0.06,0.002,0.091c0,0.029,0.002,0.049,0.002,0.079v0.069
		c0.002,0.031,0.002,0.051,0.002,0.08c0,0.021,0,0.051,0.003,0.07v0.061v0.09c0,0.01,0,0.02,0.002,0.03v0.12v0.119v0.03v0.149v0.15
		v0.02v0.131v0.111c-0.002,0.008-0.002,0.019-0.002,0.028v0.091v0.07c-0.003,0.02-0.003,0.039-0.003,0.068
		c0,0.021,0,0.051-0.002,0.08v0.061c0,0.029-0.002,0.061-0.002,0.08c0,0.029,0,0.07-0.002,0.091c0,0.019,0,0.039,0,0.06
		c-0.002,0.029-0.002,0.061-0.002,0.08c-0.002,0.029-0.002,0.049-0.002,0.069c0,0.03-0.002,0.05-0.002,0.07
		c0,0.03-0.002,0.06-0.002,0.09c0,0.01-0.002,0.03-0.002,0.05c0,0.03-0.002,0.061-0.002,0.09c-0.002,0.021-0.003,0.051-0.004,0.07
		c0,0.029-0.001,0.061-0.002,0.08c-0.001,0.021-0.002,0.04-0.004,0.07c0,0.021-0.001,0.05-0.001,0.08c0,0.02-0.002,0.039-0.002,0.06
		c-0.002,0.03-0.002,0.062-0.004,0.09c0,0.021-0.002,0.03-0.002,0.05c-0.002,0.03-0.004,0.07-0.004,0.1
		c-0.003,0.021-0.003,0.041-0.005,0.061c0,0.03-0.002,0.061-0.004,0.09l-0.002,0.061c-0.002,0.029-0.004,0.05-0.004,0.08
		c-0.002,0.031-0.004,0.05-0.004,0.08c-0.002,0.021-0.003,0.05-0.005,0.07c-0.001,0.029-0.003,0.05-0.005,0.081
		c0,0.019-0.001,0.038-0.003,0.068c0,0.021-0.002,0.05-0.004,0.08c-0.002,0.021-0.002,0.04-0.004,0.069
		c-0.002,0.021-0.005,0.051-0.005,0.07c-0.002,0.02-0.004,0.051-0.006,0.07c0,0.029-0.002,0.05-0.004,0.08
		c-0.002,0.02-0.004,0.051-0.004,0.07c-0.002,0.029-0.005,0.049-0.006,0.069c-0.002,0.03-0.004,0.05-0.005,0.08
		c-0.003,0.021-0.004,0.05-0.006,0.08c-0.002,0.021-0.002,0.04-0.004,0.069c-0.002,0.021-0.004,0.051-0.007,0.07
		c-0.002,0.03-0.004,0.051-0.006,0.07c-0.002,0.029-0.004,0.061-0.006,0.09c-0.002,0.02-0.002,0.04-0.004,0.061
		c-0.002,0.019-0.006,0.06-0.008,0.08c-0.002,0.02-0.004,0.039-0.005,0.06c-0.002,0.03-0.004,0.062-0.006,0.09
		c-0.002,0.021-0.004,0.041-0.006,0.06c-0.003,0.031-0.005,0.061-0.007,0.081s-0.004,0.05-0.006,0.069
		c-0.004,0.03-0.006,0.061-0.009,0.09c-0.002,0.01-0.004,0.041-0.005,0.051c-0.003,0.029-0.005,0.06-0.007,0.09l-0.006,0.06
		c-0.005,0.03-0.007,0.06-0.011,0.091c-0.002,0.02-0.002,0.029-0.004,0.05c-0.004,0.031-0.006,0.069-0.01,0.1
		c-0.002,0.021-0.003,0.03-0.005,0.051c-0.004,0.029-0.006,0.069-0.01,0.099c-0.002,0.01-0.004,0.031-0.004,0.041
		c-0.005,0.041-0.009,0.069-0.013,0.1c0,0.02-0.002,0.029-0.004,0.05c-0.004,0.03-0.008,0.069-0.012,0.101
		c-0.002,0.01-0.003,0.029-0.003,0.041c-0.004,0.039-0.008,0.067-0.012,0.099c-0.003,0.021-0.005,0.03-0.007,0.05
		c-0.004,0.029-0.008,0.07-0.012,0.102c0,0.019-0.003,0.028-0.004,0.039c-0.004,0.039-0.007,0.069-0.011,0.1
		c-0.002,0.02-0.004,0.03-0.006,0.051c-0.005,0.029-0.009,0.068-0.013,0.1c-0.002,0.01-0.004,0.029-0.006,0.039
		c-0.004,0.041-0.009,0.07-0.014,0.1c-0.001,0.021-0.003,0.031-0.005,0.051c-0.004,0.029-0.009,0.07-0.013,0.1
		c-0.002,0.021-0.004,0.03-0.006,0.041c-0.004,0.039-0.008,0.07-0.013,0.1c-0.002,0.02-0.005,0.031-0.006,0.05
		c-0.004,0.03-0.008,0.069-0.015,0.101c-0.002,0.01-0.004,0.029-0.004,0.039c-0.006,0.03-0.01,0.07-0.015,0.1
		c-0.002,0.021-0.004,0.031-0.007,0.051c-0.003,0.029-0.009,0.07-0.013,0.1c-0.003,0.011-0.005,0.02-0.007,0.04
		c-0.004,0.03-0.01,0.07-0.016,0.101c-0.001,0.01-0.003,0.029-0.005,0.039c-0.004,0.041-0.01,0.07-0.017,0.111
		c-0.002,0.01-0.004,0.02-0.004,0.029c-0.006,0.04-0.012,0.07-0.017,0.109c-0.002,0.011-0.004,0.031-0.007,0.041
		c-0.005,0.04-0.009,0.071-0.016,0.109c-0.002,0.012-0.004,0.02-0.006,0.03c-0.004,0.04-0.01,0.069-0.017,0.11
		c-0.003,0.01-0.003,0.02-0.004,0.029c-0.006,0.04-0.012,0.08-0.019,0.12c-0.002,0.011-0.004,0.011-0.006,0.021l-0.018,0.12
		c-0.001,0.009-0.003,0.021-0.005,0.031c-0.006,0.038-0.013,0.078-0.021,0.108c0,0.011-0.002,0.02-0.002,0.02
		c-0.008,0.041-0.015,0.09-0.021,0.131c-0.002,0-0.002,0.01-0.004,0.02c-0.007,0.04-0.015,0.08-0.021,0.12
		c-0.003,0.01-0.004,0.01-0.005,0.021c-0.006,0.039-0.014,0.079-0.021,0.119c-0.002,0.012-0.004,0.02-0.006,0.03
		c-0.006,0.04-0.014,0.08-0.021,0.11c0,0.01-0.001,0.02-0.001,0.02c-0.008,0.04-0.017,0.08-0.022,0.12
		c-0.002,0.01-0.004,0.021-0.006,0.03c-0.007,0.039-0.015,0.08-0.021,0.12c-0.002,0-0.002,0.009-0.004,0.009
		c-0.009,0.051-0.017,0.091-0.023,0.131c-0.002,0.01-0.003,0.01-0.005,0.02c-0.007,0.041-0.016,0.08-0.023,0.131h-0.002
		c-0.008,0.041-0.018,0.09-0.024,0.129c-0.002,0.011-0.002,0.021-0.004,0.031c-0.009,0.029-0.017,0.081-0.025,0.119
		c-0.001,0-0.001,0-0.002,0.012c-0.008,0.039-0.016,0.078-0.026,0.119c0,0.01-0.002,0.02-0.004,0.02
		c-0.017,0.09-0.035,0.18-0.055,0.27C89.618,70.66,79.85,82.66,66.759,88.8h-0.012c-0.033,0.021-0.068,0.03-0.101,0.051
		c-0.009,0-0.019,0.009-0.029,0.009c-0.03,0.021-0.059,0.03-0.091,0.041c-0.014,0.01-0.025,0.02-0.039,0.02
		c-0.027,0.02-0.056,0.029-0.086,0.039c-0.014,0.011-0.025,0.011-0.041,0.021c-0.027,0.01-0.057,0.029-0.085,0.039
		c-0.015,0.012-0.03,0.012-0.045,0.02c-0.031,0.011-0.06,0.031-0.09,0.041c-0.011,0.01-0.024,0.01-0.035,0.02
		c-0.032,0.01-0.063,0.03-0.095,0.04c-0.012,0-0.025,0.011-0.036,0.021c-0.025,0.01-0.05,0.02-0.074,0.029
		c-0.021,0.011-0.041,0.02-0.06,0.031c-0.021,0-0.037,0.009-0.058,0.02c-0.024,0.01-0.053,0.02-0.077,0.041
		c-0.013,0-0.024,0.008-0.037,0.008c-0.031,0.011-0.062,0.031-0.093,0.041c-0.018,0.01-0.032,0.019-0.051,0.019
		c-0.024,0.011-0.051,0.031-0.075,0.041c-0.021,0-0.037,0.011-0.058,0.021c-0.022,0.01-0.05,0.02-0.073,0.029
		c-0.02,0.01-0.037,0.02-0.059,0.03c-0.023,0.011-0.049,0.021-0.071,0.03c-0.021,0.01-0.039,0.01-0.058,0.02
		c-0.022,0.012-0.047,0.02-0.069,0.03c-0.024,0.01-0.043,0.021-0.067,0.03c-0.021,0.01-0.046,0.021-0.068,0.029
		c-0.018,0.01-0.03,0.01-0.049,0.021c-0.028,0.01-0.059,0.021-0.086,0.03c-0.013,0.01-0.024,0.02-0.039,0.02
		c-0.03,0.01-0.063,0.029-0.098,0.041c-0.007,0-0.015,0.011-0.023,0.011c-0.034,0.019-0.069,0.028-0.106,0.038
		c-0.01,0.012-0.022,0.012-0.033,0.02c-0.032,0.011-0.065,0.021-0.098,0.041c-0.011,0-0.021,0.01-0.032,0.01
		c-0.033,0.01-0.066,0.029-0.102,0.04c-0.01,0-0.02,0.01-0.028,0.01c-0.035,0.021-0.069,0.03-0.104,0.04
		c-0.008,0.01-0.018,0.01-0.024,0.01c-0.037,0.02-0.071,0.03-0.106,0.051c-0.012,0-0.019,0-0.031,0.01
		c-0.034,0.01-0.071,0.031-0.106,0.039h-0.015c-0.041,0.021-0.082,0.041-0.122,0.051h-0.007c-0.176,0.07-0.355,0.142-0.53,0.21
		C58.343,92.09,53.12,93.119,47.673,93.209"/>
</g>
</svg>
