<?xml version="1.0" encoding="utf-8"?>
<!-- Generator: Adobe Illustrator 16.0.0, SVG Export Plug-In . SVG Version: 6.00 Build 0)  -->
<!DOCTYPE svg PUBLIC "-//W3C//DTD SVG 1.1//EN" "http://www.w3.org/Graphics/SVG/1.1/DTD/svg11.dtd">
<svg version="1.1" xmlns="http://www.w3.org/2000/svg" xmlns:xlink="http://www.w3.org/1999/xlink" x="0px" y="0px" width="32px"
	 height="40px" viewBox="0 0 32 40" enable-background="new 0 0 32 40" xml:space="preserve">
<g id="Layer_2">
</g>
<g id="Layer_1">
</g>
<g id="маркер">
	<g>
		<circle fill="#E37A09" cx="17.548" cy="10.492" r="2.733"/>
		<path fill="#E37A09" d="M30.82,20.549l-5.082,0.267l-3.91-3.861l5.167,1.271l4.328-3.873c0.411-0.368,0.447-1.001,0.078-1.412
			c-0.368-0.412-1-0.446-1.412-0.078l-3.541,3.17l-4.735-1.165l5.88-3.919l-1.654-7.519c-0.118-0.539-0.653-0.876-1.191-0.762
			c-0.539,0.118-0.88,0.652-0.762,1.191l1.36,6.183l-5.751,3.834h-4.066l-5.751-3.834l1.36-6.183
			c0.119-0.539-0.222-1.073-0.762-1.191C9.838,2.553,9.304,2.89,9.185,3.429L7.53,10.947l5.88,3.919l-4.735,1.165l-3.541-3.17
			c-0.411-0.368-1.043-0.334-1.412,0.078c-0.368,0.411-0.333,1.044,0.078,1.412l4.328,3.873l5.167-1.271l-3.91,3.861l-5.082-0.267
			c-0.542-0.033-1.022,0.396-1.051,0.946c-0.029,0.552,0.395,1.022,0.946,1.052l5.964,0.312l4.901-4.839v8.855v12
			c0,0.553,0.448,1,1,1s1-0.447,1-1v-12h1v12c0,0.553,0.448,1,1,1s1-0.447,1-1v-12v-8.853l4.898,4.836l5.964-0.312
			c0.551-0.029,0.975-0.5,0.946-1.052C31.842,20.943,31.368,20.52,30.82,20.549z"/>
	</g>
	<path fill="#E37A09" d="M3.741,8.875h0.321v-4H4.056C4.057,4.836,3.969,4.799,3.969,4.76c0-0.907,0.093-1.675-0.907-1.976
		c0-0.008,0-0.016,0-0.024c0-1.168-0.284-2.115-0.75-2.115c-0.466,0-0.797,0.947-0.797,2.115c0,0.402,0.071,0.773,0.148,1.094
		C1.586,4.129,1.551,4.434,1.551,4.76c0,0.039,0.017,0.076,0.019,0.115H1.062v3.63c-0.405,0.435-0.667,1.074-0.667,1.799
		c0,1.307,0.836,2.366,1.867,2.366s1.867-1.06,1.867-2.366C4.129,9.765,3.981,9.273,3.741,8.875z"/>
</g>
</svg>
