<?xml version="1.0" encoding="utf-8"?>
<!-- Generator: Adobe Illustrator 16.0.0, SVG Export Plug-In . SVG Version: 6.00 Build 0)  -->
<!DOCTYPE svg PUBLIC "-//W3C//DTD SVG 1.1//EN" "http://www.w3.org/Graphics/SVG/1.1/DTD/svg11.dtd">
<svg version="1.1" id="Layer_1" xmlns="http://www.w3.org/2000/svg" xmlns:xlink="http://www.w3.org/1999/xlink" x="0px" y="0px"
	 width="93.641px" height="93.219px" viewBox="0 0 93.641 93.219" enable-background="new 0 0 93.641 93.219" xml:space="preserve">
<g>
	<path fill="#7ACC78" d="M91.644,46.608c0,24.639-20.068,44.608-44.826,44.608C22.066,91.219,2,71.247,2,46.608S22.066,2,46.817,2
		C71.575,2,91.644,21.969,91.644,46.608"/>
	<path fill="#FFFFFF" d="M77.213,21.375h-18.88c-6.176,0-9.195,1.452-10.665,2.962c-1.462-1.51-4.483-2.962-10.66-2.962H18.125
		c-0.899,0-1.623,0.737-1.623,1.641v44.692c0,0.91,0.724,1.64,1.623,1.64h0.179h10.03h8.674c3.985,0,7.968,1.7,8.005,1.909h0.025
		c0.809,0.611,0.813,0.603,1.623,0.603h2.16c0.823,0,0.864,0.01,1.599-0.76c0.134-0.23,4.248-1.752,7.911-1.752h8.671h10.034h0.177
		c0.901,0,1.627-0.738,1.627-1.64V23.015C78.84,22.112,78.116,21.375,77.213,21.375 M45.221,27.313v40.924
		c0,0-3.464-1.91-8.139-1.91H19.79V24.403h17.293C46.131,24.403,45.221,27.313,45.221,27.313 M54.086,36.524h14.406v1.973H54.086
		V36.524z M68.493,54.288H54.087v-1.971h14.406V54.288z M68.493,50.337H54.087v-1.969h14.406V50.337z M68.493,46.397H54.087V44.42
		h14.406V46.397z M68.493,42.444H54.087V40.47h14.406V42.444z"/>
	<rect x="25.127" y="44.421" fill="#FFFFFF" width="14.406" height="1.978"/>
	<rect x="31.43" y="36.524" fill="#FFFFFF" width="8.104" height="1.975"/>
	<rect x="25.127" y="40.472" fill="#FFFFFF" width="14.406" height="1.975"/>
	<rect x="25.127" y="48.368" fill="#FFFFFF" width="14.406" height="1.969"/>
	<rect x="25.127" y="52.317" fill="#FFFFFF" width="14.406" height="1.971"/>
	<path fill="#70B76C" d="M46.816,89.219h-0.014v-17.36h2.019h0.075c0.75,0,0.813-0.01,1.523-0.76c0.133-0.23,4.248-1.75,7.91-1.75
		h8.672h10.033h0.177c0.901,0,1.627-0.74,1.627-1.642v-44.69c0-0.901-0.724-1.641-1.627-1.641h-18.88
		c-6.176,0-9.195,1.453-10.664,2.961c-0.245-0.25-0.529-0.5-0.865-0.739V3.999h0.014c0.285,0,0.57,0.002,0.854,0.008
		c1.073,0.022,2.136,0.082,3.188,0.181c0.007,0.002,0.013,0.002,0.019,0.002c0.07,0.007,0.141,0.014,0.21,0.02l0.065,0.006
		c0.06,0.009,0.12,0.016,0.182,0.021c0.031,0.004,0.059,0.006,0.089,0.01c0.054,0.006,0.11,0.01,0.163,0.019
		c0.035,0.004,0.072,0.008,0.106,0.012c0.052,0.007,0.101,0.012,0.147,0.018c0.039,0.004,0.08,0.009,0.121,0.015
		c0.043,0.005,0.084,0.01,0.127,0.016c0.052,0.006,0.099,0.012,0.149,0.018c0.032,0.005,0.067,0.011,0.103,0.015
		c0.056,0.007,0.112,0.014,0.166,0.021c0.033,0,0.062,0.004,0.094,0.01c0.062,0.008,0.119,0.017,0.179,0.023
		c0.024,0.004,0.053,0.007,0.077,0.011c0.064,0.01,0.129,0.019,0.192,0.028c0.021,0.003,0.043,0.006,0.063,0.008
		c0.069,0.01,0.141,0.021,0.211,0.031c0.015,0.002,0.028,0.006,0.045,0.008c0.073,0.01,0.147,0.022,0.224,0.034
		c0.011,0.001,0.024,0.004,0.036,0.006c0.078,0.011,0.156,0.025,0.234,0.038c0.008,0,0.016,0.002,0.021,0.004
		c0.082,0.014,0.166,0.027,0.246,0.042c0.004,0,0.009,0.001,0.013,0.001c8.101,1.389,15.414,5.037,21.277,10.276
		c0.001,0.001,0.001,0.002,0.003,0.004c0.062,0.054,0.123,0.108,0.185,0.165c0.002,0.002,0.007,0.004,0.009,0.006
		c0.06,0.055,0.121,0.11,0.181,0.166c0.002,0.002,0.007,0.004,0.009,0.008c0.062,0.055,0.12,0.111,0.183,0.166
		c0.002,0.002,0.006,0.005,0.008,0.006c0.057,0.056,0.114,0.11,0.174,0.164c0.005,0.004,0.01,0.008,0.014,0.014
		c0.06,0.055,0.116,0.109,0.176,0.166c0.005,0.003,0.009,0.006,0.011,0.009c0.061,0.057,0.121,0.113,0.179,0.172
		c0.002,0.001,0.005,0.003,0.007,0.005c0.057,0.055,0.113,0.11,0.17,0.166c0.006,0.003,0.01,0.009,0.017,0.013
		c0.055,0.055,0.11,0.109,0.168,0.164c0.004,0.004,0.01,0.01,0.014,0.017c0.061,0.059,0.121,0.116,0.182,0.179
		c7.75,7.718,12.539,18.355,12.539,30.126c0,11.77-4.787,22.41-12.539,30.129l-0.182,0.18c-0.006,0-0.012,0.013-0.018,0.013
		c-0.056,0.059-0.109,0.108-0.164,0.157c-0.011,0.013-0.019,0.021-0.026,0.031c-0.052,0.051-0.106,0.101-0.159,0.15
		c-0.004,0.01-0.007,0.01-0.008,0.01c-0.059,0.059-0.117,0.109-0.176,0.17c-0.006,0-0.015,0.01-0.021,0.021
		c-0.057,0.051-0.11,0.1-0.168,0.149c-0.006,0.01-0.012,0.01-0.016,0.021c-0.06,0.051-0.113,0.108-0.17,0.159
		c-0.008,0-0.017,0.011-0.021,0.021c-0.055,0.051-0.11,0.1-0.168,0.15c-0.006,0.012-0.012,0.012-0.018,0.02
		c-0.058,0.051-0.116,0.1-0.172,0.15c-0.004,0.01-0.011,0.01-0.015,0.02c-0.059,0.051-0.119,0.1-0.178,0.16
		c-0.005,0-0.008,0-0.012,0.01c-0.062,0.051-0.121,0.103-0.183,0.16h-0.008c-0.127,0.121-0.252,0.23-0.379,0.34h-0.002
		c-5.891,5.07-13.184,8.58-21.229,9.853c-0.007,0.01-0.011,0.01-0.017,0.01c-0.08,0.01-0.158,0.02-0.237,0.029
		c-0.013,0.012-0.024,0.012-0.035,0.012c-0.074,0.008-0.151,0.018-0.226,0.027c-0.015,0.012-0.028,0.012-0.045,0.012
		c-0.069,0.01-0.141,0.02-0.214,0.028c-0.019,0-0.038,0.011-0.056,0.011c-0.069,0.01-0.135,0.02-0.203,0.028h-0.066
		c-0.063,0.013-0.125,0.021-0.188,0.031c-0.03,0-0.06,0.01-0.086,0.01c-0.06,0.011-0.114,0.011-0.17,0.021
		c-0.033,0-0.067,0.01-0.101,0.01c-0.052,0.01-0.102,0.01-0.151,0.021c-0.041,0.01-0.082,0.01-0.123,0.01
		c-0.041,0.01-0.082,0.01-0.123,0.02c-0.052,0-0.103,0.011-0.151,0.011c-0.03,0.012-0.062,0.012-0.095,0.012
		c-0.062,0.008-0.119,0.018-0.181,0.018c-0.021,0.011-0.041,0.011-0.063,0.011c-0.067,0.012-0.138,0.012-0.207,0.021h-0.034
		c-1.048,0.1-2.104,0.16-3.175,0.18C47.387,89.219,47.102,89.219,46.816,89.219"/>
	<path fill="#8BC48A" d="M68.493,54.288H54.087v-1.971h14.406V54.288z M68.493,50.337H54.087v-1.969h14.406V50.337z M68.493,46.397
		H54.087V44.42h14.406V46.397z M68.493,42.444H54.087V40.47h14.406V42.444z M68.493,38.497H54.087v-1.973h14.406V38.497z"/>
	<path fill="#E8E8E8" d="M48.896,71.858h-0.075h-2.019V23.596c0.336,0.24,0.62,0.49,0.864,0.74c1.47-1.51,4.489-2.962,10.665-2.962
		h18.88c0.903,0,1.627,0.737,1.627,1.641v44.692c0,0.9-0.726,1.64-1.627,1.64h-0.177H67.002h-8.671
		c-3.663,0-7.777,1.521-7.911,1.752C49.709,71.849,49.646,71.858,48.896,71.858 M54.086,54.288h14.406v-1.971H54.086V54.288z
		 M54.086,50.337h14.406v-1.969H54.086V50.337z M54.086,46.397h14.406V44.42H54.086V46.397z M54.086,42.444h14.406V40.47H54.086
		V42.444z M54.086,38.497h14.406v-1.973H54.086V38.497z"/>
</g>
</svg>
