<svg xmlns="http://www.w3.org/2000/svg" xmlns:xlink="http://www.w3.org/1999/xlink" width="112.762" height="112.25" viewBox="0 0 112.762 112.25"><path fill="#FF293D" d="M109.394 55.077c0 29.457-23.88 53.334-53.334 53.334-29.454 0-53.334-23.876-53.334-53.333 0-29.455 23.88-53.333 53.334-53.333 29.455 0 53.334 23.878 53.334 53.333"/><path fill="#FFF" d="M111.022 56.13h-1.74c0 14.54-5.915 27.68-15.49 37.22-9.58 9.53-22.798 15.42-37.415 15.42-14.616 0-27.833-5.89-37.41-15.42-9.573-9.54-15.49-22.68-15.49-37.22s5.917-27.69 15.49-37.23c9.577-9.53 22.794-15.42 37.41-15.42 14.617 0 27.834 5.89 37.414 15.42 9.577 9.54 15.49 22.69 15.493 37.23h3.48C112.758 25.12 87.51 0 56.376 0 25.247 0 .002 25.12 0 56.13c.002 30.99 25.246 56.12 56.377 56.12 31.134 0 56.38-25.13 56.386-56.12h-1.74z"/><path fill="#F2C40D" d="M57.01 16.14L68.28 38.98l25.206 3.66-18.24 17.78 4.307 25.104L57.01 73.672 34.463 85.524 38.77 60.42 20.533 42.64l25.206-3.66"/><path fill="none" stroke="#FFF" stroke-miterlimit="10" d="M57.01 16.14L68.28 38.98l25.206 3.66-18.24 17.78 4.307 25.104L57.01 73.672 34.463 85.524 38.77 60.42 20.533 42.64l25.206-3.66z"/><g opacity=".2"><defs><path id="a" d="M54.395 1.746h54.996v106.66H54.396z"/></defs><clipPath id="b"><use xlink:href="#a" overflow="visible"/></clipPath><path clip-path="url(#b)" fill="#6E797A" d="M56.06 1.744c-.56 0-1.11.024-1.666.042V108.37c.556.016 1.107.04 1.666.04 29.455 0 53.334-23.876 53.334-53.333 0-29.455-23.88-53.333-53.334-53.333"/></g></svg>