<svg xmlns="http://www.w3.org/2000/svg" width="93.641" height="93.219" viewBox="0 0 93.641 93.219"><path fill="#A475EF" d="M91.64 46.62c0 24.63-20.068 44.602-44.818 44.602C22.07 91.222 2 71.25 2 46.62 2 21.97 22.07 2 46.82 2s44.82 19.97 44.82 44.62"/><path fill="#FFF" d="M50.95 46.61c6.22-3.88 19.37-13.48 19.37-25.17 0-1.15-.94-2.08-2.092-2.08-1.147 0-2.078.93-2.078 2.08 0 6.37-5.39 12.3-9.92 16.16-3.8 3.25-7.66 5.62-9.41 6.63-1.75-1.01-5.6-3.38-9.41-6.63-4.52-3.86-9.918-9.79-9.918-16.16 0-1.15-.932-2.08-2.08-2.08s-2.083.93-2.083 2.08c0 11.69 13.14 21.29 19.36 25.17-6.22 3.89-19.364 13.49-19.364 25.18 0 1.15.933 2.08 2.085 2.08 1.15 0 2.082-.93 2.082-2.08 0-6.37 5.395-12.31 9.92-16.17 3.798-3.24 7.658-5.61 9.408-6.62 1.75 1.01 5.61 3.38 9.41 6.62 4.53 3.86 9.92 9.8 9.92 16.17 0 1.15.93 2.08 2.078 2.08 1.15 0 2.092-.93 2.092-2.08 0-11.69-13.15-21.29-19.37-25.18"/><path fill="#FFF" d="M52.22 39.25l-10.69.08c2.98 2.1 5.29 3.32 5.29 3.32s2.37-1.25 5.4-3.4M57.52 34.97H36.13c1 .94 2.03 1.81 3.04 2.6h15.313c.998-.79 2.027-1.66 3.037-2.6M61.48 30.6H32.164c.677.91 1.418 1.78 2.195 2.61h24.92c.78-.83 1.52-1.7 2.2-2.61M64.02 26.24H29.624c.37.9.826 1.76 1.346 2.61h31.7c.53-.85.98-1.71 1.35-2.61M64.63 24.49c.24-.86.392-1.73.44-2.61h-36.5c.055.88.207 1.75.444 2.61H64.63M41.42 54.14l10.69-.08c-2.97-2.1-5.29-3.32-5.29-3.32s-2.37 1.25-5.4 3.4M36.13 58.43H57.52c-1.01-.94-2.04-1.812-3.04-2.61H39.17c-1.01.8-2.04 1.67-3.04 2.61M32.164 62.79h29.314c-.68-.91-1.42-1.78-2.2-2.6H34.362c-.778.82-1.517 1.69-2.196 2.6M29.623 67.15H64.02c-.37-.892-.82-1.76-1.35-2.6h-31.7c-.52.84-.976 1.71-1.347 2.6M29.012 68.91c-.233.85-.388 1.72-.44 2.6h36.5c-.05-.88-.202-1.75-.442-2.6H29.012"/><path fill="#8D6AD3" d="M46.82 89.22V71.51h18.25c-.05-.88-.2-1.75-.44-2.6H46.82v-1.76h17.2c-.37-.893-.82-1.76-1.35-2.602H46.82v-1.76h14.658c-.68-.91-1.42-1.78-2.2-2.602H46.82v-1.76h10.7c-1.01-.94-2.04-1.81-3.04-2.61h-7.66V54.1l5.29-.04c-2.97-2.1-5.29-3.32-5.29-3.32V49c1.75 1.012 5.61 3.38 9.41 6.62 4.53 3.86 9.92 9.8 9.92 16.17 0 1.15.932 2.08 2.08 2.08 1.15 0 2.09-.93 2.09-2.08 0-11.69-13.15-21.29-19.37-25.18 6.22-3.88 19.37-13.48 19.37-25.17 0-1.15-.94-2.08-2.092-2.08-1.147 0-2.078.93-2.078 2.08 0 6.37-5.392 12.3-9.92 16.16-3.8 3.25-7.66 5.62-9.41 6.63v-1.58s2.37-1.25 5.397-3.4l-5.397.04v-1.72h7.66c1-.79 2.028-1.66 3.04-2.6h-10.7v-1.76h12.46c.778-.83 1.52-1.7 2.198-2.61H46.82v-1.75h15.85c.53-.85.98-1.71 1.35-2.61h-17.2v-1.75h17.81c.24-.86.39-1.73.44-2.61H46.82V4c.29 0 .568.01.85.01 7.98.16 15.42 2.48 21.75 6.4.01.01.02.02.04.03.04.03.09.06.14.08.022.02.052.04.07.05.04.028.08.05.12.08.03.02.07.04.1.06.04.02.07.05.11.07.03.02.07.04.1.07.04.02.07.04.102.06.04.03.08.05.12.08l.09.06c.04.03.08.05.12.08.028.02.06.04.09.06.04.02.09.05.13.08.02.02.05.03.07.05.05.03.09.06.14.1.02.012.05.03.07.04.05.04.09.07.14.1.02.02.05.03.07.04l.14.11c.02.01.04.03.06.04.053.03.102.07.15.1.02.02.04.03.062.05.05.03.1.07.148.1.02.022.04.032.06.04.053.04.102.08.15.11.02.02.04.032.062.04.05.04.09.08.14.11.02.02.04.03.06.04.052.04.102.08.15.11.02.02.04.03.05.04.06.04.11.08.16.12.01.01.03.02.05.04.05.04.1.07.15.11.02.02.03.03.05.04l.15.12c.02.01.04.02.05.04.05.04.1.08.148.11.02.02.04.03.05.04.064.04.11.08.16.12.012.02.03.028.04.04.05.04.11.08.16.118.012.01.03.03.04.04.05.04.11.08.16.12.01.02.03.03.04.04l.16.13c.01.01.02.02.04.03.05.04.1.09.148.13.02.01.03.02.04.03.063.05.11.09.16.14.01.01.03.02.04.03.05.04.102.08.16.13l.03.03c.06.05.11.09.16.14.01.01.03.02.04.03.05.04.1.09.16.14.01.01.02.01.028.02.05.05.11.1.16.14l.03.03c.05.05.11.1.16.14l.03.03c.06.05.108.102.16.14l.028.03c.06.05.108.102.16.15.01.01.02.02.028.02.05.05.11.1.16.15l.03.03c.05.05.11.1.16.15.01.01.02.01.03.02.05.05.1.1.16.15.01.01.01.02.02.03.06.05.108.1.17.16 0 0 .01.01.02.01.05.06.11.11.16.16l.02.02c.06.05.11.11.17.16 0 .01.01.01.01.02l.18.18c7.76 7.72 12.54 18.36 12.54 30.13 0 11.76-4.78 22.4-12.54 30.12l-.18.18c0 .01-.01.01-.02.02-.05.052-.102.103-.16.16-.012.01-.02.022-.03.022-.05.05-.1.11-.15.16-.01 0-.02.01-.02.01-.062.06-.11.11-.17.16l-.03.03c-.05.05-.1.1-.16.148l-.02.02c-.05.052-.11.1-.16.15l-.03.03c-.05.04-.11.1-.16.14-.01.01-.01.02-.02.02-.062.052-.11.11-.17.16-.01 0-.02.01-.02.02-.062.053-.11.102-.17.15-.01 0-.01.01-.02.02-.063.053-.112.102-.17.15-.014 0-.023.01-.023.02-.057.053-.117.102-.168.15-.01 0-.02.01-.02.01-.063.053-.12.102-.18.15 0 .01-.01.02-.02.02-.063.053-.113.102-.17.15-.002.012-.002.012-.013.012-.06.062-.12.11-.18.16l-.01.01c-.063.052-.13.1-.19.15 0 .01 0 .01-.01.01-.062.05-.12.1-.18.16-.013 0-.013 0-.022.01-.06.052-.12.1-.18.15-.01 0-.01 0-.01.01-.07.05-.132.1-.19.15-.01 0-.01.01-.01.01-.07.05-.13.1-.2.15v.01c-.07.05-.13.1-.2.15v.008c-5.06 3.95-11.03 6.79-17.54 8.162h-.008c-.08.02-.17.038-.25.05-.01.01-.01.01-.02.01-.08.01-.16.028-.24.05h-.03c-.07.02-.15.03-.23.05h-.027c-.08.022-.15.03-.23.04-.01.01-.02.01-.04.01-.07.022-.14.03-.21.042-.02 0-.04.01-.06.01-.07.01-.13.028-.2.04-.02 0-.04 0-.062.01l-.197.03c-.02 0-.052.01-.07.01-.062.01-.12.02-.19.03-.02.01-.05.01-.08.02-.06 0-.11.01-.17.02-.04.01-.068.01-.1.02-.05.01-.11.01-.16.022-.04.01-.07.01-.11.02-.05 0-.1.01-.15.022-.038 0-.078.01-.118.01-.04.01-.09.02-.14.02-.04.01-.08.02-.12.02-.05.01-.09.01-.13.022-.05 0-.102.01-.14.02-.042 0-.08 0-.122.01-.05.01-.1.01-.15.02-.038 0-.07.012-.1.012-.06.01-.118.01-.17.02-.028 0-.05.01-.08.01-.06.012-.13.012-.198.022h-.052l-.22.03h-.023c-1.13.11-2.29.18-3.45.2h-.85"/><path fill="#D8D8D8" d="M68.23 73.87c-1.148 0-2.078-.93-2.078-2.08 0-6.37-5.393-12.31-9.92-16.17-3.802-3.24-7.66-5.608-9.41-6.62v-4.778.01c1.75-1.01 5.608-3.38 9.41-6.63 4.527-3.86 9.92-9.79 9.92-16.16 0-1.15.93-2.08 2.077-2.08 1.148 0 2.092.93 2.092 2.08 0 11.69-13.15 21.29-19.37 25.17 6.218 3.89 19.37 13.49 19.37 25.18 0 1.147-.943 2.077-2.093 2.077"/><path fill="#D8D8D8" d="M46.82 42.65v-3.36l5.397-.04c-3.028 2.15-5.397 3.4-5.397 3.4M54.48 37.57h-7.66v-2.6h10.7c-1.01.94-2.04 1.81-3.04 2.6M59.28 33.21H46.82V30.6h14.658c-.678.91-1.42 1.78-2.2 2.61M62.67 28.85H46.82v-2.61h17.2c-.37.9-.82 1.76-1.35 2.61M64.63 24.49H46.82v-2.61h18.25c-.05.88-.2 1.75-.44 2.61M46.82 54.1v-3.36s2.318 1.22 5.29 3.32l-5.29.04M57.52 58.43h-10.7v-2.61h7.66c1 .8 2.03 1.67 3.04 2.61M61.48 62.79H46.82v-2.6h12.46c.78.82 1.52 1.69 2.2 2.6M64.02 67.15h-17.2v-2.6h15.85c.53.84.98 1.71 1.35 2.6M65.07 71.51H46.82v-2.6h17.81c.24.85.39 1.72.44 2.6"/></svg>