<svg xmlns="http://www.w3.org/2000/svg" width="93.64" height="93.218" viewBox="0 0 93.64 93.218"><path fill="#A475EF" d="M91.64 46.62c0 24.63-20.068 44.6-44.818 44.6C22.07 91.22 2 71.25 2 46.62 2 21.97 22.07 2 46.82 2s44.82 19.97 44.82 44.62"/><path fill="#FFF" d="M91.64 46.62h-2c0 11.76-4.78 22.4-12.54 30.12-7.75 7.71-18.448 12.48-30.278 12.48s-22.528-4.77-30.284-12.48C8.788 69.02 4.002 58.38 4.002 46.62c0-11.77 4.785-22.42 12.535-30.13C24.293 8.77 34.99 4 46.82 4S69.35 8.77 77.1 16.49c7.76 7.72 12.538 18.36 12.538 30.13h4C93.64 20.86 72.67 0 46.822 0 20.97 0 .003 20.86 0 46.62c.004 25.74 20.97 46.6 46.82 46.6S93.64 72.36 93.64 46.62h-2"/><path fill="#DEDEDE" d="M93.64 46.62h-4c0 11.76-4.78 22.4-12.54 30.12-7.56 7.53-17.93 12.25-29.43 12.47v4c25.46-.45 45.97-21.13 45.97-46.59M47.67.01v4c11.5.23 21.87 4.95 29.43 12.48 7.76 7.72 12.54 18.36 12.54 30.13h4C93.64 21.15 73.13.46 47.67.01"/><path fill="#FFF" d="M50.95 46.61c6.22-3.88 19.37-13.48 19.37-25.17 0-1.15-.94-2.08-2.092-2.08-1.147 0-2.078.93-2.078 2.08 0 6.37-5.39 12.3-9.92 16.16-3.8 3.25-7.66 5.62-9.41 6.63-1.75-1.01-5.6-3.38-9.41-6.63-4.522-3.86-9.918-9.79-9.918-16.16 0-1.15-.932-2.08-2.08-2.08-1.15 0-2.083.93-2.083 2.08 0 11.69 13.14 21.29 19.36 25.17-6.22 3.89-19.364 13.49-19.364 25.18 0 1.15.933 2.08 2.085 2.08 1.15 0 2.082-.93 2.082-2.08 0-6.37 5.394-12.31 9.92-16.17 3.798-3.24 7.658-5.61 9.408-6.62 1.75 1.01 5.61 3.38 9.41 6.62 4.53 3.86 9.92 9.8 9.92 16.17 0 1.15.93 2.08 2.078 2.08 1.15 0 2.092-.93 2.092-2.08 0-11.69-13.15-21.29-19.37-25.18"/><path fill="#FFF" d="M52.22 39.25l-10.69.08c2.98 2.1 5.29 3.32 5.29 3.32s2.37-1.25 5.4-3.4M57.52 34.97H36.13c1 .94 2.03 1.81 3.04 2.6h15.312c1-.79 2.028-1.66 3.038-2.6M61.48 30.6H32.164c.677.91 1.418 1.78 2.195 2.61h24.92c.78-.83 1.52-1.7 2.2-2.61M64.02 26.24H29.624c.37.9.826 1.76 1.345 2.61h31.7c.53-.85.98-1.71 1.35-2.61M64.63 24.49c.24-.86.39-1.73.44-2.61h-36.5c.055.88.207 1.75.444 2.61H64.63M41.42 54.14l10.69-.08c-2.97-2.1-5.29-3.32-5.29-3.32s-2.37 1.25-5.4 3.4M36.13 58.43h21.39c-1.01-.94-2.038-1.81-3.038-2.61H39.17c-1.01.8-2.04 1.67-3.04 2.61M32.164 62.79h29.314c-.68-.91-1.42-1.78-2.2-2.6H34.362c-.778.82-1.517 1.69-2.196 2.6M29.623 67.15H64.02c-.37-.89-.82-1.76-1.35-2.6h-31.7c-.52.84-.976 1.71-1.347 2.6M29.012 68.91c-.233.85-.387 1.72-.44 2.6h36.5c-.05-.88-.202-1.75-.442-2.6H29.012"/><path fill="#8D6AD3" d="M46.82 89.22V71.51h18.25c-.05-.88-.2-1.75-.44-2.6H46.82v-1.76h17.2c-.37-.89-.82-1.76-1.35-2.6H46.82v-1.76h14.658c-.68-.91-1.42-1.78-2.2-2.602H46.82v-1.76h10.7c-1.01-.94-2.04-1.81-3.04-2.61h-7.66V54.1l5.29-.04c-2.97-2.1-5.29-3.32-5.29-3.32V49c1.75 1.01 5.61 3.38 9.41 6.62 4.53 3.86 9.92 9.8 9.92 16.17 0 1.15.932 2.08 2.08 2.08 1.15 0 2.09-.93 2.09-2.08 0-11.69-13.15-21.29-19.37-25.18 6.22-3.88 19.37-13.48 19.37-25.17 0-1.15-.94-2.08-2.092-2.08-1.147 0-2.078.93-2.078 2.08 0 6.37-5.39 12.3-9.92 16.16-3.8 3.25-7.66 5.62-9.41 6.63v-1.58s2.37-1.25 5.398-3.4l-5.398.04v-1.72h7.66c1-.79 2.03-1.66 3.04-2.6h-10.7v-1.76h12.46c.778-.83 1.52-1.7 2.198-2.61H46.82v-1.75h15.85c.53-.85.98-1.71 1.35-2.61h-17.2v-1.75h17.81c.24-.86.39-1.73.44-2.61H46.82V4c.29 0 .568.01.85.01 7.98.16 15.42 2.48 21.75 6.4.01.01.02.02.04.03.04.03.09.06.14.08.02.02.05.04.07.05.04.028.08.05.12.08.03.02.07.04.1.06.04.02.07.05.11.07.03.02.07.04.1.07.04.02.07.04.1.06.042.03.08.05.12.08l.092.06c.04.03.08.05.118.08.03.02.062.04.09.06.042.02.09.05.132.08.02.02.05.03.07.05.05.028.09.06.14.1l.068.04c.052.04.09.07.142.1.02.02.048.03.07.04l.14.11c.02.01.04.03.06.04.05.03.1.07.15.1.02.02.04.03.06.05.05.028.1.07.15.1.02.02.04.03.06.04.05.04.1.08.15.11.02.02.04.03.06.04.05.04.09.08.14.11.02.02.04.03.06.04.05.04.1.08.15.11.02.02.04.03.05.04.06.04.11.08.16.12.01.01.03.02.05.04.05.04.1.07.15.11.02.02.03.03.05.04l.15.12c.02.01.04.02.05.04.05.04.1.08.148.11.022.02.04.03.05.04.063.04.11.08.16.12.012.02.03.03.04.04.05.04.112.08.16.118.012.01.032.03.04.04.05.04.11.08.162.12.01.022.03.03.04.04l.16.13c.01.01.018.02.04.03.05.04.1.09.147.13.02.01.03.02.04.03.062.05.11.09.16.14.01.01.03.022.04.03l.16.13.03.03c.06.05.11.09.16.14.01.01.03.02.04.03.05.042.1.09.16.14.01.01.02.01.03.022.05.05.11.1.16.14.008.01.018.02.03.03.05.05.108.1.16.14.01.008.02.02.028.03.062.05.11.1.16.14l.03.03c.06.05.108.1.16.15.01.01.02.02.028.02.05.05.112.1.16.15l.032.028c.05.05.108.102.16.15.01.01.02.01.028.02.052.05.1.1.16.15.01.01.01.02.02.032.06.05.11.1.17.16 0 0 .01.01.02.01.05.06.112.11.16.16l.022.02c.06.048.108.11.17.16 0 .01.01.01.01.02.058.06.12.118.18.18 7.76 7.72 12.538 18.36 12.538 30.13 0 11.76-4.78 22.398-12.54 30.12-.06.06-.12.118-.178.18 0 .01-.01.01-.02.02-.052.05-.102.1-.16.16-.013.01-.022.02-.03.02-.05.05-.102.11-.152.16-.01 0-.02.01-.02.01-.06.06-.11.11-.17.16l-.028.03c-.05.05-.1.1-.16.15l-.02.02c-.052.05-.11.1-.16.15l-.032.028c-.048.04-.11.1-.16.14-.01.01-.01.02-.02.02-.06.052-.11.11-.17.16-.01 0-.02.01-.02.02-.06.052-.108.1-.17.15-.01 0-.01.01-.02.02-.06.052-.11.1-.17.15-.012 0-.02.01-.02.02-.06.052-.12.1-.17.15-.01 0-.02.01-.02.01l-.18.15c0 .01-.01.02-.02.02-.062.052-.112.1-.17.15-.006.012-.006.012-.017.012-.06.06-.12.11-.18.16l-.01.01c-.062.05-.13.1-.19.15 0 .01 0 .01-.01.01-.06.05-.12.1-.18.16-.012 0-.012 0-.02.01l-.18.15c-.012 0-.012 0-.012.01-.07.05-.13.1-.188.15-.01 0-.01.01-.01.01-.07.05-.132.1-.2.15v.01c-.072.05-.13.1-.2.15v.008c-5.06 3.95-11.032 6.79-17.542 8.162h-.008c-.08.02-.17.04-.25.05-.01.01-.01.01-.02.01-.08.01-.16.028-.24.05h-.03c-.07.02-.15.03-.23.05h-.028c-.08.02-.15.03-.23.04-.01.01-.02.01-.042.01-.068.02-.138.03-.21.04-.018 0-.04.01-.06.01-.07.01-.128.03-.198.04-.02 0-.04 0-.062.01-.07.012-.13.02-.198.03-.022 0-.052.01-.07.01l-.19.03c-.02.01-.05.01-.08.02-.06 0-.11.01-.17.02-.04.01-.07.01-.1.02-.05.01-.11.01-.162.02-.04.01-.068.01-.11.022-.048 0-.1.01-.148.02-.04 0-.08.01-.12.01-.04.01-.09.02-.14.02-.04.01-.08.02-.12.02-.05.01-.09.01-.13.02-.05 0-.1.01-.14.02-.04 0-.08 0-.12.01-.052.01-.1.01-.15.02-.04 0-.07.01-.1.01-.06.01-.12.01-.17.022-.03 0-.052.01-.08.01-.06.01-.13.01-.2.02h-.05l-.222.03h-.02c-1.13.11-2.29.18-3.45.2-.28.007-.56.007-.85.007"/><path fill="#D8D8D8" d="M46.82 93.22v-4c.29 0 .57 0 .85-.01v4c-.28.01-.56.01-.85.01m4.3-4.21h.02-.02m.24-.03h.05-.05m.25-.02c.03 0 .05-.01.08-.01-.03 0-.05.01-.08.01m.25-.03c.03 0 .06-.01.1-.01-.03 0-.07.01-.1.01m.25-.03c.04-.01.08-.01.12-.01-.04 0-.08 0-.12.01m.26-.03c.04-.01.08-.01.13-.02-.05.01-.09.01-.13.02m.25-.04c.05 0 .1-.01.14-.02-.04.01-.09.02-.14.02m.26-.03c.05-.01.1-.02.15-.02-.05 0-.1.01-.15.02m.26-.04c.05-.01.11-.01.16-.02-.05.01-.11.01-.16.02m.26-.04c.06-.01.11-.02.17-.02-.06 0-.11.01-.17.02m.25-.04c.07-.01.13-.02.19-.03-.06.01-.12.02-.19.03m.26-.04c.07-.01.13-.02.2-.028l-.2.03m.26-.042c.07-.01.13-.03.2-.04-.07.01-.13.03-.2.04m.26-.05c.07-.01.14-.02.21-.04-.07.02-.14.03-.21.04m.25-.05c.08-.01.15-.02.23-.04-.08.02-.15.03-.23.04m.26-.04c.08-.02.16-.03.23-.05-.07.02-.15.03-.23.05m.26-.05c.08-.02.16-.04.24-.05-.08.01-.16.03-.24.05m.26-.06c.08-.01.17-.03.25-.05-.08.02-.16.04-.25.05m.26-.05c6.51-1.37 12.48-4.21 17.54-8.16-5.06 3.95-11.03 6.79-17.54 8.16m17.54-8.17c.07-.05.13-.1.2-.15-.07.05-.13.1-.2.15m.2-.16c.07-.05.13-.1.2-.15-.07.05-.13.1-.2.15m.21-.16c.06-.05.12-.1.19-.15-.07.05-.13.1-.19.15m.2-.16l.18-.15-.18.15m.2-.16c.06-.06.12-.11.18-.16-.06.05-.12.1-.18.16m.19-.17c.06-.05.13-.1.19-.15-.06.05-.13.1-.19.15m.2-.16c.06-.05.12-.1.18-.16-.06.06-.12.11-.18.16m.2-.17c.06-.05.11-.1.17-.15-.06.05-.11.1-.17.15m.19-.17l.18-.15-.18.15m.2-.16c.05-.05.11-.1.17-.15-.06.05-.12.1-.17.15m.19-.17c.06-.05.11-.1.17-.15-.06.05-.11.1-.17.15m.19-.17c.06-.05.11-.102.17-.15-.06.05-.11.1-.17.15m.19-.17c.06-.05.11-.11.17-.16-.06.06-.11.11-.17.16m.19-.18c.05-.04.11-.1.16-.14-.05.05-.11.09-.16.14m.19-.17c.05-.05.11-.1.16-.15-.05.05-.11.1-.16.15m.18-.17c.06-.05.11-.1.16-.15-.05.05-.1.1-.16.15m.19-.18c.06-.05.11-.1.17-.16-.06.06-.11.11-.17.16m.19-.17c.05-.05.1-.11.15-.16-.05.05-.1.11-.15.16m.18-.18l.16-.16c-.05.05-.11.1-.16.16m.18-.18l.18-.18c7.76-7.72 12.54-18.36 12.54-30.12 0 11.76-4.78 22.4-12.54 30.12l-.18.18m15.73-39.88C88.27 16.15 69.85.41 47.67.01v4c-.28 0-.56-.01-.85-.01V0c.29 0 .57.01.85.01 22.18.4 40.6 16.14 44.98 37.03M77.1 16.49l-.18-.18.18.18m-.19-.2c-.06-.05-.11-.11-.17-.16.05.05.11.11.17.16m-.19-.18c-.05-.05-.11-.1-.16-.16l.16.16m-.18-.17c-.06-.06-.11-.11-.17-.16.06.05.11.1.17.16m-.19-.19c-.06-.05-.11-.1-.16-.15.05.05.1.1.16.15m-.19-.17c-.05-.05-.11-.1-.16-.15.05.05.11.1.16.15m-.19-.18c-.05-.05-.11-.1-.16-.15.06.05.11.1.16.15m-.19-.17c-.05-.05-.1-.1-.16-.15.06.05.11.1.16.15m-.19-.18c-.05-.04-.1-.09-.16-.14.06.05.11.1.16.14m-.19-.17c-.05-.04-.11-.09-.16-.14.06.05.11.09.16.14m-.19-.17c-.05-.04-.11-.09-.16-.14.05.05.11.1.16.14m-.19-.16c-.06-.05-.11-.1-.16-.14.05.04.11.09.16.14m-.2-.17c-.05-.05-.1-.09-.16-.14.06.05.11.09.16.14m-.19-.17l-.16-.13.16.13m-.2-.16c-.05-.05-.1-.09-.16-.14.06.05.11.09.16.14m-.2-.17c-.05-.04-.1-.09-.15-.13.05.04.1.09.15.13m-.19-.16l-.16-.13c.05.04.11.08.16.13m-.2-.17c-.05-.04-.11-.08-.16-.12.05.04.11.08.16.12m-.2-.16c-.05-.04-.11-.08-.16-.12.06.04.11.08.16.12m-.2-.16c-.05-.04-.1-.08-.16-.12.06.04.11.08.16.12m-.21-.16c-.05-.03-.1-.07-.15-.11.05.04.1.08.15.11m-.2-.15l-.15-.12.15.12m-.2-.16c-.05-.04-.1-.07-.15-.11.05.04.1.07.15.11m-.2-.15c-.05-.04-.1-.08-.16-.12.06.04.11.08.16.12m-.21-.16c-.05-.03-.1-.07-.15-.11.05.04.1.08.15.11m-.21-.15c-.05-.03-.09-.07-.14-.11.05.04.1.08.14.11m-.2-.15c-.05-.03-.1-.07-.15-.11.05.04.1.08.15.11M71.8 12c-.05-.03-.1-.07-.15-.1.05.03.1.07.15.1m-.21-.15c-.05-.03-.1-.07-.15-.1.05.03.1.07.15.1m-.21-.14l-.14-.11.14.11m-.21-.15c-.05-.03-.09-.06-.14-.1.05.04.1.07.14.1m-.21-.14c-.05-.04-.09-.07-.14-.1.05.03.09.06.14.1m-.21-.15c-.04-.03-.09-.06-.13-.08.04.02.08.05.13.08m-.22-.14c-.04-.03-.08-.05-.12-.08.04.03.08.05.12.08m-.21-.14c-.04-.03-.08-.05-.12-.08.04.03.08.05.12.08m-.22-.14c-.03-.03-.07-.05-.1-.07.03.02.07.04.1.07m-.21-.14c-.03-.02-.07-.04-.1-.06.03.02.07.04.1.06m-.22-.14c-.02-.01-.05-.03-.07-.05.02.02.05.04.07.05m-.21-.13c-.02-.01-.03-.02-.04-.03.01.01.02.02.04.03"/><path fill="#C8C8C8" d="M47.67 93.21v-4c1.16-.02 2.32-.09 3.45-.2h.02l.22-.03h.05c.072-.01.14-.01.2-.02.03 0 .05-.01.08-.01.05-.01.11-.01.17-.02.03 0 .07-.01.1-.01.052-.01.1-.01.15-.02.04-.01.08-.01.122-.01.04-.01.09-.02.138-.02.04-.01.08-.01.13-.02.04 0 .08-.01.12-.02.05 0 .1-.01.142-.02.04 0 .08-.01.118-.01.052-.012.103-.02.15-.02.04-.012.07-.012.11-.02.05-.01.11-.01.16-.02.03-.01.06-.01.1-.02.06-.013.11-.02.17-.02.03-.013.06-.013.08-.022.07-.01.13-.02.19-.03.02 0 .05-.01.07-.01l.2-.03c.02-.01.04-.01.06-.01.07-.01.13-.03.2-.04.02 0 .04-.01.06-.01.07-.01.14-.02.21-.04.02 0 .03 0 .04-.01.08-.01.15-.02.23-.04h.03c.08-.02.16-.03.23-.05h.028c.08-.02.16-.04.24-.05.01 0 .01 0 .02-.01.09-.01.17-.03.25-.05h.01c6.51-1.37 12.48-4.21 17.542-8.16v-.01c.07-.05.13-.1.198-.15v-.01c.07-.05.132-.102.2-.15 0 0 0-.01.01-.01.06-.05.12-.102.19-.15 0-.01 0-.01.01-.01.062-.05.12-.1.18-.15.01-.01.01-.01.022-.01.06-.06.12-.11.18-.16.01 0 .01 0 .01-.01.06-.05.13-.1.19-.15l.01-.01c.06-.05.12-.1.18-.16.01 0 .01 0 .02-.01.06-.05.11-.1.17-.15.012 0 .022-.01.022-.02l.18-.15s.01-.01.02-.01c.05-.05.11-.1.17-.15 0-.01.01-.02.02-.02.06-.05.11-.1.17-.15.01-.01.01-.02.022-.02.06-.05.108-.1.17-.15 0-.01.01-.02.02-.02.06-.05.11-.1.17-.16.01 0 .01-.01.02-.02.05-.05.11-.09.16-.14l.03-.03c.05-.05.11-.1.16-.15l.02-.02c.06-.05.11-.1.16-.15l.03-.03c.06-.05.11-.1.17-.16 0 0 .01-.01.02-.01.05-.05.1-.11.15-.16.01 0 .02-.01.03-.02.05-.062.11-.11.16-.16.01-.01.02-.01.02-.02.06-.062.12-.12.18-.18C84.86 69.02 89.64 58.38 89.64 46.62c0-11.77-4.78-22.41-12.54-30.13l-.18-.18c0-.01-.01-.01-.01-.02-.06-.05-.12-.11-.17-.16l-.02-.02-.16-.16c-.01 0-.022-.01-.022-.01-.06-.06-.108-.11-.17-.16-.01-.01-.01-.02-.02-.03-.06-.05-.11-.1-.16-.15-.01-.01-.02-.01-.03-.02-.05-.05-.11-.1-.16-.15l-.03-.03c-.05-.05-.1-.1-.16-.15-.01 0-.02-.01-.03-.018-.05-.05-.098-.102-.16-.152l-.027-.03c-.05-.04-.1-.09-.16-.14l-.03-.03c-.05-.05-.1-.09-.16-.14l-.03-.03c-.05-.04-.108-.09-.16-.14-.01-.01-.02-.01-.028-.02-.05-.05-.11-.1-.16-.14-.01-.01-.03-.02-.04-.03-.05-.05-.1-.09-.16-.14l-.03-.032-.16-.13c-.01-.01-.03-.02-.04-.03-.05-.05-.1-.09-.16-.14-.01-.01-.02-.02-.04-.03-.05-.04-.1-.09-.15-.13-.02-.01-.03-.018-.04-.03-.05-.05-.108-.09-.16-.13-.01-.01-.028-.018-.038-.04-.052-.04-.11-.08-.16-.12l-.04-.04c-.05-.04-.102-.08-.16-.12-.01-.008-.03-.02-.04-.037-.05-.04-.1-.08-.16-.12-.01-.01-.03-.02-.05-.04-.053-.03-.105-.07-.154-.11-.01-.02-.03-.03-.05-.04l-.15-.12c-.02-.01-.03-.02-.05-.04-.05-.04-.1-.07-.15-.11-.02-.02-.04-.03-.05-.04-.05-.04-.1-.08-.16-.12-.01-.01-.03-.02-.05-.04-.05-.03-.1-.07-.15-.11-.02-.01-.04-.02-.06-.04-.04-.03-.09-.068-.14-.11-.02-.01-.04-.02-.06-.04-.052-.03-.1-.07-.15-.11-.02-.01-.04-.02-.06-.04-.05-.03-.102-.07-.15-.1-.02-.02-.04-.03-.06-.05-.052-.03-.1-.07-.15-.1-.02-.01-.04-.03-.062-.04l-.14-.11c-.02-.01-.05-.02-.07-.04-.04-.03-.09-.06-.14-.1-.02-.01-.05-.03-.07-.04-.05-.04-.09-.07-.14-.1-.02-.02-.05-.03-.07-.05-.05-.03-.09-.06-.13-.08-.028-.02-.06-.04-.09-.06-.04-.03-.08-.05-.12-.08l-.09-.06c-.04-.03-.08-.05-.12-.08-.03-.02-.06-.04-.1-.06-.03-.03-.07-.05-.1-.07-.04-.02-.07-.048-.11-.07-.03-.02-.07-.04-.1-.06-.04-.03-.08-.05-.12-.08-.02-.01-.05-.03-.07-.05-.05-.02-.1-.05-.14-.08-.02-.01-.03-.02-.04-.03-6.33-3.92-13.77-6.24-21.75-6.4v-4C69.85.41 88.27 16.15 92.65 37.04c.648 3.09.99 6.29.99 9.58 0 25.46-20.51 46.14-45.97 46.59"/><path fill="#D8D8D8" d="M68.23 73.87c-1.148 0-2.078-.93-2.078-2.08 0-6.37-5.392-12.31-9.92-16.17-3.802-3.24-7.66-5.61-9.41-6.62v-4.78.01c1.75-1.01 5.608-3.38 9.41-6.63 4.528-3.858 9.92-9.79 9.92-16.16 0-1.15.93-2.08 2.077-2.08 1.15 0 2.092.93 2.092 2.08 0 11.69-13.15 21.29-19.37 25.17C57.17 50.5 70.32 60.1 70.32 71.79c0 1.15-.943 2.08-2.093 2.08"/><path fill="#D8D8D8" d="M46.82 42.65v-3.36l5.398-.04c-3.03 2.15-5.398 3.4-5.398 3.4M54.48 37.57h-7.66v-2.6h10.7c-1.01.94-2.04 1.81-3.04 2.6M59.28 33.21H46.82V30.6h14.658c-.678.91-1.42 1.78-2.2 2.61M62.67 28.85H46.82v-2.61h17.2c-.37.9-.82 1.76-1.35 2.61M64.63 24.49H46.82v-2.61h18.25c-.05.88-.2 1.75-.44 2.61M46.82 54.1v-3.36s2.318 1.22 5.29 3.32l-5.29.04M57.52 58.43h-10.7v-2.61h7.66c1 .8 2.03 1.67 3.04 2.61M61.48 62.79H46.82v-2.6h12.46c.78.82 1.52 1.69 2.2 2.6M64.02 67.15h-17.2v-2.6h15.85c.53.84.98 1.71 1.35 2.6M65.07 71.51H46.82v-2.6h17.81c.24.85.39 1.72.44 2.6"/></svg>