<svg xmlns="http://www.w3.org/2000/svg" width="93.64" height="93.218" viewBox="0 0 93.64 93.218"><path fill="#66ADF0" d="M91.644 46.62c0 24.63-20.068 44.6-44.826 44.6C22.066 91.22 2 71.25 2 46.62 2 21.97 22.066 2 46.817 2c24.758 0 44.827 19.97 44.827 44.62"/><path fill="#FFF" d="M91.644 46.62H89.64c0 11.76-4.785 22.4-12.537 30.12-7.755 7.71-18.45 12.48-30.285 12.48-11.832 0-22.524-4.77-30.28-12.48C8.79 69.02 4 58.38 4 46.62 4 34.85 8.788 24.2 16.538 16.49 24.293 8.77 34.985 4 46.818 4 58.65 4 69.347 8.77 77.1 16.49c7.75 7.72 12.538 18.36 12.538 30.13h4.001C93.64 20.86 72.673 0 46.818 0 20.97 0 .002 20.86 0 46.62c.002 25.74 20.97 46.6 46.817 46.6 25.854 0 46.82-20.86 46.823-46.6h-1.996"/><path fill="#DEDEDE" d="M93.642 46.62h-4c0 11.76-4.787 22.4-12.54 30.12-7.568 7.53-17.936 12.25-29.43 12.47v4c25.46-.45 45.968-21.13 45.97-46.59M47.672.01v4c11.494.23 21.86 4.95 29.43 12.48 7.75 7.72 12.54 18.36 12.54 30.13h4c0-25.47-20.51-46.16-45.97-46.61"/><path fill="#FFF" d="M76.316 73.09L58.74 55.51l17.576-1.12"/><path fill="#FFF" d="M76.316 55.28c0 4.34-3.516 7.858-7.852 7.858H25.176c-4.336 0-7.854-3.52-7.854-7.86V31.12c0-4.34 3.518-7.85 7.854-7.85h43.29c4.335 0 7.85 3.51 7.85 7.85v24.16"/><path fill="#66ADF0" d="M39.115 50.17c-.257 1.58-1.293 2.55-3.04 2.55-1.583 0-2.133-1.32-2.23-2.39-.677.75-2.066 2.43-4.042 2.46-1.842 0-3.846-.942-3.846-3.69 0-4.068 6.594-3.68 7.76-3.75 0 0 .1-1.06.1-2.318 0-1.722-.712-3.012-2.75-3.012-1.36 0-2.038.74-2.2 1.39.878 0 .908.96.908 1.4 0 1.262-1.16 1.572-1.685 1.572-.807 0-1.55-.87-1.55-1.78 0-1 .84-1.78 1.486-2.26 1.164-.88 2.556-.9 3.332-.9 2.472 0 5.074 1.61 5.074 4.55 0 1.98-.132 3.92-.132 5.6 0 .94.066 2.1.974 2.1.84 0 1.097-.61 1.356-1.81l.485.288zm-5.398-4.37c-2.977.33-5.045.2-5.045 2.95 0 1.95 1.13 2.62 2.396 2.62 1.332 0 2.23-1.07 2.65-1.85V45.8zM48.75 52.82c-1.745 0-3.072-1.23-4.074-2.33-.71.78-.906 1.49-1.39 2.23-.185.04-.347.04-.48.04-.268 0-.425-.04-.425-.04.052-2.54.085-6.32.085-10.08 0-3.27-.027-6.53-.084-8.96 0-.45-1.26-.61-2.295-.68v-.39c2.238-.12 4.056-.53 4.95-.93l-.137 10.47c.908-1.23 2.01-2.68 4.173-2.68 2.98 0 5.564 1.87 5.564 6.56 0 4.3-3.104 6.79-5.883 6.79m-.39-12.38c-1.904 0-3.103 2.48-3.103 2.48l-.224 2.92.094 3.94s.78 1.88 2.94 1.88c2.104 0 3.593-2.4 3.593-5.73 0-2.23-.553-5.49-3.3-5.49M68.63 43.05c0 1.82-1.226 2.49-1.872 2.49-.582 0-1.778-.09-1.778-1.71 0-.93.662-1.64 1.326-1.64.55 0 .774.15 1.065.42-.225-.91-.84-2.662-3.718-2.662-2.035 0-3.587 2.81-3.587 6.53 0 2.652 1.586 5.43 3.88 5.43 2.844 0 3.49-2.16 3.846-3.128l.874.607c-.42 1.04-1.938 3.592-5.012 3.592-3.845 0-6.434-2.333-6.434-7.112 0-4.82 4.074-6.47 6.5-6.47 2.233 0 4.913 1.492 4.913 3.65"/><path fill="#5A9CD1" d="M47.67 89.21V63.14h18.7l9.946 9.95V31.12c0-4.34-3.515-7.85-7.85-7.85H47.67V4.01h.002c10.058.2 19.253 3.84 26.464 9.79h.002c.063.05.127.11.19.16h.002c.063.05.127.11.19.16h.002c.063.06.125.11.187.16 0 0 .003 0 .006.01l.184.15c0 .01.003.01.005.01.062.05.123.11.184.16h.006c.062.06.12.11.18.16.003.01.005.01.007.01.062.05.12.11.185.16.062.06.122.11.184.17 0 0 .005 0 .007.01.06.05.117.1.177.16.002 0 .01 0 .01.01.06.05.115.1.175.16.004 0 .01.01.015.01.058.05.112.11.168.16.004 0 .008.01.015.01.055.05.112.11.168.16.004 0 .01.01.014.01.056.06.11.11.166.16l.033.03.148.15c.01.01.02.01.03.02l.15.15.178.18c7.75 7.72 12.54 18.36 12.54 30.13 0 11.76-4.788 22.4-12.54 30.12-.118.12-.235.23-.354.35h-.002c-.055.05-.104.1-.158.15l-.024.03c-.055.05-.112.1-.17.16-.002 0-.006 0-.01.01-.056.05-.113.1-.168.16-.007 0-.01.01-.015.01-.056.05-.113.11-.17.16-.006 0-.01.012-.013.012-.06.05-.118.107-.174.158-.004 0-.01.01-.01.01-.058.05-.113.1-.17.148-.005.012-.013.012-.018.02-.057.052-.116.103-.174.163-.004 0-.006 0-.01.01l-.173.15c-.006 0-.012.01-.017.01l-.17.15c-.006.01-.014.02-.02.02-.058.05-.11.1-.167.15-.01 0-.017.01-.023.02-.058.04-.112.09-.168.14-.01.01-.018.01-.025.02-.054.05-.108.09-.166.14-.01.01-.018.02-.025.02-.056.052-.112.1-.168.142-.01.01-.017.02-.026.02-.053.05-.106.1-.16.14l-.034.03c-.055.04-.108.092-.164.13-.008.01-.02.02-.028.028-.056.04-.11.092-.164.133-.01.01-.022.02-.034.02-.052.05-.107.09-.164.14-.01 0-.02.01-.03.02-.056.05-.11.09-.163.13l-.038.03c-.055.04-.108.08-.16.13-.014.01-.027.02-.038.02-.054.05-.106.088-.16.127-.014.012-.028.02-.04.03-.054.042-.107.08-.162.122-.013.01-.025.02-.04.03-.05.04-.103.08-.157.12-.015.01-.03.02-.045.04-.054.04-.106.08-.16.108l-.04.03-.16.12c-.015.01-.03.03-.046.04-.053.03-.104.07-.157.108-.017.012-.033.02-.05.04-.05.032-.104.07-.15.112-.022.01-.04.02-.06.04-.05.03-.1.07-.15.1-.02.02-.036.03-.053.04-.052.04-.1.07-.15.11-.022.01-.043.03-.064.04-.05.03-.096.07-.145.1-.023.02-.046.03-.068.05l-.14.09c-.022.02-.047.028-.073.05l-.138.09c-.027.02-.05.04-.074.05-.047.03-.094.06-.138.09l-.084.06c-.043.03-.084.05-.127.08-.032.02-.063.042-.096.06-.037.03-.076.05-.115.08l-.1.06c-.04.03-.076.052-.115.08-.037.02-.076.04-.113.07l-.098.062-.15.09c-.022.02-.044.03-.065.05-4.667 2.89-9.936 4.92-15.578 5.86h-.017c-.08.01-.162.02-.242.04h-.028c-.076.01-.15.03-.226.04h-.05c-.07.01-.14.02-.21.04h-.057c-.07.01-.136.02-.203.028-.022.01-.045.01-.067.01-.063.012-.13.02-.192.03-.024 0-.05 0-.075.01-.06.01-.12.01-.18.02-.03.01-.062.01-.095.01-.054.01-.106.022-.162.022-.035.01-.07.01-.104.02-.05 0-.1.01-.147.01-.043.01-.086.01-.13.02-.038 0-.077.01-.116.01-.052.01-.102.01-.152.02-.03 0-.062 0-.093.01-.062 0-.123.01-.184.02h-.057c-.07.01-.142.022-.21.022-.012 0-.024 0-.034.008-1.048.09-2.11.15-3.178.17h-.002"/><path fill="#D8D8D8" d="M47.67 89.21h.002v4h-.002v-4zm3.18-.17c.01-.01.02-.01.03-.01-.01 0-.02 0-.03.01m.242-.03h.06-.06m.242-.02c.032-.01.062-.01.092-.01-.03 0-.062 0-.092.01m.246-.03c.04 0 .078-.01.118-.01-.04 0-.08.01-.118.01m.246-.03c.05 0 .098-.01.147-.01-.05 0-.098.01-.147.01m.252-.032c.055 0 .108-.01.163-.018-.053.01-.107.018-.162.018m.258-.03c.06-.01.12-.01.178-.02-.06.01-.118.01-.178.02m.254-.028l.193-.03-.193.03m.26-.04l.203-.03-.202.03m.26-.03c.07-.02.14-.03.21-.04-.07.01-.14.02-.21.04m.26-.04c.074-.01.148-.03.224-.04-.075.01-.15.03-.225.04m.253-.04c.08-.02.162-.03.243-.04-.08.01-.163.02-.243.04m.258-.04c5.645-.94 10.913-2.97 15.58-5.86-4.667 2.89-9.936 4.92-15.58 5.86m15.646-5.91l.15-.09-.15.09m.248-.15c.037-.03.076-.05.112-.07-.035.02-.074.04-.112.07m.228-.15l.1-.06-.1.06m.215-.14l.097-.06-.097.06m.223-.14c.026-.02.056-.04.084-.06l-.084.06m.222-.15c.022-.01.047-.03.07-.05-.023.02-.045.04-.07.05m.207-.14c.025-.022.05-.03.074-.05-.024.02-.048.028-.075.05m.212-.14c.022-.02.045-.03.07-.05-.025.02-.048.03-.07.05m.213-.15c.02-.01.04-.03.063-.04-.022.01-.043.03-.063.04m.213-.15c.02-.01.035-.02.054-.04-.017.02-.036.03-.054.04m.205-.14c.02-.02.037-.03.058-.04-.02.01-.037.02-.057.04m.21-.15c.016-.02.032-.03.048-.042-.015.01-.032.02-.048.04m.207-.148c.014-.012.03-.03.044-.04-.014.01-.03.02-.045.04m.204-.16l.04-.03c-.012.01-.025.02-.04.03m.2-.14c.015-.02.03-.03.046-.042-.015.012-.03.022-.045.04m.204-.157c.012-.01.023-.02.038-.03l-.04.03m.2-.15l.04-.032-.04.033m.2-.16c.014 0 .026-.01.038-.02-.012.01-.025.02-.037.02m.198-.15c.013-.012.026-.02.037-.03-.01.01-.024.02-.037.03m.2-.16c.01-.012.02-.02.03-.02-.008 0-.02.008-.03.02m.195-.16c.01 0 .022-.01.033-.02-.012.01-.022.02-.033.02m.197-.152l.03-.027-.03.028m.193-.16c.012-.01.022-.02.034-.028l-.034.03m.196-.17c.008 0 .016-.01.023-.02-.007.01-.015.02-.024.02m.192-.16c.01 0 .02-.01.025-.02-.01.01-.016.02-.025.02m.19-.16c.01-.01.017-.01.025-.02-.008.01-.016.01-.024.02m.193-.16c.008-.01.015-.02.022-.02-.008 0-.015.01-.022.02m.188-.17c.006 0 .015-.01.02-.02-.005.01-.014.02-.02.02m.19-.17c.006 0 .01-.01.017-.01-.005 0-.01.01-.016.01m.19-.16c.003-.01.005-.01.01-.01-.005 0-.007 0-.01.01m.183-.17c.006-.01.013-.01.02-.022-.007.01-.014.02-.02.02m.187-.17c.002 0 .006-.01.01-.01-.004 0-.008.01-.01.01m.185-.167c.003 0 .007-.01.013-.01-.007 0-.01.01-.014.01m.18-.17c.005 0 .01-.01.015-.01-.006 0-.01.01-.014.01m.183-.17c.004-.01.01-.01.01-.01-.004 0-.006 0-.01.01m.18-.17c.01-.01.017-.02.024-.03-.007.01-.014.02-.024.03m.183-.18h.002-.002M92.65 37.04C88.27 16.15 69.85.41 47.673.01v4h-.002v-4h.002c22.177.4 40.597 16.14 44.98 37.03M77.1 16.49l-.178-.18.18.18m-.33-.33c-.01-.01-.02-.01-.03-.02.01.01.02.01.03.02m-.178-.17l-.032-.03.032.03m-.2-.19c-.003 0-.01-.01-.014-.01.005 0 .012.01.015.01m-.182-.17c-.006 0-.01-.01-.014-.01.005 0 .01.01.015.01m-.182-.17c-.005 0-.01-.01-.015-.01.004 0 .01.01.015.01m-.19-.17c0-.01-.007-.01-.01-.01.005 0 .007 0 .01.01m-.186-.17c-.002-.01-.006-.01-.008-.01 0 0 .005 0 .007.01M75.282 14.78c-.002 0-.004 0-.006-.01.002.01.004.01.006.01m-.188-.17h-.006.006m-.19-.16s-.003 0-.005-.01c0 .01.003.01.005.01m-.19-.16c-.002-.01-.004-.01-.006-.01 0 0 .003 0 .005.01m-.193-.17h-.002.002m-.192-.16h-.002.002m-.193-.16h-.002.002"/><path fill="#C8C8C8" d="M47.673 93.21v-4c1.067-.02 2.13-.08 3.176-.17.01-.01.02-.01.032-.01.07 0 .14-.01.21-.02h.06c.06-.01.12-.02.183-.02.03-.01.062-.01.093-.01.05-.012.1-.012.153-.02.04 0 .08-.01.118-.01.043-.01.086-.01.13-.02.048 0 .096-.01.146-.01.035-.01.07-.01.104-.02.056 0 .108-.013.162-.022.032 0 .065 0 .096-.01.06-.01.12-.01.18-.02.023-.01.05-.01.075-.01l.193-.03c.022 0 .045 0 .067-.01l.203-.03h.056c.07-.02.14-.03.21-.04h.05c.073-.01.148-.03.225-.04h.028c.08-.02.162-.03.242-.04h.017c5.643-.94 10.91-2.97 15.58-5.86.02-.02.042-.03.064-.05l.15-.09.098-.06c.037-.03.076-.05.113-.07.04-.03.075-.05.114-.08l.102-.06c.04-.03.078-.05.115-.08l.096-.06c.043-.03.084-.05.127-.08.03-.02.056-.04.084-.06.044-.03.09-.062.138-.09.024-.01.047-.03.07-.052l.137-.09c.025-.02.05-.03.073-.05l.14-.09c.02-.02.044-.03.068-.05.05-.03.096-.07.145-.1.02-.01.04-.03.063-.04.05-.04.1-.07.15-.11.018-.01.036-.02.053-.04.05-.03.102-.07.152-.1.02-.02.037-.03.058-.04.048-.04.1-.08.152-.11.016-.02.032-.03.05-.042.052-.04.103-.078.156-.107.015-.02.03-.03.046-.04l.16-.12.04-.03c.054-.03.106-.07.16-.11.015-.02.03-.03.045-.04l.157-.118c.014-.013.026-.022.04-.032l.16-.12c.015-.01.027-.02.04-.032.055-.04.107-.078.16-.127.013 0 .025-.013.038-.022.053-.05.106-.09.16-.13l.038-.03c.054-.04.108-.08.162-.13.01-.01.022-.02.03-.02.058-.05.113-.09.166-.14.012 0 .022-.01.034-.02.054-.04.108-.09.164-.132.01-.008.02-.018.028-.027.056-.04.11-.093.164-.132.013-.01.022-.02.033-.03.055-.04.108-.09.162-.14.01 0 .018-.01.026-.02.058-.04.113-.09.17-.14.007 0 .014-.01.023-.02.058-.052.112-.09.166-.142.007-.01.016-.01.023-.02.056-.05.11-.1.168-.14.008-.01.016-.02.023-.02l.166-.15c.006 0 .014-.01.02-.02.056-.052.113-.1.17-.15.005 0 .01-.01.017-.01.058-.052.115-.1.172-.15.004-.01.006-.01.01-.01.058-.06.117-.11.174-.16.005 0 .013-.01.02-.022l.167-.148c.003 0 .008-.01.012-.01.057-.05.114-.11.174-.158.004 0 .008-.012.013-.012.056-.05.113-.11.17-.16.003 0 .007-.01.014-.01.055-.06.112-.11.168-.16.004-.01.006-.01.01-.01.058-.06.115-.11.17-.16.01-.01.017-.02.024-.03l.158-.15h.002c.12-.12.236-.23.354-.35 7.752-7.72 12.54-18.36 12.54-30.12 0-11.77-4.79-22.41-12.54-30.13l-.178-.18c-.052-.05-.1-.1-.15-.15-.01-.01-.02-.01-.03-.02-.05-.05-.1-.1-.147-.15-.013-.01-.022-.02-.033-.03-.055-.05-.11-.1-.166-.16-.004 0-.01-.01-.014-.01-.056-.05-.113-.11-.168-.16-.007 0-.01-.01-.015-.01-.057-.05-.11-.11-.17-.16-.005 0-.01-.01-.014-.01-.06-.06-.116-.11-.174-.16-.004-.01-.007-.01-.01-.01-.06-.06-.117-.11-.18-.16 0-.01-.004-.01-.006-.01-.062-.06-.122-.11-.184-.17-.063-.05-.123-.11-.185-.16-.002 0-.004 0-.005-.01-.06-.05-.12-.1-.182-.16h-.007c-.06-.05-.122-.11-.184-.16-.003 0-.004 0-.006-.01l-.184-.15c-.003-.01-.005-.01-.007-.01-.062-.05-.123-.1-.187-.16h-.002c-.063-.05-.127-.11-.19-.16h-.002c-.063-.05-.127-.11-.19-.16h-.002c-7.21-5.95-16.406-9.59-26.463-9.79v-4C69.85.41 88.27 16.15 92.65 37.04c.65 3.09.99 6.29.99 9.58 0 25.46-20.508 46.14-45.967 46.59"/><path fill="#D8D8D8" d="M76.316 73.09l-9.944-9.95h2.093c4.336 0 7.852-3.52 7.852-7.858V73.09"/><path fill="#D8D8D8" d="M68.465 63.14H47.672V52.66c.338.1.7.16 1.08.16 2.777 0 5.883-2.49 5.883-6.79 0-4.69-2.586-6.56-5.564-6.56-.523 0-.986.08-1.398.23V23.27h20.794c4.336 0 7.852 3.51 7.852 7.85v24.16c-.002 4.34-3.517 7.86-7.853 7.86M63.72 39.4c-2.426 0-6.5 1.65-6.5 6.47 0 4.78 2.587 7.11 6.433 7.11 3.072 0 4.593-2.55 5.013-3.59l-.873-.608c-.356.97-1.002 3.13-3.847 3.13-2.295 0-3.88-2.782-3.88-5.43 0-3.72 1.553-6.532 3.587-6.532 2.88 0 3.492 1.75 3.72 2.66-.29-.27-.517-.42-1.067-.42-.664 0-1.326.712-1.326 1.642 0 1.62 1.197 1.71 1.78 1.71.645 0 1.872-.67 1.872-2.49 0-2.16-2.68-3.652-4.913-3.652M48.067 51.66c-.14 0-.27-.01-.397-.03V40.55c.217-.07.448-.11.69-.11 2.747 0 3.3 3.26 3.3 5.49 0 3.33-1.487 5.73-3.592 5.73"/><path fill="#8CB0D1" d="M48.75 52.82c-.38 0-.74-.06-1.08-.16v-1.03c.128.02.26.03.398.03 2.104 0 3.592-2.4 3.592-5.73 0-2.23-.553-5.49-3.3-5.49-.243 0-.473.04-.69.11v-.85c.412-.15.876-.23 1.4-.23 2.98 0 5.565 1.87 5.565 6.562 0 4.298-3.106 6.788-5.885 6.788M63.652 52.98c-3.846 0-6.434-2.332-6.434-7.11 0-4.82 4.075-6.47 6.5-6.47 2.233 0 4.913 1.49 4.913 3.65 0 1.82-1.227 2.49-1.873 2.49-.582 0-1.78-.09-1.78-1.71 0-.93.663-1.64 1.327-1.64.55 0 .776.15 1.067.42-.227-.91-.84-2.66-3.72-2.66-2.033 0-3.587 2.81-3.587 6.53 0 2.65 1.586 5.43 3.88 5.43 2.846 0 3.49-2.16 3.848-3.132l.874.61c-.42 1.042-1.94 3.592-5.012 3.592"/></svg>