<svg xmlns="http://www.w3.org/2000/svg" width="93.64" height="93.218" viewBox="0 0 93.64 93.218"><path fill="#A8A3F0" d="M91.644 46.62c0 24.63-20.067 44.6-44.826 44.6C22.068 91.22 2 71.25 2 46.62 2 21.97 22.067 2 46.817 2c24.76 0 44.827 19.97 44.827 44.62"/><path fill="#FFF" d="M91.644 46.62h-2c-.002 11.76-4.79 22.4-12.54 30.12-7.755 7.71-18.448 12.48-30.286 12.48-11.832 0-22.524-4.77-30.278-12.48C8.79 69.02 4.002 58.38 4 46.62c.002-11.77 4.79-22.418 12.54-30.13C24.292 8.77 34.984 4 46.816 4c11.838 0 22.53 4.77 30.287 12.49 7.75 7.71 12.537 18.36 12.54 30.13h3.998C93.642 20.86 72.674 0 46.817 0 20.97 0 .002 20.86 0 46.62c.002 25.74 20.97 46.6 46.817 46.6 25.856 0 46.824-20.86 46.824-46.6h-1.996"/><path fill="#DEDEDE" d="M93.643 46.62h-3.998c-.002 11.76-4.79 22.4-12.54 30.12-7.568 7.53-17.936 12.25-29.432 12.47v4c25.46-.45 45.97-21.13 45.97-46.59M47.673.01v4c11.496.23 21.863 4.95 29.433 12.48 7.75 7.71 12.537 18.36 12.54 30.13h3.997c0-25.47-20.51-46.15-45.97-46.61"/><path fill="#FFF" d="M22.075 65.1H75.33v3.12H22.076zM55.465 22.04v41.05c0 .33.926.59 2.07.59h9.66c1.138 0 2.07-.26 2.07-.59V22.04c0-.33-.933-.59-2.07-.59h-9.66c-1.144 0-2.07.26-2.07.59m1.32 35.49l.15-.24h10.333l.15.24v1.14l-.15.24H56.935l-.148-.24v-1.14m0-25.06l.147-.237h10.334l.15.238v1.14l-.15.25H56.935l-.148-.25v-1.14m0-5.01l.147-.24h10.334l.15.24v1.14l-.15.24H56.935l-.148-.24v-1.14M39.938 22.04v41.05c0 .33.926.59 2.067.59h9.664c1.138 0 2.068-.26 2.068-.59V22.04c0-.33-.93-.59-2.07-.59h-9.663c-1.142 0-2.067.26-2.067.59m1.32 35.49l.148-.24H51.74l.15.24v1.14l-.15.24H41.407l-.15-.24v-1.14m0-25.06l.15-.237H51.74l.15.238v1.14l-.15.25H41.407l-.15-.25v-1.14m0-5.01l.15-.24H51.74l.15.24v1.14l-.15.24H41.407l-.15-.24v-1.14M23.428 22.04v41.05c0 .33.925.59 2.07.59h9.66c1.14 0 2.07-.26 2.07-.59V22.04c0-.33-.93-.59-2.07-.59H25.5c-1.145 0-2.07.26-2.07.59m1.32 35.49l.15-.24H35.23l.15.24v1.14l-.15.24H24.898l-.148-.24v-1.14zm0-25.06l.15-.237H35.23l.15.238v1.14l-.15.25H24.898l-.148-.25v-1.14zm0-5.01l.15-.24H35.23l.15.24v1.14l-.15.24H24.898l-.148-.24v-1.14z"/><path fill="#FFF" d="M74.462 67.78v-.77H19.184c-.125 0-.246.09-.334.23-.087.14-.136.34-.136.54v3.24c0 .2.05.4.136.54.088.14.21.22.334.22h55.278c.123 0 .244-.08.332-.22.086-.14.135-.34.135-.54v-3.24c0-.2-.05-.4-.136-.54-.088-.14-.21-.23-.332-.23v.77h-.47v2.48H19.65v-1.72h54.81v-.76h-.47.47"/><path fill="#8585C1" d="M47.513 89.22V71.78h26.95c.122 0 .243-.08.332-.22.085-.14.135-.34.135-.54v-2.8h.4V65.1H47.514v-1.42h4.156c1.138 0 2.07-.26 2.07-.59V22.042c0-.33-.933-.59-2.07-.59h-4.157V4.01h.16c5.115.1 10.007 1.09 14.525 2.818.006.01.014.01.02.01.068.03.137.05.208.08.01.01.024.01.036.02.063.022.127.05.19.07.02.01.034.01.052.022.06.03.123.05.184.068l.055.03c.06.02.117.04.178.07l.065.03.164.06c.024.01.05.02.076.04l.155.06c.028.01.057.02.083.04l.15.06c.03.01.06.03.088.042l.145.06c.032.01.063.03.097.04l.133.06c.035.02.07.03.106.05l.128.06c.034.01.07.03.108.05.04.01.082.03.123.05.036.02.073.04.11.05.04.022.08.04.12.062.038.02.078.04.117.05l.11.06.127.06c.033.01.066.03.1.04.046.03.092.05.137.07.033.02.064.03.097.05.047.02.094.04.14.07.028.01.058.02.086.04.05.02.1.05.153.07.023.02.05.03.072.04.055.03.11.06.162.08.02.01.043.02.066.04.057.02.113.05.17.08l.055.03c.064.03.122.06.183.1.016 0 .03.01.045.02.063.03.125.07.188.1.014.01.026.01.04.022.067.04.134.07.202.108.006 0 .014.01.02.01l.214.12h.012c1.66.91 3.255 1.932 4.77 3.052h.005l.202.15h.002l.203.15c.002 0 .002.01.004.01.068.048.136.1.2.15h.006c.066.048.133.1.198.147 0 .01.005.01.007.01.066.05.13.102.194.15.004 0 .008.01.012.01.064.05.127.102.19.15.003 0 .008 0 .012.01l.187.15c.006 0 .01 0 .016.01l.183.15c.006 0 .012.01.018.01l.186.15c.003 0 .007.01.013.01.06.05.12.1.183.15.005.01.01.01.014.01.063.05.122.11.184.16.005 0 .01 0 .015.01l.18.15c.006.01.01.01.018.01.06.06.117.11.177.16.006 0 .01.01.017.01.06.05.12.1.178.16.006 0 .01 0 .016.01l.176.15c.005.01.01.01.02.02l.17.15c.007.01.014.01.02.02l.17.15c.006.01.014.01.02.02.06.05.115.1.172.16.007 0 .013.01.018.01.057.05.115.11.172.16.006.01.012.01.016.01.058.06.113.11.17.16.007.01.013.01.018.02.057.05.113.11.168.16.006 0 .014.01.02.01.058.06.115.12.175.17.003 0 .006.01.01.01.058.062.116.11.175.172.002 0 .004.01.008.01.058.05.11.11.168.16.006.01.012.01.017.02l.18.18c7.75 7.71 12.538 18.36 12.54 30.13-.01 11.756-4.8 22.395-12.55 30.115-.104.11-.214.21-.32.32l-.036.03c-.05.05-.1.1-.148.14-.012.01-.022.03-.034.04-.056.05-.11.1-.17.16-.002 0-.006 0-.01.01-.057.05-.115.11-.17.16-.005 0-.008.01-.012.01-.057.05-.114.11-.172.16-.004 0-.008.01-.012.01-.06.06-.12.11-.18.17h-.003c-.06.05-.12.11-.18.16 0 0-.003.01-.007.01-.12.11-.244.22-.37.33-.063.06-.125.11-.187.17-.064.05-.126.11-.19.16-2.65 2.29-5.58 4.26-8.74 5.86h-.01c-.07.04-.14.07-.21.11-.008 0-.014 0-.02.01-.068.03-.133.06-.2.1-.01 0-.02.01-.032.01-.063.03-.13.07-.192.1-.014 0-.025.01-.035.01-.064.03-.126.062-.19.09l-.044.03c-.062.02-.122.05-.182.08-.02.01-.036.02-.052.02l-.174.09c-.02.01-.04.01-.062.02-.058.03-.114.062-.17.08l-.063.03c-.055.03-.11.05-.166.07-.023.02-.048.03-.073.04-.053.02-.104.04-.155.07l-.078.03c-.052.02-.104.05-.155.07-.028.01-.058.02-.087.04l-.15.06-.082.03c-.05.028-.1.05-.15.07-.032.01-.06.02-.09.038l-.145.06c-.03.01-.063.02-.094.042-.045.01-.093.03-.142.05-.033.02-.068.03-.104.04l-.133.06c-.034.01-.07.03-.104.04-.043.02-.09.04-.135.05-.036.02-.07.03-.108.05-.043.01-.084.03-.127.04-.04.02-.078.03-.117.05-.04.02-.082.03-.123.05-.04.01-.08.03-.123.04-.04.02-.08.03-.12.05-.04.01-.082.03-.124.04-.04.02-.078.03-.117.05-.042.01-.087.03-.13.04-.037.02-.074.03-.11.04-.05.02-.1.04-.147.052-.032.02-.063.03-.095.04-.055.02-.108.038-.164.05l-.08.03c-.06.02-.113.038-.17.06l-.075.03-.204.06c-.015.01-.028.01-.04.02-.748.24-1.503.47-2.268.68h-.012l-.24.06c-.01 0-.02.01-.03.01-.073.02-.15.04-.222.062-.016 0-.03.008-.043.008-.07.02-.142.03-.214.05-.014.01-.027.01-.043.01-.07.022-.14.042-.21.062-.018 0-.034 0-.052.01-.065.012-.134.03-.204.05-.018 0-.037.01-.056.01-.067.02-.134.03-.2.052-.02 0-.04.01-.06.01-.067.02-.132.03-.197.04-.02.01-.04.01-.063.02-.063.01-.13.03-.193.04-.023.01-.047.01-.07.02-.06.01-.122.02-.184.04-.027 0-.055.01-.082.01-.058.01-.114.03-.173.04-.03 0-.062.01-.092.02l-.168.03c-.03.01-.06.01-.09.02-.057.01-.113.02-.17.028-.03.012-.06.012-.094.02l-.163.03c-.033.01-.067.01-.1.02-.054.012-.105.02-.157.03-.037 0-.073.01-.108.02-.05.01-.1.01-.153.02-.035.01-.072.02-.11.02-.048.013-.1.022-.147.03-.04 0-.08.012-.12.02-.044 0-.09.01-.137.02-.04.01-.084.01-.125.022-.044.01-.09.01-.133.02-.046.01-.09.01-.136.02-.04.01-.082.01-.123.02-.046 0-.093.01-.14.02-.04 0-.08.01-.12.02-.05 0-.098.01-.148.02-.035 0-.07.01-.106.01-.053.01-.107.02-.162.02-.03.01-.062.01-.094.01-.057.013-.117.022-.174.032-.03 0-.055 0-.08.01-.063 0-.124.01-.186.02-.024 0-.05 0-.072.01-.068.01-.133.01-.2.02-.015 0-.03 0-.044.012-.076 0-.15.01-.225.02h-.025c-1.224.13-2.46.21-3.712.23-.053-.01-.108 0-.16 0m10.02-67.77c-1.144 0-2.068.262-2.068.592V63.09c0 .33.925.59 2.07.59h9.66c1.138 0 2.07-.26 2.07-.59V22.042c0-.33-.933-.59-2.07-.59h-9.66"/><path fill="#D8D8D8" d="M47.513 93.22v-4c.054 0 .106-.01.16-.01v4c-.054 0-.107.01-.16.01m12.115-1.76c.008-.01.018-.01.027-.01-.01 0-.017 0-.027.01m.14-.04c.01-.01.02-.01.03-.01-.012 0-.02 0-.03.01m.132-.04c.013-.01.028-.01.043-.01-.014 0-.028 0-.043.01m.136-.04c.018-.01.038-.01.057-.02-.018.01-.04.01-.057.02m.13-.04c.023-.01.043-.01.066-.02-.023.01-.043.01-.065.02m.14-.04c.023-.01.044-.01.065-.02-.02.01-.043.01-.064.02m.13-.04l.08-.03-.08.03m.136-.04l.094-.03-.094.03m.128-.04l.105-.03-.105.03m.137-.04c.036-.02.075-.03.112-.04-.038.01-.076.02-.113.04m.13-.04c.037-.02.076-.028.113-.04-.04.01-.074.02-.113.04m.14-.05c.038-.01.074-.02.113-.04-.038.02-.075.03-.114.04m.13-.04c.04-.01.078-.03.117-.04-.04.01-.077.03-.116.04m.138-.05c17.108-5.56 29.88-20.67 31.965-39.01-2.082 18.34-14.855 33.45-31.965 39.01m-9.994-1.94h.025-.026m.25-.02c.015-.01.028-.01.043-.01-.015 0-.03 0-.043.01m.243-.03c.025-.01.048-.01.073-.01-.023 0-.048 0-.073.01m.257-.03c.027-.01.053-.01.082-.01-.03 0-.055 0-.082.01m.256-.04c.03 0 .063 0 .095-.01-.033.01-.062.01-.095.01m.256-.03c.035 0 .07-.01.105-.01-.032 0-.07.01-.104.01m.256-.03c.04-.01.077-.02.118-.02-.04 0-.08.01-.118.02m.26-.04c.04-.01.08-.01.122-.02-.04.01-.083.01-.123.02m.26-.04c.044-.01.09-.01.132-.02-.045.01-.088.01-.133.02m.257-.04c.047-.01.094-.02.14-.02-.046 0-.093.01-.14.02m.258-.04l.148-.03-.148.03m.258-.05c.05-.01.1-.01.15-.02-.05.01-.1.01-.15.02m.26-.04l.158-.03-.157.03m.257-.05l.164-.03-.164.03m.258-.05l.17-.03-.17.03m.26-.05l.168-.03-.168.03m.26-.048c.058-.012.114-.03.173-.04-.057.008-.114.028-.172.04m.254-.05c.062-.02.124-.032.185-.042-.06.01-.123.02-.185.04m.255-.06c.064-.01.13-.03.194-.04-.063.01-.128.03-.193.04m.256-.06c.067-.01.13-.02.197-.04-.066.02-.132.03-.197.04m.258-.05c.067-.02.134-.03.2-.05-.066.02-.132.03-.2.05m.257-.06c.07-.02.14-.04.205-.05-.068.01-.135.03-.205.05m.256-.06l.21-.06-.21.06m.254-.07c.07-.02.144-.03.215-.05-.07.02-.143.03-.215.05m.257-.06l.223-.06-.223.06m.252-.07l.24-.06-.24.06m.252-.06c.764-.21 1.52-.44 2.266-.68-.746.24-1.502.47-2.266.68m2.307-.7l.203-.06-.203.06m.278-.09l.17-.06-.17.06m.25-.09c.056-.01.11-.03.165-.05-.054.02-.11.04-.164.05m.258-.09c.05-.01.098-.03.147-.05-.05.02-.1.04-.148.05m.258-.09c.043-.01.088-.03.13-.04-.042.01-.087.03-.13.04m.248-.09c.04-.01.084-.03.125-.04-.04.01-.082.03-.125.04m.244-.09c.04-.01.082-.03.123-.04-.04.01-.082.03-.123.04m.245-.09c.04-.02.078-.03.117-.05-.04.02-.078.03-.117.05m.244-.09c.04-.02.075-.03.112-.05-.037.02-.073.03-.11.05m.245-.1c.035-.01.07-.03.104-.04-.033.01-.068.03-.103.04m.237-.1c.035-.01.07-.02.104-.04-.033.02-.068.03-.104.04m.247-.09c.032-.02.063-.03.096-.04-.034.01-.064.02-.095.04m.24-.1c.03-.02.06-.03.09-.04-.03.01-.06.02-.09.04m.24-.11l.083-.03-.082.03m.234-.09c.028-.02.057-.03.086-.04-.03.01-.057.02-.086.04m.24-.11l.078-.03-.078.03m.234-.1c.026-.01.05-.02.075-.04-.026.02-.05.03-.075.04m.24-.11l.063-.03-.06.03m.23-.11c.022-.01.042-.01.064-.02-.022.01-.042.01-.063.02m.236-.11c.017 0 .035-.01.052-.02-.016.01-.035.02-.052.02m.233-.1c.014-.01.028-.02.045-.03l-.046.03m.234-.12c.01 0 .022-.01.034-.01-.012 0-.024.01-.034.01m.23-.11c.01 0 .02-.01.03-.01-.01 0-.02.01-.03.01m.23-.11c.007-.01.013-.01.02-.01-.007 0-.013 0-.02.01m.23-.12h.01-.01m9.126-6.19h.003-.003m.372-.33c.003 0 .005-.01.007-.01-.003 0-.005.01-.008.01m.185-.17h.004-.003m.184-.17c.006 0 .01-.01.013-.01-.006 0-.008.01-.012.01m.184-.17c.003 0 .006-.01.01-.01-.004 0-.007.01-.01.01m.182-.17c.004-.01.008-.01.01-.01-.002 0-.006 0-.01.01m.18-.17c.01-.01.02-.03.032-.04-.01.01-.02.02-.032.04m.18-.18l.037-.03-.037.03m16.597-25.18c.012-.1.023-.19.032-.29-.01.1-.02.19-.032.29m.033-.29l.03-.29-.03.29m.03-.3l.015-.13-.013.13m.014-.14l.013-.13-.012.13m.015-.15l.014-.13c-.007.04-.01.08-.015.13m.015-.15l.01-.12-.01.12m.014-.15l.008-.12-.008.12m.012-.15l.01-.12c-.004.04-.008.08-.01.12m.012-.15l.01-.11-.01.11m.01-.14l.01-.12-.01.12m.013-.16c.005-.028.007-.06.01-.1l-.01.1m.013-.14l.007-.11-.007.11m.01-.16l.006-.09-.007.09m.01-.14c0-.04.003-.07.007-.1-.002.03-.006.06-.008.1m.01-.15l.006-.1-.006.1m.01-.15c.003-.03.005-.07.005-.1l-.005.1m.008-.14l.005-.1c0 .03-.003.06-.005.1m.007-.16l.005-.09c0 .03-.003.06-.005.09m.008-.16c.002-.02.004-.05.004-.08 0 .03-.003.06-.005.08m.008-.15l.004-.07-.004.07m.008-.16c0-.02 0-.04.003-.06-.002.02-.002.042-.002.06m.007-.138c0-.02 0-.053.002-.072-.003.02-.003.05-.003.072m.004-.142c.003-.03.004-.06.005-.078 0 .02-.002.05-.004.078m.007-.15c0-.03 0-.05.002-.08-.002.03-.003.05-.003.08m.004-.16c.002-.02.003-.04.003-.07 0 .022 0 .052-.002.07m.005-.15l.002-.07c0 .03 0 .05-.002.07m.005-.13c0-.03 0-.06.002-.09-.002.03-.002.06-.002.09m.002-.14c.002-.03.002-.06.002-.1 0 .04 0 .07-.002.1m.004-.17v-.07.07m.002-.15c0-.02 0-.05.002-.068-.002.02-.002.04-.002.07m.002-.14v-.09.09m0-.11c.002-.05.002-.08.002-.12 0 .038 0 .078-.002.12m.002-.25v-.022.02m0-.32v-.03.03m0-.148v-.12.12m-.002-.152v-.09.09m0-.15c-.002-.02-.002-.05-.002-.07 0 .02 0 .04.002.07m-.004-.15v-.068.07m-.002-.15c0-.032 0-.062-.002-.09.002.03.002.058.002.09m-.002-.15c-.002-.03-.002-.052-.002-.08 0 .028 0 .05.002.08m-.005-.152v-.06.06m-.004-.15v-.05.05m-.004-.15c-.002-.02-.003-.04-.003-.068 0 .03 0 .048.002.07m-.005-.15c0-.022-.002-.042-.004-.062.003.02.004.04.005.06m-.006-.148l-.003-.06.002.06m-.007-.152l-.002-.05c0 .02.003.04.003.05m-.006-.138l-.004-.07.004.07m-.008-.15c0-.022-.003-.042-.003-.06l.002.06m-.008-.15c0-.022-.003-.05-.004-.07 0 .02.003.048.004.07m-.007-.15c0-.02-.003-.05-.005-.08l.005.08m-.01-.142c0-.03 0-.06-.004-.08.004.02.006.05.006.08m-.008-.15c-.002-.028-.004-.05-.004-.08 0 .03.002.05.004.08m-.01-.15c0-.03-.002-.05-.005-.08.003.03.005.05.005.08m-.01-.15c0-.02-.003-.05-.004-.07 0 .02.003.05.005.07m-.01-.15l-.007-.07c.002.02.004.052.007.07m-.01-.138l-.007-.08.006.08m-.013-.15l-.006-.08c.003.02.005.048.007.08m-.01-.15c-.003-.02-.005-.052-.007-.08l.006.08m-.012-.14l-.007-.08.007.08m-.012-.15l-.006-.08.006.08m-.013-.152c-.004-.02-.006-.05-.01-.08.004.03.006.06.01.08m-.013-.138c-.004-.03-.006-.06-.008-.09 0 .03.003.06.007.09m-.014-.152l-.01-.09.01.09m-.015-.138l-.01-.092.01.092m-.013-.15l-.012-.092c.005.032.007.062.012.09m-.015-.14l-.01-.1.01.1m-.017-.15l-.01-.1.01.1m-.014-.14c-.006-.03-.01-.068-.014-.1.005.03.008.07.013.1m-.02-.15l-.01-.1.01.1m-.015-.14l-.01-.1.01.1m-.017-.15l-.012-.1.012.1m-.018-.14c-.005-.04-.007-.068-.013-.1.006.03.008.06.013.1m-.02-.15l-.01-.1.01.1m-.017-.14c-.004-.028-.01-.068-.012-.098l.013.1m-.02-.152l-.014-.1.014.1m-.018-.14c-.006-.028-.01-.068-.015-.1.005.03.01.07.016.1m-.02-.15c-.005-.03-.012-.06-.016-.1l.015.1m-.02-.14l-.015-.1.015.1m-.02-.14c-.005-.038-.012-.07-.018-.11.007.04.01.072.018.11m-.023-.15l-.015-.1.015.1m-.02-.138l-.018-.1c.007.028.01.06.017.1m-.02-.142l-.017-.108.016.108m-.022-.14l-.02-.108c.008.028.014.068.02.11m-.024-.15c-.006-.03-.01-.07-.017-.102.006.032.01.07.017.1M93.02 39c-.005-.04-.01-.07-.018-.11l.02.11m-.025-.14c-.005-.038-.013-.07-.02-.11.007.04.015.072.02.11m-.023-.14c-.008-.04-.014-.08-.02-.12.005.04.014.08.02.12m-.025-.14c-.007-.04-.016-.08-.022-.108.007.028.015.07.02.11m-.025-.152c-.007-.04-.014-.07-.02-.108.006.04.013.07.02.108m-.025-.14c-.007-.028-.015-.068-.02-.108.006.04.014.08.02.11m-.026-.14c-.007-.04-.015-.08-.02-.12.005.04.013.08.02.12m-.025-.14c-.008-.04-.016-.082-.02-.12.004.038.012.08.02.12m-.027-.14l-.024-.12.024.12m-.027-.14l-.024-.12.023.12m-.03-.15c-.006-.04-.015-.08-.02-.11.005.028.014.07.02.11m-.025-.13c-.01-.04-.017-.08-.026-.12.01.04.017.08.026.12m-.03-.15l-.053-.262.053.26m-.056-.268c-.02-.092-.038-.182-.06-.27.022.088.04.178.06.27m-.06-.27c-3.14-14.53-13.077-26.53-26.33-32.56 13.253 6.03 23.19 18.03 26.33 32.56M77.105 16.49c-.06-.062-.12-.12-.182-.18.062.06.122.118.182.18m-.196-.2c-.058-.05-.112-.11-.168-.16.056.05.113.11.168.16m-.176-.17c-.06-.06-.117-.11-.177-.17.06.06.118.11.177.17m-.186-.182c-.058-.05-.117-.11-.175-.17.06.06.118.12.176.17m-.193-.18c-.055-.05-.11-.11-.168-.158.057.05.113.108.168.16m-.186-.18c-.056-.05-.113-.1-.17-.16.057.06.114.11.17.16m-.185-.17c-.058-.05-.115-.11-.173-.16.057.05.115.11.172.16m-.19-.17c-.056-.06-.113-.11-.172-.16.06.05.116.1.172.16m-.19-.18c-.058-.05-.113-.102-.17-.15.056.048.112.1.17.15m-.193-.17c-.058-.052-.114-.102-.17-.15.056.05.113.098.17.15m-.19-.17l-.174-.15.174.15m-.19-.16c-.06-.062-.118-.11-.178-.16.06.05.12.098.18.16m-.197-.17c-.058-.052-.117-.102-.176-.16.058.06.117.108.175.16m-.193-.17c-.06-.052-.118-.102-.18-.15.06.05.12.098.18.15m-.194-.16c-.063-.05-.122-.11-.184-.16.062.05.122.11.184.16m-.198-.17c-.06-.052-.122-.102-.182-.15l.182.15m-.196-.16l-.184-.15.184.15m-.2-.16c-.062-.052-.12-.1-.183-.15.062.05.122.098.183.15m-.198-.16l-.188-.15c.065.05.126.1.188.15m-.2-.162l-.188-.15c.063.05.127.102.19.15m-.202-.16l-.193-.15.193.15m-.2-.16l-.197-.148c.065.05.13.1.196.148m-.203-.148c-.064-.05-.132-.1-.197-.15.065.05.13.1.198.15m-.202-.16c-.068-.05-.136-.102-.203-.15.068.048.135.1.203.15m-.205-.15c-.068-.052-.136-.102-.204-.15.066.05.135.098.203.15m-.207-.15c-1.52-1.12-3.112-2.14-4.772-3.052 1.66.91 3.254 1.932 4.772 3.052M67.452 9.27l-.213-.12.212.12m-.234-.13c-.068-.04-.136-.068-.203-.108.067.04.135.068.203.11m-.242-.13c-.063-.03-.125-.072-.188-.102.063.03.125.072.188.1m-.233-.12c-.06-.038-.12-.068-.182-.1.063.032.123.062.183.1m-.236-.13c-.057-.03-.113-.06-.17-.08.057.022.114.05.17.08m-.236-.12c-.052-.02-.106-.05-.16-.08.053.03.108.06.16.08m-.235-.12c-.05-.02-.103-.05-.153-.07.05.02.102.05.153.07m-.237-.11c-.048-.028-.095-.05-.14-.07.045.02.092.04.14.07m-.236-.12c-.045-.02-.092-.04-.137-.068.045.028.092.048.137.07m-.236-.11c-.042-.022-.084-.04-.127-.062l.126.06m-.24-.12c-.038-.01-.077-.028-.116-.05.04.022.078.04.117.05m-.236-.11c-.035-.01-.072-.03-.11-.05.037.02.074.04.11.05m-.234-.1c-.037-.02-.074-.04-.11-.05.037.01.073.03.11.05m-.236-.11c-.035-.02-.07-.03-.104-.05.034.02.07.03.104.05m-.238-.11c-.033-.01-.065-.03-.098-.04.032.01.067.03.098.04m-.24-.098c-.03-.012-.06-.03-.088-.04.03.008.058.028.088.04m-.24-.102c-.026-.02-.053-.03-.082-.04.03.01.056.02.083.04m-.238-.1c-.024-.02-.05-.028-.076-.04.024.01.05.02.075.04m-.24-.1l-.065-.028c.022.008.042.02.065.03m-.242-.1l-.056-.032.056.03m-.24-.098c-.017-.012-.032-.012-.05-.02.016.008.034.008.05.02m-.24-.092c-.013-.01-.026-.01-.038-.02.012.01.025.01.037.02m-.244-.1c-.006 0-.014 0-.02-.01.006.01.014.01.02.01m4.016-2.65c-.037-.02-.075-.04-.113-.05.04.01.077.03.114.05m-.125-.06c-.035-.01-.072-.03-.107-.05.035.02.07.04.106.05m-.134-.058c-.032-.01-.065-.03-.1-.04.033.01.07.03.1.04m-.127-.06c-.034-.012-.067-.02-.1-.04.033.02.066.028.1.04m-18.177 0h-.16v-4h.16v4zm18.045-.052c-.03-.02-.063-.03-.097-.05.032.02.067.03.098.05m-.13-.06c-.028-.01-.057-.02-.087-.04.03.02.058.03.09.04m-.135-.06l-.075-.03c.026.012.05.02.075.03m-.13-.05c-.023-.008-.045-.02-.068-.028.024.008.043.02.067.03m-.135-.06c-.022-.01-.045-.022-.065-.03.023.008.043.02.064.03m-.128-.062c-.022-.01-.047-.01-.07-.02.023.01.046.01.07.02m-.13-.05c-.023-.01-.046-.018-.07-.03.024.012.047.02.07.03m-.132-.06c-.02 0-.043-.01-.062-.02.02.01.04.02.062.02m-.134-.05c-.018-.01-.04-.02-.06-.02.02 0 .04.01.06.02m-.132-.05c-.018-.01-.035-.02-.05-.02.015 0 .033.01.05.02m-.136-.06c-.015-.01-.028-.01-.044-.02.016.01.03.01.044.02m-.133-.05c-.013-.01-.025-.01-.04-.02.014.01.027.01.04.02m-.13-.05c-.015-.01-.03-.02-.044-.02.017.002.028.01.044.02M64 3.24c-.01 0-.024-.01-.034-.01.01 0 .023.01.033.01m-.136-.05c-.01 0-.02-.01-.03-.01.01 0 .02.01.03.01m-.135-.05c-.01-.01-.02-.01-.027-.01.01 0 .017 0 .026.01m-.133-.05c-.01-.01-.017-.01-.026-.01.01 0 .017 0 .027.01m-.138-.058h-.017.016m-.135-.05h-.014.015m-.136-.052h-.01.01m-.136-.05h-.008.008m-.27-.098h-.003.003m-.27-.092h-.002.003"/><path fill="#C8C8C8" d="M47.673 93.21v-4c1.252-.02 2.488-.1 3.71-.23h.025c.076-.01.15-.02.226-.02.015-.01.03-.01.043-.01.068-.01.134-.01.2-.02.024-.01.05-.01.073-.01.06-.01.123-.02.184-.02.027-.01.054-.01.082-.01l.175-.032c.033 0 .063 0 .095-.01.054 0 .108-.01.162-.02.035 0 .07-.01.104-.01.052-.01.102-.02.15-.02.04-.012.08-.02.12-.02.048-.012.093-.02.14-.02.04-.01.083-.01.123-.02.046-.01.09-.01.136-.02.044-.013.087-.013.132-.02.04-.013.084-.013.125-.022.048-.01.095-.02.14-.02.04-.01.08-.02.12-.02l.146-.03c.037 0 .074-.01.11-.02.052-.01.1-.01.15-.02.036-.01.073-.02.11-.02.053-.013.104-.02.156-.032.033-.01.065-.01.1-.02l.163-.03c.032-.01.063-.01.094-.02l.17-.03c.03-.01.06-.01.09-.02l.17-.03c.027-.01.06-.018.09-.018.06-.012.116-.03.174-.04.03 0 .056-.01.082-.01.062-.02.123-.032.185-.042.023-.01.048-.01.07-.02.065-.008.13-.03.194-.04.022-.01.044-.01.063-.02.065-.01.13-.02.196-.04.02 0 .04-.01.06-.01.07-.02.135-.03.2-.05.02 0 .04-.01.058-.01.07-.02.136-.04.205-.05.016-.01.032-.01.05-.01l.212-.062c.015 0 .028 0 .042-.01.073-.02.145-.03.215-.05.014 0 .028-.01.042-.01l.224-.06c.01 0 .02-.01.03-.01l.24-.06h.01c.765-.212 1.522-.44 2.267-.68.015-.01.027-.01.04-.02.07-.02.137-.042.204-.062l.075-.03c.058-.02.11-.04.17-.06l.08-.03c.055-.01.11-.03.164-.05.03-.01.062-.02.093-.04.05-.01.1-.03.146-.048.037-.012.074-.023.11-.043.044-.01.09-.03.132-.04.04-.02.078-.03.116-.05.044-.01.085-.03.125-.04.04-.02.078-.03.12-.05.04-.01.08-.03.122-.04.04-.02.082-.03.123-.05.04-.02.078-.03.117-.052.043-.01.084-.03.127-.04.036-.02.072-.028.11-.048.044-.012.09-.03.134-.05.035-.01.07-.03.106-.042l.133-.06c.035-.01.07-.02.103-.04.05-.02.096-.04.144-.05.03-.02.062-.03.093-.04l.146-.06c.03-.02.06-.03.09-.04.05-.02.1-.04.15-.07l.083-.03c.05-.02.103-.04.15-.06.03-.02.06-.03.087-.04.05-.02.103-.05.153-.07l.078-.03c.055-.03.105-.05.157-.068.026-.012.05-.02.074-.04.056-.02.113-.042.167-.07l.063-.03c.058-.02.113-.05.17-.08.02-.01.04-.01.062-.02.058-.03.117-.058.175-.09.016 0 .034-.01.05-.02.063-.03.122-.06.184-.08l.046-.03.188-.09c.01 0 .02-.01.035-.01.062-.03.128-.07.193-.1.01 0 .02-.01.03-.01.068-.04.134-.07.2-.1.008-.01.014-.01.02-.01.07-.042.14-.07.21-.11h.01c3.158-1.602 6.09-3.57 8.74-5.86.063-.048.125-.11.188-.16.064-.06.126-.11.188-.17h.003c.125-.11.248-.22.37-.33.003 0 .005-.01.007-.01.06-.05.12-.11.18-.16h.003c.06-.06.12-.11.18-.17.005 0 .006-.01.01-.01.06-.05.118-.11.174-.16.004 0 .006-.01.01-.01.058-.05.115-.11.172-.16.005-.01.01-.01.01-.01.06-.062.113-.11.17-.16.012-.02.022-.03.034-.038.05-.043.098-.092.147-.143l.035-.03c.108-.11.217-.21.323-.32 7.75-7.72 12.537-18.36 12.54-30.12-.003-11.77-4.79-22.42-12.54-30.13-.062-.06-.12-.12-.183-.18-.004-.01-.01-.01-.016-.02-.054-.05-.11-.11-.168-.16-.004 0-.005-.01-.007-.01-.06-.06-.117-.11-.175-.17-.005 0-.007-.01-.01-.01-.06-.05-.118-.11-.175-.172-.007 0-.013-.01-.02-.01-.055-.05-.11-.11-.167-.158-.007-.012-.013-.012-.02-.02-.056-.05-.112-.1-.17-.16-.004 0-.01 0-.014-.01-.06-.05-.116-.11-.173-.16-.007 0-.013-.01-.02-.01-.056-.06-.112-.11-.17-.16-.007-.01-.014-.01-.02-.02-.058-.05-.114-.102-.17-.15-.01-.01-.015-.01-.023-.02-.055-.052-.112-.102-.17-.15-.006-.01-.012-.01-.02-.02-.058-.052-.115-.102-.173-.15-.005-.01-.01-.01-.015-.01-.058-.062-.117-.11-.177-.16-.006 0-.013-.01-.02-.01-.058-.052-.116-.102-.176-.16-.007 0-.01 0-.016-.01-.062-.052-.12-.102-.18-.15-.007-.01-.01-.01-.016-.01-.062-.05-.12-.11-.182-.16-.005 0-.01 0-.015-.01l-.183-.15c-.006 0-.01-.01-.015-.01l-.184-.15c-.005 0-.01-.01-.016-.01-.062-.052-.12-.1-.183-.15-.005-.01-.01-.01-.016-.01-.062-.05-.123-.1-.187-.15-.004-.01-.008-.01-.012-.01l-.188-.15c-.005 0-.01-.01-.013-.01l-.192-.15c-.002 0-.006 0-.01-.01l-.195-.15h-.006c-.066-.048-.133-.1-.2-.15 0 0 0-.01-.002-.01l-.204-.15-.206-.148h-.003c-1.518-1.12-3.11-2.14-4.77-3.052h-.013l-.214-.12c-.006 0-.014-.01-.02-.01-.058-.03-.125-.058-.192-.098-.015-.012-.026-.012-.04-.02-.062-.03-.124-.07-.187-.102-.016-.01-.03-.02-.046-.02-.06-.04-.12-.07-.18-.1-.02-.01-.038-.022-.057-.03-.057-.028-.112-.06-.17-.08-.022-.02-.045-.03-.065-.04-.054-.02-.108-.05-.162-.08-.024-.01-.05-.02-.074-.04-.05-.02-.102-.05-.153-.07-.026-.02-.057-.03-.084-.04-.048-.03-.095-.05-.143-.07-.032-.02-.063-.03-.094-.05-.045-.02-.093-.04-.138-.07-.032-.01-.065-.03-.1-.04l-.127-.06-.11-.06c-.04-.01-.08-.03-.118-.05l-.118-.06c-.037-.01-.075-.03-.112-.05-.04-.02-.083-.04-.124-.052-.036-.02-.07-.04-.108-.05l-.127-.06c-.034-.02-.068-.03-.103-.05l-.133-.06c-.034-.007-.068-.028-.1-.038l-.143-.06c-.028-.01-.057-.03-.086-.04l-.15-.06c-.028-.02-.055-.03-.083-.04-.05-.02-.102-.038-.155-.06-.024-.02-.05-.03-.075-.04-.056-.02-.11-.04-.164-.058-.022-.012-.043-.022-.065-.03-.06-.032-.118-.052-.176-.07l-.056-.032c-.062-.02-.122-.04-.184-.068-.017-.012-.035-.012-.05-.02-.065-.022-.13-.052-.192-.07-.013-.012-.024-.012-.037-.022-.07-.03-.14-.05-.207-.08-.006 0-.014 0-.02-.01-4.52-1.73-9.41-2.72-14.525-2.82v-4C52.87.1 57.86 1.04 62.51 2.69h.003c.09.03.18.06.268.092h.003c.09.04.176.07.264.1h.008c.044.02.084.03.128.05h.008c.042.02.083.03.124.05h.012c.04.02.08.03.12.05h.016c.037.02.073.03.11.05.01 0 .017 0 .027.01.033.01.068.02.105.04.008 0 .02 0 .026.01.036.01.07.02.105.04.008 0 .02.01.028.01.035.012.068.03.103.04.01 0 .022.01.033.01.03.01.06.03.09.042.016 0 .03.01.044.02l.093.03c.012.01.026.01.04.02l.09.03c.014.01.027.01.042.02.027.01.055.02.085.04.015 0 .033.01.05.02l.073.03c.02 0 .04.01.06.02.024.01.045.022.07.03.02.01.042.02.063.02.02.012.042.02.062.03.025.012.047.02.073.03l.06.03c.022.01.047.01.07.02l.062.03c.02.01.043.02.063.032.022.008.045.018.067.028l.066.03c.02 0 .037.01.057.02l.076.03c.014.01.03.02.045.02.03.02.06.03.09.04.01.01.02.01.032.01.03.02.065.03.096.05.013 0 .02.01.033.01.032.02.066.03.1.04.01.01.017.01.028.022.032.01.065.03.1.04.007.01.018.01.025.01.035.02.07.04.106.05.004 0 .006 0 .012.01.037.01.074.03.112.05.007 0 .02.01.026.01 13.255 6.032 23.19 18.032 26.332 32.56l.06.272c0 .01 0 .01.002.01.02.09.037.18.054.26.002.01.004.02.004.03.01.04.02.08.025.12 0 .01.002.01.003.02.01.03.017.07.022.11.003.01.007.02.007.03.006.04.015.08.023.12l.002.02.023.12c0 .01.003.02.005.02l.023.12c0 .01.002.02.004.02l.02.12.007.03c.006.04.015.08.02.11.003.01.004.02.004.03.01.04.017.07.022.108l.006.04c.007.03.015.07.02.11l.006.02c.006.04.012.08.02.12l.005.03c.005.04.012.07.018.11l.006.03c.006.04.013.07.02.11l.004.04.018.1.006.04.02.11c0 .01 0 .02.003.03.007.04.013.07.017.108l.006.04c.007.03.01.062.016.102.003.01.005.03.007.04l.016.1.006.04c.007.04.013.07.017.11 0 .01.003.03.005.04l.015.1c.002.02.004.03.007.04.004.04.01.07.013.1l.007.05.015.1.004.04.015.1.007.052c.005.03.01.07.013.1l.006.04c.004.04.01.07.013.1 0 .02.003.03.004.05.006.03.01.06.014.1l.006.04c.004.04.008.07.013.1l.006.05.01.1.007.042.01.1.007.05.012.1c0 .01 0 .03.002.04l.012.1.006.05.01.1.005.05.01.092.005.06.01.09c.002.02.004.03.004.05l.01.09.007.06.008.092.005.06c.003.03.005.06.01.08 0 .03.003.05.005.07l.007.08.006.07c.003.02.005.05.007.08 0 .02.003.04.005.06l.008.08.004.07.006.08.006.068.007.08.004.07c.002.02.003.05.006.07 0 .03.003.05.005.08 0 .02.004.05.006.07 0 .02.002.05.004.07.002.028.004.05.004.08l.006.068c0 .03.003.05.005.08l.004.07c.002.02.004.05.004.08.003.02.004.04.004.06l.005.08c0 .03.002.05.004.08 0 .02.002.05.004.072 0 .028.002.058.004.09l.002.06c.002.028.004.048.004.078.002.02.002.05.005.07 0 .03.002.06.004.09l.002.05c0 .03 0 .063.003.09l.002.062v.09c.003.02.004.04.005.06l.002.08c0 .03.002.05.004.07l.002.1.002.05.002.09.002.06c0 .02 0 .05.002.07 0 .03 0 .05.002.08v.06c.002.03.002.06.002.09l.002.08v.07c.002.03.002.05.002.08 0 .02 0 .05.003.07v.15c0 .01 0 .02.002.03V46.93c0 .04 0 .07-.003.12v.182c-.003.02-.003.05-.003.07 0 .03 0 .05-.002.08v.07l-.002.07c0 .04 0 .068-.002.1v.048c-.002.03-.002.06-.002.09-.002.02-.002.04-.002.06l-.002.07-.002.08-.002.07c-.002.03-.002.05-.002.08l-.004.08c0 .02 0 .05-.002.07l-.004.08v.07c-.003.02-.003.05-.003.07-.002.03-.004.05-.004.08-.003.02-.003.04-.003.06-.002.03-.004.06-.004.09-.003.02-.003.05-.005.07l-.004.068c0 .03-.002.06-.004.08l-.002.07-.006.09-.003.06-.006.1c0 .01 0 .032-.003.04 0 .03 0 .07-.003.102-.002.02-.002.04-.004.05l-.007.1-.002.05c-.004.03-.006.06-.008.1l-.002.05-.008.09c0 .02-.002.04-.003.052l-.006.11-.004.04c-.002.04-.004.07-.01.1v.04c-.005.038-.007.08-.01.118 0 .012-.003.02-.003.03-.002.04-.007.08-.01.11-.002.01-.002.02-.002.03-.003.04-.005.08-.01.12 0 .01 0 .02-.003.03l-.01.122-.015.018-.01.12-.003.02-.012.132-.002.02c-.005.04-.01.08-.013.13v.01c-.006.04-.01.09-.015.13v.01l-.03.29c-.01.1-.02.19-.033.29-2.084 18.34-14.857 33.45-31.965 39.01-.006.01-.015.01-.02.01-.04.01-.08.03-.118.04h-.017c-.04.02-.076.03-.115.04-.008 0-.02.01-.026.01-.037.012-.076.02-.113.04h-.02c-.036.01-.075.02-.112.04-.01 0-.02 0-.03.01l-.106.03c-.01 0-.023.01-.033.01l-.097.03c-.02 0-.035.01-.054.01-.027.012-.055.02-.08.03-.023.013-.044.013-.068.02-.02.01-.04.01-.063.02-.026.01-.053.01-.077.022-.022.008-.043.008-.065.02-.024.01-.05.02-.074.02-.02.01-.04.01-.057.02-.03.012-.062.02-.093.03-.015 0-.03 0-.043.01l-.102.03c-.01 0-.02 0-.03.01l-.113.03c-.008 0-.02 0-.026.01-3.812 1.067-7.82 1.677-11.957 1.745"/><path fill="#ADABD1" d="M73.99 70.26H47.514v-1.72h26.48v1.72zm-6.72-11.35H56.934l-.148-.24v-1.14l.148-.24H67.27l.15.24v1.14l-.15.24m-15.53 0h-4.228v-1.62h4.23l.15.24v1.14l-.15.24m15.527-25.05H56.934l-.148-.248v-1.14l.148-.24H67.27l.15.24v1.14l-.15.248m-15.53 0h-4.228v-1.63h4.23l.15.24v1.142l-.15.248m15.527-5.02H56.934l-.148-.24v-1.14l.148-.24H67.27l.15.24v1.14l-.15.24m-15.53 0h-4.228v-1.62h4.23l.15.24v1.14l-.15.24"/><path fill="#D8D8D8" d="M75.33 68.22h-.4v-.438c0-.2-.05-.4-.136-.54-.088-.142-.21-.23-.332-.23v.77-.772H47.514V65.1H75.33v3.12M67.194 63.68h-9.66c-1.145 0-2.07-.26-2.07-.59V22.042c0-.33.926-.59 2.07-.59h9.66c1.14 0 2.07.26 2.07.59V63.09c0 .33-.93.59-2.07.59m-10.26-6.39l-.146.24v1.14l.147.24H67.27l.148-.24v-1.14l-.15-.24H56.936m0-25.06l-.147.24v1.14l.147.25H67.27l.148-.25v-1.14l-.15-.24H56.936m0-5.01l-.147.24v1.14l.147.24H67.27l.148-.24v-1.14l-.15-.24H56.936M51.67 63.68h-4.157v-4.77h4.23l.15-.24v-1.14l-.15-.24h-4.23V33.86h4.23l.15-.248v-1.14l-.15-.24h-4.23V28.84h4.23l.15-.24v-1.14l-.15-.24h-4.23v-5.77h4.156c1.14 0 2.068.26 2.068.59v41.05c0 .33-.93.59-2.07.59"/><path fill="#D8D8D8" d="M74.462 71.78h-26.95v-1.52h26.48v-1.72h-26.48v-1.53h26.95v.77-.77c.123 0 .244.09.332.23.086.14.135.34.135.54V71.02c0 .2-.05.4-.136.54-.088.14-.21.22-.332.22"/></svg>