<svg xmlns="http://www.w3.org/2000/svg" width="93.641" height="93.219" viewBox="0 0 93.641 93.219"><path fill="#857A91" d="M91.64 46.62c0 24.63-20.068 44.602-44.818 44.602C22.07 91.222 2 71.25 2 46.622 2 21.97 22.07 2 46.82 2s44.82 19.97 44.82 44.62"/><path fill="#FFF" d="M91.64 46.62h-2c0 11.76-4.78 22.4-12.54 30.12-7.75 7.71-18.448 12.48-30.278 12.48s-22.528-4.77-30.284-12.48C8.788 69.02 4.002 58.38 4.002 46.62c0-11.77 4.785-22.42 12.535-30.13C24.293 8.77 34.99 4 46.82 4S69.35 8.77 77.1 16.49c7.76 7.72 12.54 18.36 12.54 30.13h4C93.64 20.86 72.67 0 46.82 0S.003 20.86 0 46.62c.004 25.74 20.97 46.602 46.82 46.602s46.818-20.86 46.818-46.6h-2"/><path fill="#FFF" d="M64.67 58.98c2.64 0 5.37 2.07 6.102 4.608l1.028 3.66c.722 2.54-.858 4.62-3.49 4.6l-42.94-.028c-2.633 0-4.23-2.08-3.545-4.62l.98-3.59c.684-2.56 3.407-4.63 6.042-4.63H64.67M68.86 21.37H24.79c-1.11 0-2.01.9-2.01 2.01v30.69c0 1.12.897 2.02 2.01 2.02h44.07c1.107 0 2.01-.898 2.01-2.02V23.38c0-1.11-.9-2.01-2.01-2.01m-2.01 30.69H26.8V25.39H66.85v26.67z"/><path fill="#6D6577" d="M46.82 89.22V71.84l21.488.01h.03c2.61 0 4.18-2.067 3.46-4.6l-1.03-3.66c-.728-2.538-3.46-4.608-6.1-4.608H46.82V56.09h22.04c1.107 0 2.01-.9 2.01-2.018V23.38c0-1.108-.9-2.01-2.01-2.01H46.82V4c.29 0 .568.012.85.012 7.98.158 15.42 2.48 21.75 6.397.01.01.02.02.04.03.04.03.09.05.14.08.022.02.052.04.07.05.04.03.08.05.12.08.03.02.07.04.1.06.04.02.07.052.11.07.03.02.07.04.1.068.04.02.07.04.102.06.04.032.08.052.12.08.03.022.06.042.09.062.04.03.08.052.12.08.028.02.06.04.09.05.04.03.09.062.13.092.02.02.05.028.07.05.05.03.09.06.14.09.02.02.05.04.07.05.05.04.09.07.14.1.02.022.05.03.07.04l.14.11c.02.01.04.03.06.04.053.03.102.07.15.102.02.02.04.028.062.05.046.025.097.066.146.096.02.02.04.03.06.04.053.04.102.08.15.11.02.02.04.028.062.04.05.04.09.08.14.108.02.02.04.03.06.04.052.04.102.08.15.11.02.02.04.03.05.04.06.04.11.08.16.12.01.01.03.02.05.04.05.04.1.07.15.11.02.02.03.028.05.038l.15.12c.02.01.04.02.05.04.05.04.1.07.148.11.02.02.04.028.05.04.063.04.11.08.16.12.012.02.03.03.04.04.05.04.11.08.16.12.012.01.03.028.04.038.05.04.11.08.16.12l.04.04.16.13c.01.01.02.02.04.03.05.04.1.09.148.13.02.01.03.02.04.03l.16.13c.01.01.03.02.04.03.05.05.102.09.16.14l.03.03c.06.05.11.09.16.14.01.01.03.02.04.03.05.04.1.09.16.14.01.01.02.01.028.02.05.05.11.1.16.14l.03.03c.05.05.11.09.16.14l.03.03c.06.05.108.1.16.14l.028.03c.06.05.108.1.16.15.01.01.02.01.028.02.05.05.11.1.16.15l.03.03c.05.05.11.1.16.148.01.01.02.01.03.02.05.05.1.1.16.15.01.01.01.02.02.03.06.05.108.1.17.16 0 0 .01.01.02.01.05.06.11.108.16.16l.02.02c.06.05.11.11.17.16 0 .01.01.01.01.02.06.06.12.118.18.18 7.76 7.72 12.54 18.36 12.54 30.13 0 11.76-4.78 22.4-12.54 30.12-.107.11-.22.222-.34.33 0 .01-.01.01-.01.02-.06.053-.11.102-.16.16-.01 0-.02.01-.02.01-.062.063-.12.122-.182.182-.06.05-.12.11-.18.17-.062.06-.12.11-.18.172C70.83 82.6 64.43 86.15 57.33 87.93h-.01l-.23.06c-.01 0-.02 0-.03.01-.067.012-.14.032-.21.053-.02 0-.028 0-.05.01-.06.01-.13.028-.2.04-.02.01-.028.01-.05.02-.07.01-.13.03-.2.04-.02.01-.04.01-.06.02-.06.01-.12.02-.18.04-.03 0-.05.01-.08.01-.063.02-.12.03-.18.04-.02.012-.052.012-.07.02-.063.012-.13.022-.19.04-.02 0-.04.01-.07.01-.06.01-.118.03-.187.04-.02 0-.04.012-.062.012-.068.02-.13.028-.187.04-.02 0-.052.01-.08.01-.062.02-.12.03-.18.04-.022 0-.052.01-.07.01-.062.01-.12.03-.18.04-.03 0-.063.01-.08.01-.062.012-.12.022-.19.03-.022.01-.05.01-.07.02l-.18.03c-.03 0-.06.01-.08.01-.06.01-.13.022-.19.03-.02 0-.038.01-.07.01-.06.01-.118.02-.188.03-.02.01-.04.01-.07.01-.06.012-.13.022-.188.03-.02.01-.04.01-.06.01l-.2.03c-.02 0-.05.01-.07.01-.06.012-.13.022-.2.03-.02 0-.03 0-.05.01-.07.01-.14.02-.21.02-.02.01-.03.01-.05.01-.07.013-.15.022-.22.032h-.03l-.23.028h-.028c-1.4.17-2.813.27-4.24.29-.29.006-.57.006-.86.006"/><path fill="#6D6577" d="M46.82 25.39h20.03v26.67H46.82z"/><path fill="#D8D8D8" d="M68.34 71.85h-.03l-21.49-.01V58.98h17.85c2.64 0 5.37 2.07 6.102 4.608l1.027 3.66c.72 2.533-.85 4.602-3.46 4.602M68.86 56.09H46.82v-4.028h20.03V25.39H46.82v-4.02h22.04c1.107 0 2.01.9 2.01 2.01v30.692c0 1.117-.9 2.018-2.01 2.018"/></svg>