<svg xmlns="http://www.w3.org/2000/svg" width="93.64" height="93.218" viewBox="0 0 93.64 93.218"><path fill="#F2C40D" d="M91.206 46.608c0 24.64-20.067 44.61-44.826 44.61-24.752 0-44.818-19.97-44.818-44.61S21.628 2 46.38 2c24.76 0 44.826 19.97 44.826 44.608"/><path fill="#FFF" d="M91.644 46.608h-2c-.002 11.77-4.79 22.41-12.54 30.13-7.755 7.71-18.448 12.48-30.286 12.48-11.832 0-22.524-4.77-30.278-12.48C8.79 69.018 4.002 58.378 4 46.608 4.002 34.84 8.79 24.2 16.54 16.483 24.292 8.766 34.984 4 46.816 4 58.655 4 69.35 8.765 77.104 16.482c7.75 7.718 12.537 18.357 12.54 30.125h3.998C93.642 20.856 72.674 0 46.817 0 20.97 0 .002 20.856 0 46.608c.002 25.75 20.97 46.61 46.817 46.61 25.856 0 46.824-20.86 46.824-46.61h-1.996"/><path fill="#DEDEDE" d="M93.643 46.608h-3.998c-.002 11.77-4.79 22.41-12.54 30.13-7.568 7.52-17.936 12.25-29.432 12.47v4c25.46-.45 45.97-21.142 45.97-46.6M47.673.006v4c11.496.225 21.863 4.946 29.433 12.476 7.75 7.718 12.537 18.356 12.54 30.125h3.997c0-25.464-20.51-46.147-45.97-46.6"/><path fill="#FFF" d="M64.5 21.374H30.848c-4.656 0-8.414 3.758-8.414 8.414v33.65c0 4.66 3.758 8.42 8.414 8.42H64.5c4.653 0 8.413-3.76 8.413-8.42v-33.65c0-4.657-3.76-8.414-8.412-8.414M46.61 69.047H30.847c-3.084 0-5.61-2.52-5.61-5.61v-16.09H46.61v21.7m0-24.222H25.235V29.788c0-3.084 2.527-5.607 5.61-5.607H46.61v20.645m23.498 18.613c0 3.09-2.523 5.61-5.607 5.61H49.27v-21.7h20.84v16.09m-.002-18.613h-20.84V24.18H64.5c3.084 0 5.607 2.523 5.607 5.607v15.038"/><path fill="#FFF" d="M29.995 63.947c.11.11.336.22.506.22.17 0 .337-.05.505-.22l5.104-5.11 5.103 5.11c.113.11.338.22.506.22.168 0 .336-.05.504-.22.28-.28.28-.73 0-1.01l-5.104-5.11 5.104-5.1c.28-.28.28-.73 0-1.01s-.73-.28-1.01 0l-5.105 5.1-5.105-5.1c-.28-.28-.73-.28-1.01 0s-.28.73 0 1.01l5.104 5.1-5.105 5.11c-.28.28-.28.73 0 1.01"/><path fill="#FFF" d="M29.995 63.947l-.312.31c.108.11.226.18.358.24.135.06.278.11.46.11.266.01.584-.11.816-.35l4.79-4.79 4.792 4.79c.11.11.227.18.36.24.134.06.276.11.458.11.266.01.585-.11.818-.35.226-.222.34-.522.34-.82 0-.29-.114-.59-.34-.812l-4.79-4.8 4.79-4.79c.226-.22.34-.52.34-.81 0-.3-.114-.6-.34-.82-.225-.23-.522-.34-.818-.34-.295 0-.594.11-.818.34l-4.79 4.79-4.792-4.79c-.224-.23-.52-.34-.816-.34-.297 0-.594.11-.817.34-.226.22-.342.52-.34.82-.002.29.114.59.338.81l4.792 4.79-4.79 4.8c-.225.22-.34.52-.34.81 0 .3.115.6.34.82l.313-.308.313-.31-.08-.2.08-.19 5.418-5.42-5.418-5.41-.08-.188.08-.202.193-.08.19.08 5.418 5.42 5.418-5.42.19-.08.192.08.082.2-.082.19-5.416 5.41 5.416 5.42.082.19-.082.198c-.103.092-.12.08-.19.092h-.002l-.192-.102.002.01-5.418-5.42-5.418 5.42c-.102.092-.12.08-.19.092l-.192-.102v.01l-.313.31zM29.784 34.465c0 .394.338.73.73.73h4.936v4.88c0 .392.336.728.73.728.39 0 .728-.336.728-.73V35.14h4.767c.392 0 .73-.337.73-.73 0-.392-.34-.728-.73-.728H36.74v-4.824c0-.392-.338-.73-.73-.73-.393 0-.728.34-.728.73v4.937h-4.824c-.393 0-.674.28-.674.672"/><path fill="#FFF" d="M29.784 34.465h-.44c.007.648.522 1.163 1.17 1.173h4.493v4.437c.008.648.525 1.162 1.173 1.172.647-.01 1.163-.522 1.17-1.172v-4.493h4.326c.647-.01 1.163-.523 1.172-1.17-.01-.65-.524-1.165-1.172-1.175h-4.493v-4.38c-.008-.647-.523-1.163-1.17-1.17-.65.007-1.166.522-1.174 1.17v4.493h-4.382c-.3 0-.592.112-.797.318-.206.205-.32.496-.317.797h.884c.002-.092.028-.137.06-.17.032-.03.08-.06.17-.06h5.267v-5.38l.088-.197.2-.088.198.088.088.198v5.267h5.378l.198.09.09.197-.09.198-.198.087h-5.21v5.38l-.088.198-.198.088-.2-.087-.088-.2v-5.32h-5.378l-.198-.09-.088-.198h-.444zM64.5 33.737H53.28c-.39 0-.726.336-.726.73s.336.728.726.728H64.5c.393 0 .73-.337.73-.73s-.337-.728-.73-.728"/><path fill="#FFF" d="M64.5 33.737v-.443H53.28c-.646.01-1.162.524-1.172 1.172.01.648.525 1.162 1.172 1.174H64.5c.647-.01 1.163-.527 1.17-1.174-.007-.647-.522-1.163-1.17-1.172v.886l.198.088.088.197-.088.2-.197.087H53.28l-.197-.088-.088-.2.088-.196.197-.088H64.5v-.443M53.28 55.758H64.5c.392 0 .73-.34.73-.73s-.338-.73-.73-.73H53.28c-.39 0-.727.34-.727.73s.337.73.727.73"/><path fill="#FFF" d="M53.28 55.758v.44H64.5c.647-.01 1.16-.52 1.17-1.17-.006-.65-.522-1.16-1.17-1.17H53.28c-.646.01-1.162.52-1.172 1.17.01.65.525 1.16 1.172 1.17v-.88l-.197-.09-.088-.2.088-.2.197-.09H64.5l.198.09.088.2-.088.2-.197.09H53.28v.44M53.28 61.367H64.5c.392 0 .73-.34.73-.73s-.338-.73-.73-.73H53.28c-.39 0-.727.34-.727.73s.337.73.727.73"/><path fill="#FFF" d="M53.28 61.367v.44H64.5c.647-.01 1.164-.52 1.17-1.17-.006-.65-.522-1.16-1.17-1.17H53.28c-.646.01-1.162.52-1.172 1.17.01.65.525 1.16 1.172 1.17v-.88l-.197-.09-.088-.2.088-.2.197-.09H64.5l.198.09.088.2-.088.2-.197.09H53.28v.44"/><path fill="#DFBF3F" d="M47.67 89.207v-17.35H64.5c4.653 0 8.413-3.76 8.413-8.42v-33.65c0-4.656-3.76-8.414-8.412-8.414H47.67V4.007h.003c1.074.022 2.14.08 3.193.18h.012l.217.022c.02 0 .04.002.06.004.062.008.122.014.187.02l.082.008c.058.006.112.01.168.02.035.003.068.008.102.01.053.008.104.013.154.018l.117.014.13.016.145.018.108.015c.053.005.107.013.162.02l.095.013c.06.01.116.017.175.023l.08.01c.064.01.127.02.19.027.022.004.044.008.066.01l.207.03.05.008c.072.01.146.023.22.035.014 0 .025.003.038.007.08.01.155.024.23.037l.03.003c.08.015.162.028.242.042h.015c8.1 1.39 15.414 5.04 21.276 10.278.002 0 .002.002.004.004.062.053.123.11.184.164l.01.006.183.168c.002.004.005.004.007.006.06.055.12.11.18.168.003 0 .005.002.007.005l.178.164.013.01c.057.056.114.11.173.165.005.003.01.008.013.012.06.055.118.11.176.166.003.004.005.008.01.01l.176.17c0 .002.003.004.007.008.057.054.112.11.168.164.007.005.013.01.017.015.06.06.12.12.183.18 7.75 7.718 12.537 18.357 12.54 30.126-.003 11.77-4.79 22.41-12.54 30.13l-.183.18c-.006 0-.013.01-.02.01-.052.06-.107.11-.163.16-.007.01-.012.02-.02.02-.056.062-.11.11-.164.16-.005.01-.01.01-.013.01-.06.062-.115.11-.172.17-.008 0-.015.01-.02.02l-.167.15c-.007.01-.01.01-.017.02-.056.052-.11.1-.17.16-.007 0-.013.01-.02.02-.056.052-.113.103-.17.15-.005.013-.01.013-.013.013-.06.06-.117.11-.177.158-.005.013-.01.013-.012.02-.06.052-.12.103-.18.16-.003 0-.007 0-.01.013-.06.05-.122.1-.183.158-.002 0-.005 0-.01.013l-.376.33h-.006c-5.827 5.02-13.025 8.5-20.97 9.81h-.003c-.083.02-.167.03-.25.04-.008.01-.014.01-.02.01l-.236.03c-.014.01-.026.01-.04.01l-.218.03c-.017 0-.034.01-.05.01l-.208.03c-.022 0-.04.01-.063.01l-.197.03h-.07l-.184.03c-.03 0-.062.01-.092.01-.054.01-.11.01-.164.02-.035 0-.07.01-.104.01-.05.01-.1.01-.147.02-.043.01-.086.01-.13.01-.038.01-.077.01-.116.02-.05 0-.102.01-.153.01-.03.012-.06.012-.092.012-.06.008-.12.02-.184.02-.02.01-.037.01-.056.01-.07.01-.143.01-.213.02h-.027c-1.05.1-2.11.16-3.18.18h-.002"/><path fill="#E8E8E8" d="M47.67 89.207h.003v4h-.002v-4zm3.183-.18h.03-.03m.242-.02c.02 0 .037 0 .058-.01-.02.01-.04.01-.058.01m.24-.028c.03 0 .06 0 .092-.013-.03.012-.06.012-.092.012m.246-.023c.04-.01.08-.01.12-.02-.04.01-.08.01-.12.02m.247-.03c.05-.01.098-.01.146-.02-.048.01-.097.01-.146.02m.252-.03c.054-.01.11-.01.163-.02-.054.01-.11.01-.164.02m.255-.03l.182-.03-.182.03m.254-.03c.065-.01.13-.02.196-.028-.064.008-.13.018-.197.028m.26-.04l.208-.03-.21.03m.26-.042c.072-.01.144-.02.218-.027-.073.006-.147.016-.22.026m.26-.04c.08-.01.154-.02.234-.028l-.234.03m.254-.04c.084-.012.168-.02.252-.04-.084.018-.168.028-.252.04m.256-.04c7.944-1.31 15.14-4.79 20.97-9.81-5.83 5.02-13.026 8.5-20.97 9.81m20.973-9.81l.376-.33-.377.33m.386-.342c.06-.06.12-.11.18-.158-.06.05-.118.1-.18.158m.193-.168c.06-.063.118-.11.178-.162-.062.05-.12.1-.18.162m.19-.18c.06-.05.118-.1.178-.16-.058.06-.12.11-.177.16m.188-.17c.06-.05.115-.1.17-.15-.055.05-.112.1-.17.15m.19-.17c.058-.062.115-.11.17-.16-.055.05-.112.098-.17.16m.187-.18c.057-.05.11-.1.166-.15l-.165.15m.186-.17c.06-.062.116-.11.174-.17-.058.06-.115.11-.173.17m.186-.18c.056-.05.11-.1.164-.16-.055.06-.11.11-.164.16m.185-.182c.056-.05.11-.1.165-.158-.054.058-.11.11-.164.158m.183-.168l.183-.182c7.75-7.72 12.536-18.36 12.538-30.128-.002 11.77-4.788 22.41-12.538 30.128l-.183.182m.182-60.435c-.062-.06-.12-.122-.183-.182l.183.183m-.197-.195c-.058-.055-.112-.11-.168-.164.056.052.113.11.168.164m-.176-.173c-.06-.056-.117-.112-.177-.17l.177.17m-.186-.178c-.057-.056-.117-.113-.176-.167.06.054.118.11.176.167m-.187-.18l-.176-.165c.058.056.116.11.175.164m-.187-.173c-.058-.056-.12-.11-.178-.166.06.056.12.11.178.166m-.183-.17l-.183-.17.183.17m-.188-.174l-.184-.17c.06.058.123.114.184.17m-.19-.173c-.063-.057-.123-.113-.186-.168.063.056.124.108.185.167m-.187-.17C69.56 9.657 62.245 6.007 54.146 4.62c8.1 1.388 15.414 5.038 21.277 10.277m-21.29-10.28l-.243-.04.242.04m-.27-.045l-.232-.036c.076.01.154.024.23.036m-.27-.043l-.22-.036.22.035m-.267-.043l-.207-.03.207.03m-.273-.04l-.19-.028c.063.01.126.018.19.026m-.27-.038c-.06-.007-.118-.014-.178-.024.06.01.118.017.177.024m-.27-.037l-.163-.018c.053.005.107.012.162.02m-.27-.035c-.05-.006-.097-.01-.146-.018.05.006.097.01.145.017m-.276-.034c-.04-.005-.078-.008-.117-.014l.117.013m-.27-.03c-.035-.003-.068-.008-.104-.013.036.005.07.01.103.013m-.27-.03c-.027-.004-.056-.006-.082-.008l.083.007m-.27-.028c-.02 0-.038 0-.06-.005.02 0 .04.002.06.004m-.276-.025c-.004-.002-.008-.002-.01-.002h.01m-3.204-.18h-.002V.005h.003v4z"/><path fill="#D1D1D1" d="M47.673 93.207v-4c1.07-.02 2.13-.08 3.18-.18h.03c.07-.01.14-.01.212-.02.02 0 .04 0 .057-.01.063 0 .124-.012.184-.02.03 0 .062 0 .092-.012.052 0 .103-.01.154-.01.04-.01.078-.01.117-.02.042 0 .085 0 .128-.01.05-.01.098-.01.147-.02.034 0 .07-.01.104-.01.054-.01.11-.01.163-.02.03 0 .06-.01.092-.01l.183-.03h.07l.198-.03c.022 0 .04-.01.063-.01l.208-.03c.015 0 .032-.01.05-.01.07-.012.145-.02.218-.03.013 0 .025 0 .04-.01l.235-.03c.007 0 .013 0 .02-.01.084-.01.168-.02.252-.04h.004c7.943-1.31 15.142-4.79 20.97-9.81h.004l.377-.33c.004-.012.008-.012.01-.012.062-.06.12-.11.18-.158.005-.012.01-.012.013-.012.06-.06.117-.11.18-.16.002-.008.006-.008.012-.02.057-.05.117-.1.176-.158.004 0 .008 0 .013-.012.058-.05.115-.1.17-.15.008-.01.014-.02.022-.02.058-.06.113-.11.17-.16.006-.01.01-.01.017-.02.053-.05.11-.1.165-.15.006-.01.013-.02.02-.02.058-.06.114-.11.173-.17.004 0 .008 0 .013-.01.055-.05.11-.1.164-.16.01 0 .015-.01.02-.02.057-.05.112-.102.165-.16.005 0 .012-.01.018-.01l.183-.182c7.75-7.718 12.538-18.358 12.54-30.127-.007-11.764-4.795-22.403-12.545-30.12-.062-.062-.12-.12-.183-.18-.004-.006-.01-.01-.016-.016-.054-.055-.11-.11-.168-.164l-.007-.008-.175-.17c-.005-.002-.007-.006-.01-.01l-.177-.166-.01-.014-.175-.164-.013-.01c-.06-.056-.12-.11-.178-.166-.002-.003-.004-.004-.006-.005l-.18-.167c-.003-.002-.006-.002-.008-.006-.06-.055-.123-.11-.184-.168l-.008-.007c-.06-.056-.122-.11-.184-.164-.002-.003-.002-.005-.004-.005C69.56 9.66 62.245 6.01 54.146 4.62l-.015-.002-.24-.042-.03-.003c-.076-.013-.154-.026-.23-.037-.013-.003-.024-.006-.04-.007-.072-.013-.145-.025-.218-.036l-.05-.007-.207-.03-.065-.01-.19-.027-.08-.012-.176-.023c-.032-.004-.063-.008-.095-.014-.056-.005-.11-.013-.162-.018l-.11-.015c-.046-.006-.093-.01-.143-.018-.043-.006-.088-.01-.13-.017l-.117-.014c-.052-.006-.103-.01-.154-.018l-.103-.012-.167-.02-.082-.006-.187-.02-.06-.006-.216-.02h-.012c-1.054-.1-2.12-.16-3.193-.182v-4C52.87.1 57.86 1.034 62.512 2.68c18.14 6.422 31.13 23.66 31.13 43.928 0 25.45-20.484 46.12-45.926 46.6h-.045"/><path fill="#DFBF3F" d="M64.5 69.047H49.27v-21.7h20.84v16.09c-.002 3.09-2.525 5.61-5.61 5.61m-11.22-7.68v.44H64.5c.647-.01 1.164-.52 1.17-1.17-.006-.65-.522-1.16-1.17-1.17H53.28c-.646.01-1.162.52-1.172 1.17.01.65.525 1.16 1.172 1.17v-.44m0-5.61v.44H64.5c.647-.01 1.16-.52 1.17-1.17-.006-.65-.522-1.16-1.17-1.17H53.28c-.646.01-1.162.52-1.172 1.17.01.65.525 1.16 1.172 1.17v-.44m16.828-10.932h-20.84V24.18H64.5c3.084 0 5.607 2.52 5.607 5.607v15.038M53.28 33.293c-.646.01-1.162.523-1.172 1.172.01.648.525 1.162 1.172 1.174H64.5c.647-.01 1.164-.527 1.17-1.175-.006-.648-.522-1.163-1.17-1.172v.443-.443H53.28"/><path fill="#E8E8E8" d="M64.5 71.857H47.67V21.374H64.5c4.653 0 8.413 3.758 8.413 8.414v33.65c0 4.66-3.76 8.42-8.413 8.42m-15.23-24.51v21.7H64.5c3.084 0 5.608-2.52 5.608-5.61v-16.09h-20.84m0-23.168v20.645h20.84V29.788c0-3.086-2.523-5.607-5.607-5.607H49.27"/><path fill="#E8E8E8" d="M64.5 34.752H53.28l-.197-.087-.088-.2.088-.197.197-.088H64.5v-.443.443l.198.088.088.197-.088.2"/><path fill="#E8E8E8" d="M64.5 35.64H53.28c-.646-.013-1.162-.525-1.172-1.175.01-.647.525-1.162 1.172-1.172H64.5v.887H53.28l-.197.087-.088.197.088.2.197.087H64.5l.198-.087.088-.2-.088-.196-.197-.087v-.887c.647.01 1.163.524 1.17 1.172-.007.648-.523 1.164-1.17 1.174M53.28 55.758v-.442l-.197-.087-.088-.203.088-.2.197-.09H64.5l.198.09.088.2-.088.202-.197.086H53.28"/><path fill="#E8E8E8" d="M64.5 56.197H53.28v-.88H64.5l.198-.088.088-.202-.088-.2-.197-.09H53.28l-.197.09-.088.2.088.2.197.09v.88c-.646-.01-1.162-.52-1.172-1.17.01-.65.525-1.16 1.172-1.17H64.5c.647.01 1.163.52 1.17 1.17-.01.65-.523 1.16-1.17 1.17M53.28 61.367v-.44l-.197-.09-.088-.2.088-.2.197-.09H64.5l.198.09.088.2-.088.2-.197.09H53.28"/><path fill="#E8E8E8" d="M64.5 61.807H53.28v-.878H64.5l.198-.09.088-.202-.088-.2-.197-.09H53.28l-.197.09-.088.2.088.2.197.09v.88c-.646-.01-1.162-.52-1.172-1.17.01-.65.525-1.16 1.172-1.17H64.5c.647.01 1.163.52 1.17 1.17-.007.65-.523 1.16-1.17 1.17"/></svg>