<svg xmlns="http://www.w3.org/2000/svg" width="93.641" height="93.219" viewBox="0 0 93.641 93.219"><path fill="#A3F073" d="M91.644 46.62c0 24.63-20.068 44.602-44.826 44.602C22.066 91.222 2 71.25 2 46.622 2 21.97 22.066 2 46.817 2c24.758 0 44.827 19.97 44.827 44.62"/><path fill="#FFF" d="M4.3 47.89h14.606c.715 0 1.316-.588 1.4-1.37l1.61-14.86c.183-.687.75-1.17 1.43-1.187.642 0 1.212.46 1.412 1.118l3.785 30.032.04.21c.514 2.05 2.223 3.48 4.228 3.48 1.97-.042 3.66-1.542 4.12-3.65l.03-.17 3.23-29.83c.183-.69.753-1.17 1.433-1.19.643 0 1.21.46 1.412 1.12l3.78 30.03.04.21c.518 2.05 2.227 3.48 4.23 3.48 1.968-.042 3.66-1.542 4.116-3.65l.03-.17 3.234-29.83c.18-.69.75-1.17 1.434-1.19.64 0 1.21.46 1.413 1.12l3.784 30.04.034.2c.52 2.05 2.23 3.48 4.23 3.48 1.968-.042 3.664-1.542 4.12-3.65l.032-.17 1.472-13.6h13.354c.78 0 1.414-.69 1.414-1.552 0-.868-.633-1.56-1.414-1.56h-14.6c-.718 0-1.316.59-1.404 1.37l-1.61 14.86c-.182.69-.748 1.17-1.432 1.18-.64 0-1.21-.45-1.412-1.11l-3.78-30.027-.038-.213c-.52-2.05-2.23-3.48-4.235-3.48-1.966.04-3.658 1.54-4.115 3.65l-.027.17-3.24 29.83c-.18.69-.75 1.17-1.43 1.18-.64 0-1.208-.45-1.41-1.12L45.82 31.053l-.037-.212c-.517-2.05-2.226-3.48-4.234-3.48-1.968.04-3.657 1.54-4.116 3.64l-.03.183L34.17 61.01c-.18.69-.75 1.17-1.432 1.18-.64 0-1.21-.45-1.41-1.11l-3.785-30.038-.037-.2c-.518-2.05-2.227-3.48-4.232-3.48-1.968.04-3.66 1.54-4.118 3.64l-.03.182-1.47 13.59H4.298c-.776 0-1.412.7-1.412 1.56 0 .857.633 1.557 1.41 1.557"/><path fill="#7BB257" d="M47.513 89.22v-25.9c.8 1.22 2.107 1.99 3.577 1.99 1.968-.04 3.66-1.54 4.116-3.65l.03-.17 3.234-29.83c.18-.687.75-1.17 1.433-1.187.642 0 1.21.46 1.412 1.118L65.1 61.633l.034.2c.518 2.05 2.23 3.48 4.23 3.48 1.968-.042 3.663-1.542 4.12-3.65l.032-.17 1.472-13.6h13.354c.58 0 1.078-.38 1.298-.932-.092 11.63-4.86 22.14-12.537 29.78-5.07 5.04-11.4 8.83-18.48 10.84-.022.01-.042.02-.063.02-.054.02-.104.03-.157.04-.03.01-.063.02-.097.028-.043.01-.09.03-.134.04-.04.012-.08.02-.118.03-.043.01-.09.02-.132.04l-.12.03c-.044.01-.085.02-.128.028l-.13.03-.118.03c-.045.02-.093.03-.136.04l-.11.03-.146.028-.105.03-.15.03c-.033.01-.068.02-.104.028l-.15.03-.104.03-.152.028c-.034.01-.067.02-.102.02-.053.02-.104.03-.157.04-.033.01-.068.01-.103.02l-.152.03-.107.03-.146.03c-.04 0-.08.01-.118.02l-.142.03c-.037.01-.076.01-.113.02l-.147.03c-.038.01-.077.01-.116.02l-.142.03c-.04.01-.078.01-.117.02-.047.012-.095.02-.143.03-.04 0-.08.01-.122.02-.048.01-.093.01-.138.02-.04.012-.082.022-.123.022l-.14.03c-.04 0-.084.01-.127.02-.043 0-.084.01-.13.02-.042 0-.09.012-.135.022-.04.008-.082.008-.123.02-.048.01-.097.01-.146.02-.036.01-.075.01-.112.02-.05 0-.1.012-.146.022-.037 0-.077.008-.114.008-.05.012-.104.02-.154.03-.03 0-.064.01-.102.01-.054.01-.11.022-.166.022-.03.01-.06.01-.09.01l-.178.03c-.026 0-.052 0-.077.01-.062 0-.124.01-.187.02-.02 0-.05 0-.07.012-.066.01-.137.01-.2.02-.02 0-.03 0-.044.01-.077 0-.152.013-.228.02h-.023c-1.226.13-2.463.21-3.713.23-.058 0-.113.013-.164.013M69.29 62.19c-.64 0-1.21-.45-1.41-1.11l-3.782-30.028-.038-.212c-.52-2.05-2.23-3.48-4.235-3.48-1.967.04-3.658 1.54-4.115 3.65l-.027.17-3.24 29.83c-.18.69-.75 1.17-1.43 1.18-.64 0-1.208-.45-1.41-1.12l-2.09-16.588V4.012h.158c10.058.197 19.253 3.838 26.465 9.79h.002c.063.048.127.107.19.157.064.05.128.11.19.16h.002c.063.06.124.11.187.16.003 0 .005 0 .007.01.06.05.123.1.184.148.002.01.004.01.006.01.062.05.123.11.185.16h.006c.062.06.12.11.18.16.003.012.005.012.007.012.063.05.12.11.185.158.06.062.122.112.182.172h.008c.063.06.117.11.178.17.003 0 .01 0 .012.01.058.05.113.102.174.16.003 0 .01.01.015.01.06.052.112.102.168.16.004 0 .008.01.016.01.056.052.112.11.17.16.003 0 .01.012.012.012.057.06.112.108.166.158.012.012.023.02.034.03.05.05.1.1.146.15.01.01.02.01.03.02.05.05.1.102.15.15.058.06.117.12.178.18C84.65 24 89.39 34.29 89.634 45.69c-.224-.54-.716-.91-1.288-.91H73.734c-.716 0-1.313.59-1.402 1.37l-1.61 14.858c-.18.693-.748 1.172-1.43 1.18"/><path fill="#D8D8D8" d="M69.363 65.31c-2 0-3.71-1.43-4.23-3.48l-.032-.2-3.784-30.04c-.2-.66-.77-1.118-1.412-1.118-.684.02-1.254.5-1.434 1.188l-3.234 29.83-.028.17c-.457 2.11-2.15 3.61-4.117 3.65-1.468 0-2.778-.77-3.577-1.99V44.48l2.092 16.59c.2.67.77 1.12 1.41 1.12.68-.01 1.248-.49 1.43-1.182L55.68 31.18l.03-.17c.456-2.11 2.146-3.61 4.114-3.65 2.008 0 3.717 1.43 4.233 3.48l.037.21 3.784 30.03c.2.66.77 1.11 1.412 1.11.682-.01 1.25-.49 1.43-1.18l1.61-14.86c.09-.78.687-1.37 1.402-1.37H88.34c.573 0 1.065.37 1.288.91.08.2.125.42.125.648 0 .222-.04.432-.117.62-.22.552-.717.93-1.297.93H74.987l-1.473 13.6-.03.17c-.458 2.112-2.152 3.612-4.122 3.653"/></svg>