<svg xmlns="http://www.w3.org/2000/svg" width="93.641" height="93.219" viewBox="0 0 93.641 93.219"><path fill="#F06342" d="M91.644 46.62c0 24.63-20.067 44.602-44.826 44.602C22.068 91.222 2 71.25 2 46.62 2 21.97 22.067 2 46.817 2c24.76 0 44.827 19.97 44.827 44.62"/><path fill="#FFF" d="M39.896 41.57l-.146.15v3.158l.146.15h21.826l.15-.15V41.72l-.15-.15H39.896m-6.47-20.54h31.157c2.658 0 4.814 2.15 4.814 4.81V71c0 .66-.54 1.2-1.203 1.2H34.48c-.665 0-1.206-.54-1.206-1.2V21.18l.152-.15m6.47 28.07l-.146.15v3.16l.146.15h21.826l.15-.15v-3.16l-.15-.15H39.896m0 7.52l-.146.15v3.16l.146.158h21.826l.15-.16v-3.16l-.15-.148H39.896m-.075-24.53l-.148.15v4.21l.15.15h13.85l.147-.15v-4.21l-.148-.15h-13.85"/><path fill="#FFF" d="M38.694 21.03v13.24H25.45c-.664 0-1.204-.54-1.204-1.2v-7.23c0-2.658 2.184-4.81 4.815-4.81h9.634zm-8.88 2.25c-1.83 0-3.314 1.49-3.314 3.32v5.107c0 .172.137.3.303.3h6.32V26.6c.003-1.83-1.48-3.32-3.31-3.32"/><path fill="#D3543C" d="M47.513 89.22V72.2h20.683c.664 0 1.203-.54 1.203-1.2V25.84c0-2.66-2.157-4.81-4.817-4.81h-17.07V4.01h.16c5.113.1 10.006 1.09 14.525 2.82.005.01.013.01.02.01.067.03.137.05.206.08.013.01.025.01.037.02.064.02.128.05.193.07.017.01.032.01.05.02.062.03.123.05.185.07l.056.03c.058.02.116.04.176.07l.065.03.164.06c.023.01.05.03.074.04l.155.06c.028.01.056.02.082.04.05.02.103.04.15.06.028.01.06.03.09.042l.14.06c.034.02.066.03.1.04l.134.06c.034.02.07.03.104.05l.127.06c.035.01.072.03.11.05.04.01.082.03.123.05.037.02.074.04.11.05.04.022.078.04.12.062.037.02.076.04.115.05l.112.06.126.06c.034.01.066.03.1.04.046.03.093.05.138.07.03.02.064.03.097.05.046.02.093.04.14.07.028.01.06.02.085.04.052.022.104.05.153.07.024.02.05.03.074.04.053.03.106.06.16.08.02.01.044.02.065.04.058.03.113.05.17.08.02.01.037.022.056.03.063.03.122.07.183.1.016 0 .03.01.045.02.063.03.125.07.188.103.015.01.024.01.04.02.065.04.135.07.2.11.008 0 .017.01.022.01l.213.12h.013c1.66.91 3.254 1.93 4.772 3.05h.003l.204.15h.002l.203.15c.002 0 .002.01.004.01.065.05.134.1.2.15h.006l.196.15c.002.01.006.01.008.01.063.05.13.1.192.148.004 0 .01.01.013.01.063.05.127.1.188.15.003 0 .008 0 .012.01l.188.15c.005 0 .01 0 .016.01l.182.15c.007 0 .013.01.018.01l.185.15c.004 0 .008.01.015.01l.182.15c.005.01.012.01.016.01.062.06.12.11.184.16.004 0 .008 0 .014.01.063.05.12.1.18.15.008.01.012.01.02.02.06.05.117.1.175.15.008 0 .014.01.02.01.06.05.12.1.18.16.003 0 .008 0 .014.01.058.05.115.1.175.15.005.01.012.01.02.02.057.05.112.1.17.148.006.01.014.01.02.02.058.05.112.103.17.15.007.012.015.012.02.02.06.05.116.103.172.16.007 0 .013.01.02.01.057.052.114.11.172.16.006.01.01.01.015.01.057.062.113.112.17.16.006.01.012.01.018.022.057.05.113.11.168.16.007 0 .014.01.02.02.058.05.116.11.175.16.005.01.007.01.01.01.06.06.118.11.178.17.002 0 .004.01.008.01.057.05.11.11.168.16.004.01.01.01.016.02l.182.18c7.75 7.72 12.537 18.36 12.54 30.13-.003 11.76-4.79 22.4-12.54 30.12l-.182.18c-.007 0-.014.012-.02.022-.054.05-.107.1-.163.16-.007 0-.014.01-.02.02-.057.05-.11.103-.165.162-.004 0-.008 0-.012.008-.06.05-.115.11-.174.16-.006.01-.014.01-.02.02-.056.05-.11.11-.167.16-.007 0-.01.012-.017.012-.057.06-.113.108-.172.16-.005.01-.01.01-.02.02-.055.05-.11.1-.17.16-.004 0-.008 0-.012.01-.06.05-.117.1-.178.16-.004 0-.008.01-.012.01-.06.05-.12.11-.18.16-.003 0-.007.01-.012.01-.06.05-.12.11-.18.16-.003 0-.008.01-.012.01-.125.11-.252.222-.377.33h-.007c-5.828 5.02-13.024 8.51-20.97 9.82h-.004c-.084.01-.168.02-.252.04h-.02c-.08.01-.155.03-.234.04h-.04c-.074.01-.146.03-.22.04h-.05l-.208.03c-.02.01-.04.01-.063.01l-.198.03c-.023 0-.048 0-.07.01-.063.01-.122.01-.184.02-.03.01-.062.01-.092.01-.054.012-.108.022-.164.022-.035.01-.07.01-.104.02-.05 0-.1.01-.146.01-.043.01-.085.01-.128.022-.04 0-.08.01-.118.01-.05.01-.104.01-.153.02-.03 0-.06 0-.093.01-.06 0-.12.01-.183.022H51.1c-.072.01-.145.02-.214.02-.012 0-.02 0-.03.01-1.048.09-2.11.15-3.18.17-.057-.016-.11-.005-.163-.005"/><path fill="#D18B7A" d="M61.723 60.09h-14.21v-3.47h14.21l.15.15v3.16l-.15.16zm0-7.53h-14.21V49.1h14.21l.15.15v3.16l-.15.15m0-7.53h-14.21v-3.46h14.21l.15.15v3.158l-.15.153M53.67 36.6h-6.156v-4.51h6.157l.15.15v4.21l-.15.15"/><path fill="#D8D8D8" d="M68.194 72.2h-20.68V60.09H61.72l.15-.16v-3.16l-.15-.15h-14.21v-4.06h14.21l.15-.15v-3.16l-.15-.148h-14.21v-4.068h14.21l.15-.15v-3.16l-.15-.15h-14.21V36.6h6.16l.146-.15v-4.21l-.147-.15h-6.157V21.03h17.07c2.657 0 4.813 2.15 4.813 4.81V71c0 .66-.538 1.2-1.202 1.2"/></svg>