<svg xmlns="http://www.w3.org/2000/svg" width="93.64" height="93.218" viewBox="0 0 93.64 93.218"><path fill="#7ACC78" d="M91.644 46.608c0 24.64-20.068 44.61-44.826 44.61C22.066 91.217 2 71.247 2 46.607S22.066 2 46.817 2c24.758 0 44.827 19.97 44.827 44.608"/><path fill="#FFF" d="M91.644 46.608H89.64c0 11.77-4.785 22.41-12.537 30.13-7.755 7.71-18.45 12.48-30.285 12.48-11.832 0-22.526-4.77-30.28-12.48C8.79 69.017 4 58.377 4 46.607 4 34.84 8.788 24.2 16.538 16.482 24.29 8.767 34.985 4.002 46.818 4 58.65 4 69.347 8.766 77.1 16.48 84.852 24.2 89.64 34.84 89.64 46.608h4.001C93.64 20.856 72.673 0 46.818 0 20.97 0 .002 20.856 0 46.608c.002 25.75 20.97 46.61 46.817 46.61 25.854 0 46.82-20.86 46.823-46.61h-1.996"/><path fill="#DEDEDE" d="M93.642 46.608h-4c0 11.77-4.787 22.41-12.54 30.13-7.566 7.52-17.936 12.25-29.43 12.47v4c25.46-.45 45.968-21.14 45.97-46.6M47.672.008v4c11.494.224 21.863 4.944 29.43 12.475 7.75 7.718 12.54 18.356 12.54 30.126h4c0-25.467-20.51-46.15-45.97-46.603"/><path fill="#FFF" d="M77.213 21.375h-18.88c-6.176 0-9.196 1.452-10.665 2.962-1.462-1.51-4.484-2.962-10.66-2.962H18.125c-.9 0-1.623.737-1.623 1.64v44.693c0 .91.723 1.64 1.623 1.64H37.008c3.985 0 7.967 1.7 8.004 1.91h.026c.808.61.813.6 1.623.6h2.16c.824 0 .865.01 1.6-.76.133-.23 4.248-1.75 7.91-1.75H77.214c.9 0 1.627-.74 1.627-1.64V23.015c0-.903-.724-1.64-1.627-1.64M45.22 27.313v40.924s-3.462-1.91-8.137-1.91H19.79V24.403h17.293c9.048 0 8.138 2.91 8.138 2.91m8.866 9.21h14.406v1.974H54.086v-1.973zM68.493 54.29H54.087v-1.97h14.406v1.97zm0-3.95H54.087v-1.97h14.406v1.97zm0-3.94H54.087V44.42h14.406v1.977zm0-3.954H54.087V40.47h14.406v1.974z"/><path fill="#FFF" d="M25.127 44.42h14.406V46.4H25.127zM31.43 36.524h8.104V38.5H31.43zM25.127 40.472h14.406v1.975H25.127zM25.127 48.368h14.406v1.97H25.127zM25.127 52.317h14.406v1.97H25.127z"/><path fill="#D85662" d="M46.803 94.917v-1.7h.015c.285 0 .57 0 .854-.01v1.69c-.29.01-.58.01-.87.02"/><path fill="#70B76C" d="M46.816 89.218h-.014v-17.36h2.094c.75 0 .813-.01 1.524-.76.132-.23 4.248-1.75 7.91-1.75H77.212c.9 0 1.627-.74 1.627-1.64V23.015c0-.9-.725-1.64-1.628-1.64h-18.88c-6.176 0-9.196 1.453-10.664 2.96-.245-.25-.53-.5-.866-.74V4h.014c.285 0 .57 0 .855.007 1.074.022 2.136.082 3.19.18.006.002.012.002.018.002l.21.02.065.005c.06.008.12.015.182.02l.09.01c.052.006.11.01.162.018l.106.012.148.018c.04.004.08.008.122.014l.127.016.148.018.103.015.167.02c.033 0 .06.005.093.01l.18.024.076.01.193.028.062.008.21.03.046.01c.073.01.147.02.224.033.01 0 .024.003.036.005.078.01.156.025.234.038.008 0 .016.002.022.004.082.014.166.027.246.042h.012c8.1 1.39 15.414 5.037 21.278 10.276 0 0 0 .002.003.004l.184.165.01.006.18.167c.002.002.006.004.008.008l.183.166.008.007c.056.055.114.11.174.164l.013.014c.06.055.117.11.176.166.004.003.008.006.01.01l.18.17c0 .002.003.004.005.006l.17.166c.006.003.01.01.017.013.055.054.11.11.168.164l.014.015c.06.06.12.117.18.18 7.75 7.717 12.54 18.355 12.54 30.125s-4.787 22.41-12.54 30.13l-.18.18c-.006 0-.012.01-.018.01-.056.06-.11.11-.164.16-.01.01-.02.02-.026.03l-.16.15c-.004.01-.006.01-.007.01-.06.06-.12.11-.177.17-.006 0-.015.01-.02.02-.057.05-.11.1-.17.15-.005.01-.01.01-.014.02-.06.05-.115.11-.17.16-.01 0-.018.01-.023.02-.054.05-.11.1-.168.15-.007.012-.012.012-.018.02l-.172.15c-.004.01-.01.01-.015.02-.058.05-.12.1-.178.16-.004 0-.007 0-.01.01-.063.05-.122.102-.184.16h-.008c-.127.12-.252.23-.38.34-5.89 5.07-13.184 8.58-21.23 9.852-.006.01-.01.01-.016.01l-.238.03c-.013.01-.024.01-.035.01-.074.01-.15.02-.226.028-.013.012-.027.012-.044.012l-.213.03c-.02 0-.04.01-.056.01-.07.01-.135.02-.203.028h-.067c-.062.012-.125.02-.187.03-.03 0-.06.01-.086.01-.06.01-.114.01-.17.02-.033 0-.067.01-.1.01-.052.01-.102.01-.152.022-.04.01-.082.01-.123.01-.042.01-.083.01-.124.02-.052 0-.103.01-.15.01-.032.012-.063.012-.096.012-.062.008-.12.018-.18.018-.02.01-.042.01-.064.01-.068.012-.138.012-.207.02h-.036c-1.047.1-2.104.16-3.174.18-.283.006-.568.006-.854.006"/><path fill="#E8E8E8" d="M46.817 93.218h-.014v-4h.014c.285 0 .57 0 .855-.01v4c-.284.01-.57.01-.855.01m4.03-4.19h.035-.035m.24-.02c.023 0 .045 0 .064-.01-.018.01-.04.01-.062.01m.242-.03c.033 0 .065 0 .097-.01-.03.01-.064.01-.097.01m.246-.02c.04-.01.082-.01.123-.02-.042.01-.083.01-.124.02m.246-.03c.05-.01.103-.01.153-.02-.05.01-.102.01-.153.02m.252-.03c.058-.01.112-.01.17-.02-.057.01-.112.01-.17.02m.256-.03l.188-.03-.188.03m.254-.03l.203-.03-.203.03m.26-.04l.214-.03-.213.03m.258-.04c.074-.01.15-.02.224-.028-.075.007-.148.017-.224.027m.258-.04c.082-.01.16-.02.24-.028-.08.008-.158.018-.24.028m.255-.04c8.045-1.27 15.338-4.78 21.23-9.85-5.892 5.07-13.183 8.58-21.23 9.85m21.232-9.85c.127-.11.252-.22.38-.34-.128.12-.253.23-.38.34m.386-.34c.06-.06.12-.11.18-.16-.06.05-.118.1-.18.16m.194-.17c.058-.062.118-.11.178-.16-.06.05-.12.1-.178.16m.19-.18l.172-.15-.173.15m.19-.17l.17-.15-.17.15m.19-.17c.057-.05.11-.11.17-.16-.06.05-.113.11-.17.16m.186-.18c.056-.05.11-.1.168-.15l-.167.15m.186-.17c.06-.06.116-.11.175-.17-.06.06-.116.11-.176.17m.184-.18l.16-.15-.16.15m.184-.18c.055-.05.11-.1.164-.16-.053.06-.11.11-.164.16m.182-.17l.183-.18c7.752-7.72 12.54-18.36 12.54-30.13 0 11.77-4.788 22.41-12.54 30.13l-.183.18m.183-60.436c-.062-.062-.12-.12-.183-.18.06.06.12.12.183.18m-.197-.194l-.168-.164c.055.055.113.108.168.164m-.182-.177l-.17-.164.17.165m-.176-.17l-.18-.172c.06.057.118.115.18.172m-.19-.18l-.176-.166.176.166m-.19-.18c-.06-.053-.116-.108-.174-.163.058.055.115.11.174.164m-.182-.17l-.18-.165.18.166m-.188-.173l-.183-.166c.062.056.12.112.183.167m-.19-.172c-.06-.056-.124-.11-.184-.165l.184.165m-.188-.17C69.558 9.658 62.242 6.01 54.144 4.62c8.098 1.387 15.414 5.037 21.276 10.276M54.132 4.62c-.08-.016-.164-.03-.246-.043l.246.042m-.27-.047c-.08-.013-.157-.027-.235-.038.078.01.156.026.234.038m-.267-.043c-.076-.013-.15-.025-.226-.035.075.01.15.023.226.035m-.27-.043l-.212-.03.212.03m-.272-.04c-.065-.01-.13-.02-.193-.027l.193.028m-.273-.04l-.177-.023.177.024m-.268-.038c-.057-.008-.112-.015-.167-.02.054.005.11.012.166.02m-.272-.035l-.147-.018c.052.005.098.01.148.017m-.275-.033c-.04-.006-.08-.01-.12-.014.04.004.08.008.12.014m-.27-.032l-.107-.012c.037.005.072.01.107.012m-.268-.03c-.03-.003-.06-.005-.09-.01.028.005.06.007.09.01m-.273-.028l-.064-.006.064.006m-.275-.026c-.006 0-.012 0-.017-.002.005.002.01.002.017.002m-3.204-.18c-.285-.007-.57-.01-.855-.01h-.014V0h.014c.285 0 .57 0 .855.007v4"/><path fill="#D1D1D1" d="M47.673 93.208v-4c1.067-.02 2.127-.08 3.174-.18h.035c.067-.01.14-.01.206-.02.022 0 .044 0 .063-.01.06 0 .12-.01.18-.02.033 0 .065 0 .097-.01.05 0 .1-.01.15-.01.04-.01.08-.01.122-.02.04 0 .08 0 .122-.01.05-.013.103-.013.153-.022.033 0 .065-.01.1-.01.057-.01.11-.01.17-.02.027 0 .057-.01.085-.01l.188-.03h.065l.203-.03c.02 0 .037-.01.058-.01l.213-.03c.015 0 .03 0 .045-.01.076-.01.15-.02.224-.028.012 0 .024 0 .035-.012l.24-.03c.006 0 .01 0 .015-.01 8.047-1.27 15.338-4.78 21.23-9.85.128-.11.253-.22.38-.34h.008c.062-.06.12-.11.18-.16.005-.01.01-.01.014-.01.058-.062.118-.11.178-.16.004-.01.01-.01.013-.02.058-.052.116-.1.172-.15.006-.01.013-.01.02-.02.055-.052.11-.1.167-.15.006-.01.013-.02.02-.02.06-.052.113-.11.17-.16.005-.01.012-.01.018-.02.056-.052.11-.1.168-.15.006-.01.013-.02.02-.02.06-.062.116-.112.175-.17.003 0 .005 0 .01-.01.052-.052.105-.1.158-.15.01-.01.017-.02.025-.032.056-.05.11-.1.165-.158.006 0 .012-.012.018-.012l.183-.18c7.752-7.72 12.54-18.36 12.54-30.13S84.852 24.2 77.102 16.483c-.062-.062-.12-.12-.183-.18l-.014-.013c-.056-.06-.113-.112-.168-.168-.005-.003-.01-.01-.015-.012l-.17-.166-.006-.005-.18-.172-.01-.01c-.06-.056-.118-.11-.176-.167l-.014-.012c-.06-.053-.116-.108-.174-.163l-.008-.005-.18-.168-.01-.007c-.06-.057-.12-.11-.182-.166l-.007-.007c-.06-.057-.122-.11-.184-.165 0-.002 0-.003-.004-.004C69.558 9.657 62.242 6.007 54.144 4.62l-.012-.002-.246-.042c-.01 0-.017-.003-.024-.003l-.234-.04c-.012 0-.024-.003-.034-.004-.076-.013-.15-.025-.226-.036l-.045-.007-.21-.03-.063-.01c-.065-.01-.13-.02-.193-.027-.026-.005-.053-.008-.08-.012l-.176-.023c-.03-.005-.06-.01-.09-.013-.057-.008-.112-.015-.167-.02l-.104-.015c-.05-.006-.098-.01-.148-.018-.043-.007-.084-.01-.128-.017-.04-.006-.08-.01-.12-.014-.05-.007-.1-.012-.15-.02-.034-.002-.07-.007-.106-.01-.053-.01-.108-.014-.16-.02-.032-.003-.063-.005-.092-.01-.06-.004-.12-.01-.182-.02l-.064-.005-.21-.02c-.007 0-.013 0-.018-.002-1.053-.098-2.116-.157-3.188-.18v-4C53.07.1 58.244 1.105 63.05 2.87 80.903 9.443 93.64 26.54 93.64 46.608c-.002 25.46-20.51 46.15-45.97 46.6"/><path fill="#8BC48A" d="M68.493 54.288H54.087v-1.97h14.406v1.97zm0-3.95H54.087v-1.97h14.406v1.97zm0-3.94H54.087V44.42h14.406v1.977zm0-3.954H54.087V40.47h14.406v1.974zm0-3.947H54.087v-1.973h14.406v1.973z"/><path fill="#E8E8E8" d="M48.896 71.858h-2.093V23.596c.336.24.62.49.865.74 1.47-1.51 4.49-2.96 10.665-2.96h18.88c.903 0 1.627.736 1.627 1.64v44.692c0 .9-.727 1.64-1.628 1.64h-18.88c-3.664 0-7.78 1.52-7.912 1.75-.71.75-.774.76-1.524.76m5.19-17.57h14.406v-1.97H54.086v1.97zm0-3.95h14.406v-1.97H54.086v1.97zm0-3.94h14.406V44.42H54.086v1.977zm0-3.954h14.406V40.47H54.086v1.974zm0-3.947h14.406v-1.973H54.086v1.973z"/></svg>