<?xml version="1.0" encoding="utf-8"?>
<!-- Generator: Adobe Illustrator 16.0.0, SVG Export Plug-In . SVG Version: 6.00 Build 0)  -->
<!DOCTYPE svg PUBLIC "-//W3C//DTD SVG 1.1//EN" "http://www.w3.org/Graphics/SVG/1.1/DTD/svg11.dtd">
<svg version="1.1" id="Layer_1" xmlns="http://www.w3.org/2000/svg" xmlns:xlink="http://www.w3.org/1999/xlink" x="0px" y="0px"
	 width="93.64px" height="93.218px" viewBox="0 0 93.64 93.218" enable-background="new 0 0 93.64 93.218" xml:space="preserve">
<g>
	<path fill="#A475EF" d="M91.639,46.62c0,24.63-20.067,44.601-44.817,44.601C22.069,91.221,2,71.25,2,46.62
		C2,21.97,22.069,2,46.821,2C71.571,2,91.639,21.97,91.639,46.62"/>
	<path fill="#FFFFFF" d="M91.639,46.62h-2c0,11.761-4.778,22.399-12.538,30.12c-7.75,7.709-18.449,12.48-30.279,12.48
		s-22.528-4.771-30.284-12.48C8.787,69.02,4.002,58.381,4.002,46.62c0-11.77,4.785-22.419,12.535-30.13
		C24.293,8.771,34.991,4,46.821,4s22.529,4.77,30.279,12.49c7.76,7.72,12.538,18.36,12.538,30.13H91.639h2
		C93.639,20.86,72.67,0,46.821,0C20.969,0,0.002,20.86,0,46.62c0.004,25.739,20.969,46.601,46.821,46.601
		c25.849,0,46.817-20.861,46.817-46.601H91.639"/>
	<path fill="#DEDEDE" d="M93.64,46.62h-2h-2c0,11.761-4.78,22.399-12.539,30.12C69.539,84.27,59.17,88.99,47.67,89.209v4
		C73.129,92.76,93.64,72.08,93.64,46.62 M47.67,0.01v4c11.5,0.23,21.869,4.95,29.431,12.48c7.759,7.72,12.539,18.361,12.539,30.13h2
		h2C93.64,21.151,73.129,0.46,47.67,0.01"/>
	<path fill="#FFFFFF" d="M50.949,46.61c6.222-3.88,19.371-13.48,19.371-25.17c0-1.15-0.94-2.08-2.092-2.08
		c-1.147,0-2.078,0.93-2.078,2.08c0,6.37-5.39,12.3-9.92,16.159c-3.801,3.251-7.66,5.621-9.41,6.631
		c-1.75-1.01-5.601-3.38-9.409-6.631c-4.523-3.859-9.919-9.789-9.919-16.159c0-1.15-0.932-2.08-2.081-2.08
		c-1.15,0-2.082,0.93-2.082,2.08c0,11.69,13.141,21.29,19.36,25.17C36.47,50.5,23.326,60.1,23.326,71.791
		c0,1.148,0.933,2.08,2.085,2.08c1.149,0,2.081-0.932,2.081-2.08c0-6.371,5.394-12.311,9.919-16.17
		C41.21,52.381,45.07,50.01,46.82,49c1.75,1.01,5.609,3.381,9.41,6.621c4.53,3.859,9.92,9.799,9.92,16.17
		c0,1.148,0.931,2.08,2.078,2.08c1.151,0,2.092-0.932,2.092-2.08C70.32,60.1,57.171,50.5,50.949,46.61"/>
	<path fill="#FFFFFF" d="M52.219,39.25L41.53,39.33c2.979,2.1,5.291,3.32,5.291,3.32S49.19,41.4,52.219,39.25"/>
	<path fill="#FFFFFF" d="M57.52,34.97H36.129c1,0.94,2.032,1.811,3.041,2.601h15.312C55.481,36.781,56.51,35.91,57.52,34.97"/>
	<path fill="#FFFFFF" d="M61.479,30.6H32.165c0.677,0.911,1.418,1.78,2.195,2.61h24.92C60.059,32.38,60.799,31.511,61.479,30.6"/>
	<path fill="#FFFFFF" d="M64.02,26.241H29.624c0.371,0.9,0.826,1.76,1.345,2.61H62.67C63.2,28,63.651,27.141,64.02,26.241"/>
	<path fill="#FFFFFF" d="M64.629,24.49c0.24-0.86,0.392-1.729,0.441-2.61h-36.5c0.055,0.88,0.207,1.75,0.444,2.61H64.629"/>
	<path fill="#FFFFFF" d="M41.42,54.141l10.689-0.08c-2.97-2.1-5.289-3.32-5.289-3.32S44.449,51.99,41.42,54.141"/>
	<path fill="#FFFFFF" d="M36.129,58.43h21.392c-1.01-0.939-2.039-1.811-3.039-2.609H39.17C38.16,56.619,37.129,57.49,36.129,58.43"
		/>
	<path fill="#FFFFFF" d="M32.164,62.789h29.314c-0.679-0.908-1.419-1.779-2.199-2.6H34.361
		C33.582,61.01,32.843,61.881,32.164,62.789"/>
	<path fill="#FFFFFF" d="M29.623,67.15H64.02c-0.369-0.891-0.82-1.76-1.349-2.6H30.97C30.449,65.391,29.994,66.26,29.623,67.15"/>
	<path fill="#FFFFFF" d="M29.012,68.91c-0.233,0.85-0.387,1.721-0.44,2.6h36.5c-0.051-0.879-0.202-1.75-0.442-2.6H29.012"/>
	<path fill="#8D6AD3" d="M46.82,89.221V71.51h18.25c-0.051-0.879-0.2-1.75-0.44-2.6H46.82v-1.76H64.02
		c-0.369-0.891-0.819-1.76-1.349-2.6H46.82v-1.76h14.658c-0.679-0.91-1.42-1.781-2.199-2.602H46.82v-1.76H57.52
		c-1.01-0.939-2.039-1.809-3.039-2.609h-7.66V54.1l5.289-0.039c-2.971-2.1-5.289-3.32-5.289-3.32V49
		c1.75,1.011,5.609,3.381,9.41,6.621c4.529,3.859,9.92,9.799,9.92,16.17c0,1.148,0.931,2.08,2.078,2.08
		c1.151,0,2.092-0.932,2.092-2.08C70.32,60.1,57.171,50.5,50.95,46.61c6.221-3.88,19.37-13.48,19.37-25.17
		c0-1.15-0.94-2.08-2.092-2.08c-1.147,0-2.078,0.93-2.078,2.08c0,6.37-5.391,12.3-9.92,16.159c-3.801,3.251-7.66,5.621-9.41,6.631
		v-0.01v-1.57c0,0,2.369-1.25,5.398-3.4l-5.398,0.04v-1.719h7.66c1-0.79,2.029-1.661,3.039-2.601H46.82v-1.76h12.459
		c0.779-0.83,1.521-1.7,2.199-2.61H46.82v-1.75h15.851c0.529-0.85,0.979-1.71,1.349-2.61H46.82v-1.75h17.81
		c0.24-0.86,0.39-1.729,0.44-2.61H46.82V4c0.289,0,0.568,0.01,0.851,0.01c7.979,0.16,15.42,2.479,21.75,6.399
		c0.009,0.01,0.019,0.02,0.039,0.03c0.041,0.03,0.09,0.06,0.14,0.08c0.021,0.02,0.051,0.04,0.071,0.051
		c0.039,0.028,0.08,0.049,0.119,0.079c0.03,0.02,0.069,0.04,0.099,0.06c0.041,0.02,0.071,0.05,0.112,0.071
		c0.028,0.019,0.069,0.04,0.099,0.069c0.039,0.02,0.071,0.04,0.101,0.06c0.041,0.03,0.079,0.05,0.12,0.08
		c0.029,0.021,0.06,0.041,0.091,0.06c0.039,0.03,0.08,0.05,0.118,0.08c0.029,0.02,0.062,0.04,0.091,0.06
		c0.041,0.02,0.09,0.05,0.131,0.08c0.019,0.02,0.049,0.03,0.069,0.051c0.05,0.028,0.091,0.059,0.14,0.099
		c0.019,0.011,0.05,0.03,0.069,0.04c0.052,0.04,0.091,0.071,0.142,0.1c0.019,0.02,0.048,0.03,0.07,0.04
		c0.049,0.04,0.09,0.07,0.139,0.11c0.021,0.01,0.041,0.03,0.06,0.04c0.052,0.031,0.101,0.071,0.151,0.1
		c0.019,0.02,0.039,0.03,0.06,0.05c0.05,0.029,0.101,0.07,0.149,0.1c0.021,0.02,0.041,0.031,0.06,0.04
		c0.052,0.04,0.101,0.08,0.15,0.11c0.02,0.02,0.04,0.031,0.061,0.04c0.05,0.04,0.091,0.08,0.14,0.11
		c0.019,0.021,0.041,0.03,0.06,0.04c0.051,0.04,0.101,0.08,0.151,0.11c0.019,0.02,0.039,0.03,0.048,0.04
		c0.061,0.041,0.112,0.081,0.161,0.12c0.009,0.01,0.031,0.02,0.05,0.04c0.049,0.04,0.1,0.07,0.151,0.11
		c0.019,0.021,0.028,0.03,0.049,0.04c0.05,0.04,0.099,0.08,0.149,0.12c0.021,0.011,0.041,0.02,0.052,0.04
		c0.049,0.04,0.099,0.08,0.147,0.111c0.022,0.019,0.041,0.029,0.051,0.039c0.062,0.04,0.109,0.08,0.16,0.12
		c0.011,0.02,0.029,0.03,0.039,0.04c0.051,0.04,0.112,0.08,0.16,0.119c0.012,0.011,0.032,0.031,0.041,0.04
		c0.049,0.041,0.11,0.081,0.161,0.121c0.009,0.021,0.029,0.03,0.039,0.04c0.05,0.04,0.099,0.08,0.16,0.13
		c0.01,0.01,0.019,0.02,0.041,0.03c0.049,0.04,0.099,0.09,0.147,0.13c0.022,0.01,0.031,0.02,0.041,0.03
		c0.062,0.05,0.11,0.09,0.16,0.14c0.01,0.01,0.03,0.021,0.039,0.03c0.051,0.04,0.102,0.08,0.161,0.13
		c0.009,0.01,0.021,0.02,0.031,0.03c0.058,0.05,0.108,0.09,0.159,0.14c0.011,0.01,0.029,0.02,0.039,0.03
		c0.052,0.041,0.101,0.09,0.16,0.14c0.01,0.01,0.021,0.01,0.03,0.021c0.05,0.049,0.111,0.099,0.16,0.139
		c0.009,0.01,0.019,0.02,0.031,0.03c0.049,0.05,0.108,0.1,0.159,0.14c0.011,0.009,0.021,0.02,0.029,0.03
		c0.062,0.05,0.11,0.101,0.161,0.14c0.009,0.01,0.019,0.021,0.029,0.03c0.06,0.05,0.108,0.101,0.159,0.15
		c0.011,0.01,0.021,0.02,0.029,0.02c0.051,0.05,0.112,0.1,0.16,0.15c0.01,0.01,0.022,0.02,0.032,0.029
		c0.049,0.051,0.108,0.102,0.16,0.151c0.01,0.01,0.019,0.01,0.028,0.02c0.052,0.05,0.101,0.1,0.16,0.15
		c0.01,0.01,0.01,0.02,0.021,0.031c0.06,0.049,0.108,0.099,0.17,0.159c0,0,0.01,0.01,0.019,0.01c0.051,0.06,0.112,0.11,0.16,0.16
		c0.01,0.01,0.01,0.01,0.022,0.02c0.059,0.049,0.108,0.11,0.17,0.16c0,0.01,0.01,0.01,0.01,0.02c0.058,0.06,0.119,0.119,0.179,0.18
		c7.76,7.72,12.539,18.36,12.539,30.13c0,11.76-4.779,22.399-12.539,30.12c-0.06,0.061-0.121,0.119-0.179,0.18
		c0,0.01-0.01,0.01-0.021,0.02c-0.051,0.051-0.101,0.102-0.159,0.16c-0.013,0.01-0.022,0.021-0.031,0.021
		c-0.049,0.049-0.101,0.109-0.151,0.16c-0.009,0-0.019,0.01-0.019,0.01c-0.062,0.059-0.11,0.109-0.17,0.16
		c-0.011,0.01-0.021,0.02-0.029,0.029c-0.051,0.051-0.1,0.1-0.161,0.15l-0.019,0.02c-0.052,0.051-0.111,0.1-0.16,0.15
		c-0.01,0.01-0.022,0.02-0.032,0.029c-0.048,0.041-0.109,0.1-0.16,0.141c-0.009,0.01-0.009,0.02-0.019,0.02
		c-0.062,0.051-0.11,0.109-0.17,0.16c-0.011,0-0.021,0.01-0.021,0.02c-0.06,0.051-0.108,0.1-0.17,0.15
		c-0.009,0-0.009,0.01-0.019,0.02c-0.062,0.051-0.111,0.1-0.17,0.15c-0.013,0-0.022,0.01-0.022,0.02
		c-0.058,0.051-0.119,0.1-0.169,0.15c-0.01,0-0.021,0.01-0.021,0.01c-0.061,0.051-0.118,0.1-0.18,0.15c0,0.01-0.009,0.02-0.019,0.02
		c-0.062,0.051-0.112,0.1-0.17,0.15C74.65,79,74.65,79,74.639,79c-0.058,0.061-0.119,0.109-0.179,0.16l-0.01,0.01
		c-0.062,0.051-0.13,0.1-0.19,0.15c0,0.01,0,0.01-0.009,0.01c-0.062,0.051-0.121,0.1-0.181,0.16c-0.012,0-0.012,0-0.021,0.01
		c-0.059,0.051-0.12,0.1-0.18,0.15c-0.011,0-0.011,0-0.011,0.01c-0.069,0.051-0.131,0.1-0.188,0.15c-0.01,0-0.01,0.01-0.01,0.01
		c-0.07,0.051-0.132,0.1-0.201,0.15v0.01c-0.071,0.051-0.129,0.1-0.2,0.15v0.008c-5.06,3.951-11.031,6.791-17.541,8.162H55.71
		c-0.08,0.02-0.17,0.039-0.25,0.049c-0.01,0.01-0.01,0.01-0.021,0.01c-0.08,0.012-0.16,0.029-0.239,0.051h-0.029
		c-0.071,0.02-0.151,0.029-0.231,0.051h-0.028c-0.08,0.02-0.151,0.029-0.231,0.039c-0.009,0.01-0.019,0.01-0.041,0.01
		c-0.068,0.021-0.138,0.031-0.209,0.041c-0.019,0-0.041,0.01-0.06,0.01c-0.07,0.01-0.129,0.029-0.199,0.039
		c-0.021,0-0.041,0-0.062,0.01c-0.069,0.012-0.129,0.021-0.198,0.031c-0.022,0-0.052,0.01-0.07,0.01
		c-0.062,0.01-0.122,0.02-0.19,0.029c-0.021,0.01-0.051,0.01-0.08,0.021c-0.061,0-0.11,0.01-0.17,0.02
		c-0.041,0.01-0.069,0.01-0.101,0.02c-0.049,0.01-0.11,0.01-0.161,0.02c-0.039,0.01-0.068,0.01-0.109,0.021
		c-0.049,0-0.1,0.01-0.149,0.02c-0.039,0-0.08,0.01-0.12,0.01c-0.041,0.01-0.089,0.02-0.14,0.02c-0.039,0.01-0.08,0.02-0.119,0.02
		c-0.051,0.01-0.09,0.01-0.131,0.021c-0.05,0-0.101,0.01-0.14,0.02c-0.041,0-0.08,0-0.121,0.01c-0.051,0.01-0.1,0.01-0.149,0.02
		c-0.039,0-0.071,0.01-0.101,0.01c-0.06,0.01-0.118,0.01-0.17,0.021c-0.028,0-0.051,0.01-0.08,0.01
		c-0.06,0.01-0.129,0.01-0.198,0.02h-0.052c-0.069,0.01-0.141,0.02-0.221,0.029H51.12c-1.129,0.111-2.289,0.18-3.449,0.201
		C47.389,89.221,47.109,89.221,46.82,89.221"/>
	<path fill="#D8D8D8" d="M46.82,93.219v-3.998c0.289,0,0.569,0,0.851-0.01v4C47.39,93.219,47.109,93.219,46.82,93.219 M51.119,89.01
		h0.021H51.119 M51.359,88.98h0.051H51.359 M51.609,88.961c0.03,0,0.051-0.01,0.08-0.01C51.66,88.951,51.64,88.961,51.609,88.961
		 M51.859,88.93c0.03,0,0.062-0.01,0.1-0.01C51.931,88.92,51.89,88.93,51.859,88.93 M52.109,88.9c0.041-0.01,0.08-0.01,0.121-0.01
		C52.189,88.891,52.15,88.891,52.109,88.9 M52.369,88.871c0.041-0.01,0.08-0.01,0.131-0.021
		C52.449,88.861,52.41,88.861,52.369,88.871 M52.619,88.83c0.052,0,0.101-0.01,0.142-0.02C52.72,88.82,52.671,88.83,52.619,88.83
		 M52.88,88.799c0.051-0.008,0.101-0.018,0.149-0.018C52.98,88.781,52.931,88.791,52.88,88.799 M53.14,88.76
		c0.05-0.01,0.11-0.01,0.16-0.02C53.25,88.75,53.189,88.75,53.14,88.76 M53.4,88.719c0.059-0.008,0.11-0.018,0.17-0.018
		C53.511,88.701,53.459,88.711,53.4,88.719 M53.65,88.68c0.069-0.01,0.129-0.02,0.19-0.029C53.779,88.66,53.72,88.67,53.65,88.68
		 M53.91,88.641c0.07-0.01,0.129-0.02,0.199-0.029C54.039,88.621,53.98,88.631,53.91,88.641 M54.171,88.6
		c0.069-0.01,0.129-0.029,0.198-0.039C54.3,88.57,54.24,88.59,54.171,88.6 M54.431,88.551c0.069-0.01,0.14-0.02,0.209-0.041
		C54.57,88.531,54.5,88.541,54.431,88.551 M54.681,88.5c0.08-0.01,0.149-0.02,0.229-0.039C54.83,88.48,54.761,88.49,54.681,88.5
		 M54.939,88.461c0.081-0.021,0.161-0.031,0.231-0.051C55.101,88.43,55.021,88.439,54.939,88.461 M55.199,88.41
		c0.08-0.021,0.16-0.039,0.24-0.051C55.359,88.371,55.279,88.389,55.199,88.41 M55.459,88.35c0.08-0.01,0.171-0.029,0.25-0.051
		C55.63,88.32,55.55,88.34,55.459,88.35 M55.72,88.299c6.51-1.369,12.479-4.209,17.541-8.16C68.199,84.09,62.229,86.93,55.72,88.299
		 M73.261,80.131c0.069-0.051,0.129-0.1,0.198-0.15C73.39,80.031,73.33,80.08,73.261,80.131 M73.459,79.971
		c0.07-0.051,0.132-0.1,0.201-0.15C73.591,79.871,73.529,79.92,73.459,79.971 M73.671,79.811c0.059-0.051,0.118-0.1,0.188-0.15
		C73.789,79.711,73.729,79.76,73.671,79.811 M73.869,79.65c0.062-0.051,0.121-0.1,0.181-0.15C73.99,79.551,73.931,79.6,73.869,79.65
		 M74.07,79.49c0.06-0.061,0.119-0.109,0.18-0.16C74.189,79.381,74.13,79.43,74.07,79.49 M74.261,79.32
		c0.06-0.051,0.129-0.1,0.188-0.15C74.39,79.221,74.32,79.27,74.261,79.32 M74.459,79.16c0.062-0.049,0.121-0.1,0.181-0.16
		C74.58,79.061,74.521,79.111,74.459,79.16 M74.66,78.99c0.06-0.051,0.11-0.1,0.17-0.15C74.771,78.891,74.72,78.939,74.66,78.99
		 M74.851,78.82c0.06-0.051,0.119-0.1,0.179-0.15C74.97,78.721,74.91,78.77,74.851,78.82 M75.05,78.66
		c0.051-0.051,0.11-0.1,0.17-0.15C75.16,78.561,75.101,78.609,75.05,78.66 M75.24,78.49c0.06-0.051,0.11-0.1,0.17-0.15
		C75.351,78.391,75.3,78.439,75.24,78.49 M75.431,78.32c0.06-0.051,0.108-0.102,0.17-0.15C75.539,78.219,75.49,78.27,75.431,78.32
		 M75.619,78.15c0.062-0.051,0.11-0.109,0.17-0.16C75.729,78.051,75.681,78.1,75.619,78.15 M75.81,77.971
		c0.05-0.041,0.111-0.1,0.16-0.141C75.921,77.881,75.859,77.92,75.81,77.971 M76,77.799c0.05-0.049,0.109-0.098,0.16-0.148
		C76.109,77.701,76.05,77.75,76,77.799 M76.181,77.631c0.06-0.051,0.108-0.1,0.16-0.15C76.289,77.531,76.24,77.58,76.181,77.631
		 M76.369,77.451c0.062-0.051,0.11-0.102,0.17-0.16C76.479,77.35,76.431,77.4,76.369,77.451 M76.56,77.281
		c0.05-0.051,0.101-0.111,0.149-0.16C76.66,77.17,76.609,77.23,76.56,77.281 M76.74,77.1c0.06-0.059,0.11-0.109,0.16-0.16
		C76.851,76.99,76.789,77.041,76.74,77.1 M76.921,76.92c0.059-0.059,0.118-0.121,0.18-0.18c7.759-7.721,12.539-18.359,12.539-30.12
		c0,11.76-4.78,22.399-12.539,30.12C77.039,76.799,76.979,76.861,76.921,76.92 M92.65,37.041c-4.38-20.891-22.8-36.63-44.979-37.03
		v4C47.39,4.01,47.109,4,46.82,4V0c0.289,0,0.569,0.01,0.851,0.01C69.851,0.41,88.271,16.15,92.65,37.041 M77.101,16.491
		c-0.062-0.061-0.121-0.12-0.18-0.18C76.979,16.371,77.039,16.43,77.101,16.491 M76.91,16.291c-0.06-0.05-0.11-0.111-0.17-0.16
		C76.789,16.18,76.851,16.241,76.91,16.291 M76.72,16.111c-0.049-0.05-0.11-0.101-0.16-0.16C76.609,16,76.671,16.061,76.72,16.111
		 M76.539,15.94c-0.06-0.06-0.108-0.11-0.17-0.16C76.431,15.831,76.479,15.881,76.539,15.94 M76.351,15.75
		c-0.062-0.05-0.11-0.1-0.161-0.15C76.24,15.651,76.289,15.701,76.351,15.75 M76.16,15.581c-0.051-0.05-0.11-0.1-0.16-0.151
		C76.05,15.48,76.109,15.531,76.16,15.581 M75.97,15.4c-0.049-0.049-0.11-0.1-0.16-0.149C75.869,15.3,75.921,15.351,75.97,15.4
		 M75.779,15.23c-0.05-0.049-0.099-0.1-0.16-0.15C75.681,15.131,75.729,15.181,75.779,15.23 M75.591,15.05
		c-0.052-0.04-0.101-0.09-0.16-0.14C75.49,14.96,75.539,15.01,75.591,15.05 M75.4,14.881c-0.05-0.04-0.111-0.09-0.16-0.14
		C75.3,14.791,75.351,14.831,75.4,14.881 M75.209,14.71c-0.049-0.04-0.108-0.09-0.159-0.14C75.101,14.621,75.16,14.671,75.209,14.71
		 M75.021,14.55c-0.062-0.05-0.11-0.1-0.161-0.14C74.91,14.451,74.97,14.5,75.021,14.55 M74.82,14.381
		c-0.05-0.05-0.101-0.09-0.16-0.14C74.72,14.291,74.771,14.331,74.82,14.381 M74.63,14.21c-0.06-0.05-0.109-0.09-0.16-0.13
		C74.521,14.121,74.57,14.16,74.63,14.21 M74.431,14.05c-0.051-0.05-0.101-0.09-0.16-0.14C74.33,13.96,74.38,14,74.431,14.05
		 M74.229,13.881c-0.049-0.041-0.1-0.09-0.149-0.13C74.13,13.791,74.181,13.84,74.229,13.881 M74.039,13.72
		c-0.06-0.049-0.108-0.089-0.159-0.129C73.931,13.631,73.99,13.671,74.039,13.72 M73.841,13.55c-0.052-0.04-0.111-0.08-0.16-0.121
		C73.729,13.471,73.789,13.51,73.841,13.55 M73.64,13.39c-0.049-0.039-0.11-0.079-0.16-0.119
		C73.539,13.311,73.591,13.351,73.64,13.39 M73.439,13.23c-0.05-0.04-0.099-0.081-0.16-0.12C73.341,13.15,73.39,13.19,73.439,13.23
		 M73.229,13.071c-0.049-0.03-0.1-0.07-0.149-0.11C73.13,13,73.181,13.041,73.229,13.071 M73.029,12.921
		c-0.05-0.04-0.099-0.081-0.149-0.121C72.931,12.84,72.979,12.881,73.029,12.921 M72.83,12.76c-0.051-0.039-0.101-0.069-0.149-0.109
		C72.729,12.69,72.779,12.721,72.83,12.76 M72.63,12.61c-0.05-0.04-0.101-0.08-0.16-0.12C72.529,12.531,72.58,12.571,72.63,12.61
		 M72.421,12.451c-0.052-0.03-0.101-0.07-0.15-0.111C72.32,12.381,72.369,12.421,72.421,12.451 M72.209,12.3
		c-0.049-0.029-0.09-0.069-0.139-0.109C72.119,12.23,72.171,12.271,72.209,12.3 M72.011,12.151c-0.052-0.03-0.101-0.07-0.151-0.11
		C71.91,12.081,71.959,12.121,72.011,12.151 M71.8,12c-0.05-0.03-0.101-0.071-0.149-0.1C71.699,11.93,71.75,11.971,71.8,12
		 M71.591,11.851c-0.052-0.03-0.101-0.07-0.151-0.1C71.49,11.781,71.539,11.821,71.591,11.851 M71.38,11.71
		c-0.05-0.04-0.091-0.07-0.14-0.11C71.289,11.641,71.33,11.671,71.38,11.71 M71.171,11.561c-0.052-0.03-0.091-0.06-0.142-0.1
		C71.08,11.5,71.13,11.531,71.171,11.561 M70.959,11.421c-0.049-0.04-0.09-0.071-0.139-0.1C70.869,11.35,70.91,11.381,70.959,11.421
		 M70.75,11.271c-0.041-0.03-0.09-0.06-0.131-0.08C70.66,11.21,70.699,11.241,70.75,11.271 M70.529,11.131
		c-0.039-0.03-0.08-0.05-0.119-0.081C70.449,11.081,70.49,11.101,70.529,11.131 M70.32,10.991c-0.041-0.03-0.08-0.05-0.121-0.081
		C70.24,10.94,70.279,10.96,70.32,10.991 M70.101,10.851c-0.03-0.03-0.071-0.051-0.101-0.07C70.029,10.8,70.07,10.821,70.101,10.851
		 M69.89,10.71c-0.03-0.02-0.069-0.04-0.101-0.06C69.82,10.671,69.859,10.69,69.89,10.71 M69.671,10.571
		c-0.021-0.01-0.052-0.03-0.07-0.05C69.619,10.541,69.65,10.561,69.671,10.571 M69.459,10.44c-0.02-0.011-0.028-0.02-0.038-0.03
		C69.431,10.421,69.439,10.43,69.459,10.44"/>
	<path fill="#C8C8C8" d="M47.67,93.209L47.67,93.209v-4c1.16-0.02,2.32-0.09,3.449-0.199h0.021c0.08-0.01,0.149-0.02,0.22-0.029
		h0.051c0.071-0.01,0.14-0.01,0.199-0.021c0.03,0,0.051-0.01,0.081-0.01c0.05-0.01,0.109-0.01,0.169-0.02
		c0.03,0,0.071-0.01,0.1-0.01c0.052-0.01,0.101-0.01,0.15-0.02c0.041-0.01,0.081-0.01,0.122-0.01
		c0.039-0.01,0.089-0.021,0.138-0.021c0.041-0.01,0.08-0.01,0.131-0.018c0.039,0,0.08-0.012,0.119-0.021
		c0.051,0,0.101-0.01,0.142-0.02c0.039,0,0.08-0.01,0.118-0.01c0.052-0.012,0.103-0.02,0.15-0.02
		c0.041-0.012,0.071-0.012,0.11-0.021c0.051-0.01,0.11-0.01,0.16-0.02c0.03-0.008,0.06-0.008,0.101-0.02
		c0.059-0.012,0.11-0.02,0.17-0.02c0.03-0.012,0.059-0.012,0.08-0.021c0.069-0.01,0.129-0.02,0.19-0.029
		c0.019,0,0.049-0.01,0.069-0.01c0.071-0.01,0.129-0.021,0.199-0.031c0.02-0.01,0.041-0.01,0.061-0.01
		c0.07-0.01,0.13-0.029,0.199-0.039c0.021,0,0.041-0.01,0.062-0.01c0.069-0.012,0.14-0.02,0.209-0.041c0.021,0,0.03,0,0.041-0.01
		c0.08-0.01,0.149-0.02,0.229-0.041h0.03c0.08-0.02,0.16-0.029,0.229-0.049h0.029c0.08-0.02,0.16-0.041,0.241-0.051
		c0.009,0,0.009,0,0.019-0.01c0.091-0.01,0.17-0.029,0.25-0.049h0.011c6.51-1.371,12.479-4.211,17.541-8.16v-0.01
		c0.069-0.051,0.129-0.1,0.198-0.15v-0.01c0.07-0.051,0.132-0.102,0.201-0.15c0,0,0-0.01,0.01-0.01
		c0.06-0.051,0.119-0.102,0.189-0.15c0-0.01,0-0.01,0.01-0.01c0.062-0.051,0.121-0.1,0.181-0.15c0.01-0.01,0.01-0.01,0.021-0.01
		c0.059-0.061,0.12-0.109,0.18-0.16c0.011,0,0.011,0,0.011-0.01c0.06-0.051,0.129-0.1,0.188-0.15l0.01-0.01
		c0.062-0.051,0.121-0.1,0.181-0.16c0.011,0,0.011,0,0.021-0.01c0.06-0.051,0.11-0.1,0.17-0.15c0.011,0,0.021-0.01,0.021-0.02
		c0.06-0.051,0.119-0.1,0.179-0.15c0,0,0.01-0.01,0.021-0.01c0.051-0.051,0.11-0.1,0.17-0.15c0-0.01,0.01-0.02,0.021-0.02
		c0.06-0.051,0.11-0.1,0.17-0.15c0.01-0.01,0.01-0.02,0.021-0.02c0.06-0.051,0.108-0.1,0.17-0.15c0-0.01,0.009-0.02,0.019-0.02
		c0.062-0.051,0.11-0.1,0.17-0.16c0.011,0,0.011-0.01,0.021-0.02c0.05-0.051,0.11-0.09,0.16-0.141c0.01-0.01,0.021-0.02,0.03-0.029
		c0.05-0.051,0.109-0.1,0.16-0.15l0.021-0.02c0.06-0.051,0.108-0.1,0.16-0.15c0.01-0.01,0.019-0.021,0.028-0.031
		c0.062-0.049,0.11-0.1,0.17-0.16c0,0,0.011-0.008,0.021-0.008c0.05-0.051,0.101-0.111,0.149-0.162c0.011,0,0.021-0.01,0.031-0.02
		c0.049-0.061,0.11-0.109,0.16-0.16c0.01-0.01,0.02-0.01,0.02-0.02c0.06-0.061,0.119-0.119,0.181-0.18
		C84.859,69.02,89.64,58.381,89.64,46.62c0-11.769-4.78-22.41-12.539-30.13c-0.062-0.06-0.121-0.12-0.181-0.18
		c0-0.01-0.01-0.01-0.01-0.02c-0.06-0.049-0.121-0.109-0.17-0.16c-0.011-0.01-0.011-0.01-0.021-0.02c-0.05-0.05-0.11-0.11-0.16-0.16
		c-0.01,0-0.021-0.01-0.021-0.01c-0.06-0.06-0.108-0.11-0.17-0.159c-0.01-0.011-0.01-0.021-0.019-0.031
		c-0.062-0.049-0.11-0.1-0.16-0.15c-0.01-0.01-0.021-0.01-0.03-0.02c-0.051-0.049-0.11-0.099-0.16-0.15
		c-0.01-0.01-0.021-0.02-0.03-0.03c-0.05-0.049-0.101-0.1-0.16-0.15c-0.01,0-0.021-0.009-0.03-0.018
		c-0.05-0.051-0.099-0.102-0.16-0.152c-0.01-0.009-0.019-0.02-0.028-0.03c-0.052-0.04-0.101-0.09-0.16-0.14
		c-0.011-0.01-0.021-0.02-0.03-0.03c-0.05-0.05-0.101-0.09-0.16-0.14c-0.011-0.009-0.021-0.02-0.031-0.031
		c-0.049-0.04-0.108-0.09-0.159-0.139c-0.011-0.011-0.021-0.011-0.029-0.021c-0.051-0.05-0.11-0.1-0.161-0.14
		c-0.009-0.01-0.029-0.02-0.039-0.03c-0.05-0.05-0.101-0.09-0.16-0.14c-0.01-0.011-0.021-0.02-0.031-0.031
		c-0.059-0.049-0.108-0.09-0.159-0.13c-0.011-0.009-0.029-0.02-0.039-0.03c-0.052-0.05-0.101-0.09-0.16-0.14
		c-0.01-0.01-0.021-0.02-0.041-0.03c-0.049-0.04-0.101-0.09-0.149-0.13c-0.021-0.009-0.03-0.018-0.041-0.029
		c-0.049-0.05-0.108-0.09-0.16-0.13c-0.01-0.01-0.028-0.019-0.038-0.04c-0.052-0.04-0.111-0.08-0.16-0.12
		c-0.011-0.01-0.03-0.03-0.041-0.04c-0.049-0.04-0.101-0.08-0.16-0.12c-0.01-0.009-0.03-0.02-0.039-0.038
		c-0.051-0.042-0.1-0.082-0.161-0.122c-0.009-0.009-0.029-0.02-0.05-0.039C73.181,13.04,73.129,13,73.08,12.96
		c-0.01-0.02-0.03-0.03-0.051-0.04c-0.05-0.04-0.099-0.08-0.15-0.12c-0.02-0.01-0.028-0.019-0.049-0.04
		c-0.051-0.04-0.101-0.07-0.149-0.11c-0.021-0.02-0.041-0.03-0.052-0.04c-0.049-0.039-0.1-0.079-0.159-0.12
		c-0.011-0.009-0.029-0.02-0.05-0.04c-0.051-0.03-0.1-0.07-0.149-0.11c-0.021-0.01-0.041-0.019-0.062-0.04
		c-0.039-0.03-0.09-0.068-0.139-0.11c-0.021-0.01-0.041-0.02-0.06-0.04c-0.052-0.03-0.101-0.07-0.151-0.11
		c-0.019-0.009-0.039-0.02-0.06-0.04c-0.05-0.03-0.101-0.07-0.149-0.1c-0.021-0.02-0.041-0.03-0.06-0.05
		c-0.052-0.029-0.101-0.069-0.15-0.1c-0.021-0.009-0.04-0.029-0.062-0.04c-0.049-0.04-0.09-0.07-0.139-0.109
		c-0.021-0.011-0.05-0.021-0.07-0.041c-0.041-0.029-0.09-0.06-0.141-0.1c-0.019-0.01-0.05-0.03-0.07-0.04
		c-0.049-0.04-0.09-0.071-0.139-0.099c-0.021-0.021-0.05-0.031-0.07-0.051c-0.051-0.029-0.09-0.06-0.131-0.08
		c-0.028-0.02-0.06-0.04-0.09-0.06c-0.039-0.03-0.08-0.05-0.119-0.08c-0.031-0.019-0.06-0.04-0.09-0.06
		c-0.041-0.03-0.08-0.05-0.121-0.08c-0.029-0.02-0.06-0.04-0.099-0.059c-0.03-0.03-0.071-0.051-0.101-0.07
		c-0.041-0.021-0.069-0.049-0.11-0.071c-0.03-0.02-0.069-0.04-0.101-0.06c-0.039-0.03-0.08-0.051-0.119-0.079
		c-0.02-0.011-0.051-0.031-0.069-0.051c-0.051-0.02-0.101-0.05-0.142-0.08c-0.019-0.01-0.028-0.02-0.039-0.03
		c-6.329-3.92-13.77-6.24-21.75-6.399v-4C69.851,0.41,88.271,16.15,92.65,37.04c0.648,3.09,0.989,6.29,0.989,9.58
		C93.64,72.08,73.129,92.76,47.67,93.209"/>
	<path fill="#D8D8D8" d="M68.229,73.869c-1.147,0-2.077-0.93-2.077-2.078c0-6.371-5.392-12.311-9.921-16.172
		c-3.801-3.238-7.659-5.608-9.409-6.619v-4.779v0.01c1.75-1.01,5.608-3.38,9.409-6.631c4.529-3.858,9.921-9.789,9.921-16.159
		c0-1.15,0.93-2.08,2.077-2.08c1.15,0,2.093,0.93,2.093,2.08c0,11.69-13.151,21.29-19.371,25.17
		C57.17,50.5,70.321,60.1,70.321,71.791C70.321,72.939,69.379,73.869,68.229,73.869"/>
	<path fill="#D8D8D8" d="M46.82,42.65v-3.36l5.398-0.04C49.189,41.4,46.82,42.65,46.82,42.65"/>
	<path fill="#D8D8D8" d="M54.481,37.571h-7.66V34.97H57.52C56.51,35.91,55.481,36.781,54.481,37.571"/>
	<path fill="#D8D8D8" d="M59.279,33.21H46.82V30.6h14.658C60.8,31.511,60.059,32.38,59.279,33.21"/>
	<path fill="#D8D8D8" d="M62.67,28.851H46.82v-2.61h17.2C63.65,27.141,63.199,28,62.67,28.851"/>
	<path fill="#D8D8D8" d="M64.629,24.49H46.82v-2.61h18.25C65.021,22.761,64.869,23.63,64.629,24.49"/>
	<path fill="#D8D8D8" d="M46.82,54.1V50.74c0,0,2.318,1.221,5.289,3.32L46.82,54.1"/>
	<path fill="#D8D8D8" d="M57.52,58.43H46.821V55.82h7.66C55.481,56.619,56.51,57.49,57.52,58.43"/>
	<path fill="#D8D8D8" d="M61.479,62.789H46.821v-2.6H59.28C60.059,61.01,60.799,61.881,61.479,62.789"/>
	<path fill="#D8D8D8" d="M64.02,67.15H46.821v-2.6H62.67C63.2,65.391,63.651,66.26,64.02,67.15"/>
	<path fill="#D8D8D8" d="M65.07,71.51H46.82v-2.6h17.81C64.87,69.76,65.02,70.631,65.07,71.51"/>
</g>
</svg>
