<?xml version="1.0" encoding="utf-8"?>
<!-- Generator: Adobe Illustrator 16.0.0, SVG Export Plug-In . SVG Version: 6.00 Build 0)  -->
<!DOCTYPE svg PUBLIC "-//W3C//DTD SVG 1.1//EN" "http://www.w3.org/Graphics/SVG/1.1/DTD/svg11.dtd">
<svg version="1.1" id="Layer_1" xmlns="http://www.w3.org/2000/svg" xmlns:xlink="http://www.w3.org/1999/xlink" x="0px" y="0px"
	 width="93.64px" height="93.218px" viewBox="0 0 93.64 93.218" enable-background="new 0 0 93.64 93.218" xml:space="preserve">
<g>
	<path fill="#5C59CC" d="M91.639,46.608c0,24.64-20.067,44.61-44.817,44.61C22.069,91.218,2,71.248,2,46.608
		C2,21.969,22.069,2,46.821,2C71.571,2,91.639,21.969,91.639,46.608"/>
	<path fill="#FFFFFF" d="M91.639,46.608h-2c0,11.769-4.778,22.411-12.538,30.13c-7.75,7.709-18.449,12.479-30.279,12.479
		s-22.528-4.771-30.284-12.479c-7.75-7.72-12.535-18.361-12.535-30.13c0-11.768,4.785-22.407,12.535-30.125
		C24.293,8.767,34.991,4,46.821,3.999C58.651,4,69.351,8.767,77.101,16.482c7.76,7.718,12.538,18.357,12.538,30.125H91.639h2
		C93.639,20.856,72.67,0,46.821,0C20.969,0,0.002,20.856,0,46.608c0.004,25.75,20.969,46.61,46.821,46.61
		c25.849,0,46.817-20.86,46.817-46.61H91.639"/>
	<path fill="#E8E8E8" d="M93.64,46.608h-2h-2c0,11.769-4.78,22.411-12.539,30.13c-7.562,7.52-17.931,12.25-29.431,12.47v4
		C73.129,92.758,93.64,72.067,93.64,46.608 M47.67,0.006v4.001c11.5,0.224,21.869,4.945,29.431,12.475
		c7.759,7.718,12.539,18.357,12.539,30.125h2h2C93.64,21.143,73.129,0.46,47.67,0.006"/>
	<path fill="#FFFFFF" d="M61.28,50.387c1.51-0.779,2.899-1.578,4.14-2.399c4.481-2.949,6.469-5.737,5.76-8.057
		c-0.461-1.518-1.979-2.553-4.489-3.076c-0.671-0.14-1.4-0.239-2.19-0.305c-0.621-1.519-2.3-2.343-3.91-1.856
		c-0.99,0.301-1.729,1.047-2.06,1.952c-0.981,0.09-1.99,0.212-3.03,0.366c0.43-7.992-0.75-14.598-4.33-15.343
		c-3.49-0.723-7.099,4.541-9.849,11.735c-3.201-1.841-6.151-3.107-8.524-3.597c-2.521-0.525-4.322-0.181-5.349,1.025
		c-1.043,1.223-1.08,3.101-0.144,5.534c-0.996,1.343-0.803,3.246,0.488,4.348c0.682,0.583,1.541,0.829,2.364,0.754
		c0.664,0.949,1.396,1.922,2.201,2.905c-6.437,3.316-10.894,7.186-9.897,10.445c0.461,1.511,1.975,2.551,4.497,3.069
		c2.414,0.502,5.691,0.511,9.443,0.071c-0.183,7.19,1.079,12.899,4.389,13.589c1.9,0.392,3.83-0.979,5.64-3.469
		c0.16,0.061,0.33,0.119,0.5,0.15c1.74,0.359,3.44-0.75,3.789-2.481c0.272-1.26-0.25-2.489-1.199-3.21
		c0.33-0.74,0.65-1.51,0.972-2.309c3.897,2.449,7.528,4.119,10.349,4.71c2.521,0.52,4.321,0.18,5.351-1.031
		C68.401,61.317,65.86,55.998,61.28,50.387 M58.43,38.57l0.029,0.126c0.52,1.692,2.321,2.646,4.01,2.129
		c1.131-0.346,1.933-1.262,2.183-2.339c0.59,0.06,1.139,0.141,1.639,0.245c1.74,0.361,2.82,0.982,3.06,1.757
		c0.32,1.053-0.819,3.154-4.989,5.899c-1.289,0.849-2.761,1.69-4.36,2.499c-1.57-1.799-3.32-3.601-5.169-5.329
		c0.218-1.546,0.399-3.089,0.529-4.594C56.42,38.799,57.45,38.666,58.43,38.57 M48.651,53.357c-1.103,0.34-2.192,0.65-3.272,0.93
		c-0.869-0.689-1.75-1.41-2.629-2.148c-1.24-1.071-2.429-2.141-3.56-3.231c0.188-1.16,0.399-2.349,0.659-3.578
		c0.17-0.815,0.351-1.612,0.529-2.391c1.452-0.537,2.991-1.061,4.612-1.559c1.099-0.333,2.188-0.642,3.269-0.926
		c0.879,0.689,1.75,1.409,2.629,2.153c0.651,0.561,1.281,1.12,1.892,1.669c-0.19,1.163-0.41,2.362-0.67,3.602
		c-0.341,1.67-0.722,3.241-1.119,4.73C50.219,52.868,49.44,53.118,48.651,53.357 M50.34,54.838c-0.259,0.859-0.531,1.699-0.81,2.49
		c-0.731-0.5-1.481-1.02-2.222-1.581c0.632-0.169,1.263-0.358,1.9-0.55C49.59,55.078,49.969,54.958,50.34,54.838 M43.03,54.868
		c-1.59,0.36-3.142,0.659-4.629,0.89c0.09-1.42,0.228-2.94,0.448-4.541c0.851,0.801,1.74,1.592,2.66,2.381
		C42.01,54.027,42.52,54.447,43.03,54.868 M37.52,47.257c-0.729-0.75-1.438-1.51-2.1-2.257c0.879-0.409,1.821-0.817,2.799-1.221
		c-0.08,0.389-0.17,0.776-0.25,1.159C37.809,45.707,37.661,46.487,37.52,47.257 M40.959,40.695c0.42-1.586,0.881-3.072,1.35-4.46
		c1.32,0.834,2.66,1.755,4.022,2.755c-0.631,0.179-1.26,0.362-1.901,0.556C43.26,39.903,42.11,40.286,40.959,40.695 M50.61,39.878
		c0.95-0.216,1.89-0.409,2.81-0.582c-0.08,0.87-0.179,1.776-0.3,2.708c-0.33-0.29-0.661-0.573-0.991-0.854
		C51.629,40.717,51.12,40.295,50.61,39.878 M54.459,45.848c1.391,1.329,2.651,2.639,3.76,3.899c-1.58,0.731-3.278,1.431-5.058,2.091
		c0.308-1.181,0.58-2.371,0.83-3.561C54.161,47.467,54.309,46.657,54.459,45.848 M50.78,23.546c1.858,0.387,3.291,5.521,2.791,13.78
		c-1.58,0.282-3.211,0.631-4.881,1.042c-1.931-1.476-3.851-2.811-5.722-3.973C45.76,27.058,48.969,23.171,50.78,23.546
		 M31.967,40.706c0.123-0.104,0.242-0.221,0.349-0.347c1.149-1.346,0.993-3.372-0.354-4.521c-0.869-0.739-2.015-0.935-3.031-0.622
		c-0.545-1.617-0.444-2.647-0.022-3.141c0.522-0.613,1.767-0.754,3.5-0.393c2.272,0.472,5.123,1.718,8.244,3.543
		c-0.711,2.009-1.343,4.13-1.892,6.288c-1.599,0.623-3.149,1.29-4.635,1.99C33.336,42.555,32.614,41.62,31.967,40.706
		 M27.346,56.008c-1.731-0.359-2.815-0.98-3.051-1.75c-0.521-1.699,2.782-5.069,9.334-8.39c1.08,1.24,2.26,2.479,3.522,3.729
		c-0.33,2.18-0.552,4.35-0.671,6.43C32.823,56.479,29.651,56.487,27.346,56.008 M47.709,61.897
		c-1.539-0.069-2.939,0.991-3.259,2.541c-0.19,0.879,0.009,1.739,0.47,2.43c-1.461,2.021-2.791,3-3.729,2.799
		c-1.731-0.358-3.07-4.778-2.882-11.96c2.121-0.318,4.353-0.76,6.642-1.33c1.31,1,2.621,1.94,3.899,2.801
		C48.48,60.148,48.1,61.047,47.709,61.897 M64.729,62.667c-0.52,0.61-1.76,0.75-3.5,0.392c-2.698-0.561-6.237-2.221-10.059-4.651
		c0.491-1.39,0.959-2.829,1.379-4.31c2.471-0.869,4.821-1.83,6.971-2.851C64.2,56.907,65.889,61.317,64.729,62.667"/>
	<path fill="#FFFFFF" d="M61.28,50.387l0.099,0.211c1.522-0.78,2.92-1.59,4.17-2.409c3.901-2.584,5.991-5.042,6.01-7.316
		c0-0.345-0.049-0.684-0.147-1.013c-0.25-0.813-0.791-1.498-1.571-2.033c-0.791-0.539-1.83-0.934-3.111-1.202
		c-0.67-0.141-1.42-0.241-2.209-0.307l-0.02,0.232l0.219-0.087c-0.539-1.314-1.808-2.145-3.188-2.145c-0.33,0-0.67,0.048-1.011,0.15
		c-1.061,0.325-1.85,1.127-2.209,2.097l0.22,0.082L58.51,36.41c-0.99,0.094-2,0.214-3.051,0.371l0.041,0.23l0.229,0.013
		c0.062-1.046,0.093-2.074,0.093-3.064c0-3.3-0.33-6.229-1.052-8.439c-0.368-1.105-0.829-2.032-1.42-2.733
		c-0.58-0.7-1.301-1.175-2.131-1.348c-0.228-0.048-0.469-0.072-0.699-0.072c-1.77,0.007-3.459,1.336-5.051,3.464
		c-1.59,2.133-3.08,5.099-4.369,8.487l0.222,0.084l0.108-0.205c-3.211-1.847-6.17-3.122-8.586-3.62
		c-0.774-0.163-1.49-0.245-2.136-0.245c-1.495-0.001-2.668,0.439-3.44,1.346c-0.584,0.684-0.871,1.567-0.871,2.592
		c0,0.936,0.234,1.999,0.691,3.178l0.217-0.084l-0.187-0.138c-0.455,0.61-0.681,1.335-0.681,2.052c0,0.969,0.408,1.934,1.203,2.612
		c0.649,0.554,1.443,0.826,2.229,0.826c0.101,0,0.207-0.006,0.308-0.015l-0.021-0.235l-0.192,0.135
		c0.666,0.953,1.405,1.931,2.211,2.919l0.183-0.149l-0.108-0.208c-2.925,1.503-5.451,3.123-7.253,4.774
		c-1.799,1.64-2.903,3.309-2.909,4.938c0,0.34,0.049,0.681,0.151,1.01c0.246,0.811,0.78,1.49,1.565,2.03s1.824,0.931,3.104,1.201
		c1.281,0.271,2.793,0.39,4.479,0.39c1.543,0,3.24-0.101,5.041-0.311l-0.028-0.239h-0.24c-0.01,0.439-0.01,0.87-0.01,1.3
		c0,3.301,0.317,6.229,1.049,8.439c0.358,1.1,0.83,2.031,1.41,2.73c0.59,0.7,1.301,1.17,2.14,1.35c0.23,0.051,0.459,0.07,0.69,0.07
		c1.819-0.01,3.551-1.409,5.18-3.631l-0.19-0.139l-0.09,0.219c0.17,0.061,0.351,0.12,0.539,0.161h0.01
		c0.231,0.05,0.461,0.069,0.701,0.069c1.59,0,3.03-1.11,3.36-2.74c0.05-0.229,0.069-0.47,0.069-0.699c0-1.09-0.52-2.101-1.358-2.74
		l-0.142,0.189l0.209,0.102c0.343-0.741,0.66-1.521,0.972-2.321l-0.209-0.089l-0.131,0.2c3.92,2.448,7.569,4.139,10.43,4.738h0.031
		h0.019v-0.229l-0.041,0.229c0.772,0.161,1.481,0.24,2.131,0.24c1.49,0,2.67-0.44,3.44-1.34c0.599-0.699,0.871-1.589,0.871-2.58
		c-0.013-2.97-2.34-7.021-5.782-11.25L61.28,50.387l0.099,0.211L61.28,50.387l-0.181,0.15c3.42,4.18,5.681,8.221,5.67,10.95
		c0,0.91-0.239,1.67-0.75,2.271c-0.67,0.779-1.68,1.181-3.09,1.181c-0.608,0-1.291-0.07-2.041-0.23l-0.019-0.011h-0.03v0.241
		l0.049-0.23c-2.778-0.58-6.397-2.241-10.278-4.671l-0.24-0.148l-0.101,0.26c-0.311,0.79-0.631,1.56-0.959,2.29l-0.08,0.18
		l0.148,0.11c0.731,0.549,1.18,1.42,1.18,2.359c0,0.199-0.019,0.399-0.067,0.609c-0.291,1.4-1.522,2.37-2.901,2.37
		c-0.201,0-0.41-0.021-0.609-0.06c-0.159-0.041-0.319-0.091-0.471-0.15l-0.17-0.07l-0.099,0.151c-1.59,2.189-3.25,3.448-4.801,3.438
		c-0.199,0-0.4-0.02-0.601-0.06c-0.72-0.15-1.34-0.55-1.871-1.189c-1.608-1.911-2.358-5.971-2.349-10.87c0-0.42,0-0.851,0.009-1.291
		l0.01-0.27l-0.269,0.031c-1.78,0.21-3.457,0.318-4.981,0.318c-1.664,0-3.144-0.13-4.383-0.39c-1.242-0.26-2.222-0.64-2.937-1.13
		c-0.716-0.49-1.168-1.08-1.384-1.78c-0.088-0.29-0.131-0.569-0.131-0.87c-0.006-1.41,0.996-3,2.756-4.6
		c1.759-1.6,4.252-3.199,7.154-4.696l0.256-0.133l-0.181-0.225c-0.799-0.978-1.532-1.947-2.194-2.891l-0.076-0.109l-0.135,0.011
		L29.87,41.25c-0.678,0-1.364-0.235-1.924-0.713c-0.688-0.587-1.039-1.418-1.039-2.257c0-0.622,0.192-1.245,0.586-1.774l0.078-0.104
		l-0.047-0.12c-0.441-1.143-0.658-2.153-0.658-3.01c0.002-0.943,0.256-1.697,0.759-2.289c0.665-0.777,1.672-1.176,3.083-1.181
		c0.609,0,1.291,0.079,2.041,0.235c2.341,0.483,5.261,1.735,8.451,3.569l0.229,0.137l0.101-0.255
		c1.291-3.362,2.769-6.297,4.319-8.376c1.539-2.086,3.16-3.282,4.67-3.275c0.199,0,0.4,0.02,0.601,0.061
		c0.72,0.151,1.339,0.555,1.871,1.192c1.608,1.91,2.358,5.969,2.358,10.871c0,0.981-0.028,2-0.09,3.038l-0.01,0.286l0.28-0.04
		c1.041-0.155,2.051-0.277,3.019-0.368l0.151-0.014l0.05-0.137c0.309-0.838,0.991-1.529,1.911-1.81
		c0.289-0.088,0.58-0.13,0.869-0.13c1.188,0,2.291,0.718,2.75,1.853l0.06,0.132l0.139,0.013c0.781,0.065,1.5,0.162,2.16,0.3
		c1.24,0.258,2.211,0.639,2.933,1.127c0.719,0.492,1.17,1.08,1.388,1.786c0.081,0.284,0.131,0.575,0.131,0.875
		c0.01,1.96-1.929,4.38-5.8,6.925c-1.231,0.811-2.62,1.61-4.12,2.381l-0.259,0.131l0.188,0.229L61.28,50.387 M58.43,38.57
		l-0.221,0.055l0.032,0.127v0.007v0.007c0.459,1.48,1.817,2.436,3.289,2.436c0.34,0,0.67-0.051,1.01-0.153
		c1.21-0.369,2.07-1.356,2.339-2.509l-0.228-0.053l-0.022,0.235c0.58,0.059,1.121,0.137,1.621,0.24
		c0.85,0.175,1.53,0.416,2.02,0.698c0.48,0.278,0.761,0.592,0.851,0.897c0.031,0.088,0.041,0.183,0.041,0.294
		c0.009,0.476-0.282,1.21-1.062,2.121c-0.769,0.91-2.01,1.999-3.858,3.224c-1.291,0.84-2.75,1.68-4.34,2.48L60,48.887l0.18-0.158
		c-1.58-1.8-3.34-3.608-5.188-5.342l-0.16,0.172l0.228,0.033c0.231-1.552,0.4-3.097,0.531-4.608l-0.229-0.019l0.041,0.232
		c1.049-0.164,2.067-0.298,3.058-0.391L58.43,38.57l-0.221,0.055L58.43,38.57l-0.019-0.232c-0.991,0.095-2.022,0.229-3.09,0.395
		l-0.183,0.029l-0.01,0.183c-0.129,1.5-0.308,3.037-0.529,4.579l-0.019,0.122l0.089,0.083c1.84,1.723,3.59,3.518,5.161,5.308
		l0.119,0.141l0.16-0.08c1.608-0.811,3.08-1.659,4.381-2.51c1.879-1.241,3.147-2.355,3.968-3.312c0.811-0.959,1.17-1.766,1.17-2.423
		c0-0.153-0.019-0.298-0.058-0.432c-0.142-0.468-0.531-0.851-1.071-1.167c-0.55-0.315-1.281-0.565-2.16-0.75
		c-0.509-0.108-1.07-0.188-1.67-0.25l-0.201-0.021l-0.049,0.2c-0.229,1-0.97,1.848-2.019,2.169c-0.291,0.087-0.58,0.13-0.871,0.13
		c-1.271,0-2.449-0.826-2.84-2.105l-0.231,0.068l0.231-0.054l-0.029-0.125l-0.051-0.199l-0.199,0.019L58.43,38.57 M48.651,53.357
		l-0.07-0.219c-1.09,0.328-2.18,0.639-3.26,0.92l0.058,0.229l0.151-0.18c-0.879-0.69-1.75-1.41-2.619-2.149
		c-1.25-1.061-2.431-2.141-3.562-3.221l-0.159,0.17l0.229,0.04c0.19-1.15,0.401-2.339,0.661-3.569
		c0.169-0.814,0.349-1.61,0.529-2.386l-0.231-0.054l0.09,0.22c1.442-0.536,2.972-1.059,4.59-1.554
		c1.093-0.334,2.183-0.642,3.263-0.924l-0.062-0.227l-0.14,0.183c0.871,0.688,1.74,1.407,2.621,2.149
		c0.647,0.559,1.278,1.112,1.888,1.663l0.151-0.173l-0.231-0.038c-0.188,1.16-0.41,2.361-0.67,3.601
		c-0.339,1.66-0.718,3.229-1.119,4.709l0.231,0.061l-0.08-0.219c-0.76,0.26-1.541,0.509-2.33,0.75L48.651,53.357l0.067,0.23
		c0.791-0.25,1.571-0.49,2.34-0.76l0.121-0.041l0.029-0.12c0.401-1.489,0.791-3.069,1.131-4.739c0.26-1.239,0.481-2.447,0.67-3.614
		l0.021-0.125l-0.09-0.085c-0.609-0.554-1.24-1.111-1.9-1.674c-0.879-0.746-1.76-1.469-2.639-2.16l-0.093-0.072L48.2,40.228
		c-1.08,0.284-2.181,0.593-3.28,0.929c-1.63,0.497-3.17,1.024-4.621,1.564l-0.108,0.043l-0.029,0.121
		c-0.192,0.779-0.371,1.578-0.541,2.399c-0.25,1.234-0.469,2.423-0.661,3.584l-0.019,0.119l0.079,0.091
		c1.142,1.089,2.33,2.169,3.58,3.239c0.881,0.74,1.761,1.46,2.642,2.149l0.09,0.08l0.109-0.029c1.079-0.28,2.18-0.601,3.278-0.93
		L48.651,53.357 M50.34,54.838l-0.22-0.07c-0.26,0.869-0.53,1.69-0.81,2.479l0.22,0.081l0.14-0.2
		c-0.74-0.489-1.479-1.021-2.22-1.561l-0.142,0.18l0.062,0.231c0.63-0.182,1.269-0.36,1.91-0.562c0.381-0.109,0.76-0.239,1.14-0.35
		L50.34,54.838l-0.22-0.07L50.34,54.838l-0.07-0.22c-0.368,0.119-0.75,0.239-1.131,0.36c-0.629,0.188-1.269,0.369-1.897,0.549
		l-0.461,0.13l0.39,0.281c0.75,0.549,1.491,1.079,2.231,1.579l0.26,0.171l0.099-0.281c0.271-0.8,0.539-1.63,0.812-2.5l0.129-0.429
		l-0.431,0.14L50.34,54.838 M43.03,54.868l-0.052-0.229c-1.59,0.359-3.129,0.658-4.618,0.889l0.041,0.23l0.228,0.02
		c0.09-1.42,0.241-2.93,0.452-4.53l-0.231-0.03l-0.159,0.172c0.85,0.8,1.75,1.599,2.67,2.379c0.5,0.44,1.01,0.86,1.519,1.279
		L43.03,54.868l-0.052-0.229L43.03,54.868l0.149-0.19c-0.51-0.41-1.01-0.83-1.519-1.261c-0.911-0.78-1.801-1.569-2.651-2.37
		l-0.34-0.31l-0.06,0.451c-0.209,1.608-0.351,3.129-0.44,4.559l-0.019,0.29l0.289-0.05c1.489-0.229,3.051-0.53,4.641-0.89
		l0.468-0.11l-0.369-0.31L43.03,54.868 M37.52,47.257l0.171-0.159c-0.731-0.75-1.431-1.507-2.101-2.252L35.42,45l0.1,0.212
		c0.882-0.404,1.812-0.813,2.789-1.216l-0.09-0.217L38,43.727c-0.089,0.389-0.179,0.777-0.259,1.167l0.228,0.044l-0.228-0.048
		c-0.16,0.777-0.312,1.548-0.451,2.327L37.52,47.257l0.171-0.159L37.52,47.257l0.24,0.039c0.129-0.769,0.28-1.539,0.44-2.309v-0.004
		c0.08-0.38,0.16-0.764,0.25-1.153l0.099-0.437l-0.41,0.17c-1,0.405-1.93,0.814-2.817,1.226L35.03,44.92l0.211,0.234
		c0.67,0.753,1.379,1.513,2.119,2.273l0.319,0.32l0.08-0.451L37.52,47.257 M40.959,40.695l0.221,0.059
		c0.431-1.581,0.879-3.061,1.351-4.441l-0.222-0.078l-0.118,0.199c1.31,0.828,2.649,1.748,4,2.747l0.141-0.191l-0.062-0.224
		c-0.631,0.179-1.27,0.36-1.909,0.557c-1.17,0.357-2.33,0.742-3.481,1.152L40.959,40.695l0.221,0.059L40.959,40.695l0.071,0.22
		c1.149-0.406,2.31-0.79,3.47-1.144c0.629-0.195,1.26-0.376,1.901-0.554l0.459-0.13l-0.392-0.283
		c-1.358-1.005-2.709-1.931-4.028-2.766l-0.25-0.159L42.09,36.16c-0.47,1.393-0.929,2.882-1.361,4.474l-0.118,0.43l0.42-0.149
		L40.959,40.695 M50.61,39.878l0.051,0.229c0.949-0.216,1.888-0.411,2.798-0.583l-0.039-0.229l-0.229-0.021
		c-0.08,0.867-0.19,1.769-0.312,2.699l0.241,0.03l0.149-0.176c-0.329-0.291-0.649-0.576-0.989-0.856v0.001
		c-0.5-0.435-1.011-0.858-1.521-1.275L50.61,39.878l0.051,0.229L50.61,39.878l-0.151,0.184c0.51,0.416,1.01,0.835,1.52,1.266v0.003
		c0.332,0.277,0.65,0.558,0.98,0.849l0.331,0.293l0.06-0.439c0.119-0.934,0.231-1.841,0.312-2.717l0.019-0.309l-0.301,0.057
		c-0.929,0.172-1.869,0.37-2.82,0.588l-0.469,0.104l0.369,0.305L50.61,39.878 M54.459,45.848l-0.16,0.159
		c1.392,1.341,2.642,2.641,3.75,3.89l0.17-0.15l-0.09-0.21c-1.58,0.73-3.279,1.43-5.048,2.081l0.08,0.22l0.228,0.06
		c0.312-1.181,0.58-2.38,0.83-3.58c0.17-0.799,0.321-1.62,0.472-2.43L54.459,45.848l-0.16,0.159L54.459,45.848l-0.23-0.052
		c-0.147,0.812-0.299,1.631-0.469,2.432c-0.25,1.188-0.519,2.379-0.819,3.549l-0.119,0.439l0.42-0.158
		c1.789-0.661,3.489-1.361,5.08-2.102l0.289-0.129l-0.209-0.24c-1.121-1.26-2.382-2.57-3.781-3.911l-0.312-0.307l-0.08,0.426
		L54.459,45.848 M50.78,23.546l-0.05,0.229c0.318,0.064,0.658,0.318,0.979,0.801c0.991,1.444,1.731,4.801,1.731,9.555
		c0,0.999-0.029,2.062-0.101,3.181l0.231,0.014l-0.041-0.231c-1.59,0.282-3.231,0.633-4.892,1.045l0.052,0.228l0.141-0.186
		c-1.93-1.483-3.862-2.821-5.731-3.985l-0.131,0.198l0.222,0.084c1.329-3.492,2.75-6.197,4.06-8.015
		c0.651-0.909,1.28-1.594,1.84-2.048c0.571-0.454,1.062-0.664,1.44-0.661l0.2,0.02L50.78,23.546l0.051-0.229
		c-0.101-0.021-0.202-0.03-0.301-0.03c-0.539,0.002-1.119,0.277-1.731,0.766c-1.818,1.471-4.039,4.977-6.049,10.261l-0.07,0.179
		l0.17,0.102c1.859,1.156,3.779,2.486,5.699,3.959l0.09,0.068l0.111-0.026c1.661-0.411,3.29-0.759,4.86-1.04l0.18-0.031l0.021-0.185
		c0.06-1.127,0.101-2.197,0.101-3.208c-0.01-3.201-0.33-5.782-0.862-7.622c-0.259-0.92-0.58-1.656-0.949-2.196
		c-0.358-0.538-0.791-0.894-1.269-0.996L50.78,23.546 M31.967,40.706l0.153,0.177c0.129-0.112,0.257-0.235,0.377-0.377l-0.182-0.147
		l0.18,0.151c0.552-0.647,0.826-1.445,0.826-2.233c0-0.971-0.412-1.939-1.207-2.617c-0.649-0.551-1.442-0.821-2.229-0.821
		c-0.345,0-0.688,0.053-1.022,0.155l0.067,0.223l0.226-0.075c-0.259-0.761-0.365-1.378-0.365-1.856c0-0.516,0.125-0.86,0.294-1.057
		c0.258-0.308,0.813-0.508,1.637-0.506c0.472,0,1.021,0.063,1.638,0.19c2.231,0.461,5.071,1.696,8.172,3.514l0.121-0.201
		l-0.222-0.08c-0.711,2.016-1.34,4.146-1.89,6.309l0.22,0.059l-0.08-0.218c-1.608,0.624-3.17,1.295-4.653,1.994l0.099,0.214
		l0.18-0.15c-0.783-0.944-1.504-1.875-2.146-2.784L31.967,40.706l0.153,0.177L31.967,40.706l-0.19,0.136
		c0.649,0.918,1.379,1.86,2.17,2.811l0.114,0.139l0.164-0.078c1.476-0.694,3.025-1.361,4.625-1.982l0.109-0.044l0.032-0.117
		c0.549-2.151,1.179-4.267,1.879-6.268l0.06-0.182l-0.16-0.098c-3.131-1.833-6.01-3.088-8.315-3.57
		c-0.644-0.133-1.221-0.201-1.733-0.201c-0.888,0.003-1.584,0.2-1.994,0.671c-0.268,0.314-0.405,0.773-0.405,1.361
		c0,0.547,0.121,1.21,0.388,2.005l0.073,0.216L29,35.44c0.288-0.086,0.586-0.132,0.885-0.132c0.683,0,1.365,0.23,1.924,0.71
		c0.688,0.586,1.041,1.419,1.041,2.259c0,0.683-0.231,1.369-0.713,1.927l-0.002,0.003v0.002c-0.095,0.113-0.205,0.221-0.322,0.32
		l-0.159,0.14l0.123,0.173L31.967,40.706 M27.346,56.008l0.047-0.221c-0.848-0.18-1.53-0.419-2.018-0.699
		c-0.488-0.279-0.765-0.601-0.857-0.899c-0.028-0.101-0.043-0.201-0.043-0.312c-0.014-0.749,0.756-1.97,2.324-3.34
		c1.565-1.37,3.897-2.919,6.937-4.459l-0.106-0.21l-0.177,0.15c1.086,1.25,2.267,2.5,3.526,3.74l0.173-0.16l-0.231-0.039
		c-0.33,2.188-0.56,4.369-0.67,6.459l0.23,0.01l-0.03-0.23c-1.812,0.221-3.498,0.342-5.019,0.342c-1.537,0-2.899-0.121-4.039-0.352
		L27.346,56.008l-0.047,0.229c1.178,0.25,2.571,0.37,4.133,0.37c1.543,0,3.248-0.12,5.078-0.34l0.19-0.03l0.009-0.19
		c0.122-2.08,0.35-4.238,0.67-6.419l0.022-0.12l-0.091-0.08c-1.262-1.239-2.432-2.48-3.506-3.71l-0.119-0.141l-0.164,0.081
		c-3.063,1.56-5.426,3.12-7.03,4.531c-1.599,1.419-2.47,2.659-2.485,3.688c0,0.16,0.022,0.301,0.065,0.44
		c0.142,0.47,0.524,0.86,1.069,1.17c0.55,0.321,1.275,0.57,2.158,0.75L27.346,56.008 M47.709,61.897l0.01-0.24h-0.138
		c-1.603,0-3.032,1.11-3.362,2.731c-0.049,0.239-0.08,0.479-0.08,0.709c0,0.689,0.222,1.35,0.58,1.9l0.201-0.13l-0.189-0.131
		c-0.659,0.911-1.29,1.601-1.852,2.06c-0.57,0.45-1.068,0.67-1.449,0.66l-0.199-0.019c-0.311-0.062-0.649-0.32-0.98-0.8
		c-0.99-1.441-1.73-4.801-1.72-9.551c0-0.451,0-0.899,0.019-1.371l-0.24-0.01l0.041,0.231c2.119-0.32,4.359-0.771,6.65-1.341
		l-0.05-0.221l-0.14,0.182c1.31,1.009,2.619,1.949,3.908,2.81l0.131-0.19l-0.211-0.09c-0.379,0.971-0.76,1.87-1.139,2.709
		L47.709,61.897l0.01-0.24L47.709,61.897l0.221,0.09c0.379-0.849,0.771-1.75,1.142-2.729l0.067-0.17l-0.16-0.109
		c-1.278-0.86-2.577-1.79-3.889-2.79L45,56.118l-0.111,0.03c-2.278,0.568-4.51,1.009-6.608,1.33l-0.199,0.029v0.189
		c-0.01,0.48-0.021,0.939-0.021,1.391c0,3.199,0.318,5.78,0.851,7.619c0.269,0.921,0.58,1.65,0.949,2.19
		c0.37,0.541,0.791,0.899,1.278,1c0.092,0.02,0.192,0.031,0.291,0.031c0.551,0,1.131-0.28,1.74-0.771
		c0.61-0.49,1.26-1.219,1.94-2.149l0.09-0.131l-0.09-0.14c-0.32-0.479-0.5-1.049-0.5-1.64c0-0.2,0.019-0.409,0.06-0.61
		c0.289-1.399,1.53-2.359,2.911-2.359H47.7l0.16,0.011l0.069-0.151L47.709,61.897 M64.729,62.667l-0.17-0.149
		c-0.26,0.3-0.817,0.51-1.639,0.5c-0.47,0-1.019-0.061-1.64-0.189c-2.66-0.551-6.181-2.2-9.981-4.621l-0.129,0.2l0.219,0.08
		c0.5-1.39,0.961-2.839,1.392-4.32l-0.231-0.069l0.08,0.22c2.481-0.87,4.83-1.83,6.991-2.851l-0.101-0.22l-0.18,0.16
		c1.86,2.241,3.241,4.29,4.16,6.01c0.911,1.731,1.35,3.141,1.35,4.07c0,0.47-0.108,0.81-0.291,1.03L64.729,62.667l0.183,0.15
		c0.279-0.33,0.41-0.79,0.41-1.33c-0.013-1.07-0.481-2.521-1.41-4.29c-0.933-1.759-2.34-3.829-4.211-6.09l-0.119-0.141l-0.161,0.07
		c-2.14,1.021-4.479,1.971-6.951,2.84l-0.108,0.04l-0.029,0.12c-0.42,1.471-0.891,2.91-1.381,4.291l-0.062,0.18l0.151,0.1
		c3.839,2.439,7.39,4.109,10.14,4.68c0.651,0.13,1.231,0.2,1.74,0.2c0.889,0,1.58-0.2,1.991-0.67L64.729,62.667"/>
	<path fill="#4B4BAA" d="M46.82,89.217v-20.77c0.021,0,0.039,0.011,0.06,0.011h0.009c0.231,0.05,0.461,0.069,0.702,0.069
		c1.589,0,3.029-1.109,3.359-2.74c0.051-0.229,0.069-0.47,0.069-0.699c0-1.03-0.461-1.98-1.211-2.621
		c0.272-0.609,0.532-1.238,0.791-1.889c3.83,2.369,7.392,4,10.19,4.59h0.019c0.772,0.16,1.471,0.24,2.121,0.24h0.01
		c1.49,0,2.66-0.441,3.431-1.341c0.599-0.7,0.871-1.589,0.871-2.58c-0.013-2.92-2.263-6.88-5.603-11.021
		c1.42-0.75,2.731-1.509,3.911-2.279c3.9-2.583,5.99-5.041,6.009-7.315c0-0.345-0.049-0.684-0.147-1.013
		c-0.25-0.813-0.791-1.498-1.57-2.034c-0.791-0.538-1.831-0.933-3.112-1.201c-0.629-0.132-1.328-0.229-2.067-0.295
		c-0.562-1.236-1.802-2.012-3.132-2.012c-0.329,0-0.67,0.048-1.01,0.15c-1.01,0.31-1.778,1.051-2.16,1.958
		c-0.84,0.082-1.721,0.187-2.618,0.315c0.049-0.949,0.079-1.878,0.079-2.781c0-3.299-0.329-6.228-1.051-8.437
		c-0.369-1.105-0.83-2.032-1.42-2.733c-0.58-0.7-1.3-1.176-2.131-1.349c-0.228-0.047-0.468-0.071-0.699-0.071
		c-1.269,0.005-2.51,0.699-3.699,1.882V3.999c0.289,0,0.568,0.003,0.851,0.009c1.16,0.023,2.31,0.093,3.449,0.205l0.019,0.001
		c0.08,0.008,0.151,0.016,0.231,0.024c0.01,0.001,0.03,0.002,0.041,0.004c0.069,0.007,0.139,0.015,0.209,0.023
		c0.019,0.002,0.041,0.004,0.06,0.006c0.071,0.009,0.129,0.015,0.2,0.023c0.021,0.003,0.041,0.005,0.07,0.008
		c0.06,0.007,0.12,0.014,0.18,0.022c0.031,0.004,0.06,0.008,0.089,0.012c0.051,0.005,0.112,0.013,0.161,0.02
		c0.041,0.003,0.07,0.009,0.111,0.014c0.049,0.006,0.1,0.013,0.147,0.02c0.041,0.005,0.08,0.012,0.121,0.016
		c0.04,0.006,0.09,0.013,0.129,0.019c0.051,0.006,0.092,0.013,0.141,0.019c0.041,0.006,0.08,0.012,0.121,0.018
		c0.05,0.008,0.101,0.015,0.14,0.022c0.041,0.005,0.08,0.012,0.11,0.017c0.06,0.008,0.109,0.015,0.158,0.025
		c0.032,0.004,0.071,0.01,0.103,0.015c0.058,0.009,0.108,0.018,0.17,0.027c0.028,0.005,0.058,0.01,0.09,0.015
		c0.06,0.01,0.119,0.02,0.17,0.029c0.029,0.005,0.06,0.01,0.089,0.015c0.062,0.011,0.12,0.021,0.18,0.033
		c0.029,0.003,0.052,0.007,0.08,0.012c0.062,0.012,0.121,0.024,0.19,0.034c0.021,0.004,0.041,0.008,0.07,0.013
		c0.06,0.012,0.131,0.025,0.2,0.037c0.011,0.004,0.029,0.008,0.05,0.011c0.069,0.013,0.141,0.027,0.211,0.041
		c0.019,0.003,0.028,0.006,0.049,0.01c0.069,0.014,0.149,0.03,0.22,0.044c0.01,0.002,0.021,0.004,0.03,0.006
		c0.08,0.016,0.16,0.033,0.24,0.049c0.01,0.001,0.01,0.003,0.019,0.004C55.8,4.938,55.88,4.956,55.96,4.973
		c0.009,0.001,0.009,0.002,0.021,0.003c0.08,0.02,0.17,0.037,0.25,0.056l0.011,0.001c6.309,1.408,12.1,4.207,17.019,8.055
		c0.071,0.052,0.129,0.105,0.2,0.157v0.003c0.069,0.052,0.131,0.104,0.201,0.156c0,0.001,0,0.004,0.01,0.005
		c0.058,0.052,0.119,0.103,0.188,0.155c0,0.003,0,0.005,0.011,0.007c0.06,0.051,0.121,0.104,0.188,0.155
		c0,0.002,0,0.005,0.012,0.007c0.06,0.051,0.119,0.103,0.181,0.154c0.009,0.005,0.009,0.007,0.009,0.011
		c0.071,0.051,0.129,0.102,0.19,0.155c0,0.002,0.01,0.007,0.01,0.009c0.06,0.051,0.121,0.104,0.179,0.155
		c0.012,0.003,0.012,0.007,0.022,0.011c0.058,0.051,0.118,0.102,0.18,0.154c0,0.004,0.009,0.01,0.009,0.013
		c0.062,0.052,0.119,0.104,0.18,0.158c0.011,0.003,0.011,0.005,0.011,0.009c0.06,0.052,0.121,0.105,0.179,0.157
		c0.01,0.005,0.01,0.009,0.022,0.012c0.059,0.053,0.108,0.104,0.17,0.157c0.01,0.004,0.01,0.009,0.019,0.015
		c0.062,0.05,0.11,0.102,0.17,0.154c0.01,0.005,0.01,0.012,0.021,0.016c0.06,0.053,0.121,0.107,0.18,0.16
		c0,0.004,0,0.008,0.009,0.012c0.062,0.053,0.112,0.107,0.17,0.16c0.013,0.005,0.013,0.009,0.022,0.013
		c0.049,0.053,0.108,0.107,0.17,0.159c0,0.006,0.009,0.011,0.009,0.016c0.062,0.053,0.12,0.106,0.17,0.16
		c0.01,0.005,0.01,0.01,0.021,0.017c0.06,0.053,0.108,0.106,0.17,0.161c0.01,0.005,0.01,0.009,0.019,0.014
		c0.051,0.055,0.112,0.108,0.16,0.163c0.01,0.005,0.01,0.01,0.022,0.016c0.059,0.054,0.108,0.108,0.17,0.163
		c0,0.005,0.01,0.01,0.01,0.016c0.058,0.058,0.119,0.119,0.179,0.179c7.76,7.718,12.539,18.357,12.539,30.125
		c0,11.769-4.779,22.411-12.539,30.129c-0.06,0.06-0.121,0.12-0.179,0.181c0,0-0.01,0.01-0.021,0.01
		c-0.051,0.06-0.101,0.109-0.159,0.16c-0.013,0.01-0.022,0.02-0.031,0.029c-0.049,0.051-0.101,0.1-0.151,0.151
		c-0.009,0.009-0.019,0.009-0.019,0.019c-0.062,0.051-0.11,0.101-0.17,0.16c-0.011,0.011-0.021,0.011-0.029,0.02
		c-0.051,0.052-0.1,0.101-0.161,0.15c0,0.011-0.009,0.021-0.019,0.021c-0.052,0.05-0.111,0.11-0.16,0.159
		c-0.01,0.011-0.022,0.011-0.032,0.021c-0.048,0.05-0.109,0.101-0.16,0.149c-0.009,0.012-0.009,0.012-0.019,0.021
		c-0.062,0.05-0.11,0.101-0.17,0.15c-0.011,0.011-0.021,0.021-0.021,0.021c-0.06,0.05-0.108,0.1-0.17,0.149
		c-0.009,0.01-0.009,0.021-0.019,0.021c-0.062,0.049-0.111,0.1-0.17,0.15c-0.013,0.009-0.022,0.02-0.022,0.02
		c-0.058,0.049-0.119,0.1-0.169,0.15c-0.01,0.01-0.021,0.01-0.021,0.02c-0.061,0.049-0.118,0.101-0.18,0.149
		c0,0.011-0.009,0.011-0.019,0.021c-0.062,0.05-0.112,0.1-0.17,0.149c-0.011,0-0.011,0.011-0.022,0.011
		c-0.058,0.049-0.119,0.1-0.179,0.15c0,0.01-0.01,0.01-0.01,0.02c-0.062,0.049-0.13,0.101-0.19,0.149c0,0,0,0.011-0.009,0.011
		c-0.062,0.049-0.121,0.1-0.181,0.15c-0.012,0.009-0.012,0.009-0.021,0.009c-0.059,0.05-0.12,0.101-0.18,0.15l-0.011,0.011
		c-0.069,0.06-0.131,0.109-0.188,0.159c-0.01,0-0.01,0-0.01,0.01c-0.07,0.05-0.132,0.101-0.201,0.149
		c-0.071,0.052-0.129,0.101-0.2,0.161c-5.06,3.95-11.031,6.8-17.541,8.169H55.71c-0.08,0.021-0.17,0.031-0.25,0.051
		c-0.01,0-0.01,0-0.021,0.01c-0.08,0.01-0.16,0.03-0.239,0.04c-0.011,0-0.021,0.011-0.029,0.011
		c-0.071,0.01-0.151,0.029-0.231,0.039c-0.01,0.011-0.019,0.011-0.028,0.011c-0.08,0.009-0.151,0.029-0.231,0.04
		c-0.009,0-0.019,0.01-0.041,0.01c-0.068,0.011-0.138,0.029-0.209,0.039c-0.019,0-0.041,0-0.06,0.011
		c-0.07,0.01-0.129,0.021-0.199,0.03c-0.021,0.01-0.041,0.01-0.062,0.01c-0.069,0.01-0.129,0.03-0.198,0.04
		c-0.022,0-0.052,0.011-0.07,0.011c-0.062,0.01-0.122,0.02-0.19,0.029c-0.021,0-0.051,0.01-0.08,0.01
		c-0.061,0.01-0.11,0.021-0.17,0.029c-0.041,0-0.069,0.012-0.101,0.012c-0.049,0.009-0.11,0.02-0.161,0.029
		c-0.039,0-0.068,0.011-0.109,0.011c-0.049,0.009-0.1,0.019-0.149,0.019c-0.039,0.01-0.08,0.021-0.12,0.021
		c-0.041,0.01-0.089,0.01-0.14,0.021c-0.039,0.01-0.08,0.01-0.119,0.02c-0.051,0-0.09,0.01-0.131,0.01
		c-0.05,0.01-0.101,0.02-0.14,0.02c-0.041,0.011-0.08,0.011-0.121,0.021c-0.051,0-0.1,0.011-0.149,0.011
		c-0.039,0.01-0.071,0.01-0.101,0.02c-0.06,0-0.118,0.01-0.17,0.02h-0.08c-0.06,0.011-0.129,0.02-0.198,0.031h-0.052
		c-0.069,0.009-0.141,0.02-0.221,0.02c0,0-0.009,0.01-0.019,0.01c-1.129,0.109-2.289,0.18-3.449,0.2
		C47.389,89.217,47.109,89.217,46.82,89.217"/>
	<path fill="#E8E8E8" d="M46.82,93.218v-4c0.289,0,0.569,0,0.85-0.01v4C47.39,93.218,47.109,93.218,46.82,93.218 M51.119,89.008
		c0.01,0,0.021-0.01,0.021-0.01S51.129,89.008,51.119,89.008 M51.359,88.979h0.051H51.359 M51.609,88.947h0.081H51.609
		 M51.859,88.928c0.03-0.01,0.061-0.01,0.1-0.02C51.931,88.918,51.89,88.918,51.859,88.928 M52.109,88.897
		c0.041-0.01,0.081-0.01,0.122-0.021C52.19,88.888,52.15,88.888,52.109,88.897 M52.369,88.857c0.041,0,0.08-0.01,0.131-0.01
		C52.449,88.848,52.41,88.857,52.369,88.857 M52.619,88.828c0.051-0.011,0.101-0.011,0.142-0.021
		C52.72,88.817,52.67,88.817,52.619,88.828 M52.879,88.787c0.052,0,0.103-0.01,0.15-0.019
		C52.981,88.777,52.931,88.787,52.879,88.787 M53.14,88.758c0.051-0.01,0.11-0.02,0.16-0.029
		C53.25,88.738,53.19,88.748,53.14,88.758 M53.4,88.718c0.059-0.01,0.11-0.021,0.17-0.03C53.511,88.697,53.459,88.708,53.4,88.718
		 M53.65,88.678c0.069-0.01,0.129-0.02,0.19-0.029C53.779,88.658,53.72,88.668,53.65,88.678 M53.91,88.638
		c0.071-0.01,0.129-0.03,0.199-0.04C54.039,88.607,53.981,88.628,53.91,88.638 M54.17,88.588c0.07-0.01,0.13-0.021,0.199-0.03
		C54.3,88.567,54.24,88.578,54.17,88.588 M54.431,88.547c0.069-0.01,0.14-0.028,0.209-0.039C54.57,88.519,54.5,88.537,54.431,88.547
		 M54.681,88.498c0.08-0.01,0.149-0.03,0.229-0.04C54.83,88.468,54.761,88.488,54.681,88.498 M54.94,88.447
		c0.08-0.01,0.16-0.029,0.229-0.039C55.101,88.418,55.021,88.438,54.94,88.447 M55.199,88.397c0.08-0.01,0.16-0.03,0.241-0.04
		C55.359,88.367,55.279,88.388,55.199,88.397 M55.459,88.348c0.08-0.02,0.17-0.03,0.25-0.051
		C55.629,88.317,55.55,88.328,55.459,88.348 M55.72,88.297c6.51-1.369,12.479-4.219,17.541-8.169
		C68.199,84.078,62.229,86.928,55.72,88.297 M73.261,80.128c0.069-0.061,0.129-0.109,0.198-0.16
		C73.39,80.019,73.33,80.067,73.261,80.128 M73.459,79.968c0.07-0.05,0.132-0.101,0.201-0.15
		C73.591,79.867,73.529,79.918,73.459,79.968 M73.67,79.808c0.06-0.05,0.119-0.1,0.189-0.159
		C73.789,79.708,73.729,79.758,73.67,79.808 M73.869,79.638c0.062-0.05,0.121-0.101,0.181-0.149
		C73.99,79.537,73.931,79.588,73.869,79.638 M74.07,79.479c0.059-0.051,0.12-0.102,0.18-0.15
		C74.19,79.377,74.129,79.428,74.07,79.479 M74.261,79.317c0.06-0.049,0.129-0.1,0.188-0.149
		C74.39,79.218,74.32,79.269,74.261,79.317 M74.459,79.148c0.062-0.051,0.121-0.102,0.181-0.15
		C74.58,79.047,74.521,79.098,74.459,79.148 M74.66,78.988c0.06-0.051,0.11-0.101,0.17-0.15
		C74.771,78.888,74.72,78.938,74.66,78.988 M74.851,78.817c0.06-0.049,0.119-0.1,0.179-0.149
		C74.97,78.718,74.91,78.769,74.851,78.817 M75.05,78.648c0.051-0.051,0.11-0.102,0.17-0.15
		C75.16,78.547,75.101,78.598,75.05,78.648 M75.24,78.479c0.06-0.051,0.11-0.102,0.17-0.15C75.351,78.377,75.3,78.428,75.24,78.479
		 M75.431,78.308c0.06-0.05,0.108-0.1,0.17-0.149C75.539,78.208,75.49,78.258,75.431,78.308 M75.619,78.138
		c0.062-0.05,0.11-0.101,0.17-0.149C75.729,78.037,75.681,78.088,75.619,78.138 M75.81,77.968c0.05-0.05,0.11-0.101,0.16-0.15
		C75.92,77.867,75.859,77.918,75.81,77.968 M76,77.797c0.05-0.049,0.109-0.109,0.16-0.159C76.109,77.688,76.05,77.748,76,77.797
		 M76.181,77.617c0.06-0.05,0.108-0.099,0.16-0.149C76.289,77.519,76.24,77.567,76.181,77.617 M76.369,77.447
		c0.062-0.06,0.11-0.109,0.17-0.16C76.479,77.338,76.431,77.397,76.369,77.447 M76.56,77.269c0.05-0.051,0.101-0.101,0.149-0.151
		C76.66,77.168,76.609,77.218,76.56,77.269 M76.74,77.088c0.06-0.051,0.11-0.1,0.16-0.16C76.851,76.988,76.789,77.037,76.74,77.088
		 M76.92,76.918c0.06-0.061,0.119-0.121,0.181-0.18c7.759-7.72,12.539-18.361,12.539-30.13c0,11.769-4.78,22.411-12.539,30.13
		C77.039,76.797,76.979,76.857,76.92,76.918 M77.101,16.482c-0.062-0.06-0.121-0.121-0.181-0.179
		C76.979,16.363,77.039,16.421,77.101,16.482 M76.91,16.287c-0.06-0.055-0.11-0.109-0.17-0.163
		C76.789,16.178,76.851,16.232,76.91,16.287 M76.72,16.108c-0.05-0.054-0.11-0.108-0.16-0.162C76.609,16,76.67,16.054,76.72,16.108
		 M76.539,15.931c-0.06-0.055-0.108-0.107-0.17-0.161C76.431,15.823,76.479,15.876,76.539,15.931 M76.351,15.753
		c-0.051-0.054-0.11-0.107-0.17-0.16C76.24,15.646,76.3,15.7,76.351,15.753 M76.17,15.578c-0.061-0.052-0.12-0.106-0.17-0.159
		C76.05,15.472,76.109,15.525,76.17,15.578 M75.979,15.406c-0.06-0.053-0.11-0.107-0.17-0.16
		C75.869,15.298,75.92,15.353,75.979,15.406 M75.8,15.233c-0.06-0.053-0.119-0.107-0.181-0.16
		C75.681,15.128,75.74,15.18,75.8,15.233 M75.601,15.058c-0.062-0.052-0.11-0.104-0.17-0.154
		C75.49,14.954,75.539,15.005,75.601,15.058 M75.41,14.889c-0.06-0.052-0.11-0.104-0.17-0.157
		C75.3,14.785,75.351,14.836,75.41,14.889 M75.22,14.72c-0.06-0.052-0.119-0.105-0.181-0.157
		C75.101,14.615,75.16,14.668,75.22,14.72 M75.029,14.554c-0.06-0.053-0.119-0.106-0.179-0.158
		C74.91,14.448,74.97,14.5,75.029,14.554 M74.841,14.383c-0.062-0.052-0.121-0.103-0.181-0.154
		C74.72,14.28,74.779,14.331,74.841,14.383 M74.64,14.218c-0.06-0.052-0.119-0.104-0.181-0.155
		C74.521,14.115,74.58,14.166,74.64,14.218 M74.449,14.053C74.39,14,74.33,13.95,74.261,13.898C74.33,13.95,74.39,14,74.449,14.053
		 M74.25,13.888c-0.06-0.052-0.121-0.103-0.18-0.154C74.129,13.785,74.19,13.836,74.25,13.888 M74.06,13.727
		c-0.069-0.052-0.129-0.104-0.19-0.155C73.931,13.623,73.99,13.675,74.06,13.727 M73.859,13.564c-0.07-0.052-0.13-0.103-0.189-0.155
		C73.729,13.461,73.789,13.513,73.859,13.564 M73.66,13.405c-0.069-0.052-0.131-0.104-0.201-0.156
		C73.529,13.301,73.591,13.353,73.66,13.405 M73.459,13.246c-0.069-0.052-0.129-0.105-0.198-0.157
		C73.33,13.141,73.39,13.193,73.459,13.246 M73.261,13.088C68.341,9.24,62.55,6.441,56.24,5.033
		C62.55,6.441,68.341,9.24,73.261,13.088 M56.231,5.032c-0.081-0.019-0.17-0.037-0.25-0.056C56.062,4.995,56.15,5.013,56.231,5.032
		 M55.959,4.973C55.879,4.956,55.8,4.938,55.72,4.92C55.8,4.938,55.879,4.956,55.959,4.973 M55.699,4.917
		c-0.08-0.016-0.16-0.033-0.24-0.049C55.539,4.884,55.619,4.9,55.699,4.917 M55.431,4.861c-0.071-0.014-0.151-0.03-0.222-0.044
		C55.279,4.832,55.359,4.847,55.431,4.861 M55.16,4.808c-0.069-0.014-0.14-0.028-0.211-0.041C55.021,4.78,55.091,4.793,55.16,4.808
		 M54.9,4.755c-0.07-0.012-0.14-0.025-0.201-0.037C54.761,4.73,54.83,4.744,54.9,4.755 M54.629,4.706
		C54.562,4.695,54.5,4.683,54.44,4.671C54.5,4.683,54.562,4.695,54.629,4.706 M54.359,4.659c-0.06-0.011-0.119-0.022-0.179-0.033
		C54.24,4.637,54.3,4.648,54.359,4.659 M54.091,4.611c-0.052-0.009-0.109-0.019-0.171-0.029C53.981,4.593,54.039,4.603,54.091,4.611
		 M53.83,4.567c-0.06-0.009-0.11-0.018-0.17-0.027C53.72,4.55,53.771,4.559,53.83,4.567 M53.56,4.525
		C53.511,4.516,53.459,4.509,53.4,4.5C53.459,4.509,53.511,4.516,53.56,4.525 M53.289,4.483c-0.039-0.007-0.09-0.014-0.139-0.022
		C53.199,4.47,53.25,4.477,53.289,4.483 M53.029,4.443c-0.048-0.006-0.089-0.012-0.14-0.019C52.94,4.431,52.981,4.438,53.029,4.443
		 M52.761,4.406c-0.041-0.004-0.08-0.011-0.121-0.016C52.681,4.395,52.72,4.4,52.761,4.406 M52.49,4.37
		c-0.041-0.005-0.07-0.01-0.111-0.014C52.42,4.359,52.449,4.365,52.49,4.37 M52.22,4.336c-0.029-0.004-0.06-0.008-0.091-0.012
		C52.16,4.328,52.19,4.332,52.22,4.336 M51.949,4.302c-0.029-0.003-0.049-0.005-0.07-0.008C51.9,4.296,51.92,4.3,51.949,4.302
		 M51.681,4.271c-0.021-0.002-0.041-0.004-0.062-0.006C51.64,4.267,51.66,4.269,51.681,4.271 M51.41,4.242
		c-0.01-0.002-0.031-0.003-0.041-0.004C51.379,4.239,51.4,4.241,51.41,4.242 M51.14,4.213l-0.021-0.001L51.14,4.213 M47.67,4.007
		c-0.28-0.006-0.561-0.009-0.85-0.009V0c0.289,0,0.569,0.001,0.85,0.006V4.007"/>
	<path fill="#4B4BAA" d="M62.93,63.019h-0.009c-0.472,0-1.021-0.061-1.642-0.19c-2.618-0.541-6.08-2.15-9.83-4.521
		c0.462-1.3,0.9-2.649,1.291-4.03c2.38-0.84,4.64-1.759,6.709-2.73c1.812,2.19,3.15,4.182,4.052,5.871
		c0.91,1.73,1.349,3.14,1.349,4.069c0,0.471-0.109,0.81-0.291,1.031C64.3,62.817,63.751,63.019,62.93,63.019 M46.82,61.737v-3.69
		c0.591,0.42,1.17,0.83,1.75,1.222c-0.33,0.839-0.67,1.64-1.012,2.39C47.309,61.658,47.061,61.688,46.82,61.737 M49.411,56.958
		c-0.522-0.36-1.052-0.729-1.58-1.11c0.478-0.14,0.969-0.28,1.448-0.43c0.24-0.07,0.472-0.141,0.711-0.221
		C49.8,55.808,49.609,56.388,49.411,56.958 M46.82,53.658v-3.01c0.869-0.07,1.729-0.48,2.341-1.201
		c0.559-0.65,0.829-1.449,0.829-2.23c0-0.97-0.409-1.942-1.2-2.618l-0.16,0.18l0.16-0.18c-0.58-0.495-1.271-0.763-1.97-0.816v-2.697
		c0.459-0.13,0.931-0.256,1.39-0.377c0.84,0.667,1.69,1.36,2.53,2.076c0.619,0.53,1.209,1.055,1.789,1.577
		c-0.18,1.121-0.399,2.275-0.649,3.476c-0.33,1.609-0.7,3.141-1.09,4.59c-0.729,0.25-1.459,0.48-2.209,0.71l0.069,0.22l-0.069-0.22
		C47.99,53.317,47.411,53.487,46.82,53.658 M53.501,51.467c0.26-1.049,0.5-2.1,0.719-3.149c0.14-0.659,0.271-1.33,0.39-2
		c1.181,1.141,2.261,2.261,3.231,3.351C56.47,50.287,55.02,50.888,53.501,51.467 M60.059,48.598
		c-1.519-1.73-3.209-3.462-4.978-5.128c0.209-1.447,0.368-2.889,0.5-4.301c0.92-0.141,1.808-0.257,2.68-0.344
		c0.468,1.446,1.82,2.377,3.269,2.377c0.341,0,0.67-0.05,1.011-0.152c1.14-0.348,1.971-1.242,2.291-2.306
		c0.5,0.055,0.978,0.127,1.42,0.219c0.849,0.175,1.528,0.416,2.019,0.697c0.481,0.279,0.76,0.593,0.851,0.897
		c0.03,0.088,0.041,0.185,0.041,0.296c0.01,0.476-0.281,1.21-1.062,2.12c-0.769,0.91-2.009,2-3.859,3.225
		C62.99,47.007,61.591,47.817,60.059,48.598 M52.939,41.537c-0.22-0.191-0.438-0.379-0.66-0.565v0.001
		c-0.379-0.328-0.769-0.651-1.149-0.969c0.679-0.151,1.36-0.292,2.031-0.421C53.1,40.217,53.02,40.87,52.939,41.537 M48.74,38.113
		c-0.641-0.491-1.28-0.965-1.92-1.423v-9.606c0.14-0.216,0.289-0.423,0.431-0.62c0.649-0.909,1.278-1.595,1.84-2.048
		c0.56-0.45,1.06-0.661,1.429-0.661h0.01l0.201,0.02l0.049-0.229l-0.049,0.229c0.319,0.064,0.658,0.318,0.979,0.8
		c0.989,1.445,1.729,4.802,1.729,9.556c0,0.944-0.028,1.945-0.09,2.997C51.85,37.397,50.309,37.729,48.74,38.113"/>
	<path fill="#E8E8E8" d="M47.59,68.068c-0.201,0-0.41-0.021-0.609-0.061c-0.051-0.02-0.11-0.029-0.159-0.04v-5.739
		c0.25-0.07,0.5-0.101,0.76-0.101H47.7l0.16,0.01l0.069-0.149c0.379-0.851,0.771-1.75,1.142-2.73l0.067-0.172l-0.16-0.107
		c-0.709-0.48-1.43-0.98-2.157-1.5v-1.791l0.35,0.25c0.75,0.551,1.49,1.081,2.229,1.581l0.261,0.169l0.099-0.279
		c0.271-0.801,0.539-1.631,0.812-2.5l0.129-0.43l-0.431,0.139c-0.369,0.121-0.75,0.24-1.131,0.361
		c-0.629,0.189-1.269,0.369-1.897,0.549l-0.42,0.121v-1.511c0.629-0.17,1.26-0.36,1.897-0.55v-0.01c0.791-0.24,1.571-0.48,2.34-0.75
		l0.121-0.041l0.03-0.119c0.4-1.49,0.791-3.07,1.13-4.74c0.26-1.24,0.481-2.447,0.67-3.614l0.021-0.125l-0.091-0.085
		c-0.608-0.553-1.239-1.11-1.899-1.673c-0.879-0.747-1.76-1.469-2.64-2.161l-0.092-0.071L48.2,40.229
		c-0.459,0.119-0.92,0.244-1.379,0.374v-1.505l0.039-0.01l-0.039-0.025v-1.794c0.579,0.415,1.147,0.843,1.728,1.285l0.09,0.068
		l0.112-0.026c1.66-0.411,3.289-0.759,4.859-1.04l0.18-0.032l0.021-0.184c0.06-1.128,0.101-2.197,0.101-3.208
		c-0.011-3.202-0.33-5.783-0.862-7.622c-0.259-0.92-0.58-1.657-0.949-2.196c-0.358-0.538-0.791-0.894-1.269-0.996l-0.051,0.229
		l0.051-0.229c-0.101-0.021-0.201-0.03-0.301-0.03c-0.539,0.002-1.119,0.275-1.731,0.766c-0.619,0.502-1.289,1.24-1.978,2.206
		v-2.333c1.237-1.342,2.5-2.089,3.688-2.089h0.01c0.199,0,0.401,0.02,0.601,0.061c0.72,0.151,1.34,0.554,1.871,1.192
		C54.6,25,55.35,29.059,55.35,33.958c0,0.983-0.028,2-0.09,3.04l-0.009,0.286l0.279-0.041c1.041-0.154,2.051-0.276,3.019-0.367
		l0.151-0.014l0.051-0.138c0.308-0.837,0.99-1.528,1.91-1.808c0.289-0.088,0.58-0.131,0.869-0.131c1.188,0,2.291,0.719,2.75,1.854
		l0.06,0.132l0.139,0.012c0.781,0.065,1.5,0.163,2.16,0.301c1.241,0.257,2.211,0.639,2.933,1.127
		c0.719,0.492,1.17,1.081,1.389,1.786c0.08,0.284,0.13,0.575,0.13,0.875c0.01,1.959-1.929,4.379-5.8,6.925
		c-1.231,0.81-2.619,1.61-4.119,2.38l-0.26,0.13l0.188,0.229l0.181-0.149l0.1,0.21l-0.1-0.21L61.1,50.537
		c3.42,4.181,5.681,8.221,5.67,10.951c0,0.909-0.239,1.67-0.75,2.27c-0.67,0.779-1.68,1.18-3.09,1.18
		c-0.608,0-1.291-0.07-2.041-0.229l-0.019-0.011h-0.01c-2.771-0.58-6.38-2.239-10.25-4.66l-0.24-0.149l-0.101,0.261
		c-0.31,0.789-0.631,1.56-0.959,2.289l-0.08,0.18l0.149,0.111c0.73,0.549,1.179,1.42,1.179,2.357c0,0.201-0.019,0.402-0.067,0.611
		C50.2,67.098,48.969,68.068,47.59,68.068 M59.581,50.968l-0.16,0.069c-2.141,1.021-4.481,1.971-6.952,2.84l-0.108,0.041
		l-0.029,0.119c-0.42,1.471-0.892,2.91-1.381,4.291l-0.062,0.18l0.151,0.1c3.84,2.44,7.39,4.11,10.14,4.68
		c0.651,0.131,1.231,0.201,1.741,0.201c0.888,0,1.58-0.201,1.99-0.67c0.278-0.33,0.41-0.791,0.41-1.33
		c-0.013-1.07-0.481-2.521-1.41-4.291c-0.933-1.76-2.34-3.83-4.211-6.09L59.581,50.968 M54.229,45.797
		c-0.147,0.811-0.299,1.631-0.469,2.432c-0.25,1.189-0.519,2.379-0.82,3.549l-0.118,0.44l0.42-0.16c1.789-0.66,3.489-1.36,5.08-2.1
		l0.289-0.13l-0.21-0.24c-1.12-1.26-2.381-2.569-3.78-3.91l-0.312-0.307L54.229,45.797 M58.411,38.339
		c-0.99,0.095-2.022,0.229-3.09,0.395l-0.183,0.029l-0.009,0.182c-0.129,1.501-0.309,3.038-0.53,4.579l-0.019,0.121l0.09,0.084
		c1.839,1.723,3.589,3.519,5.16,5.309l0.119,0.141l0.16-0.08c1.608-0.811,3.079-1.66,4.381-2.51c1.879-1.24,3.147-2.355,3.969-3.313
		c0.81-0.959,1.17-1.765,1.17-2.422c0-0.153-0.02-0.297-0.059-0.432c-0.142-0.468-0.531-0.852-1.07-1.167
		c-0.551-0.316-1.282-0.565-2.161-0.75c-0.509-0.108-1.07-0.188-1.669-0.249l-0.202-0.021l-0.048,0.2
		c-0.231,0.999-0.971,1.848-2.021,2.169c-0.29,0.088-0.579,0.131-0.87,0.131c-1.261,0-2.44-0.82-2.841-2.091l-0.028-0.124
		l-0.051-0.2L58.411,38.339 M50.61,39.878l-0.15,0.184c0.509,0.414,1.009,0.835,1.519,1.266v0.002
		c0.332,0.277,0.651,0.559,0.981,0.849l0.33,0.293l0.06-0.438c0.119-0.935,0.231-1.841,0.312-2.719l0.019-0.308l-0.3,0.057
		c-0.93,0.172-1.87,0.369-2.821,0.587l-0.469,0.105l0.37,0.305L50.61,39.878l0.051,0.229L50.61,39.878"/>
	<path fill="#E8E8E8" d="M47.591,68.527c-0.241,0-0.471-0.02-0.702-0.069H46.88c-0.021,0-0.039-0.011-0.06-0.011v-0.48
		c0.05,0.012,0.109,0.021,0.16,0.041c0.199,0.039,0.408,0.06,0.61,0.06c1.378,0,2.609-0.97,2.9-2.37
		c0.049-0.21,0.067-0.41,0.067-0.609c0-0.939-0.449-1.811-1.179-2.359l-0.149-0.11l0.08-0.181c0.328-0.729,0.649-1.5,0.959-2.289
		l0.101-0.26l0.239,0.148c3.871,2.421,7.481,4.081,10.25,4.66h0.011l0.019,0.011c0.75,0.16,1.432,0.229,2.041,0.229
		c1.411,0,2.42-0.4,3.09-1.18c0.51-0.601,0.75-1.36,0.75-2.271c0.01-2.729-2.25-6.771-5.67-10.95l0.18-0.15l0.101,0.211
		l-0.101-0.211l-0.18,0.15l-0.188-0.229l0.26-0.131c1.5-0.771,2.888-1.57,4.119-2.381c3.871-2.545,5.81-4.965,5.801-6.925
		c0-0.299-0.051-0.591-0.131-0.875c-0.219-0.705-0.67-1.293-1.39-1.786c-0.721-0.489-1.69-0.87-2.932-1.127
		c-0.66-0.138-1.379-0.235-2.16-0.3l-0.138-0.012l-0.062-0.133c-0.459-1.135-1.561-1.853-2.75-1.853
		c-0.288,0-0.579,0.042-0.868,0.13c-0.92,0.281-1.603,0.971-1.91,1.81L58.7,36.862l-0.15,0.014
		c-0.969,0.091-1.979,0.213-3.021,0.368l-0.278,0.04l0.009-0.286c0.061-1.04,0.09-2.057,0.09-3.04c0-4.9-0.75-8.959-2.358-10.869
		c-0.531-0.637-1.15-1.041-1.871-1.192c-0.199-0.042-0.401-0.061-0.601-0.061h-0.01c-1.189,0-2.451,0.747-3.689,2.089V23.25
		c1.189-1.183,2.431-1.877,3.699-1.882c0.231,0,0.472,0.024,0.699,0.072c0.831,0.173,1.551,0.648,2.131,1.348
		c0.59,0.701,1.051,1.628,1.42,2.733c0.722,2.209,1.051,5.139,1.051,8.437c0,0.903-0.03,1.832-0.079,2.781
		c0.897-0.128,1.778-0.233,2.618-0.314c0.382-0.907,1.15-1.647,2.16-1.958c0.34-0.102,0.681-0.15,1.01-0.15
		c1.33,0,2.57,0.776,3.132,2.012c0.739,0.067,1.438,0.163,2.067,0.294c1.281,0.268,2.321,0.663,3.112,1.202
		c0.779,0.535,1.32,1.22,1.57,2.033c0.099,0.329,0.147,0.668,0.147,1.013c-0.019,2.274-2.108,4.732-6.009,7.315
		c-1.18,0.771-2.491,1.529-3.911,2.279c3.34,4.141,5.59,8.101,5.603,11.021c0,0.991-0.272,1.881-0.871,2.58
		c-0.771,0.899-1.94,1.34-3.431,1.34h-0.01c-0.65,0-1.349-0.079-2.121-0.239H60.79c-2.799-0.59-6.36-2.221-10.19-4.59
		c-0.259,0.65-0.519,1.279-0.791,1.889c0.75,0.641,1.211,1.592,1.211,2.621c0,0.229-0.019,0.471-0.069,0.699
		C50.62,67.418,49.18,68.527,47.591,68.527 M58.529,36.646L58.529,36.646 M62.921,63.487c-0.51,0-1.09-0.069-1.741-0.2
		c-2.75-0.57-6.3-2.24-10.14-4.68l-0.151-0.1l0.062-0.18c0.489-1.381,0.961-2.82,1.381-4.291l0.028-0.119l0.109-0.041
		c2.471-0.869,4.811-1.818,6.952-2.84l0.16-0.07l0.119,0.141c1.87,2.261,3.278,4.33,4.211,6.09c0.93,1.77,1.397,3.221,1.409,4.29
		c0,0.54-0.131,1-0.409,1.33C64.501,63.287,63.809,63.487,62.921,63.487 M51.45,58.308c3.75,2.37,7.211,3.979,9.829,4.521
		c0.621,0.129,1.171,0.189,1.642,0.189h0.009c0.821,0,1.37-0.2,1.629-0.5c0.183-0.221,0.291-0.561,0.291-1.03
		c0-0.93-0.438-2.339-1.349-4.069c-0.901-1.689-2.241-3.681-4.051-5.871c-2.07,0.971-4.33,1.891-6.709,2.73
		C52.35,55.657,51.911,57.008,51.45,58.308 M46.82,62.229v-0.491c0.24-0.05,0.488-0.08,0.738-0.08c0.342-0.75,0.683-1.55,1.012-2.39
		c-0.579-0.391-1.159-0.801-1.75-1.221v-0.568c0.729,0.52,1.449,1.02,2.158,1.5l0.16,0.109l-0.068,0.17
		c-0.37,0.979-0.762,1.881-1.141,2.729l-0.07,0.151L47.7,62.128h-0.119C47.32,62.128,47.07,62.157,46.82,62.229 M47.71,61.897
		L47.71,61.897l0.009-0.24L47.71,61.897 M49.661,57.688l-0.261-0.17c-0.739-0.5-1.479-1.03-2.229-1.58l-0.351-0.25v-0.039
		l0.421-0.121c0.629-0.18,1.269-0.359,1.897-0.549c0.381-0.121,0.762-0.241,1.131-0.36l0.431-0.14l-0.13,0.429
		c-0.271,0.87-0.541,1.7-0.811,2.5L49.661,57.688 M47.831,55.848c0.528,0.381,1.058,0.75,1.58,1.109
		c0.198-0.57,0.389-1.148,0.58-1.76c-0.24,0.08-0.472,0.15-0.712,0.221C48.8,55.567,48.309,55.708,47.831,55.848 M46.82,54.137
		v-0.479c0.591-0.17,1.171-0.34,1.761-0.519l0.069,0.219l-0.069-0.219c0.75-0.231,1.479-0.461,2.209-0.711
		c0.39-1.449,0.76-2.98,1.09-4.59c0.25-1.201,0.47-2.354,0.649-3.476c-0.579-0.521-1.17-1.046-1.788-1.576
		c-0.841-0.717-1.691-1.41-2.531-2.077c-0.459,0.121-0.931,0.248-1.39,0.377v-0.484c0.459-0.13,0.921-0.254,1.38-0.374l0.108-0.031
		L48.4,40.27c0.879,0.691,1.761,1.414,2.64,2.16c0.66,0.563,1.291,1.12,1.899,1.674l0.09,0.084l-0.02,0.126
		c-0.189,1.167-0.41,2.374-0.669,3.614c-0.34,1.67-0.731,3.25-1.131,4.74l-0.03,0.119l-0.121,0.041
		c-0.769,0.27-1.549,0.51-2.34,0.75v0.01C48.081,53.777,47.45,53.967,46.82,54.137 M50.991,52.607L50.991,52.607 M52.82,52.217
		l0.119-0.439c0.302-1.17,0.57-2.359,0.82-3.549c0.17-0.801,0.321-1.621,0.469-2.432l0.08-0.426l0.312,0.307
		c1.399,1.341,2.659,2.651,3.78,3.911l0.209,0.24l-0.289,0.129c-1.59,0.74-3.291,1.44-5.079,2.102L52.82,52.217 M54.609,46.317
		c-0.118,0.67-0.25,1.34-0.391,2c-0.218,1.051-0.459,2.101-0.718,3.149c1.519-0.578,2.968-1.18,4.34-1.799
		C56.87,48.578,55.79,47.458,54.609,46.317 M59.95,49.178l-0.119-0.141c-1.571-1.79-3.321-3.585-5.16-5.308l-0.09-0.084l0.019-0.122
		c0.221-1.542,0.401-3.079,0.53-4.579l0.009-0.183l0.182-0.029c1.068-0.166,2.101-0.3,3.091-0.395l0.198-0.019l0.052,0.199
		l0.028,0.125c0.401,1.271,1.58,2.09,2.84,2.09c0.291,0,0.58-0.043,0.871-0.13c1.05-0.322,1.789-1.169,2.021-2.169l0.048-0.2
		l0.202,0.021c0.599,0.062,1.16,0.142,1.67,0.25c0.878,0.183,1.609,0.433,2.16,0.75c0.539,0.316,0.929,0.699,1.069,1.167
		c0.039,0.134,0.06,0.279,0.06,0.432c0,0.657-0.36,1.464-1.17,2.423c-0.821,0.957-2.09,2.071-3.969,3.312
		c-1.302,0.85-2.772,1.7-4.382,2.51L59.95,49.178 M55.081,43.47c1.769,1.665,3.459,3.398,4.978,5.127
		c1.532-0.78,2.933-1.59,4.183-2.4c1.85-1.225,3.09-2.314,3.858-3.224c0.78-0.911,1.071-1.645,1.062-2.121
		c0-0.111-0.011-0.207-0.041-0.294c-0.091-0.305-0.369-0.619-0.851-0.897c-0.49-0.282-1.17-0.523-2.019-0.698
		c-0.442-0.091-0.92-0.164-1.42-0.22c-0.321,1.066-1.151,1.96-2.291,2.307c-0.34,0.102-0.67,0.153-1.011,0.153
		c-1.448,0-2.801-0.93-3.27-2.377c-0.871,0.085-1.759,0.203-2.679,0.344C55.45,40.582,55.29,42.022,55.081,43.47 M53.29,42.473
		l-0.33-0.293c-0.33-0.291-0.649-0.572-0.981-0.849v-0.003c-0.51-0.431-1.01-0.851-1.519-1.266l0.149-0.184l0.052,0.229
		l-0.052-0.229l-0.149,0.184l-0.369-0.305l0.468-0.104c0.951-0.218,1.892-0.416,2.821-0.588l0.3-0.057l-0.019,0.309
		c-0.08,0.876-0.192,1.783-0.312,2.717L53.29,42.473 M52.279,40.972c0.222,0.185,0.439,0.374,0.66,0.564
		c0.08-0.666,0.16-1.319,0.222-1.953c-0.67,0.129-1.353,0.269-2.031,0.421C51.51,40.321,51.9,40.644,52.279,40.972L52.279,40.972
		 M46.82,39.098v-0.036l0.039,0.025L46.82,39.098 M48.639,38.622l-0.089-0.068c-0.581-0.442-1.149-0.871-1.729-1.285V36.69
		c0.64,0.458,1.279,0.932,1.921,1.423c1.567-0.385,3.108-0.716,4.608-0.985c0.062-1.052,0.09-2.052,0.09-2.997
		c0-4.754-0.739-8.111-1.729-9.555c-0.321-0.483-0.66-0.737-0.979-0.801l0.049-0.229l0.052-0.229
		c0.478,0.103,0.91,0.458,1.269,0.996c0.369,0.54,0.69,1.276,0.95,2.196c0.531,1.84,0.851,4.421,0.861,7.622
		c0,1.011-0.041,2.081-0.101,3.208l-0.021,0.185l-0.181,0.031c-1.569,0.281-3.198,0.629-4.858,1.04L48.639,38.622 M46.82,27.083
		v-0.825c0.689-0.965,1.359-1.703,1.979-2.206c0.611-0.491,1.191-0.763,1.729-0.766c0.101,0,0.201,0.009,0.302,0.03l-0.052,0.229
		l-0.049,0.229l-0.201-0.02h-0.01c-0.369,0-0.869,0.211-1.429,0.661c-0.562,0.454-1.19,1.139-1.84,2.048
		C47.109,26.66,46.96,26.868,46.82,27.083"/>
	<path fill="#FFFFFF" d="M43.596,47.204c0,1.835,1.48,3.324,3.313,3.341v-6.682C45.076,43.88,43.596,45.368,43.596,47.204z"/>
	<path fill="#E8E8E8" d="M46.939,43.86c-0.011,0-0.021,0.003-0.031,0.003v6.682c0.011,0,0.021,0.002,0.031,0.002
		c1.847,0,3.344-1.496,3.344-3.343C50.283,45.357,48.786,43.86,46.939,43.86z"/>
</g>
</svg>
