<?xml version="1.0" encoding="utf-8"?>
<!-- Generator: Adobe Illustrator 16.0.0, SVG Export Plug-In . SVG Version: 6.00 Build 0)  -->
<!DOCTYPE svg PUBLIC "-//W3C//DTD SVG 1.1//EN" "http://www.w3.org/Graphics/SVG/1.1/DTD/svg11.dtd">
<svg version="1.1" id="Layer_1" xmlns="http://www.w3.org/2000/svg" xmlns:xlink="http://www.w3.org/1999/xlink" x="0px" y="0px"
	 width="93.64px" height="93.218px" viewBox="0 0 93.64 93.218" enable-background="new 0 0 93.64 93.218" xml:space="preserve">
<g>
	<path fill="#A8A3F0" d="M91.644,46.621c0,24.629-20.067,44.6-44.826,44.6C22.067,91.221,2,71.25,2,46.621
		C2,21.971,22.067,2,46.817,2C71.576,2,91.644,21.971,91.644,46.621"/>
	<path fill="#FFFFFF" d="M91.644,46.621h-2c-0.002,11.76-4.789,22.399-12.539,30.12c-7.756,7.709-18.449,12.48-30.287,12.48
		c-11.832,0-22.524-4.771-30.278-12.48C8.789,69.02,4.002,58.381,4,46.621c0.002-11.771,4.789-22.419,12.539-30.13
		C24.293,8.771,34.985,4,46.817,4c11.838,0,22.531,4.771,30.287,12.49c7.75,7.711,12.537,18.359,12.539,30.13H91.644h1.998
		C93.642,20.861,72.674,0,46.817,0C20.97,0,0.002,20.861,0,46.621c0.002,25.739,20.97,46.6,46.817,46.6
		c25.856,0,46.824-20.861,46.824-46.6H91.644"/>
	<path fill="#DEDEDE" d="M93.643,46.621h-1.998h-2c-0.002,11.76-4.789,22.399-12.539,30.12c-7.569,7.529-17.937,12.25-29.433,12.469
		v4C73.134,92.76,93.643,72.08,93.643,46.621 M47.673,0.01v4c11.496,0.23,21.863,4.95,29.433,12.48
		c7.75,7.711,12.537,18.359,12.539,30.13h2h1.998C93.643,21.151,73.134,0.471,47.673,0.01"/>
	<rect x="22.075" y="65.1" fill="#FFFFFF" width="53.256" height="3.121"/>
	<path fill="#FFFFFF" d="M55.465,22.041V63.09c0,0.33,0.926,0.59,2.069,0.59h9.66c1.139,0,2.071-0.26,2.071-0.59V22.041
		c0-0.33-0.933-0.59-2.071-0.59h-9.66C56.391,21.451,55.465,21.71,55.465,22.041 M56.786,57.531l0.148-0.242h10.334l0.15,0.242
		v1.139l-0.15,0.24H56.935l-0.148-0.24V57.531 M56.786,32.471l0.148-0.238h10.334l0.15,0.238v1.14l-0.15,0.25H56.935l-0.148-0.25
		V32.471 M56.786,27.46l0.148-0.239h10.334l0.15,0.239v1.14l-0.15,0.24H56.935l-0.148-0.24V27.46"/>
	<path fill="#FFFFFF" d="M39.938,22.041V63.09c0,0.33,0.926,0.59,2.067,0.59h9.664c1.139,0,2.069-0.26,2.069-0.59V22.041
		c0-0.33-0.931-0.59-2.069-0.59h-9.664C40.863,21.451,39.938,21.71,39.938,22.041 M41.257,57.531l0.149-0.242h10.335l0.15,0.242
		v1.139l-0.15,0.24H41.406l-0.149-0.24V57.531 M41.257,32.471l0.149-0.238h10.335l0.15,0.238v1.14l-0.15,0.25H41.406l-0.149-0.25
		V32.471 M41.257,27.46l0.149-0.239h10.335l0.15,0.239v1.14l-0.15,0.24H41.406l-0.149-0.24V27.46"/>
	<path fill="#FFFFFF" d="M23.428,22.041V63.09c0,0.33,0.925,0.59,2.069,0.59h9.662c1.139,0,2.068-0.26,2.068-0.59V22.041
		c0-0.33-0.93-0.59-2.068-0.59h-9.662C24.353,21.451,23.428,21.71,23.428,22.041 M24.749,57.531l0.148-0.242h10.334l0.15,0.242
		v1.139l-0.15,0.24H24.897l-0.148-0.24V57.531z M24.749,32.471l0.148-0.238h10.334l0.15,0.238v1.14l-0.15,0.25H24.897l-0.148-0.25
		V32.471z M24.749,27.46l0.148-0.239h10.334l0.15,0.239v1.14l-0.15,0.24H24.897l-0.148-0.24V27.46z"/>
	<path fill="#FFFFFF" d="M74.462,67.781V67.01H19.184c-0.125,0-0.246,0.09-0.334,0.23c-0.087,0.141-0.136,0.34-0.136,0.541v3.238
		c0,0.201,0.049,0.4,0.136,0.541c0.088,0.141,0.209,0.221,0.334,0.221h55.278c0.123,0,0.244-0.08,0.332-0.221
		c0.086-0.141,0.135-0.34,0.135-0.541v-3.238c0-0.201-0.049-0.4-0.135-0.541c-0.088-0.141-0.209-0.23-0.332-0.23V67.781h-0.471
		v2.479h-54.34v-1.721h54.811V67.781h-0.471H74.462"/>
	<path fill="#8585C1" d="M47.513,89.221V71.781h26.949c0.123,0,0.244-0.08,0.333-0.221c0.085-0.141,0.135-0.34,0.135-0.541v-2.799
		h0.401V65.1H47.513v-1.42h4.156c1.139,0,2.07-0.26,2.07-0.59V22.042c0-0.33-0.932-0.591-2.07-0.591h-4.156V4.011h0.16
		c5.115,0.1,10.007,1.09,14.525,2.819c0.006,0.01,0.014,0.01,0.02,0.01c0.068,0.031,0.137,0.05,0.208,0.08
		c0.011,0.01,0.024,0.01,0.036,0.021c0.063,0.021,0.127,0.05,0.191,0.07c0.018,0.01,0.033,0.01,0.051,0.021
		c0.061,0.029,0.123,0.049,0.184,0.068c0.018,0.011,0.038,0.021,0.055,0.031c0.06,0.02,0.117,0.039,0.178,0.07
		c0.02,0.01,0.043,0.02,0.064,0.029c0.055,0.02,0.11,0.04,0.164,0.061c0.025,0.01,0.051,0.02,0.077,0.039
		c0.052,0.021,0.104,0.041,0.155,0.061c0.027,0.01,0.056,0.02,0.082,0.039c0.051,0.021,0.102,0.041,0.15,0.061
		c0.03,0.01,0.061,0.03,0.088,0.041c0.049,0.02,0.096,0.04,0.144,0.059c0.032,0.011,0.063,0.031,0.097,0.041
		c0.045,0.02,0.088,0.039,0.133,0.06c0.035,0.021,0.071,0.03,0.106,0.05c0.042,0.021,0.084,0.041,0.127,0.061
		c0.034,0.01,0.071,0.029,0.108,0.049c0.041,0.011,0.082,0.031,0.123,0.051c0.037,0.02,0.074,0.04,0.111,0.05
		c0.039,0.021,0.079,0.04,0.12,0.061c0.038,0.021,0.078,0.04,0.117,0.05c0.038,0.02,0.073,0.04,0.11,0.061
		c0.043,0.02,0.086,0.039,0.127,0.059c0.033,0.011,0.066,0.031,0.101,0.041c0.045,0.029,0.091,0.05,0.136,0.07
		c0.032,0.02,0.063,0.03,0.096,0.049c0.047,0.021,0.094,0.041,0.141,0.07c0.027,0.01,0.057,0.02,0.085,0.04
		c0.05,0.021,0.101,0.05,0.153,0.07c0.023,0.021,0.049,0.03,0.072,0.04c0.055,0.029,0.109,0.061,0.162,0.08
		c0.021,0.01,0.043,0.02,0.066,0.04c0.057,0.021,0.113,0.05,0.17,0.08c0.018,0.01,0.038,0.021,0.055,0.03
		c0.063,0.03,0.121,0.06,0.182,0.1c0.016,0,0.029,0.01,0.045,0.02c0.063,0.03,0.125,0.07,0.188,0.101
		c0.014,0.01,0.026,0.01,0.039,0.021c0.068,0.04,0.135,0.069,0.203,0.108c0.006,0,0.014,0.011,0.021,0.011
		c0.07,0.04,0.143,0.08,0.213,0.12h0.012c1.66,0.91,3.255,1.931,4.771,3.051h0.004c0.068,0.05,0.137,0.099,0.203,0.149h0.002
		c0.068,0.05,0.137,0.101,0.203,0.15c0.002,0,0.002,0.01,0.004,0.01c0.067,0.049,0.135,0.1,0.199,0.15h0.006
		c0.066,0.049,0.133,0.1,0.198,0.148c0.001,0.011,0.005,0.011,0.007,0.011c0.065,0.05,0.129,0.101,0.193,0.149
		c0.004,0,0.008,0.01,0.012,0.01c0.064,0.051,0.127,0.102,0.189,0.15c0.004,0,0.009,0,0.013,0.011c0.062,0.05,0.124,0.1,0.187,0.149
		c0.006,0,0.01,0,0.016,0.01c0.061,0.051,0.121,0.101,0.182,0.151c0.006,0,0.012,0.009,0.018,0.009
		c0.061,0.051,0.123,0.1,0.185,0.15c0.003,0,0.007,0.01,0.013,0.01c0.062,0.051,0.121,0.1,0.184,0.15
		c0.005,0.01,0.011,0.01,0.014,0.01c0.063,0.05,0.122,0.11,0.184,0.16c0.004,0,0.008,0,0.014,0.011
		c0.061,0.05,0.119,0.099,0.18,0.149c0.006,0.01,0.01,0.01,0.018,0.01c0.059,0.061,0.117,0.109,0.177,0.159
		c0.006,0,0.011,0.011,0.017,0.011c0.061,0.05,0.119,0.1,0.178,0.16c0.006,0,0.01,0,0.016,0.011c0.057,0.05,0.115,0.099,0.175,0.149
		c0.005,0.01,0.011,0.01,0.019,0.02c0.058,0.051,0.113,0.1,0.17,0.15c0.008,0.01,0.015,0.01,0.021,0.02
		c0.057,0.051,0.114,0.101,0.17,0.15c0.006,0.011,0.014,0.011,0.02,0.02c0.06,0.051,0.115,0.1,0.172,0.16
		c0.007,0,0.013,0.01,0.018,0.01c0.057,0.051,0.115,0.11,0.172,0.16c0.006,0.01,0.012,0.01,0.016,0.01
		c0.058,0.061,0.113,0.111,0.17,0.16c0.007,0.01,0.013,0.01,0.018,0.021c0.057,0.05,0.113,0.11,0.168,0.16
		c0.006,0,0.014,0.01,0.02,0.01c0.058,0.06,0.115,0.119,0.175,0.17c0.003,0,0.006,0.01,0.009,0.01
		c0.059,0.061,0.117,0.11,0.176,0.171c0.002,0,0.004,0.01,0.008,0.01c0.058,0.05,0.111,0.109,0.168,0.16
		c0.006,0.01,0.012,0.01,0.017,0.02c0.06,0.061,0.121,0.119,0.181,0.18c7.75,7.711,12.537,18.359,12.539,30.131
		C89.642,58.381,84.854,69.02,77.104,76.74c-0.105,0.109-0.215,0.209-0.322,0.32c-0.012,0.01-0.023,0.02-0.035,0.029
		c-0.049,0.051-0.1,0.1-0.148,0.141c-0.011,0.01-0.021,0.029-0.033,0.039c-0.056,0.051-0.111,0.102-0.17,0.16
		c-0.002,0-0.006,0-0.009,0.01c-0.058,0.051-0.116,0.111-0.172,0.16c-0.004,0-0.007,0.01-0.011,0.01
		c-0.057,0.051-0.114,0.111-0.172,0.16c-0.004,0-0.008,0.012-0.012,0.012c-0.059,0.059-0.119,0.109-0.179,0.168h-0.004
		c-0.06,0.051-0.119,0.111-0.179,0.16c-0.002,0-0.004,0.012-0.008,0.012c-0.121,0.109-0.244,0.219-0.369,0.328H75.28
		c-0.063,0.061-0.125,0.111-0.187,0.172h-0.001c-0.063,0.049-0.125,0.109-0.188,0.16h-0.002c-2.648,2.289-5.58,4.26-8.738,5.859
		h-0.012c-0.068,0.039-0.139,0.07-0.209,0.109c-0.008,0-0.014,0-0.021,0.01c-0.067,0.031-0.132,0.061-0.2,0.1
		c-0.009,0-0.02,0.012-0.031,0.012c-0.064,0.029-0.131,0.068-0.193,0.1c-0.014,0-0.025,0.01-0.035,0.01
		c-0.064,0.029-0.126,0.061-0.189,0.09c-0.015,0.01-0.029,0.02-0.045,0.029c-0.061,0.021-0.121,0.051-0.181,0.08
		c-0.019,0.01-0.036,0.021-0.052,0.021c-0.059,0.029-0.116,0.059-0.174,0.09c-0.021,0.01-0.041,0.01-0.062,0.02
		c-0.058,0.029-0.114,0.061-0.17,0.08c-0.022,0.01-0.042,0.02-0.063,0.029c-0.055,0.029-0.111,0.051-0.166,0.07
		c-0.024,0.02-0.049,0.029-0.074,0.041c-0.053,0.02-0.104,0.039-0.155,0.068c-0.026,0.01-0.054,0.021-0.078,0.031
		c-0.052,0.02-0.104,0.049-0.155,0.07c-0.027,0.01-0.057,0.02-0.086,0.039c-0.049,0.02-0.099,0.041-0.15,0.061
		c-0.026,0.01-0.055,0.02-0.082,0.029c-0.051,0.029-0.102,0.051-0.151,0.07c-0.032,0.01-0.06,0.02-0.089,0.039
		c-0.049,0.021-0.098,0.041-0.146,0.061c-0.031,0.01-0.063,0.02-0.094,0.041c-0.046,0.01-0.094,0.029-0.143,0.049
		c-0.033,0.02-0.068,0.031-0.104,0.041c-0.045,0.02-0.088,0.039-0.133,0.059c-0.035,0.012-0.07,0.031-0.105,0.041
		c-0.043,0.02-0.09,0.039-0.135,0.051c-0.037,0.02-0.072,0.029-0.109,0.049c-0.043,0.01-0.084,0.029-0.127,0.041
		c-0.039,0.018-0.078,0.029-0.117,0.049c-0.041,0.02-0.082,0.029-0.123,0.051c-0.041,0.01-0.081,0.029-0.123,0.039
		c-0.04,0.021-0.079,0.031-0.119,0.051c-0.041,0.01-0.083,0.029-0.125,0.039c-0.039,0.021-0.078,0.031-0.117,0.051
		c-0.043,0.01-0.088,0.029-0.131,0.039c-0.037,0.021-0.074,0.031-0.111,0.041c-0.049,0.02-0.098,0.039-0.146,0.051
		c-0.032,0.02-0.063,0.029-0.095,0.039c-0.055,0.02-0.108,0.039-0.164,0.051c-0.027,0.01-0.055,0.02-0.08,0.029
		c-0.059,0.02-0.113,0.039-0.17,0.061c-0.025,0.01-0.051,0.02-0.075,0.029c-0.069,0.02-0.136,0.041-0.203,0.061
		c-0.015,0.01-0.028,0.01-0.041,0.02c-0.747,0.24-1.502,0.471-2.267,0.68h-0.012l-0.24,0.061c-0.01,0-0.02,0.01-0.029,0.01
		c-0.074,0.02-0.15,0.039-0.223,0.061c-0.016,0-0.029,0.008-0.043,0.008c-0.07,0.021-0.143,0.031-0.215,0.051
		c-0.014,0.01-0.027,0.01-0.043,0.01c-0.07,0.021-0.141,0.041-0.211,0.061c-0.017,0-0.033,0-0.051,0.01
		c-0.066,0.012-0.135,0.031-0.205,0.051c-0.018,0-0.037,0.01-0.056,0.01c-0.067,0.02-0.134,0.029-0.199,0.051
		c-0.021,0-0.041,0.01-0.062,0.01c-0.066,0.02-0.131,0.029-0.196,0.039c-0.021,0.01-0.041,0.01-0.063,0.021
		c-0.063,0.01-0.129,0.029-0.193,0.039c-0.023,0.01-0.047,0.01-0.069,0.02c-0.062,0.01-0.123,0.021-0.185,0.041
		c-0.027,0-0.055,0.01-0.082,0.01c-0.059,0.01-0.115,0.029-0.174,0.039c-0.031,0-0.062,0.01-0.092,0.021
		c-0.056,0.01-0.111,0.02-0.168,0.029c-0.029,0.01-0.061,0.01-0.09,0.02c-0.057,0.01-0.113,0.02-0.169,0.029
		c-0.032,0.012-0.062,0.012-0.095,0.021c-0.055,0.01-0.109,0.02-0.163,0.029c-0.033,0.01-0.067,0.01-0.101,0.02
		c-0.053,0.012-0.104,0.021-0.156,0.031c-0.037,0-0.073,0.01-0.108,0.02c-0.051,0.01-0.101,0.01-0.153,0.02
		c-0.035,0.01-0.072,0.02-0.109,0.02c-0.049,0.012-0.1,0.021-0.148,0.029c-0.039,0-0.08,0.012-0.119,0.021
		c-0.045,0-0.092,0.01-0.138,0.02c-0.041,0.01-0.084,0.01-0.125,0.021c-0.044,0.01-0.089,0.01-0.133,0.02
		c-0.046,0.01-0.091,0.01-0.136,0.02c-0.041,0.01-0.082,0.01-0.123,0.02c-0.047,0-0.094,0.01-0.141,0.021
		c-0.041,0-0.08,0.01-0.119,0.02c-0.051,0-0.099,0.01-0.149,0.02c-0.035,0-0.071,0.01-0.106,0.01c-0.053,0.01-0.107,0.02-0.162,0.02
		c-0.029,0.01-0.062,0.01-0.094,0.01c-0.057,0.012-0.117,0.021-0.174,0.031c-0.029,0-0.055,0-0.081,0.01
		c-0.062,0-0.123,0.01-0.185,0.02c-0.024,0-0.049,0-0.072,0.01c-0.068,0.01-0.133,0.01-0.2,0.02c-0.015,0-0.03,0-0.044,0.012
		c-0.076,0-0.15,0.01-0.225,0.02h-0.024c-1.224,0.129-2.46,0.209-3.712,0.23C47.62,89.211,47.565,89.221,47.513,89.221
		 M57.534,21.451c-1.145,0-2.069,0.261-2.069,0.591V63.09c0,0.33,0.925,0.59,2.069,0.59h9.66c1.139,0,2.07-0.26,2.07-0.59V22.042
		c0-0.33-0.932-0.591-2.07-0.591H57.534"/>
	<path fill="#D8D8D8" d="M47.513,93.221v-4c0.054,0,0.106-0.012,0.16-0.012v4C47.619,93.209,47.566,93.221,47.513,93.221
		 M59.628,91.459c0.008-0.01,0.018-0.01,0.027-0.01C59.646,91.449,59.638,91.449,59.628,91.459 M59.767,91.42
		c0.011-0.01,0.021-0.01,0.031-0.01C59.786,91.41,59.777,91.41,59.767,91.42 M59.9,91.381c0.013-0.012,0.028-0.012,0.043-0.012
		C59.929,91.369,59.915,91.369,59.9,91.381 M60.036,91.34c0.018-0.01,0.038-0.01,0.057-0.02C60.075,91.33,60.054,91.33,60.036,91.34
		 M60.167,91.301c0.022-0.012,0.042-0.012,0.065-0.02C60.209,91.289,60.189,91.289,60.167,91.301 M60.308,91.26
		c0.022-0.01,0.043-0.01,0.064-0.02C60.353,91.25,60.329,91.25,60.308,91.26 M60.439,91.221c0.026-0.012,0.054-0.02,0.079-0.031
		C60.493,91.201,60.466,91.209,60.439,91.221 M60.574,91.18c0.03-0.01,0.062-0.02,0.094-0.029
		C60.638,91.16,60.604,91.17,60.574,91.18 M60.702,91.141c0.036-0.01,0.071-0.021,0.105-0.031
		C60.773,91.119,60.739,91.131,60.702,91.141 M60.839,91.1c0.037-0.02,0.076-0.029,0.113-0.039
		C60.914,91.07,60.876,91.08,60.839,91.1 M60.97,91.061c0.037-0.021,0.076-0.029,0.113-0.041
		C61.044,91.031,61.009,91.039,60.97,91.061 M61.109,91.01c0.039-0.01,0.075-0.02,0.114-0.039C61.185,90.99,61.148,91,61.109,91.01
		 M61.241,90.971c0.039-0.012,0.077-0.031,0.116-0.041C61.318,90.939,61.28,90.959,61.241,90.971 M61.378,90.92
		c17.108-5.561,29.881-20.67,31.965-39.01C91.261,70.25,78.488,85.359,61.378,90.92 M51.384,88.98h0.025H51.384 M51.634,88.959
		c0.015-0.01,0.028-0.01,0.043-0.01C51.662,88.949,51.648,88.949,51.634,88.959 M51.877,88.93c0.025-0.01,0.048-0.01,0.073-0.01
		C51.927,88.92,51.902,88.92,51.877,88.93 M52.134,88.9c0.027-0.01,0.053-0.01,0.082-0.01C52.187,88.891,52.161,88.891,52.134,88.9
		 M52.39,88.859c0.031,0,0.063,0,0.095-0.01C52.452,88.859,52.423,88.859,52.39,88.859 M52.646,88.83c0.035,0,0.07-0.01,0.105-0.01
		C52.718,88.82,52.681,88.83,52.646,88.83 M52.902,88.801c0.039-0.012,0.077-0.02,0.118-0.02
		C52.979,88.781,52.941,88.789,52.902,88.801 M53.161,88.76c0.041-0.01,0.082-0.01,0.123-0.02
		C53.243,88.75,53.201,88.75,53.161,88.76 M53.419,88.721c0.045-0.012,0.09-0.012,0.133-0.02
		C53.507,88.709,53.464,88.709,53.419,88.721 M53.677,88.68c0.047-0.01,0.094-0.02,0.14-0.02
		C53.771,88.66,53.724,88.67,53.677,88.68 M53.935,88.641c0.05-0.01,0.1-0.021,0.148-0.031
		C54.034,88.619,53.984,88.631,53.935,88.641 M54.193,88.59c0.051-0.01,0.101-0.01,0.151-0.02
		C54.294,88.58,54.244,88.58,54.193,88.59 M54.453,88.551c0.052-0.012,0.104-0.02,0.158-0.031
		C54.558,88.531,54.507,88.539,54.453,88.551 M54.71,88.5c0.055-0.01,0.11-0.02,0.164-0.029C54.82,88.48,54.765,88.49,54.71,88.5
		 M54.968,88.449c0.058-0.01,0.112-0.02,0.17-0.029C55.081,88.43,55.025,88.439,54.968,88.449 M55.228,88.4
		c0.057-0.01,0.111-0.02,0.168-0.031C55.341,88.381,55.284,88.391,55.228,88.4 M55.488,88.352c0.058-0.012,0.114-0.031,0.173-0.041
		C55.603,88.32,55.546,88.34,55.488,88.352 M55.742,88.301c0.062-0.02,0.124-0.031,0.185-0.041
		C55.866,88.27,55.804,88.281,55.742,88.301 M55.997,88.24c0.064-0.01,0.129-0.031,0.194-0.039
		C56.127,88.209,56.062,88.23,55.997,88.24 M56.253,88.18c0.067-0.01,0.131-0.02,0.197-0.039
		C56.384,88.16,56.318,88.17,56.253,88.18 M56.511,88.131c0.066-0.021,0.133-0.031,0.199-0.051
		C56.644,88.1,56.578,88.109,56.511,88.131 M56.767,88.07c0.07-0.02,0.139-0.039,0.205-0.051
		C56.904,88.031,56.837,88.051,56.767,88.07 M57.023,88.01c0.069-0.02,0.14-0.039,0.211-0.061
		C57.163,87.971,57.093,87.99,57.023,88.01 M57.277,87.939c0.071-0.02,0.144-0.029,0.215-0.049
		C57.421,87.91,57.349,87.92,57.277,87.939 M57.534,87.881c0.073-0.021,0.148-0.041,0.223-0.061
		C57.681,87.84,57.607,87.859,57.534,87.881 M57.786,87.811l0.241-0.061L57.786,87.811 M58.038,87.75
		c0.764-0.211,1.52-0.439,2.266-0.68C59.558,87.311,58.802,87.539,58.038,87.75 M60.345,87.051c0.067-0.02,0.135-0.041,0.203-0.061
		C60.479,87.01,60.412,87.031,60.345,87.051 M60.623,86.959c0.058-0.02,0.113-0.039,0.17-0.059
		C60.736,86.92,60.681,86.939,60.623,86.959 M60.874,86.869c0.055-0.01,0.11-0.029,0.164-0.049
		C60.984,86.84,60.929,86.859,60.874,86.869 M61.132,86.781c0.049-0.012,0.098-0.031,0.147-0.051
		C61.229,86.75,61.181,86.77,61.132,86.781 M61.39,86.689c0.043-0.01,0.088-0.029,0.131-0.039
		C61.478,86.66,61.433,86.68,61.39,86.689 M61.638,86.6c0.041-0.01,0.084-0.029,0.125-0.039C61.722,86.57,61.681,86.59,61.638,86.6
		 M61.882,86.51c0.041-0.01,0.082-0.029,0.123-0.039C61.964,86.48,61.923,86.5,61.882,86.51 M62.127,86.42
		c0.039-0.02,0.078-0.029,0.117-0.051C62.205,86.391,62.166,86.4,62.127,86.42 M62.371,86.33c0.038-0.02,0.074-0.029,0.111-0.049
		C62.445,86.301,62.409,86.311,62.371,86.33 M62.617,86.23c0.035-0.01,0.069-0.029,0.104-0.041
		C62.687,86.201,62.652,86.221,62.617,86.23 M62.854,86.131c0.035-0.012,0.07-0.021,0.104-0.041
		C62.925,86.109,62.89,86.119,62.854,86.131 M63.101,86.039c0.031-0.02,0.062-0.029,0.095-0.039
		C63.162,86.01,63.132,86.02,63.101,86.039 M63.341,85.939c0.029-0.02,0.058-0.029,0.088-0.039
		C63.4,85.91,63.369,85.92,63.341,85.939 M63.581,85.83c0.028-0.01,0.055-0.02,0.082-0.029C63.636,85.811,63.609,85.82,63.581,85.83
		 M63.814,85.74c0.028-0.02,0.057-0.031,0.086-0.039C63.871,85.709,63.843,85.721,63.814,85.74 M64.054,85.631
		c0.025-0.012,0.054-0.021,0.078-0.031C64.104,85.609,64.08,85.619,64.054,85.631 M64.288,85.531
		c0.026-0.012,0.049-0.021,0.075-0.041C64.337,85.51,64.314,85.52,64.288,85.531 M64.529,85.42c0.021-0.01,0.041-0.02,0.062-0.029
		C64.57,85.4,64.55,85.41,64.529,85.42 M64.761,85.311c0.021-0.01,0.041-0.01,0.063-0.021
		C64.802,85.301,64.782,85.301,64.761,85.311 M64.996,85.201c0.017,0,0.035-0.012,0.052-0.021
		C65.032,85.189,65.013,85.201,64.996,85.201 M65.229,85.1c0.015-0.01,0.029-0.02,0.046-0.029
		C65.259,85.08,65.244,85.09,65.229,85.1 M65.464,84.98c0.01,0,0.022-0.01,0.034-0.01C65.486,84.971,65.474,84.98,65.464,84.98
		 M65.693,84.869c0.01,0,0.021-0.01,0.03-0.01C65.714,84.859,65.703,84.869,65.693,84.869 M65.923,84.76
		c0.008-0.01,0.014-0.01,0.022-0.01C65.937,84.75,65.931,84.75,65.923,84.76 M66.154,84.641h0.01H66.154 M74.904,78.781
		L74.904,78.781L74.904,78.781 M75.093,78.619L75.093,78.619L75.093,78.619 M75.28,78.449h0.003H75.28 M75.652,78.119
		c0.003,0,0.005-0.01,0.007-0.01C75.657,78.109,75.655,78.119,75.652,78.119 M75.837,77.949h0.004H75.837 M76.021,77.781
		c0.005,0,0.009-0.012,0.012-0.012C76.027,77.77,76.025,77.781,76.021,77.781 M76.204,77.609c0.003,0,0.006-0.01,0.01-0.01
		C76.21,77.6,76.207,77.609,76.204,77.609 M76.386,77.439c0.004-0.01,0.008-0.01,0.01-0.01C76.394,77.43,76.39,77.43,76.386,77.439
		 M76.566,77.27c0.01-0.01,0.021-0.029,0.032-0.039C76.587,77.24,76.577,77.25,76.566,77.27 M76.746,77.09
		c0.013-0.01,0.024-0.02,0.037-0.029C76.771,77.07,76.759,77.08,76.746,77.09 M93.343,51.91c0.012-0.1,0.023-0.189,0.032-0.291
		C93.366,51.721,93.354,51.811,93.343,51.91 M93.376,51.619c0.01-0.1,0.02-0.189,0.03-0.289
		C93.396,51.43,93.386,51.52,93.376,51.619 M93.407,51.32c0.004-0.039,0.008-0.09,0.014-0.131
		C93.415,51.23,93.411,51.281,93.407,51.32 M93.421,51.18c0.004-0.049,0.008-0.09,0.012-0.129
		C93.429,51.09,93.425,51.141,93.421,51.18 M93.435,51.031c0.005-0.041,0.009-0.092,0.014-0.131
		C93.443,50.939,93.439,50.98,93.435,51.031 M93.45,50.881c0.003-0.041,0.006-0.08,0.01-0.121
		C93.456,50.801,93.453,50.84,93.45,50.881 M93.464,50.73c0.002-0.041,0.006-0.08,0.008-0.121
		C93.47,50.65,93.466,50.689,93.464,50.73 M93.476,50.58c0.004-0.041,0.007-0.08,0.011-0.121
		C93.482,50.5,93.478,50.539,93.476,50.58 M93.488,50.43c0.003-0.029,0.006-0.07,0.009-0.109
		C93.494,50.359,93.491,50.4,93.488,50.43 M93.499,50.289c0.003-0.039,0.006-0.08,0.01-0.119
		C93.505,50.209,93.502,50.25,93.499,50.289 M93.511,50.131c0.004-0.029,0.006-0.061,0.008-0.1
		C93.517,50.061,93.513,50.102,93.511,50.131 M93.523,49.99c0.002-0.041,0.004-0.07,0.007-0.109
		C93.527,49.92,93.525,49.949,93.523,49.99 M93.533,49.83c0.002-0.029,0.004-0.061,0.006-0.09
		C93.537,49.77,93.535,49.801,93.533,49.83 M93.542,49.689c0.002-0.039,0.004-0.07,0.008-0.1
		C93.548,49.619,93.544,49.65,93.542,49.689 M93.552,49.539c0.002-0.039,0.004-0.068,0.006-0.1
		C93.556,49.471,93.554,49.5,93.552,49.539 M93.562,49.391c0.003-0.031,0.005-0.07,0.005-0.102
		C93.564,49.33,93.564,49.359,93.562,49.391 M93.57,49.25c0.002-0.041,0.004-0.07,0.005-0.1C93.574,49.18,93.572,49.209,93.57,49.25
		 M93.577,49.09c0.002-0.029,0.004-0.059,0.005-0.09C93.581,49.031,93.579,49.061,93.577,49.09 M93.585,48.93
		c0.002-0.02,0.004-0.049,0.004-0.08C93.589,48.881,93.587,48.91,93.585,48.93 M93.593,48.781c0.002-0.02,0.002-0.051,0.004-0.07
		C93.595,48.73,93.595,48.762,93.593,48.781 M93.601,48.621c0-0.02,0-0.041,0.002-0.061C93.601,48.58,93.601,48.602,93.601,48.621
		 M93.607,48.482c0-0.021,0-0.053,0.002-0.072C93.607,48.43,93.607,48.461,93.607,48.482 M93.611,48.34
		c0.002-0.029,0.003-0.059,0.004-0.078C93.614,48.281,93.613,48.311,93.611,48.34 M93.617,48.189c0-0.029,0.001-0.049,0.002-0.078
		C93.618,48.141,93.617,48.16,93.617,48.189 M93.621,48.031c0.001-0.02,0.002-0.041,0.002-0.07
		C93.623,47.982,93.622,48.012,93.621,48.031 M93.625,47.881c0.001-0.02,0.002-0.041,0.002-0.07
		C93.627,47.84,93.626,47.861,93.625,47.881 M93.63,47.75c0-0.029,0-0.061,0.002-0.09C93.63,47.689,93.63,47.721,93.63,47.75
		 M93.632,47.611c0.002-0.031,0.002-0.06,0.002-0.1C93.634,47.551,93.634,47.58,93.632,47.611 M93.636,47.44v-0.069V47.44
		 M93.638,47.291c0-0.021,0-0.05,0.002-0.069C93.638,47.241,93.638,47.261,93.638,47.291 M93.64,47.151v-0.09V47.151 M93.64,47.041
		c0.002-0.05,0.002-0.08,0.002-0.12C93.642,46.96,93.642,47,93.64,47.041 M93.642,46.791V46.77V46.791 M93.642,46.621L93.642,46.621
		 M93.642,46.471V46.44V46.471 M93.642,46.322v-0.12V46.322 M93.64,46.17v-0.09V46.17 M93.64,46.02
		c-0.002-0.02-0.002-0.049-0.002-0.069C93.638,45.971,93.638,45.991,93.64,46.02 M93.636,45.871v-0.069V45.871 M93.634,45.721
		c0-0.031,0-0.061-0.002-0.09C93.634,45.661,93.634,45.69,93.634,45.721 M93.632,45.572c-0.002-0.031-0.002-0.052-0.002-0.081
		C93.63,45.52,93.63,45.541,93.632,45.572 M93.627,45.42c0-0.02-0.001-0.039-0.001-0.06C93.626,45.381,93.627,45.401,93.627,45.42
		 M93.623,45.27c0-0.02-0.001-0.039-0.001-0.049C93.622,45.231,93.623,45.25,93.623,45.27 M93.619,45.121
		c-0.001-0.021-0.002-0.04-0.002-0.069C93.617,45.081,93.618,45.1,93.619,45.121 M93.615,44.971
		c-0.001-0.021-0.002-0.041-0.004-0.061C93.613,44.93,93.614,44.951,93.615,44.971 M93.609,44.822c0-0.021-0.002-0.04-0.002-0.061
		C93.607,44.782,93.609,44.801,93.609,44.822 M93.603,44.67c0-0.02-0.002-0.029-0.002-0.05
		C93.601,44.641,93.603,44.661,93.603,44.67 M93.597,44.532c-0.002-0.021-0.002-0.051-0.004-0.071
		C93.595,44.481,93.595,44.511,93.597,44.532 M93.589,44.381c0-0.021-0.002-0.041-0.002-0.06
		C93.587,44.34,93.589,44.361,93.589,44.381 M93.582,44.231c-0.001-0.021-0.003-0.05-0.004-0.07
		C93.579,44.181,93.581,44.21,93.582,44.231 M93.575,44.081c-0.001-0.02-0.003-0.049-0.005-0.08
		C93.572,44.032,93.574,44.051,93.575,44.081 M93.566,43.94c0-0.029-0.002-0.059-0.005-0.079
		C93.564,43.881,93.566,43.911,93.566,43.94 M93.558,43.791c-0.002-0.029-0.004-0.05-0.004-0.08
		C93.554,43.741,93.556,43.761,93.558,43.791 M93.548,43.641c0-0.03-0.002-0.051-0.005-0.08
		C93.546,43.59,93.548,43.611,93.548,43.641 M93.539,43.491c-0.002-0.02-0.004-0.051-0.005-0.07
		C93.535,43.44,93.537,43.471,93.539,43.491 M93.53,43.34c-0.003-0.019-0.005-0.05-0.007-0.07
		C93.525,43.291,93.527,43.322,93.53,43.34 M93.519,43.202c-0.002-0.031-0.004-0.051-0.006-0.081
		C93.515,43.141,93.517,43.17,93.519,43.202 M93.507,43.051c-0.002-0.031-0.004-0.061-0.006-0.08
		C93.503,42.991,93.505,43.02,93.507,43.051 M93.496,42.901c-0.002-0.02-0.004-0.051-0.006-0.079
		C93.492,42.85,93.494,42.881,93.496,42.901 M93.484,42.761c-0.002-0.03-0.005-0.06-0.007-0.08
		C93.479,42.702,93.482,42.731,93.484,42.761 M93.472,42.611c-0.002-0.03-0.004-0.05-0.006-0.079
		C93.468,42.561,93.47,42.581,93.472,42.611 M93.459,42.46c-0.003-0.021-0.005-0.05-0.008-0.079
		C93.454,42.411,93.456,42.44,93.459,42.46 M93.447,42.322c-0.004-0.031-0.006-0.061-0.008-0.091
		C93.441,42.261,93.443,42.291,93.447,42.322 M93.433,42.17c-0.004-0.029-0.006-0.06-0.01-0.09
		C93.427,42.111,93.429,42.141,93.433,42.17 M93.418,42.032c-0.003-0.031-0.006-0.061-0.009-0.092
		C93.412,41.971,93.415,42,93.418,42.032 M93.405,41.881c-0.003-0.029-0.007-0.06-0.012-0.091
		C93.398,41.822,93.4,41.852,93.405,41.881 M93.39,41.741c-0.004-0.03-0.008-0.07-0.01-0.1C93.382,41.67,93.386,41.71,93.39,41.741
		 M93.373,41.59c-0.003-0.029-0.006-0.059-0.01-0.1C93.367,41.532,93.37,41.561,93.373,41.59 M93.359,41.451
		c-0.005-0.03-0.009-0.069-0.013-0.101C93.351,41.381,93.354,41.42,93.359,41.451 M93.341,41.301
		c-0.004-0.031-0.007-0.061-0.011-0.1C93.334,41.241,93.337,41.27,93.341,41.301 M93.325,41.161c-0.003-0.04-0.007-0.07-0.011-0.1
		C93.318,41.09,93.322,41.121,93.325,41.161 M93.308,41.011c-0.004-0.029-0.008-0.061-0.012-0.101
		C93.3,40.951,93.304,40.982,93.308,41.011 M93.29,40.871c-0.005-0.04-0.007-0.069-0.013-0.101
		C93.283,40.801,93.285,40.831,93.29,40.871 M93.271,40.721c-0.004-0.031-0.008-0.061-0.012-0.101
		C93.263,40.651,93.267,40.69,93.271,40.721 M93.253,40.581c-0.004-0.029-0.009-0.069-0.012-0.099
		C93.244,40.511,93.249,40.551,93.253,40.581 M93.234,40.43c-0.005-0.029-0.009-0.06-0.015-0.1
		C93.226,40.371,93.229,40.401,93.234,40.43 M93.216,40.291c-0.006-0.029-0.011-0.069-0.015-0.101
		C93.205,40.221,93.21,40.261,93.216,40.291 M93.195,40.141c-0.004-0.03-0.011-0.061-0.015-0.101
		C93.185,40.081,93.191,40.111,93.195,40.141 M93.175,40c-0.004-0.029-0.01-0.07-0.015-0.1C93.165,39.94,93.171,39.971,93.175,40
		 M93.155,39.861c-0.005-0.039-0.012-0.07-0.018-0.11C93.144,39.791,93.148,39.822,93.155,39.861 M93.132,39.71
		c-0.005-0.029-0.01-0.06-0.015-0.1C93.122,39.651,93.127,39.681,93.132,39.71 M93.111,39.572c-0.007-0.04-0.011-0.071-0.017-0.101
		C93.101,39.5,93.104,39.532,93.111,39.572 M93.089,39.43c-0.005-0.039-0.011-0.069-0.016-0.108
		C93.078,39.361,93.083,39.391,93.089,39.43 M93.068,39.291c-0.007-0.04-0.013-0.069-0.019-0.109
		C93.056,39.21,93.062,39.25,93.068,39.291 M93.044,39.141c-0.006-0.03-0.011-0.069-0.017-0.101
		C93.033,39.072,93.038,39.111,93.044,39.141 M93.021,39c-0.006-0.04-0.012-0.07-0.019-0.109C93.009,38.93,93.015,38.96,93.021,39
		 M92.997,38.861c-0.005-0.039-0.013-0.07-0.02-0.11C92.984,38.791,92.992,38.822,92.997,38.861 M92.974,38.721
		c-0.008-0.04-0.014-0.08-0.021-0.121C92.959,38.641,92.968,38.681,92.974,38.721 M92.949,38.581
		c-0.006-0.04-0.015-0.08-0.021-0.109C92.935,38.5,92.943,38.541,92.949,38.581 M92.923,38.43c-0.007-0.039-0.014-0.069-0.021-0.108
		C92.909,38.361,92.916,38.391,92.923,38.43 M92.898,38.291c-0.007-0.029-0.015-0.069-0.021-0.109
		C92.884,38.221,92.892,38.261,92.898,38.291 M92.872,38.151c-0.007-0.04-0.015-0.079-0.021-0.119
		C92.857,38.072,92.865,38.111,92.872,38.151 M92.847,38.011c-0.008-0.04-0.016-0.081-0.021-0.12
		C92.831,37.93,92.839,37.971,92.847,38.011 M92.82,37.871l-0.024-0.12L92.82,37.871 M92.793,37.731
		c-0.008-0.041-0.016-0.08-0.024-0.12C92.777,37.651,92.785,37.69,92.793,37.731 M92.763,37.581c-0.006-0.04-0.015-0.08-0.021-0.109
		C92.748,37.5,92.757,37.541,92.763,37.581 M92.738,37.451c-0.009-0.04-0.017-0.08-0.026-0.12
		C92.722,37.371,92.729,37.411,92.738,37.451 M92.708,37.301c-0.017-0.08-0.035-0.17-0.053-0.261
		C92.673,37.131,92.691,37.221,92.708,37.301 M92.652,37.032c-0.021-0.092-0.038-0.182-0.06-0.271
		C92.614,36.85,92.632,36.94,92.652,37.032 M92.593,36.761c-3.142-14.53-13.078-26.53-26.332-32.56
		C79.515,10.231,89.451,22.231,92.593,36.761 M77.104,16.491c-0.061-0.061-0.12-0.12-0.182-0.18
		C76.984,16.371,77.044,16.43,77.104,16.491 M76.908,16.291c-0.058-0.05-0.112-0.109-0.168-0.159
		C76.796,16.181,76.853,16.241,76.908,16.291 M76.732,16.121c-0.06-0.06-0.117-0.109-0.177-0.17
		C76.615,16.011,76.673,16.061,76.732,16.121 M76.546,15.94c-0.058-0.049-0.117-0.109-0.175-0.17
		C76.429,15.831,76.488,15.891,76.546,15.94 M76.353,15.761c-0.055-0.051-0.111-0.11-0.168-0.159
		C76.242,15.651,76.298,15.71,76.353,15.761 M76.167,15.581c-0.056-0.049-0.113-0.099-0.17-0.16
		C76.054,15.482,76.111,15.532,76.167,15.581 M75.982,15.411c-0.058-0.05-0.115-0.109-0.173-0.16
		C75.867,15.301,75.925,15.361,75.982,15.411 M75.792,15.241c-0.056-0.06-0.113-0.109-0.172-0.16
		C75.679,15.131,75.736,15.181,75.792,15.241 M75.601,15.061c-0.057-0.05-0.112-0.101-0.17-0.15
		C75.488,14.96,75.544,15.011,75.601,15.061 M75.409,14.891c-0.057-0.051-0.113-0.101-0.169-0.15
		C75.296,14.791,75.353,14.84,75.409,14.891 M75.22,14.721c-0.059-0.051-0.117-0.101-0.174-0.149
		C75.103,14.621,75.161,14.67,75.22,14.721 M75.031,14.561c-0.06-0.061-0.119-0.11-0.179-0.16
		C74.912,14.451,74.972,14.5,75.031,14.561 M74.835,14.391c-0.058-0.051-0.117-0.101-0.176-0.16
		C74.718,14.291,74.777,14.34,74.835,14.391 M74.642,14.221c-0.061-0.051-0.118-0.101-0.18-0.149
		C74.521,14.121,74.581,14.17,74.642,14.221 M74.448,14.061c-0.063-0.05-0.122-0.11-0.184-0.16
		C74.326,13.951,74.386,14.011,74.448,14.061 M74.25,13.891c-0.061-0.051-0.122-0.101-0.182-0.15
		C74.128,13.791,74.189,13.84,74.25,13.891 M74.054,13.731c-0.062-0.05-0.123-0.1-0.184-0.15
		C73.931,13.631,73.992,13.681,74.054,13.731 M73.853,13.572c-0.061-0.052-0.12-0.101-0.182-0.151
		C73.732,13.471,73.792,13.52,73.853,13.572 M73.655,13.411c-0.063-0.05-0.124-0.1-0.188-0.149
		C73.532,13.311,73.593,13.361,73.655,13.411 M73.456,13.25c-0.063-0.049-0.126-0.1-0.189-0.15
		C73.33,13.151,73.394,13.202,73.456,13.25 M73.255,13.09c-0.063-0.05-0.129-0.1-0.193-0.15
		C73.127,12.991,73.191,13.041,73.255,13.09 M73.054,12.93c-0.064-0.049-0.131-0.1-0.196-0.148
		C72.923,12.831,72.989,12.881,73.054,12.93 M72.851,12.782c-0.065-0.051-0.133-0.101-0.198-0.15
		C72.718,12.681,72.784,12.731,72.851,12.782 M72.648,12.621c-0.068-0.049-0.136-0.101-0.203-0.149
		C72.513,12.52,72.58,12.572,72.648,12.621 M72.443,12.471c-0.068-0.051-0.136-0.101-0.204-0.149
		C72.306,12.371,72.375,12.42,72.443,12.471 M72.236,12.322c-1.519-1.12-3.112-2.141-4.772-3.052
		C69.124,10.181,70.718,11.202,72.236,12.322 M67.452,9.27c-0.07-0.039-0.143-0.08-0.213-0.119C67.31,9.19,67.382,9.231,67.452,9.27
		 M67.218,9.141C67.15,9.1,67.082,9.072,67.015,9.032C67.082,9.072,67.15,9.1,67.218,9.141 M66.976,9.011
		c-0.063-0.029-0.125-0.071-0.188-0.101C66.851,8.94,66.913,8.982,66.976,9.011 M66.743,8.891c-0.061-0.039-0.12-0.069-0.182-0.101
		C66.623,8.822,66.683,8.852,66.743,8.891 M66.507,8.761c-0.057-0.03-0.113-0.06-0.17-0.08C66.394,8.702,66.451,8.731,66.507,8.761
		 M66.271,8.641c-0.053-0.021-0.107-0.051-0.161-0.08C66.163,8.59,66.218,8.621,66.271,8.641 M66.035,8.52
		c-0.051-0.02-0.103-0.049-0.153-0.069C65.933,8.471,65.984,8.5,66.035,8.52 M65.798,8.411c-0.048-0.029-0.095-0.05-0.141-0.07
		C65.703,8.361,65.75,8.381,65.798,8.411 M65.562,8.291c-0.045-0.021-0.092-0.04-0.137-0.069C65.47,8.25,65.517,8.27,65.562,8.291
		 M65.326,8.181c-0.042-0.021-0.084-0.04-0.127-0.061C65.242,8.141,65.284,8.161,65.326,8.181 M65.087,8.061
		c-0.039-0.01-0.078-0.029-0.117-0.05C65.009,8.032,65.048,8.051,65.087,8.061 M64.851,7.951c-0.036-0.011-0.073-0.03-0.11-0.05
		C64.777,7.92,64.814,7.94,64.851,7.951 M64.616,7.85c-0.037-0.02-0.074-0.039-0.109-0.049C64.543,7.811,64.579,7.831,64.616,7.85
		 M64.38,7.741c-0.035-0.02-0.07-0.03-0.104-0.051C64.31,7.71,64.345,7.721,64.38,7.741 M64.142,7.631
		C64.109,7.621,64.077,7.6,64.044,7.59C64.076,7.6,64.111,7.621,64.142,7.631 M63.902,7.532c-0.029-0.012-0.06-0.031-0.088-0.041
		C63.843,7.5,63.872,7.52,63.902,7.532 M63.663,7.43c-0.027-0.02-0.054-0.029-0.083-0.039C63.609,7.401,63.636,7.411,63.663,7.43
		 M63.425,7.331c-0.024-0.02-0.051-0.029-0.076-0.04C63.374,7.301,63.4,7.311,63.425,7.331 M63.185,7.231
		c-0.022-0.01-0.045-0.021-0.065-0.029C63.142,7.21,63.162,7.221,63.185,7.231 M62.943,7.131c-0.019-0.011-0.037-0.021-0.056-0.031
		C62.907,7.111,62.925,7.121,62.943,7.131 M62.703,7.032c-0.017-0.012-0.032-0.012-0.049-0.021
		C62.669,7.02,62.687,7.02,62.703,7.032 M62.462,6.94c-0.012-0.01-0.025-0.01-0.037-0.02C62.437,6.93,62.45,6.93,62.462,6.94
		 M62.218,6.84c-0.006,0-0.014,0-0.019-0.01C62.204,6.84,62.212,6.84,62.218,6.84 M66.234,4.19c-0.037-0.02-0.075-0.039-0.113-0.049
		C66.159,4.151,66.197,4.17,66.234,4.19 M66.109,4.131c-0.034-0.011-0.071-0.031-0.106-0.051C66.038,4.1,66.074,4.121,66.109,4.131
		 M65.976,4.072c-0.032-0.011-0.065-0.031-0.099-0.04C65.909,4.041,65.945,4.061,65.976,4.072 M65.849,4.011
		C65.816,4,65.783,3.991,65.75,3.971C65.783,3.991,65.816,4,65.849,4.011 M47.673,4.011h-0.16v-4h0.16V4.011z M65.718,3.96
		c-0.031-0.021-0.063-0.03-0.097-0.05C65.652,3.93,65.687,3.94,65.718,3.96 M65.589,3.901c-0.029-0.01-0.058-0.02-0.088-0.04
		C65.531,3.881,65.558,3.891,65.589,3.901 M65.455,3.84c-0.026-0.01-0.049-0.019-0.075-0.029C65.406,3.822,65.429,3.831,65.455,3.84
		 M65.324,3.791c-0.022-0.009-0.044-0.021-0.067-0.029C65.281,3.77,65.3,3.782,65.324,3.791 M65.189,3.731
		c-0.021-0.01-0.044-0.021-0.064-0.029C65.148,3.71,65.168,3.721,65.189,3.731 M65.062,3.67c-0.022-0.01-0.047-0.01-0.069-0.02
		C65.015,3.661,65.038,3.661,65.062,3.67 M64.933,3.621c-0.024-0.01-0.047-0.019-0.071-0.03C64.886,3.602,64.909,3.611,64.933,3.621
		 M64.8,3.561c-0.02,0-0.043-0.01-0.062-0.021C64.759,3.551,64.779,3.561,64.8,3.561 M64.666,3.511
		c-0.018-0.011-0.04-0.021-0.059-0.021C64.627,3.491,64.646,3.5,64.666,3.511 M64.534,3.46c-0.018-0.01-0.035-0.021-0.05-0.021
		C64.499,3.44,64.517,3.451,64.534,3.46 M64.398,3.401c-0.015-0.01-0.028-0.01-0.044-0.02C64.37,3.391,64.384,3.391,64.398,3.401
		 M64.265,3.35c-0.013-0.01-0.025-0.01-0.039-0.02C64.239,3.34,64.252,3.34,64.265,3.35 M64.134,3.301
		c-0.014-0.011-0.029-0.02-0.043-0.02C64.107,3.282,64.118,3.291,64.134,3.301 M63.999,3.241c-0.01,0-0.023-0.01-0.033-0.01
		C63.976,3.231,63.989,3.241,63.999,3.241 M63.864,3.19c-0.01,0-0.021-0.009-0.029-0.009C63.845,3.181,63.853,3.19,63.864,3.19
		 M63.729,3.141c-0.008-0.01-0.018-0.01-0.026-0.01C63.714,3.131,63.72,3.131,63.729,3.141 M63.597,3.09
		c-0.01-0.01-0.017-0.01-0.026-0.01C63.58,3.081,63.587,3.081,63.597,3.09 M63.459,3.032h-0.016H63.459 M63.325,2.982h-0.014H63.325
		 M63.189,2.93h-0.009H63.189 M63.054,2.881h-0.008H63.054 M62.783,2.782h-0.002H62.783 M62.513,2.69h-0.002H62.513"/>
	<path fill="#C8C8C8" d="M47.673,93.209L47.673,93.209v-4c1.252-0.02,2.488-0.1,3.711-0.229h0.024
		c0.076-0.01,0.15-0.021,0.226-0.021c0.015-0.01,0.029-0.01,0.043-0.01c0.068-0.01,0.134-0.01,0.201-0.02
		c0.023-0.01,0.049-0.01,0.072-0.01c0.061-0.01,0.123-0.02,0.184-0.02c0.027-0.01,0.054-0.01,0.082-0.01
		c0.058-0.01,0.117-0.021,0.175-0.031c0.032,0,0.062,0,0.094-0.01c0.054,0,0.108-0.01,0.162-0.02c0.035,0,0.071-0.01,0.104-0.01
		c0.051-0.01,0.101-0.02,0.15-0.02c0.04-0.012,0.079-0.02,0.12-0.02c0.047-0.012,0.092-0.021,0.14-0.021
		c0.04-0.01,0.082-0.01,0.122-0.02c0.046-0.01,0.091-0.01,0.136-0.02c0.045-0.012,0.088-0.012,0.133-0.02
		c0.041-0.012,0.084-0.012,0.125-0.021c0.048-0.01,0.095-0.02,0.14-0.02c0.039-0.01,0.08-0.02,0.119-0.02
		c0.049-0.01,0.099-0.021,0.147-0.031c0.037,0,0.074-0.01,0.11-0.02c0.052-0.01,0.101-0.01,0.151-0.02
		c0.035-0.01,0.072-0.02,0.109-0.02c0.053-0.012,0.104-0.02,0.156-0.031c0.034-0.01,0.066-0.01,0.1-0.02
		c0.056-0.01,0.109-0.02,0.164-0.029c0.032-0.012,0.063-0.012,0.094-0.021c0.058-0.01,0.113-0.02,0.17-0.029
		c0.029-0.01,0.06-0.01,0.091-0.02c0.055-0.01,0.112-0.02,0.168-0.031c0.028-0.01,0.06-0.018,0.091-0.018
		c0.059-0.012,0.116-0.031,0.174-0.041c0.028,0,0.055-0.01,0.081-0.01c0.062-0.02,0.123-0.031,0.185-0.041
		c0.023-0.01,0.048-0.01,0.07-0.02c0.065-0.008,0.131-0.031,0.194-0.039c0.021-0.012,0.043-0.012,0.062-0.021
		c0.065-0.01,0.131-0.02,0.196-0.039c0.021,0,0.041-0.01,0.062-0.01c0.068-0.021,0.134-0.031,0.199-0.051
		c0.021,0,0.039-0.01,0.058-0.01c0.069-0.02,0.136-0.039,0.205-0.051c0.016-0.01,0.032-0.01,0.051-0.01
		c0.069-0.02,0.14-0.039,0.211-0.061c0.015,0,0.028,0,0.042-0.01c0.073-0.02,0.145-0.029,0.215-0.049c0.014,0,0.028-0.01,0.042-0.01
		c0.074-0.021,0.148-0.041,0.224-0.061c0.011,0,0.02-0.01,0.029-0.01l0.24-0.061h0.012c0.764-0.211,1.521-0.439,2.266-0.68
		c0.015-0.01,0.027-0.01,0.041-0.02c0.068-0.02,0.136-0.041,0.203-0.061c0.025-0.01,0.052-0.02,0.076-0.031
		c0.058-0.02,0.111-0.039,0.17-0.059c0.025-0.01,0.054-0.02,0.08-0.031c0.055-0.01,0.11-0.029,0.164-0.049
		c0.031-0.01,0.063-0.02,0.094-0.039c0.05-0.012,0.099-0.031,0.146-0.049c0.038-0.012,0.075-0.023,0.112-0.043
		c0.043-0.01,0.088-0.029,0.131-0.039c0.039-0.02,0.078-0.031,0.116-0.051c0.044-0.01,0.085-0.029,0.125-0.039
		c0.039-0.021,0.078-0.029,0.119-0.051c0.041-0.01,0.082-0.029,0.123-0.039c0.041-0.021,0.082-0.031,0.123-0.051
		c0.039-0.02,0.078-0.029,0.117-0.051c0.043-0.01,0.084-0.029,0.127-0.039c0.036-0.02,0.072-0.029,0.11-0.049
		c0.044-0.012,0.09-0.031,0.134-0.049c0.035-0.012,0.071-0.031,0.106-0.043c0.045-0.02,0.088-0.039,0.133-0.059
		c0.035-0.012,0.069-0.021,0.103-0.041c0.049-0.02,0.096-0.039,0.144-0.051c0.03-0.02,0.062-0.029,0.093-0.039
		c0.049-0.02,0.098-0.041,0.146-0.061c0.029-0.02,0.06-0.029,0.088-0.039c0.052-0.02,0.102-0.041,0.152-0.07
		c0.028-0.01,0.055-0.02,0.082-0.029c0.051-0.02,0.103-0.041,0.151-0.061c0.028-0.02,0.058-0.031,0.086-0.039
		c0.05-0.021,0.103-0.051,0.153-0.07c0.027-0.012,0.052-0.021,0.078-0.031c0.054-0.029,0.104-0.049,0.156-0.068
		c0.026-0.012,0.049-0.021,0.074-0.041c0.055-0.02,0.112-0.041,0.166-0.07c0.021-0.01,0.041-0.02,0.063-0.029
		c0.058-0.021,0.113-0.051,0.17-0.08c0.021-0.01,0.041-0.01,0.062-0.021c0.058-0.029,0.117-0.057,0.175-0.088
		c0.016,0,0.034-0.012,0.051-0.021c0.062-0.029,0.121-0.061,0.183-0.08c0.015-0.01,0.028-0.02,0.045-0.029
		c0.062-0.031,0.125-0.061,0.188-0.09c0.011,0,0.021-0.01,0.035-0.01c0.063-0.031,0.129-0.07,0.194-0.102
		c0.011,0,0.021-0.01,0.031-0.01c0.067-0.039,0.133-0.07,0.198-0.1c0.009-0.01,0.015-0.01,0.021-0.01
		c0.071-0.041,0.141-0.07,0.209-0.109h0.012c3.157-1.602,6.09-3.57,8.738-5.859h0.001c0.063-0.049,0.125-0.111,0.188-0.162l0,0
		c0.063-0.059,0.125-0.109,0.187-0.17h0.003c0.124-0.109,0.247-0.219,0.369-0.33c0.003,0,0.005-0.01,0.007-0.01
		c0.06-0.049,0.12-0.109,0.179-0.16h0.004c0.061-0.059,0.121-0.109,0.181-0.168c0.004,0,0.005-0.012,0.01-0.012
		c0.058-0.049,0.117-0.109,0.173-0.16c0.004,0,0.006-0.01,0.01-0.01c0.058-0.049,0.115-0.109,0.172-0.16
		c0.005-0.01,0.009-0.01,0.011-0.01c0.058-0.061,0.112-0.109,0.17-0.16c0.011-0.02,0.021-0.029,0.033-0.037
		c0.049-0.043,0.098-0.092,0.147-0.143c0.012-0.01,0.024-0.02,0.035-0.029c0.108-0.111,0.217-0.211,0.323-0.32
		c7.75-7.721,12.537-18.359,12.539-30.12c-0.002-11.771-4.789-22.419-12.539-30.13c-0.062-0.061-0.121-0.12-0.183-0.18
		c-0.004-0.01-0.01-0.01-0.016-0.021c-0.054-0.05-0.111-0.109-0.168-0.159c-0.004,0-0.005-0.011-0.007-0.011
		c-0.06-0.06-0.118-0.109-0.176-0.17c-0.005,0-0.007-0.01-0.011-0.01c-0.059-0.05-0.117-0.11-0.174-0.171
		c-0.007,0-0.013-0.009-0.019-0.009c-0.056-0.051-0.112-0.11-0.168-0.159c-0.007-0.012-0.013-0.012-0.019-0.021
		c-0.057-0.049-0.113-0.099-0.17-0.16c-0.005,0-0.01,0-0.015-0.01c-0.058-0.05-0.115-0.109-0.172-0.16
		c-0.007,0-0.013-0.01-0.019-0.01c-0.057-0.06-0.113-0.109-0.172-0.16c-0.006-0.009-0.013-0.009-0.019-0.02
		c-0.058-0.05-0.114-0.101-0.17-0.15c-0.009-0.01-0.015-0.01-0.023-0.02c-0.055-0.051-0.112-0.101-0.169-0.15
		c-0.007-0.008-0.013-0.008-0.02-0.02c-0.059-0.051-0.116-0.101-0.174-0.149c-0.006-0.011-0.011-0.011-0.016-0.011
		c-0.058-0.061-0.117-0.11-0.177-0.16c-0.006,0-0.013-0.01-0.019-0.01c-0.059-0.051-0.117-0.101-0.177-0.158
		c-0.007,0-0.01,0-0.016-0.012c-0.062-0.051-0.121-0.101-0.181-0.149c-0.006-0.011-0.01-0.011-0.015-0.011
		c-0.062-0.05-0.121-0.11-0.182-0.16c-0.005,0-0.011,0-0.015-0.01c-0.062-0.051-0.123-0.101-0.183-0.15
		c-0.006,0-0.01-0.01-0.015-0.01c-0.062-0.05-0.122-0.1-0.184-0.15c-0.006,0-0.011-0.009-0.017-0.009
		c-0.062-0.052-0.121-0.101-0.183-0.151c-0.006-0.01-0.011-0.01-0.017-0.01c-0.062-0.05-0.123-0.1-0.187-0.149
		c-0.004-0.011-0.008-0.011-0.012-0.011c-0.062-0.049-0.125-0.1-0.188-0.15c-0.005,0-0.009-0.01-0.013-0.01
		c-0.063-0.05-0.127-0.1-0.192-0.149c-0.002,0-0.006,0-0.009-0.011c-0.065-0.049-0.131-0.1-0.196-0.148h-0.006
		c-0.067-0.049-0.134-0.101-0.2-0.15c-0.001,0-0.001-0.011-0.003-0.011c-0.067-0.049-0.136-0.101-0.204-0.149h-0.001
		c-0.067-0.051-0.137-0.101-0.205-0.149h-0.003c-1.518-1.12-3.111-2.141-4.771-3.052h-0.012c-0.07-0.039-0.142-0.079-0.214-0.119
		c-0.006,0-0.014-0.01-0.021-0.01C67.15,9.1,67.083,9.072,67.016,9.032c-0.015-0.012-0.026-0.012-0.039-0.021
		c-0.063-0.029-0.125-0.07-0.188-0.101c-0.015-0.01-0.029-0.02-0.045-0.02c-0.06-0.039-0.119-0.069-0.181-0.101
		c-0.019-0.009-0.037-0.021-0.056-0.029c-0.057-0.028-0.112-0.06-0.17-0.08c-0.022-0.021-0.045-0.03-0.065-0.04
		c-0.054-0.021-0.108-0.051-0.162-0.08c-0.024-0.01-0.049-0.021-0.074-0.041c-0.051-0.02-0.102-0.049-0.153-0.069
		c-0.026-0.021-0.057-0.03-0.084-0.04c-0.047-0.029-0.094-0.05-0.142-0.07c-0.032-0.019-0.063-0.029-0.094-0.05
		c-0.045-0.021-0.093-0.04-0.138-0.069c-0.032-0.011-0.065-0.03-0.1-0.04c-0.042-0.021-0.084-0.04-0.127-0.061
		c-0.037-0.019-0.072-0.04-0.111-0.06c-0.039-0.01-0.078-0.029-0.117-0.05c-0.041-0.021-0.079-0.04-0.118-0.061
		c-0.037-0.01-0.075-0.03-0.112-0.05c-0.041-0.02-0.083-0.04-0.124-0.051c-0.036-0.02-0.071-0.039-0.108-0.049
		c-0.043-0.02-0.084-0.04-0.127-0.061c-0.035-0.02-0.069-0.03-0.104-0.05c-0.045-0.021-0.088-0.04-0.133-0.06
		C64.11,7.621,64.076,7.6,64.044,7.59c-0.047-0.019-0.095-0.039-0.143-0.059C63.872,7.52,63.843,7.5,63.814,7.491
		c-0.049-0.02-0.101-0.04-0.151-0.061c-0.027-0.02-0.054-0.029-0.082-0.039c-0.052-0.021-0.103-0.039-0.156-0.061
		c-0.024-0.02-0.051-0.029-0.075-0.04c-0.056-0.021-0.11-0.04-0.164-0.058c-0.022-0.012-0.043-0.022-0.065-0.031
		c-0.06-0.031-0.119-0.051-0.177-0.07c-0.019-0.011-0.037-0.021-0.056-0.031c-0.062-0.02-0.122-0.039-0.184-0.068
		c-0.017-0.012-0.035-0.012-0.051-0.021c-0.064-0.021-0.128-0.051-0.191-0.07C62.449,6.93,62.438,6.93,62.425,6.92
		c-0.069-0.029-0.139-0.05-0.207-0.08c-0.006,0-0.014,0-0.02-0.01c-4.52-1.729-9.41-2.72-14.525-2.819v-4
		C52.87,0.1,57.859,1.041,62.511,2.691h0.002c0.091,0.03,0.179,0.06,0.268,0.091h0.002c0.09,0.04,0.176,0.07,0.264,0.1h0.008
		c0.044,0.02,0.084,0.029,0.128,0.049h0.008c0.041,0.021,0.082,0.03,0.123,0.052h0.012c0.04,0.019,0.08,0.029,0.119,0.05h0.017
		c0.037,0.02,0.073,0.029,0.109,0.049c0.012,0,0.018,0,0.028,0.01c0.034,0.01,0.069,0.021,0.106,0.041c0.008,0,0.019,0,0.026,0.01
		c0.035,0.01,0.069,0.02,0.104,0.04c0.008,0,0.021,0.01,0.028,0.01c0.035,0.011,0.068,0.03,0.103,0.04
		c0.011,0,0.022,0.01,0.033,0.01c0.031,0.01,0.062,0.029,0.092,0.041c0.015,0,0.029,0.009,0.043,0.02
		c0.031,0.01,0.061,0.021,0.093,0.029c0.012,0.01,0.026,0.01,0.039,0.02c0.028,0.011,0.06,0.021,0.09,0.031
		c0.015,0.01,0.028,0.01,0.043,0.02c0.028,0.01,0.056,0.02,0.086,0.04c0.015,0,0.033,0.01,0.049,0.02
		c0.025,0.011,0.05,0.021,0.074,0.03c0.019,0,0.041,0.01,0.06,0.021c0.024,0.009,0.045,0.021,0.07,0.029
		c0.02,0.011,0.042,0.021,0.063,0.021c0.02,0.011,0.041,0.02,0.061,0.029c0.025,0.012,0.047,0.021,0.073,0.03
		c0.019,0.011,0.039,0.021,0.059,0.03c0.023,0.01,0.048,0.01,0.07,0.02c0.021,0.011,0.043,0.021,0.063,0.031
		c0.021,0.009,0.043,0.02,0.063,0.031c0.022,0.008,0.045,0.018,0.067,0.028c0.022,0.009,0.045,0.021,0.066,0.029
		c0.02,0,0.037,0.011,0.057,0.021c0.025,0.011,0.049,0.02,0.076,0.029c0.014,0.01,0.029,0.021,0.045,0.021
		c0.029,0.021,0.06,0.03,0.088,0.04c0.011,0.01,0.021,0.01,0.033,0.01c0.031,0.02,0.065,0.03,0.096,0.05
		c0.013,0,0.021,0.011,0.033,0.011c0.031,0.02,0.065,0.029,0.099,0.04c0.01,0.009,0.017,0.009,0.028,0.021
		c0.032,0.009,0.065,0.029,0.099,0.04c0.008,0.009,0.019,0.009,0.026,0.009c0.035,0.02,0.071,0.04,0.106,0.051
		c0.005,0,0.007,0,0.013,0.01c0.037,0.01,0.074,0.029,0.112,0.05c0.007,0,0.019,0.011,0.026,0.011
		c13.255,6.031,23.19,18.031,26.332,32.56c0.021,0.089,0.039,0.18,0.059,0.271c0,0.009,0.002,0.009,0.003,0.009
		c0.019,0.091,0.037,0.181,0.054,0.261c0.002,0.01,0.004,0.021,0.004,0.029c0.011,0.04,0.019,0.08,0.025,0.12
		c0.001,0.01,0.002,0.01,0.003,0.021c0.009,0.029,0.017,0.069,0.022,0.109c0.003,0.01,0.007,0.02,0.007,0.03
		c0.007,0.04,0.016,0.08,0.024,0.12c0,0.01,0.002,0.01,0.002,0.02l0.023,0.12c0,0.011,0.003,0.021,0.005,0.021
		c0.007,0.039,0.015,0.08,0.023,0.12c0,0.009,0.002,0.021,0.004,0.021c0.006,0.04,0.013,0.079,0.021,0.119
		c0.002,0.01,0.004,0.02,0.006,0.03c0.006,0.04,0.015,0.08,0.021,0.109c0.002,0.011,0.003,0.021,0.003,0.031
		c0.008,0.039,0.016,0.069,0.021,0.108c0.002,0.011,0.004,0.021,0.006,0.041c0.007,0.029,0.015,0.069,0.02,0.109
		c0.002,0.01,0.003,0.01,0.006,0.02c0.006,0.041,0.012,0.081,0.021,0.121c0.002,0.012,0.002,0.02,0.004,0.029
		c0.006,0.04,0.013,0.071,0.019,0.11c0.002,0.01,0.004,0.021,0.006,0.03c0.006,0.039,0.013,0.069,0.019,0.109
		c0.002,0.011,0.004,0.031,0.005,0.04c0.006,0.031,0.012,0.07,0.018,0.101c0.002,0.01,0.004,0.029,0.006,0.04
		c0.007,0.04,0.013,0.069,0.019,0.109c0,0.011,0.001,0.021,0.004,0.031c0.007,0.039,0.013,0.069,0.017,0.108
		c0.002,0.011,0.004,0.021,0.006,0.041c0.007,0.029,0.011,0.061,0.016,0.101c0.003,0.009,0.005,0.03,0.007,0.039
		c0.005,0.04,0.011,0.07,0.015,0.1c0.002,0.022,0.004,0.03,0.006,0.04c0.007,0.04,0.013,0.071,0.017,0.11
		c0.002,0.01,0.004,0.03,0.006,0.04c0.005,0.029,0.011,0.07,0.015,0.1c0.002,0.02,0.004,0.031,0.007,0.04
		c0.004,0.04,0.01,0.07,0.013,0.101c0.003,0.02,0.005,0.029,0.007,0.05c0.005,0.03,0.009,0.07,0.015,0.1
		c0,0.011,0.002,0.031,0.004,0.04c0.007,0.04,0.011,0.07,0.015,0.1c0.001,0.021,0.004,0.041,0.006,0.052
		c0.005,0.029,0.009,0.069,0.013,0.099c0.002,0.01,0.004,0.03,0.006,0.04c0.004,0.04,0.009,0.07,0.013,0.101
		c0.002,0.02,0.004,0.029,0.005,0.049c0.006,0.031,0.009,0.061,0.014,0.101c0.002,0.011,0.004,0.03,0.006,0.04
		c0.004,0.04,0.008,0.071,0.013,0.101c0.002,0.021,0.004,0.029,0.006,0.05c0.004,0.029,0.007,0.06,0.01,0.1
		c0.002,0.01,0.005,0.03,0.007,0.041c0.004,0.039,0.006,0.068,0.01,0.1c0.002,0.021,0.004,0.029,0.007,0.049
		c0.004,0.031,0.008,0.07,0.012,0.101c0,0.01,0.001,0.03,0.003,0.04c0.004,0.041,0.008,0.07,0.012,0.1
		c0.002,0.021,0.004,0.041,0.006,0.051c0.002,0.029,0.006,0.069,0.011,0.1c0.002,0.021,0.002,0.029,0.004,0.05
		c0.004,0.031,0.007,0.062,0.01,0.091c0.002,0.02,0.003,0.039,0.005,0.06c0.004,0.03,0.006,0.06,0.01,0.091
		c0.002,0.02,0.004,0.029,0.004,0.049c0.004,0.03,0.006,0.061,0.011,0.09c0.002,0.021,0.004,0.04,0.006,0.061
		c0.002,0.03,0.004,0.06,0.007,0.091c0.002,0.019,0.003,0.039,0.005,0.06c0.003,0.029,0.005,0.06,0.009,0.079
		c0.002,0.03,0.004,0.051,0.006,0.071c0.002,0.029,0.004,0.049,0.007,0.079c0.002,0.021,0.004,0.04,0.006,0.07
		c0.002,0.021,0.004,0.052,0.006,0.08c0.001,0.021,0.003,0.04,0.005,0.061c0.002,0.028,0.006,0.06,0.008,0.079
		s0.002,0.05,0.004,0.07c0.002,0.02,0.004,0.049,0.006,0.08c0.002,0.021,0.004,0.049,0.006,0.069c0.003,0.03,0.005,0.05,0.007,0.081
		c0.002,0.02,0.002,0.039,0.004,0.068c0.002,0.021,0.003,0.052,0.006,0.07c0.001,0.03,0.003,0.051,0.005,0.08
		c0.001,0.021,0.004,0.051,0.006,0.07c0,0.021,0.002,0.05,0.004,0.07c0.002,0.029,0.004,0.05,0.004,0.08
		c0.002,0.02,0.004,0.05,0.006,0.069c0,0.03,0.003,0.051,0.005,0.08c0.002,0.021,0.002,0.04,0.004,0.07
		c0.002,0.021,0.004,0.05,0.004,0.08c0.002,0.02,0.003,0.041,0.003,0.06c0.002,0.031,0.004,0.061,0.005,0.08
		c0.002,0.03,0.003,0.051,0.005,0.08c0,0.021,0.002,0.05,0.004,0.072c0,0.028,0.002,0.058,0.004,0.089
		c0,0.019,0.002,0.039,0.002,0.06c0.002,0.029,0.004,0.049,0.004,0.079c0.002,0.021,0.002,0.051,0.005,0.071
		c0,0.029,0.002,0.059,0.004,0.089c0,0.021,0.002,0.03,0.002,0.05c0.002,0.031,0.002,0.063,0.004,0.091
		c0,0.021,0.002,0.04,0.002,0.061c0,0.03,0.001,0.06,0.001,0.089c0.002,0.02,0.003,0.04,0.004,0.061
		c0.001,0.029,0.002,0.061,0.002,0.08c0.001,0.029,0.002,0.049,0.004,0.069c0,0.03,0.002,0.061,0.002,0.101
		c0,0.01,0.002,0.029,0.002,0.049c0,0.031,0.002,0.061,0.002,0.091c0,0.021,0.002,0.04,0.002,0.06c0,0.021,0,0.051,0.002,0.07
		c0,0.029,0,0.05,0.002,0.081c0,0.019,0,0.039,0,0.06c0.002,0.029,0.002,0.06,0.002,0.09c0,0.029,0.002,0.049,0.002,0.08v0.069
		c0.002,0.03,0.002,0.05,0.002,0.08c0,0.021,0,0.05,0.003,0.069v0.061v0.09c0,0.011,0,0.021,0.002,0.031v0.12v0.119v0.03v0.149
		v0.149v0.021v0.13c0,0.04,0,0.07-0.002,0.12v0.021v0.09v0.07c-0.003,0.02-0.003,0.049-0.003,0.069c0,0.031,0,0.05-0.002,0.08v0.07
		c0,0.02-0.002,0.05-0.002,0.07c0,0.04,0,0.069-0.002,0.1c0,0.02,0,0.029,0,0.049c-0.002,0.031-0.002,0.061-0.002,0.09
		c-0.002,0.02-0.002,0.041-0.002,0.061c0,0.029-0.002,0.051-0.002,0.07c0,0.029-0.002,0.061-0.002,0.08
		c0,0.029-0.002,0.051-0.002,0.07c-0.002,0.029-0.002,0.049-0.002,0.08c-0.002,0.029-0.003,0.049-0.004,0.08
		c-0.001,0.02-0.001,0.049-0.002,0.07c-0.001,0.02-0.002,0.049-0.004,0.078c0,0.021-0.001,0.041-0.001,0.07
		c-0.002,0.02-0.002,0.051-0.002,0.072c-0.002,0.029-0.004,0.049-0.004,0.078c-0.002,0.02-0.002,0.041-0.002,0.061
		c-0.002,0.029-0.004,0.061-0.004,0.09c-0.003,0.021-0.003,0.051-0.005,0.07c-0.002,0.029-0.002,0.049-0.004,0.068
		c0,0.031-0.002,0.061-0.004,0.08c0,0.02-0.002,0.051-0.002,0.07c-0.002,0.031-0.004,0.061-0.006,0.09
		c-0.001,0.02-0.002,0.041-0.003,0.061c-0.001,0.029-0.003,0.059-0.005,0.1c-0.001,0.01-0.001,0.031-0.003,0.039
		c0,0.031-0.002,0.07-0.004,0.102c-0.002,0.02-0.002,0.039-0.004,0.049c-0.002,0.031-0.005,0.061-0.007,0.1
		c0,0.012-0.002,0.031-0.002,0.051c-0.004,0.029-0.006,0.061-0.008,0.1c0,0.012-0.002,0.031-0.002,0.051
		c-0.002,0.029-0.005,0.061-0.008,0.09c-0.001,0.02-0.002,0.039-0.003,0.051c-0.003,0.039-0.004,0.068-0.006,0.109
		c-0.002,0.01-0.002,0.02-0.004,0.041c-0.002,0.039-0.004,0.07-0.009,0.1c0,0.02-0.002,0.029-0.002,0.039
		c-0.004,0.039-0.006,0.08-0.01,0.119c0,0.012-0.002,0.021-0.002,0.031c-0.002,0.039-0.007,0.08-0.01,0.109
		c-0.002,0.01-0.002,0.02-0.002,0.029c-0.003,0.041-0.005,0.08-0.009,0.121c-0.002,0.01-0.002,0.02-0.004,0.029
		c-0.003,0.041-0.007,0.08-0.009,0.123L93.46,50.76c-0.004,0.041-0.006,0.08-0.011,0.121l-0.002,0.02
		c-0.004,0.039-0.008,0.09-0.012,0.131c0,0,0,0.008-0.002,0.02c-0.005,0.039-0.009,0.08-0.013,0.129v0.01
		c-0.006,0.041-0.01,0.092-0.015,0.131c0,0.01,0,0.01-0.001,0.01c-0.009,0.1-0.02,0.189-0.029,0.289l0,0
		c-0.011,0.102-0.021,0.191-0.033,0.291c-2.084,18.34-14.857,33.449-31.965,39.01c-0.006,0.01-0.015,0.01-0.021,0.01
		c-0.039,0.01-0.078,0.029-0.117,0.041h-0.016c-0.039,0.02-0.076,0.029-0.115,0.039c-0.008,0-0.019,0.01-0.026,0.01
		c-0.037,0.012-0.076,0.02-0.113,0.041h-0.018c-0.037,0.01-0.076,0.02-0.113,0.039c-0.01,0-0.02,0-0.03,0.01
		c-0.035,0.01-0.071,0.021-0.106,0.031c-0.009,0-0.023,0.01-0.033,0.01c-0.033,0.01-0.063,0.02-0.096,0.029
		c-0.02,0-0.035,0.01-0.054,0.01c-0.026,0.012-0.054,0.02-0.08,0.031c-0.022,0.012-0.043,0.012-0.067,0.02
		c-0.021,0.01-0.041,0.01-0.063,0.02c-0.025,0.01-0.052,0.01-0.076,0.021c-0.022,0.008-0.043,0.008-0.065,0.02
		c-0.024,0.01-0.05,0.02-0.074,0.02c-0.02,0.01-0.039,0.01-0.057,0.02c-0.031,0.012-0.062,0.02-0.093,0.029
		c-0.015,0-0.03,0-0.043,0.012c-0.035,0.01-0.067,0.02-0.103,0.029c-0.01,0-0.021,0-0.03,0.01c-0.039,0.01-0.076,0.02-0.113,0.029
		c-0.008,0-0.019,0-0.026,0.01C55.818,92.531,51.811,93.141,47.673,93.209"/>
	<path fill="#ADABD1" d="M73.991,70.26H47.513v-1.721h26.479V70.26z M67.269,58.91H56.935l-0.148-0.24v-1.139l0.148-0.242h10.334
		l0.15,0.242v1.139L67.269,58.91 M51.741,58.91h-4.229v-1.621h4.229l0.15,0.242v1.139L51.741,58.91 M67.269,33.86H56.935
		l-0.148-0.248v-1.141l0.148-0.24h10.334l0.15,0.24v1.141L67.269,33.86 M51.741,33.86h-4.229v-1.629h4.229l0.15,0.24v1.141
		L51.741,33.86 M67.269,28.84H56.935l-0.148-0.24v-1.14l0.148-0.239h10.334l0.15,0.239v1.14L67.269,28.84 M51.741,28.84h-4.229
		v-1.619h4.229l0.15,0.239v1.14L51.741,28.84"/>
	<path fill="#D8D8D8" d="M75.331,68.221H74.93v-0.439c0-0.201-0.05-0.4-0.136-0.541c-0.088-0.141-0.209-0.23-0.332-0.23v0.771V67.01
		H47.514V65.1h27.817V68.221"/>
	<path fill="#D8D8D8" d="M67.194,63.68h-9.66c-1.145,0-2.07-0.26-2.07-0.59V22.042c0-0.33,0.926-0.59,2.07-0.59h9.66
		c1.139,0,2.07,0.26,2.07,0.59V63.09C69.265,63.42,68.333,63.68,67.194,63.68 M56.935,57.291l-0.147,0.24v1.139l0.147,0.24h10.334
		l0.149-0.24v-1.139l-0.149-0.24H56.935 M56.935,32.231l-0.147,0.24v1.14l0.147,0.25h10.334l0.149-0.25v-1.14l-0.149-0.24H56.935
		 M56.935,27.221l-0.147,0.24v1.14l0.147,0.239h10.334l0.149-0.239v-1.14l-0.149-0.24H56.935"/>
	<path fill="#D8D8D8" d="M51.669,63.68h-4.156v-4.77h4.229l0.151-0.24v-1.139l-0.151-0.242h-4.229V33.86h4.229l0.151-0.248v-1.141
		l-0.151-0.24h-4.229V28.84h4.229l0.151-0.24v-1.14l-0.151-0.239h-4.229v-5.77h4.156c1.14,0,2.069,0.259,2.069,0.589V63.09
		C53.738,63.42,52.809,63.68,51.669,63.68"/>
	<path fill="#D8D8D8" d="M74.462,71.781H47.513V70.26h26.479v-1.721H47.513V67.01h26.949v0.771V67.01c0.123,0,0.244,0.09,0.332,0.23
		c0.086,0.141,0.135,0.34,0.135,0.541v0.439v2.799c0,0.201-0.049,0.4-0.135,0.541C74.706,71.701,74.585,71.781,74.462,71.781"/>
</g>
</svg>
