<?xml version="1.0" encoding="utf-8"?>
<!-- Generator: Adobe Illustrator 16.0.0, SVG Export Plug-In . SVG Version: 6.00 Build 0)  -->
<!DOCTYPE svg PUBLIC "-//W3C//DTD SVG 1.1//EN" "http://www.w3.org/Graphics/SVG/1.1/DTD/svg11.dtd">
<svg version="1.1" id="Layer_1" xmlns="http://www.w3.org/2000/svg" xmlns:xlink="http://www.w3.org/1999/xlink" x="0px" y="0px"
	 width="93.64px" height="93.218px" viewBox="0 0 93.64 93.218" enable-background="new 0 0 93.64 93.218" xml:space="preserve">
<g>
	<path fill="#857A91" d="M91.639,46.621c0,24.629-20.067,44.6-44.817,44.6C22.069,91.221,2,71.25,2,46.621
		C2,21.97,22.069,2,46.821,2C71.571,2,91.639,21.97,91.639,46.621"/>
	<path fill="#FFFFFF" d="M91.639,46.621h-2c0,11.76-4.778,22.399-12.538,30.12c-7.75,7.709-18.449,12.48-30.279,12.48
		s-22.528-4.771-30.284-12.48C8.787,69.02,4.002,58.381,4.002,46.621c0-11.771,4.785-22.42,12.535-30.131
		C24.293,8.771,34.991,4,46.821,4S69.351,8.771,77.101,16.49c7.76,7.721,12.538,18.359,12.538,30.131H91.639h2
		C93.639,20.861,72.67,0,46.821,0C20.969,0,0.002,20.861,0,46.621c0.004,25.739,20.969,46.6,46.821,46.6
		c25.849,0,46.817-20.861,46.817-46.6H91.639"/>
	<path fill="#DEDEDE" d="M93.64,46.621h-2h-2c0,11.76-4.78,22.399-12.539,30.12C69.539,84.27,59.17,88.99,47.67,89.209v4
		C73.129,92.76,93.64,72.08,93.64,46.621 M47.67,0.01v4c11.5,0.23,21.869,4.95,29.431,12.479
		C84.859,24.21,89.64,34.849,89.64,46.621h2h2C93.64,21.151,73.129,0.47,47.67,0.01"/>
	<path fill="#FFFFFF" d="M64.67,58.98c2.64,0,5.369,2.07,6.101,4.609l1.029,3.66c0.721,2.541-0.859,4.621-3.49,4.6l-42.94-0.029
		c-2.633,0-4.229-2.08-3.545-4.619l0.979-3.59c0.685-2.561,3.409-4.631,6.043-4.631H64.67"/>
	<path fill="#FFFFFF" d="M68.86,21.371H24.789c-1.111,0-2.009,0.898-2.009,2.01v30.69c0,1.119,0.897,2.02,2.009,2.02H68.86
		c1.108,0,2.009-0.9,2.009-2.02V23.38C70.869,22.269,69.969,21.371,68.86,21.371 M66.851,52.061H26.799V25.39h40.052V52.061z"/>
	<path fill="#6D6577" d="M46.82,89.221V71.84l21.488,0.01h0.032c2.609,0,4.179-2.068,3.459-4.6l-1.03-3.66
		c-0.729-2.539-3.461-4.609-6.099-4.609H46.82V56.09h22.039c1.109,0,2.011-0.9,2.011-2.018V23.38c0-1.109-0.901-2.01-2.011-2.01
		H46.82V4c0.289,0,0.568,0.011,0.851,0.011c7.979,0.159,15.42,2.479,21.75,6.398c0.009,0.011,0.019,0.02,0.039,0.031
		c0.041,0.029,0.09,0.049,0.14,0.08c0.021,0.02,0.051,0.039,0.071,0.051c0.039,0.029,0.08,0.049,0.119,0.078
		c0.03,0.021,0.069,0.041,0.099,0.061c0.041,0.02,0.071,0.051,0.112,0.07c0.028,0.02,0.069,0.041,0.099,0.068
		c0.039,0.021,0.071,0.041,0.101,0.061c0.041,0.031,0.079,0.051,0.12,0.08c0.029,0.021,0.06,0.041,0.091,0.061
		c0.039,0.03,0.08,0.051,0.118,0.08c0.029,0.02,0.062,0.04,0.091,0.049c0.041,0.031,0.09,0.062,0.131,0.092
		c0.019,0.02,0.049,0.029,0.069,0.051c0.05,0.029,0.091,0.059,0.14,0.088c0.019,0.02,0.05,0.041,0.069,0.051
		c0.052,0.04,0.091,0.07,0.142,0.1c0.019,0.021,0.048,0.03,0.07,0.039c0.049,0.041,0.09,0.071,0.139,0.111
		c0.021,0.01,0.041,0.03,0.06,0.04c0.052,0.03,0.101,0.071,0.151,0.101c0.019,0.02,0.039,0.029,0.06,0.049
		C71.7,11.929,71.751,11.97,71.8,12c0.021,0.021,0.041,0.03,0.06,0.04c0.052,0.04,0.101,0.08,0.15,0.109
		c0.02,0.021,0.04,0.029,0.061,0.041c0.05,0.039,0.091,0.08,0.14,0.109c0.019,0.021,0.041,0.03,0.06,0.04
		c0.051,0.04,0.101,0.08,0.151,0.11c0.019,0.02,0.039,0.029,0.048,0.039c0.061,0.041,0.112,0.082,0.161,0.121
		c0.009,0.01,0.031,0.02,0.05,0.039c0.049,0.041,0.1,0.07,0.151,0.111c0.019,0.02,0.028,0.029,0.049,0.039
		c0.05,0.04,0.099,0.08,0.149,0.12c0.021,0.009,0.041,0.021,0.052,0.04c0.049,0.04,0.099,0.07,0.147,0.111
		c0.022,0.019,0.041,0.027,0.051,0.039c0.062,0.039,0.109,0.08,0.16,0.119c0.011,0.021,0.029,0.031,0.039,0.041
		c0.051,0.039,0.112,0.08,0.16,0.119c0.012,0.01,0.032,0.03,0.041,0.039c0.049,0.041,0.11,0.082,0.161,0.121
		c0.009,0.01,0.029,0.03,0.039,0.04c0.05,0.04,0.099,0.08,0.16,0.13c0.01,0.01,0.019,0.021,0.041,0.03
		c0.049,0.04,0.099,0.09,0.147,0.13c0.022,0.01,0.031,0.02,0.041,0.029c0.062,0.051,0.11,0.091,0.16,0.131
		c0.01,0.01,0.03,0.02,0.039,0.031c0.051,0.049,0.102,0.088,0.161,0.139c0.009,0.01,0.021,0.02,0.031,0.03
		c0.058,0.05,0.108,0.09,0.159,0.14c0.011,0.01,0.029,0.02,0.039,0.029c0.052,0.041,0.101,0.091,0.16,0.141
		c0.01,0.01,0.021,0.01,0.03,0.021c0.05,0.049,0.111,0.099,0.16,0.139c0.009,0.01,0.019,0.02,0.031,0.03
		c0.049,0.05,0.108,0.09,0.159,0.14c0.011,0.01,0.021,0.02,0.029,0.029c0.062,0.051,0.11,0.102,0.161,0.141
		c0.009,0.01,0.019,0.021,0.029,0.03c0.06,0.05,0.108,0.099,0.159,0.149c0.011,0.011,0.021,0.011,0.029,0.021
		c0.051,0.05,0.112,0.099,0.16,0.149c0.01,0.01,0.022,0.021,0.032,0.031c0.049,0.049,0.108,0.1,0.16,0.149
		c0.01,0.01,0.019,0.01,0.028,0.021c0.052,0.049,0.101,0.1,0.16,0.149c0.01,0.011,0.01,0.021,0.021,0.03
		c0.06,0.05,0.108,0.1,0.17,0.16c0,0,0.01,0.01,0.019,0.01c0.051,0.061,0.112,0.109,0.16,0.16c0.01,0.01,0.01,0.01,0.022,0.02
		c0.059,0.051,0.108,0.11,0.17,0.16c0,0.01,0.01,0.01,0.01,0.02c0.058,0.061,0.119,0.119,0.179,0.18
		c7.76,7.721,12.539,18.359,12.539,30.131c0,11.76-4.779,22.399-12.539,30.12c-0.108,0.109-0.22,0.221-0.34,0.33
		c0,0.01-0.009,0.01-0.009,0.02c-0.062,0.051-0.112,0.1-0.16,0.16c-0.01,0-0.021,0.01-0.021,0.01
		c-0.061,0.061-0.12,0.121-0.182,0.18c-0.058,0.051-0.119,0.111-0.179,0.17H76.2c-0.062,0.061-0.119,0.111-0.181,0.172
		C70.831,82.6,64.43,86.15,57.331,87.93H57.32c-0.079,0.021-0.149,0.041-0.229,0.061c-0.01,0-0.021,0-0.032,0.01
		c-0.067,0.01-0.138,0.031-0.209,0.051c-0.019,0-0.029,0-0.05,0.01c-0.059,0.01-0.129,0.029-0.2,0.039
		c-0.019,0.01-0.029,0.01-0.05,0.021c-0.071,0.01-0.129,0.029-0.2,0.039c-0.019,0.01-0.041,0.01-0.06,0.02
		c-0.06,0.01-0.119,0.021-0.181,0.041c-0.028,0-0.049,0.01-0.08,0.01c-0.061,0.02-0.118,0.029-0.18,0.039
		c-0.019,0.012-0.05,0.012-0.07,0.021c-0.061,0.01-0.129,0.02-0.188,0.039c-0.021,0-0.041,0.01-0.071,0.01
		c-0.06,0.01-0.119,0.031-0.188,0.041c-0.021,0-0.041,0.01-0.062,0.01c-0.069,0.02-0.131,0.029-0.188,0.039
		c-0.022,0-0.052,0.01-0.08,0.01c-0.062,0.021-0.121,0.031-0.181,0.041c-0.021,0-0.051,0.01-0.069,0.01
		c-0.062,0.01-0.121,0.029-0.181,0.041c-0.03,0-0.061,0.01-0.079,0.01c-0.062,0.01-0.121,0.02-0.191,0.029
		c-0.021,0.01-0.049,0.01-0.071,0.02c-0.058,0.01-0.119,0.02-0.179,0.031c-0.03,0-0.059,0.01-0.081,0.01
		c-0.058,0.008-0.128,0.02-0.189,0.029c-0.02,0-0.038,0.01-0.069,0.01c-0.06,0.01-0.119,0.02-0.19,0.031
		c-0.019,0.01-0.041,0.01-0.069,0.01c-0.062,0.01-0.13,0.02-0.19,0.029c-0.019,0.01-0.041,0.01-0.06,0.01
		c-0.07,0.01-0.14,0.02-0.199,0.031c-0.021,0-0.051,0.01-0.071,0.01c-0.06,0.01-0.13,0.02-0.201,0.029c-0.019,0-0.028,0-0.049,0.01
		c-0.07,0.01-0.14,0.02-0.211,0.02c-0.019,0.01-0.029,0.01-0.048,0.01c-0.071,0.012-0.151,0.021-0.221,0.031h-0.029
		c-0.08,0.01-0.161,0.02-0.231,0.029h-0.028c-1.401,0.17-2.812,0.27-4.24,0.291C47.389,89.221,47.109,89.221,46.82,89.221"/>
	<path fill="#D8D8D8" d="M46.82,93.221v-4c0.29,0,0.569,0,0.85-0.01v4C47.39,93.221,47.11,93.221,46.82,93.221 M59.629,91.461
		l0.011-0.01L59.629,91.461 M59.771,91.42c0-0.01,0.009-0.01,0.009-0.01S59.771,91.41,59.771,91.42 M59.901,91.381
		c0.009-0.01,0.019-0.01,0.029-0.01C59.92,91.371,59.91,91.371,59.901,91.381 M60.039,91.34c0.01-0.01,0.021-0.01,0.041-0.01
		C60.07,91.33,60.049,91.33,60.039,91.34 M60.17,91.299c0.021-0.008,0.029-0.008,0.05-0.018
		C60.199,91.291,60.19,91.291,60.17,91.299 M60.31,91.26c0.021-0.01,0.03-0.01,0.051-0.02C60.351,91.25,60.33,91.25,60.31,91.26
		 M60.44,91.219c0.019-0.008,0.05-0.018,0.07-0.018C60.49,91.201,60.459,91.211,60.44,91.219 M60.58,91.18
		c0.021-0.01,0.049-0.02,0.071-0.029C60.629,91.16,60.601,91.17,60.58,91.18 M60.709,91.141c0.031-0.01,0.062-0.02,0.09-0.029
		C60.771,91.121,60.74,91.131,60.709,91.141 M60.84,91.09c0.039-0.01,0.07-0.02,0.101-0.029C60.91,91.07,60.879,91.08,60.84,91.09
		 M60.97,91.051c0.041-0.01,0.069-0.02,0.11-0.031C61.039,91.031,61.011,91.041,60.97,91.051 M61.11,91.01
		c0.041-0.01,0.07-0.02,0.099-0.029C61.181,90.99,61.151,91,61.11,91.01 M61.24,90.971c0.039-0.01,0.069-0.031,0.11-0.041
		C61.31,90.951,61.279,90.961,61.24,90.971 M61.379,90.92c0.041-0.01,0.08-0.02,0.121-0.031C61.459,90.9,61.42,90.91,61.379,90.92
		 M61.511,90.881c0.038-0.01,0.079-0.031,0.118-0.041C61.59,90.85,61.549,90.871,61.511,90.881 M61.64,90.84
		c16.971-5.639,29.631-20.689,31.7-38.93C91.271,70.16,78.619,85.201,61.64,90.84 M51.91,88.92h0.03H51.91 M52.17,88.891h0.029
		H52.17 M52.42,88.861c0.021,0,0.029,0,0.05-0.012C52.449,88.861,52.44,88.861,52.42,88.861 M52.681,88.83
		c0.019-0.01,0.028-0.01,0.049-0.01C52.709,88.82,52.699,88.82,52.681,88.83 M52.931,88.791c0.019,0,0.051-0.01,0.069-0.01
		C52.981,88.781,52.949,88.791,52.931,88.791 M53.199,88.75c0.021,0,0.041,0,0.062-0.01C53.24,88.75,53.22,88.75,53.199,88.75
		 M53.449,88.711c0.03,0,0.051,0,0.071-0.01C53.5,88.711,53.479,88.711,53.449,88.711 M53.709,88.67c0.031,0,0.052-0.01,0.07-0.01
		C53.761,88.66,53.74,88.67,53.709,88.67 M53.97,88.631c0.021,0,0.051-0.01,0.079-0.01C54.021,88.621,53.99,88.631,53.97,88.631
		 M54.229,88.59c0.021-0.01,0.05-0.01,0.069-0.02C54.279,88.58,54.25,88.58,54.229,88.59 M54.49,88.541
		c0.021,0,0.049-0.01,0.08-0.01C54.539,88.531,54.511,88.541,54.49,88.541 M54.75,88.49c0.021,0,0.049-0.01,0.07-0.01
		C54.799,88.48,54.771,88.49,54.75,88.49 M55,88.439c0.029,0,0.06-0.01,0.08-0.01C55.06,88.43,55.029,88.439,55,88.439
		 M55.271,88.391c0.019,0,0.041-0.01,0.06-0.01C55.312,88.381,55.289,88.391,55.271,88.391 M55.521,88.34
		c0.028,0,0.05-0.01,0.069-0.01C55.57,88.33,55.549,88.34,55.521,88.34 M55.779,88.291c0.02-0.01,0.051-0.01,0.071-0.021
		C55.83,88.281,55.799,88.281,55.779,88.291 M56.029,88.23c0.032,0,0.051-0.012,0.081-0.012C56.08,88.219,56.062,88.23,56.029,88.23
		 M56.289,88.18c0.021-0.01,0.041-0.01,0.062-0.02C56.33,88.17,56.31,88.17,56.289,88.18 M56.549,88.121
		c0.021-0.01,0.031-0.01,0.052-0.021C56.58,88.111,56.57,88.111,56.549,88.121 M56.799,88.061c0.021-0.01,0.031-0.01,0.052-0.01
		C56.83,88.051,56.82,88.051,56.799,88.061 M57.06,88c0.011-0.01,0.021-0.01,0.03-0.01C57.08,87.99,57.07,87.99,57.06,88
		 M57.32,87.93h0.01H57.32 M76.021,77.781L76.021,77.781 M76.199,77.611h0.01H76.199 M76.39,77.439L76.39,77.439 M76.57,77.26
		c0,0,0.01-0.01,0.02-0.01C76.58,77.25,76.57,77.26,76.57,77.26 M76.75,77.09c0-0.01,0.011-0.01,0.011-0.02
		C76.761,77.08,76.75,77.08,76.75,77.09 M93.34,51.91c0.021-0.189,0.05-0.379,0.062-0.58C93.39,51.531,93.36,51.721,93.34,51.91
		 M93.41,51.32c0-0.039,0.01-0.09,0.01-0.129C93.41,51.23,93.41,51.281,93.41,51.32 M93.42,51.18c0-0.049,0.011-0.088,0.011-0.139
		C93.431,51.092,93.42,51.131,93.42,51.18 M93.431,51.031c0.01-0.041,0.01-0.09,0.019-0.141C93.44,50.941,93.44,50.99,93.431,51.031
		 M93.449,50.891c0-0.039,0.01-0.09,0.01-0.141C93.459,50.801,93.449,50.852,93.449,50.891 M93.459,50.74
		c0-0.039,0.01-0.09,0.01-0.129C93.469,50.65,93.459,50.701,93.459,50.74 M93.469,50.59c0.011-0.039,0.011-0.09,0.011-0.129
		C93.479,50.5,93.479,50.551,93.469,50.59 M93.49,50.451c0-0.051,0-0.092,0.01-0.141C93.49,50.359,93.49,50.4,93.49,50.451
		 M93.5,50.301c0-0.051,0-0.09,0.01-0.131C93.5,50.211,93.5,50.26,93.5,50.301 M93.51,50.15c0-0.049,0.011-0.08,0.011-0.129
		C93.521,50.061,93.51,50.111,93.51,50.15 M93.521,50c0-0.039,0.009-0.08,0.009-0.119C93.529,49.92,93.521,49.961,93.521,50
		 M93.529,49.85c0-0.039,0.01-0.078,0.01-0.119C93.539,49.771,93.529,49.811,93.529,49.85 M93.539,49.701
		c0-0.041,0.01-0.08,0.01-0.121C93.549,49.621,93.539,49.66,93.539,49.701 M93.549,49.551c0-0.041,0.011-0.07,0.011-0.109
		C93.56,49.48,93.549,49.51,93.549,49.551 M93.56,49.41c0-0.039,0-0.08,0.011-0.119C93.56,49.33,93.56,49.371,93.56,49.41
		 M93.57,49.25v-0.109V49.25 M93.58,49.1V49V49.1 M93.58,48.951c0.01-0.031,0.01-0.07,0.01-0.1
		C93.59,48.881,93.59,48.92,93.58,48.951 M93.59,48.791c0-0.031,0-0.061,0.011-0.09C93.59,48.73,93.59,48.76,93.59,48.791
		 M93.601,48.641v-0.09V48.641 M93.601,48.5c0.01-0.029,0.01-0.059,0.01-0.09C93.61,48.441,93.61,48.471,93.601,48.5 M93.61,48.35
		v-0.09V48.35 M93.619,48.201v-0.092V48.201 M93.619,48.051v-0.09V48.051 M93.619,47.91c0.01-0.029,0.01-0.059,0.01-0.1
		C93.629,47.852,93.629,47.881,93.619,47.91 M93.629,47.73V47.67V47.73 M93.629,47.58v-0.07V47.58 M93.629,47.46
		c0.011-0.04,0.011-0.07,0.011-0.101C93.64,47.39,93.64,47.429,93.629,47.46 M93.64,47.321V47.22V47.321 M93.64,47.13v-0.06V47.13
		 M93.64,46.98v-0.06V46.98 M93.64,46.861v-0.24V46.861 M93.64,46.621L93.64,46.621 M93.64,46.47v-0.029V46.47 M93.64,46.321v-0.12
		V46.321 M93.64,46.17v-0.09V46.17 M93.64,46.021v-0.07V46.021 M93.64,45.871V45.8V45.871 M93.629,45.72v-0.09V45.72 M93.629,45.571
		v-0.08V45.571 M93.629,45.42v-0.06V45.42 M93.619,45.271V45.22V45.271 M93.619,45.121v-0.07V45.121 M93.61,44.97V44.9V44.97
		 M93.61,44.831v-0.08V44.831 M93.601,44.67v-0.06V44.67 M93.601,44.531c-0.011-0.03-0.011-0.051-0.011-0.08
		C93.59,44.48,93.59,44.5,93.601,44.531 M93.59,44.38V44.3V44.38 M93.58,44.23v-0.08V44.23 M93.57,44.081v-0.09V44.081
		 M93.57,43.941c-0.011-0.031-0.011-0.07-0.011-0.102C93.56,43.871,93.56,43.91,93.57,43.941 M93.56,43.791
		c0-0.031-0.011-0.061-0.011-0.1C93.549,43.73,93.56,43.759,93.56,43.791 M93.549,43.65c0-0.041-0.01-0.069-0.01-0.1
		C93.539,43.581,93.549,43.609,93.549,43.65 M93.539,43.491c0-0.03-0.01-0.05-0.01-0.081C93.529,43.441,93.539,43.47,93.539,43.491
		 M93.529,43.351c0-0.03-0.009-0.061-0.009-0.092C93.521,43.291,93.529,43.321,93.529,43.351 M93.521,43.201
		c0-0.03-0.011-0.051-0.011-0.08C93.51,43.14,93.521,43.17,93.521,43.201 M93.51,43.05c-0.01-0.029-0.01-0.06-0.01-0.08
		C93.5,42.991,93.5,43.021,93.51,43.05 M93.5,42.9c-0.01-0.02-0.01-0.049-0.01-0.079C93.49,42.851,93.49,42.88,93.5,42.9
		 M93.479,42.759v-0.08V42.759 M93.469,42.611v-0.07V42.611 M93.459,42.46c0-0.02-0.01-0.051-0.01-0.08
		C93.449,42.41,93.459,42.441,93.459,42.46 M93.449,42.31c-0.009-0.02-0.009-0.051-0.009-0.069
		C93.44,42.259,93.44,42.291,93.449,42.31 M93.431,42.17c0-0.03,0-0.062-0.011-0.079C93.431,42.109,93.431,42.14,93.431,42.17
		 M93.42,42.031c0-0.03-0.01-0.061-0.01-0.09C93.41,41.97,93.42,42,93.42,42.031 M93.401,41.88c0-0.029,0-0.06-0.012-0.09
		C93.401,41.821,93.401,41.851,93.401,41.88 M93.39,41.741c0-0.03-0.011-0.06-0.011-0.091C93.379,41.681,93.39,41.71,93.39,41.741
		 M93.369,41.59c0-0.03,0-0.06-0.009-0.09C93.369,41.531,93.369,41.56,93.369,41.59 M93.36,41.441
		c-0.01-0.031-0.01-0.051-0.01-0.081C93.351,41.38,93.351,41.42,93.36,41.441 M93.34,41.3c0-0.029-0.01-0.06-0.01-0.09
		C93.33,41.241,93.34,41.271,93.34,41.3 M93.32,41.15c0-0.029,0-0.06-0.011-0.09C93.32,41.09,93.32,41.121,93.32,41.15 M93.31,41.01
		c-0.011-0.03-0.011-0.06-0.011-0.09C93.299,40.951,93.299,40.98,93.31,41.01 M93.289,40.861c0-0.03-0.01-0.061-0.01-0.09
		C93.279,40.8,93.289,40.831,93.289,40.861 M93.271,40.72c0-0.029-0.011-0.061-0.011-0.1C93.26,40.66,93.271,40.691,93.271,40.72
		 M93.25,40.571c0-0.03-0.01-0.05-0.01-0.08C93.24,40.521,93.25,40.55,93.25,40.571 M93.229,40.429c0-0.029-0.011-0.059-0.011-0.09
		C93.219,40.371,93.229,40.4,93.229,40.429 M93.209,40.291c0-0.04,0-0.061-0.01-0.1C93.209,40.22,93.209,40.259,93.209,40.291
		 M93.19,40.14c0-0.029-0.01-0.06-0.01-0.09C93.181,40.081,93.19,40.111,93.19,40.14 M93.17,40c0-0.03-0.01-0.06-0.01-0.101
		C93.16,39.941,93.17,39.97,93.17,40 M93.151,39.86c0-0.039-0.012-0.069-0.012-0.101C93.14,39.791,93.151,39.821,93.151,39.86
		 M93.129,39.71c0-0.031-0.01-0.061-0.01-0.09C93.119,39.65,93.129,39.679,93.129,39.71 M93.11,39.571c0-0.04-0.01-0.07-0.021-0.101
		C93.101,39.5,93.101,39.531,93.11,39.571 M93.09,39.431c-0.01-0.041-0.01-0.07-0.02-0.101C93.08,39.361,93.08,39.39,93.09,39.431
		 M93.07,39.281c-0.011-0.03-0.021-0.07-0.021-0.102C93.049,39.21,93.06,39.25,93.07,39.281 M93.039,39.14
		c0-0.031-0.01-0.069-0.01-0.1C93.029,39.071,93.039,39.109,93.039,39.14 M93.021,39C93.01,38.96,93.01,38.929,93,38.89
		C93.01,38.929,93.01,38.96,93.021,39 M93,38.861c-0.01-0.04-0.021-0.07-0.021-0.11C92.979,38.791,92.99,38.821,93,38.861
		 M92.969,38.71c0-0.029-0.01-0.07-0.02-0.1C92.959,38.64,92.969,38.681,92.969,38.71 M92.949,38.571
		c-0.009-0.03-0.019-0.07-0.019-0.101C92.94,38.5,92.94,38.541,92.949,38.571 M92.92,38.429c0-0.039-0.01-0.078-0.019-0.108
		C92.91,38.351,92.92,38.39,92.92,38.429 M92.901,38.3c-0.012-0.041-0.022-0.08-0.022-0.121C92.879,38.22,92.89,38.259,92.901,38.3
		 M92.869,38.15c-0.009-0.039-0.009-0.079-0.019-0.119C92.86,38.071,92.86,38.111,92.869,38.15 M92.851,38.01
		c-0.011-0.04-0.021-0.079-0.03-0.12C92.83,37.931,92.84,37.97,92.851,38.01 M92.82,37.871c-0.011-0.04-0.021-0.08-0.031-0.13
		C92.799,37.791,92.81,37.831,92.82,37.871 M92.789,37.741c0-0.04-0.01-0.091-0.019-0.132C92.779,37.65,92.789,37.701,92.789,37.741
		 M92.771,37.591c-0.011-0.041-0.021-0.081-0.03-0.131C92.75,37.51,92.76,37.55,92.771,37.591 M92.74,37.46
		c-0.011-0.051-0.021-0.09-0.031-0.14C92.719,37.371,92.729,37.41,92.74,37.46 M92.709,37.31c-0.019-0.09-0.039-0.18-0.058-0.27
		C92.67,37.13,92.69,37.22,92.709,37.31 M92.651,37.041c-3.071-14.65-13.051-26.77-26.391-32.84
		C79.601,10.271,89.58,22.39,92.651,37.041 M77.101,16.491c-0.062-0.062-0.121-0.12-0.181-0.181
		C76.979,16.371,77.039,16.429,77.101,16.491 M76.91,16.291c-0.06-0.05-0.111-0.109-0.17-0.16
		C76.789,16.181,76.851,16.241,76.91,16.291 M76.72,16.111c-0.05-0.051-0.109-0.101-0.16-0.16C76.61,16,76.67,16.06,76.72,16.111
		 M76.539,15.941c-0.06-0.061-0.108-0.11-0.17-0.16C76.431,15.831,76.479,15.88,76.539,15.941 M76.351,15.75
		c-0.062-0.05-0.11-0.101-0.16-0.149C76.24,15.65,76.289,15.701,76.351,15.75 M76.16,15.581c-0.05-0.05-0.111-0.101-0.16-0.149
		C76.049,15.48,76.11,15.531,76.16,15.581 M75.97,15.4c-0.05-0.051-0.109-0.1-0.16-0.149C75.869,15.3,75.92,15.349,75.97,15.4
		 M75.779,15.23c-0.05-0.051-0.099-0.1-0.16-0.149C75.681,15.13,75.729,15.179,75.779,15.23 M75.59,15.05
		c-0.051-0.04-0.1-0.09-0.159-0.141C75.49,14.96,75.539,15.01,75.59,15.05 M75.401,14.88c-0.051-0.05-0.112-0.09-0.161-0.14
		C75.299,14.791,75.351,14.831,75.401,14.88 M75.209,14.71c-0.049-0.04-0.108-0.09-0.16-0.14
		C75.101,14.621,75.16,14.67,75.209,14.71 M75.021,14.55c-0.062-0.05-0.11-0.1-0.16-0.141C74.91,14.451,74.97,14.5,75.021,14.55
		 M74.82,14.38c-0.05-0.05-0.101-0.09-0.16-0.14C74.72,14.291,74.771,14.331,74.82,14.38 M74.629,14.21
		c-0.059-0.051-0.108-0.09-0.159-0.14C74.521,14.121,74.57,14.16,74.629,14.21 M74.431,14.041c-0.052-0.04-0.101-0.08-0.16-0.131
		C74.33,13.96,74.379,14,74.431,14.041 M74.229,13.88c-0.049-0.041-0.101-0.09-0.149-0.13C74.129,13.791,74.181,13.839,74.229,13.88
		 M74.039,13.72c-0.06-0.05-0.108-0.09-0.16-0.129C73.931,13.63,73.99,13.67,74.039,13.72 M73.84,13.55
		c-0.051-0.04-0.11-0.08-0.159-0.121C73.729,13.47,73.789,13.51,73.84,13.55 M73.64,13.39c-0.05-0.039-0.11-0.08-0.16-0.119
		C73.539,13.31,73.59,13.351,73.64,13.39 M73.44,13.23c-0.051-0.039-0.101-0.08-0.161-0.119C73.34,13.15,73.39,13.191,73.44,13.23
		 M73.229,13.071c-0.049-0.04-0.101-0.07-0.149-0.11C73.129,13,73.181,13.031,73.229,13.071 M73.029,12.92
		c-0.05-0.04-0.099-0.079-0.15-0.12C72.931,12.841,72.979,12.88,73.029,12.92 M72.83,12.759c-0.051-0.039-0.101-0.068-0.149-0.109
		C72.729,12.691,72.779,12.72,72.83,12.759 M72.629,12.611c-0.049-0.04-0.1-0.08-0.159-0.12
		C72.529,12.531,72.58,12.571,72.629,12.611 M72.42,12.451c-0.051-0.03-0.1-0.07-0.149-0.111C72.32,12.38,72.369,12.42,72.42,12.451
		 M72.209,12.3c-0.049-0.029-0.09-0.07-0.139-0.109C72.119,12.23,72.17,12.271,72.209,12.3 M72.011,12.15
		c-0.052-0.029-0.101-0.069-0.15-0.109C71.91,12.081,71.959,12.121,72.011,12.15 M71.799,12c-0.049-0.03-0.1-0.071-0.147-0.101
		C71.699,11.929,71.75,11.97,71.799,12 M71.59,11.851c-0.051-0.03-0.1-0.07-0.149-0.101C71.49,11.781,71.539,11.821,71.59,11.851
		 M71.379,11.71c-0.049-0.04-0.09-0.07-0.139-0.111C71.289,11.64,71.33,11.67,71.379,11.71 M71.17,11.56
		c-0.051-0.029-0.09-0.06-0.141-0.1C71.08,11.491,71.129,11.531,71.17,11.56 M70.959,11.41c-0.049-0.029-0.09-0.059-0.139-0.089
		C70.869,11.351,70.91,11.38,70.959,11.41 M70.75,11.271c-0.041-0.03-0.09-0.061-0.131-0.092
		C70.66,11.21,70.699,11.241,70.75,11.271 M70.529,11.13c-0.039-0.029-0.08-0.05-0.119-0.08
		C70.449,11.081,70.49,11.101,70.529,11.13 M70.32,10.991c-0.041-0.03-0.08-0.05-0.121-0.081
		C70.24,10.941,70.279,10.96,70.32,10.991 M70.101,10.849C70.07,10.821,70.029,10.8,70,10.781
		C70.029,10.8,70.07,10.821,70.101,10.849 M69.89,10.71c-0.029-0.02-0.069-0.04-0.101-0.061C69.82,10.67,69.86,10.691,69.89,10.71
		 M69.67,10.571c-0.019-0.011-0.051-0.03-0.069-0.05C69.619,10.541,69.651,10.56,69.67,10.571 M69.459,10.441
		c-0.019-0.012-0.028-0.021-0.039-0.031C69.431,10.42,69.44,10.429,69.459,10.441 M66.229,4.191C66.199,4.17,66.16,4.16,66.129,4.14
		C66.16,4.16,66.199,4.17,66.229,4.191 M66.11,4.13c-0.04-0.01-0.071-0.031-0.1-0.04C66.039,4.099,66.07,4.121,66.11,4.13
		 M65.97,4.071c-0.029-0.011-0.06-0.03-0.091-0.04C65.91,4.041,65.94,4.06,65.97,4.071 M65.851,4.01
		C65.81,4,65.779,3.991,65.75,3.97C65.779,3.991,65.81,4,65.851,4.01 M47.67,4.01C47.39,4.01,47.11,4,46.82,4V0
		c0.29,0,0.569,0.01,0.85,0.01V4.01 M65.72,3.96c-0.029-0.02-0.068-0.031-0.101-0.04C65.651,3.929,65.681,3.941,65.72,3.96
		 M65.59,3.9c-0.03-0.01-0.061-0.02-0.09-0.04C65.529,3.88,65.56,3.89,65.59,3.9 M65.449,3.841c-0.019-0.011-0.039-0.021-0.07-0.031
		C65.41,3.821,65.431,3.831,65.449,3.841 M65.32,3.791c-0.021-0.01-0.041-0.02-0.06-0.031C65.279,3.771,65.299,3.781,65.32,3.791
		 M65.19,3.73c-0.021-0.01-0.039-0.02-0.062-0.029C65.151,3.71,65.17,3.72,65.19,3.73 M65.06,3.67
		C65.039,3.66,65.021,3.66,64.99,3.65C65.021,3.66,65.039,3.66,65.06,3.67 M64.931,3.621c-0.021-0.01-0.041-0.02-0.07-0.03
		C64.879,3.601,64.91,3.611,64.931,3.621 M64.799,3.56c-0.02,0-0.038-0.01-0.059-0.02C64.761,3.55,64.779,3.56,64.799,3.56
		 M64.66,3.51c-0.021-0.01-0.031-0.02-0.05-0.02C64.629,3.491,64.64,3.5,64.66,3.51 M64.529,3.451c-0.019,0-0.029-0.01-0.039-0.01
		C64.5,3.441,64.521,3.451,64.529,3.451 M64.39,3.4c-0.011-0.01-0.021-0.01-0.029-0.01C64.369,3.39,64.379,3.39,64.39,3.4
		 M64.261,3.349c-0.011-0.01-0.021-0.01-0.031-0.019C64.24,3.339,64.25,3.339,64.261,3.349 M64.129,3.291
		c-0.01,0-0.019-0.01-0.039-0.01C64.11,3.281,64.119,3.291,64.129,3.291 M64,3.241c-0.01,0-0.021-0.011-0.03-0.011
		C63.979,3.23,63.99,3.241,64,3.241 M63.86,3.191c-0.01,0-0.021-0.012-0.021-0.012S63.851,3.191,63.86,3.191 M63.729,3.14
		c-0.01-0.01-0.021-0.01-0.03-0.01C63.709,3.13,63.72,3.13,63.729,3.14 M63.59,3.091c0-0.011-0.01-0.011-0.02-0.011
		C63.58,3.081,63.59,3.081,63.59,3.091 M63.459,3.031H63.44H63.459 M63.32,2.98H63.31H63.32 M63.19,2.929h-0.01H63.19 M63.049,2.88
		L63.049,2.88"/>
	<path fill="#C8C8C8" d="M47.67,93.209L47.67,93.209v-4c1.431-0.02,2.841-0.119,4.24-0.289h0.03c0.07-0.01,0.15-0.02,0.229-0.029
		h0.029c0.071-0.01,0.151-0.021,0.221-0.031c0.021,0,0.029,0,0.05-0.01c0.069,0,0.14-0.01,0.211-0.02
		c0.019-0.01,0.028-0.01,0.049-0.01c0.07-0.01,0.14-0.02,0.201-0.031c0.019,0,0.051-0.008,0.069-0.008
		c0.062-0.012,0.129-0.021,0.199-0.031c0.021,0,0.041,0,0.062-0.01c0.06-0.01,0.129-0.02,0.188-0.031c0.03,0,0.051,0,0.071-0.008
		c0.07-0.012,0.13-0.021,0.188-0.031c0.031,0,0.052-0.01,0.07-0.01c0.062-0.01,0.131-0.02,0.19-0.029
		c0.021,0,0.051-0.012,0.08-0.012c0.06-0.01,0.12-0.02,0.18-0.029c0.021-0.01,0.05-0.01,0.07-0.02c0.069-0.01,0.131-0.02,0.19-0.031
		c0.021,0,0.049-0.008,0.08-0.008c0.059-0.012,0.12-0.031,0.18-0.041c0.021,0,0.05-0.01,0.07-0.01c0.059-0.01,0.12-0.021,0.18-0.041
		c0.029,0,0.06-0.01,0.08-0.01c0.06-0.01,0.119-0.02,0.19-0.039c0.019,0,0.041-0.01,0.06-0.01c0.07-0.012,0.129-0.029,0.19-0.041
		c0.029,0,0.05-0.01,0.07-0.01c0.06-0.02,0.129-0.029,0.188-0.041c0.021-0.008,0.051-0.008,0.071-0.02
		c0.06-0.01,0.119-0.02,0.179-0.037c0.032,0,0.051-0.012,0.08-0.012c0.061-0.02,0.122-0.031,0.18-0.041
		c0.021-0.01,0.041-0.01,0.062-0.02c0.069-0.01,0.129-0.029,0.199-0.041c0.021-0.01,0.03-0.01,0.051-0.02
		c0.069-0.01,0.14-0.029,0.199-0.039c0.021-0.01,0.03-0.01,0.051-0.01c0.069-0.02,0.14-0.041,0.209-0.051
		c0.011-0.01,0.021-0.01,0.031-0.01c0.079-0.02,0.149-0.041,0.229-0.061h0.01c7.101-1.779,13.5-5.33,18.69-10.148
		c0.06-0.061,0.119-0.111,0.179-0.172h0.01c0.062-0.059,0.121-0.119,0.181-0.17c0.06-0.059,0.121-0.119,0.181-0.18
		c0,0,0.01-0.01,0.021-0.01c0.049-0.061,0.1-0.109,0.159-0.16c0-0.01,0.011-0.01,0.011-0.02c0.118-0.111,0.229-0.221,0.34-0.33
		c7.759-7.721,12.539-18.359,12.539-30.12c0-11.771-4.78-22.41-12.539-30.131c-0.062-0.06-0.121-0.119-0.181-0.18
		c0-0.01-0.01-0.01-0.01-0.02c-0.06-0.05-0.121-0.109-0.17-0.16c-0.011-0.01-0.011-0.01-0.021-0.02
		c-0.05-0.051-0.11-0.111-0.16-0.16c-0.01,0-0.021-0.01-0.021-0.01c-0.06-0.061-0.108-0.111-0.17-0.16
		c-0.01-0.011-0.01-0.02-0.019-0.031c-0.062-0.049-0.11-0.1-0.16-0.148c-0.01-0.011-0.021-0.011-0.03-0.021
		c-0.051-0.049-0.11-0.098-0.16-0.149c-0.01-0.01-0.021-0.021-0.03-0.03c-0.05-0.051-0.101-0.1-0.16-0.15
		c-0.01-0.009-0.021-0.009-0.03-0.02c-0.05-0.049-0.099-0.1-0.16-0.15c-0.01-0.008-0.019-0.02-0.028-0.029
		c-0.052-0.039-0.101-0.09-0.16-0.141c-0.011-0.01-0.021-0.02-0.03-0.029c-0.05-0.051-0.101-0.09-0.16-0.14
		c-0.011-0.009-0.021-0.021-0.031-0.03c-0.049-0.04-0.108-0.09-0.159-0.139c-0.011-0.012-0.021-0.012-0.029-0.021
		c-0.051-0.051-0.11-0.1-0.161-0.141c-0.009-0.01-0.029-0.02-0.039-0.029c-0.05-0.051-0.101-0.09-0.16-0.14
		c-0.01-0.009-0.021-0.021-0.031-0.03c-0.059-0.05-0.108-0.09-0.159-0.139c-0.011-0.012-0.029-0.021-0.039-0.031
		c-0.052-0.041-0.101-0.08-0.16-0.131c-0.01-0.01-0.021-0.02-0.041-0.029c-0.049-0.04-0.101-0.09-0.149-0.131
		c-0.021-0.009-0.03-0.02-0.041-0.029c-0.049-0.05-0.108-0.09-0.16-0.13c-0.01-0.011-0.028-0.03-0.038-0.04
		c-0.052-0.039-0.111-0.08-0.16-0.12c-0.011-0.01-0.03-0.03-0.041-0.04c-0.049-0.039-0.101-0.08-0.16-0.12
		c-0.01-0.009-0.03-0.021-0.039-0.038c-0.051-0.041-0.1-0.082-0.161-0.121c-0.009-0.012-0.029-0.021-0.05-0.039
		C73.181,13.031,73.129,13,73.08,12.96c-0.01-0.02-0.03-0.03-0.051-0.04c-0.05-0.04-0.099-0.08-0.15-0.12
		c-0.02-0.01-0.028-0.02-0.049-0.039c-0.051-0.041-0.101-0.07-0.149-0.111c-0.021-0.02-0.041-0.029-0.052-0.039
		c-0.049-0.039-0.1-0.08-0.159-0.121c-0.011-0.008-0.029-0.02-0.05-0.039c-0.051-0.03-0.1-0.07-0.149-0.11
		c-0.021-0.011-0.041-0.019-0.062-0.04c-0.039-0.03-0.09-0.07-0.139-0.109c-0.021-0.01-0.041-0.021-0.06-0.041
		c-0.052-0.029-0.101-0.07-0.151-0.109C71.841,12.031,71.82,12.02,71.8,12c-0.05-0.029-0.101-0.069-0.149-0.1
		c-0.021-0.02-0.041-0.029-0.06-0.049c-0.052-0.029-0.101-0.07-0.15-0.102c-0.021-0.009-0.04-0.029-0.062-0.039
		c-0.049-0.04-0.09-0.07-0.139-0.111c-0.021-0.009-0.05-0.02-0.07-0.039c-0.041-0.029-0.09-0.07-0.141-0.1
		c-0.019-0.01-0.05-0.03-0.07-0.051c-0.049-0.029-0.09-0.06-0.139-0.088c-0.021-0.021-0.05-0.031-0.07-0.052
		c-0.051-0.029-0.09-0.06-0.131-0.089c-0.028-0.011-0.06-0.031-0.09-0.051c-0.039-0.029-0.08-0.051-0.119-0.08
		c-0.031-0.02-0.06-0.039-0.09-0.061c-0.041-0.029-0.08-0.049-0.121-0.08c-0.029-0.02-0.06-0.039-0.099-0.061
		C70.07,10.822,70.029,10.8,70,10.781c-0.041-0.02-0.069-0.051-0.11-0.07c-0.03-0.02-0.069-0.04-0.101-0.061
		c-0.039-0.029-0.08-0.05-0.119-0.078c-0.02-0.012-0.051-0.031-0.069-0.052c-0.051-0.03-0.101-0.05-0.142-0.079
		c-0.019-0.011-0.028-0.021-0.039-0.031C63.091,6.49,55.65,4.17,47.67,4.011v-4c5.4,0.1,10.57,1.1,15.38,2.869
		c0.041,0.02,0.09,0.029,0.131,0.05h0.01c0.039,0.021,0.08,0.03,0.119,0.052h0.011C63.359,3,63.4,3.011,63.44,3.031h0.019
		c0.031,0.02,0.07,0.029,0.111,0.049c0.01,0,0.021,0,0.021,0.011c0.038,0.01,0.079,0.021,0.108,0.04c0.01,0,0.021,0,0.03,0.01
		c0.031,0.01,0.07,0.021,0.111,0.041c0,0,0.01,0.01,0.019,0.01c0.041,0.01,0.071,0.029,0.11,0.039c0.01,0,0.021,0.011,0.03,0.011
		c0.029,0.009,0.06,0.029,0.091,0.04c0.019,0,0.028,0.01,0.038,0.01c0.031,0.02,0.07,0.031,0.101,0.039
		c0.011,0.011,0.021,0.011,0.031,0.02c0.028,0.012,0.069,0.021,0.099,0.041c0.01,0,0.02,0,0.03,0.01
		c0.03,0.01,0.069,0.021,0.101,0.041c0.01,0,0.021,0.01,0.039,0.01c0.03,0.02,0.051,0.031,0.08,0.039c0.02,0,0.03,0.01,0.051,0.021
		c0.03,0.009,0.06,0.02,0.08,0.029s0.039,0.02,0.06,0.02c0.021,0.012,0.041,0.02,0.06,0.03c0.03,0.011,0.051,0.021,0.071,0.03
		c0.019,0.01,0.039,0.02,0.06,0.029c0.03,0.011,0.049,0.011,0.069,0.021c0.021,0.011,0.05,0.021,0.069,0.03
		c0.021,0.01,0.041,0.02,0.062,0.031c0.019,0.009,0.039,0.018,0.07,0.029c0.019,0.009,0.039,0.02,0.06,0.029
		c0.021,0,0.039,0.01,0.059,0.02c0.031,0.012,0.052,0.02,0.07,0.03C65.47,3.85,65.49,3.861,65.5,3.861
		c0.029,0.02,0.06,0.029,0.091,0.039c0.01,0.01,0.019,0.01,0.028,0.021c0.031,0.01,0.071,0.021,0.101,0.04
		c0.01,0,0.021,0.01,0.03,0.01C65.779,3.99,65.81,4,65.851,4.011c0.009,0.009,0.019,0.009,0.028,0.02
		c0.031,0.01,0.062,0.029,0.091,0.041C65.99,4.08,66,4.08,66.011,4.09c0.028,0.009,0.06,0.03,0.099,0.04c0,0,0.01,0.01,0.02,0.01
		c0.031,0.021,0.07,0.03,0.101,0.051c0.011,0,0.021,0.01,0.031,0.01c13.34,6.069,23.319,18.189,26.39,32.84
		c0.02,0.09,0.04,0.18,0.059,0.27v0.012c0.011,0.049,0.021,0.088,0.031,0.139c0.01,0.051,0.021,0.09,0.03,0.13v0.021
		c0.009,0.039,0.019,0.09,0.019,0.13c0.01,0.05,0.021,0.089,0.031,0.13v0.02c0.01,0.04,0.02,0.08,0.03,0.121v0.02
		c0.009,0.041,0.009,0.08,0.019,0.119c0,0.011,0,0.021,0.01,0.031c0,0.039,0.011,0.08,0.021,0.119v0.021
		c0.01,0.028,0.02,0.068,0.02,0.108c0,0.011,0.011,0.021,0.011,0.04c0,0.029,0.01,0.07,0.019,0.102v0.039
		c0.01,0.029,0.021,0.07,0.021,0.1c0,0.021,0.01,0.03,0.01,0.039c0,0.041,0.011,0.072,0.021,0.111v0.029
		c0.011,0.04,0.011,0.07,0.021,0.109c0,0.012,0,0.031,0.009,0.041c0,0.031,0.01,0.07,0.01,0.1c0.01,0.01,0.01,0.03,0.01,0.041
		c0,0.029,0.011,0.068,0.021,0.1v0.049c0.01,0.031,0.01,0.061,0.02,0.101v0.04c0.011,0.029,0.02,0.061,0.02,0.102
		c0,0.008,0.01,0.029,0.01,0.049c0,0.029,0.01,0.061,0.01,0.09c0,0.021,0.011,0.03,0.011,0.051c0,0.029,0.011,0.061,0.011,0.1
		c0.01,0.01,0.01,0.029,0.01,0.039c0,0.041,0.01,0.07,0.01,0.1c0.011,0.012,0.011,0.031,0.011,0.051c0,0.029,0.01,0.061,0.01,0.09
		c0.009,0.021,0.009,0.041,0.009,0.051c0.01,0.041,0.01,0.059,0.01,0.1c0.011,0.01,0.011,0.031,0.011,0.05
		c0,0.03,0.01,0.06,0.01,0.09c0.011,0.021,0.011,0.04,0.011,0.06c0,0.03,0.01,0.051,0.01,0.082c0,0.019,0.011,0.039,0.011,0.049
		c0,0.04,0.01,0.07,0.01,0.1c0,0.021,0.009,0.029,0.009,0.05c0,0.03,0.01,0.06,0.01,0.091c0,0.02,0,0.039,0.01,0.06
		c0,0.03,0,0.062,0.011,0.091v0.049c0.011,0.03,0.011,0.061,0.011,0.09c0.01,0.021,0.01,0.041,0.01,0.061
		c0,0.03,0.01,0.06,0.01,0.09c0,0.021,0.011,0.04,0.011,0.061c0,0.029,0,0.049,0.009,0.08V41.5c0.01,0.031,0.01,0.061,0.01,0.091
		c0,0.021,0.01,0.04,0.01,0.06c0,0.031,0.011,0.061,0.011,0.091v0.05c0.011,0.031,0.011,0.061,0.011,0.09
		c0.01,0.02,0.01,0.04,0.01,0.061c0,0.029,0.01,0.059,0.01,0.09v0.06c0.011,0.021,0.011,0.05,0.011,0.08
		c0,0.021,0.01,0.05,0.01,0.07s0,0.05,0.009,0.069v0.07c0,0.029,0.01,0.061,0.01,0.08c0,0.029,0,0.051,0.011,0.08v0.07
		c0,0.02,0.01,0.05,0.01,0.07v0.08c0.011,0.02,0.011,0.039,0.011,0.061c0,0.028,0,0.059,0.01,0.078v0.07c0,0.02,0,0.05,0.011,0.08
		v0.07c0,0.029,0.01,0.05,0.01,0.08v0.061c0,0.029,0.009,0.061,0.009,0.09v0.059c0,0.031,0.01,0.051,0.01,0.08v0.061
		c0,0.029,0.01,0.061,0.01,0.1v0.041c0,0.039,0.011,0.07,0.011,0.1v0.05c0,0.03,0,0.069,0.011,0.101v0.049v0.09
		c0.01,0.031,0.01,0.051,0.01,0.07v0.082c0,0.029,0,0.049,0.01,0.068v0.08v0.07c0,0.029,0,0.049,0.011,0.08v0.08v0.06
		c0,0.03,0,0.05,0.009,0.079v0.08v0.07v0.07c0,0.029,0.01,0.061,0.01,0.08v0.07v0.1v0.05c0,0.03,0,0.06,0.01,0.091v0.06v0.069v0.082
		v0.059v0.09c0,0.029,0,0.05,0.011,0.08v0.07v0.08v0.069v0.06v0.091v0.03v0.121v0.119v0.029v0.15v0.24v0.06v0.062v0.09v0.059v0.09
		v0.102v0.039c0,0.029,0,0.06-0.011,0.1v0.051v0.069v0.09v0.063v0.078c0,0.041,0,0.07-0.01,0.1v0.051v0.09v0.061v0.09
		c-0.01,0.02-0.01,0.039-0.01,0.061v0.088v0.061c0,0.031,0,0.061-0.009,0.09v0.051v0.09v0.061c-0.011,0.031-0.011,0.061-0.011,0.09
		v0.059c0,0.031,0,0.07-0.01,0.102V49v0.1c0,0.021,0,0.031-0.01,0.041v0.109v0.041c-0.011,0.039-0.011,0.08-0.011,0.119v0.031
		c0,0.041-0.011,0.07-0.011,0.109v0.029c0,0.041-0.01,0.08-0.01,0.121v0.029c0,0.039-0.01,0.08-0.01,0.119v0.031
		c0,0.039-0.009,0.08-0.009,0.119v0.02c0,0.053-0.01,0.082-0.01,0.131v0.02C93.5,50.211,93.5,50.25,93.5,50.301v0.01
		c-0.01,0.051-0.01,0.09-0.01,0.141c0,0,0,0.01-0.011,0.01c0,0.039,0,0.09-0.01,0.129v0.021c0,0.039-0.011,0.09-0.011,0.129v0.01
		c0,0.051-0.01,0.102-0.01,0.141c-0.009,0.051-0.009,0.1-0.019,0.141v0.01c0,0.049-0.011,0.09-0.011,0.141v0.01
		c0,0.039-0.01,0.09-0.01,0.131c0,0.008,0,0.008-0.01,0.008c-0.011,0.201-0.041,0.391-0.061,0.58
		c-2.069,18.24-14.73,33.291-31.7,38.93h-0.011c-0.038,0.01-0.079,0.029-0.118,0.041c-0.011,0-0.011,0-0.011,0.01
		c-0.041,0.01-0.08,0.02-0.121,0.029c-0.01,0.01-0.02,0.01-0.028,0.01c-0.041,0.01-0.071,0.029-0.11,0.041
		c-0.011,0-0.021,0-0.031,0.01c-0.028,0.01-0.059,0.02-0.1,0.029c-0.009,0-0.019,0.01-0.029,0.01
		c-0.041,0.012-0.069,0.02-0.11,0.031c-0.011,0.01-0.021,0.01-0.029,0.01c-0.03,0.01-0.062,0.02-0.1,0.029
		c-0.011,0.01-0.031,0.01-0.041,0.02c-0.029,0.01-0.06,0.021-0.091,0.031c-0.019,0-0.039,0.01-0.059,0.01
		c-0.021,0.01-0.05,0.02-0.07,0.029c-0.03,0-0.051,0.01-0.069,0.021c-0.021,0-0.052,0.008-0.07,0.02
		c-0.021,0.012-0.051,0.012-0.081,0.02c-0.019,0.01-0.029,0.01-0.05,0.02c-0.03,0.01-0.06,0.021-0.09,0.021
		c-0.021,0.008-0.029,0.008-0.05,0.02c-0.03,0.01-0.061,0.02-0.09,0.029c-0.021,0-0.03,0-0.041,0.01
		c-0.039,0.012-0.08,0.02-0.108,0.029c-0.011,0-0.021,0-0.03,0.012c-0.041,0.01-0.08,0.02-0.121,0.029c0,0-0.009,0-0.009,0.01
		c-0.041,0.01-0.09,0.02-0.131,0.029l-0.011,0.01C55.82,92.531,51.81,93.141,47.67,93.209"/>
	<rect x="46.821" y="25.39" fill="#6D6577" width="20.029" height="26.67"/>
	<path fill="#D8D8D8" d="M68.34,71.85h-0.03L46.82,71.84V58.98h17.85c2.64,0,5.369,2.07,6.101,4.609l1.028,3.66
		C72.521,69.781,70.949,71.85,68.34,71.85"/>
	<path fill="#D8D8D8" d="M68.86,56.09H46.821v-4.029H66.85V25.39H46.821v-4.02H68.86c1.108,0,2.01,0.899,2.01,2.01v30.692
		C70.87,55.189,69.969,56.09,68.86,56.09"/>
</g>
</svg>
