<?xml version="1.0" encoding="utf-8"?>
<!-- Generator: Adobe Illustrator 16.0.0, SVG Export Plug-In . SVG Version: 6.00 Build 0)  -->
<!DOCTYPE svg PUBLIC "-//W3C//DTD SVG 1.1//EN" "http://www.w3.org/Graphics/SVG/1.1/DTD/svg11.dtd">
<svg version="1.1" id="Layer_1" xmlns="http://www.w3.org/2000/svg" xmlns:xlink="http://www.w3.org/1999/xlink" x="0px" y="0px"
	 width="93.64px" height="93.218px" viewBox="0 0 93.64 93.218" enable-background="new 0 0 93.64 93.218" xml:space="preserve">
<g>
	<path fill="#A3F073" d="M91.644,46.621c0,24.629-20.068,44.6-44.826,44.6C22.066,91.221,2,71.25,2,46.621
		C2,21.971,22.066,2,46.817,2C71.575,2,91.644,21.971,91.644,46.621"/>
	<path fill="#FFFFFF" d="M91.644,46.621h-2.003c0,11.76-4.786,22.399-12.538,30.12c-7.755,7.709-18.451,12.48-30.285,12.48
		c-11.832,0-22.524-4.771-30.279-12.48C8.788,69.02,4,58.381,4,46.621c0-11.771,4.788-22.419,12.538-30.13
		C24.293,8.771,34.985,4,46.817,4c11.834,0,22.53,4.771,30.285,12.49c7.75,7.721,12.538,18.359,12.538,30.13H91.644h1.997
		C93.641,20.861,72.672,0,46.817,0C20.969,0,0.002,20.861,0,46.621c0.002,25.739,20.969,46.6,46.817,46.6
		c25.854,0,46.821-20.861,46.823-46.6H91.644"/>
	<path fill="#DEDEDE" d="M93.642,46.621h-1.998h-2.002c0,11.76-4.787,22.399-12.539,30.12c-7.569,7.529-17.937,12.25-29.43,12.469v4
		C73.132,92.76,93.64,72.08,93.642,46.621 M47.673,0.01v4c11.493,0.23,21.86,4.95,29.43,12.48c7.75,7.72,12.539,18.359,12.539,30.13
		h2.002h1.998C93.642,21.151,73.132,0.471,47.673,0.01"/>
	<path fill="#FFFFFF" d="M4.299,47.891h14.607c0.715,0,1.316-0.589,1.4-1.37l1.611-14.86c0.182-0.689,0.75-1.17,1.43-1.189
		c0.641,0,1.211,0.459,1.412,1.119l3.785,30.031l0.039,0.209c0.514,2.051,2.223,3.48,4.229,3.48c1.968-0.041,3.66-1.541,4.119-3.65
		l0.03-0.17l3.232-29.83c0.182-0.689,0.752-1.17,1.432-1.189c0.642,0,1.211,0.459,1.412,1.119l3.78,30.031l0.039,0.209
		c0.519,2.051,2.228,3.48,4.231,3.48c1.968-0.041,3.66-1.541,4.117-3.65l0.03-0.17l3.234-29.83c0.18-0.689,0.75-1.17,1.433-1.189
		c0.641,0,1.211,0.459,1.413,1.119l3.783,30.041l0.035,0.199c0.518,2.051,2.228,3.48,4.228,3.48c1.969-0.041,3.665-1.541,4.122-3.65
		l0.031-0.17l1.472-13.6h13.354c0.781,0,1.414-0.689,1.414-1.55c0-0.869-0.633-1.559-1.414-1.559H73.735
		c-0.717,0-1.315,0.59-1.403,1.369l-1.61,14.859c-0.181,0.691-0.748,1.17-1.431,1.18c-0.64,0-1.211-0.449-1.412-1.109l-3.782-30.029
		L64.06,30.84c-0.519-2.049-2.228-3.479-4.235-3.479c-1.966,0.04-3.658,1.54-4.115,3.65l-0.028,0.17L52.444,61.01
		c-0.182,0.691-0.75,1.17-1.43,1.18c-0.64,0-1.209-0.449-1.41-1.119l-3.785-30.019l-0.036-0.211
		c-0.517-2.049-2.226-3.479-4.234-3.479c-1.967,0.04-3.657,1.54-4.116,3.64l-0.029,0.181L34.17,61.01
		c-0.18,0.691-0.75,1.17-1.432,1.18c-0.641,0-1.209-0.449-1.41-1.109l-3.785-30.039l-0.037-0.201
		c-0.518-2.049-2.227-3.479-4.233-3.479c-1.968,0.04-3.659,1.54-4.118,3.64l-0.029,0.181l-1.472,13.59H4.299
		c-0.776,0-1.412,0.7-1.412,1.56C2.887,47.191,3.521,47.891,4.299,47.891"/>
	<path fill="#7BB257" d="M47.513,89.221v-25.9c0.799,1.219,2.108,1.99,3.578,1.99c1.967-0.041,3.659-1.541,4.116-3.65l0.029-0.17
		l3.235-29.83c0.179-0.689,0.75-1.17,1.433-1.189c0.642,0,1.211,0.459,1.412,1.119l3.784,30.041l0.035,0.199
		c0.517,2.051,2.228,3.48,4.228,3.48c1.969-0.041,3.664-1.541,4.121-3.65l0.032-0.17l1.472-13.6h13.354
		c0.58,0,1.078-0.379,1.297-0.93C89.548,58.59,84.779,69.1,77.103,76.74c-5.071,5.041-11.399,8.83-18.481,10.84
		c-0.021,0.01-0.041,0.021-0.062,0.021c-0.053,0.018-0.104,0.029-0.157,0.039c-0.031,0.01-0.063,0.02-0.097,0.029
		c-0.043,0.01-0.088,0.031-0.133,0.039c-0.039,0.012-0.08,0.021-0.119,0.031c-0.043,0.01-0.088,0.02-0.131,0.041
		c-0.041,0.008-0.082,0.02-0.121,0.029c-0.043,0.01-0.084,0.02-0.127,0.029s-0.086,0.02-0.129,0.029
		c-0.039,0.012-0.08,0.021-0.119,0.031c-0.045,0.02-0.093,0.029-0.136,0.039c-0.038,0.01-0.073,0.02-0.11,0.031
		c-0.049,0.01-0.099,0.02-0.147,0.029c-0.035,0.01-0.069,0.02-0.106,0.031c-0.049,0.008-0.099,0.02-0.149,0.029
		c-0.033,0.01-0.068,0.02-0.104,0.029c-0.05,0.01-0.101,0.02-0.151,0.029c-0.035,0.012-0.068,0.021-0.104,0.031
		c-0.051,0.01-0.104,0.02-0.153,0.029c-0.034,0.01-0.067,0.021-0.101,0.021c-0.053,0.02-0.104,0.029-0.157,0.039
		c-0.035,0.01-0.07,0.01-0.104,0.02c-0.05,0.01-0.101,0.021-0.152,0.029c-0.036,0.012-0.071,0.021-0.108,0.031
		c-0.049,0.01-0.099,0.02-0.146,0.031c-0.039,0-0.08,0.008-0.118,0.018c-0.048,0.012-0.095,0.021-0.142,0.031
		c-0.037,0.01-0.076,0.01-0.113,0.02c-0.049,0.01-0.1,0.02-0.147,0.029c-0.038,0.01-0.077,0.01-0.116,0.021
		c-0.047,0.01-0.093,0.02-0.142,0.029c-0.039,0.01-0.078,0.01-0.117,0.02c-0.047,0.012-0.094,0.02-0.142,0.031
		c-0.041,0-0.081,0.01-0.122,0.02c-0.048,0.01-0.093,0.01-0.138,0.02c-0.041,0.01-0.082,0.02-0.123,0.02
		c-0.045,0.01-0.094,0.021-0.139,0.031c-0.042,0-0.085,0.01-0.128,0.02c-0.043,0-0.084,0.01-0.129,0.02
		c-0.043,0-0.09,0.01-0.135,0.021c-0.039,0.008-0.082,0.008-0.123,0.02c-0.048,0.01-0.097,0.01-0.146,0.02
		c-0.037,0.01-0.076,0.01-0.113,0.02c-0.049,0-0.1,0.01-0.147,0.021c-0.037,0-0.077,0.008-0.114,0.008
		c-0.05,0.012-0.103,0.021-0.154,0.031c-0.032,0-0.065,0.01-0.102,0.01c-0.054,0.01-0.109,0.02-0.166,0.02
		c-0.029,0.01-0.06,0.01-0.089,0.01c-0.06,0.01-0.12,0.021-0.178,0.031c-0.027,0-0.052,0-0.078,0.01c-0.063,0-0.125,0.01-0.187,0.02
		c-0.022,0-0.049,0-0.071,0.01c-0.066,0.01-0.136,0.01-0.201,0.02c-0.017,0-0.03,0-0.043,0.01c-0.076,0-0.151,0.012-0.226,0.021
		h-0.024c-1.224,0.129-2.461,0.209-3.711,0.229C47.619,89.209,47.564,89.221,47.513,89.221 M69.291,62.189
		c-0.641,0-1.211-0.449-1.411-1.109l-3.783-30.029L64.06,30.84c-0.519-2.05-2.228-3.479-4.235-3.479
		c-1.967,0.04-3.658,1.54-4.115,3.65l-0.028,0.17L52.443,61.01c-0.181,0.691-0.75,1.17-1.429,1.18c-0.64,0-1.209-0.449-1.41-1.119
		l-2.092-16.589V4.011h0.16c10.056,0.199,19.252,3.839,26.463,9.79h0.002c0.063,0.049,0.127,0.109,0.19,0.159h0.002
		c0.063,0.051,0.127,0.111,0.19,0.16h0.001c0.065,0.061,0.125,0.11,0.188,0.161c0.003,0,0.005,0,0.007,0.009
		c0.06,0.05,0.123,0.101,0.183,0.149c0.002,0.011,0.004,0.011,0.006,0.011c0.062,0.05,0.123,0.11,0.185,0.16h0.006
		c0.062,0.06,0.121,0.11,0.181,0.159c0.002,0.012,0.004,0.012,0.006,0.012c0.062,0.049,0.121,0.109,0.185,0.158
		c0.062,0.061,0.123,0.111,0.183,0.171h0.008c0.062,0.06,0.117,0.11,0.178,0.171c0.003,0,0.009,0,0.011,0.009
		c0.058,0.05,0.114,0.101,0.174,0.16c0.003,0,0.009,0.01,0.015,0.01c0.058,0.051,0.112,0.101,0.168,0.16
		c0.004,0,0.008,0.011,0.015,0.011c0.055,0.05,0.112,0.109,0.168,0.159c0.004,0,0.01,0.011,0.013,0.011
		c0.057,0.06,0.112,0.109,0.166,0.159c0.012,0.011,0.024,0.021,0.034,0.03c0.049,0.05,0.099,0.1,0.147,0.15
		c0.011,0.01,0.021,0.01,0.029,0.02c0.051,0.05,0.1,0.101,0.151,0.15c0.058,0.06,0.118,0.119,0.178,0.18
		c7.546,7.51,12.285,17.8,12.529,29.199c-0.224-0.539-0.716-0.908-1.289-0.908H73.734c-0.716,0-1.313,0.589-1.402,1.369
		l-1.61,14.859C70.541,61.701,69.974,62.18,69.291,62.189"/>
	<path fill="#D8D8D8" d="M47.513,93.221v-4c0.053,0,0.106-0.01,0.159-0.01v4C47.619,93.211,47.565,93.221,47.513,93.221
		 M59.631,91.461c0.004-0.01,0.007-0.01,0.013-0.01C59.638,91.451,59.635,91.451,59.631,91.461 M59.769,91.42
		c0.006-0.01,0.01-0.01,0.015-0.01C59.778,91.41,59.774,91.41,59.769,91.42 M59.905,91.381c0.007-0.01,0.015-0.01,0.022-0.01
		C59.918,91.371,59.912,91.371,59.905,91.381 M60.039,91.34c0.014-0.01,0.024-0.01,0.037-0.01
		C60.065,91.33,60.051,91.33,60.039,91.34 M60.17,91.299c0.019-0.008,0.033-0.008,0.052-0.018
		C60.203,91.291,60.188,91.291,60.17,91.299 M60.312,91.26c0.017-0.01,0.032-0.01,0.049-0.02
		C60.344,91.25,60.328,91.25,60.312,91.26 M60.442,91.219c0.021-0.008,0.043-0.018,0.063-0.018
		C60.485,91.201,60.465,91.211,60.442,91.219 M60.578,91.18c0.024-0.01,0.051-0.02,0.075-0.029
		C60.627,91.16,60.604,91.17,60.578,91.18 M60.705,91.141c0.03-0.01,0.063-0.02,0.092-0.029
		C60.767,91.121,60.738,91.131,60.705,91.141 M60.842,91.09c0.033-0.01,0.066-0.02,0.101-0.029
		C60.908,91.07,60.875,91.08,60.842,91.09 M60.974,91.051c0.032-0.01,0.067-0.02,0.103-0.031
		C61.041,91.031,61.006,91.041,60.974,91.051 M61.112,91.01c0.035-0.01,0.065-0.02,0.101-0.029C61.181,90.99,61.146,91,61.112,91.01
		 M61.244,90.971c0.034-0.01,0.069-0.031,0.104-0.041C61.313,90.951,61.278,90.961,61.244,90.971 M61.381,90.92
		c0.039-0.01,0.078-0.02,0.115-0.031C61.457,90.9,61.42,90.91,61.381,90.92 M61.506,90.881c0.043-0.01,0.086-0.031,0.127-0.041
		C61.59,90.85,61.549,90.871,61.506,90.881 M61.642,90.84c16.974-5.639,29.627-20.689,31.7-38.93
		C91.269,70.16,78.615,85.201,61.642,90.84 M51.383,88.98h0.025H51.383 M51.633,88.961c0.015-0.01,0.027-0.01,0.043-0.01
		C51.662,88.951,51.647,88.951,51.633,88.961 M51.877,88.93c0.024-0.01,0.049-0.01,0.072-0.01
		C51.924,88.92,51.901,88.92,51.877,88.93 M52.135,88.9c0.027-0.01,0.052-0.01,0.078-0.01C52.187,88.891,52.16,88.891,52.135,88.9
		 M52.392,88.861c0.028,0,0.06,0,0.09-0.012C52.451,88.861,52.422,88.861,52.392,88.861 M52.647,88.83
		c0.035,0,0.067-0.01,0.101-0.01C52.715,88.82,52.681,88.83,52.647,88.83 M52.903,88.791c0.037,0,0.076-0.01,0.113-0.01
		C52.979,88.781,52.94,88.791,52.903,88.791 M53.164,88.76c0.037-0.01,0.076-0.01,0.114-0.02C53.24,88.75,53.203,88.75,53.164,88.76
		 M53.422,88.721c0.041-0.01,0.084-0.01,0.123-0.02C53.504,88.711,53.463,88.711,53.422,88.721 M53.681,88.68
		c0.045-0.01,0.086-0.02,0.129-0.02C53.767,88.66,53.724,88.67,53.681,88.68 M53.938,88.639c0.045-0.008,0.093-0.018,0.138-0.029
		C54.03,88.621,53.983,88.631,53.938,88.639 M54.199,88.59c0.045-0.01,0.09-0.01,0.137-0.02C54.289,88.58,54.244,88.58,54.199,88.59
		 M54.459,88.551c0.047-0.01,0.094-0.02,0.142-0.031C54.553,88.531,54.506,88.541,54.459,88.551 M54.717,88.5
		c0.05-0.01,0.097-0.02,0.144-0.029C54.813,88.48,54.767,88.49,54.717,88.5 M54.976,88.451c0.049-0.012,0.099-0.021,0.147-0.031
		C55.074,88.43,55.024,88.439,54.976,88.451 M55.237,88.4c0.046-0.01,0.093-0.02,0.14-0.029C55.33,88.381,55.283,88.391,55.237,88.4
		 M55.496,88.35c0.047-0.01,0.096-0.02,0.146-0.029C55.592,88.33,55.543,88.34,55.496,88.35 M55.75,88.291
		c0.051-0.01,0.103-0.021,0.153-0.031C55.853,88.27,55.801,88.281,55.75,88.291 M56.006,88.24c0.054-0.01,0.106-0.021,0.158-0.039
		C56.112,88.219,56.06,88.23,56.006,88.24 M56.265,88.18c0.051-0.01,0.103-0.02,0.153-0.029C56.365,88.16,56.315,88.17,56.265,88.18
		 M56.522,88.121c0.05-0.01,0.101-0.021,0.149-0.031C56.623,88.1,56.572,88.111,56.522,88.121 M56.778,88.061
		c0.05-0.01,0.099-0.02,0.147-0.029C56.877,88.041,56.828,88.051,56.778,88.061 M57.033,88c0.049-0.01,0.098-0.02,0.147-0.029
		C57.131,87.98,57.082,87.99,57.033,88 M57.291,87.939c0.043-0.01,0.09-0.02,0.135-0.039C57.381,87.92,57.336,87.93,57.291,87.939
		 M57.545,87.871c0.043-0.012,0.086-0.021,0.129-0.031C57.631,87.85,57.588,87.859,57.545,87.871 M57.801,87.811
		c0.039-0.012,0.08-0.02,0.121-0.029C57.881,87.791,57.842,87.799,57.801,87.811 M58.053,87.74c0.039-0.01,0.08-0.02,0.119-0.029
		C58.133,87.721,58.092,87.73,58.053,87.74 M58.306,87.67c0.032-0.01,0.065-0.02,0.098-0.029
		C58.371,87.65,58.338,87.66,58.306,87.67 M58.56,87.6c0.021,0,0.041-0.01,0.062-0.02C58.601,87.59,58.58,87.6,58.56,87.6
		 M93.342,51.91c0.023-0.189,0.043-0.379,0.063-0.58C93.385,51.531,93.365,51.721,93.342,51.91 M93.406,51.32
		c0.004-0.039,0.008-0.09,0.012-0.129C93.414,51.23,93.41,51.281,93.406,51.32 M93.42,51.18c0.004-0.049,0.008-0.088,0.013-0.139
		C93.428,51.092,93.424,51.131,93.42,51.18 M93.435,51.031c0.004-0.041,0.008-0.09,0.013-0.141
		C93.442,50.941,93.438,50.99,93.435,51.031 M93.447,50.891c0.004-0.039,0.008-0.09,0.012-0.141
		C93.455,50.801,93.451,50.852,93.447,50.891 M93.461,50.74c0.004-0.039,0.008-0.09,0.013-0.129
		C93.469,50.65,93.465,50.701,93.461,50.74 M93.474,50.59c0.004-0.039,0.008-0.09,0.012-0.129
		C93.481,50.5,93.478,50.551,93.474,50.59 M93.485,50.451c0.005-0.051,0.007-0.092,0.011-0.141
		C93.492,50.359,93.49,50.4,93.485,50.451 M93.498,50.301c0.002-0.051,0.006-0.09,0.01-0.131
		C93.504,50.211,93.5,50.26,93.498,50.301 M93.51,50.15c0.003-0.049,0.007-0.08,0.009-0.129
		C93.517,50.061,93.513,50.111,93.51,50.15 M93.521,50c0.002-0.039,0.006-0.08,0.008-0.119C93.526,49.92,93.522,49.961,93.521,50
		 M93.531,49.85c0.002-0.039,0.004-0.078,0.008-0.119C93.535,49.771,93.533,49.811,93.531,49.85 M93.541,49.701
		c0.002-0.041,0.004-0.08,0.008-0.121C93.545,49.621,93.543,49.66,93.541,49.701 M93.551,49.551c0.002-0.041,0.005-0.07,0.007-0.109
		C93.556,49.48,93.553,49.51,93.551,49.551 M93.56,49.41l0.006-0.119L93.56,49.41 M93.567,49.25
		c0.002-0.029,0.005-0.068,0.007-0.109C93.572,49.182,93.569,49.221,93.567,49.25 M93.576,49.1c0.002-0.029,0.004-0.068,0.006-0.1
		C93.58,49.031,93.578,49.07,93.576,49.1 M93.584,48.951c0.002-0.031,0.004-0.07,0.004-0.1
		C93.588,48.881,93.586,48.92,93.584,48.951 M93.592,48.791c0-0.031,0.002-0.061,0.005-0.09
		C93.594,48.73,93.592,48.76,93.592,48.791 M93.599,48.641c0.002-0.029,0.002-0.061,0.004-0.09
		C93.601,48.58,93.601,48.611,93.599,48.641 M93.604,48.5c0.002-0.029,0.002-0.059,0.004-0.09
		C93.606,48.441,93.606,48.471,93.604,48.5 M93.61,48.35c0.002-0.029,0.003-0.059,0.003-0.09C93.613,48.291,93.61,48.32,93.61,48.35
		 M93.615,48.201c0-0.031,0.002-0.061,0.004-0.092C93.617,48.141,93.615,48.17,93.615,48.201 M93.619,48.051
		c0.002-0.029,0.002-0.061,0.004-0.09C93.621,47.99,93.621,48.021,93.619,48.051 M93.623,47.91c0.002-0.029,0.002-0.059,0.004-0.1
		C93.625,47.852,93.625,47.881,93.623,47.91 M93.629,47.73c0-0.02,0-0.039,0.002-0.061C93.629,47.691,93.629,47.711,93.629,47.73
		 M93.631,47.58c0.002-0.019,0.002-0.039,0.002-0.07C93.633,47.542,93.633,47.561,93.631,47.58 M93.635,47.461V47.36V47.461
		 M93.638,47.321v-0.1V47.321 M93.64,47.131v-0.061V47.131 M93.642,46.981V46.92V46.981 M93.642,46.862v-0.24V46.862 M93.642,46.622
		L93.642,46.622 M93.642,46.471v-0.03V46.471 M93.642,46.321c0-0.039,0-0.08-0.002-0.119C93.642,46.241,93.642,46.282,93.642,46.321
		 M93.64,46.17v-0.09V46.17 M93.64,46.021c-0.002-0.021-0.002-0.05-0.002-0.069C93.638,45.971,93.638,45.991,93.64,46.021
		 M93.635,45.872V45.8V45.872 M93.633,45.721c0-0.03,0-0.061-0.002-0.09C93.633,45.661,93.633,45.691,93.633,45.721 M93.631,45.571
		c-0.002-0.029-0.002-0.05-0.002-0.08C93.629,45.521,93.629,45.542,93.631,45.571 M93.627,45.42c0-0.02-0.002-0.039-0.002-0.059
		C93.625,45.381,93.627,45.401,93.627,45.42 M93.623,45.271c0-0.021-0.002-0.04-0.002-0.05
		C93.621,45.231,93.623,45.25,93.623,45.271 M93.619,45.122c-0.002-0.021-0.002-0.041-0.004-0.07
		C93.617,45.081,93.617,45.101,93.619,45.122 M93.613,44.971c0-0.02-0.001-0.051-0.003-0.07
		C93.612,44.92,93.613,44.952,93.613,44.971 M93.608,44.831c-0.002-0.03-0.002-0.06-0.004-0.08
		C93.606,44.782,93.606,44.8,93.608,44.831 M93.603,44.67c-0.002-0.02-0.002-0.039-0.004-0.059
		C93.601,44.631,93.601,44.651,93.603,44.67 M93.597,44.532c-0.003-0.031-0.003-0.051-0.005-0.08
		C93.594,44.481,93.594,44.5,93.597,44.532 M93.588,44.381c0-0.03-0.002-0.051-0.004-0.081
		C93.586,44.331,93.588,44.351,93.588,44.381 M93.582,44.231c-0.002-0.029-0.004-0.051-0.004-0.08
		C93.578,44.18,93.58,44.202,93.582,44.231 M93.574,44.081c-0.002-0.029-0.003-0.06-0.005-0.09
		C93.571,44.021,93.572,44.051,93.574,44.081 M93.565,43.941c-0.002-0.03-0.004-0.069-0.006-0.101
		C93.562,43.872,93.563,43.911,93.565,43.941 M93.558,43.792c-0.002-0.031-0.005-0.061-0.007-0.101
		C93.553,43.731,93.556,43.76,93.558,43.792 M93.549,43.651c-0.004-0.041-0.006-0.07-0.008-0.1
		C93.545,43.581,93.545,43.61,93.549,43.651 M93.539,43.491c-0.002-0.029-0.004-0.05-0.006-0.08
		C93.535,43.441,93.537,43.471,93.539,43.491 M93.528,43.351c-0.002-0.03-0.004-0.06-0.006-0.091
		C93.524,43.292,93.526,43.321,93.528,43.351 M93.519,43.202c-0.002-0.031-0.004-0.051-0.006-0.08
		C93.515,43.141,93.517,43.17,93.519,43.202 M93.506,43.051c-0.002-0.03-0.004-0.061-0.006-0.08
		C93.502,42.991,93.504,43.021,93.506,43.051 M93.496,42.901c-0.002-0.02-0.006-0.05-0.008-0.08
		C93.49,42.851,93.494,42.881,93.496,42.901 M93.483,42.76c-0.002-0.029-0.004-0.049-0.006-0.08
		C93.479,42.711,93.481,42.731,93.483,42.76 M93.472,42.612c-0.003-0.031-0.005-0.051-0.007-0.07
		C93.467,42.561,93.469,42.581,93.472,42.612 M93.459,42.461c-0.004-0.021-0.006-0.051-0.008-0.08
		C93.453,42.411,93.455,42.441,93.459,42.461 M93.444,42.311c-0.002-0.02-0.004-0.051-0.006-0.07
		C93.44,42.26,93.442,42.292,93.444,42.311 M93.433,42.17c-0.005-0.03-0.007-0.061-0.009-0.079
		C93.426,42.11,93.428,42.14,93.433,42.17 M93.418,42.032c-0.004-0.031-0.006-0.061-0.008-0.091
		C93.412,41.971,93.414,42,93.418,42.032 M93.403,41.881c-0.004-0.03-0.006-0.061-0.01-0.09
		C93.397,41.821,93.399,41.851,93.403,41.881 M93.388,41.741c-0.003-0.029-0.007-0.06-0.009-0.09
		C93.381,41.681,93.385,41.711,93.388,41.741 M93.373,41.59c-0.004-0.029-0.008-0.059-0.01-0.09
		C93.365,41.532,93.369,41.561,93.373,41.59 M93.356,41.441c-0.002-0.03-0.006-0.051-0.01-0.081
		C93.351,41.381,93.354,41.42,93.356,41.441 M93.34,41.3c-0.004-0.029-0.006-0.06-0.01-0.089
		C93.334,41.241,93.336,41.271,93.34,41.3 M93.324,41.151c-0.005-0.029-0.007-0.061-0.011-0.09
		C93.317,41.09,93.319,41.122,93.324,41.151 M93.308,41.01c-0.005-0.029-0.009-0.059-0.013-0.09
		C93.299,40.952,93.303,40.981,93.308,41.01 M93.289,40.862c-0.004-0.031-0.008-0.062-0.011-0.091
		C93.281,40.8,93.285,40.831,93.289,40.862 M93.271,40.721c-0.004-0.03-0.008-0.061-0.013-0.1
		C93.263,40.661,93.267,40.691,93.271,40.721 M93.252,40.571c-0.004-0.029-0.008-0.05-0.012-0.08
		C93.244,40.521,93.248,40.551,93.252,40.571 M93.233,40.43c-0.004-0.029-0.008-0.059-0.012-0.09
		C93.226,40.372,93.229,40.401,93.233,40.43 M93.213,40.292c-0.004-0.041-0.008-0.061-0.012-0.101
		C93.205,40.22,93.209,40.26,93.213,40.292 M93.194,40.141c-0.006-0.029-0.01-0.061-0.014-0.09
		C93.185,40.081,93.188,40.112,93.194,40.141 M93.174,40c-0.006-0.029-0.01-0.06-0.014-0.1C93.164,39.941,93.168,39.971,93.174,40
		 M93.153,39.86c-0.006-0.039-0.01-0.068-0.014-0.1C93.144,39.792,93.147,39.821,93.153,39.86 M93.131,39.711
		c-0.004-0.031-0.01-0.061-0.014-0.09C93.121,39.651,93.127,39.68,93.131,39.711 M93.11,39.571c-0.006-0.039-0.01-0.07-0.017-0.101
		C93.101,39.5,93.104,39.532,93.11,39.571 M93.088,39.431c-0.006-0.04-0.01-0.069-0.016-0.101
		C93.078,39.362,93.082,39.391,93.088,39.431 M93.065,39.282c-0.006-0.031-0.01-0.07-0.017-0.102
		C93.056,39.211,93.062,39.25,93.065,39.282 M93.043,39.14c-0.006-0.03-0.012-0.069-0.017-0.099
		C93.031,39.071,93.037,39.11,93.043,39.14 M93.019,39c-0.004-0.039-0.011-0.07-0.017-0.109C93.008,38.93,93.015,38.961,93.019,39
		 M92.996,38.862c-0.006-0.041-0.013-0.07-0.019-0.111C92.983,38.792,92.99,38.821,92.996,38.862 M92.972,38.711
		c-0.007-0.03-0.013-0.07-0.019-0.1C92.959,38.641,92.965,38.681,92.972,38.711 M92.947,38.571c-0.007-0.029-0.013-0.07-0.02-0.1
		C92.935,38.5,92.94,38.542,92.947,38.571 M92.922,38.43c-0.006-0.04-0.014-0.079-0.021-0.109
		C92.908,38.351,92.916,38.39,92.922,38.43 M92.899,38.3c-0.008-0.04-0.017-0.079-0.024-0.12
		C92.883,38.221,92.892,38.26,92.899,38.3 M92.871,38.151c-0.008-0.039-0.015-0.08-0.021-0.119
		C92.856,38.071,92.865,38.112,92.871,38.151 M92.847,38.01c-0.009-0.04-0.017-0.079-0.024-0.119
		C92.83,37.931,92.838,37.97,92.847,38.01 M92.819,37.872c-0.008-0.041-0.017-0.08-0.024-0.131
		C92.803,37.792,92.812,37.831,92.819,37.872 M92.793,37.741c-0.008-0.039-0.017-0.09-0.024-0.131
		C92.776,37.651,92.785,37.702,92.793,37.741 M92.765,37.591c-0.009-0.04-0.017-0.081-0.026-0.13
		C92.748,37.51,92.756,37.551,92.765,37.591 M92.738,37.461c-0.009-0.051-0.017-0.09-0.027-0.141
		C92.722,37.372,92.729,37.411,92.738,37.461 M92.709,37.311c-0.019-0.091-0.037-0.18-0.056-0.27
		C92.672,37.131,92.69,37.22,92.709,37.311 M92.651,37.042c-3.073-14.65-13.051-26.771-26.389-32.84
		C79.601,10.271,89.578,22.391,92.651,37.042 M77.103,16.491c-0.06-0.061-0.119-0.119-0.179-0.18
		C76.983,16.372,77.043,16.43,77.103,16.491 M76.774,16.161c-0.01-0.01-0.021-0.01-0.03-0.02
		C76.754,16.151,76.765,16.151,76.774,16.161 M76.597,15.991c-0.011-0.01-0.022-0.02-0.033-0.029
		C76.574,15.971,76.584,15.981,76.597,15.991 M76.397,15.8c-0.004,0-0.01-0.009-0.015-0.009C76.388,15.792,76.394,15.8,76.397,15.8
		 M76.215,15.631c-0.006,0-0.01-0.01-0.014-0.01C76.205,15.622,76.209,15.631,76.215,15.631 M76.033,15.461
		c-0.005,0-0.011-0.01-0.015-0.01C76.022,15.452,76.028,15.461,76.033,15.461 M75.844,15.292c-0.002-0.01-0.008-0.01-0.01-0.01
		C75.838,15.282,75.84,15.282,75.844,15.292 M75.656,15.11h-0.007H75.656 M75.465,14.941L75.465,14.941 M75.281,14.782
		c0,0-0.003,0-0.005-0.011C75.278,14.782,75.28,14.782,75.281,14.782 M75.094,14.612h-0.006H75.094 M74.905,14.452
		c-0.002,0-0.004,0-0.006-0.011C74.901,14.452,74.903,14.452,74.905,14.452 M74.715,14.292c-0.002-0.01-0.004-0.01-0.006-0.01
		C74.711,14.282,74.713,14.282,74.715,14.292 M74.522,14.122h-0.002H74.522 M74.33,13.961h-0.002H74.33 M74.138,13.8h-0.003H74.138
		 M66.231,4.191c-0.035-0.021-0.069-0.03-0.104-0.05C66.162,4.161,66.196,4.17,66.231,4.191 M66.106,4.131
		c-0.034-0.01-0.067-0.031-0.101-0.041C66.039,4.1,66.074,4.122,66.106,4.131 M65.974,4.071c-0.029-0.01-0.063-0.029-0.095-0.039
		C65.91,4.042,65.942,4.061,65.974,4.071 M65.847,4.01c-0.031-0.01-0.063-0.02-0.095-0.039C65.783,3.991,65.815,4,65.847,4.01
		 M47.672,4.01h-0.159v-4h0.159V4.01z M65.715,3.961c-0.03-0.021-0.062-0.031-0.092-0.041C65.653,3.93,65.685,3.941,65.715,3.961
		 M65.586,3.901C65.56,3.89,65.53,3.881,65.502,3.86C65.528,3.881,65.56,3.89,65.586,3.901 M65.453,3.841
		c-0.025-0.011-0.047-0.021-0.072-0.03C65.406,3.821,65.428,3.831,65.453,3.841 M65.321,3.792c-0.021-0.01-0.043-0.021-0.063-0.031
		C65.278,3.771,65.299,3.782,65.321,3.792 M65.187,3.731c-0.021-0.01-0.039-0.02-0.06-0.029C65.147,3.711,65.166,3.721,65.187,3.731
		 M65.06,3.67c-0.022-0.01-0.043-0.01-0.065-0.02C65.017,3.661,65.037,3.661,65.06,3.67 M64.931,3.622
		c-0.024-0.01-0.046-0.021-0.067-0.031C64.885,3.601,64.908,3.612,64.931,3.622 M64.797,3.561c-0.019,0-0.037-0.01-0.057-0.02
		C64.758,3.551,64.778,3.561,64.797,3.561 M64.662,3.51c-0.017-0.01-0.035-0.02-0.052-0.02C64.627,3.491,64.646,3.5,64.662,3.51
		 M64.531,3.452c-0.017,0-0.029-0.011-0.046-0.011C64.5,3.441,64.515,3.452,64.531,3.452 M64.396,3.401
		c-0.015-0.01-0.026-0.01-0.037-0.01C64.369,3.391,64.381,3.391,64.396,3.401 M64.263,3.35c-0.013-0.01-0.024-0.01-0.035-0.02
		C64.238,3.34,64.25,3.34,64.263,3.35 M64.131,3.292c-0.012,0-0.024-0.01-0.039-0.01C64.106,3.282,64.119,3.292,64.131,3.292
		 M63.994,3.241c-0.009,0-0.017-0.01-0.027-0.01C63.978,3.231,63.985,3.241,63.994,3.241 M63.86,3.191
		c-0.008,0-0.017-0.011-0.024-0.011C63.844,3.18,63.853,3.191,63.86,3.191 M63.728,3.14c-0.009-0.009-0.017-0.009-0.024-0.009
		C63.711,3.131,63.719,3.131,63.728,3.14 M63.594,3.091c-0.006-0.011-0.016-0.011-0.022-0.011
		C63.578,3.081,63.588,3.081,63.594,3.091 M63.455,3.032h-0.011H63.455 M63.322,2.981h-0.011H63.322 M63.187,2.93h-0.006H63.187
		 M63.051,2.881h-0.004H63.051"/>
	<path fill="#C8C8C8" d="M47.673,93.209L47.673,93.209v-4c1.25-0.02,2.487-0.1,3.711-0.229h0.024
		c0.075-0.01,0.149-0.021,0.226-0.021c0.014-0.01,0.028-0.01,0.043-0.01c0.065-0.01,0.135-0.01,0.2-0.02
		c0.024-0.01,0.048-0.01,0.072-0.01c0.062-0.01,0.123-0.02,0.187-0.02c0.024-0.01,0.051-0.01,0.077-0.01
		c0.06-0.01,0.119-0.021,0.179-0.031c0.031,0,0.06,0,0.09-0.01c0.056,0,0.111-0.01,0.166-0.02c0.033,0,0.068-0.01,0.101-0.01
		c0.052-0.01,0.104-0.02,0.154-0.031c0.038,0,0.077-0.008,0.114-0.008c0.049-0.012,0.099-0.021,0.147-0.021
		c0.039-0.01,0.076-0.01,0.113-0.02c0.049-0.01,0.098-0.01,0.146-0.02c0.04-0.012,0.081-0.012,0.122-0.02
		c0.046-0.012,0.093-0.021,0.136-0.021c0.043-0.01,0.086-0.02,0.129-0.02c0.043-0.01,0.086-0.02,0.129-0.02
		c0.045-0.01,0.091-0.021,0.138-0.031c0.041,0,0.082-0.01,0.123-0.02c0.045-0.01,0.09-0.01,0.137-0.02
		c0.041-0.01,0.082-0.02,0.123-0.02c0.048-0.012,0.095-0.02,0.142-0.031c0.039-0.01,0.078-0.01,0.117-0.02
		c0.049-0.01,0.096-0.02,0.142-0.029c0.04-0.012,0.079-0.012,0.116-0.021c0.049-0.01,0.099-0.02,0.147-0.029
		c0.037-0.01,0.076-0.01,0.113-0.02c0.047-0.01,0.094-0.02,0.141-0.031c0.039-0.01,0.08-0.018,0.119-0.018
		c0.047-0.012,0.097-0.021,0.146-0.031c0.037-0.01,0.071-0.02,0.108-0.031c0.052-0.008,0.103-0.02,0.152-0.029
		c0.034-0.01,0.069-0.01,0.104-0.02c0.053-0.008,0.104-0.02,0.157-0.039c0.033,0,0.067-0.012,0.101-0.021
		c0.051-0.01,0.101-0.02,0.153-0.029c0.035-0.01,0.068-0.02,0.104-0.031c0.05-0.01,0.101-0.02,0.15-0.029
		c0.036-0.01,0.071-0.02,0.104-0.029c0.051-0.01,0.1-0.021,0.149-0.029c0.036-0.012,0.071-0.021,0.106-0.031
		c0.049-0.01,0.099-0.02,0.147-0.029c0.037-0.012,0.071-0.021,0.11-0.031c0.045-0.01,0.091-0.02,0.136-0.039
		c0.039-0.01,0.08-0.02,0.118-0.031c0.043-0.01,0.087-0.02,0.13-0.029s0.084-0.02,0.127-0.029c0.041-0.01,0.08-0.021,0.121-0.029
		c0.043-0.021,0.088-0.031,0.131-0.041c0.039-0.008,0.08-0.02,0.119-0.031c0.045-0.008,0.09-0.029,0.133-0.039
		c0.032-0.01,0.065-0.02,0.097-0.029c0.053-0.01,0.104-0.021,0.157-0.039c0.021,0,0.041-0.012,0.062-0.021
		c7.082-2.01,13.41-5.799,18.481-10.84C84.779,69.1,89.548,58.59,89.64,46.96c0.076-0.19,0.117-0.399,0.117-0.62
		c0-0.229-0.046-0.449-0.125-0.649c-0.244-11.4-4.982-21.69-12.529-29.2c-0.06-0.061-0.119-0.12-0.178-0.18
		c-0.052-0.05-0.101-0.101-0.15-0.15c-0.01-0.01-0.021-0.01-0.03-0.02c-0.049-0.051-0.099-0.101-0.147-0.15
		c-0.013-0.01-0.022-0.02-0.033-0.03c-0.055-0.05-0.11-0.1-0.166-0.159c-0.004,0-0.01-0.011-0.014-0.011
		c-0.056-0.05-0.113-0.109-0.168-0.159c-0.007,0-0.011-0.011-0.015-0.011c-0.056-0.06-0.11-0.109-0.168-0.16
		c-0.006,0-0.011-0.01-0.015-0.01c-0.06-0.06-0.116-0.11-0.174-0.16c-0.004-0.009-0.007-0.009-0.011-0.009
		c-0.06-0.061-0.116-0.111-0.178-0.171h-0.007c-0.062-0.06-0.122-0.11-0.184-0.17c-0.063-0.05-0.123-0.11-0.185-0.159
		c-0.002,0-0.004,0-0.005-0.012c-0.061-0.049-0.12-0.1-0.182-0.159h-0.007c-0.061-0.05-0.122-0.11-0.184-0.16
		c-0.002,0-0.003,0-0.005-0.01c-0.062-0.05-0.123-0.101-0.184-0.15c-0.003-0.009-0.005-0.009-0.007-0.009
		c-0.062-0.049-0.123-0.101-0.187-0.161h-0.002c-0.063-0.049-0.127-0.109-0.19-0.16h-0.002c-0.063-0.05-0.127-0.11-0.19-0.159
		h-0.002C66.925,7.85,57.729,4.21,47.673,4.011v-4c5.396,0.1,10.569,1.1,15.375,2.87h0.004c0.043,0.02,0.086,0.029,0.129,0.049
		h0.006c0.041,0.021,0.084,0.03,0.125,0.052h0.011c0.041,0.019,0.08,0.029,0.121,0.05h0.012c0.039,0.02,0.078,0.029,0.115,0.049
		c0.008,0,0.018,0,0.024,0.01c0.037,0.01,0.071,0.021,0.108,0.041c0.008,0,0.017,0,0.024,0.01c0.035,0.01,0.074,0.02,0.108,0.04
		c0.009,0,0.017,0.01,0.023,0.01c0.038,0.011,0.073,0.03,0.108,0.04c0.01,0,0.017,0.01,0.026,0.01
		c0.033,0.01,0.065,0.029,0.099,0.041c0.014,0,0.026,0.009,0.039,0.009c0.03,0.021,0.062,0.031,0.096,0.04
		c0.011,0.01,0.022,0.01,0.035,0.02c0.03,0.011,0.063,0.021,0.096,0.041c0.011,0,0.023,0,0.037,0.01
		c0.029,0.01,0.06,0.02,0.089,0.04c0.018,0,0.03,0.01,0.047,0.01c0.024,0.021,0.053,0.031,0.078,0.04
		c0.018,0,0.036,0.01,0.053,0.021c0.026,0.009,0.054,0.021,0.078,0.029c0.021,0.011,0.037,0.021,0.058,0.021
		c0.02,0.011,0.043,0.02,0.065,0.029c0.022,0.012,0.043,0.021,0.067,0.03c0.019,0.011,0.043,0.021,0.063,0.03
		c0.022,0.01,0.043,0.01,0.065,0.02c0.021,0.011,0.047,0.021,0.067,0.031c0.021,0.009,0.039,0.02,0.06,0.031
		c0.024,0.008,0.048,0.018,0.072,0.028c0.019,0.009,0.043,0.021,0.062,0.029c0.021,0,0.041,0.011,0.062,0.021
		c0.024,0.011,0.047,0.02,0.071,0.029c0.017,0.01,0.031,0.021,0.049,0.021c0.027,0.021,0.058,0.03,0.084,0.04
		c0.013,0.01,0.023,0.01,0.037,0.02c0.029,0.01,0.062,0.021,0.093,0.04c0.012,0,0.024,0.011,0.036,0.011
		c0.031,0.02,0.063,0.029,0.095,0.04c0.012,0.009,0.021,0.009,0.032,0.021c0.031,0.009,0.064,0.029,0.095,0.04
		c0.011,0.009,0.022,0.009,0.033,0.019c0.032,0.01,0.065,0.03,0.1,0.041c0.007,0,0.013,0.01,0.021,0.01
		c0.035,0.02,0.068,0.029,0.104,0.05c0.011,0,0.021,0.011,0.031,0.011c13.338,6.068,23.315,18.189,26.389,32.839h0.001
		c0.021,0.091,0.038,0.181,0.057,0.271c0,0.011,0.002,0.011,0.002,0.011c0.011,0.049,0.019,0.089,0.027,0.139
		c0.01,0.051,0.019,0.091,0.026,0.13l0.004,0.021c0.008,0.04,0.017,0.091,0.024,0.13h0.002c0.009,0.05,0.017,0.09,0.023,0.13
		c0.002,0.011,0.004,0.021,0.004,0.021c0.008,0.039,0.016,0.08,0.024,0.12c0,0.009,0.002,0.021,0.004,0.021
		c0.006,0.04,0.013,0.079,0.021,0.119c0.002,0.01,0.004,0.02,0.004,0.03c0.009,0.04,0.017,0.08,0.024,0.12
		c0,0,0.002,0.01,0.002,0.021c0.007,0.028,0.015,0.069,0.021,0.108c0.002,0.011,0.004,0.021,0.006,0.041
		c0.006,0.029,0.012,0.069,0.019,0.101c0.002,0.009,0.004,0.028,0.006,0.039c0.006,0.03,0.013,0.07,0.019,0.1
		c0.002,0.022,0.004,0.03,0.006,0.04c0.006,0.04,0.013,0.071,0.019,0.11c0.002,0.01,0.004,0.021,0.006,0.03
		c0.007,0.039,0.013,0.069,0.017,0.109c0.004,0.011,0.006,0.031,0.008,0.04c0.005,0.031,0.011,0.07,0.017,0.101
		c0.002,0.01,0.005,0.029,0.007,0.04c0.006,0.029,0.01,0.069,0.016,0.101c0.002,0.02,0.005,0.029,0.007,0.049
		c0.006,0.03,0.01,0.061,0.016,0.1c0.003,0.011,0.005,0.021,0.007,0.041c0.006,0.029,0.01,0.061,0.016,0.101
		c0.003,0.009,0.005,0.03,0.007,0.049c0.004,0.03,0.01,0.061,0.015,0.09c0.002,0.022,0.004,0.03,0.008,0.051
		c0.004,0.029,0.008,0.061,0.013,0.1c0.002,0.01,0.006,0.03,0.008,0.04c0.004,0.04,0.008,0.07,0.015,0.1
		c0.002,0.011,0.004,0.031,0.006,0.051c0.004,0.029,0.008,0.06,0.013,0.09c0.002,0.02,0.006,0.04,0.008,0.05
		c0.004,0.042,0.008,0.06,0.012,0.1c0.003,0.011,0.007,0.031,0.009,0.05c0.004,0.03,0.008,0.061,0.012,0.09
		c0.002,0.021,0.005,0.041,0.007,0.061c0.004,0.029,0.008,0.05,0.012,0.081c0.002,0.019,0.005,0.039,0.007,0.049
		c0.004,0.04,0.008,0.07,0.012,0.101c0.002,0.02,0.004,0.029,0.007,0.049c0.004,0.031,0.008,0.061,0.012,0.091l0.006,0.06
		c0.005,0.03,0.009,0.062,0.013,0.091c0.002,0.021,0.004,0.04,0.006,0.05c0.004,0.029,0.005,0.06,0.011,0.09
		c0.002,0.02,0.004,0.04,0.006,0.06c0.004,0.03,0.006,0.06,0.011,0.091c0.002,0.021,0.004,0.039,0.006,0.06
		c0.004,0.03,0.008,0.05,0.01,0.08c0.002,0.02,0.004,0.04,0.007,0.06c0.002,0.031,0.006,0.061,0.01,0.09
		c0.002,0.021,0.004,0.041,0.006,0.061c0.003,0.03,0.007,0.06,0.009,0.09c0.002,0.01,0.004,0.029,0.006,0.05
		c0.004,0.031,0.006,0.062,0.009,0.091c0.002,0.02,0.004,0.039,0.008,0.06c0.002,0.03,0.004,0.06,0.008,0.091
		c0.002,0.02,0.005,0.04,0.007,0.059c0.002,0.021,0.004,0.051,0.008,0.08c0.002,0.021,0.004,0.051,0.006,0.07
		c0.002,0.021,0.004,0.05,0.005,0.07c0.004,0.029,0.006,0.05,0.008,0.07c0.002,0.029,0.004,0.06,0.008,0.079
		c0.002,0.03,0.004,0.051,0.007,0.08c0.002,0.021,0.004,0.04,0.006,0.07c0.002,0.021,0.004,0.05,0.006,0.07
		c0.002,0.029,0.004,0.052,0.006,0.08c0.002,0.021,0.005,0.04,0.005,0.061c0.002,0.028,0.006,0.06,0.008,0.079
		c0,0.02,0.002,0.05,0.004,0.07c0.002,0.02,0.004,0.049,0.007,0.08c0.002,0.021,0.004,0.049,0.006,0.069
		c0.002,0.03,0.004,0.05,0.006,0.081c0.002,0.02,0.002,0.039,0.004,0.06c0.002,0.029,0.004,0.061,0.005,0.091
		c0.002,0.019,0.004,0.039,0.006,0.059c0.002,0.03,0.004,0.05,0.006,0.08c0,0.021,0.002,0.041,0.002,0.061
		c0.002,0.029,0.004,0.06,0.009,0.1c0,0.01,0.002,0.03,0.002,0.04c0.002,0.04,0.004,0.07,0.006,0.1
		c0.002,0.021,0.002,0.031,0.002,0.05c0.002,0.03,0.004,0.07,0.006,0.101c0.002,0.02,0.002,0.03,0.003,0.05
		c0.002,0.029,0.004,0.061,0.006,0.09c0,0.03,0.002,0.051,0.004,0.07c0,0.03,0.002,0.051,0.004,0.082
		c0,0.028,0.002,0.049,0.002,0.068c0.002,0.029,0.004,0.049,0.004,0.08c0.003,0.02,0.003,0.049,0.005,0.069
		c0.002,0.03,0.002,0.05,0.004,0.081c0,0.02,0.002,0.049,0.002,0.079c0.002,0.021,0.002,0.04,0.004,0.06
		c0,0.031,0.002,0.051,0.002,0.08c0.002,0.02,0.002,0.051,0.004,0.08c0,0.021,0.002,0.04,0.002,0.07
		c0.001,0.02,0.003,0.05,0.003,0.07c0.002,0.029,0.002,0.061,0.002,0.08c0.002,0.029,0.002,0.049,0.004,0.069
		c0,0.03,0,0.061,0.002,0.101c0,0.01,0.002,0.029,0.002,0.049c0,0.031,0.002,0.061,0.002,0.091c0,0.021,0.002,0.04,0.002,0.06
		c0,0.021,0,0.051,0.002,0.07c0,0.029,0,0.05,0.003,0.081v0.06c0.002,0.029,0.002,0.06,0.002,0.09c0,0.029,0.002,0.049,0.002,0.08
		v0.069c0.002,0.03,0.002,0.05,0.002,0.08c0,0.021,0,0.05,0.002,0.069v0.061v0.09v0.031c0.002,0.039,0.002,0.08,0.002,0.12v0.119
		v0.03v0.149v0.24v0.06v0.062c0,0.029-0.002,0.059-0.002,0.09v0.06c0,0.029,0,0.06-0.002,0.09v0.101c0,0.009,0,0.028-0.002,0.039
		v0.1c-0.002,0.021-0.002,0.03-0.002,0.051c0,0.029,0,0.05-0.002,0.069v0.09c-0.003,0.021-0.003,0.041-0.003,0.063
		c-0.002,0.018-0.002,0.049-0.002,0.078c-0.002,0.041-0.002,0.07-0.004,0.1v0.051c-0.002,0.029-0.002,0.059-0.004,0.09v0.061
		c-0.002,0.029-0.004,0.059-0.004,0.09c0,0.02-0.002,0.039-0.002,0.061c0,0.029-0.002,0.061-0.003,0.088
		c0,0.021-0.002,0.041-0.002,0.061c-0.002,0.031-0.002,0.061-0.004,0.09c0,0.02-0.002,0.041-0.002,0.051
		c-0.002,0.029-0.002,0.061-0.004,0.09c0,0.02-0.002,0.041-0.002,0.061c-0.002,0.031-0.004,0.061-0.004,0.09
		c-0.002,0.02-0.002,0.039-0.005,0.059c0,0.031-0.002,0.07-0.004,0.102c0,0.02-0.002,0.029-0.002,0.049
		c-0.002,0.031-0.004,0.072-0.006,0.1c0,0.021-0.002,0.031-0.002,0.041c-0.002,0.041-0.006,0.08-0.007,0.109
		c0,0.02,0,0.031-0.002,0.041L93.56,49.41c0,0.01-0.002,0.02-0.002,0.031c-0.002,0.041-0.004,0.07-0.006,0.109
		c-0.002,0.01-0.002,0.029-0.002,0.029c-0.005,0.041-0.007,0.08-0.009,0.121c-0.002,0.01-0.002,0.02-0.002,0.029
		c-0.004,0.039-0.006,0.08-0.008,0.119c-0.002,0.012-0.002,0.021-0.004,0.031c-0.001,0.039-0.005,0.08-0.007,0.119
		c0,0.012-0.002,0.02-0.002,0.02c-0.002,0.053-0.006,0.082-0.008,0.131c-0.002,0-0.002,0.01-0.002,0.02
		c-0.005,0.041-0.009,0.08-0.011,0.131c-0.002,0-0.002,0.01-0.002,0.01c-0.004,0.051-0.006,0.09-0.011,0.141v0.01
		c-0.004,0.039-0.008,0.09-0.012,0.129v0.021c-0.004,0.039-0.008,0.09-0.013,0.129c0,0.01-0.002,0.01-0.002,0.01
		c-0.004,0.051-0.008,0.102-0.012,0.141c-0.005,0.051-0.009,0.1-0.013,0.141c0,0.01,0,0.01-0.002,0.01
		c-0.004,0.049-0.008,0.09-0.013,0.141l-0.002,0.01c-0.004,0.039-0.008,0.09-0.012,0.131l-0.002,0.008
		c-0.019,0.201-0.039,0.391-0.062,0.58c-2.074,18.24-14.728,33.291-31.701,38.93h-0.008c-0.041,0.01-0.084,0.029-0.127,0.041
		c-0.005,0-0.007,0-0.011,0.01c-0.037,0.01-0.076,0.02-0.114,0.029c-0.011,0.01-0.023,0.01-0.033,0.01
		c-0.035,0.01-0.071,0.029-0.104,0.041c-0.009,0-0.021,0-0.031,0.01c-0.034,0.01-0.065,0.02-0.102,0.029
		c-0.011,0-0.025,0.01-0.035,0.01c-0.035,0.012-0.069,0.02-0.103,0.031c-0.013,0.01-0.021,0.01-0.031,0.01
		c-0.034,0.01-0.067,0.02-0.1,0.029c-0.017,0.01-0.029,0.01-0.045,0.02c-0.029,0.01-0.063,0.021-0.093,0.031
		c-0.017,0-0.032,0.01-0.053,0.01c-0.023,0.01-0.05,0.02-0.074,0.029c-0.024,0-0.047,0.01-0.071,0.021
		c-0.021,0-0.044,0.008-0.064,0.02c-0.026,0.012-0.055,0.012-0.082,0.02c-0.016,0.01-0.032,0.01-0.049,0.02
		c-0.03,0.01-0.062,0.021-0.09,0.021c-0.019,0.008-0.033,0.008-0.052,0.02c-0.03,0.01-0.062,0.02-0.094,0.029
		c-0.013,0-0.022,0-0.037,0.01c-0.037,0.012-0.073,0.02-0.11,0.029c-0.009,0-0.017,0-0.024,0.012c-0.039,0.01-0.08,0.02-0.121,0.029
		c-0.006,0-0.009,0-0.015,0.01c-0.041,0.01-0.084,0.02-0.125,0.029c-0.006,0-0.008,0-0.012,0.01
		C55.818,92.531,51.812,93.141,47.673,93.209"/>
	<path fill="#D8D8D8" d="M69.363,65.311c-2,0-3.711-1.43-4.229-3.48L65.1,61.631L61.316,31.59c-0.201-0.66-0.771-1.119-1.412-1.119
		c-0.684,0.02-1.254,0.5-1.434,1.189l-3.234,29.83l-0.028,0.17c-0.457,2.109-2.151,3.609-4.117,3.65c-1.469,0-2.78-0.77-3.579-1.99
		V44.481l2.092,16.589c0.201,0.67,0.772,1.119,1.41,1.119c0.68-0.01,1.248-0.488,1.43-1.18l3.236-29.829l0.03-0.17
		c0.457-2.11,2.147-3.61,4.115-3.65c2.008,0,3.717,1.431,4.233,3.479l0.037,0.211L67.88,61.08c0.201,0.66,0.771,1.109,1.412,1.109
		c0.681-0.01,1.25-0.488,1.429-1.18l1.612-14.859c0.088-0.78,0.685-1.369,1.401-1.369h14.608c0.574,0,1.066,0.369,1.289,0.909
		c0.08,0.2,0.125,0.42,0.125,0.649c0,0.221-0.041,0.431-0.118,0.621c-0.218,0.55-0.716,0.929-1.296,0.929H74.988l-1.473,13.6
		l-0.031,0.17C73.027,63.77,71.333,65.27,69.363,65.311"/>
</g>
</svg>
