<?xml version="1.0" encoding="utf-8"?>
<!-- Generator: Adobe Illustrator 16.0.0, SVG Export Plug-In . SVG Version: 6.00 Build 0)  -->
<!DOCTYPE svg PUBLIC "-//W3C//DTD SVG 1.1//EN" "http://www.w3.org/Graphics/SVG/1.1/DTD/svg11.dtd">
<svg version="1.1" id="Layer_1" xmlns="http://www.w3.org/2000/svg" xmlns:xlink="http://www.w3.org/1999/xlink" x="0px" y="0px"
	 width="93.64px" height="93.218px" viewBox="0 0 93.64 93.218" enable-background="new 0 0 93.64 93.218" xml:space="preserve">
<g>
	<path fill="#7ACC78" d="M91.644,46.608c0,24.639-20.068,44.609-44.826,44.609C22.066,91.218,2,71.247,2,46.608
		C2,21.969,22.066,2,46.817,2C71.575,2,91.644,21.969,91.644,46.608"/>
	<path fill="#FFFFFF" d="M91.644,46.608h-2.003c0,11.77-4.786,22.41-12.538,30.129c-7.755,7.711-18.451,12.48-30.285,12.48
		c-11.832,0-22.526-4.77-30.279-12.48C8.788,69.019,4,58.378,4,46.608C4,34.841,8.788,24.2,16.538,16.482
		C24.291,8.767,34.985,4.001,46.817,3.999c11.834,0.002,22.53,4.768,30.285,12.483c7.75,7.718,12.538,18.358,12.538,30.126H91.644
		h1.997C93.641,20.856,72.672,0,46.817,0C20.969,0,0.002,20.856,0,46.608c0.002,25.75,20.969,46.609,46.817,46.609
		c25.854,0,46.821-20.859,46.823-46.609H91.644"/>
	<path fill="#DEDEDE" d="M93.642,46.608h-1.998h-2.002c0,11.77-4.787,22.41-12.539,30.129c-7.567,7.521-17.937,12.25-29.43,12.471v4
		C73.132,92.759,93.64,72.067,93.642,46.608 M47.673,0.007v4.001c11.493,0.224,21.862,4.944,29.43,12.475
		c7.75,7.718,12.539,18.356,12.539,30.126h2.002h1.998C93.642,21.143,73.132,0.46,47.673,0.007"/>
	<path fill="#FFFFFF" d="M77.213,21.375h-18.88c-6.176,0-9.196,1.452-10.665,2.962c-1.462-1.51-4.484-2.962-10.66-2.962H18.125
		c-0.9,0-1.623,0.737-1.623,1.64v44.693c0,0.91,0.723,1.639,1.623,1.639h0.178h10.031h8.674c3.985,0,7.967,1.701,8.004,1.91h0.026
		c0.808,0.611,0.813,0.602,1.623,0.602h2.16c0.823,0,0.864,0.01,1.599-0.76c0.133-0.23,4.248-1.752,7.911-1.752h8.671h10.034h0.177
		c0.901,0,1.627-0.738,1.627-1.639V23.015C78.84,22.112,78.116,21.375,77.213,21.375 M45.221,27.313v40.924
		c0,0-3.463-1.91-8.138-1.91H19.79V24.403h17.293C46.131,24.403,45.221,27.313,45.221,27.313 M54.086,36.524h14.406v1.973H54.086
		V36.524z M68.493,54.288H54.087v-1.971h14.406V54.288z M68.493,50.337H54.087v-1.969h14.406V50.337z M68.493,46.397H54.087v-1.977
		h14.406V46.397z M68.493,42.444H54.087V40.47h14.406V42.444z"/>
	<rect x="25.127" y="44.421" fill="#FFFFFF" width="14.406" height="1.977"/>
	<rect x="31.43" y="36.524" fill="#FFFFFF" width="8.104" height="1.975"/>
	<rect x="25.127" y="40.472" fill="#FFFFFF" width="14.406" height="1.975"/>
	<rect x="25.127" y="48.368" fill="#FFFFFF" width="14.406" height="1.969"/>
	<rect x="25.127" y="52.317" fill="#FFFFFF" width="14.406" height="1.971"/>
	<path fill="#D85662" d="M46.803,94.917v-1.699h0.015c0.285,0,0.569,0,0.854-0.01v1.689C47.383,94.907,47.092,94.907,46.803,94.917"
		/>
	<path fill="#70B76C" d="M46.816,89.218h-0.014V71.858h2.019h0.075c0.75,0,0.813-0.01,1.524-0.76c0.132-0.23,4.248-1.75,7.91-1.75
		h8.672h10.033h0.177c0.901,0,1.627-0.74,1.627-1.641V23.016c0-0.901-0.724-1.64-1.627-1.64h-18.88
		c-6.176,0-9.196,1.453-10.664,2.961c-0.245-0.25-0.53-0.5-0.866-0.74V3.999h0.014c0.285,0,0.57,0.002,0.855,0.008
		c1.073,0.022,2.135,0.082,3.188,0.18c0.007,0.002,0.013,0.002,0.019,0.002c0.07,0.007,0.14,0.014,0.21,0.02l0.065,0.006
		c0.06,0.008,0.12,0.015,0.182,0.02c0.031,0.004,0.058,0.006,0.089,0.01c0.053,0.006,0.11,0.01,0.163,0.018
		c0.035,0.004,0.072,0.008,0.106,0.012c0.052,0.007,0.101,0.012,0.148,0.018c0.039,0.004,0.08,0.008,0.121,0.014
		c0.043,0.005,0.084,0.01,0.127,0.016c0.051,0.006,0.098,0.012,0.149,0.018c0.032,0.004,0.067,0.01,0.103,0.014
		c0.055,0.007,0.112,0.014,0.166,0.021C52.54,4.376,52.568,4.38,52.6,4.385c0.062,0.008,0.119,0.017,0.179,0.024
		c0.024,0.004,0.053,0.007,0.077,0.011c0.065,0.009,0.129,0.018,0.193,0.028c0.02,0.003,0.043,0.006,0.063,0.008
		c0.069,0.01,0.141,0.021,0.211,0.031c0.015,0.002,0.028,0.006,0.045,0.008c0.073,0.01,0.147,0.022,0.224,0.034
		c0.01,0.001,0.024,0.004,0.036,0.006c0.078,0.011,0.156,0.025,0.234,0.038c0.008,0,0.016,0.002,0.022,0.004
		c0.082,0.014,0.166,0.027,0.246,0.042c0.004,0,0.008,0.001,0.012,0.001c8.101,1.389,15.414,5.037,21.278,10.276
		c0.001,0.001,0.001,0.002,0.003,0.004c0.061,0.054,0.123,0.109,0.184,0.165c0.002,0.002,0.007,0.004,0.009,0.006
		c0.06,0.055,0.121,0.11,0.181,0.166c0.002,0.002,0.006,0.004,0.008,0.008c0.062,0.055,0.121,0.111,0.183,0.166
		c0.002,0.002,0.006,0.005,0.008,0.006c0.056,0.055,0.114,0.11,0.174,0.164c0.005,0.004,0.009,0.008,0.013,0.013
		c0.06,0.055,0.117,0.11,0.176,0.166c0.005,0.003,0.009,0.006,0.011,0.009c0.06,0.057,0.121,0.114,0.179,0.172
		c0.002,0.001,0.004,0.003,0.006,0.005c0.057,0.055,0.114,0.11,0.17,0.166c0.006,0.003,0.01,0.009,0.017,0.013
		c0.055,0.054,0.11,0.109,0.168,0.164c0.004,0.004,0.01,0.01,0.014,0.016c0.06,0.059,0.121,0.117,0.181,0.179
		c7.75,7.718,12.539,18.356,12.539,30.126s-4.787,22.41-12.539,30.129l-0.181,0.18c-0.006,0-0.012,0.012-0.018,0.012
		c-0.056,0.059-0.109,0.109-0.164,0.158c-0.011,0.012-0.019,0.021-0.026,0.031c-0.052,0.051-0.107,0.1-0.16,0.15
		c-0.004,0.01-0.006,0.01-0.007,0.01c-0.059,0.059-0.118,0.109-0.176,0.17c-0.006,0-0.015,0.01-0.021,0.02
		c-0.056,0.051-0.11,0.1-0.168,0.15c-0.006,0.01-0.011,0.01-0.015,0.02c-0.06,0.051-0.114,0.109-0.17,0.16
		c-0.008,0-0.017,0.01-0.022,0.02c-0.054,0.051-0.11,0.1-0.168,0.15c-0.006,0.012-0.011,0.012-0.017,0.02
		c-0.058,0.051-0.116,0.1-0.172,0.15c-0.004,0.01-0.011,0.01-0.015,0.02c-0.058,0.051-0.119,0.1-0.178,0.16
		c-0.004,0-0.007,0-0.011,0.01c-0.062,0.051-0.121,0.102-0.183,0.16h-0.008c-0.127,0.121-0.252,0.23-0.379,0.34h-0.002
		c-5.89,5.07-13.183,8.58-21.228,9.852c-0.007,0.01-0.011,0.01-0.017,0.01c-0.08,0.01-0.158,0.02-0.237,0.029
		c-0.013,0.012-0.024,0.012-0.035,0.012c-0.074,0.008-0.151,0.018-0.226,0.027c-0.014,0.012-0.028,0.012-0.045,0.012
		c-0.069,0.01-0.14,0.02-0.213,0.029c-0.019,0-0.039,0.01-0.056,0.01c-0.069,0.01-0.135,0.02-0.203,0.029h-0.067
		c-0.062,0.012-0.125,0.021-0.187,0.031c-0.03,0-0.06,0.01-0.086,0.01c-0.06,0.01-0.114,0.01-0.17,0.02
		c-0.033,0-0.067,0.01-0.101,0.01c-0.051,0.01-0.101,0.01-0.151,0.021c-0.041,0.01-0.082,0.01-0.123,0.01
		c-0.041,0.01-0.082,0.01-0.123,0.02c-0.052,0-0.103,0.01-0.151,0.01c-0.031,0.012-0.062,0.012-0.095,0.012
		c-0.062,0.008-0.119,0.018-0.181,0.018c-0.02,0.01-0.041,0.01-0.063,0.01c-0.068,0.012-0.138,0.012-0.207,0.021h-0.035
		c-1.047,0.1-2.104,0.16-3.174,0.18C47.387,89.218,47.102,89.218,46.816,89.218"/>
	<path fill="#E8E8E8" d="M46.817,93.218h-0.014v-4h0.014c0.285,0,0.57,0,0.855-0.01v4C47.388,93.218,47.103,93.218,46.817,93.218
		 M50.847,89.028h0.035H50.847 M51.088,89.007c0.022,0,0.044,0,0.063-0.01C51.132,89.007,51.11,89.007,51.088,89.007 M51.33,88.979
		c0.033,0,0.065,0,0.097-0.012C51.396,88.979,51.363,88.979,51.33,88.979 M51.576,88.958c0.041-0.01,0.082-0.01,0.123-0.02
		C51.658,88.948,51.617,88.948,51.576,88.958 M51.822,88.929c0.051-0.012,0.103-0.012,0.153-0.021
		C51.925,88.917,51.873,88.917,51.822,88.929 M52.074,88.897c0.058-0.01,0.112-0.01,0.17-0.02
		C52.187,88.888,52.132,88.888,52.074,88.897 M52.33,88.868c0.063-0.01,0.125-0.02,0.188-0.031
		C52.455,88.849,52.394,88.858,52.33,88.868 M52.584,88.837c0.068-0.01,0.136-0.02,0.203-0.029
		C52.72,88.817,52.652,88.827,52.584,88.837 M52.845,88.798c0.071-0.01,0.142-0.02,0.213-0.029
		C52.984,88.778,52.916,88.788,52.845,88.798 M53.103,88.757c0.074-0.01,0.149-0.02,0.224-0.027
		C53.252,88.737,53.179,88.747,53.103,88.757 M53.361,88.718c0.081-0.01,0.159-0.02,0.239-0.029
		C53.521,88.698,53.442,88.708,53.361,88.718 M53.615,88.679c8.045-1.271,15.338-4.781,21.229-9.852
		C68.953,83.897,61.662,87.407,53.615,88.679 M74.847,78.827c0.127-0.109,0.252-0.219,0.379-0.34
		C75.099,78.608,74.974,78.718,74.847,78.827 M75.233,78.487c0.06-0.059,0.121-0.109,0.181-0.16
		C75.354,78.378,75.295,78.429,75.233,78.487 M75.427,78.317c0.058-0.061,0.118-0.109,0.178-0.16
		C75.545,78.208,75.484,78.257,75.427,78.317 M75.617,78.138c0.058-0.051,0.116-0.1,0.172-0.15
		C75.733,78.038,75.675,78.087,75.617,78.138 M75.808,77.968c0.056-0.051,0.112-0.1,0.168-0.15
		C75.92,77.868,75.863,77.917,75.808,77.968 M75.996,77.798c0.058-0.051,0.112-0.109,0.17-0.16
		C76.108,77.688,76.054,77.747,75.996,77.798 M76.183,77.618c0.056-0.051,0.11-0.1,0.168-0.15
		C76.293,77.519,76.238,77.567,76.183,77.618 M76.369,77.448c0.06-0.061,0.117-0.111,0.176-0.17
		C76.486,77.337,76.429,77.388,76.369,77.448 M76.554,77.269c0.053-0.051,0.106-0.1,0.159-0.15
		C76.66,77.169,76.606,77.218,76.554,77.269 M76.738,77.087c0.055-0.049,0.11-0.1,0.164-0.158
		C76.849,76.987,76.793,77.038,76.738,77.087 M76.92,76.917l0.183-0.18c7.752-7.719,12.539-18.359,12.539-30.129
		c0,11.77-4.787,22.41-12.539,30.129L76.92,76.917 M77.103,16.482c-0.062-0.062-0.121-0.12-0.183-0.179
		C76.981,16.362,77.041,16.421,77.103,16.482 M76.906,16.288c-0.056-0.055-0.113-0.11-0.168-0.164
		C76.793,16.179,76.851,16.232,76.906,16.288 M76.724,16.111c-0.058-0.056-0.114-0.111-0.17-0.165
		C76.609,16,76.666,16.056,76.724,16.111 M76.548,15.94c-0.06-0.058-0.119-0.115-0.181-0.172
		C76.429,15.825,76.486,15.883,76.548,15.94 M76.358,15.76c-0.059-0.056-0.118-0.111-0.176-0.166
		C76.24,15.648,76.3,15.704,76.358,15.76 M76.168,15.581c-0.059-0.054-0.116-0.109-0.174-0.164
		C76.052,15.472,76.109,15.527,76.168,15.581 M75.986,15.411c-0.06-0.055-0.121-0.111-0.181-0.166
		C75.865,15.3,75.927,15.356,75.986,15.411 M75.798,15.237c-0.062-0.056-0.121-0.111-0.183-0.166
		C75.677,15.126,75.736,15.182,75.798,15.237 M75.608,15.065c-0.061-0.056-0.124-0.111-0.184-0.165
		C75.486,14.956,75.548,15.01,75.608,15.065 M75.42,14.896C69.558,9.657,62.242,6.009,54.144,4.62
		C62.242,6.007,69.558,9.657,75.42,14.896 M54.132,4.619c-0.08-0.015-0.164-0.028-0.246-0.042
		C53.968,4.591,54.05,4.604,54.132,4.619 M53.861,4.573c-0.078-0.013-0.156-0.027-0.234-0.038
		C53.705,4.546,53.783,4.561,53.861,4.573 M53.593,4.53c-0.076-0.013-0.15-0.025-0.226-0.035C53.442,4.505,53.517,4.518,53.593,4.53
		 M53.322,4.487c-0.07-0.011-0.14-0.021-0.211-0.031C53.183,4.467,53.252,4.477,53.322,4.487 M53.05,4.448
		c-0.065-0.011-0.13-0.02-0.193-0.028C52.92,4.429,52.984,4.438,53.05,4.448 M52.777,4.409c-0.058-0.008-0.117-0.017-0.177-0.024
		C52.66,4.393,52.72,4.401,52.777,4.409 M52.509,4.372c-0.056-0.008-0.111-0.015-0.166-0.021
		C52.397,4.357,52.453,4.364,52.509,4.372 M52.238,4.337c-0.05-0.006-0.097-0.012-0.147-0.018
		C52.142,4.325,52.188,4.331,52.238,4.337 M51.963,4.304c-0.04-0.006-0.081-0.01-0.12-0.014C51.882,4.294,51.923,4.298,51.963,4.304
		 M51.693,4.272c-0.035-0.004-0.072-0.008-0.107-0.012C51.623,4.265,51.658,4.269,51.693,4.272 M51.425,4.243
		c-0.031-0.004-0.06-0.006-0.091-0.01C51.363,4.237,51.394,4.239,51.425,4.243 M51.152,4.214l-0.064-0.006L51.152,4.214
		 M50.877,4.188c-0.006,0-0.012,0-0.017-0.002C50.865,4.188,50.871,4.188,50.877,4.188 M47.673,4.007
		c-0.285-0.006-0.57-0.008-0.855-0.008h-0.014V0h0.014c0.285,0,0.57,0.001,0.855,0.007V4.007"/>
	<path fill="#D1D1D1" d="M47.673,93.208L47.673,93.208v-4c1.067-0.02,2.127-0.08,3.174-0.18h0.035
		c0.067-0.01,0.139-0.01,0.206-0.021c0.022,0,0.044,0,0.063-0.01c0.06,0,0.119-0.01,0.179-0.018c0.033,0,0.065,0,0.097-0.012
		c0.049,0,0.1-0.01,0.149-0.01c0.041-0.01,0.082-0.01,0.123-0.02c0.041,0,0.082,0,0.123-0.01c0.051-0.012,0.103-0.012,0.153-0.021
		c0.033,0,0.065-0.01,0.099-0.01c0.058-0.01,0.112-0.01,0.17-0.02c0.028,0,0.058-0.01,0.086-0.01
		c0.063-0.01,0.125-0.021,0.188-0.031h0.065c0.068-0.008,0.136-0.02,0.203-0.029c0.019,0,0.037-0.01,0.058-0.01
		c0.071-0.01,0.14-0.02,0.213-0.029c0.015,0,0.03,0,0.045-0.012c0.076-0.01,0.149-0.02,0.224-0.027c0.012,0,0.024,0,0.035-0.012
		c0.081-0.01,0.159-0.02,0.239-0.029c0.006,0,0.009,0,0.015-0.01c8.047-1.271,15.338-4.781,21.229-9.85h0.002
		c0.127-0.111,0.252-0.221,0.379-0.342h0.008c0.062-0.059,0.121-0.109,0.181-0.158c0.004-0.012,0.009-0.012,0.013-0.012
		c0.058-0.061,0.118-0.109,0.178-0.16c0.004-0.01,0.009-0.01,0.013-0.02c0.058-0.051,0.116-0.1,0.172-0.15
		c0.006-0.008,0.013-0.008,0.019-0.02c0.056-0.051,0.112-0.1,0.168-0.15c0.006-0.01,0.013-0.02,0.021-0.02
		c0.058-0.051,0.112-0.109,0.17-0.16c0.004-0.01,0.011-0.01,0.017-0.02c0.056-0.051,0.11-0.1,0.168-0.15
		c0.006-0.01,0.013-0.02,0.019-0.02c0.06-0.061,0.117-0.111,0.176-0.17c0.003,0,0.005,0,0.009-0.01
		c0.053-0.051,0.106-0.1,0.159-0.15c0.009-0.01,0.017-0.02,0.025-0.031c0.055-0.049,0.11-0.1,0.164-0.158
		c0.006,0,0.012-0.012,0.018-0.012l0.183-0.18c7.752-7.719,12.539-18.359,12.539-30.129S84.853,24.2,77.103,16.482
		c-0.062-0.062-0.121-0.12-0.183-0.181c-0.004-0.004-0.01-0.01-0.014-0.012c-0.056-0.058-0.113-0.111-0.168-0.167
		c-0.005-0.003-0.009-0.009-0.015-0.012c-0.058-0.056-0.114-0.111-0.17-0.166c-0.002-0.002-0.004-0.004-0.006-0.005
		c-0.062-0.058-0.119-0.114-0.181-0.171c-0.002-0.003-0.006-0.007-0.009-0.011c-0.059-0.055-0.118-0.11-0.176-0.166
		c-0.004-0.004-0.008-0.008-0.015-0.013c-0.059-0.053-0.116-0.108-0.174-0.163c-0.002-0.002-0.006-0.004-0.008-0.005
		c-0.06-0.056-0.121-0.112-0.181-0.168c-0.002-0.002-0.006-0.005-0.008-0.007c-0.062-0.057-0.121-0.111-0.183-0.166
		c-0.002-0.002-0.006-0.004-0.007-0.006c-0.061-0.057-0.122-0.11-0.184-0.165c-0.002-0.002-0.002-0.003-0.005-0.004
		C69.558,9.657,62.242,6.007,54.144,4.62c-0.004,0-0.008-0.002-0.012-0.002c-0.082-0.014-0.164-0.027-0.246-0.042
		c-0.009,0-0.017-0.003-0.024-0.003c-0.078-0.014-0.156-0.027-0.234-0.039c-0.012-0.002-0.024-0.004-0.034-0.005
		c-0.076-0.012-0.15-0.024-0.226-0.035c-0.015-0.002-0.029-0.005-0.045-0.007c-0.07-0.01-0.14-0.021-0.211-0.031
		c-0.019-0.002-0.043-0.006-0.062-0.009c-0.065-0.01-0.13-0.019-0.193-0.027c-0.026-0.005-0.053-0.008-0.079-0.012
		c-0.058-0.007-0.117-0.015-0.177-0.023c-0.032-0.005-0.062-0.009-0.092-0.013c-0.056-0.008-0.111-0.015-0.166-0.021
		c-0.035-0.004-0.07-0.01-0.104-0.014c-0.05-0.006-0.097-0.011-0.147-0.018c-0.043-0.006-0.084-0.01-0.128-0.016
		c-0.04-0.006-0.081-0.01-0.12-0.014c-0.05-0.006-0.099-0.011-0.149-0.018c-0.035-0.003-0.07-0.008-0.107-0.012
		c-0.053-0.008-0.108-0.013-0.161-0.019c-0.031-0.003-0.062-0.005-0.091-0.009c-0.06-0.005-0.121-0.012-0.182-0.02l-0.064-0.006
		c-0.069-0.006-0.141-0.013-0.211-0.02c-0.006,0-0.012,0-0.017-0.002c-1.053-0.098-2.116-0.157-3.188-0.18v-4
		c5.396,0.098,10.569,1.102,15.375,2.867C80.904,9.443,93.642,26.54,93.642,46.608C93.64,72.067,73.132,92.757,47.673,93.208"/>
	<path fill="#8BC48A" d="M68.493,54.288H54.087v-1.971h14.406V54.288z M68.493,50.337H54.087v-1.969h14.406V50.337z M68.493,46.397
		H54.087v-1.977h14.406V46.397z M68.493,42.444H54.087V40.47h14.406V42.444z M68.493,38.497H54.087v-1.973h14.406V38.497z"/>
	<path fill="#E8E8E8" d="M48.896,71.858h-0.075h-2.019V23.596c0.336,0.241,0.621,0.491,0.865,0.741
		c1.469-1.51,4.489-2.962,10.665-2.962h18.88c0.903,0,1.627,0.737,1.627,1.64v44.693c0,0.9-0.726,1.639-1.627,1.639h-0.177H67.002
		h-8.671c-3.663,0-7.778,1.521-7.911,1.752C49.709,71.849,49.646,71.858,48.896,71.858 M54.086,54.288h14.406v-1.971H54.086V54.288z
		 M54.086,50.337h14.406v-1.969H54.086V50.337z M54.086,46.397h14.406v-1.977H54.086V46.397z M54.086,42.444h14.406V40.47H54.086
		V42.444z M54.086,38.497h14.406v-1.973H54.086V38.497z"/>
</g>
</svg>
